<?xml version="1.0" encoding="utf-8" standalone="no"?>
<!DOCTYPE svg PUBLIC "-//W3C//DTD SVG 1.1//EN"
  "http://www.w3.org/Graphics/SVG/1.1/DTD/svg11.dtd">
<!-- Created with matplotlib (https://matplotlib.org/) -->
<svg height="432pt" version="1.1" viewBox="0 0 576 432" width="576pt" xmlns="http://www.w3.org/2000/svg" xmlns:xlink="http://www.w3.org/1999/xlink">
 <defs>
  <style type="text/css">
*{stroke-linecap:butt;stroke-linejoin:round;}
  </style>
 </defs>
 <g id="figure_1">
  <g id="patch_1">
   <path d="M 0 432 
L 576 432 
L 576 0 
L 0 0 
z
" style="fill:#ffffff;"/>
  </g>
  <g id="axes_1">
   <g id="patch_2">
    <path d="M 42.05 386.2 
L 557.2625 386.2 
L 557.2625 14.3 
L 42.05 14.3 
z
" style="fill:#ffffff;"/>
   </g>
   <g id="matplotlib.axis_1">
    <g id="xtick_1">
     <g id="line2d_1">
      <defs>
       <path d="M 0 0 
L 0 3.5 
" id="mde26a92fc1" style="stroke:#000000;stroke-width:0.8;"/>
      </defs>
      <g>
       <use style="stroke:#000000;stroke-width:0.8;" x="42.044848" xlink:href="#mde26a92fc1" y="386.2"/>
      </g>
     </g>
     <g id="text_1">
      <!-- 0.0 -->
      <defs>
       <path d="M 31.78125 66.40625 
Q 24.171875 66.40625 20.328125 58.90625 
Q 16.5 51.421875 16.5 36.375 
Q 16.5 21.390625 20.328125 13.890625 
Q 24.171875 6.390625 31.78125 6.390625 
Q 39.453125 6.390625 43.28125 13.890625 
Q 47.125 21.390625 47.125 36.375 
Q 47.125 51.421875 43.28125 58.90625 
Q 39.453125 66.40625 31.78125 66.40625 
z
M 31.78125 74.21875 
Q 44.046875 74.21875 50.515625 64.515625 
Q 56.984375 54.828125 56.984375 36.375 
Q 56.984375 17.96875 50.515625 8.265625 
Q 44.046875 -1.421875 31.78125 -1.421875 
Q 19.53125 -1.421875 13.0625 8.265625 
Q 6.59375 17.96875 6.59375 36.375 
Q 6.59375 54.828125 13.0625 64.515625 
Q 19.53125 74.21875 31.78125 74.21875 
z
" id="DejaVuSans-48"/>
       <path d="M 10.6875 12.40625 
L 21 12.40625 
L 21 0 
L 10.6875 0 
z
" id="DejaVuSans-46"/>
      </defs>
      <g transform="translate(34.093285 400.798437)scale(0.1 -0.1)">
       <use xlink:href="#DejaVuSans-48"/>
       <use x="63.623047" xlink:href="#DejaVuSans-46"/>
       <use x="95.410156" xlink:href="#DejaVuSans-48"/>
      </g>
     </g>
    </g>
    <g id="xtick_2">
     <g id="line2d_2">
      <g>
       <use style="stroke:#000000;stroke-width:0.8;" x="145.088378" xlink:href="#mde26a92fc1" y="386.2"/>
      </g>
     </g>
     <g id="text_2">
      <!-- 0.2 -->
      <defs>
       <path d="M 19.1875 8.296875 
L 53.609375 8.296875 
L 53.609375 0 
L 7.328125 0 
L 7.328125 8.296875 
Q 12.9375 14.109375 22.625 23.890625 
Q 32.328125 33.6875 34.8125 36.53125 
Q 39.546875 41.84375 41.421875 45.53125 
Q 43.3125 49.21875 43.3125 52.78125 
Q 43.3125 58.59375 39.234375 62.25 
Q 35.15625 65.921875 28.609375 65.921875 
Q 23.96875 65.921875 18.8125 64.3125 
Q 13.671875 62.703125 7.8125 59.421875 
L 7.8125 69.390625 
Q 13.765625 71.78125 18.9375 73 
Q 24.125 74.21875 28.421875 74.21875 
Q 39.75 74.21875 46.484375 68.546875 
Q 53.21875 62.890625 53.21875 53.421875 
Q 53.21875 48.921875 51.53125 44.890625 
Q 49.859375 40.875 45.40625 35.40625 
Q 44.1875 33.984375 37.640625 27.21875 
Q 31.109375 20.453125 19.1875 8.296875 
z
" id="DejaVuSans-50"/>
      </defs>
      <g transform="translate(137.136816 400.798437)scale(0.1 -0.1)">
       <use xlink:href="#DejaVuSans-48"/>
       <use x="63.623047" xlink:href="#DejaVuSans-46"/>
       <use x="95.410156" xlink:href="#DejaVuSans-50"/>
      </g>
     </g>
    </g>
    <g id="xtick_3">
     <g id="line2d_3">
      <g>
       <use style="stroke:#000000;stroke-width:0.8;" x="248.131909" xlink:href="#mde26a92fc1" y="386.2"/>
      </g>
     </g>
     <g id="text_3">
      <!-- 0.4 -->
      <defs>
       <path d="M 37.796875 64.3125 
L 12.890625 25.390625 
L 37.796875 25.390625 
z
M 35.203125 72.90625 
L 47.609375 72.90625 
L 47.609375 25.390625 
L 58.015625 25.390625 
L 58.015625 17.1875 
L 47.609375 17.1875 
L 47.609375 0 
L 37.796875 0 
L 37.796875 17.1875 
L 4.890625 17.1875 
L 4.890625 26.703125 
z
" id="DejaVuSans-52"/>
      </defs>
      <g transform="translate(240.180346 400.798437)scale(0.1 -0.1)">
       <use xlink:href="#DejaVuSans-48"/>
       <use x="63.623047" xlink:href="#DejaVuSans-46"/>
       <use x="95.410156" xlink:href="#DejaVuSans-52"/>
      </g>
     </g>
    </g>
    <g id="xtick_4">
     <g id="line2d_4">
      <g>
       <use style="stroke:#000000;stroke-width:0.8;" x="351.175439" xlink:href="#mde26a92fc1" y="386.2"/>
      </g>
     </g>
     <g id="text_4">
      <!-- 0.6 -->
      <defs>
       <path d="M 33.015625 40.375 
Q 26.375 40.375 22.484375 35.828125 
Q 18.609375 31.296875 18.609375 23.390625 
Q 18.609375 15.53125 22.484375 10.953125 
Q 26.375 6.390625 33.015625 6.390625 
Q 39.65625 6.390625 43.53125 10.953125 
Q 47.40625 15.53125 47.40625 23.390625 
Q 47.40625 31.296875 43.53125 35.828125 
Q 39.65625 40.375 33.015625 40.375 
z
M 52.59375 71.296875 
L 52.59375 62.3125 
Q 48.875 64.0625 45.09375 64.984375 
Q 41.3125 65.921875 37.59375 65.921875 
Q 27.828125 65.921875 22.671875 59.328125 
Q 17.53125 52.734375 16.796875 39.40625 
Q 19.671875 43.65625 24.015625 45.921875 
Q 28.375 48.1875 33.59375 48.1875 
Q 44.578125 48.1875 50.953125 41.515625 
Q 57.328125 34.859375 57.328125 23.390625 
Q 57.328125 12.15625 50.6875 5.359375 
Q 44.046875 -1.421875 33.015625 -1.421875 
Q 20.359375 -1.421875 13.671875 8.265625 
Q 6.984375 17.96875 6.984375 36.375 
Q 6.984375 53.65625 15.1875 63.9375 
Q 23.390625 74.21875 37.203125 74.21875 
Q 40.921875 74.21875 44.703125 73.484375 
Q 48.484375 72.75 52.59375 71.296875 
z
" id="DejaVuSans-54"/>
      </defs>
      <g transform="translate(343.223877 400.798437)scale(0.1 -0.1)">
       <use xlink:href="#DejaVuSans-48"/>
       <use x="63.623047" xlink:href="#DejaVuSans-46"/>
       <use x="95.410156" xlink:href="#DejaVuSans-54"/>
      </g>
     </g>
    </g>
    <g id="xtick_5">
     <g id="line2d_5">
      <g>
       <use style="stroke:#000000;stroke-width:0.8;" x="454.21897" xlink:href="#mde26a92fc1" y="386.2"/>
      </g>
     </g>
     <g id="text_5">
      <!-- 0.8 -->
      <defs>
       <path d="M 31.78125 34.625 
Q 24.75 34.625 20.71875 30.859375 
Q 16.703125 27.09375 16.703125 20.515625 
Q 16.703125 13.921875 20.71875 10.15625 
Q 24.75 6.390625 31.78125 6.390625 
Q 38.8125 6.390625 42.859375 10.171875 
Q 46.921875 13.96875 46.921875 20.515625 
Q 46.921875 27.09375 42.890625 30.859375 
Q 38.875 34.625 31.78125 34.625 
z
M 21.921875 38.8125 
Q 15.578125 40.375 12.03125 44.71875 
Q 8.5 49.078125 8.5 55.328125 
Q 8.5 64.0625 14.71875 69.140625 
Q 20.953125 74.21875 31.78125 74.21875 
Q 42.671875 74.21875 48.875 69.140625 
Q 55.078125 64.0625 55.078125 55.328125 
Q 55.078125 49.078125 51.53125 44.71875 
Q 48 40.375 41.703125 38.8125 
Q 48.828125 37.15625 52.796875 32.3125 
Q 56.78125 27.484375 56.78125 20.515625 
Q 56.78125 9.90625 50.3125 4.234375 
Q 43.84375 -1.421875 31.78125 -1.421875 
Q 19.734375 -1.421875 13.25 4.234375 
Q 6.78125 9.90625 6.78125 20.515625 
Q 6.78125 27.484375 10.78125 32.3125 
Q 14.796875 37.15625 21.921875 38.8125 
z
M 18.3125 54.390625 
Q 18.3125 48.734375 21.84375 45.5625 
Q 25.390625 42.390625 31.78125 42.390625 
Q 38.140625 42.390625 41.71875 45.5625 
Q 45.3125 48.734375 45.3125 54.390625 
Q 45.3125 60.0625 41.71875 63.234375 
Q 38.140625 66.40625 31.78125 66.40625 
Q 25.390625 66.40625 21.84375 63.234375 
Q 18.3125 60.0625 18.3125 54.390625 
z
" id="DejaVuSans-56"/>
      </defs>
      <g transform="translate(446.267407 400.798437)scale(0.1 -0.1)">
       <use xlink:href="#DejaVuSans-48"/>
       <use x="63.623047" xlink:href="#DejaVuSans-46"/>
       <use x="95.410156" xlink:href="#DejaVuSans-56"/>
      </g>
     </g>
    </g>
    <g id="xtick_6">
     <g id="line2d_6">
      <g>
       <use style="stroke:#000000;stroke-width:0.8;" x="557.2625" xlink:href="#mde26a92fc1" y="386.2"/>
      </g>
     </g>
     <g id="text_6">
      <!-- 1.0 -->
      <defs>
       <path d="M 12.40625 8.296875 
L 28.515625 8.296875 
L 28.515625 63.921875 
L 10.984375 60.40625 
L 10.984375 69.390625 
L 28.421875 72.90625 
L 38.28125 72.90625 
L 38.28125 8.296875 
L 54.390625 8.296875 
L 54.390625 0 
L 12.40625 0 
z
" id="DejaVuSans-49"/>
      </defs>
      <g transform="translate(549.310938 400.798437)scale(0.1 -0.1)">
       <use xlink:href="#DejaVuSans-49"/>
       <use x="63.623047" xlink:href="#DejaVuSans-46"/>
       <use x="95.410156" xlink:href="#DejaVuSans-48"/>
      </g>
     </g>
    </g>
    <g id="text_7">
     <!-- t -->
     <defs>
      <path d="M 18.3125 70.21875 
L 18.3125 54.6875 
L 36.8125 54.6875 
L 36.8125 47.703125 
L 18.3125 47.703125 
L 18.3125 18.015625 
Q 18.3125 11.328125 20.140625 9.421875 
Q 21.96875 7.515625 27.59375 7.515625 
L 36.8125 7.515625 
L 36.8125 0 
L 27.59375 0 
Q 17.1875 0 13.234375 3.875 
Q 9.28125 7.765625 9.28125 18.015625 
L 9.28125 47.703125 
L 2.6875 47.703125 
L 2.6875 54.6875 
L 9.28125 54.6875 
L 9.28125 70.21875 
z
" id="DejaVuSans-116"/>
     </defs>
     <g transform="translate(296.912031 417.515938)scale(0.14 -0.14)">
      <use xlink:href="#DejaVuSans-116"/>
     </g>
    </g>
   </g>
   <g id="matplotlib.axis_2">
    <g id="ytick_1">
     <g id="line2d_7">
      <defs>
       <path d="M 0 0 
L -3.5 0 
" id="me6faec0bae" style="stroke:#000000;stroke-width:0.8;"/>
      </defs>
      <g>
       <use style="stroke:#000000;stroke-width:0.8;" x="42.05" xlink:href="#me6faec0bae" y="370.166877"/>
      </g>
     </g>
     <g id="text_8">
      <!-- −0.3 -->
      <defs>
       <path d="M 10.59375 35.5 
L 73.1875 35.5 
L 73.1875 27.203125 
L 10.59375 27.203125 
z
" id="DejaVuSans-8722"/>
       <path d="M 40.578125 39.3125 
Q 47.65625 37.796875 51.625 33 
Q 55.609375 28.21875 55.609375 21.1875 
Q 55.609375 10.40625 48.1875 4.484375 
Q 40.765625 -1.421875 27.09375 -1.421875 
Q 22.515625 -1.421875 17.65625 -0.515625 
Q 12.796875 0.390625 7.625 2.203125 
L 7.625 11.71875 
Q 11.71875 9.328125 16.59375 8.109375 
Q 21.484375 6.890625 26.8125 6.890625 
Q 36.078125 6.890625 40.9375 10.546875 
Q 45.796875 14.203125 45.796875 21.1875 
Q 45.796875 27.640625 41.28125 31.265625 
Q 36.765625 34.90625 28.71875 34.90625 
L 20.21875 34.90625 
L 20.21875 43.015625 
L 29.109375 43.015625 
Q 36.375 43.015625 40.234375 45.921875 
Q 44.09375 48.828125 44.09375 54.296875 
Q 44.09375 59.90625 40.109375 62.90625 
Q 36.140625 65.921875 28.71875 65.921875 
Q 24.65625 65.921875 20.015625 65.03125 
Q 15.375 64.15625 9.8125 62.3125 
L 9.8125 71.09375 
Q 15.4375 72.65625 20.34375 73.4375 
Q 25.25 74.21875 29.59375 74.21875 
Q 40.828125 74.21875 47.359375 69.109375 
Q 53.90625 64.015625 53.90625 55.328125 
Q 53.90625 49.265625 50.4375 45.09375 
Q 46.96875 40.921875 40.578125 39.3125 
z
" id="DejaVuSans-51"/>
      </defs>
      <g transform="translate(10.767188 373.966095)scale(0.1 -0.1)">
       <use xlink:href="#DejaVuSans-8722"/>
       <use x="83.789062" xlink:href="#DejaVuSans-48"/>
       <use x="147.412109" xlink:href="#DejaVuSans-46"/>
       <use x="179.199219" xlink:href="#DejaVuSans-51"/>
      </g>
     </g>
    </g>
    <g id="ytick_2">
     <g id="line2d_8">
      <g>
       <use style="stroke:#000000;stroke-width:0.8;" x="42.05" xlink:href="#me6faec0bae" y="324.822794"/>
      </g>
     </g>
     <g id="text_9">
      <!-- −0.2 -->
      <g transform="translate(10.767188 328.622013)scale(0.1 -0.1)">
       <use xlink:href="#DejaVuSans-8722"/>
       <use x="83.789062" xlink:href="#DejaVuSans-48"/>
       <use x="147.412109" xlink:href="#DejaVuSans-46"/>
       <use x="179.199219" xlink:href="#DejaVuSans-50"/>
      </g>
     </g>
    </g>
    <g id="ytick_3">
     <g id="line2d_9">
      <g>
       <use style="stroke:#000000;stroke-width:0.8;" x="42.05" xlink:href="#me6faec0bae" y="279.478712"/>
      </g>
     </g>
     <g id="text_10">
      <!-- −0.1 -->
      <g transform="translate(10.767188 283.277931)scale(0.1 -0.1)">
       <use xlink:href="#DejaVuSans-8722"/>
       <use x="83.789062" xlink:href="#DejaVuSans-48"/>
       <use x="147.412109" xlink:href="#DejaVuSans-46"/>
       <use x="179.199219" xlink:href="#DejaVuSans-49"/>
      </g>
     </g>
    </g>
    <g id="ytick_4">
     <g id="line2d_10">
      <g>
       <use style="stroke:#000000;stroke-width:0.8;" x="42.05" xlink:href="#me6faec0bae" y="234.13463"/>
      </g>
     </g>
     <g id="text_11">
      <!-- 0.0 -->
      <g transform="translate(19.146875 237.933849)scale(0.1 -0.1)">
       <use xlink:href="#DejaVuSans-48"/>
       <use x="63.623047" xlink:href="#DejaVuSans-46"/>
       <use x="95.410156" xlink:href="#DejaVuSans-48"/>
      </g>
     </g>
    </g>
    <g id="ytick_5">
     <g id="line2d_11">
      <g>
       <use style="stroke:#000000;stroke-width:0.8;" x="42.05" xlink:href="#me6faec0bae" y="188.790548"/>
      </g>
     </g>
     <g id="text_12">
      <!-- 0.1 -->
      <g transform="translate(19.146875 192.589766)scale(0.1 -0.1)">
       <use xlink:href="#DejaVuSans-48"/>
       <use x="63.623047" xlink:href="#DejaVuSans-46"/>
       <use x="95.410156" xlink:href="#DejaVuSans-49"/>
      </g>
     </g>
    </g>
    <g id="ytick_6">
     <g id="line2d_12">
      <g>
       <use style="stroke:#000000;stroke-width:0.8;" x="42.05" xlink:href="#me6faec0bae" y="143.446465"/>
      </g>
     </g>
     <g id="text_13">
      <!-- 0.2 -->
      <g transform="translate(19.146875 147.245684)scale(0.1 -0.1)">
       <use xlink:href="#DejaVuSans-48"/>
       <use x="63.623047" xlink:href="#DejaVuSans-46"/>
       <use x="95.410156" xlink:href="#DejaVuSans-50"/>
      </g>
     </g>
    </g>
    <g id="ytick_7">
     <g id="line2d_13">
      <g>
       <use style="stroke:#000000;stroke-width:0.8;" x="42.05" xlink:href="#me6faec0bae" y="98.102383"/>
      </g>
     </g>
     <g id="text_14">
      <!-- 0.3 -->
      <g transform="translate(19.146875 101.901602)scale(0.1 -0.1)">
       <use xlink:href="#DejaVuSans-48"/>
       <use x="63.623047" xlink:href="#DejaVuSans-46"/>
       <use x="95.410156" xlink:href="#DejaVuSans-51"/>
      </g>
     </g>
    </g>
    <g id="ytick_8">
     <g id="line2d_14">
      <g>
       <use style="stroke:#000000;stroke-width:0.8;" x="42.05" xlink:href="#me6faec0bae" y="52.758301"/>
      </g>
     </g>
     <g id="text_15">
      <!-- 0.4 -->
      <g transform="translate(19.146875 56.55752)scale(0.1 -0.1)">
       <use xlink:href="#DejaVuSans-48"/>
       <use x="63.623047" xlink:href="#DejaVuSans-46"/>
       <use x="95.410156" xlink:href="#DejaVuSans-52"/>
      </g>
     </g>
    </g>
   </g>
   <g id="line2d_15">
    <path clip-path="url(#pb0a3fda556)" d="M 42.044848 234.13463 
L 42.359131 84.023074 
L 42.6425 33.712438 
L 42.668261 33.228579 
L 42.719783 34.515293 
L 42.8795 48.340924 
L 43.580196 109.57556 
L 44.141784 139.371109 
L 44.703371 158.177613 
L 45.264958 170.046452 
L 45.826545 177.536888 
L 46.388133 182.264108 
L 46.94972 185.247462 
L 47.516459 187.143832 
L 48.098655 188.360964 
L 48.711764 189.147131 
L 49.391852 189.661682 
L 50.2162 190.000401 
L 51.359983 190.213874 
L 53.333267 190.324022 
L 59.531335 190.351118 
L 557.2625 190.351288 
L 557.2625 190.351288 
" style="fill:none;stroke:#1f77b4;stroke-linecap:square;stroke-width:1.5;"/>
   </g>
   <g id="line2d_16">
    <path clip-path="url(#pb0a3fda556)" d="M 42.044848 234.13463 
L 42.070609 235.871013 
L 42.189109 266.907187 
L 42.544609 344.252008 
L 42.822826 363.198899 
L 43.080435 368.367976 
L 43.291675 369.284241 
L 43.39987 369.236096 
L 43.405022 369.228338 
L 43.590501 368.726719 
L 44.028436 366.730564 
L 47.480394 348.606165 
L 52.266766 324.405602 
L 57.05829 301.316032 
L 61.849814 279.312549 
L 66.641339 258.346246 
L 71.427711 238.391811 
L 76.214083 219.382624 
L 80.995302 201.296793 
L 85.77137 184.093362 
L 90.537133 167.751668 
L 95.282288 152.267376 
L 100.006834 137.602396 
L 104.695314 123.76789 
L 109.327121 110.785753 
L 113.881645 98.673635 
L 118.327973 87.472718 
L 122.614584 77.267346 
L 126.684804 68.140205 
L 130.476806 60.170249 
L 133.933916 53.407453 
L 137.025222 47.833517 
L 139.750723 43.362219 
L 142.136181 39.860548 
L 144.227965 37.170165 
L 146.077596 35.140404 
L 147.731445 33.644199 
L 149.23588 32.574137 
L 150.626968 31.85068 
L 151.940773 31.412725 
L 153.218513 31.218777 
L 154.496253 31.250455 
L 155.810058 31.508496 
L 157.201145 32.013289 
L 158.715885 32.80616 
L 160.410951 33.952557 
L 162.368778 35.555893 
L 164.702714 37.767701 
L 167.623998 40.859008 
L 171.611783 45.427336 
L 178.94333 54.231785 
L 188.639726 65.778414 
L 195.383925 73.456295 
L 201.654124 80.260613 
L 207.743997 86.543292 
L 213.766891 92.43896 
L 219.779481 98.014646 
L 225.817832 103.312058 
L 231.907705 108.3598 
L 238.069708 113.179243 
L 244.319298 117.785507 
L 250.677084 122.19547 
L 257.15337 126.416954 
L 263.75846 130.457015 
L 270.512964 134.327687 
L 277.432337 138.036156 
L 284.526884 141.585881 
L 291.817213 144.984555 
L 299.323935 148.238225 
L 307.067656 151.351516 
L 315.068986 154.327844 
L 323.353686 157.171319 
L 331.947516 159.884706 
L 340.88139 162.471104 
L 350.191373 164.933577 
L 359.913531 167.273681 
L 370.094231 169.493956 
L 380.784998 171.596242 
L 392.042503 173.581625 
L 403.938879 175.451984 
L 416.556559 177.20851 
L 429.988283 178.851566 
L 444.352552 180.382217 
L 459.793625 181.80129 
L 476.486676 183.109188 
L 494.658403 184.306642 
L 514.592174 185.393811 
L 536.674403 186.371459 
L 557.2625 187.108498 
L 557.2625 187.108498 
" style="fill:none;stroke:#ff7f0e;stroke-linecap:square;stroke-width:1.5;"/>
   </g>
   <g id="line2d_17">
    <path clip-path="url(#pb0a3fda556)" d="M -1 234.13463 
L 577 234.13463 
" style="fill:none;stroke:#000000;stroke-dasharray:5.55,2.4;stroke-dashoffset:0;stroke-opacity:0.4;stroke-width:1.5;"/>
   </g>
   <g id="patch_3">
    <path d="M 42.05 386.2 
L 42.05 14.3 
" style="fill:none;stroke:#000000;stroke-linecap:square;stroke-linejoin:miter;stroke-width:0.8;"/>
   </g>
   <g id="patch_4">
    <path d="M 557.2625 386.2 
L 557.2625 14.3 
" style="fill:none;stroke:#000000;stroke-linecap:square;stroke-linejoin:miter;stroke-width:0.8;"/>
   </g>
   <g id="patch_5">
    <path d="M 42.05 386.2 
L 557.2625 386.2 
" style="fill:none;stroke:#000000;stroke-linecap:square;stroke-linejoin:miter;stroke-width:0.8;"/>
   </g>
   <g id="patch_6">
    <path d="M 42.05 14.3 
L 557.2625 14.3 
" style="fill:none;stroke:#000000;stroke-linecap:square;stroke-linejoin:miter;stroke-width:0.8;"/>
   </g>
   <g id="patch_7">
    <path clip-path="url(#pb0a3fda556)" d="M 42.05 392.838918 
L 93.566613 392.838918 
L 93.566613 16.483035 
L 42.05 16.483035 
z
" style="fill:none;opacity:0.5;stroke:#808080;stroke-linejoin:miter;"/>
   </g>
   <g id="patch_8">
    <path d="M 351.175439 211.462589 
Q 222.371026 113.972812 93.566613 16.483035 
" style="fill:none;opacity:0.5;stroke:#808080;stroke-linecap:round;"/>
   </g>
   <g id="axes_2">
    <g id="patch_9">
     <path d="M 145.088378 347.494835 
L 351.175439 347.494835 
L 351.175439 211.462589 
L 145.088378 211.462589 
z
" style="fill:#ffffff;"/>
    </g>
    <g id="matplotlib.axis_3">
     <g id="xtick_7">
      <g id="line2d_18">
       <g>
        <use style="stroke:#000000;stroke-width:0.8;" x="145.088378" xlink:href="#mde26a92fc1" y="347.494835"/>
       </g>
      </g>
      <g id="text_16">
       <!-- $\mathdefault{10^{-5}}$ -->
       <defs>
        <path d="M 10.796875 72.90625 
L 49.515625 72.90625 
L 49.515625 64.59375 
L 19.828125 64.59375 
L 19.828125 46.734375 
Q 21.96875 47.46875 24.109375 47.828125 
Q 26.265625 48.1875 28.421875 48.1875 
Q 40.625 48.1875 47.75 41.5 
Q 54.890625 34.8125 54.890625 23.390625 
Q 54.890625 11.625 47.5625 5.09375 
Q 40.234375 -1.421875 26.90625 -1.421875 
Q 22.3125 -1.421875 17.546875 -0.640625 
Q 12.796875 0.140625 7.71875 1.703125 
L 7.71875 11.625 
Q 12.109375 9.234375 16.796875 8.0625 
Q 21.484375 6.890625 26.703125 6.890625 
Q 35.15625 6.890625 40.078125 11.328125 
Q 45.015625 15.765625 45.015625 23.390625 
Q 45.015625 31 40.078125 35.4375 
Q 35.15625 39.890625 26.703125 39.890625 
Q 22.75 39.890625 18.8125 39.015625 
Q 14.890625 38.140625 10.796875 36.28125 
z
" id="DejaVuSans-53"/>
       </defs>
       <g transform="translate(133.338378 362.093273)scale(0.1 -0.1)">
        <use transform="translate(0 0.684375)" xlink:href="#DejaVuSans-49"/>
        <use transform="translate(63.623047 0.684375)" xlink:href="#DejaVuSans-48"/>
        <use transform="translate(128.203125 38.965625)scale(0.7)" xlink:href="#DejaVuSans-8722"/>
        <use transform="translate(186.855469 38.965625)scale(0.7)" xlink:href="#DejaVuSans-53"/>
       </g>
      </g>
     </g>
     <g id="xtick_8">
      <g id="line2d_19">
       <g>
        <use style="stroke:#000000;stroke-width:0.8;" x="196.610143" xlink:href="#mde26a92fc1" y="347.494835"/>
       </g>
      </g>
      <g id="text_17">
       <!-- $\mathdefault{10^{-4}}$ -->
       <g transform="translate(184.860143 362.093273)scale(0.1 -0.1)">
        <use transform="translate(0 0.684375)" xlink:href="#DejaVuSans-49"/>
        <use transform="translate(63.623047 0.684375)" xlink:href="#DejaVuSans-48"/>
        <use transform="translate(128.203125 38.965625)scale(0.7)" xlink:href="#DejaVuSans-8722"/>
        <use transform="translate(186.855469 38.965625)scale(0.7)" xlink:href="#DejaVuSans-52"/>
       </g>
      </g>
     </g>
     <g id="xtick_9">
      <g id="line2d_20">
       <g>
        <use style="stroke:#000000;stroke-width:0.8;" x="248.131909" xlink:href="#mde26a92fc1" y="347.494835"/>
       </g>
      </g>
      <g id="text_18">
       <!-- $\mathdefault{10^{-3}}$ -->
       <g transform="translate(236.381909 362.093273)scale(0.1 -0.1)">
        <use transform="translate(0 0.765625)" xlink:href="#DejaVuSans-49"/>
        <use transform="translate(63.623047 0.765625)" xlink:href="#DejaVuSans-48"/>
        <use transform="translate(128.203125 39.046875)scale(0.7)" xlink:href="#DejaVuSans-8722"/>
        <use transform="translate(186.855469 39.046875)scale(0.7)" xlink:href="#DejaVuSans-51"/>
       </g>
      </g>
     </g>
     <g id="xtick_10">
      <g id="line2d_21">
       <g>
        <use style="stroke:#000000;stroke-width:0.8;" x="299.653674" xlink:href="#mde26a92fc1" y="347.494835"/>
       </g>
      </g>
      <g id="text_19">
       <!-- $\mathdefault{10^{-2}}$ -->
       <g transform="translate(287.903674 362.093273)scale(0.1 -0.1)">
        <use transform="translate(0 0.765625)" xlink:href="#DejaVuSans-49"/>
        <use transform="translate(63.623047 0.765625)" xlink:href="#DejaVuSans-48"/>
        <use transform="translate(128.203125 39.046875)scale(0.7)" xlink:href="#DejaVuSans-8722"/>
        <use transform="translate(186.855469 39.046875)scale(0.7)" xlink:href="#DejaVuSans-50"/>
       </g>
      </g>
     </g>
     <g id="xtick_11">
      <g id="line2d_22">
       <g>
        <use style="stroke:#000000;stroke-width:0.8;" x="351.175439" xlink:href="#mde26a92fc1" y="347.494835"/>
       </g>
      </g>
      <g id="text_20">
       <!-- $\mathdefault{10^{-1}}$ -->
       <g transform="translate(339.425439 362.093273)scale(0.1 -0.1)">
        <use transform="translate(0 0.684375)" xlink:href="#DejaVuSans-49"/>
        <use transform="translate(63.623047 0.684375)" xlink:href="#DejaVuSans-48"/>
        <use transform="translate(128.203125 38.965625)scale(0.7)" xlink:href="#DejaVuSans-8722"/>
        <use transform="translate(186.855469 38.965625)scale(0.7)" xlink:href="#DejaVuSans-49"/>
       </g>
      </g>
     </g>
     <g id="xtick_12">
      <g id="line2d_23">
       <defs>
        <path d="M 0 0 
L 0 2 
" id="m61cfe5e631" style="stroke:#000000;stroke-width:0.6;"/>
       </defs>
       <g>
        <use style="stroke:#000000;stroke-width:0.6;" x="160.597975" xlink:href="#m61cfe5e631" y="347.494835"/>
       </g>
      </g>
     </g>
     <g id="xtick_13">
      <g id="line2d_24">
       <g>
        <use style="stroke:#000000;stroke-width:0.6;" x="169.670508" xlink:href="#m61cfe5e631" y="347.494835"/>
       </g>
      </g>
     </g>
     <g id="xtick_14">
      <g id="line2d_25">
       <g>
        <use style="stroke:#000000;stroke-width:0.6;" x="176.107572" xlink:href="#m61cfe5e631" y="347.494835"/>
       </g>
      </g>
     </g>
     <g id="xtick_15">
      <g id="line2d_26">
       <g>
        <use style="stroke:#000000;stroke-width:0.6;" x="181.100547" xlink:href="#m61cfe5e631" y="347.494835"/>
       </g>
      </g>
     </g>
     <g id="xtick_16">
      <g id="line2d_27">
       <g>
        <use style="stroke:#000000;stroke-width:0.6;" x="185.180104" xlink:href="#m61cfe5e631" y="347.494835"/>
       </g>
      </g>
     </g>
     <g id="xtick_17">
      <g id="line2d_28">
       <g>
        <use style="stroke:#000000;stroke-width:0.6;" x="188.629321" xlink:href="#m61cfe5e631" y="347.494835"/>
       </g>
      </g>
     </g>
     <g id="xtick_18">
      <g id="line2d_29">
       <g>
        <use style="stroke:#000000;stroke-width:0.6;" x="191.617169" xlink:href="#m61cfe5e631" y="347.494835"/>
       </g>
      </g>
     </g>
     <g id="xtick_19">
      <g id="line2d_30">
       <g>
        <use style="stroke:#000000;stroke-width:0.6;" x="194.252637" xlink:href="#m61cfe5e631" y="347.494835"/>
       </g>
      </g>
     </g>
     <g id="xtick_20">
      <g id="line2d_31">
       <g>
        <use style="stroke:#000000;stroke-width:0.6;" x="212.11974" xlink:href="#m61cfe5e631" y="347.494835"/>
       </g>
      </g>
     </g>
     <g id="xtick_21">
      <g id="line2d_32">
       <g>
        <use style="stroke:#000000;stroke-width:0.6;" x="221.192273" xlink:href="#m61cfe5e631" y="347.494835"/>
       </g>
      </g>
     </g>
     <g id="xtick_22">
      <g id="line2d_33">
       <g>
        <use style="stroke:#000000;stroke-width:0.6;" x="227.629337" xlink:href="#m61cfe5e631" y="347.494835"/>
       </g>
      </g>
     </g>
     <g id="xtick_23">
      <g id="line2d_34">
       <g>
        <use style="stroke:#000000;stroke-width:0.6;" x="232.622312" xlink:href="#m61cfe5e631" y="347.494835"/>
       </g>
      </g>
     </g>
     <g id="xtick_24">
      <g id="line2d_35">
       <g>
        <use style="stroke:#000000;stroke-width:0.6;" x="236.70187" xlink:href="#m61cfe5e631" y="347.494835"/>
       </g>
      </g>
     </g>
     <g id="xtick_25">
      <g id="line2d_36">
       <g>
        <use style="stroke:#000000;stroke-width:0.6;" x="240.151086" xlink:href="#m61cfe5e631" y="347.494835"/>
       </g>
      </g>
     </g>
     <g id="xtick_26">
      <g id="line2d_37">
       <g>
        <use style="stroke:#000000;stroke-width:0.6;" x="243.138934" xlink:href="#m61cfe5e631" y="347.494835"/>
       </g>
      </g>
     </g>
     <g id="xtick_27">
      <g id="line2d_38">
       <g>
        <use style="stroke:#000000;stroke-width:0.6;" x="245.774402" xlink:href="#m61cfe5e631" y="347.494835"/>
       </g>
      </g>
     </g>
     <g id="xtick_28">
      <g id="line2d_39">
       <g>
        <use style="stroke:#000000;stroke-width:0.6;" x="263.641505" xlink:href="#m61cfe5e631" y="347.494835"/>
       </g>
      </g>
     </g>
     <g id="xtick_29">
      <g id="line2d_40">
       <g>
        <use style="stroke:#000000;stroke-width:0.6;" x="272.714038" xlink:href="#m61cfe5e631" y="347.494835"/>
       </g>
      </g>
     </g>
     <g id="xtick_30">
      <g id="line2d_41">
       <g>
        <use style="stroke:#000000;stroke-width:0.6;" x="279.151102" xlink:href="#m61cfe5e631" y="347.494835"/>
       </g>
      </g>
     </g>
     <g id="xtick_31">
      <g id="line2d_42">
       <g>
        <use style="stroke:#000000;stroke-width:0.6;" x="284.144077" xlink:href="#m61cfe5e631" y="347.494835"/>
       </g>
      </g>
     </g>
     <g id="xtick_32">
      <g id="line2d_43">
       <g>
        <use style="stroke:#000000;stroke-width:0.6;" x="288.223635" xlink:href="#m61cfe5e631" y="347.494835"/>
       </g>
      </g>
     </g>
     <g id="xtick_33">
      <g id="line2d_44">
       <g>
        <use style="stroke:#000000;stroke-width:0.6;" x="291.672851" xlink:href="#m61cfe5e631" y="347.494835"/>
       </g>
      </g>
     </g>
     <g id="xtick_34">
      <g id="line2d_45">
       <g>
        <use style="stroke:#000000;stroke-width:0.6;" x="294.660699" xlink:href="#m61cfe5e631" y="347.494835"/>
       </g>
      </g>
     </g>
     <g id="xtick_35">
      <g id="line2d_46">
       <g>
        <use style="stroke:#000000;stroke-width:0.6;" x="297.296167" xlink:href="#m61cfe5e631" y="347.494835"/>
       </g>
      </g>
     </g>
     <g id="xtick_36">
      <g id="line2d_47">
       <g>
        <use style="stroke:#000000;stroke-width:0.6;" x="315.163271" xlink:href="#m61cfe5e631" y="347.494835"/>
       </g>
      </g>
     </g>
     <g id="xtick_37">
      <g id="line2d_48">
       <g>
        <use style="stroke:#000000;stroke-width:0.6;" x="324.235803" xlink:href="#m61cfe5e631" y="347.494835"/>
       </g>
      </g>
     </g>
     <g id="xtick_38">
      <g id="line2d_49">
       <g>
        <use style="stroke:#000000;stroke-width:0.6;" x="330.672867" xlink:href="#m61cfe5e631" y="347.494835"/>
       </g>
      </g>
     </g>
     <g id="xtick_39">
      <g id="line2d_50">
       <g>
        <use style="stroke:#000000;stroke-width:0.6;" x="335.665842" xlink:href="#m61cfe5e631" y="347.494835"/>
       </g>
      </g>
     </g>
     <g id="xtick_40">
      <g id="line2d_51">
       <g>
        <use style="stroke:#000000;stroke-width:0.6;" x="339.7454" xlink:href="#m61cfe5e631" y="347.494835"/>
       </g>
      </g>
     </g>
     <g id="xtick_41">
      <g id="line2d_52">
       <g>
        <use style="stroke:#000000;stroke-width:0.6;" x="343.194617" xlink:href="#m61cfe5e631" y="347.494835"/>
       </g>
      </g>
     </g>
     <g id="xtick_42">
      <g id="line2d_53">
       <g>
        <use style="stroke:#000000;stroke-width:0.6;" x="346.182464" xlink:href="#m61cfe5e631" y="347.494835"/>
       </g>
      </g>
     </g>
     <g id="xtick_43">
      <g id="line2d_54">
       <g>
        <use style="stroke:#000000;stroke-width:0.6;" x="348.817932" xlink:href="#m61cfe5e631" y="347.494835"/>
       </g>
      </g>
     </g>
    </g>
    <g id="matplotlib.axis_4">
     <g id="ytick_9">
      <g id="line2d_55">
       <g>
        <use style="stroke:#000000;stroke-width:0.8;" x="145.088378" xlink:href="#me6faec0bae" y="322.910694"/>
       </g>
      </g>
      <g id="text_21">
       <!-- −0.2 -->
       <g transform="translate(113.805566 326.709913)scale(0.1 -0.1)">
        <use xlink:href="#DejaVuSans-8722"/>
        <use x="83.789062" xlink:href="#DejaVuSans-48"/>
        <use x="147.412109" xlink:href="#DejaVuSans-46"/>
        <use x="179.199219" xlink:href="#DejaVuSans-50"/>
       </g>
      </g>
     </g>
     <g id="ytick_10">
      <g id="line2d_56">
       <g>
        <use style="stroke:#000000;stroke-width:0.8;" x="145.088378" xlink:href="#me6faec0bae" y="290.13184"/>
       </g>
      </g>
      <g id="text_22">
       <!-- 0.0 -->
       <g transform="translate(122.185253 293.931059)scale(0.1 -0.1)">
        <use xlink:href="#DejaVuSans-48"/>
        <use x="63.623047" xlink:href="#DejaVuSans-46"/>
        <use x="95.410156" xlink:href="#DejaVuSans-48"/>
       </g>
      </g>
     </g>
     <g id="ytick_11">
      <g id="line2d_57">
       <g>
        <use style="stroke:#000000;stroke-width:0.8;" x="145.088378" xlink:href="#me6faec0bae" y="257.352985"/>
       </g>
      </g>
      <g id="text_23">
       <!-- 0.2 -->
       <g transform="translate(122.185253 261.152204)scale(0.1 -0.1)">
        <use xlink:href="#DejaVuSans-48"/>
        <use x="63.623047" xlink:href="#DejaVuSans-46"/>
        <use x="95.410156" xlink:href="#DejaVuSans-50"/>
       </g>
      </g>
     </g>
     <g id="ytick_12">
      <g id="line2d_58">
       <g>
        <use style="stroke:#000000;stroke-width:0.8;" x="145.088378" xlink:href="#me6faec0bae" y="224.574131"/>
       </g>
      </g>
      <g id="text_24">
       <!-- 0.4 -->
       <g transform="translate(122.185253 228.373349)scale(0.1 -0.1)">
        <use xlink:href="#DejaVuSans-48"/>
        <use x="63.623047" xlink:href="#DejaVuSans-46"/>
        <use x="95.410156" xlink:href="#DejaVuSans-52"/>
       </g>
      </g>
     </g>
    </g>
    <g id="line2d_59">
     <path clip-path="url(#p7aab4ba5bd)" d="M -1 288.765667 
L 145.088378 288.761762 
L 160.597975 287.414094 
L 169.670508 286.088411 
L 176.107572 284.784298 
L 181.100547 283.501348 
L 185.180104 282.239162 
L 188.629321 280.997348 
L 191.617169 279.775521 
L 196.610143 277.390327 
L 200.689701 275.080653 
L 204.138918 272.843679 
L 207.126765 270.6767 
L 210.972021 267.551805 
L 214.252364 264.570216 
L 217.990303 260.804175 
L 221.192273 257.261677 
L 224.64149 253.123831 
L 228.181849 248.54749 
L 232.170264 243.037144 
L 237.435562 235.331728 
L 245.271558 223.814266 
L 247.450365 221.009534 
L 249.009496 219.329504 
L 250.264533 218.298798 
L 251.259169 217.761189 
L 252.211466 217.526502 
L 253.124884 217.581724 
L 254.002471 217.891811 
L 255.012069 218.532318 
L 256.135096 219.542874 
L 257.500811 221.093272 
L 259.337065 223.557317 
L 261.77579 227.235454 
L 265.569785 233.414198 
L 276.099233 250.766304 
L 279.429064 255.723683 
L 282.278362 259.575093 
L 284.805474 262.628285 
L 287.154289 265.126543 
L 289.386266 267.181206 
L 291.544624 268.868629 
L 293.659706 270.243143 
L 295.779031 271.358667 
L 297.957564 272.256375 
L 300.27158 272.96822 
L 302.800382 273.51041 
L 305.712772 273.901448 
L 309.344113 274.153812 
L 314.699804 274.280285 
L 328.873936 274.306518 
L 402.697204 274.306536 
L 402.697204 274.306536 
" style="fill:none;stroke:#1f77b4;stroke-linecap:square;stroke-width:1.5;"/>
    </g>
    <g id="line2d_60">
     <path clip-path="url(#p7aab4ba5bd)" d="M -1 290.159066 
L 160.597975 290.238821 
L 176.107572 290.542159 
L 185.180104 291.016389 
L 191.617169 291.63757 
L 196.610143 292.383522 
L 200.689701 293.233963 
L 204.138918 294.170553 
L 207.126765 295.176875 
L 209.762234 296.238356 
L 213.21145 297.906372 
L 216.199298 299.633326 
L 218.834766 301.389621 
L 221.925965 303.736974 
L 225.27183 306.623051 
L 228.721047 309.944639 
L 232.622312 314.04529 
L 239.502472 321.707034 
L 244.230644 326.79462 
L 247.450365 329.933302 
L 250.060188 332.190497 
L 252.58132 334.078762 
L 254.846935 335.507419 
L 257.054771 336.646743 
L 259.337065 337.564878 
L 261.531246 338.211143 
L 263.86415 338.666604 
L 266.376201 338.924578 
L 269.165152 338.978788 
L 272.337968 338.812213 
L 276.163255 338.380331 
L 280.665006 337.643744 
L 285.44788 336.638378 
L 290.01464 335.453794 
L 294.208651 334.138849 
L 298.101923 332.687312 
L 301.745578 331.092884 
L 305.177321 329.349869 
L 308.440972 327.443839 
L 311.566261 325.361553 
L 314.585291 323.081894 
L 317.508467 320.594827 
L 320.36116 317.874147 
L 323.158633 314.896733 
L 325.916379 311.63435 
L 328.648503 308.054994 
L 331.372248 304.116266 
L 334.099697 299.776376 
L 336.842631 294.988802 
L 339.621994 289.683974 
L 342.453678 283.793055 
L 345.367887 277.208509 
L 348.401373 269.794598 
L 351.622922 261.320416 
L 355.184028 251.306593 
L 359.741059 237.772264 
L 364.502122 223.759258 
L 366.030004 219.922551 
L 366.988397 218.05895 
L 367.666729 217.178903 
L 368.186389 216.835064 
L 368.624603 216.797252 
L 369.058424 216.989602 
L 369.559881 217.475133 
L 370.196179 218.429394 
L 371.066483 220.17479 
L 372.376741 223.356695 
L 374.902345 230.188612 
L 379.353979 242.143554 
L 382.001934 248.601464 
L 384.311996 253.667302 
L 386.421014 257.771863 
L 388.391129 261.132678 
L 390.261101 263.893912 
L 392.060327 266.163104 
L 393.815281 268.025593 
L 395.55213 269.549803 
L 397.300647 270.791691 
L 399.096515 271.795849 
L 400.986607 272.597376 
L 402.697204 273.134443 
L 402.697204 273.134443 
" style="fill:none;stroke:#ff7f0e;stroke-linecap:square;stroke-width:1.5;"/>
    </g>
    <g id="line2d_61">
     <path clip-path="url(#p7aab4ba5bd)" d="M -1 290.13184 
L 418.206801 290.13184 
" style="fill:none;stroke:#000000;stroke-dasharray:5.55,2.4;stroke-dashoffset:0;stroke-opacity:0.4;stroke-width:1.5;"/>
    </g>
    <g id="patch_10">
     <path d="M 145.088378 347.494835 
L 145.088378 211.462589 
" style="fill:none;stroke:#000000;stroke-linecap:square;stroke-linejoin:miter;stroke-width:0.8;"/>
    </g>
    <g id="patch_11">
     <path d="M 351.175439 347.494835 
L 351.175439 211.462589 
" style="fill:none;stroke:#000000;stroke-linecap:square;stroke-linejoin:miter;stroke-width:0.8;"/>
    </g>
    <g id="patch_12">
     <path d="M 145.088378 347.494835 
L 351.175439 347.494835 
" style="fill:none;stroke:#000000;stroke-linecap:square;stroke-linejoin:miter;stroke-width:0.8;"/>
    </g>
    <g id="patch_13">
     <path d="M 145.088378 211.462589 
L 351.175439 211.462589 
" style="fill:none;stroke:#000000;stroke-linecap:square;stroke-linejoin:miter;stroke-width:0.8;"/>
    </g>
   </g>
   <g id="legend_1">
    <g id="patch_14">
     <path d="M 392.515313 66.59875 
L 547.4625 66.59875 
Q 550.2625 66.59875 550.2625 63.79875 
L 550.2625 24.1 
Q 550.2625 21.3 547.4625 21.3 
L 392.515313 21.3 
Q 389.715313 21.3 389.715313 24.1 
L 389.715313 63.79875 
Q 389.715313 66.59875 392.515313 66.59875 
z
" style="fill:#ffffff;opacity:0.8;stroke:#cccccc;stroke-linejoin:miter;"/>
    </g>
    <g id="line2d_62">
     <path d="M 395.315313 32.637812 
L 423.315313 32.637812 
" style="fill:none;stroke:#1f77b4;stroke-linecap:square;stroke-width:1.5;"/>
    </g>
    <g id="line2d_63"/>
    <g id="text_25">
     <!-- Secular approx. -->
     <defs>
      <path d="M 53.515625 70.515625 
L 53.515625 60.890625 
Q 47.90625 63.578125 42.921875 64.890625 
Q 37.9375 66.21875 33.296875 66.21875 
Q 25.25 66.21875 20.875 63.09375 
Q 16.5 59.96875 16.5 54.203125 
Q 16.5 49.359375 19.40625 46.890625 
Q 22.3125 44.4375 30.421875 42.921875 
L 36.375 41.703125 
Q 47.40625 39.59375 52.65625 34.296875 
Q 57.90625 29 57.90625 20.125 
Q 57.90625 9.515625 50.796875 4.046875 
Q 43.703125 -1.421875 29.984375 -1.421875 
Q 24.8125 -1.421875 18.96875 -0.25 
Q 13.140625 0.921875 6.890625 3.21875 
L 6.890625 13.375 
Q 12.890625 10.015625 18.65625 8.296875 
Q 24.421875 6.59375 29.984375 6.59375 
Q 38.421875 6.59375 43.015625 9.90625 
Q 47.609375 13.234375 47.609375 19.390625 
Q 47.609375 24.75 44.3125 27.78125 
Q 41.015625 30.8125 33.5 32.328125 
L 27.484375 33.5 
Q 16.453125 35.6875 11.515625 40.375 
Q 6.59375 45.0625 6.59375 53.421875 
Q 6.59375 63.09375 13.40625 68.65625 
Q 20.21875 74.21875 32.171875 74.21875 
Q 37.3125 74.21875 42.625 73.28125 
Q 47.953125 72.359375 53.515625 70.515625 
z
" id="DejaVuSans-83"/>
      <path d="M 56.203125 29.59375 
L 56.203125 25.203125 
L 14.890625 25.203125 
Q 15.484375 15.921875 20.484375 11.0625 
Q 25.484375 6.203125 34.421875 6.203125 
Q 39.59375 6.203125 44.453125 7.46875 
Q 49.3125 8.734375 54.109375 11.28125 
L 54.109375 2.78125 
Q 49.265625 0.734375 44.1875 -0.34375 
Q 39.109375 -1.421875 33.890625 -1.421875 
Q 20.796875 -1.421875 13.15625 6.1875 
Q 5.515625 13.8125 5.515625 26.8125 
Q 5.515625 40.234375 12.765625 48.109375 
Q 20.015625 56 32.328125 56 
Q 43.359375 56 49.78125 48.890625 
Q 56.203125 41.796875 56.203125 29.59375 
z
M 47.21875 32.234375 
Q 47.125 39.59375 43.09375 43.984375 
Q 39.0625 48.390625 32.421875 48.390625 
Q 24.90625 48.390625 20.390625 44.140625 
Q 15.875 39.890625 15.1875 32.171875 
z
" id="DejaVuSans-101"/>
      <path d="M 48.78125 52.59375 
L 48.78125 44.1875 
Q 44.96875 46.296875 41.140625 47.34375 
Q 37.3125 48.390625 33.40625 48.390625 
Q 24.65625 48.390625 19.8125 42.84375 
Q 14.984375 37.3125 14.984375 27.296875 
Q 14.984375 17.28125 19.8125 11.734375 
Q 24.65625 6.203125 33.40625 6.203125 
Q 37.3125 6.203125 41.140625 7.25 
Q 44.96875 8.296875 48.78125 10.40625 
L 48.78125 2.09375 
Q 45.015625 0.34375 40.984375 -0.53125 
Q 36.96875 -1.421875 32.421875 -1.421875 
Q 20.0625 -1.421875 12.78125 6.34375 
Q 5.515625 14.109375 5.515625 27.296875 
Q 5.515625 40.671875 12.859375 48.328125 
Q 20.21875 56 33.015625 56 
Q 37.15625 56 41.109375 55.140625 
Q 45.0625 54.296875 48.78125 52.59375 
z
" id="DejaVuSans-99"/>
      <path d="M 8.5 21.578125 
L 8.5 54.6875 
L 17.484375 54.6875 
L 17.484375 21.921875 
Q 17.484375 14.15625 20.5 10.265625 
Q 23.53125 6.390625 29.59375 6.390625 
Q 36.859375 6.390625 41.078125 11.03125 
Q 45.3125 15.671875 45.3125 23.6875 
L 45.3125 54.6875 
L 54.296875 54.6875 
L 54.296875 0 
L 45.3125 0 
L 45.3125 8.40625 
Q 42.046875 3.421875 37.71875 1 
Q 33.40625 -1.421875 27.6875 -1.421875 
Q 18.265625 -1.421875 13.375 4.4375 
Q 8.5 10.296875 8.5 21.578125 
z
M 31.109375 56 
z
" id="DejaVuSans-117"/>
      <path d="M 9.421875 75.984375 
L 18.40625 75.984375 
L 18.40625 0 
L 9.421875 0 
z
" id="DejaVuSans-108"/>
      <path d="M 34.28125 27.484375 
Q 23.390625 27.484375 19.1875 25 
Q 14.984375 22.515625 14.984375 16.5 
Q 14.984375 11.71875 18.140625 8.90625 
Q 21.296875 6.109375 26.703125 6.109375 
Q 34.1875 6.109375 38.703125 11.40625 
Q 43.21875 16.703125 43.21875 25.484375 
L 43.21875 27.484375 
z
M 52.203125 31.203125 
L 52.203125 0 
L 43.21875 0 
L 43.21875 8.296875 
Q 40.140625 3.328125 35.546875 0.953125 
Q 30.953125 -1.421875 24.3125 -1.421875 
Q 15.921875 -1.421875 10.953125 3.296875 
Q 6 8.015625 6 15.921875 
Q 6 25.140625 12.171875 29.828125 
Q 18.359375 34.515625 30.609375 34.515625 
L 43.21875 34.515625 
L 43.21875 35.40625 
Q 43.21875 41.609375 39.140625 45 
Q 35.0625 48.390625 27.6875 48.390625 
Q 23 48.390625 18.546875 47.265625 
Q 14.109375 46.140625 10.015625 43.890625 
L 10.015625 52.203125 
Q 14.9375 54.109375 19.578125 55.046875 
Q 24.21875 56 28.609375 56 
Q 40.484375 56 46.34375 49.84375 
Q 52.203125 43.703125 52.203125 31.203125 
z
" id="DejaVuSans-97"/>
      <path d="M 41.109375 46.296875 
Q 39.59375 47.171875 37.8125 47.578125 
Q 36.03125 48 33.890625 48 
Q 26.265625 48 22.1875 43.046875 
Q 18.109375 38.09375 18.109375 28.8125 
L 18.109375 0 
L 9.078125 0 
L 9.078125 54.6875 
L 18.109375 54.6875 
L 18.109375 46.1875 
Q 20.953125 51.171875 25.484375 53.578125 
Q 30.03125 56 36.53125 56 
Q 37.453125 56 38.578125 55.875 
Q 39.703125 55.765625 41.0625 55.515625 
z
" id="DejaVuSans-114"/>
      <path id="DejaVuSans-32"/>
      <path d="M 18.109375 8.203125 
L 18.109375 -20.796875 
L 9.078125 -20.796875 
L 9.078125 54.6875 
L 18.109375 54.6875 
L 18.109375 46.390625 
Q 20.953125 51.265625 25.265625 53.625 
Q 29.59375 56 35.59375 56 
Q 45.5625 56 51.78125 48.09375 
Q 58.015625 40.1875 58.015625 27.296875 
Q 58.015625 14.40625 51.78125 6.484375 
Q 45.5625 -1.421875 35.59375 -1.421875 
Q 29.59375 -1.421875 25.265625 0.953125 
Q 20.953125 3.328125 18.109375 8.203125 
z
M 48.6875 27.296875 
Q 48.6875 37.203125 44.609375 42.84375 
Q 40.53125 48.484375 33.40625 48.484375 
Q 26.265625 48.484375 22.1875 42.84375 
Q 18.109375 37.203125 18.109375 27.296875 
Q 18.109375 17.390625 22.1875 11.75 
Q 26.265625 6.109375 33.40625 6.109375 
Q 40.53125 6.109375 44.609375 11.75 
Q 48.6875 17.390625 48.6875 27.296875 
z
" id="DejaVuSans-112"/>
      <path d="M 30.609375 48.390625 
Q 23.390625 48.390625 19.1875 42.75 
Q 14.984375 37.109375 14.984375 27.296875 
Q 14.984375 17.484375 19.15625 11.84375 
Q 23.34375 6.203125 30.609375 6.203125 
Q 37.796875 6.203125 41.984375 11.859375 
Q 46.1875 17.53125 46.1875 27.296875 
Q 46.1875 37.015625 41.984375 42.703125 
Q 37.796875 48.390625 30.609375 48.390625 
z
M 30.609375 56 
Q 42.328125 56 49.015625 48.375 
Q 55.71875 40.765625 55.71875 27.296875 
Q 55.71875 13.875 49.015625 6.21875 
Q 42.328125 -1.421875 30.609375 -1.421875 
Q 18.84375 -1.421875 12.171875 6.21875 
Q 5.515625 13.875 5.515625 27.296875 
Q 5.515625 40.765625 12.171875 48.375 
Q 18.84375 56 30.609375 56 
z
" id="DejaVuSans-111"/>
      <path d="M 54.890625 54.6875 
L 35.109375 28.078125 
L 55.90625 0 
L 45.3125 0 
L 29.390625 21.484375 
L 13.484375 0 
L 2.875 0 
L 24.125 28.609375 
L 4.6875 54.6875 
L 15.28125 54.6875 
L 29.78125 35.203125 
L 44.28125 54.6875 
z
" id="DejaVuSans-120"/>
     </defs>
     <g transform="translate(434.515313 37.537812)scale(0.14 -0.14)">
      <use xlink:href="#DejaVuSans-83"/>
      <use x="63.476562" xlink:href="#DejaVuSans-101"/>
      <use x="125" xlink:href="#DejaVuSans-99"/>
      <use x="179.980469" xlink:href="#DejaVuSans-117"/>
      <use x="243.359375" xlink:href="#DejaVuSans-108"/>
      <use x="271.142578" xlink:href="#DejaVuSans-97"/>
      <use x="332.421875" xlink:href="#DejaVuSans-114"/>
      <use x="373.535156" xlink:href="#DejaVuSans-32"/>
      <use x="405.322266" xlink:href="#DejaVuSans-97"/>
      <use x="466.601562" xlink:href="#DejaVuSans-112"/>
      <use x="530.078125" xlink:href="#DejaVuSans-112"/>
      <use x="593.554688" xlink:href="#DejaVuSans-114"/>
      <use x="634.636719" xlink:href="#DejaVuSans-111"/>
      <use x="695.771484" xlink:href="#DejaVuSans-120"/>
      <use x="754.951172" xlink:href="#DejaVuSans-46"/>
     </g>
    </g>
    <g id="line2d_64">
     <path d="M 395.315313 53.187187 
L 423.315313 53.187187 
" style="fill:none;stroke:#ff7f0e;stroke-linecap:square;stroke-width:1.5;"/>
    </g>
    <g id="line2d_65"/>
    <g id="text_26">
     <!-- No approx. -->
     <defs>
      <path d="M 9.8125 72.90625 
L 23.09375 72.90625 
L 55.421875 11.921875 
L 55.421875 72.90625 
L 64.984375 72.90625 
L 64.984375 0 
L 51.703125 0 
L 19.390625 60.984375 
L 19.390625 0 
L 9.8125 0 
z
" id="DejaVuSans-78"/>
     </defs>
     <g transform="translate(434.515313 58.087187)scale(0.14 -0.14)">
      <use xlink:href="#DejaVuSans-78"/>
      <use x="74.804688" xlink:href="#DejaVuSans-111"/>
      <use x="135.986328" xlink:href="#DejaVuSans-32"/>
      <use x="167.773438" xlink:href="#DejaVuSans-97"/>
      <use x="229.052734" xlink:href="#DejaVuSans-112"/>
      <use x="292.529297" xlink:href="#DejaVuSans-112"/>
      <use x="356.005859" xlink:href="#DejaVuSans-114"/>
      <use x="397.087891" xlink:href="#DejaVuSans-111"/>
      <use x="458.222656" xlink:href="#DejaVuSans-120"/>
      <use x="517.402344" xlink:href="#DejaVuSans-46"/>
     </g>
    </g>
   </g>
  </g>
 </g>
 <defs>
  <clipPath id="pb0a3fda556">
   <rect height="371.9" width="515.2125" x="42.05" y="14.3"/>
  </clipPath>
  <clipPath id="p7aab4ba5bd">
   <rect height="136.032247" width="206.087061" x="145.088378" y="211.462589"/>
  </clipPath>
 </defs>
</svg>
