<?xml version="1.0" encoding="utf-8" standalone="no"?>
<!DOCTYPE svg PUBLIC "-//W3C//DTD SVG 1.1//EN"
  "http://www.w3.org/Graphics/SVG/1.1/DTD/svg11.dtd">
<!-- Created with matplotlib (https://matplotlib.org/) -->
<svg height="720pt" version="1.1" viewBox="0 0 720 720" width="720pt" xmlns="http://www.w3.org/2000/svg" xmlns:xlink="http://www.w3.org/1999/xlink">
 <defs>
  <style type="text/css">
*{stroke-linecap:butt;stroke-linejoin:round;}
  </style>
 </defs>
 <g id="figure_1">
  <g id="patch_1">
   <path d="M 0 720 
L 720 720 
L 720 0 
L 0 0 
z
" style="fill:#ffffff;"/>
  </g>
  <g id="axes_1">
   <g id="patch_2">
    <path d="M 42.05 674.2 
L 701.2625 674.2 
L 701.2625 14.8 
L 42.05 14.8 
z
" style="fill:#ffffff;"/>
   </g>
   <g id="matplotlib.axis_1">
    <g id="xtick_1">
     <g id="line2d_1">
      <defs>
       <path d="M 0 0 
L 0 3.5 
" id="mffab20c805" style="stroke:#000000;stroke-width:0.8;"/>
      </defs>
      <g>
       <use style="stroke:#000000;stroke-width:0.8;" x="42.05" xlink:href="#mffab20c805" y="674.2"/>
      </g>
     </g>
     <g id="text_1">
      <!-- 0.0 -->
      <defs>
       <path d="M 31.78125 66.40625 
Q 24.171875 66.40625 20.328125 58.90625 
Q 16.5 51.421875 16.5 36.375 
Q 16.5 21.390625 20.328125 13.890625 
Q 24.171875 6.390625 31.78125 6.390625 
Q 39.453125 6.390625 43.28125 13.890625 
Q 47.125 21.390625 47.125 36.375 
Q 47.125 51.421875 43.28125 58.90625 
Q 39.453125 66.40625 31.78125 66.40625 
z
M 31.78125 74.21875 
Q 44.046875 74.21875 50.515625 64.515625 
Q 56.984375 54.828125 56.984375 36.375 
Q 56.984375 17.96875 50.515625 8.265625 
Q 44.046875 -1.421875 31.78125 -1.421875 
Q 19.53125 -1.421875 13.0625 8.265625 
Q 6.59375 17.96875 6.59375 36.375 
Q 6.59375 54.828125 13.0625 64.515625 
Q 19.53125 74.21875 31.78125 74.21875 
z
" id="DejaVuSans-48"/>
       <path d="M 10.6875 12.40625 
L 21 12.40625 
L 21 0 
L 10.6875 0 
z
" id="DejaVuSans-46"/>
      </defs>
      <g transform="translate(34.098437 688.798438)scale(0.1 -0.1)">
       <use xlink:href="#DejaVuSans-48"/>
       <use x="63.623047" xlink:href="#DejaVuSans-46"/>
       <use x="95.410156" xlink:href="#DejaVuSans-48"/>
      </g>
     </g>
    </g>
    <g id="xtick_2">
     <g id="line2d_2">
      <g>
       <use style="stroke:#000000;stroke-width:0.8;" x="173.8925" xlink:href="#mffab20c805" y="674.2"/>
      </g>
     </g>
     <g id="text_2">
      <!-- 0.2 -->
      <defs>
       <path d="M 19.1875 8.296875 
L 53.609375 8.296875 
L 53.609375 0 
L 7.328125 0 
L 7.328125 8.296875 
Q 12.9375 14.109375 22.625 23.890625 
Q 32.328125 33.6875 34.8125 36.53125 
Q 39.546875 41.84375 41.421875 45.53125 
Q 43.3125 49.21875 43.3125 52.78125 
Q 43.3125 58.59375 39.234375 62.25 
Q 35.15625 65.921875 28.609375 65.921875 
Q 23.96875 65.921875 18.8125 64.3125 
Q 13.671875 62.703125 7.8125 59.421875 
L 7.8125 69.390625 
Q 13.765625 71.78125 18.9375 73 
Q 24.125 74.21875 28.421875 74.21875 
Q 39.75 74.21875 46.484375 68.546875 
Q 53.21875 62.890625 53.21875 53.421875 
Q 53.21875 48.921875 51.53125 44.890625 
Q 49.859375 40.875 45.40625 35.40625 
Q 44.1875 33.984375 37.640625 27.21875 
Q 31.109375 20.453125 19.1875 8.296875 
z
" id="DejaVuSans-50"/>
      </defs>
      <g transform="translate(165.940938 688.798438)scale(0.1 -0.1)">
       <use xlink:href="#DejaVuSans-48"/>
       <use x="63.623047" xlink:href="#DejaVuSans-46"/>
       <use x="95.410156" xlink:href="#DejaVuSans-50"/>
      </g>
     </g>
    </g>
    <g id="xtick_3">
     <g id="line2d_3">
      <g>
       <use style="stroke:#000000;stroke-width:0.8;" x="305.735" xlink:href="#mffab20c805" y="674.2"/>
      </g>
     </g>
     <g id="text_3">
      <!-- 0.4 -->
      <defs>
       <path d="M 37.796875 64.3125 
L 12.890625 25.390625 
L 37.796875 25.390625 
z
M 35.203125 72.90625 
L 47.609375 72.90625 
L 47.609375 25.390625 
L 58.015625 25.390625 
L 58.015625 17.1875 
L 47.609375 17.1875 
L 47.609375 0 
L 37.796875 0 
L 37.796875 17.1875 
L 4.890625 17.1875 
L 4.890625 26.703125 
z
" id="DejaVuSans-52"/>
      </defs>
      <g transform="translate(297.783438 688.798438)scale(0.1 -0.1)">
       <use xlink:href="#DejaVuSans-48"/>
       <use x="63.623047" xlink:href="#DejaVuSans-46"/>
       <use x="95.410156" xlink:href="#DejaVuSans-52"/>
      </g>
     </g>
    </g>
    <g id="xtick_4">
     <g id="line2d_4">
      <g>
       <use style="stroke:#000000;stroke-width:0.8;" x="437.5775" xlink:href="#mffab20c805" y="674.2"/>
      </g>
     </g>
     <g id="text_4">
      <!-- 0.6 -->
      <defs>
       <path d="M 33.015625 40.375 
Q 26.375 40.375 22.484375 35.828125 
Q 18.609375 31.296875 18.609375 23.390625 
Q 18.609375 15.53125 22.484375 10.953125 
Q 26.375 6.390625 33.015625 6.390625 
Q 39.65625 6.390625 43.53125 10.953125 
Q 47.40625 15.53125 47.40625 23.390625 
Q 47.40625 31.296875 43.53125 35.828125 
Q 39.65625 40.375 33.015625 40.375 
z
M 52.59375 71.296875 
L 52.59375 62.3125 
Q 48.875 64.0625 45.09375 64.984375 
Q 41.3125 65.921875 37.59375 65.921875 
Q 27.828125 65.921875 22.671875 59.328125 
Q 17.53125 52.734375 16.796875 39.40625 
Q 19.671875 43.65625 24.015625 45.921875 
Q 28.375 48.1875 33.59375 48.1875 
Q 44.578125 48.1875 50.953125 41.515625 
Q 57.328125 34.859375 57.328125 23.390625 
Q 57.328125 12.15625 50.6875 5.359375 
Q 44.046875 -1.421875 33.015625 -1.421875 
Q 20.359375 -1.421875 13.671875 8.265625 
Q 6.984375 17.96875 6.984375 36.375 
Q 6.984375 53.65625 15.1875 63.9375 
Q 23.390625 74.21875 37.203125 74.21875 
Q 40.921875 74.21875 44.703125 73.484375 
Q 48.484375 72.75 52.59375 71.296875 
z
" id="DejaVuSans-54"/>
      </defs>
      <g transform="translate(429.625938 688.798438)scale(0.1 -0.1)">
       <use xlink:href="#DejaVuSans-48"/>
       <use x="63.623047" xlink:href="#DejaVuSans-46"/>
       <use x="95.410156" xlink:href="#DejaVuSans-54"/>
      </g>
     </g>
    </g>
    <g id="xtick_5">
     <g id="line2d_5">
      <g>
       <use style="stroke:#000000;stroke-width:0.8;" x="569.42" xlink:href="#mffab20c805" y="674.2"/>
      </g>
     </g>
     <g id="text_5">
      <!-- 0.8 -->
      <defs>
       <path d="M 31.78125 34.625 
Q 24.75 34.625 20.71875 30.859375 
Q 16.703125 27.09375 16.703125 20.515625 
Q 16.703125 13.921875 20.71875 10.15625 
Q 24.75 6.390625 31.78125 6.390625 
Q 38.8125 6.390625 42.859375 10.171875 
Q 46.921875 13.96875 46.921875 20.515625 
Q 46.921875 27.09375 42.890625 30.859375 
Q 38.875 34.625 31.78125 34.625 
z
M 21.921875 38.8125 
Q 15.578125 40.375 12.03125 44.71875 
Q 8.5 49.078125 8.5 55.328125 
Q 8.5 64.0625 14.71875 69.140625 
Q 20.953125 74.21875 31.78125 74.21875 
Q 42.671875 74.21875 48.875 69.140625 
Q 55.078125 64.0625 55.078125 55.328125 
Q 55.078125 49.078125 51.53125 44.71875 
Q 48 40.375 41.703125 38.8125 
Q 48.828125 37.15625 52.796875 32.3125 
Q 56.78125 27.484375 56.78125 20.515625 
Q 56.78125 9.90625 50.3125 4.234375 
Q 43.84375 -1.421875 31.78125 -1.421875 
Q 19.734375 -1.421875 13.25 4.234375 
Q 6.78125 9.90625 6.78125 20.515625 
Q 6.78125 27.484375 10.78125 32.3125 
Q 14.796875 37.15625 21.921875 38.8125 
z
M 18.3125 54.390625 
Q 18.3125 48.734375 21.84375 45.5625 
Q 25.390625 42.390625 31.78125 42.390625 
Q 38.140625 42.390625 41.71875 45.5625 
Q 45.3125 48.734375 45.3125 54.390625 
Q 45.3125 60.0625 41.71875 63.234375 
Q 38.140625 66.40625 31.78125 66.40625 
Q 25.390625 66.40625 21.84375 63.234375 
Q 18.3125 60.0625 18.3125 54.390625 
z
" id="DejaVuSans-56"/>
      </defs>
      <g transform="translate(561.468438 688.798438)scale(0.1 -0.1)">
       <use xlink:href="#DejaVuSans-48"/>
       <use x="63.623047" xlink:href="#DejaVuSans-46"/>
       <use x="95.410156" xlink:href="#DejaVuSans-56"/>
      </g>
     </g>
    </g>
    <g id="xtick_6">
     <g id="line2d_6">
      <g>
       <use style="stroke:#000000;stroke-width:0.8;" x="701.2625" xlink:href="#mffab20c805" y="674.2"/>
      </g>
     </g>
     <g id="text_6">
      <!-- 1.0 -->
      <defs>
       <path d="M 12.40625 8.296875 
L 28.515625 8.296875 
L 28.515625 63.921875 
L 10.984375 60.40625 
L 10.984375 69.390625 
L 28.421875 72.90625 
L 38.28125 72.90625 
L 38.28125 8.296875 
L 54.390625 8.296875 
L 54.390625 0 
L 12.40625 0 
z
" id="DejaVuSans-49"/>
      </defs>
      <g transform="translate(693.310938 688.798438)scale(0.1 -0.1)">
       <use xlink:href="#DejaVuSans-49"/>
       <use x="63.623047" xlink:href="#DejaVuSans-46"/>
       <use x="95.410156" xlink:href="#DejaVuSans-48"/>
      </g>
     </g>
    </g>
    <g id="text_7">
     <!-- t -->
     <defs>
      <path d="M 18.3125 70.21875 
L 18.3125 54.6875 
L 36.8125 54.6875 
L 36.8125 47.703125 
L 18.3125 47.703125 
L 18.3125 18.015625 
Q 18.3125 11.328125 20.140625 9.421875 
Q 21.96875 7.515625 27.59375 7.515625 
L 36.8125 7.515625 
L 36.8125 0 
L 27.59375 0 
Q 17.1875 0 13.234375 3.875 
Q 9.28125 7.765625 9.28125 18.015625 
L 9.28125 47.703125 
L 2.6875 47.703125 
L 2.6875 54.6875 
L 9.28125 54.6875 
L 9.28125 70.21875 
z
" id="DejaVuSans-116"/>
     </defs>
     <g transform="translate(368.912031 705.515938)scale(0.14 -0.14)">
      <use xlink:href="#DejaVuSans-116"/>
     </g>
    </g>
   </g>
   <g id="matplotlib.axis_2">
    <g id="ytick_1">
     <g id="line2d_7">
      <defs>
       <path d="M 0 0 
L -3.5 0 
" id="ma792947178" style="stroke:#000000;stroke-width:0.8;"/>
      </defs>
      <g>
       <use style="stroke:#000000;stroke-width:0.8;" x="42.05" xlink:href="#ma792947178" y="630.24"/>
      </g>
     </g>
     <g id="text_8">
      <!-- −0.4 -->
      <defs>
       <path d="M 10.59375 35.5 
L 73.1875 35.5 
L 73.1875 27.203125 
L 10.59375 27.203125 
z
" id="DejaVuSans-8722"/>
      </defs>
      <g transform="translate(10.767187 634.039219)scale(0.1 -0.1)">
       <use xlink:href="#DejaVuSans-8722"/>
       <use x="83.789062" xlink:href="#DejaVuSans-48"/>
       <use x="147.412109" xlink:href="#DejaVuSans-46"/>
       <use x="179.199219" xlink:href="#DejaVuSans-52"/>
      </g>
     </g>
    </g>
    <g id="ytick_2">
     <g id="line2d_8">
      <g>
       <use style="stroke:#000000;stroke-width:0.8;" x="42.05" xlink:href="#ma792947178" y="542.32"/>
      </g>
     </g>
     <g id="text_9">
      <!-- −0.2 -->
      <g transform="translate(10.767187 546.119219)scale(0.1 -0.1)">
       <use xlink:href="#DejaVuSans-8722"/>
       <use x="83.789062" xlink:href="#DejaVuSans-48"/>
       <use x="147.412109" xlink:href="#DejaVuSans-46"/>
       <use x="179.199219" xlink:href="#DejaVuSans-50"/>
      </g>
     </g>
    </g>
    <g id="ytick_3">
     <g id="line2d_9">
      <g>
       <use style="stroke:#000000;stroke-width:0.8;" x="42.05" xlink:href="#ma792947178" y="454.4"/>
      </g>
     </g>
     <g id="text_10">
      <!-- 0.0 -->
      <g transform="translate(19.146875 458.199219)scale(0.1 -0.1)">
       <use xlink:href="#DejaVuSans-48"/>
       <use x="63.623047" xlink:href="#DejaVuSans-46"/>
       <use x="95.410156" xlink:href="#DejaVuSans-48"/>
      </g>
     </g>
    </g>
    <g id="ytick_4">
     <g id="line2d_10">
      <g>
       <use style="stroke:#000000;stroke-width:0.8;" x="42.05" xlink:href="#ma792947178" y="366.48"/>
      </g>
     </g>
     <g id="text_11">
      <!-- 0.2 -->
      <g transform="translate(19.146875 370.279219)scale(0.1 -0.1)">
       <use xlink:href="#DejaVuSans-48"/>
       <use x="63.623047" xlink:href="#DejaVuSans-46"/>
       <use x="95.410156" xlink:href="#DejaVuSans-50"/>
      </g>
     </g>
    </g>
    <g id="ytick_5">
     <g id="line2d_11">
      <g>
       <use style="stroke:#000000;stroke-width:0.8;" x="42.05" xlink:href="#ma792947178" y="278.56"/>
      </g>
     </g>
     <g id="text_12">
      <!-- 0.4 -->
      <g transform="translate(19.146875 282.359219)scale(0.1 -0.1)">
       <use xlink:href="#DejaVuSans-48"/>
       <use x="63.623047" xlink:href="#DejaVuSans-46"/>
       <use x="95.410156" xlink:href="#DejaVuSans-52"/>
      </g>
     </g>
    </g>
    <g id="ytick_6">
     <g id="line2d_12">
      <g>
       <use style="stroke:#000000;stroke-width:0.8;" x="42.05" xlink:href="#ma792947178" y="190.64"/>
      </g>
     </g>
     <g id="text_13">
      <!-- 0.6 -->
      <g transform="translate(19.146875 194.439219)scale(0.1 -0.1)">
       <use xlink:href="#DejaVuSans-48"/>
       <use x="63.623047" xlink:href="#DejaVuSans-46"/>
       <use x="95.410156" xlink:href="#DejaVuSans-54"/>
      </g>
     </g>
    </g>
    <g id="ytick_7">
     <g id="line2d_13">
      <g>
       <use style="stroke:#000000;stroke-width:0.8;" x="42.05" xlink:href="#ma792947178" y="102.72"/>
      </g>
     </g>
     <g id="text_14">
      <!-- 0.8 -->
      <g transform="translate(19.146875 106.519219)scale(0.1 -0.1)">
       <use xlink:href="#DejaVuSans-48"/>
       <use x="63.623047" xlink:href="#DejaVuSans-46"/>
       <use x="95.410156" xlink:href="#DejaVuSans-56"/>
      </g>
     </g>
    </g>
    <g id="ytick_8">
     <g id="line2d_14">
      <g>
       <use style="stroke:#000000;stroke-width:0.8;" x="42.05" xlink:href="#ma792947178" y="14.8"/>
      </g>
     </g>
     <g id="text_15">
      <!-- 1.0 -->
      <g transform="translate(19.146875 18.599219)scale(0.1 -0.1)">
       <use xlink:href="#DejaVuSans-49"/>
       <use x="63.623047" xlink:href="#DejaVuSans-46"/>
       <use x="95.410156" xlink:href="#DejaVuSans-48"/>
      </g>
     </g>
    </g>
   </g>
   <g id="line2d_15">
    <path clip-path="url(#p702ffe95c6)" d="M 42.05 14.8 
L 42.972897 29.746485 
L 44.15948 52.941858 
L 45.807511 90.005326 
L 50.685684 202.450879 
L 52.201873 231.124625 
L 53.520297 252.030716 
L 54.70688 267.361462 
L 55.76162 278.154443 
L 56.684517 285.438583 
L 57.475572 290.131733 
L 58.200706 293.234097 
L 58.859919 295.111699 
L 59.387289 296.003915 
L 59.848737 296.365014 
L 60.244265 296.379436 
L 60.639792 296.135896 
L 61.101241 295.544517 
L 61.628611 294.491517 
L 62.287824 292.660508 
L 63.1448 289.531183 
L 64.19954 284.723923 
L 65.583886 277.246121 
L 67.89113 263.289957 
L 70.725744 246.458646 
L 72.373775 237.966876 
L 73.758121 231.928496 
L 75.010625 227.43797 
L 76.131286 224.236332 
L 77.120105 222.049709 
L 78.043003 220.532672 
L 78.834058 219.616215 
L 79.625113 219.033151 
L 80.350246 218.771589 
L 81.07538 218.750429 
L 81.800514 218.94813 
L 82.65749 219.433018 
L 83.646309 220.282977 
L 84.832891 221.633539 
L 86.34908 223.732646 
L 89.051851 227.947493 
L 91.688701 231.910971 
L 93.468575 234.194505 
L 94.984764 235.791333 
L 96.36911 236.938929 
L 97.687535 237.750794 
L 99.00596 238.296745 
L 100.324385 238.595338 
L 101.708731 238.671554 
L 103.22492 238.519262 
L 104.938873 238.115712 
L 107.180195 237.343797 
L 114.82706 234.517879 
L 117.266146 233.9656 
L 119.639311 233.657195 
L 122.21024 233.553934 
L 125.242618 233.668109 
L 129.857105 234.097343 
L 136.581073 234.689301 
L 141.261481 234.857964 
L 146.864788 234.821528 
L 165.652344 234.534589 
L 218.389344 234.600096 
L 582.736093 234.6 
L 701.2625 234.6 
L 701.2625 234.6 
" style="fill:none;stroke:#1f77b4;stroke-linecap:square;stroke-width:1.5;"/>
   </g>
   <g id="line2d_16">
    <path clip-path="url(#p702ffe95c6)" d="M 42.05 454.4 
L 42.972897 439.453515 
L 44.15948 416.258142 
L 45.807511 379.194674 
L 50.685684 266.749121 
L 52.201873 238.075375 
L 53.520297 217.169284 
L 54.70688 201.838538 
L 55.76162 191.045557 
L 56.684517 183.761417 
L 57.475572 179.068267 
L 58.200706 175.965903 
L 58.859919 174.088301 
L 59.387289 173.196085 
L 59.848737 172.834986 
L 60.244265 172.820564 
L 60.639792 173.064104 
L 61.101241 173.655483 
L 61.628611 174.708483 
L 62.287824 176.539492 
L 63.1448 179.668817 
L 64.19954 184.476077 
L 65.583886 191.953879 
L 67.89113 205.910043 
L 70.725744 222.741354 
L 72.373775 231.233124 
L 73.758121 237.271504 
L 75.010625 241.76203 
L 76.131286 244.963668 
L 77.120105 247.150291 
L 78.043003 248.667328 
L 78.834058 249.583785 
L 79.625113 250.166849 
L 80.350246 250.428411 
L 81.07538 250.449571 
L 81.800514 250.25187 
L 82.65749 249.766982 
L 83.646309 248.917023 
L 84.832891 247.566461 
L 86.34908 245.467354 
L 89.051851 241.252507 
L 91.688701 237.289029 
L 93.468575 235.005495 
L 94.984764 233.408667 
L 96.36911 232.261071 
L 97.687535 231.449206 
L 99.00596 230.903255 
L 100.324385 230.604662 
L 101.708731 230.528446 
L 103.22492 230.680738 
L 104.938873 231.084288 
L 107.180195 231.856203 
L 114.82706 234.682121 
L 117.266146 235.2344 
L 119.639311 235.542805 
L 122.21024 235.646066 
L 125.242618 235.531891 
L 129.857105 235.102657 
L 136.581073 234.510699 
L 141.261481 234.342036 
L 146.864788 234.378472 
L 165.652344 234.665411 
L 218.389344 234.599904 
L 582.736093 234.6 
L 701.2625 234.6 
L 701.2625 234.6 
" style="fill:none;stroke:#ff7f0e;stroke-linecap:square;stroke-width:1.5;"/>
   </g>
   <g id="line2d_17">
    <path clip-path="url(#p702ffe95c6)" d="M 42.05 454.4 
L 43.368425 470.546118 
L 44.68685 484.125647 
L 46.005275 495.546571 
L 47.3237 505.152023 
L 48.642125 513.23059 
L 49.96055 520.024987 
L 51.344896 525.999916 
L 52.729242 530.98176 
L 54.113589 535.135579 
L 55.497935 538.598997 
L 56.882281 541.486765 
L 58.332549 543.998661 
L 59.782816 546.075008 
L 61.299005 547.861845 
L 62.881115 549.383412 
L 64.529146 550.665703 
L 66.30902 551.77185 
L 68.286658 552.732722 
L 70.462059 553.537916 
L 72.967066 554.220569 
L 75.867601 554.775716 
L 79.427349 555.222888 
L 83.975915 555.560355 
L 90.370276 555.794987 
L 100.851755 555.928311 
L 127.088413 555.971914 
L 701.2625 555.973351 
L 701.2625 555.973351 
" style="fill:none;stroke:#d62728;stroke-linecap:square;stroke-width:1.5;"/>
   </g>
   <g id="line2d_18">
    <path clip-path="url(#p702ffe95c6)" d="M 42.05 454.4 
L 43.302504 492.634287 
L 44.423165 520.658785 
L 45.477905 541.604892 
L 46.400802 555.678734 
L 47.191857 564.692983 
L 47.916991 570.599872 
L 48.510282 573.844599 
L 49.037653 575.5951 
L 49.43318 576.244246 
L 49.696865 576.375269 
L 49.96055 576.274118 
L 50.290156 575.833526 
L 50.685684 574.86536 
L 51.213054 572.87542 
L 51.872266 569.360931 
L 52.663321 563.815918 
L 53.65214 555.186015 
L 54.970565 541.470262 
L 56.948203 518.18512 
L 60.442029 477.029663 
L 62.09006 460.380652 
L 63.474406 448.574007 
L 64.660989 440.232327 
L 65.715729 434.24994 
L 66.704548 429.862897 
L 67.561524 426.990905 
L 68.352579 425.07309 
L 69.011791 423.984569 
L 69.605083 423.378353 
L 70.132452 423.119079 
L 70.659823 423.10666 
L 71.187193 423.32467 
L 71.780484 423.824163 
L 72.505617 424.765147 
L 73.362594 426.286361 
L 74.417334 428.659585 
L 75.80168 432.393263 
L 77.977081 439.020919 
L 81.141301 448.56059 
L 82.855254 452.996273 
L 84.2396 456.005469 
L 85.492104 458.231964 
L 86.612765 459.809963 
L 87.667505 460.940432 
L 88.656324 461.698938 
L 89.645143 462.182634 
L 90.633961 462.412892 
L 91.62278 462.414813 
L 92.67752 462.196491 
L 93.864103 461.722598 
L 95.31437 460.88834 
L 97.226086 459.507742 
L 103.356763 454.888678 
L 105.268479 453.830367 
L 107.048353 453.100822 
L 108.762305 452.636223 
L 110.542179 452.385802 
L 112.453895 452.345832 
L 114.629296 452.526912 
L 117.529831 453.008683 
L 126.033673 454.553064 
L 129.329735 454.845164 
L 132.889483 454.929233 
L 137.438049 454.796054 
L 150.885984 454.275427 
L 158.862455 454.307173 
L 177.188563 454.430725 
L 236.319924 454.399409 
L 701.2625 454.4 
L 701.2625 454.4 
" style="fill:none;stroke:#2ca02c;stroke-linecap:square;stroke-width:1.5;"/>
   </g>
   <g id="line2d_19">
    <path clip-path="url(#p702ffe95c6)" d="M 42.05 14.8 
L 42.247764 14.898052 
L 42.511449 15.327582 
L 42.841055 16.327339 
L 43.302504 18.547385 
L 43.895795 22.709274 
L 44.620929 29.598833 
L 45.477905 39.961548 
L 46.598566 56.472331 
L 48.048834 81.448392 
L 50.48792 128.009082 
L 53.454376 183.529232 
L 55.23425 212.671104 
L 56.684517 233.008246 
L 58.002943 248.502259 
L 59.189525 259.90644 
L 60.244265 268.024706 
L 61.233084 273.956332 
L 62.09006 277.839124 
L 62.881115 280.442301 
L 63.540328 281.934415 
L 64.133619 282.783073 
L 64.660989 283.168131 
L 65.122438 283.236973 
L 65.583886 283.070618 
L 66.111256 282.611262 
L 66.704548 281.777661 
L 67.429681 280.347933 
L 68.286658 278.15009 
L 69.407319 274.594334 
L 70.857586 269.151559 
L 73.16483 259.461686 
L 76.394971 246.026593 
L 78.174845 239.560763 
L 79.691034 234.856268 
L 81.009459 231.444069 
L 82.196041 228.935531 
L 83.316703 227.054531 
L 84.371443 225.704492 
L 85.360261 224.790613 
L 86.283159 224.224956 
L 87.206056 223.915056 
L 88.128954 223.837435 
L 89.117773 223.983515 
L 90.172513 224.365382 
L 91.425016 225.068637 
L 92.941205 226.194577 
L 95.050685 228.068847 
L 100.324385 232.865836 
L 102.302023 234.311201 
L 104.081896 235.349638 
L 105.795849 236.099286 
L 107.509801 236.607614 
L 109.289675 236.899514 
L 111.201391 236.980803 
L 113.376793 236.84033 
L 116.079564 236.429853 
L 122.671689 235.097361 
L 126.495121 234.500083 
L 129.988948 234.182813 
L 133.746459 234.073024 
L 138.492789 234.172877 
L 155.368629 234.713256 
L 165.98195 234.650096 
L 183.846609 234.578014 
L 260.513023 234.600058 
L 701.2625 234.6 
L 701.2625 234.6 
" style="fill:none;stroke:#1f77b4;stroke-dasharray:5.55,2.4;stroke-dashoffset:0;stroke-width:1.5;"/>
   </g>
   <g id="line2d_20">
    <path clip-path="url(#p702ffe95c6)" d="M 42.05 454.4 
L 42.247764 454.301948 
L 42.511449 453.872418 
L 42.841055 452.872661 
L 43.302504 450.652615 
L 43.895795 446.490726 
L 44.620929 439.601167 
L 45.477905 429.238452 
L 46.598566 412.727669 
L 48.048834 387.751608 
L 50.48792 341.190918 
L 53.454376 285.670768 
L 55.23425 256.528896 
L 56.684517 236.191754 
L 58.002943 220.697741 
L 59.189525 209.29356 
L 60.244265 201.175294 
L 61.233084 195.243668 
L 62.09006 191.360876 
L 62.881115 188.757699 
L 63.540328 187.265585 
L 64.133619 186.416927 
L 64.660989 186.031869 
L 65.122438 185.963027 
L 65.583886 186.129382 
L 66.111256 186.588738 
L 66.704548 187.422339 
L 67.429681 188.852067 
L 68.286658 191.04991 
L 69.407319 194.605666 
L 70.857586 200.048441 
L 73.16483 209.738314 
L 76.394971 223.173407 
L 78.174845 229.639237 
L 79.691034 234.343732 
L 81.009459 237.755931 
L 82.196041 240.264469 
L 83.316703 242.145469 
L 84.371443 243.495508 
L 85.360261 244.409387 
L 86.283159 244.975044 
L 87.206056 245.284944 
L 88.128954 245.362565 
L 89.117773 245.216485 
L 90.172513 244.834618 
L 91.425016 244.131363 
L 92.941205 243.005423 
L 95.050685 241.131153 
L 100.324385 236.334164 
L 102.302023 234.888799 
L 104.081896 233.850362 
L 105.795849 233.100714 
L 107.509801 232.592386 
L 109.289675 232.300486 
L 111.201391 232.219197 
L 113.376793 232.35967 
L 116.079564 232.770147 
L 122.671689 234.102639 
L 126.495121 234.699917 
L 129.988948 235.017187 
L 133.746459 235.126976 
L 138.492789 235.027123 
L 155.368629 234.486744 
L 165.98195 234.549904 
L 183.846609 234.621986 
L 260.513023 234.599942 
L 701.2625 234.6 
L 701.2625 234.6 
" style="fill:none;stroke:#ff7f0e;stroke-dasharray:5.55,2.4;stroke-dashoffset:0;stroke-width:1.5;"/>
   </g>
   <g id="line2d_21">
    <path clip-path="url(#p702ffe95c6)" d="M 42.05 454.4 
L 43.368425 470.546118 
L 44.68685 484.125647 
L 46.005275 495.546571 
L 47.3237 505.152023 
L 48.642125 513.23059 
L 49.96055 520.024987 
L 51.344896 525.999916 
L 52.729242 530.98176 
L 54.113589 535.135579 
L 55.497935 538.598997 
L 56.882281 541.486765 
L 58.332549 543.998661 
L 59.782816 546.075008 
L 61.299005 547.861845 
L 62.881115 549.383412 
L 64.529146 550.665703 
L 66.30902 551.77185 
L 68.286658 552.732722 
L 70.462059 553.537916 
L 72.967066 554.220569 
L 75.867601 554.775716 
L 79.427349 555.222888 
L 83.975915 555.560355 
L 90.370276 555.794987 
L 100.851755 555.928311 
L 127.088413 555.971914 
L 701.2625 555.973351 
L 701.2625 555.973351 
" style="fill:none;stroke:#d62728;stroke-dasharray:5.55,2.4;stroke-dashoffset:0;stroke-width:1.5;"/>
   </g>
   <g id="line2d_22">
    <path clip-path="url(#p702ffe95c6)" d="M 42.05 454.4 
L 43.368425 494.496865 
L 44.555007 523.879912 
L 45.609747 544.68861 
L 46.532645 558.914165 
L 47.389621 568.941071 
L 48.114755 575.156426 
L 48.773967 579.105364 
L 49.301338 581.164504 
L 49.762786 582.208743 
L 50.092393 582.542979 
L 50.356077 582.573823 
L 50.619763 582.402075 
L 50.949369 581.913417 
L 51.410818 580.743232 
L 51.938187 578.757161 
L 52.5974 575.38755 
L 53.454376 569.710527 
L 54.509116 561.051935 
L 55.893462 547.59382 
L 57.937021 525.22353 
L 61.760454 483.241738 
L 63.474406 466.95288 
L 64.924674 455.128057 
L 66.243099 446.126791 
L 67.429681 439.507714 
L 68.484421 434.800971 
L 69.47324 431.36677 
L 70.330216 429.12301 
L 71.121271 427.62283 
L 71.846405 426.699916 
L 72.505617 426.211587 
L 73.098909 426.038071 
L 73.6922 426.098422 
L 74.351413 426.417864 
L 75.076546 427.047023 
L 75.933523 428.12088 
L 76.922341 429.735652 
L 78.174845 432.234159 
L 79.888798 436.201174 
L 85.755789 450.229362 
L 87.40382 453.396764 
L 88.854088 455.722274 
L 90.172513 457.436308 
L 91.425016 458.709181 
L 92.611599 459.604797 
L 93.73226 460.18865 
L 94.852921 460.53742 
L 96.039504 460.675877 
L 97.292008 460.597273 
L 98.676354 460.286545 
L 100.324385 459.679842 
L 102.499786 458.620802 
L 109.948888 454.792555 
L 112.19021 453.994307 
L 114.365611 453.452643 
L 116.606934 453.128111 
L 118.980099 453.011319 
L 121.748791 453.103957 
L 125.572224 453.477645 
L 134.998963 454.478669 
L 139.547529 454.68079 
L 144.88715 454.684266 
L 172.244469 454.359086 
L 198.612969 454.404595 
L 290.573113 454.400011 
L 701.2625 454.4 
L 701.2625 454.4 
" style="fill:none;stroke:#2ca02c;stroke-dasharray:5.55,2.4;stroke-dashoffset:0;stroke-width:1.5;"/>
   </g>
   <g id="patch_3">
    <path d="M 42.05 674.2 
L 42.05 14.8 
" style="fill:none;stroke:#000000;stroke-linecap:square;stroke-linejoin:miter;stroke-width:0.8;"/>
   </g>
   <g id="patch_4">
    <path d="M 701.2625 674.2 
L 701.2625 14.8 
" style="fill:none;stroke:#000000;stroke-linecap:square;stroke-linejoin:miter;stroke-width:0.8;"/>
   </g>
   <g id="patch_5">
    <path d="M 42.05 674.2 
L 701.2625 674.2 
" style="fill:none;stroke:#000000;stroke-linecap:square;stroke-linejoin:miter;stroke-width:0.8;"/>
   </g>
   <g id="patch_6">
    <path d="M 42.05 14.8 
L 701.2625 14.8 
" style="fill:none;stroke:#000000;stroke-linecap:square;stroke-linejoin:miter;stroke-width:0.8;"/>
   </g>
   <g id="text_16">
    <!-- Secular approx. -->
    <defs>
     <path d="M 53.515625 70.515625 
L 53.515625 60.890625 
Q 47.90625 63.578125 42.921875 64.890625 
Q 37.9375 66.21875 33.296875 66.21875 
Q 25.25 66.21875 20.875 63.09375 
Q 16.5 59.96875 16.5 54.203125 
Q 16.5 49.359375 19.40625 46.890625 
Q 22.3125 44.4375 30.421875 42.921875 
L 36.375 41.703125 
Q 47.40625 39.59375 52.65625 34.296875 
Q 57.90625 29 57.90625 20.125 
Q 57.90625 9.515625 50.796875 4.046875 
Q 43.703125 -1.421875 29.984375 -1.421875 
Q 24.8125 -1.421875 18.96875 -0.25 
Q 13.140625 0.921875 6.890625 3.21875 
L 6.890625 13.375 
Q 12.890625 10.015625 18.65625 8.296875 
Q 24.421875 6.59375 29.984375 6.59375 
Q 38.421875 6.59375 43.015625 9.90625 
Q 47.609375 13.234375 47.609375 19.390625 
Q 47.609375 24.75 44.3125 27.78125 
Q 41.015625 30.8125 33.5 32.328125 
L 27.484375 33.5 
Q 16.453125 35.6875 11.515625 40.375 
Q 6.59375 45.0625 6.59375 53.421875 
Q 6.59375 63.09375 13.40625 68.65625 
Q 20.21875 74.21875 32.171875 74.21875 
Q 37.3125 74.21875 42.625 73.28125 
Q 47.953125 72.359375 53.515625 70.515625 
z
" id="DejaVuSans-83"/>
     <path d="M 56.203125 29.59375 
L 56.203125 25.203125 
L 14.890625 25.203125 
Q 15.484375 15.921875 20.484375 11.0625 
Q 25.484375 6.203125 34.421875 6.203125 
Q 39.59375 6.203125 44.453125 7.46875 
Q 49.3125 8.734375 54.109375 11.28125 
L 54.109375 2.78125 
Q 49.265625 0.734375 44.1875 -0.34375 
Q 39.109375 -1.421875 33.890625 -1.421875 
Q 20.796875 -1.421875 13.15625 6.1875 
Q 5.515625 13.8125 5.515625 26.8125 
Q 5.515625 40.234375 12.765625 48.109375 
Q 20.015625 56 32.328125 56 
Q 43.359375 56 49.78125 48.890625 
Q 56.203125 41.796875 56.203125 29.59375 
z
M 47.21875 32.234375 
Q 47.125 39.59375 43.09375 43.984375 
Q 39.0625 48.390625 32.421875 48.390625 
Q 24.90625 48.390625 20.390625 44.140625 
Q 15.875 39.890625 15.1875 32.171875 
z
" id="DejaVuSans-101"/>
     <path d="M 48.78125 52.59375 
L 48.78125 44.1875 
Q 44.96875 46.296875 41.140625 47.34375 
Q 37.3125 48.390625 33.40625 48.390625 
Q 24.65625 48.390625 19.8125 42.84375 
Q 14.984375 37.3125 14.984375 27.296875 
Q 14.984375 17.28125 19.8125 11.734375 
Q 24.65625 6.203125 33.40625 6.203125 
Q 37.3125 6.203125 41.140625 7.25 
Q 44.96875 8.296875 48.78125 10.40625 
L 48.78125 2.09375 
Q 45.015625 0.34375 40.984375 -0.53125 
Q 36.96875 -1.421875 32.421875 -1.421875 
Q 20.0625 -1.421875 12.78125 6.34375 
Q 5.515625 14.109375 5.515625 27.296875 
Q 5.515625 40.671875 12.859375 48.328125 
Q 20.21875 56 33.015625 56 
Q 37.15625 56 41.109375 55.140625 
Q 45.0625 54.296875 48.78125 52.59375 
z
" id="DejaVuSans-99"/>
     <path d="M 8.5 21.578125 
L 8.5 54.6875 
L 17.484375 54.6875 
L 17.484375 21.921875 
Q 17.484375 14.15625 20.5 10.265625 
Q 23.53125 6.390625 29.59375 6.390625 
Q 36.859375 6.390625 41.078125 11.03125 
Q 45.3125 15.671875 45.3125 23.6875 
L 45.3125 54.6875 
L 54.296875 54.6875 
L 54.296875 0 
L 45.3125 0 
L 45.3125 8.40625 
Q 42.046875 3.421875 37.71875 1 
Q 33.40625 -1.421875 27.6875 -1.421875 
Q 18.265625 -1.421875 13.375 4.4375 
Q 8.5 10.296875 8.5 21.578125 
z
M 31.109375 56 
z
" id="DejaVuSans-117"/>
     <path d="M 9.421875 75.984375 
L 18.40625 75.984375 
L 18.40625 0 
L 9.421875 0 
z
" id="DejaVuSans-108"/>
     <path d="M 34.28125 27.484375 
Q 23.390625 27.484375 19.1875 25 
Q 14.984375 22.515625 14.984375 16.5 
Q 14.984375 11.71875 18.140625 8.90625 
Q 21.296875 6.109375 26.703125 6.109375 
Q 34.1875 6.109375 38.703125 11.40625 
Q 43.21875 16.703125 43.21875 25.484375 
L 43.21875 27.484375 
z
M 52.203125 31.203125 
L 52.203125 0 
L 43.21875 0 
L 43.21875 8.296875 
Q 40.140625 3.328125 35.546875 0.953125 
Q 30.953125 -1.421875 24.3125 -1.421875 
Q 15.921875 -1.421875 10.953125 3.296875 
Q 6 8.015625 6 15.921875 
Q 6 25.140625 12.171875 29.828125 
Q 18.359375 34.515625 30.609375 34.515625 
L 43.21875 34.515625 
L 43.21875 35.40625 
Q 43.21875 41.609375 39.140625 45 
Q 35.0625 48.390625 27.6875 48.390625 
Q 23 48.390625 18.546875 47.265625 
Q 14.109375 46.140625 10.015625 43.890625 
L 10.015625 52.203125 
Q 14.9375 54.109375 19.578125 55.046875 
Q 24.21875 56 28.609375 56 
Q 40.484375 56 46.34375 49.84375 
Q 52.203125 43.703125 52.203125 31.203125 
z
" id="DejaVuSans-97"/>
     <path d="M 41.109375 46.296875 
Q 39.59375 47.171875 37.8125 47.578125 
Q 36.03125 48 33.890625 48 
Q 26.265625 48 22.1875 43.046875 
Q 18.109375 38.09375 18.109375 28.8125 
L 18.109375 0 
L 9.078125 0 
L 9.078125 54.6875 
L 18.109375 54.6875 
L 18.109375 46.1875 
Q 20.953125 51.171875 25.484375 53.578125 
Q 30.03125 56 36.53125 56 
Q 37.453125 56 38.578125 55.875 
Q 39.703125 55.765625 41.0625 55.515625 
z
" id="DejaVuSans-114"/>
     <path id="DejaVuSans-32"/>
     <path d="M 18.109375 8.203125 
L 18.109375 -20.796875 
L 9.078125 -20.796875 
L 9.078125 54.6875 
L 18.109375 54.6875 
L 18.109375 46.390625 
Q 20.953125 51.265625 25.265625 53.625 
Q 29.59375 56 35.59375 56 
Q 45.5625 56 51.78125 48.09375 
Q 58.015625 40.1875 58.015625 27.296875 
Q 58.015625 14.40625 51.78125 6.484375 
Q 45.5625 -1.421875 35.59375 -1.421875 
Q 29.59375 -1.421875 25.265625 0.953125 
Q 20.953125 3.328125 18.109375 8.203125 
z
M 48.6875 27.296875 
Q 48.6875 37.203125 44.609375 42.84375 
Q 40.53125 48.484375 33.40625 48.484375 
Q 26.265625 48.484375 22.1875 42.84375 
Q 18.109375 37.203125 18.109375 27.296875 
Q 18.109375 17.390625 22.1875 11.75 
Q 26.265625 6.109375 33.40625 6.109375 
Q 40.53125 6.109375 44.609375 11.75 
Q 48.6875 17.390625 48.6875 27.296875 
z
" id="DejaVuSans-112"/>
     <path d="M 30.609375 48.390625 
Q 23.390625 48.390625 19.1875 42.75 
Q 14.984375 37.109375 14.984375 27.296875 
Q 14.984375 17.484375 19.15625 11.84375 
Q 23.34375 6.203125 30.609375 6.203125 
Q 37.796875 6.203125 41.984375 11.859375 
Q 46.1875 17.53125 46.1875 27.296875 
Q 46.1875 37.015625 41.984375 42.703125 
Q 37.796875 48.390625 30.609375 48.390625 
z
M 30.609375 56 
Q 42.328125 56 49.015625 48.375 
Q 55.71875 40.765625 55.71875 27.296875 
Q 55.71875 13.875 49.015625 6.21875 
Q 42.328125 -1.421875 30.609375 -1.421875 
Q 18.84375 -1.421875 12.171875 6.21875 
Q 5.515625 13.875 5.515625 27.296875 
Q 5.515625 40.765625 12.171875 48.375 
Q 18.84375 56 30.609375 56 
z
" id="DejaVuSans-111"/>
     <path d="M 54.890625 54.6875 
L 35.109375 28.078125 
L 55.90625 0 
L 45.3125 0 
L 29.390625 21.484375 
L 13.484375 0 
L 2.875 0 
L 24.125 28.609375 
L 4.6875 54.6875 
L 15.28125 54.6875 
L 29.78125 35.203125 
L 44.28125 54.6875 
z
" id="DejaVuSans-120"/>
    </defs>
    <g transform="translate(381.544438 36.78)scale(0.14 -0.14)">
     <use xlink:href="#DejaVuSans-83"/>
     <use x="63.476562" xlink:href="#DejaVuSans-101"/>
     <use x="125" xlink:href="#DejaVuSans-99"/>
     <use x="179.980469" xlink:href="#DejaVuSans-117"/>
     <use x="243.359375" xlink:href="#DejaVuSans-108"/>
     <use x="271.142578" xlink:href="#DejaVuSans-97"/>
     <use x="332.421875" xlink:href="#DejaVuSans-114"/>
     <use x="373.535156" xlink:href="#DejaVuSans-32"/>
     <use x="405.322266" xlink:href="#DejaVuSans-97"/>
     <use x="466.601562" xlink:href="#DejaVuSans-112"/>
     <use x="530.078125" xlink:href="#DejaVuSans-112"/>
     <use x="593.554688" xlink:href="#DejaVuSans-114"/>
     <use x="634.636719" xlink:href="#DejaVuSans-111"/>
     <use x="695.771484" xlink:href="#DejaVuSans-120"/>
     <use x="754.951172" xlink:href="#DejaVuSans-46"/>
    </g>
   </g>
   <g id="text_17">
    <!-- No approx. -->
    <defs>
     <path d="M 9.8125 72.90625 
L 23.09375 72.90625 
L 55.421875 11.921875 
L 55.421875 72.90625 
L 64.984375 72.90625 
L 64.984375 0 
L 51.703125 0 
L 19.390625 60.984375 
L 19.390625 0 
L 9.8125 0 
z
" id="DejaVuSans-78"/>
    </defs>
    <g transform="translate(562.827875 36.78)scale(0.14 -0.14)">
     <use xlink:href="#DejaVuSans-78"/>
     <use x="74.804688" xlink:href="#DejaVuSans-111"/>
     <use x="135.986328" xlink:href="#DejaVuSans-32"/>
     <use x="167.773438" xlink:href="#DejaVuSans-97"/>
     <use x="229.052734" xlink:href="#DejaVuSans-112"/>
     <use x="292.529297" xlink:href="#DejaVuSans-112"/>
     <use x="356.005859" xlink:href="#DejaVuSans-114"/>
     <use x="397.087891" xlink:href="#DejaVuSans-111"/>
     <use x="458.222656" xlink:href="#DejaVuSans-120"/>
     <use x="517.402344" xlink:href="#DejaVuSans-46"/>
    </g>
   </g>
   <g id="patch_7">
    <path clip-path="url(#p702ffe95c6)" d="M 42.05 454.4 
L 107.97125 454.4 
L 107.97125 14.8 
L 42.05 14.8 
z
" style="fill:none;opacity:0.5;stroke:#808080;stroke-linejoin:miter;"/>
   </g>
   <g id="patch_8">
    <path d="M 351.879875 647.824 
Q 196.964938 551.112 42.05 454.4 
" style="fill:none;opacity:0.5;stroke:#808080;stroke-linecap:round;"/>
   </g>
   <g id="patch_9">
    <path d="M 681.486125 340.104 
Q 394.728688 177.452 107.97125 14.8 
" style="fill:none;opacity:0.5;stroke:#808080;stroke-linecap:round;"/>
   </g>
   <g id="legend_1">
    <g id="patch_10">
     <path d="M 374.45625 133.492 
L 497.214375 133.492 
Q 500.014375 133.492 500.014375 130.692 
L 500.014375 49.8945 
Q 500.014375 47.0945 497.214375 47.0945 
L 374.45625 47.0945 
Q 371.65625 47.0945 371.65625 49.8945 
L 371.65625 130.692 
Q 371.65625 133.492 374.45625 133.492 
z
" style="fill:#ffffff;opacity:0.8;stroke:#cccccc;stroke-linejoin:miter;"/>
    </g>
    <g id="line2d_23">
     <path d="M 377.25625 58.432312 
L 405.25625 58.432312 
" style="fill:none;stroke:#1f77b4;stroke-linecap:square;stroke-width:1.5;"/>
    </g>
    <g id="line2d_24"/>
    <g id="text_18">
     <!-- P1 -->
     <defs>
      <path d="M 19.671875 64.796875 
L 19.671875 37.40625 
L 32.078125 37.40625 
Q 38.96875 37.40625 42.71875 40.96875 
Q 46.484375 44.53125 46.484375 51.125 
Q 46.484375 57.671875 42.71875 61.234375 
Q 38.96875 64.796875 32.078125 64.796875 
z
M 9.8125 72.90625 
L 32.078125 72.90625 
Q 44.34375 72.90625 50.609375 67.359375 
Q 56.890625 61.8125 56.890625 51.125 
Q 56.890625 40.328125 50.609375 34.8125 
Q 44.34375 29.296875 32.078125 29.296875 
L 19.671875 29.296875 
L 19.671875 0 
L 9.8125 0 
z
" id="DejaVuSans-80"/>
     </defs>
     <g transform="translate(416.45625 63.332312)scale(0.14 -0.14)">
      <use xlink:href="#DejaVuSans-80"/>
      <use x="60.302734" xlink:href="#DejaVuSans-49"/>
     </g>
    </g>
    <g id="line2d_25">
     <path d="M 377.25625 78.981687 
L 405.25625 78.981687 
" style="fill:none;stroke:#ff7f0e;stroke-linecap:square;stroke-width:1.5;"/>
    </g>
    <g id="line2d_26"/>
    <g id="text_19">
     <!-- P2 -->
     <g transform="translate(416.45625 83.881687)scale(0.14 -0.14)">
      <use xlink:href="#DejaVuSans-80"/>
      <use x="60.302734" xlink:href="#DejaVuSans-50"/>
     </g>
    </g>
    <g id="line2d_27">
     <path d="M 377.25625 99.531062 
L 405.25625 99.531062 
" style="fill:none;stroke:#d62728;stroke-linecap:square;stroke-width:1.5;"/>
    </g>
    <g id="line2d_28"/>
    <g id="text_20">
     <!-- C21 (real) -->
     <defs>
      <path d="M 64.40625 67.28125 
L 64.40625 56.890625 
Q 59.421875 61.53125 53.78125 63.8125 
Q 48.140625 66.109375 41.796875 66.109375 
Q 29.296875 66.109375 22.65625 58.46875 
Q 16.015625 50.828125 16.015625 36.375 
Q 16.015625 21.96875 22.65625 14.328125 
Q 29.296875 6.6875 41.796875 6.6875 
Q 48.140625 6.6875 53.78125 8.984375 
Q 59.421875 11.28125 64.40625 15.921875 
L 64.40625 5.609375 
Q 59.234375 2.09375 53.4375 0.328125 
Q 47.65625 -1.421875 41.21875 -1.421875 
Q 24.65625 -1.421875 15.125 8.703125 
Q 5.609375 18.84375 5.609375 36.375 
Q 5.609375 53.953125 15.125 64.078125 
Q 24.65625 74.21875 41.21875 74.21875 
Q 47.75 74.21875 53.53125 72.484375 
Q 59.328125 70.75 64.40625 67.28125 
z
" id="DejaVuSans-67"/>
      <path d="M 31 75.875 
Q 24.46875 64.65625 21.28125 53.65625 
Q 18.109375 42.671875 18.109375 31.390625 
Q 18.109375 20.125 21.3125 9.0625 
Q 24.515625 -2 31 -13.1875 
L 23.1875 -13.1875 
Q 15.875 -1.703125 12.234375 9.375 
Q 8.59375 20.453125 8.59375 31.390625 
Q 8.59375 42.28125 12.203125 53.3125 
Q 15.828125 64.359375 23.1875 75.875 
z
" id="DejaVuSans-40"/>
      <path d="M 8.015625 75.875 
L 15.828125 75.875 
Q 23.140625 64.359375 26.78125 53.3125 
Q 30.421875 42.28125 30.421875 31.390625 
Q 30.421875 20.453125 26.78125 9.375 
Q 23.140625 -1.703125 15.828125 -13.1875 
L 8.015625 -13.1875 
Q 14.5 -2 17.703125 9.0625 
Q 20.90625 20.125 20.90625 31.390625 
Q 20.90625 42.671875 17.703125 53.65625 
Q 14.5 64.65625 8.015625 75.875 
z
" id="DejaVuSans-41"/>
     </defs>
     <g transform="translate(416.45625 104.431062)scale(0.14 -0.14)">
      <use xlink:href="#DejaVuSans-67"/>
      <use x="69.824219" xlink:href="#DejaVuSans-50"/>
      <use x="133.447266" xlink:href="#DejaVuSans-49"/>
      <use x="197.070312" xlink:href="#DejaVuSans-32"/>
      <use x="228.857422" xlink:href="#DejaVuSans-40"/>
      <use x="267.871094" xlink:href="#DejaVuSans-114"/>
      <use x="308.953125" xlink:href="#DejaVuSans-101"/>
      <use x="370.476562" xlink:href="#DejaVuSans-97"/>
      <use x="431.755859" xlink:href="#DejaVuSans-108"/>
      <use x="459.539062" xlink:href="#DejaVuSans-41"/>
     </g>
    </g>
    <g id="line2d_29">
     <path d="M 377.25625 120.080437 
L 405.25625 120.080437 
" style="fill:none;stroke:#2ca02c;stroke-linecap:square;stroke-width:1.5;"/>
    </g>
    <g id="line2d_30"/>
    <g id="text_21">
     <!-- C21 (imag) -->
     <defs>
      <path d="M 9.421875 54.6875 
L 18.40625 54.6875 
L 18.40625 0 
L 9.421875 0 
z
M 9.421875 75.984375 
L 18.40625 75.984375 
L 18.40625 64.59375 
L 9.421875 64.59375 
z
" id="DejaVuSans-105"/>
      <path d="M 52 44.1875 
Q 55.375 50.25 60.0625 53.125 
Q 64.75 56 71.09375 56 
Q 79.640625 56 84.28125 50.015625 
Q 88.921875 44.046875 88.921875 33.015625 
L 88.921875 0 
L 79.890625 0 
L 79.890625 32.71875 
Q 79.890625 40.578125 77.09375 44.375 
Q 74.3125 48.1875 68.609375 48.1875 
Q 61.625 48.1875 57.5625 43.546875 
Q 53.515625 38.921875 53.515625 30.90625 
L 53.515625 0 
L 44.484375 0 
L 44.484375 32.71875 
Q 44.484375 40.625 41.703125 44.40625 
Q 38.921875 48.1875 33.109375 48.1875 
Q 26.21875 48.1875 22.15625 43.53125 
Q 18.109375 38.875 18.109375 30.90625 
L 18.109375 0 
L 9.078125 0 
L 9.078125 54.6875 
L 18.109375 54.6875 
L 18.109375 46.1875 
Q 21.1875 51.21875 25.484375 53.609375 
Q 29.78125 56 35.6875 56 
Q 41.65625 56 45.828125 52.96875 
Q 50 49.953125 52 44.1875 
z
" id="DejaVuSans-109"/>
      <path d="M 45.40625 27.984375 
Q 45.40625 37.75 41.375 43.109375 
Q 37.359375 48.484375 30.078125 48.484375 
Q 22.859375 48.484375 18.828125 43.109375 
Q 14.796875 37.75 14.796875 27.984375 
Q 14.796875 18.265625 18.828125 12.890625 
Q 22.859375 7.515625 30.078125 7.515625 
Q 37.359375 7.515625 41.375 12.890625 
Q 45.40625 18.265625 45.40625 27.984375 
z
M 54.390625 6.78125 
Q 54.390625 -7.171875 48.1875 -13.984375 
Q 42 -20.796875 29.203125 -20.796875 
Q 24.46875 -20.796875 20.265625 -20.09375 
Q 16.0625 -19.390625 12.109375 -17.921875 
L 12.109375 -9.1875 
Q 16.0625 -11.328125 19.921875 -12.34375 
Q 23.78125 -13.375 27.78125 -13.375 
Q 36.625 -13.375 41.015625 -8.765625 
Q 45.40625 -4.15625 45.40625 5.171875 
L 45.40625 9.625 
Q 42.625 4.78125 38.28125 2.390625 
Q 33.9375 0 27.875 0 
Q 17.828125 0 11.671875 7.65625 
Q 5.515625 15.328125 5.515625 27.984375 
Q 5.515625 40.671875 11.671875 48.328125 
Q 17.828125 56 27.875 56 
Q 33.9375 56 38.28125 53.609375 
Q 42.625 51.21875 45.40625 46.390625 
L 45.40625 54.6875 
L 54.390625 54.6875 
z
" id="DejaVuSans-103"/>
     </defs>
     <g transform="translate(416.45625 124.980437)scale(0.14 -0.14)">
      <use xlink:href="#DejaVuSans-67"/>
      <use x="69.824219" xlink:href="#DejaVuSans-50"/>
      <use x="133.447266" xlink:href="#DejaVuSans-49"/>
      <use x="197.070312" xlink:href="#DejaVuSans-32"/>
      <use x="228.857422" xlink:href="#DejaVuSans-40"/>
      <use x="267.871094" xlink:href="#DejaVuSans-105"/>
      <use x="295.654297" xlink:href="#DejaVuSans-109"/>
      <use x="393.066406" xlink:href="#DejaVuSans-97"/>
      <use x="454.345703" xlink:href="#DejaVuSans-103"/>
      <use x="517.822266" xlink:href="#DejaVuSans-41"/>
     </g>
    </g>
   </g>
   <g id="axes_2">
    <g id="patch_11">
     <path d="M 351.879875 647.824 
L 681.486125 647.824 
L 681.486125 340.104 
L 351.879875 340.104 
z
" style="fill:#ffffff;"/>
    </g>
    <g id="matplotlib.axis_3">
     <g id="xtick_7">
      <g id="line2d_31">
       <g>
        <use style="stroke:#000000;stroke-width:0.8;" x="351.879875" xlink:href="#mffab20c805" y="647.824"/>
       </g>
      </g>
      <g id="text_22">
       <!-- 0.00 -->
       <g transform="translate(340.747063 662.422438)scale(0.1 -0.1)">
        <use xlink:href="#DejaVuSans-48"/>
        <use x="63.623047" xlink:href="#DejaVuSans-46"/>
        <use x="95.410156" xlink:href="#DejaVuSans-48"/>
        <use x="159.033203" xlink:href="#DejaVuSans-48"/>
       </g>
      </g>
     </g>
     <g id="xtick_8">
      <g id="line2d_32">
       <g>
        <use style="stroke:#000000;stroke-width:0.8;" x="417.801125" xlink:href="#mffab20c805" y="647.824"/>
       </g>
      </g>
      <g id="text_23">
       <!-- 0.02 -->
       <g transform="translate(406.668313 662.422438)scale(0.1 -0.1)">
        <use xlink:href="#DejaVuSans-48"/>
        <use x="63.623047" xlink:href="#DejaVuSans-46"/>
        <use x="95.410156" xlink:href="#DejaVuSans-48"/>
        <use x="159.033203" xlink:href="#DejaVuSans-50"/>
       </g>
      </g>
     </g>
     <g id="xtick_9">
      <g id="line2d_33">
       <g>
        <use style="stroke:#000000;stroke-width:0.8;" x="483.722375" xlink:href="#mffab20c805" y="647.824"/>
       </g>
      </g>
      <g id="text_24">
       <!-- 0.04 -->
       <g transform="translate(472.589563 662.422438)scale(0.1 -0.1)">
        <use xlink:href="#DejaVuSans-48"/>
        <use x="63.623047" xlink:href="#DejaVuSans-46"/>
        <use x="95.410156" xlink:href="#DejaVuSans-48"/>
        <use x="159.033203" xlink:href="#DejaVuSans-52"/>
       </g>
      </g>
     </g>
     <g id="xtick_10">
      <g id="line2d_34">
       <g>
        <use style="stroke:#000000;stroke-width:0.8;" x="549.643625" xlink:href="#mffab20c805" y="647.824"/>
       </g>
      </g>
      <g id="text_25">
       <!-- 0.06 -->
       <g transform="translate(538.510813 662.422438)scale(0.1 -0.1)">
        <use xlink:href="#DejaVuSans-48"/>
        <use x="63.623047" xlink:href="#DejaVuSans-46"/>
        <use x="95.410156" xlink:href="#DejaVuSans-48"/>
        <use x="159.033203" xlink:href="#DejaVuSans-54"/>
       </g>
      </g>
     </g>
     <g id="xtick_11">
      <g id="line2d_35">
       <g>
        <use style="stroke:#000000;stroke-width:0.8;" x="615.564875" xlink:href="#mffab20c805" y="647.824"/>
       </g>
      </g>
      <g id="text_26">
       <!-- 0.08 -->
       <g transform="translate(604.432063 662.422438)scale(0.1 -0.1)">
        <use xlink:href="#DejaVuSans-48"/>
        <use x="63.623047" xlink:href="#DejaVuSans-46"/>
        <use x="95.410156" xlink:href="#DejaVuSans-48"/>
        <use x="159.033203" xlink:href="#DejaVuSans-56"/>
       </g>
      </g>
     </g>
     <g id="xtick_12">
      <g id="line2d_36">
       <g>
        <use style="stroke:#000000;stroke-width:0.8;" x="681.486125" xlink:href="#mffab20c805" y="647.824"/>
       </g>
      </g>
      <g id="text_27">
       <!-- 0.10 -->
       <g transform="translate(670.353313 662.422438)scale(0.1 -0.1)">
        <use xlink:href="#DejaVuSans-48"/>
        <use x="63.623047" xlink:href="#DejaVuSans-46"/>
        <use x="95.410156" xlink:href="#DejaVuSans-49"/>
        <use x="159.033203" xlink:href="#DejaVuSans-48"/>
       </g>
      </g>
     </g>
    </g>
    <g id="matplotlib.axis_4">
     <g id="ytick_9">
      <g id="line2d_37">
       <g>
        <use style="stroke:#000000;stroke-width:0.8;" x="351.879875" xlink:href="#ma792947178" y="647.824"/>
       </g>
      </g>
      <g id="text_28">
       <!-- 0.0 -->
       <g transform="translate(328.97675 651.623219)scale(0.1 -0.1)">
        <use xlink:href="#DejaVuSans-48"/>
        <use x="63.623047" xlink:href="#DejaVuSans-46"/>
        <use x="95.410156" xlink:href="#DejaVuSans-48"/>
       </g>
      </g>
     </g>
     <g id="ytick_10">
      <g id="line2d_38">
       <g>
        <use style="stroke:#000000;stroke-width:0.8;" x="351.879875" xlink:href="#ma792947178" y="586.28"/>
       </g>
      </g>
      <g id="text_29">
       <!-- 0.2 -->
       <g transform="translate(328.97675 590.079219)scale(0.1 -0.1)">
        <use xlink:href="#DejaVuSans-48"/>
        <use x="63.623047" xlink:href="#DejaVuSans-46"/>
        <use x="95.410156" xlink:href="#DejaVuSans-50"/>
       </g>
      </g>
     </g>
     <g id="ytick_11">
      <g id="line2d_39">
       <g>
        <use style="stroke:#000000;stroke-width:0.8;" x="351.879875" xlink:href="#ma792947178" y="524.736"/>
       </g>
      </g>
      <g id="text_30">
       <!-- 0.4 -->
       <g transform="translate(328.97675 528.535219)scale(0.1 -0.1)">
        <use xlink:href="#DejaVuSans-48"/>
        <use x="63.623047" xlink:href="#DejaVuSans-46"/>
        <use x="95.410156" xlink:href="#DejaVuSans-52"/>
       </g>
      </g>
     </g>
     <g id="ytick_12">
      <g id="line2d_40">
       <g>
        <use style="stroke:#000000;stroke-width:0.8;" x="351.879875" xlink:href="#ma792947178" y="463.192"/>
       </g>
      </g>
      <g id="text_31">
       <!-- 0.6 -->
       <g transform="translate(328.97675 466.991219)scale(0.1 -0.1)">
        <use xlink:href="#DejaVuSans-48"/>
        <use x="63.623047" xlink:href="#DejaVuSans-46"/>
        <use x="95.410156" xlink:href="#DejaVuSans-54"/>
       </g>
      </g>
     </g>
     <g id="ytick_13">
      <g id="line2d_41">
       <g>
        <use style="stroke:#000000;stroke-width:0.8;" x="351.879875" xlink:href="#ma792947178" y="401.648"/>
       </g>
      </g>
      <g id="text_32">
       <!-- 0.8 -->
       <g transform="translate(328.97675 405.447219)scale(0.1 -0.1)">
        <use xlink:href="#DejaVuSans-48"/>
        <use x="63.623047" xlink:href="#DejaVuSans-46"/>
        <use x="95.410156" xlink:href="#DejaVuSans-56"/>
       </g>
      </g>
     </g>
     <g id="ytick_14">
      <g id="line2d_42">
       <g>
        <use style="stroke:#000000;stroke-width:0.8;" x="351.879875" xlink:href="#ma792947178" y="340.104"/>
       </g>
      </g>
      <g id="text_33">
       <!-- 1.0 -->
       <g transform="translate(328.97675 343.903219)scale(0.1 -0.1)">
        <use xlink:href="#DejaVuSans-49"/>
        <use x="63.623047" xlink:href="#DejaVuSans-46"/>
        <use x="95.410156" xlink:href="#DejaVuSans-48"/>
       </g>
      </g>
     </g>
    </g>
    <g id="line2d_43">
     <path clip-path="url(#p05a89e8879)" d="M 351.879875 340.104 
L 354.187119 345.060902 
L 356.494363 350.566539 
L 359.131213 357.449426 
L 362.097669 365.834936 
L 365.723338 376.826434 
L 370.008219 390.579513 
L 376.600344 412.590458 
L 385.499713 442.177875 
L 390.1142 456.773155 
L 394.069475 468.61333 
L 397.695144 478.80452 
L 400.991206 487.44792 
L 404.287269 495.448667 
L 407.253725 502.068551 
L 410.220181 508.117383 
L 412.857031 513.003965 
L 415.493881 517.423923 
L 418.130731 521.376045 
L 420.437975 524.45211 
L 422.745219 527.175304 
L 425.052463 529.551008 
L 427.359706 531.586248 
L 429.66695 533.289555 
L 431.644588 534.492815 
L 433.622225 535.466428 
L 435.599863 536.217963 
L 437.5775 536.755528 
L 439.555138 537.087716 
L 441.532775 537.223536 
L 443.840019 537.146328 
L 446.147263 536.83001 
L 448.454506 536.290426 
L 451.091356 535.421124 
L 453.728206 534.30581 
L 456.694663 532.787704 
L 459.661119 531.024458 
L 462.957181 528.819939 
L 466.912456 525.89702 
L 471.526944 522.202178 
L 478.119069 516.610816 
L 490.644106 505.943397 
L 496.247413 501.506008 
L 500.8619 498.123591 
L 505.146781 495.246166 
L 509.102056 492.839839 
L 513.057331 490.689143 
L 517.012606 488.803735 
L 520.638275 487.312338 
L 524.263944 486.047435 
L 527.889613 485.00577 
L 531.515281 484.181323 
L 535.470556 483.519686 
L 539.425831 483.092691 
L 543.381106 482.884112 
L 547.665988 482.883522 
L 552.280475 483.116984 
L 557.224569 483.59996 
L 562.827875 484.387192 
L 569.090394 485.497414 
L 577.33055 487.19745 
L 602.380625 492.52267 
L 610.291175 493.891711 
L 617.542513 494.925632 
L 624.79385 495.730199 
L 632.045188 496.303282 
L 639.296525 496.655177 
L 647.207075 496.81053 
L 655.776838 496.749975 
L 665.665025 496.451642 
L 678.849275 495.813233 
L 681.815731 495.649048 
L 681.815731 495.649048 
" style="fill:none;stroke:#1f77b4;stroke-linecap:square;stroke-width:1.5;"/>
    </g>
    <g id="line2d_44">
     <path clip-path="url(#p05a89e8879)" d="M 351.879875 647.824 
L 354.187119 642.867098 
L 356.494363 637.361461 
L 359.131213 630.478574 
L 362.097669 622.093064 
L 365.723338 611.101566 
L 370.008219 597.348487 
L 376.600344 575.337542 
L 385.499713 545.750125 
L 390.1142 531.154845 
L 394.069475 519.31467 
L 397.695144 509.12348 
L 400.991206 500.48008 
L 404.287269 492.479333 
L 407.253725 485.859449 
L 410.220181 479.810617 
L 412.857031 474.924035 
L 415.493881 470.504077 
L 418.130731 466.551955 
L 420.437975 463.47589 
L 422.745219 460.752696 
L 425.052463 458.376992 
L 427.359706 456.341752 
L 429.66695 454.638445 
L 431.644588 453.435185 
L 433.622225 452.461572 
L 435.599863 451.710037 
L 437.5775 451.172472 
L 439.555138 450.840284 
L 441.532775 450.704464 
L 443.840019 450.781672 
L 446.147263 451.09799 
L 448.454506 451.637574 
L 451.091356 452.506876 
L 453.728206 453.62219 
L 456.694663 455.140296 
L 459.661119 456.903542 
L 462.957181 459.108061 
L 466.912456 462.03098 
L 471.526944 465.725822 
L 478.119069 471.317184 
L 490.644106 481.984603 
L 496.247413 486.421992 
L 500.8619 489.804409 
L 505.146781 492.681834 
L 509.102056 495.088161 
L 513.057331 497.238857 
L 517.012606 499.124265 
L 520.638275 500.615662 
L 524.263944 501.880565 
L 527.889613 502.92223 
L 531.515281 503.746677 
L 535.470556 504.408314 
L 539.425831 504.835309 
L 543.381106 505.043888 
L 547.665988 505.044478 
L 552.280475 504.811016 
L 557.224569 504.32804 
L 562.827875 503.540808 
L 569.090394 502.430586 
L 577.33055 500.73055 
L 602.380625 495.40533 
L 610.291175 494.036289 
L 617.542513 493.002368 
L 624.79385 492.197801 
L 632.045188 491.624718 
L 639.296525 491.272823 
L 647.207075 491.11747 
L 655.776838 491.178025 
L 665.665025 491.476358 
L 678.849275 492.114767 
L 681.815731 492.278952 
L 681.815731 492.278952 
" style="fill:none;stroke:#ff7f0e;stroke-linecap:square;stroke-width:1.5;"/>
    </g>
    <g id="line2d_45">
     <path clip-path="url(#p05a89e8879)" d="M 351.879875 340.104 
L 353.1983 340.225663 
L 354.516725 340.584926 
L 355.83515 341.173137 
L 357.153575 341.981581 
L 358.801606 343.28848 
L 360.449638 344.908601 
L 362.097669 346.824714 
L 364.075306 349.49051 
L 366.052944 352.52807 
L 368.360188 356.502461 
L 370.997038 361.555792 
L 373.633888 367.08934 
L 376.600344 373.806078 
L 380.226013 382.593585 
L 384.510894 393.593475 
L 390.443806 409.487246 
L 402.968844 443.185831 
L 407.912938 455.777821 
L 412.197819 466.107404 
L 416.153094 475.063366 
L 419.778763 482.724996 
L 423.074825 489.199607 
L 426.370888 495.18296 
L 429.337344 500.134155 
L 432.3038 504.666233 
L 435.270256 508.775312 
L 437.907106 512.072401 
L 440.543956 515.036991 
L 443.180806 517.673005 
L 445.817656 519.986137 
L 448.454506 521.983692 
L 451.091356 523.674438 
L 453.728206 525.068452 
L 456.03545 526.053611 
L 458.6723 526.922342 
L 461.30915 527.529264 
L 463.946 527.888143 
L 466.58285 528.013356 
L 469.2197 527.919762 
L 472.186156 527.571883 
L 475.152613 526.988363 
L 478.448675 526.090644 
L 481.744738 524.959863 
L 485.370406 523.482785 
L 489.325681 521.637578 
L 493.940169 519.240461 
L 499.873081 515.885862 
L 509.761269 509.977824 
L 519.649456 504.161105 
L 525.911975 500.728635 
L 531.515281 497.906466 
L 536.788981 495.505925 
L 541.733075 493.503638 
L 546.347563 491.863393 
L 550.96205 490.449056 
L 555.576538 489.260909 
L 560.191025 488.295034 
L 564.805513 487.543864 
L 569.749606 486.96513 
L 574.6937 486.604267 
L 579.9674 486.438124 
L 585.570706 486.481249 
L 591.833225 486.758333 
L 598.754956 487.292046 
L 606.995113 488.156348 
L 618.531331 489.609294 
L 642.262981 492.638324 
L 652.810381 493.731444 
L 662.698569 494.535248 
L 672.586756 495.110283 
L 681.815731 495.446577 
L 681.815731 495.446577 
" style="fill:none;stroke:#1f77b4;stroke-dasharray:5.55,2.4;stroke-dashoffset:0;stroke-width:1.5;"/>
    </g>
    <g id="line2d_46">
     <path clip-path="url(#p05a89e8879)" d="M 351.879875 647.824 
L 353.1983 647.702337 
L 354.516725 647.343074 
L 355.83515 646.754863 
L 357.153575 645.946419 
L 358.801606 644.63952 
L 360.449638 643.019399 
L 362.097669 641.103286 
L 364.075306 638.43749 
L 366.052944 635.39993 
L 368.360188 631.425539 
L 370.997038 626.372208 
L 373.633888 620.83866 
L 376.600344 614.121922 
L 380.226013 605.334415 
L 384.510894 594.334525 
L 390.443806 578.440754 
L 402.968844 544.742169 
L 407.912938 532.150179 
L 412.197819 521.820596 
L 416.153094 512.864634 
L 419.778763 505.203004 
L 423.074825 498.728393 
L 426.370888 492.74504 
L 429.337344 487.793845 
L 432.3038 483.261767 
L 435.270256 479.152688 
L 437.907106 475.855599 
L 440.543956 472.891009 
L 443.180806 470.254995 
L 445.817656 467.941863 
L 448.454506 465.944308 
L 451.091356 464.253562 
L 453.728206 462.859548 
L 456.03545 461.874389 
L 458.6723 461.005658 
L 461.30915 460.398736 
L 463.946 460.039857 
L 466.58285 459.914644 
L 469.2197 460.008238 
L 472.186156 460.356117 
L 475.152613 460.939637 
L 478.448675 461.837356 
L 481.744738 462.968137 
L 485.370406 464.445215 
L 489.325681 466.290422 
L 493.940169 468.687539 
L 499.873081 472.042138 
L 509.761269 477.950176 
L 519.649456 483.766895 
L 525.911975 487.199365 
L 531.515281 490.021534 
L 536.788981 492.422075 
L 541.733075 494.424362 
L 546.347563 496.064607 
L 550.96205 497.478944 
L 555.576538 498.667091 
L 560.191025 499.632966 
L 564.805513 500.384136 
L 569.749606 500.96287 
L 574.6937 501.323733 
L 579.9674 501.489876 
L 585.570706 501.446751 
L 591.833225 501.169667 
L 598.754956 500.635954 
L 606.995113 499.771652 
L 618.531331 498.318706 
L 642.262981 495.289676 
L 652.810381 494.196556 
L 662.698569 493.392752 
L 672.586756 492.817717 
L 681.815731 492.481423 
L 681.815731 492.481423 
" style="fill:none;stroke:#ff7f0e;stroke-dasharray:5.55,2.4;stroke-dashoffset:0;stroke-width:1.5;"/>
    </g>
    <g id="patch_12">
     <path d="M 351.879875 647.824 
L 351.879875 340.104 
" style="fill:none;stroke:#000000;stroke-linecap:square;stroke-linejoin:miter;stroke-width:0.8;"/>
    </g>
    <g id="patch_13">
     <path d="M 681.486125 647.824 
L 681.486125 340.104 
" style="fill:none;stroke:#000000;stroke-linecap:square;stroke-linejoin:miter;stroke-width:0.8;"/>
    </g>
    <g id="patch_14">
     <path d="M 351.879875 647.824 
L 681.486125 647.824 
" style="fill:none;stroke:#000000;stroke-linecap:square;stroke-linejoin:miter;stroke-width:0.8;"/>
    </g>
    <g id="patch_15">
     <path d="M 351.879875 340.104 
L 681.486125 340.104 
" style="fill:none;stroke:#000000;stroke-linecap:square;stroke-linejoin:miter;stroke-width:0.8;"/>
    </g>
   </g>
   <g id="legend_2">
    <g id="patch_16">
     <path d="M 539.259375 133.492 
L 662.0175 133.492 
Q 664.8175 133.492 664.8175 130.692 
L 664.8175 49.8945 
Q 664.8175 47.0945 662.0175 47.0945 
L 539.259375 47.0945 
Q 536.459375 47.0945 536.459375 49.8945 
L 536.459375 130.692 
Q 536.459375 133.492 539.259375 133.492 
z
" style="fill:#ffffff;opacity:0.8;stroke:#cccccc;stroke-linejoin:miter;"/>
    </g>
    <g id="line2d_47">
     <path d="M 542.059375 58.432312 
L 570.059375 58.432312 
" style="fill:none;stroke:#1f77b4;stroke-dasharray:5.55,2.4;stroke-dashoffset:0;stroke-width:1.5;"/>
    </g>
    <g id="line2d_48"/>
    <g id="text_34">
     <!-- P1 -->
     <g transform="translate(581.259375 63.332312)scale(0.14 -0.14)">
      <use xlink:href="#DejaVuSans-80"/>
      <use x="60.302734" xlink:href="#DejaVuSans-49"/>
     </g>
    </g>
    <g id="line2d_49">
     <path d="M 542.059375 78.981687 
L 570.059375 78.981687 
" style="fill:none;stroke:#ff7f0e;stroke-dasharray:5.55,2.4;stroke-dashoffset:0;stroke-width:1.5;"/>
    </g>
    <g id="line2d_50"/>
    <g id="text_35">
     <!-- P2 -->
     <g transform="translate(581.259375 83.881687)scale(0.14 -0.14)">
      <use xlink:href="#DejaVuSans-80"/>
      <use x="60.302734" xlink:href="#DejaVuSans-50"/>
     </g>
    </g>
    <g id="line2d_51">
     <path d="M 542.059375 99.531062 
L 570.059375 99.531062 
" style="fill:none;stroke:#d62728;stroke-dasharray:5.55,2.4;stroke-dashoffset:0;stroke-width:1.5;"/>
    </g>
    <g id="line2d_52"/>
    <g id="text_36">
     <!-- C21 (real) -->
     <g transform="translate(581.259375 104.431062)scale(0.14 -0.14)">
      <use xlink:href="#DejaVuSans-67"/>
      <use x="69.824219" xlink:href="#DejaVuSans-50"/>
      <use x="133.447266" xlink:href="#DejaVuSans-49"/>
      <use x="197.070312" xlink:href="#DejaVuSans-32"/>
      <use x="228.857422" xlink:href="#DejaVuSans-40"/>
      <use x="267.871094" xlink:href="#DejaVuSans-114"/>
      <use x="308.953125" xlink:href="#DejaVuSans-101"/>
      <use x="370.476562" xlink:href="#DejaVuSans-97"/>
      <use x="431.755859" xlink:href="#DejaVuSans-108"/>
      <use x="459.539062" xlink:href="#DejaVuSans-41"/>
     </g>
    </g>
    <g id="line2d_53">
     <path d="M 542.059375 120.080437 
L 570.059375 120.080437 
" style="fill:none;stroke:#2ca02c;stroke-dasharray:5.55,2.4;stroke-dashoffset:0;stroke-width:1.5;"/>
    </g>
    <g id="line2d_54"/>
    <g id="text_37">
     <!-- C21 (imag) -->
     <g transform="translate(581.259375 124.980437)scale(0.14 -0.14)">
      <use xlink:href="#DejaVuSans-67"/>
      <use x="69.824219" xlink:href="#DejaVuSans-50"/>
      <use x="133.447266" xlink:href="#DejaVuSans-49"/>
      <use x="197.070312" xlink:href="#DejaVuSans-32"/>
      <use x="228.857422" xlink:href="#DejaVuSans-40"/>
      <use x="267.871094" xlink:href="#DejaVuSans-105"/>
      <use x="295.654297" xlink:href="#DejaVuSans-109"/>
      <use x="393.066406" xlink:href="#DejaVuSans-97"/>
      <use x="454.345703" xlink:href="#DejaVuSans-103"/>
      <use x="517.822266" xlink:href="#DejaVuSans-41"/>
     </g>
    </g>
   </g>
  </g>
 </g>
 <defs>
  <clipPath id="p702ffe95c6">
   <rect height="659.4" width="659.2125" x="42.05" y="14.8"/>
  </clipPath>
  <clipPath id="p05a89e8879">
   <rect height="307.72" width="329.60625" x="351.879875" y="340.104"/>
  </clipPath>
 </defs>
</svg>
