<?xml version="1.0" encoding="utf-8" standalone="no"?>
<!DOCTYPE svg PUBLIC "-//W3C//DTD SVG 1.1//EN"
  "http://www.w3.org/Graphics/SVG/1.1/DTD/svg11.dtd">
<!-- Created with matplotlib (https://matplotlib.org/) -->
<svg height="720pt" version="1.1" viewBox="0 0 720 720" width="720pt" xmlns="http://www.w3.org/2000/svg" xmlns:xlink="http://www.w3.org/1999/xlink">
 <defs>
  <style type="text/css">
*{stroke-linecap:butt;stroke-linejoin:round;}
  </style>
 </defs>
 <g id="figure_1">
  <g id="patch_1">
   <path d="M 0 720 
L 720 720 
L 720 0 
L 0 0 
z
" style="fill:#ffffff;"/>
  </g>
  <g id="axes_1">
   <g id="patch_2">
    <path d="M 33.675 678.2 
L 701.2625 678.2 
L 701.2625 14.8 
L 33.675 14.8 
z
" style="fill:#ffffff;"/>
   </g>
   <g id="matplotlib.axis_1">
    <g id="xtick_1">
     <g id="line2d_1">
      <defs>
       <path d="M 0 0 
L 0 3.5 
" id="m684cb9bc75" style="stroke:#000000;stroke-width:0.8;"/>
      </defs>
      <g>
       <use style="stroke:#000000;stroke-width:0.8;" x="33.675" xlink:href="#m684cb9bc75" y="678.2"/>
      </g>
     </g>
     <g id="text_1">
      <!-- 0.0 -->
      <defs>
       <path d="M 31.78125 66.40625 
Q 24.171875 66.40625 20.328125 58.90625 
Q 16.5 51.421875 16.5 36.375 
Q 16.5 21.390625 20.328125 13.890625 
Q 24.171875 6.390625 31.78125 6.390625 
Q 39.453125 6.390625 43.28125 13.890625 
Q 47.125 21.390625 47.125 36.375 
Q 47.125 51.421875 43.28125 58.90625 
Q 39.453125 66.40625 31.78125 66.40625 
z
M 31.78125 74.21875 
Q 44.046875 74.21875 50.515625 64.515625 
Q 56.984375 54.828125 56.984375 36.375 
Q 56.984375 17.96875 50.515625 8.265625 
Q 44.046875 -1.421875 31.78125 -1.421875 
Q 19.53125 -1.421875 13.0625 8.265625 
Q 6.59375 17.96875 6.59375 36.375 
Q 6.59375 54.828125 13.0625 64.515625 
Q 19.53125 74.21875 31.78125 74.21875 
z
" id="DejaVuSans-48"/>
       <path d="M 10.6875 12.40625 
L 21 12.40625 
L 21 0 
L 10.6875 0 
z
" id="DejaVuSans-46"/>
      </defs>
      <g transform="translate(25.723437 692.798437)scale(0.1 -0.1)">
       <use xlink:href="#DejaVuSans-48"/>
       <use x="63.623047" xlink:href="#DejaVuSans-46"/>
       <use x="95.410156" xlink:href="#DejaVuSans-48"/>
      </g>
     </g>
    </g>
    <g id="xtick_2">
     <g id="line2d_2">
      <g>
       <use style="stroke:#000000;stroke-width:0.8;" x="167.1925" xlink:href="#m684cb9bc75" y="678.2"/>
      </g>
     </g>
     <g id="text_2">
      <!-- 0.2 -->
      <defs>
       <path d="M 19.1875 8.296875 
L 53.609375 8.296875 
L 53.609375 0 
L 7.328125 0 
L 7.328125 8.296875 
Q 12.9375 14.109375 22.625 23.890625 
Q 32.328125 33.6875 34.8125 36.53125 
Q 39.546875 41.84375 41.421875 45.53125 
Q 43.3125 49.21875 43.3125 52.78125 
Q 43.3125 58.59375 39.234375 62.25 
Q 35.15625 65.921875 28.609375 65.921875 
Q 23.96875 65.921875 18.8125 64.3125 
Q 13.671875 62.703125 7.8125 59.421875 
L 7.8125 69.390625 
Q 13.765625 71.78125 18.9375 73 
Q 24.125 74.21875 28.421875 74.21875 
Q 39.75 74.21875 46.484375 68.546875 
Q 53.21875 62.890625 53.21875 53.421875 
Q 53.21875 48.921875 51.53125 44.890625 
Q 49.859375 40.875 45.40625 35.40625 
Q 44.1875 33.984375 37.640625 27.21875 
Q 31.109375 20.453125 19.1875 8.296875 
z
" id="DejaVuSans-50"/>
      </defs>
      <g transform="translate(159.240938 692.798437)scale(0.1 -0.1)">
       <use xlink:href="#DejaVuSans-48"/>
       <use x="63.623047" xlink:href="#DejaVuSans-46"/>
       <use x="95.410156" xlink:href="#DejaVuSans-50"/>
      </g>
     </g>
    </g>
    <g id="xtick_3">
     <g id="line2d_3">
      <g>
       <use style="stroke:#000000;stroke-width:0.8;" x="300.71" xlink:href="#m684cb9bc75" y="678.2"/>
      </g>
     </g>
     <g id="text_3">
      <!-- 0.4 -->
      <defs>
       <path d="M 37.796875 64.3125 
L 12.890625 25.390625 
L 37.796875 25.390625 
z
M 35.203125 72.90625 
L 47.609375 72.90625 
L 47.609375 25.390625 
L 58.015625 25.390625 
L 58.015625 17.1875 
L 47.609375 17.1875 
L 47.609375 0 
L 37.796875 0 
L 37.796875 17.1875 
L 4.890625 17.1875 
L 4.890625 26.703125 
z
" id="DejaVuSans-52"/>
      </defs>
      <g transform="translate(292.758438 692.798437)scale(0.1 -0.1)">
       <use xlink:href="#DejaVuSans-48"/>
       <use x="63.623047" xlink:href="#DejaVuSans-46"/>
       <use x="95.410156" xlink:href="#DejaVuSans-52"/>
      </g>
     </g>
    </g>
    <g id="xtick_4">
     <g id="line2d_4">
      <g>
       <use style="stroke:#000000;stroke-width:0.8;" x="434.2275" xlink:href="#m684cb9bc75" y="678.2"/>
      </g>
     </g>
     <g id="text_4">
      <!-- 0.6 -->
      <defs>
       <path d="M 33.015625 40.375 
Q 26.375 40.375 22.484375 35.828125 
Q 18.609375 31.296875 18.609375 23.390625 
Q 18.609375 15.53125 22.484375 10.953125 
Q 26.375 6.390625 33.015625 6.390625 
Q 39.65625 6.390625 43.53125 10.953125 
Q 47.40625 15.53125 47.40625 23.390625 
Q 47.40625 31.296875 43.53125 35.828125 
Q 39.65625 40.375 33.015625 40.375 
z
M 52.59375 71.296875 
L 52.59375 62.3125 
Q 48.875 64.0625 45.09375 64.984375 
Q 41.3125 65.921875 37.59375 65.921875 
Q 27.828125 65.921875 22.671875 59.328125 
Q 17.53125 52.734375 16.796875 39.40625 
Q 19.671875 43.65625 24.015625 45.921875 
Q 28.375 48.1875 33.59375 48.1875 
Q 44.578125 48.1875 50.953125 41.515625 
Q 57.328125 34.859375 57.328125 23.390625 
Q 57.328125 12.15625 50.6875 5.359375 
Q 44.046875 -1.421875 33.015625 -1.421875 
Q 20.359375 -1.421875 13.671875 8.265625 
Q 6.984375 17.96875 6.984375 36.375 
Q 6.984375 53.65625 15.1875 63.9375 
Q 23.390625 74.21875 37.203125 74.21875 
Q 40.921875 74.21875 44.703125 73.484375 
Q 48.484375 72.75 52.59375 71.296875 
z
" id="DejaVuSans-54"/>
      </defs>
      <g transform="translate(426.275938 692.798437)scale(0.1 -0.1)">
       <use xlink:href="#DejaVuSans-48"/>
       <use x="63.623047" xlink:href="#DejaVuSans-46"/>
       <use x="95.410156" xlink:href="#DejaVuSans-54"/>
      </g>
     </g>
    </g>
    <g id="xtick_5">
     <g id="line2d_5">
      <g>
       <use style="stroke:#000000;stroke-width:0.8;" x="567.745" xlink:href="#m684cb9bc75" y="678.2"/>
      </g>
     </g>
     <g id="text_5">
      <!-- 0.8 -->
      <defs>
       <path d="M 31.78125 34.625 
Q 24.75 34.625 20.71875 30.859375 
Q 16.703125 27.09375 16.703125 20.515625 
Q 16.703125 13.921875 20.71875 10.15625 
Q 24.75 6.390625 31.78125 6.390625 
Q 38.8125 6.390625 42.859375 10.171875 
Q 46.921875 13.96875 46.921875 20.515625 
Q 46.921875 27.09375 42.890625 30.859375 
Q 38.875 34.625 31.78125 34.625 
z
M 21.921875 38.8125 
Q 15.578125 40.375 12.03125 44.71875 
Q 8.5 49.078125 8.5 55.328125 
Q 8.5 64.0625 14.71875 69.140625 
Q 20.953125 74.21875 31.78125 74.21875 
Q 42.671875 74.21875 48.875 69.140625 
Q 55.078125 64.0625 55.078125 55.328125 
Q 55.078125 49.078125 51.53125 44.71875 
Q 48 40.375 41.703125 38.8125 
Q 48.828125 37.15625 52.796875 32.3125 
Q 56.78125 27.484375 56.78125 20.515625 
Q 56.78125 9.90625 50.3125 4.234375 
Q 43.84375 -1.421875 31.78125 -1.421875 
Q 19.734375 -1.421875 13.25 4.234375 
Q 6.78125 9.90625 6.78125 20.515625 
Q 6.78125 27.484375 10.78125 32.3125 
Q 14.796875 37.15625 21.921875 38.8125 
z
M 18.3125 54.390625 
Q 18.3125 48.734375 21.84375 45.5625 
Q 25.390625 42.390625 31.78125 42.390625 
Q 38.140625 42.390625 41.71875 45.5625 
Q 45.3125 48.734375 45.3125 54.390625 
Q 45.3125 60.0625 41.71875 63.234375 
Q 38.140625 66.40625 31.78125 66.40625 
Q 25.390625 66.40625 21.84375 63.234375 
Q 18.3125 60.0625 18.3125 54.390625 
z
" id="DejaVuSans-56"/>
      </defs>
      <g transform="translate(559.793437 692.798437)scale(0.1 -0.1)">
       <use xlink:href="#DejaVuSans-48"/>
       <use x="63.623047" xlink:href="#DejaVuSans-46"/>
       <use x="95.410156" xlink:href="#DejaVuSans-56"/>
      </g>
     </g>
    </g>
    <g id="xtick_6">
     <g id="line2d_6">
      <g>
       <use style="stroke:#000000;stroke-width:0.8;" x="701.2625" xlink:href="#m684cb9bc75" y="678.2"/>
      </g>
     </g>
     <g id="text_6">
      <!-- 1.0 -->
      <defs>
       <path d="M 12.40625 8.296875 
L 28.515625 8.296875 
L 28.515625 63.921875 
L 10.984375 60.40625 
L 10.984375 69.390625 
L 28.421875 72.90625 
L 38.28125 72.90625 
L 38.28125 8.296875 
L 54.390625 8.296875 
L 54.390625 0 
L 12.40625 0 
z
" id="DejaVuSans-49"/>
      </defs>
      <g transform="translate(693.310938 692.798437)scale(0.1 -0.1)">
       <use xlink:href="#DejaVuSans-49"/>
       <use x="63.623047" xlink:href="#DejaVuSans-46"/>
       <use x="95.410156" xlink:href="#DejaVuSans-48"/>
      </g>
     </g>
    </g>
    <g id="text_7">
     <!-- t -->
     <defs>
      <path d="M 18.3125 70.21875 
L 18.3125 54.6875 
L 36.8125 54.6875 
L 36.8125 47.703125 
L 18.3125 47.703125 
L 18.3125 18.015625 
Q 18.3125 11.328125 20.140625 9.421875 
Q 21.96875 7.515625 27.59375 7.515625 
L 36.8125 7.515625 
L 36.8125 0 
L 27.59375 0 
Q 17.1875 0 13.234375 3.875 
Q 9.28125 7.765625 9.28125 18.015625 
L 9.28125 47.703125 
L 2.6875 47.703125 
L 2.6875 54.6875 
L 9.28125 54.6875 
L 9.28125 70.21875 
z
" id="DejaVuSans-116"/>
     </defs>
     <g transform="translate(365.508594 706.476562)scale(0.1 -0.1)">
      <use xlink:href="#DejaVuSans-116"/>
     </g>
    </g>
   </g>
   <g id="matplotlib.axis_2">
    <g id="ytick_1">
     <g id="line2d_7">
      <defs>
       <path d="M 0 0 
L -3.5 0 
" id="m2fa47c2331" style="stroke:#000000;stroke-width:0.8;"/>
      </defs>
      <g>
       <use style="stroke:#000000;stroke-width:0.8;" x="33.675" xlink:href="#m2fa47c2331" y="678.2"/>
      </g>
     </g>
     <g id="text_8">
      <!-- 0.0 -->
      <g transform="translate(10.771875 681.999219)scale(0.1 -0.1)">
       <use xlink:href="#DejaVuSans-48"/>
       <use x="63.623047" xlink:href="#DejaVuSans-46"/>
       <use x="95.410156" xlink:href="#DejaVuSans-48"/>
      </g>
     </g>
    </g>
    <g id="ytick_2">
     <g id="line2d_8">
      <g>
       <use style="stroke:#000000;stroke-width:0.8;" x="33.675" xlink:href="#m2fa47c2331" y="545.52"/>
      </g>
     </g>
     <g id="text_9">
      <!-- 0.2 -->
      <g transform="translate(10.771875 549.319219)scale(0.1 -0.1)">
       <use xlink:href="#DejaVuSans-48"/>
       <use x="63.623047" xlink:href="#DejaVuSans-46"/>
       <use x="95.410156" xlink:href="#DejaVuSans-50"/>
      </g>
     </g>
    </g>
    <g id="ytick_3">
     <g id="line2d_9">
      <g>
       <use style="stroke:#000000;stroke-width:0.8;" x="33.675" xlink:href="#m2fa47c2331" y="412.84"/>
      </g>
     </g>
     <g id="text_10">
      <!-- 0.4 -->
      <g transform="translate(10.771875 416.639219)scale(0.1 -0.1)">
       <use xlink:href="#DejaVuSans-48"/>
       <use x="63.623047" xlink:href="#DejaVuSans-46"/>
       <use x="95.410156" xlink:href="#DejaVuSans-52"/>
      </g>
     </g>
    </g>
    <g id="ytick_4">
     <g id="line2d_10">
      <g>
       <use style="stroke:#000000;stroke-width:0.8;" x="33.675" xlink:href="#m2fa47c2331" y="280.16"/>
      </g>
     </g>
     <g id="text_11">
      <!-- 0.6 -->
      <g transform="translate(10.771875 283.959219)scale(0.1 -0.1)">
       <use xlink:href="#DejaVuSans-48"/>
       <use x="63.623047" xlink:href="#DejaVuSans-46"/>
       <use x="95.410156" xlink:href="#DejaVuSans-54"/>
      </g>
     </g>
    </g>
    <g id="ytick_5">
     <g id="line2d_11">
      <g>
       <use style="stroke:#000000;stroke-width:0.8;" x="33.675" xlink:href="#m2fa47c2331" y="147.48"/>
      </g>
     </g>
     <g id="text_12">
      <!-- 0.8 -->
      <g transform="translate(10.771875 151.279219)scale(0.1 -0.1)">
       <use xlink:href="#DejaVuSans-48"/>
       <use x="63.623047" xlink:href="#DejaVuSans-46"/>
       <use x="95.410156" xlink:href="#DejaVuSans-56"/>
      </g>
     </g>
    </g>
    <g id="ytick_6">
     <g id="line2d_12">
      <g>
       <use style="stroke:#000000;stroke-width:0.8;" x="33.675" xlink:href="#m2fa47c2331" y="14.8"/>
      </g>
     </g>
     <g id="text_13">
      <!-- 1.0 -->
      <g transform="translate(10.771875 18.599219)scale(0.1 -0.1)">
       <use xlink:href="#DejaVuSans-49"/>
       <use x="63.623047" xlink:href="#DejaVuSans-46"/>
       <use x="95.410156" xlink:href="#DejaVuSans-48"/>
      </g>
     </g>
    </g>
   </g>
   <g id="line2d_13">
    <path clip-path="url(#p404e1bf27a)" d="M 33.675 14.8 
L 33.761786 14.911945 
L 33.908656 15.609106 
L 34.142311 18.018988 
L 34.469429 24.017094 
L 34.903361 36.500627 
L 35.464135 59.70092 
L 36.185129 99.657578 
L 37.166483 167.727833 
L 40.704696 425.279217 
L 41.485774 461.383894 
L 42.099954 480.617924 
L 42.580617 489.655891 
L 42.934439 492.869493 
L 43.154742 493.401409 
L 43.254881 493.273909 
L 43.415102 492.594766 
L 43.662109 490.418394 
L 44.009254 485.10709 
L 44.463214 474.388321 
L 45.050691 454.733733 
L 45.811741 421.104044 
L 46.886557 362.670109 
L 49.670397 207.095214 
L 50.524909 173.230097 
L 51.192496 154.674979 
L 51.71989 145.4564 
L 52.113767 141.825527 
L 52.380802 140.957405 
L 52.500968 140.984703 
L 52.507643 140.993784 
L 52.654513 141.393989 
L 52.888168 142.813616 
L 53.215286 146.381801 
L 53.649218 153.844705 
L 54.203316 167.565426 
L 54.917634 191.27681 
L 55.885636 231.583239 
L 59.550691 392.258167 
L 60.318417 413.197855 
L 60.925922 424.355378 
L 61.399909 429.528479 
L 61.747054 431.321492 
L 61.960682 431.589991 
L 62.087524 431.451592 
L 62.281124 430.817885 
L 62.561511 429.011978 
L 62.942036 424.938397 
L 63.442727 416.908424 
L 64.083611 402.688273 
L 64.924771 378.632838 
L 66.25327 333.304182 
L 68.142543 270.079055 
L 69.070489 246.259341 
L 69.784808 233.119699 
L 70.345581 226.432553 
L 70.772837 223.595223 
L 71.073252 222.785643 
L 71.246825 222.76276 
L 71.413721 223.045447 
L 71.654053 223.970816 
L 71.987847 226.248534 
L 72.428454 230.948859 
L 72.995904 239.627338 
L 73.723574 254.495815 
L 74.711604 279.70677 
L 78.249817 374.384695 
L 79.037571 387.88305 
L 79.665103 395.205652 
L 80.159118 398.681305 
L 80.526291 399.934609 
L 80.759946 400.144487 
L 80.926843 400.017998 
L 81.147147 399.503875 
L 81.454237 398.143637 
L 81.868142 395.174106 
L 82.402212 389.557814 
L 83.089827 379.751944 
L 84.017773 363.022786 
L 87.736236 292.18277 
L 88.463906 283.920239 
L 89.038031 279.650314 
L 89.478639 277.802468 
L 89.792405 277.256926 
L 89.999357 277.247463 
L 90.199634 277.50119 
L 90.473345 278.260103 
L 90.847194 280.045566 
L 91.327857 283.549411 
L 91.942037 289.828538 
L 92.72979 300.368703 
L 93.851337 318.697601 
L 96.601798 364.705483 
L 97.489689 375.45254 
L 98.190656 381.495371 
L 98.75143 384.608198 
L 99.185361 385.929619 
L 99.492452 386.290693 
L 99.712756 386.26029 
L 99.946411 385.968671 
L 100.260177 385.168109 
L 100.674082 383.426346 
L 101.208152 380.114107 
L 101.895767 374.317867 
L 102.830389 364.350421 
L 106.442038 323.697815 
L 107.176384 318.707894 
L 107.757185 316.129716 
L 108.204469 315.023638 
L 108.531586 314.709441 
L 108.778594 314.749177 
L 109.038953 315.046517 
L 109.379423 315.823314 
L 109.813354 317.427797 
L 110.367452 320.411383 
L 111.068419 325.509378 
L 112.003041 334.10054 
L 113.678686 352.025227 
L 115.214137 367.438212 
L 116.155436 374.793392 
L 116.896458 378.978868 
L 117.490611 381.183045 
L 117.957922 382.166586 
L 118.311743 382.47092 
L 118.59213 382.446777 
L 118.885869 382.176197 
L 119.253042 381.498087 
L 119.720353 380.121559 
L 120.321182 377.592713 
L 121.102259 373.256457 
L 122.263861 365.387999 
L 124.520307 349.994062 
L 125.401523 345.551431 
L 126.082462 343.14387 
L 126.623208 341.956664 
L 127.043788 341.50064 
L 127.377582 341.434304 
L 127.691348 341.609589 
L 128.058521 342.102168 
L 128.51248 343.125002 
L 129.07993 345.005557 
L 129.794248 348.212665 
L 130.735547 353.558606 
L 132.391164 364.518752 
L 133.986698 374.495524 
L 134.948024 379.188736 
L 135.709074 381.885648 
L 136.323254 383.322112 
L 136.823945 383.984997 
L 137.224497 384.187439 
L 137.584994 384.126391 
L 137.972195 383.814217 
L 138.432831 383.130152 
L 139.013632 381.83038 
L 139.76133 379.55814 
L 140.822794 375.538763 
L 143.433061 365.403883 
L 144.274221 363.124795 
L 144.928457 361.932227 
L 145.455851 361.385261 
L 145.889783 361.225759 
L 146.290335 361.314053 
L 146.717591 361.654831 
L 147.218282 362.367543 
L 147.825787 363.65666 
L 148.580161 365.826494 
L 149.574866 369.431545 
L 151.544249 377.650475 
L 152.952859 383.005693 
L 153.907509 385.819784 
L 154.668559 387.430058 
L 155.302767 388.298072 
L 155.843513 388.689737 
L 156.3175 388.773813 
L 156.784811 388.630104 
L 157.305529 388.223871 
L 157.933061 387.428753 
L 158.734166 386.021475 
L 159.935824 383.397158 
L 161.991993 378.918264 
L 162.886561 377.509461 
L 163.587528 376.788138 
L 164.175005 376.481273 
L 164.695723 376.44967 
L 165.209765 376.643115 
L 165.770539 377.103788 
L 166.418099 377.941604 
L 167.205852 379.352958 
L 168.220585 381.668449 
L 170.016395 386.44354 
L 171.65866 390.543791 
L 172.686745 392.544512 
L 173.52123 393.71498 
L 174.235548 394.358813 
L 174.876432 394.650743 
L 175.483937 394.687051 
L 176.111469 394.49837 
L 176.825788 394.040941 
L 177.727031 393.178646 
L 179.235779 391.36756 
L 180.797933 389.613616 
L 181.72588 388.893804 
L 182.48693 388.571707 
L 183.167869 388.518788 
L 183.828781 388.690868 
L 184.529747 389.112208 
L 185.317501 389.860561 
L 186.258799 391.082192 
L 187.527215 393.127744 
L 190.825098 398.609754 
L 191.87321 399.841957 
L 192.767777 400.56882 
L 193.582234 400.955109 
L 194.369987 401.086952 
L 195.197796 400.995996 
L 196.152446 400.656232 
L 197.507648 399.909216 
L 199.704011 398.706755 
L 200.738772 398.408924 
L 201.633339 398.378486 
L 202.494527 398.573394 
L 203.389094 399.011678 
L 204.3838 399.758724 
L 205.605485 400.974017 
L 207.821875 403.569995 
L 209.584306 405.465086 
L 210.799316 406.457625 
L 211.867456 407.051777 
L 212.882189 407.365963 
L 213.936977 407.457339 
L 215.165338 407.329721 
L 217.495218 406.79854 
L 219.050697 406.579122 
L 220.239003 406.634268 
L 221.353874 406.909409 
L 222.515476 407.431559 
L 223.850651 408.28861 
L 225.800007 409.840099 
L 228.423626 411.880834 
L 229.87229 412.718558 
L 231.180762 413.222087 
L 232.509261 413.492965 
L 234.06474 413.572331 
L 238.764556 413.652791 
L 240.219897 414.009295 
L 241.73532 414.616625 
L 243.617917 415.628823 
L 247.997291 418.0674 
L 249.679612 418.689332 
L 251.368608 419.074503 
L 253.491536 419.313156 
L 257.376895 419.722895 
L 259.272844 420.186077 
L 261.30231 420.921158 
L 268.605717 423.806689 
L 270.822108 424.262768 
L 278.592826 425.630171 
L 281.530211 426.583451 
L 286.250055 428.117785 
L 288.96046 428.730746 
L 293.299779 429.430667 
L 296.804613 430.113232 
L 300.469669 431.078691 
L 305.670175 432.431321 
L 309.301851 433.1092 
L 316.672017 434.425032 
L 327.794025 436.73 
L 337.433988 438.380794 
L 345.224735 439.79374 
L 369.791955 443.511259 
L 395.173631 446.878074 
L 406.729571 448.226961 
L 429.160511 450.59264 
L 447.452408 452.290448 
L 467.626903 453.949602 
L 488.736019 455.474013 
L 511.333856 456.89577 
L 536.288277 458.246581 
L 564.00651 459.518691 
L 593.714154 460.656912 
L 626.766411 461.696764 
L 663.483723 462.62456 
L 701.2625 463.379803 
L 701.2625 463.379803 
" style="fill:none;stroke:#1f77b4;stroke-dasharray:5.55,2.4;stroke-dashoffset:0;stroke-width:1.5;"/>
   </g>
   <g id="line2d_14">
    <path clip-path="url(#p404e1bf27a)" d="M 33.675 678.2 
L 33.761786 678.088055 
L 33.908656 677.390894 
L 34.142311 674.981012 
L 34.469429 668.982906 
L 34.903361 656.499373 
L 35.464135 633.29908 
L 36.185129 593.342422 
L 37.166483 525.272167 
L 40.704696 267.720783 
L 41.485774 231.616106 
L 42.099954 212.382076 
L 42.580617 203.344109 
L 42.934439 200.130507 
L 43.154742 199.598591 
L 43.254881 199.726091 
L 43.415102 200.405234 
L 43.662109 202.581606 
L 44.009254 207.89291 
L 44.463214 218.611679 
L 45.050691 238.266267 
L 45.811741 271.895956 
L 46.886557 330.329891 
L 49.670397 485.904786 
L 50.524909 519.769903 
L 51.192496 538.325021 
L 51.71989 547.5436 
L 52.113767 551.174473 
L 52.380802 552.042595 
L 52.500968 552.015297 
L 52.507643 552.006216 
L 52.654513 551.606011 
L 52.888168 550.186384 
L 53.215286 546.618199 
L 53.649218 539.155295 
L 54.203316 525.434574 
L 54.917634 501.72319 
L 55.885636 461.416761 
L 59.550691 300.741833 
L 60.318417 279.802145 
L 60.925922 268.644622 
L 61.399909 263.471521 
L 61.747054 261.678508 
L 61.960682 261.410009 
L 62.087524 261.548408 
L 62.281124 262.182115 
L 62.561511 263.988022 
L 62.942036 268.061603 
L 63.442727 276.091576 
L 64.083611 290.311727 
L 64.924771 314.367162 
L 66.25327 359.695818 
L 68.142543 422.920945 
L 69.070489 446.740659 
L 69.784808 459.880301 
L 70.345581 466.567447 
L 70.772837 469.404777 
L 71.073252 470.214357 
L 71.246825 470.23724 
L 71.413721 469.954553 
L 71.654053 469.029184 
L 71.987847 466.751466 
L 72.428454 462.051141 
L 72.995904 453.372662 
L 73.723574 438.504185 
L 74.711604 413.29323 
L 78.249817 318.615305 
L 79.037571 305.11695 
L 79.665103 297.794348 
L 80.159118 294.318695 
L 80.526291 293.065391 
L 80.759946 292.855513 
L 80.926843 292.982002 
L 81.147147 293.496125 
L 81.454237 294.856363 
L 81.868142 297.825894 
L 82.402212 303.442186 
L 83.089827 313.248056 
L 84.017773 329.977214 
L 87.736236 400.81723 
L 88.463906 409.079761 
L 89.038031 413.349686 
L 89.478639 415.197532 
L 89.792405 415.743074 
L 89.999357 415.752537 
L 90.199634 415.49881 
L 90.473345 414.739897 
L 90.847194 412.954434 
L 91.327857 409.450589 
L 91.942037 403.171462 
L 92.72979 392.631297 
L 93.851337 374.302399 
L 96.601798 328.294517 
L 97.489689 317.54746 
L 98.190656 311.504629 
L 98.75143 308.391802 
L 99.185361 307.070381 
L 99.492452 306.709307 
L 99.712756 306.73971 
L 99.946411 307.031329 
L 100.260177 307.831891 
L 100.674082 309.573654 
L 101.208152 312.885893 
L 101.895767 318.682133 
L 102.830389 328.649579 
L 106.442038 369.302185 
L 107.176384 374.292106 
L 107.757185 376.870284 
L 108.204469 377.976362 
L 108.531586 378.290559 
L 108.778594 378.250823 
L 109.038953 377.953483 
L 109.379423 377.176686 
L 109.813354 375.572203 
L 110.367452 372.588617 
L 111.068419 367.490622 
L 112.003041 358.89946 
L 113.678686 340.974773 
L 115.214137 325.561788 
L 116.155436 318.206608 
L 116.896458 314.021132 
L 117.490611 311.816955 
L 117.957922 310.833414 
L 118.311743 310.52908 
L 118.59213 310.553223 
L 118.885869 310.823803 
L 119.253042 311.501913 
L 119.720353 312.878441 
L 120.321182 315.407287 
L 121.102259 319.743543 
L 122.263861 327.612001 
L 124.520307 343.005938 
L 125.401523 347.448569 
L 126.082462 349.85613 
L 126.623208 351.043336 
L 127.043788 351.49936 
L 127.377582 351.565696 
L 127.691348 351.390411 
L 128.058521 350.897832 
L 128.51248 349.874998 
L 129.07993 347.994443 
L 129.794248 344.787335 
L 130.735547 339.441394 
L 132.391164 328.481248 
L 133.986698 318.504476 
L 134.948024 313.811264 
L 135.709074 311.114352 
L 136.323254 309.677888 
L 136.823945 309.015003 
L 137.224497 308.812561 
L 137.584994 308.873609 
L 137.972195 309.185783 
L 138.432831 309.869848 
L 139.013632 311.16962 
L 139.76133 313.44186 
L 140.822794 317.461237 
L 143.433061 327.596117 
L 144.274221 329.875205 
L 144.928457 331.067773 
L 145.455851 331.614739 
L 145.889783 331.774241 
L 146.290335 331.685947 
L 146.717591 331.345169 
L 147.218282 330.632457 
L 147.825787 329.34334 
L 148.580161 327.173506 
L 149.574866 323.568455 
L 151.544249 315.349525 
L 152.952859 309.994307 
L 153.907509 307.180216 
L 154.668559 305.569942 
L 155.302767 304.701928 
L 155.843513 304.310263 
L 156.3175 304.226187 
L 156.784811 304.369896 
L 157.305529 304.776129 
L 157.933061 305.571247 
L 158.734166 306.978525 
L 159.935824 309.602842 
L 161.991993 314.081736 
L 162.886561 315.490539 
L 163.587528 316.211862 
L 164.175005 316.518727 
L 164.695723 316.55033 
L 165.209765 316.356885 
L 165.770539 315.896212 
L 166.418099 315.058396 
L 167.205852 313.647042 
L 168.220585 311.331551 
L 170.016395 306.55646 
L 171.65866 302.456209 
L 172.686745 300.455488 
L 173.52123 299.28502 
L 174.235548 298.641187 
L 174.876432 298.349257 
L 175.483937 298.312949 
L 176.111469 298.50163 
L 176.825788 298.959059 
L 177.727031 299.821354 
L 179.235779 301.63244 
L 180.797933 303.386384 
L 181.72588 304.106196 
L 182.48693 304.428293 
L 183.167869 304.481212 
L 183.828781 304.309132 
L 184.529747 303.887792 
L 185.317501 303.139439 
L 186.258799 301.917808 
L 187.527215 299.872256 
L 190.825098 294.390246 
L 191.87321 293.158043 
L 192.767777 292.43118 
L 193.582234 292.044891 
L 194.369987 291.913048 
L 195.197796 292.004004 
L 196.152446 292.343768 
L 197.507648 293.090784 
L 199.704011 294.293245 
L 200.738772 294.591076 
L 201.633339 294.621514 
L 202.494527 294.426606 
L 203.389094 293.988322 
L 204.3838 293.241276 
L 205.605485 292.025983 
L 207.821875 289.430005 
L 209.584306 287.534914 
L 210.799316 286.542375 
L 211.867456 285.948223 
L 212.882189 285.634037 
L 213.936977 285.542661 
L 215.165338 285.670279 
L 217.495218 286.20146 
L 219.050697 286.420878 
L 220.239003 286.365732 
L 221.353874 286.090591 
L 222.515476 285.568441 
L 223.850651 284.71139 
L 225.800007 283.159901 
L 228.423626 281.119166 
L 229.87229 280.281442 
L 231.180762 279.777913 
L 232.509261 279.507035 
L 234.06474 279.427669 
L 238.764556 279.347209 
L 240.219897 278.990705 
L 241.73532 278.383375 
L 243.617917 277.371177 
L 247.997291 274.9326 
L 249.679612 274.310668 
L 251.368608 273.925497 
L 253.491536 273.686844 
L 257.376895 273.277105 
L 259.272844 272.813923 
L 261.30231 272.078842 
L 268.605717 269.193311 
L 270.822108 268.737232 
L 278.592826 267.369829 
L 281.530211 266.416549 
L 286.250055 264.882215 
L 288.96046 264.269254 
L 293.299779 263.569333 
L 296.804613 262.886768 
L 300.469669 261.921309 
L 305.670175 260.568679 
L 309.301851 259.8908 
L 316.672017 258.574968 
L 327.794025 256.27 
L 337.433988 254.619206 
L 345.224735 253.20626 
L 369.791955 249.488741 
L 395.173631 246.121926 
L 406.729571 244.773039 
L 429.160511 242.40736 
L 447.452408 240.709552 
L 467.626903 239.050398 
L 488.736019 237.525987 
L 511.333856 236.10423 
L 536.288277 234.753419 
L 564.00651 233.481309 
L 593.714154 232.343088 
L 626.766411 231.303236 
L 663.483723 230.37544 
L 701.2625 229.620197 
L 701.2625 229.620197 
" style="fill:none;stroke:#1f77b4;stroke-linecap:square;stroke-width:1.5;"/>
   </g>
   <g id="line2d_15">
    <path clip-path="url(#p404e1bf27a)" d="M 33.675 14.8 
L 33.761786 14.911699 
L 33.908656 15.604321 
L 34.142311 17.981094 
L 34.476105 23.982938 
L 34.923389 36.50416 
L 35.510866 59.854234 
L 36.291943 100.682514 
L 37.466897 175.342228 
L 39.790101 323.994232 
L 40.738076 369.957401 
L 41.49245 396.709599 
L 42.10663 411.427319 
L 42.600645 418.583593 
L 42.974494 421.274302 
L 43.214825 421.802735 
L 43.334991 421.724593 
L 43.501888 421.247013 
L 43.755571 419.723854 
L 44.109393 416.072752 
L 44.58338 408.623978 
L 45.204236 395.038683 
L 46.052072 371.122721 
L 47.56082 320.94616 
L 49.122975 271.717449 
L 50.057597 248.843376 
L 50.798619 235.702921 
L 51.392772 228.706329 
L 51.860084 225.474214 
L 52.207229 224.354885 
L 52.427533 224.198287 
L 52.59443 224.358924 
L 52.82141 224.953751 
L 53.141852 226.505171 
L 53.569108 229.792152 
L 54.129881 236.008501 
L 54.864227 246.864357 
L 55.905664 265.919672 
L 58.949863 323.540806 
L 59.84443 335.544493 
L 60.5721 342.583361 
L 61.172929 346.437229 
L 61.653592 348.246534 
L 62.014089 348.882745 
L 62.274449 348.973385 
L 62.508104 348.802341 
L 62.801843 348.26459 
L 63.195719 347.016518 
L 63.716438 344.536529 
L 64.404053 340.06342 
L 65.392082 331.992107 
L 68.229329 307.995695 
L 69.063813 303.122427 
L 69.731401 300.422841 
L 70.265471 299.091906 
L 70.679375 298.575969 
L 71.006493 298.483337 
L 71.306907 298.637501 
L 71.660729 299.102555 
L 72.101337 300.087526 
L 72.66211 301.935723 
L 73.383105 305.148172 
L 74.364458 310.641107 
L 78.3099 333.927946 
L 79.171088 337.195811 
L 79.892083 339.132154 
L 80.506263 340.19951 
L 81.026981 340.700233 
L 81.487617 340.853885 
L 81.928225 340.768137 
L 82.422239 340.431023 
L 83.029744 339.721467 
L 83.837525 338.400155 
L 85.319569 335.448851 
L 86.694799 332.91903 
L 87.555987 331.770556 
L 88.250278 331.190028 
L 88.844431 330.968272 
L 89.391853 330.997429 
L 89.952626 331.25821 
L 90.573483 331.807861 
L 91.301153 332.769973 
L 92.202396 334.359663 
L 93.444109 337.048093 
L 96.855481 344.660302 
L 97.963676 346.481909 
L 98.925002 347.657734 
L 99.812894 348.407885 
L 100.680757 348.856444 
L 101.588676 349.07504 
L 102.670168 349.095755 
L 106.749128 348.941753 
L 107.803916 349.272172 
L 108.878732 349.847607 
L 110.067038 350.746192 
L 111.555758 352.171773 
L 116.889782 357.54732 
L 118.405206 358.601819 
L 119.96736 359.415308 
L 121.916716 360.163016 
L 126.309442 361.77313 
L 128.412342 362.850233 
L 131.122747 364.514942 
L 135.528825 367.217322 
L 138.085685 368.494182 
L 141.256726 369.807849 
L 147.739 372.454045 
L 156.544479 376.229253 
L 161.6582 378.052776 
L 175.617454 382.73361 
L 183.047703 384.883116 
L 192.74775 387.475825 
L 201.099269 389.460842 
L 211.012944 391.590552 
L 220.699638 393.438399 
L 231.367686 395.247568 
L 242.529749 396.910099 
L 254.47289 398.46376 
L 267.343977 399.910358 
L 281.196417 401.240626 
L 296.257191 402.460727 
L 312.759954 403.571095 
L 330.998445 404.571478 
L 351.379891 405.462348 
L 374.471743 406.244178 
L 401.101808 406.917555 
L 432.531828 407.482997 
L 470.831323 407.941182 
L 519.752135 408.293158 
L 587.158445 408.540597 
L 694.2061 408.686842 
L 701.2625 408.691453 
L 701.2625 408.691453 
" style="fill:none;stroke:#ff7f0e;stroke-dasharray:5.55,2.4;stroke-dashoffset:0;stroke-width:1.5;"/>
   </g>
   <g id="line2d_16">
    <path clip-path="url(#p404e1bf27a)" d="M 33.675 678.2 
L 33.761786 678.088301 
L 33.908656 677.395679 
L 34.142311 675.018906 
L 34.476105 669.017062 
L 34.923389 656.49584 
L 35.510866 633.145766 
L 36.291943 592.317486 
L 37.466897 517.657772 
L 39.790101 369.005768 
L 40.738076 323.042599 
L 41.49245 296.290401 
L 42.10663 281.572681 
L 42.600645 274.416407 
L 42.974494 271.725698 
L 43.214825 271.197265 
L 43.334991 271.275407 
L 43.501888 271.752987 
L 43.755571 273.276146 
L 44.109393 276.927248 
L 44.58338 284.376022 
L 45.204236 297.961317 
L 46.052072 321.877279 
L 47.56082 372.05384 
L 49.122975 421.282551 
L 50.057597 444.156624 
L 50.798619 457.297079 
L 51.392772 464.293671 
L 51.860084 467.525786 
L 52.207229 468.645115 
L 52.427533 468.801713 
L 52.59443 468.641076 
L 52.82141 468.046249 
L 53.141852 466.494829 
L 53.569108 463.207848 
L 54.129881 456.991499 
L 54.864227 446.135643 
L 55.905664 427.080328 
L 58.949863 369.459194 
L 59.84443 357.455507 
L 60.5721 350.416639 
L 61.172929 346.562771 
L 61.653592 344.753466 
L 62.014089 344.117255 
L 62.274449 344.026615 
L 62.508104 344.197659 
L 62.801843 344.73541 
L 63.195719 345.983482 
L 63.716438 348.463471 
L 64.404053 352.93658 
L 65.392082 361.007893 
L 68.229329 385.004305 
L 69.063813 389.877573 
L 69.731401 392.577159 
L 70.265471 393.908094 
L 70.679375 394.424031 
L 71.006493 394.516663 
L 71.306907 394.362499 
L 71.660729 393.897445 
L 72.101337 392.912474 
L 72.66211 391.064277 
L 73.383105 387.851828 
L 74.364458 382.358893 
L 78.3099 359.072054 
L 79.171088 355.804189 
L 79.892083 353.867846 
L 80.506263 352.80049 
L 81.026981 352.299767 
L 81.487617 352.146115 
L 81.928225 352.231863 
L 82.422239 352.568977 
L 83.029744 353.278533 
L 83.837525 354.599845 
L 85.319569 357.551149 
L 86.694799 360.08097 
L 87.555987 361.229444 
L 88.250278 361.809972 
L 88.844431 362.031728 
L 89.391853 362.002571 
L 89.952626 361.74179 
L 90.573483 361.192139 
L 91.301153 360.230027 
L 92.202396 358.640337 
L 93.444109 355.951907 
L 96.855481 348.339698 
L 97.963676 346.518091 
L 98.925002 345.342266 
L 99.812894 344.592115 
L 100.680757 344.143556 
L 101.588676 343.92496 
L 102.670168 343.904245 
L 106.749128 344.058247 
L 107.803916 343.727828 
L 108.878732 343.152393 
L 110.067038 342.253808 
L 111.555758 340.828227 
L 116.889782 335.45268 
L 118.405206 334.398181 
L 119.96736 333.584692 
L 121.916716 332.836984 
L 126.309442 331.22687 
L 128.412342 330.149767 
L 131.122747 328.485058 
L 135.528825 325.782678 
L 138.085685 324.505818 
L 141.256726 323.192151 
L 147.739 320.545955 
L 156.544479 316.770747 
L 161.6582 314.947224 
L 175.617454 310.26639 
L 183.047703 308.116884 
L 192.74775 305.524175 
L 201.099269 303.539158 
L 211.012944 301.409448 
L 220.699638 299.561601 
L 231.367686 297.752432 
L 242.529749 296.089901 
L 254.47289 294.53624 
L 267.343977 293.089642 
L 281.196417 291.759374 
L 296.257191 290.539273 
L 312.759954 289.428905 
L 330.998445 288.428522 
L 351.379891 287.537652 
L 374.471743 286.755822 
L 401.101808 286.082445 
L 432.531828 285.517003 
L 470.831323 285.058818 
L 519.752135 284.706842 
L 587.158445 284.459403 
L 694.2061 284.313158 
L 701.2625 284.308547 
L 701.2625 284.308547 
" style="fill:none;stroke:#ff7f0e;stroke-linecap:square;stroke-width:1.5;"/>
   </g>
   <g id="line2d_17">
    <path clip-path="url(#p404e1bf27a)" d="M 33.675 14.8 
L 33.761786 14.911451 
L 33.908656 15.599536 
L 34.142311 17.943471 
L 34.482781 23.944026 
L 34.943416 36.474567 
L 35.557597 59.851815 
L 36.412109 101.742204 
L 38.101105 198.383989 
L 39.543094 274.696232 
L 40.50442 314.592311 
L 41.292173 338.776012 
L 41.953085 352.80671 
L 42.500507 360.173424 
L 42.934439 363.410577 
L 43.248205 364.406495 
L 43.441805 364.490731 
L 43.602026 364.269312 
L 43.835682 363.496561 
L 44.169475 361.528153 
L 44.630111 357.318361 
L 45.250967 349.373021 
L 46.138859 334.814801 
L 49.423389 278.149718 
L 50.237846 268.99114 
L 50.905433 263.781595 
L 51.446179 261.120241 
L 51.873435 259.984408 
L 52.187201 259.672892 
L 52.420857 259.716101 
L 52.681216 260.028614 
L 53.021686 260.834658 
L 53.475645 262.552632 
L 54.069798 265.768254 
L 54.864227 271.416243 
L 56.085912 281.922803 
L 58.449172 302.32857 
L 59.497285 309.369298 
L 60.358472 313.757161 
L 61.10617 316.494897 
L 61.75373 318.089379 
L 62.314504 318.933664 
L 62.808519 319.308107 
L 63.262478 319.384843 
L 63.736465 319.231698 
L 64.303915 318.794474 
L 65.064964 317.898497 
L 68.322791 313.705517 
L 69.017082 313.321882 
L 69.631263 313.225209 
L 70.225416 313.356412 
L 70.852948 313.731197 
L 71.560591 314.426783 
L 72.408427 315.594251 
L 73.489919 317.494059 
L 75.21897 321.053518 
L 77.628961 325.917709 
L 79.024219 328.229161 
L 80.272608 329.882112 
L 81.500969 331.147696 
L 82.829468 332.196408 
L 84.578547 333.272658 
L 88.223575 335.459691 
L 90.17293 336.950329 
L 92.622976 339.130534 
L 97.689965 343.694941 
L 100.246826 345.641262 
L 103.277673 347.652612 
L 111.141854 352.476566 
L 116.509257 355.605658 
L 120.928686 357.912725 
L 126.342821 360.473551 
L 132.504654 363.147436 
L 138.245906 365.398526 
L 144.347656 367.546992 
L 150.94342 369.63275 
L 157.746137 371.549999 
L 164.969434 373.35192 
L 172.660042 375.039523 
L 180.837989 376.604141 
L 189.62344 378.056098 
L 199.096507 379.393501 
L 209.38403 380.61823 
L 220.646231 381.731571 
L 233.083386 382.73382 
L 246.982558 383.62642 
L 262.724271 384.409535 
L 280.8693 385.083836 
L 302.278831 385.650103 
L 328.361474 386.109097 
L 361.660739 386.461825 
L 407.510648 386.710001 
L 480.217603 386.856945 
L 644.657756 386.912039 
L 701.2625 386.914171 
L 701.2625 386.914171 
" style="fill:none;stroke:#2ca02c;stroke-dasharray:5.55,2.4;stroke-dashoffset:0;stroke-width:1.5;"/>
   </g>
   <g id="line2d_18">
    <path clip-path="url(#p404e1bf27a)" d="M 33.675 678.2 
L 33.761786 678.088549 
L 33.908656 677.400464 
L 34.142311 675.056529 
L 34.482781 669.055974 
L 34.943416 656.525433 
L 35.557597 633.148185 
L 36.412109 591.257796 
L 38.101105 494.616011 
L 39.543094 418.303768 
L 40.50442 378.407689 
L 41.292173 354.223988 
L 41.953085 340.19329 
L 42.500507 332.826576 
L 42.934439 329.589423 
L 43.248205 328.593505 
L 43.441805 328.509269 
L 43.602026 328.730688 
L 43.835682 329.503439 
L 44.169475 331.471847 
L 44.630111 335.681639 
L 45.250967 343.626979 
L 46.138859 358.185199 
L 49.423389 414.850282 
L 50.237846 424.00886 
L 50.905433 429.218405 
L 51.446179 431.879759 
L 51.873435 433.015592 
L 52.187201 433.327108 
L 52.420857 433.283899 
L 52.681216 432.971386 
L 53.021686 432.165342 
L 53.475645 430.447368 
L 54.069798 427.231746 
L 54.864227 421.583757 
L 56.085912 411.077197 
L 58.449172 390.67143 
L 59.497285 383.630702 
L 60.358472 379.242839 
L 61.10617 376.505103 
L 61.75373 374.910621 
L 62.314504 374.066336 
L 62.808519 373.691893 
L 63.262478 373.615157 
L 63.736465 373.768302 
L 64.303915 374.205526 
L 65.064964 375.101503 
L 68.322791 379.294483 
L 69.017082 379.678118 
L 69.631263 379.774791 
L 70.225416 379.643588 
L 70.852948 379.268803 
L 71.560591 378.573217 
L 72.408427 377.405749 
L 73.489919 375.505941 
L 75.21897 371.946482 
L 77.628961 367.082291 
L 79.024219 364.770839 
L 80.272608 363.117888 
L 81.500969 361.852304 
L 82.829468 360.803592 
L 84.578547 359.727342 
L 88.223575 357.540309 
L 90.17293 356.049671 
L 92.622976 353.869466 
L 97.689965 349.305059 
L 100.246826 347.358738 
L 103.277673 345.347388 
L 111.141854 340.523434 
L 116.509257 337.394342 
L 120.928686 335.087275 
L 126.342821 332.526449 
L 132.504654 329.852564 
L 138.245906 327.601474 
L 144.347656 325.453008 
L 150.94342 323.36725 
L 157.746137 321.450001 
L 164.969434 319.64808 
L 172.660042 317.960477 
L 180.837989 316.395859 
L 189.62344 314.943902 
L 199.096507 313.606499 
L 209.38403 312.38177 
L 220.646231 311.268429 
L 233.083386 310.26618 
L 246.982558 309.37358 
L 262.724271 308.590465 
L 280.8693 307.916164 
L 302.278831 307.349897 
L 328.361474 306.890903 
L 361.660739 306.538175 
L 407.510648 306.289999 
L 480.217603 306.143055 
L 644.657756 306.087961 
L 701.2625 306.085829 
L 701.2625 306.085829 
" style="fill:none;stroke:#2ca02c;stroke-linecap:square;stroke-width:1.5;"/>
   </g>
   <g id="line2d_19">
    <path clip-path="url(#p404e1bf27a)" d="M 33.675 14.8 
L 33.761786 14.911203 
L 33.908656 15.594779 
L 34.148987 17.99356 
L 34.496133 24.044758 
L 34.97012 36.624589 
L 35.624356 60.53531 
L 36.599033 105.359312 
L 39.462984 241.536996 
L 40.410958 274.21794 
L 41.205387 294.500127 
L 41.886326 306.702427 
L 42.473803 313.606039 
L 42.961142 317.008425 
L 43.341667 318.345396 
L 43.615378 318.660752 
L 43.802302 318.591257 
L 44.029282 318.219837 
L 44.349724 317.207682 
L 44.797008 314.968371 
L 45.42454 310.553065 
L 46.392542 301.940135 
L 48.642312 281.572678 
L 49.523527 275.756877 
L 50.23117 272.437225 
L 50.818647 270.644152 
L 51.292634 269.825677 
L 51.673159 269.557783 
L 51.993601 269.58688 
L 52.334071 269.857442 
L 52.754651 270.50633 
L 53.295397 271.795002 
L 53.996364 274.096223 
L 54.964365 278.114258 
L 57.033887 287.957375 
L 58.616069 294.870224 
L 59.791023 299.056134 
L 60.839135 302.005875 
L 61.820489 304.134195 
L 62.795167 305.733098 
L 63.816576 306.987906 
L 65.038261 308.125713 
L 69.544476 312.007248 
L 71.17339 313.920886 
L 73.302994 316.799007 
L 78.42339 323.832725 
L 80.793326 326.623611 
L 83.42362 329.367042 
L 87.055296 332.806348 
L 92.282507 337.44558 
L 96.461604 340.874814 
L 100.333612 343.76389 
L 104.445951 346.551462 
L 108.905435 349.30453 
L 113.518465 351.892162 
L 118.224957 354.27713 
L 123.131725 356.513032 
L 128.298852 358.62182 
L 133.726339 360.595237 
L 139.440888 362.434666 
L 145.495906 364.148236 
L 151.944802 365.740169 
L 158.847656 367.212788 
L 166.284581 368.569204 
L 174.349038 369.810902 
L 183.161193 370.93928 
L 192.881267 371.955866 
L 203.716212 372.86128 
L 215.966443 373.657025 
L 230.059215 374.343928 
L 246.635413 374.922476 
L 266.743148 375.393517 
L 292.251666 375.758097 
L 326.999596 376.017846 
L 380.927314 376.175845 
L 495.345136 376.24021 
L 701.2625 376.245883 
L 701.2625 376.245883 
" style="fill:none;stroke:#d62728;stroke-dasharray:5.55,2.4;stroke-dashoffset:0;stroke-width:1.5;"/>
   </g>
   <g id="line2d_20">
    <path clip-path="url(#p404e1bf27a)" d="M 33.675 678.2 
L 33.761786 678.088797 
L 33.908656 677.405221 
L 34.148987 675.00644 
L 34.496133 668.955242 
L 34.97012 656.375411 
L 35.624356 632.46469 
L 36.599033 587.640688 
L 39.462984 451.463004 
L 40.410958 418.78206 
L 41.205387 398.499873 
L 41.886326 386.297573 
L 42.473803 379.393961 
L 42.961142 375.991575 
L 43.341667 374.654604 
L 43.615378 374.339248 
L 43.802302 374.408743 
L 44.029282 374.780163 
L 44.349724 375.792318 
L 44.797008 378.031629 
L 45.42454 382.446935 
L 46.392542 391.059865 
L 48.642312 411.427322 
L 49.523527 417.243123 
L 50.23117 420.562775 
L 50.818647 422.355848 
L 51.292634 423.174323 
L 51.673159 423.442217 
L 51.993601 423.41312 
L 52.334071 423.142558 
L 52.754651 422.49367 
L 53.295397 421.204998 
L 53.996364 418.903777 
L 54.964365 414.885742 
L 57.033887 405.042625 
L 58.616069 398.129776 
L 59.791023 393.943866 
L 60.839135 390.994125 
L 61.820489 388.865805 
L 62.795167 387.266902 
L 63.816576 386.012094 
L 65.038261 384.874287 
L 69.544476 380.992752 
L 71.17339 379.079114 
L 73.302994 376.200993 
L 78.42339 369.167275 
L 80.793326 366.376389 
L 83.42362 363.632958 
L 87.055296 360.193652 
L 92.282507 355.55442 
L 96.461604 352.125186 
L 100.333612 349.23611 
L 104.445951 346.448538 
L 108.905435 343.69547 
L 113.518465 341.107838 
L 118.224957 338.72287 
L 123.131725 336.486968 
L 128.298852 334.37818 
L 133.726339 332.404763 
L 139.440888 330.565334 
L 145.495906 328.851764 
L 151.944802 327.259831 
L 158.847656 325.787212 
L 166.284581 324.430796 
L 174.349038 323.189098 
L 183.161193 322.06072 
L 192.881267 321.044134 
L 203.716212 320.13872 
L 215.966443 319.342975 
L 230.059215 318.656072 
L 246.635413 318.077524 
L 266.743148 317.606483 
L 292.251666 317.241903 
L 326.999596 316.982154 
L 380.927314 316.824155 
L 495.345136 316.75979 
L 701.2625 316.754117 
L 701.2625 316.754117 
" style="fill:none;stroke:#d62728;stroke-linecap:square;stroke-width:1.5;"/>
   </g>
   <g id="patch_3">
    <path d="M 33.675 678.2 
L 33.675 14.8 
" style="fill:none;stroke:#000000;stroke-linecap:square;stroke-linejoin:miter;stroke-width:0.8;"/>
   </g>
   <g id="patch_4">
    <path d="M 701.2625 678.2 
L 701.2625 14.8 
" style="fill:none;stroke:#000000;stroke-linecap:square;stroke-linejoin:miter;stroke-width:0.8;"/>
   </g>
   <g id="patch_5">
    <path d="M 33.675 678.2 
L 701.2625 678.2 
" style="fill:none;stroke:#000000;stroke-linecap:square;stroke-linejoin:miter;stroke-width:0.8;"/>
   </g>
   <g id="patch_6">
    <path d="M 33.675 14.8 
L 701.2625 14.8 
" style="fill:none;stroke:#000000;stroke-linecap:square;stroke-linejoin:miter;stroke-width:0.8;"/>
   </g>
   <g id="patch_7">
    <path clip-path="url(#p404e1bf27a)" d="M 33.675 678.2 
L 100.43375 678.2 
L 100.43375 180.65 
L 33.675 180.65 
z
" style="fill:none;opacity:0.5;stroke:#808080;stroke-linejoin:miter;"/>
   </g>
   <g id="patch_8">
    <path d="M 167.1925 28.068 
Q 100.43375 104.359 33.675 180.65 
" style="fill:none;opacity:0.5;stroke:#808080;stroke-linecap:round;"/>
   </g>
   <g id="patch_9">
    <path d="M 400.848125 213.82 
Q 250.640938 446.01 100.43375 678.2 
" style="fill:none;opacity:0.5;stroke:#808080;stroke-linecap:round;"/>
   </g>
   <g id="legend_1">
    <g id="patch_10">
     <path d="M 524.0225 671.2 
L 691.4625 671.2 
Q 694.2625 671.2 694.2625 668.4 
L 694.2625 587.6025 
Q 694.2625 584.8025 691.4625 584.8025 
L 524.0225 584.8025 
Q 521.2225 584.8025 521.2225 587.6025 
L 521.2225 668.4 
Q 521.2225 671.2 524.0225 671.2 
z
" style="fill:#ffffff;opacity:0.8;stroke:#cccccc;stroke-linejoin:miter;"/>
    </g>
    <g id="line2d_21">
     <path d="M 526.8225 596.140313 
L 554.8225 596.140313 
" style="fill:none;stroke:#1f77b4;stroke-dasharray:5.55,2.4;stroke-dashoffset:0;stroke-width:1.5;"/>
    </g>
    <g id="line2d_22"/>
    <g id="text_14">
     <!-- P1 $(k_BT/\,\hbar)=100$) -->
     <defs>
      <path d="M 19.671875 64.796875 
L 19.671875 37.40625 
L 32.078125 37.40625 
Q 38.96875 37.40625 42.71875 40.96875 
Q 46.484375 44.53125 46.484375 51.125 
Q 46.484375 57.671875 42.71875 61.234375 
Q 38.96875 64.796875 32.078125 64.796875 
z
M 9.8125 72.90625 
L 32.078125 72.90625 
Q 44.34375 72.90625 50.609375 67.359375 
Q 56.890625 61.8125 56.890625 51.125 
Q 56.890625 40.328125 50.609375 34.8125 
Q 44.34375 29.296875 32.078125 29.296875 
L 19.671875 29.296875 
L 19.671875 0 
L 9.8125 0 
z
" id="DejaVuSans-80"/>
      <path id="DejaVuSans-32"/>
      <path d="M 31 75.875 
Q 24.46875 64.65625 21.28125 53.65625 
Q 18.109375 42.671875 18.109375 31.390625 
Q 18.109375 20.125 21.3125 9.0625 
Q 24.515625 -2 31 -13.1875 
L 23.1875 -13.1875 
Q 15.875 -1.703125 12.234375 9.375 
Q 8.59375 20.453125 8.59375 31.390625 
Q 8.59375 42.28125 12.203125 53.3125 
Q 15.828125 64.359375 23.1875 75.875 
z
" id="DejaVuSans-40"/>
      <path d="M 18.3125 75.984375 
L 27.296875 75.984375 
L 18.703125 31.6875 
L 49.515625 54.6875 
L 61.1875 54.6875 
L 26.8125 28.515625 
L 51.90625 0 
L 41.015625 0 
L 17.671875 26.703125 
L 12.5 0 
L 3.515625 0 
z
" id="DejaVuSans-Oblique-107"/>
      <path d="M 16.890625 72.90625 
L 42.09375 72.90625 
Q 52.34375 72.90625 57.421875 69.09375 
Q 62.5 65.28125 62.5 57.625 
Q 62.5 50.59375 58.125 45.484375 
Q 53.765625 40.375 46.6875 39.3125 
Q 52.734375 37.9375 55.765625 34.078125 
Q 58.796875 30.21875 58.796875 23.78125 
Q 58.796875 12.796875 50.65625 6.390625 
Q 42.53125 0 28.421875 0 
L 2.6875 0 
z
M 19.28125 34.8125 
L 14.109375 8.109375 
L 29.984375 8.109375 
Q 38.921875 8.109375 43.75 12.203125 
Q 48.578125 16.3125 48.578125 23.78125 
Q 48.578125 29.546875 45.375 32.171875 
Q 42.1875 34.8125 35.109375 34.8125 
z
M 25.09375 64.796875 
L 20.796875 42.828125 
L 35.5 42.828125 
Q 43.359375 42.828125 47.78125 46.234375 
Q 52.203125 49.65625 52.203125 55.71875 
Q 52.203125 60.453125 49.21875 62.625 
Q 46.234375 64.796875 39.703125 64.796875 
z
" id="DejaVuSans-Oblique-66"/>
      <path d="M 5.90625 72.90625 
L 67.578125 72.90625 
L 66.015625 64.59375 
L 39.984375 64.59375 
L 27.484375 0 
L 17.578125 0 
L 30.078125 64.59375 
L 4.296875 64.59375 
z
" id="DejaVuSans-Oblique-84"/>
      <path d="M 25.390625 72.90625 
L 33.6875 72.90625 
L 8.296875 -9.28125 
L 0 -9.28125 
z
" id="DejaVuSans-47"/>
      <path d="M 56.78125 33.015625 
L 50.390625 0 
L 41.40625 0 
L 47.75 32.71875 
Q 48.34375 35.796875 48.34375 38.28125 
Q 48.34375 42 46.96875 44.34375 
Q 44.734375 48.1875 38.671875 48.1875 
Q 31.390625 48.1875 26.265625 43.5625 
Q 21.1875 38.921875 19.625 30.90625 
L 13.625 0 
L 4.59375 0 
L 16.65625 62.015625 
L 10.546875 62.015625 
L 12.109375 70.015625 
L 18.21875 70.015625 
L 19.34375 75.984375 
L 28.375 75.984375 
L 27.25 70.015625 
L 44.4375 70.015625 
L 42.875 62.015625 
L 25.6875 62.015625 
L 22.609375 46.1875 
Q 26.765625 51.125 31.640625 53.5625 
Q 36.421875 56 42.1875 56 
Q 51.5625 56 55.28125 50.203125 
Q 57.625 46.484375 57.625 40.71875 
Q 57.625 37.203125 56.78125 33.015625 
z
" id="DejaVuSans-Oblique-295"/>
      <path d="M 8.015625 75.875 
L 15.828125 75.875 
Q 23.140625 64.359375 26.78125 53.3125 
Q 30.421875 42.28125 30.421875 31.390625 
Q 30.421875 20.453125 26.78125 9.375 
Q 23.140625 -1.703125 15.828125 -13.1875 
L 8.015625 -13.1875 
Q 14.5 -2 17.703125 9.0625 
Q 20.90625 20.125 20.90625 31.390625 
Q 20.90625 42.671875 17.703125 53.65625 
Q 14.5 64.65625 8.015625 75.875 
z
" id="DejaVuSans-41"/>
      <path d="M 10.59375 45.40625 
L 73.1875 45.40625 
L 73.1875 37.203125 
L 10.59375 37.203125 
z
M 10.59375 25.484375 
L 73.1875 25.484375 
L 73.1875 17.1875 
L 10.59375 17.1875 
z
" id="DejaVuSans-61"/>
     </defs>
     <g transform="translate(566.0225 601.040313)scale(0.14 -0.14)">
      <use transform="translate(0 0.015625)" xlink:href="#DejaVuSans-80"/>
      <use transform="translate(60.302734 0.015625)" xlink:href="#DejaVuSans-49"/>
      <use transform="translate(123.925781 0.015625)" xlink:href="#DejaVuSans-32"/>
      <use transform="translate(155.712891 0.015625)" xlink:href="#DejaVuSans-40"/>
      <use transform="translate(194.726562 0.015625)" xlink:href="#DejaVuSans-Oblique-107"/>
      <use transform="translate(252.636719 -16.390625)scale(0.7)" xlink:href="#DejaVuSans-Oblique-66"/>
      <use transform="translate(303.393555 0.015625)" xlink:href="#DejaVuSans-Oblique-84"/>
      <use transform="translate(364.477539 0.015625)" xlink:href="#DejaVuSans-47"/>
      <use transform="translate(414.404622 0.015625)" xlink:href="#DejaVuSans-Oblique-295"/>
      <use transform="translate(483.887043 0.015625)" xlink:href="#DejaVuSans-41"/>
      <use transform="translate(542.383137 0.015625)" xlink:href="#DejaVuSans-61"/>
      <use transform="translate(645.654622 0.015625)" xlink:href="#DejaVuSans-49"/>
      <use transform="translate(709.277668 0.015625)" xlink:href="#DejaVuSans-48"/>
      <use transform="translate(772.900715 0.015625)" xlink:href="#DejaVuSans-48"/>
      <use transform="translate(836.523762 0.015625)" xlink:href="#DejaVuSans-41"/>
     </g>
    </g>
    <g id="line2d_23">
     <path d="M 526.8225 616.689688 
L 554.8225 616.689688 
" style="fill:none;stroke:#ff7f0e;stroke-dasharray:5.55,2.4;stroke-dashoffset:0;stroke-width:1.5;"/>
    </g>
    <g id="line2d_24"/>
    <g id="text_15">
     <!-- P1 $(k_BT/\,\hbar)=250$) -->
     <defs>
      <path d="M 10.796875 72.90625 
L 49.515625 72.90625 
L 49.515625 64.59375 
L 19.828125 64.59375 
L 19.828125 46.734375 
Q 21.96875 47.46875 24.109375 47.828125 
Q 26.265625 48.1875 28.421875 48.1875 
Q 40.625 48.1875 47.75 41.5 
Q 54.890625 34.8125 54.890625 23.390625 
Q 54.890625 11.625 47.5625 5.09375 
Q 40.234375 -1.421875 26.90625 -1.421875 
Q 22.3125 -1.421875 17.546875 -0.640625 
Q 12.796875 0.140625 7.71875 1.703125 
L 7.71875 11.625 
Q 12.109375 9.234375 16.796875 8.0625 
Q 21.484375 6.890625 26.703125 6.890625 
Q 35.15625 6.890625 40.078125 11.328125 
Q 45.015625 15.765625 45.015625 23.390625 
Q 45.015625 31 40.078125 35.4375 
Q 35.15625 39.890625 26.703125 39.890625 
Q 22.75 39.890625 18.8125 39.015625 
Q 14.890625 38.140625 10.796875 36.28125 
z
" id="DejaVuSans-53"/>
     </defs>
     <g transform="translate(566.0225 621.589688)scale(0.14 -0.14)">
      <use transform="translate(0 0.015625)" xlink:href="#DejaVuSans-80"/>
      <use transform="translate(60.302734 0.015625)" xlink:href="#DejaVuSans-49"/>
      <use transform="translate(123.925781 0.015625)" xlink:href="#DejaVuSans-32"/>
      <use transform="translate(155.712891 0.015625)" xlink:href="#DejaVuSans-40"/>
      <use transform="translate(194.726562 0.015625)" xlink:href="#DejaVuSans-Oblique-107"/>
      <use transform="translate(252.636719 -16.390625)scale(0.7)" xlink:href="#DejaVuSans-Oblique-66"/>
      <use transform="translate(303.393555 0.015625)" xlink:href="#DejaVuSans-Oblique-84"/>
      <use transform="translate(364.477539 0.015625)" xlink:href="#DejaVuSans-47"/>
      <use transform="translate(414.404622 0.015625)" xlink:href="#DejaVuSans-Oblique-295"/>
      <use transform="translate(483.887043 0.015625)" xlink:href="#DejaVuSans-41"/>
      <use transform="translate(542.383137 0.015625)" xlink:href="#DejaVuSans-61"/>
      <use transform="translate(645.654622 0.015625)" xlink:href="#DejaVuSans-50"/>
      <use transform="translate(709.277668 0.015625)" xlink:href="#DejaVuSans-53"/>
      <use transform="translate(772.900715 0.015625)" xlink:href="#DejaVuSans-48"/>
      <use transform="translate(836.523762 0.015625)" xlink:href="#DejaVuSans-41"/>
     </g>
    </g>
    <g id="line2d_25">
     <path d="M 526.8225 637.239063 
L 554.8225 637.239063 
" style="fill:none;stroke:#2ca02c;stroke-dasharray:5.55,2.4;stroke-dashoffset:0;stroke-width:1.5;"/>
    </g>
    <g id="line2d_26"/>
    <g id="text_16">
     <!-- P1 $(k_BT/\,\hbar)=400$) -->
     <g transform="translate(566.0225 642.139063)scale(0.14 -0.14)">
      <use transform="translate(0 0.015625)" xlink:href="#DejaVuSans-80"/>
      <use transform="translate(60.302734 0.015625)" xlink:href="#DejaVuSans-49"/>
      <use transform="translate(123.925781 0.015625)" xlink:href="#DejaVuSans-32"/>
      <use transform="translate(155.712891 0.015625)" xlink:href="#DejaVuSans-40"/>
      <use transform="translate(194.726562 0.015625)" xlink:href="#DejaVuSans-Oblique-107"/>
      <use transform="translate(252.636719 -16.390625)scale(0.7)" xlink:href="#DejaVuSans-Oblique-66"/>
      <use transform="translate(303.393555 0.015625)" xlink:href="#DejaVuSans-Oblique-84"/>
      <use transform="translate(364.477539 0.015625)" xlink:href="#DejaVuSans-47"/>
      <use transform="translate(414.404622 0.015625)" xlink:href="#DejaVuSans-Oblique-295"/>
      <use transform="translate(483.887043 0.015625)" xlink:href="#DejaVuSans-41"/>
      <use transform="translate(542.383137 0.015625)" xlink:href="#DejaVuSans-61"/>
      <use transform="translate(645.654622 0.015625)" xlink:href="#DejaVuSans-52"/>
      <use transform="translate(709.277668 0.015625)" xlink:href="#DejaVuSans-48"/>
      <use transform="translate(772.900715 0.015625)" xlink:href="#DejaVuSans-48"/>
      <use transform="translate(836.523762 0.015625)" xlink:href="#DejaVuSans-41"/>
     </g>
    </g>
    <g id="line2d_27">
     <path d="M 526.8225 657.788437 
L 554.8225 657.788437 
" style="fill:none;stroke:#d62728;stroke-dasharray:5.55,2.4;stroke-dashoffset:0;stroke-width:1.5;"/>
    </g>
    <g id="line2d_28"/>
    <g id="text_17">
     <!-- P1 $(k_BT/\,\hbar)=550$) -->
     <g transform="translate(566.0225 662.688437)scale(0.14 -0.14)">
      <use transform="translate(0 0.015625)" xlink:href="#DejaVuSans-80"/>
      <use transform="translate(60.302734 0.015625)" xlink:href="#DejaVuSans-49"/>
      <use transform="translate(123.925781 0.015625)" xlink:href="#DejaVuSans-32"/>
      <use transform="translate(155.712891 0.015625)" xlink:href="#DejaVuSans-40"/>
      <use transform="translate(194.726562 0.015625)" xlink:href="#DejaVuSans-Oblique-107"/>
      <use transform="translate(252.636719 -16.390625)scale(0.7)" xlink:href="#DejaVuSans-Oblique-66"/>
      <use transform="translate(303.393555 0.015625)" xlink:href="#DejaVuSans-Oblique-84"/>
      <use transform="translate(364.477539 0.015625)" xlink:href="#DejaVuSans-47"/>
      <use transform="translate(414.404622 0.015625)" xlink:href="#DejaVuSans-Oblique-295"/>
      <use transform="translate(483.887043 0.015625)" xlink:href="#DejaVuSans-41"/>
      <use transform="translate(542.383137 0.015625)" xlink:href="#DejaVuSans-61"/>
      <use transform="translate(645.654622 0.015625)" xlink:href="#DejaVuSans-53"/>
      <use transform="translate(709.277668 0.015625)" xlink:href="#DejaVuSans-53"/>
      <use transform="translate(772.900715 0.015625)" xlink:href="#DejaVuSans-48"/>
      <use transform="translate(836.523762 0.015625)" xlink:href="#DejaVuSans-41"/>
     </g>
    </g>
   </g>
   <g id="axes_2">
    <g id="patch_11">
     <path d="M 167.1925 213.82 
L 400.848125 213.82 
L 400.848125 28.068 
L 167.1925 28.068 
z
" style="fill:#ffffff;"/>
    </g>
    <g id="matplotlib.axis_3">
     <g id="xtick_7">
      <g id="line2d_29">
       <g>
        <use style="stroke:#000000;stroke-width:0.8;" x="167.1925" xlink:href="#m684cb9bc75" y="213.82"/>
       </g>
      </g>
      <g id="text_18">
       <!-- 0.00 -->
       <g transform="translate(156.059687 228.418438)scale(0.1 -0.1)">
        <use xlink:href="#DejaVuSans-48"/>
        <use x="63.623047" xlink:href="#DejaVuSans-46"/>
        <use x="95.410156" xlink:href="#DejaVuSans-48"/>
        <use x="159.033203" xlink:href="#DejaVuSans-48"/>
       </g>
      </g>
     </g>
     <g id="xtick_8">
      <g id="line2d_30">
       <g>
        <use style="stroke:#000000;stroke-width:0.8;" x="213.923625" xlink:href="#m684cb9bc75" y="213.82"/>
       </g>
      </g>
      <g id="text_19">
       <!-- 0.02 -->
       <g transform="translate(202.790813 228.418438)scale(0.1 -0.1)">
        <use xlink:href="#DejaVuSans-48"/>
        <use x="63.623047" xlink:href="#DejaVuSans-46"/>
        <use x="95.410156" xlink:href="#DejaVuSans-48"/>
        <use x="159.033203" xlink:href="#DejaVuSans-50"/>
       </g>
      </g>
     </g>
     <g id="xtick_9">
      <g id="line2d_31">
       <g>
        <use style="stroke:#000000;stroke-width:0.8;" x="260.65475" xlink:href="#m684cb9bc75" y="213.82"/>
       </g>
      </g>
      <g id="text_20">
       <!-- 0.04 -->
       <g transform="translate(249.521938 228.418438)scale(0.1 -0.1)">
        <use xlink:href="#DejaVuSans-48"/>
        <use x="63.623047" xlink:href="#DejaVuSans-46"/>
        <use x="95.410156" xlink:href="#DejaVuSans-48"/>
        <use x="159.033203" xlink:href="#DejaVuSans-52"/>
       </g>
      </g>
     </g>
     <g id="xtick_10">
      <g id="line2d_32">
       <g>
        <use style="stroke:#000000;stroke-width:0.8;" x="307.385875" xlink:href="#m684cb9bc75" y="213.82"/>
       </g>
      </g>
      <g id="text_21">
       <!-- 0.06 -->
       <g transform="translate(296.253063 228.418438)scale(0.1 -0.1)">
        <use xlink:href="#DejaVuSans-48"/>
        <use x="63.623047" xlink:href="#DejaVuSans-46"/>
        <use x="95.410156" xlink:href="#DejaVuSans-48"/>
        <use x="159.033203" xlink:href="#DejaVuSans-54"/>
       </g>
      </g>
     </g>
     <g id="xtick_11">
      <g id="line2d_33">
       <g>
        <use style="stroke:#000000;stroke-width:0.8;" x="354.117" xlink:href="#m684cb9bc75" y="213.82"/>
       </g>
      </g>
      <g id="text_22">
       <!-- 0.08 -->
       <g transform="translate(342.984188 228.418438)scale(0.1 -0.1)">
        <use xlink:href="#DejaVuSans-48"/>
        <use x="63.623047" xlink:href="#DejaVuSans-46"/>
        <use x="95.410156" xlink:href="#DejaVuSans-48"/>
        <use x="159.033203" xlink:href="#DejaVuSans-56"/>
       </g>
      </g>
     </g>
     <g id="xtick_12">
      <g id="line2d_34">
       <g>
        <use style="stroke:#000000;stroke-width:0.8;" x="400.848125" xlink:href="#m684cb9bc75" y="213.82"/>
       </g>
      </g>
      <g id="text_23">
       <!-- 0.10 -->
       <g transform="translate(389.715313 228.418438)scale(0.1 -0.1)">
        <use xlink:href="#DejaVuSans-48"/>
        <use x="63.623047" xlink:href="#DejaVuSans-46"/>
        <use x="95.410156" xlink:href="#DejaVuSans-49"/>
        <use x="159.033203" xlink:href="#DejaVuSans-48"/>
       </g>
      </g>
     </g>
    </g>
    <g id="matplotlib.axis_4">
     <g id="ytick_7">
      <g id="line2d_35">
       <g>
        <use style="stroke:#000000;stroke-width:0.8;" x="167.1925" xlink:href="#m2fa47c2331" y="213.82"/>
       </g>
      </g>
      <g id="text_24">
       <!-- 0.0 -->
       <g transform="translate(144.289375 217.619219)scale(0.1 -0.1)">
        <use xlink:href="#DejaVuSans-48"/>
        <use x="63.623047" xlink:href="#DejaVuSans-46"/>
        <use x="95.410156" xlink:href="#DejaVuSans-48"/>
       </g>
      </g>
     </g>
     <g id="ytick_8">
      <g id="line2d_36">
       <g>
        <use style="stroke:#000000;stroke-width:0.8;" x="167.1925" xlink:href="#m2fa47c2331" y="189.053067"/>
       </g>
      </g>
      <g id="text_25">
       <!-- 0.1 -->
       <g transform="translate(144.289375 192.852285)scale(0.1 -0.1)">
        <use xlink:href="#DejaVuSans-48"/>
        <use x="63.623047" xlink:href="#DejaVuSans-46"/>
        <use x="95.410156" xlink:href="#DejaVuSans-49"/>
       </g>
      </g>
     </g>
     <g id="ytick_9">
      <g id="line2d_37">
       <g>
        <use style="stroke:#000000;stroke-width:0.8;" x="167.1925" xlink:href="#m2fa47c2331" y="164.286133"/>
       </g>
      </g>
      <g id="text_26">
       <!-- 0.2 -->
       <g transform="translate(144.289375 168.085352)scale(0.1 -0.1)">
        <use xlink:href="#DejaVuSans-48"/>
        <use x="63.623047" xlink:href="#DejaVuSans-46"/>
        <use x="95.410156" xlink:href="#DejaVuSans-50"/>
       </g>
      </g>
     </g>
     <g id="ytick_10">
      <g id="line2d_38">
       <g>
        <use style="stroke:#000000;stroke-width:0.8;" x="167.1925" xlink:href="#m2fa47c2331" y="139.5192"/>
       </g>
      </g>
      <g id="text_27">
       <!-- 0.3 -->
       <defs>
        <path d="M 40.578125 39.3125 
Q 47.65625 37.796875 51.625 33 
Q 55.609375 28.21875 55.609375 21.1875 
Q 55.609375 10.40625 48.1875 4.484375 
Q 40.765625 -1.421875 27.09375 -1.421875 
Q 22.515625 -1.421875 17.65625 -0.515625 
Q 12.796875 0.390625 7.625 2.203125 
L 7.625 11.71875 
Q 11.71875 9.328125 16.59375 8.109375 
Q 21.484375 6.890625 26.8125 6.890625 
Q 36.078125 6.890625 40.9375 10.546875 
Q 45.796875 14.203125 45.796875 21.1875 
Q 45.796875 27.640625 41.28125 31.265625 
Q 36.765625 34.90625 28.71875 34.90625 
L 20.21875 34.90625 
L 20.21875 43.015625 
L 29.109375 43.015625 
Q 36.375 43.015625 40.234375 45.921875 
Q 44.09375 48.828125 44.09375 54.296875 
Q 44.09375 59.90625 40.109375 62.90625 
Q 36.140625 65.921875 28.71875 65.921875 
Q 24.65625 65.921875 20.015625 65.03125 
Q 15.375 64.15625 9.8125 62.3125 
L 9.8125 71.09375 
Q 15.4375 72.65625 20.34375 73.4375 
Q 25.25 74.21875 29.59375 74.21875 
Q 40.828125 74.21875 47.359375 69.109375 
Q 53.90625 64.015625 53.90625 55.328125 
Q 53.90625 49.265625 50.4375 45.09375 
Q 46.96875 40.921875 40.578125 39.3125 
z
" id="DejaVuSans-51"/>
       </defs>
       <g transform="translate(144.289375 143.318419)scale(0.1 -0.1)">
        <use xlink:href="#DejaVuSans-48"/>
        <use x="63.623047" xlink:href="#DejaVuSans-46"/>
        <use x="95.410156" xlink:href="#DejaVuSans-51"/>
       </g>
      </g>
     </g>
     <g id="ytick_11">
      <g id="line2d_39">
       <g>
        <use style="stroke:#000000;stroke-width:0.8;" x="167.1925" xlink:href="#m2fa47c2331" y="114.752267"/>
       </g>
      </g>
      <g id="text_28">
       <!-- 0.4 -->
       <g transform="translate(144.289375 118.551485)scale(0.1 -0.1)">
        <use xlink:href="#DejaVuSans-48"/>
        <use x="63.623047" xlink:href="#DejaVuSans-46"/>
        <use x="95.410156" xlink:href="#DejaVuSans-52"/>
       </g>
      </g>
     </g>
     <g id="ytick_12">
      <g id="line2d_40">
       <g>
        <use style="stroke:#000000;stroke-width:0.8;" x="167.1925" xlink:href="#m2fa47c2331" y="89.985333"/>
       </g>
      </g>
      <g id="text_29">
       <!-- 0.5 -->
       <g transform="translate(144.289375 93.784552)scale(0.1 -0.1)">
        <use xlink:href="#DejaVuSans-48"/>
        <use x="63.623047" xlink:href="#DejaVuSans-46"/>
        <use x="95.410156" xlink:href="#DejaVuSans-53"/>
       </g>
      </g>
     </g>
     <g id="ytick_13">
      <g id="line2d_41">
       <g>
        <use style="stroke:#000000;stroke-width:0.8;" x="167.1925" xlink:href="#m2fa47c2331" y="65.2184"/>
       </g>
      </g>
      <g id="text_30">
       <!-- 0.6 -->
       <g transform="translate(144.289375 69.017619)scale(0.1 -0.1)">
        <use xlink:href="#DejaVuSans-48"/>
        <use x="63.623047" xlink:href="#DejaVuSans-46"/>
        <use x="95.410156" xlink:href="#DejaVuSans-54"/>
       </g>
      </g>
     </g>
     <g id="ytick_14">
      <g id="line2d_42">
       <g>
        <use style="stroke:#000000;stroke-width:0.8;" x="167.1925" xlink:href="#m2fa47c2331" y="40.451467"/>
       </g>
      </g>
      <g id="text_31">
       <!-- 0.7 -->
       <defs>
        <path d="M 8.203125 72.90625 
L 55.078125 72.90625 
L 55.078125 68.703125 
L 28.609375 0 
L 18.3125 0 
L 43.21875 64.59375 
L 8.203125 64.59375 
z
" id="DejaVuSans-55"/>
       </defs>
       <g transform="translate(144.289375 44.250685)scale(0.1 -0.1)">
        <use xlink:href="#DejaVuSans-48"/>
        <use x="63.623047" xlink:href="#DejaVuSans-46"/>
        <use x="95.410156" xlink:href="#DejaVuSans-55"/>
       </g>
      </g>
     </g>
    </g>
    <g id="line2d_43">
     <path clip-path="url(#p0332f1a4db)" d="M 167.1925 213.82 
L 167.683177 213.711052 
L 168.197219 213.364587 
L 168.781358 212.685554 
L 169.45896 211.523571 
L 170.230023 209.723035 
L 171.117914 207.038395 
L 172.122634 203.244864 
L 173.267546 198.001277 
L 174.576018 190.904957 
L 176.071414 181.516932 
L 177.847196 168.889835 
L 180.090291 151.239021 
L 184.085802 117.637104 
L 187.403712 90.590848 
L 189.576709 74.647095 
L 191.352492 63.182581 
L 192.894619 54.608436 
L 194.249821 48.261469 
L 195.464831 43.585836 
L 196.539647 40.285931 
L 197.497635 38.024171 
L 198.338795 36.573583 
L 199.086493 35.70649 
L 199.740729 35.273447 
L 200.324868 35.142279 
L 200.885641 35.241222 
L 201.46978 35.575916 
L 202.124016 36.227204 
L 202.848348 37.282125 
L 203.666143 38.883294 
L 204.600766 41.226026 
L 205.675581 44.561855 
L 206.890591 49.101274 
L 208.292524 55.253221 
L 209.928114 63.495808 
L 211.914187 74.723103 
L 214.671323 91.72028 
L 220.279058 126.526317 
L 222.405324 138.17525 
L 224.157741 146.603706 
L 225.676503 152.873339 
L 227.00834 157.485525 
L 228.199984 160.858461 
L 229.2748 163.261736 
L 230.209422 164.845219 
L 231.050582 165.861627 
L 231.79828 166.438098 
L 232.475882 166.694759 
L 233.130117 166.703967 
L 233.784353 166.480819 
L 234.461954 166.007889 
L 235.209652 165.205559 
L 236.050813 163.95983 
L 236.985435 162.164014 
L 238.060251 159.588171 
L 239.27526 156.061007 
L 240.653829 151.339309 
L 242.242687 145.068634 
L 244.158663 136.548242 
L 246.682144 124.222199 
L 253.948834 88.104513 
L 255.958272 79.555439 
L 257.663958 73.221667 
L 259.159354 68.484933 
L 260.491191 64.973387 
L 261.682835 62.431484 
L 262.757651 60.64322 
L 263.715639 59.461022 
L 264.580165 58.730293 
L 265.374594 58.340168 
L 266.122292 58.217788 
L 266.846624 58.323204 
L 267.594322 58.659645 
L 268.388751 59.265148 
L 269.276643 60.235657 
L 270.257996 61.655117 
L 271.356178 63.652536 
L 272.594552 66.385946 
L 274.019852 70.100266 
L 275.678807 75.080782 
L 277.688245 81.857904 
L 280.515478 92.258685 
L 285.912923 112.211231 
L 288.08592 119.30888 
L 289.861703 124.385585 
L 291.40383 128.154051 
L 292.782398 130.957513 
L 293.997408 132.952635 
L 295.095589 134.354554 
L 296.100308 135.294168 
L 297.011565 135.858914 
L 297.876091 136.140793 
L 298.693886 136.18057 
L 299.51168 136.001843 
L 300.376206 135.579048 
L 301.287463 134.879214 
L 302.292182 133.815075 
L 303.390364 132.316754 
L 304.628739 130.233199 
L 306.030672 127.413808 
L 307.619531 123.698764 
L 309.512141 118.680895 
L 311.94216 111.563581 
L 320.2603 86.647504 
L 322.223007 81.757762 
L 323.905328 78.135278 
L 325.400724 75.421298 
L 326.732561 73.440611 
L 327.94757 72.011664 
L 329.069117 71.022709 
L 330.097202 70.398763 
L 331.078555 70.056188 
L 332.036543 69.958689 
L 332.971166 70.085897 
L 333.95252 70.450408 
L 334.980604 71.077834 
L 336.102151 72.036101 
L 337.317161 73.377181 
L 338.672363 75.214099 
L 340.21449 77.691997 
L 342.037004 81.064415 
L 344.303464 85.755573 
L 348.298975 94.649086 
L 351.686982 101.951425 
L 353.883344 106.176768 
L 355.705858 109.223289 
L 357.294717 111.467063 
L 358.720016 113.113533 
L 360.028487 114.297323 
L 361.243497 115.102897 
L 362.365044 115.589163 
L 363.439859 115.820924 
L 364.514675 115.82375 
L 365.589491 115.600398 
L 366.687673 115.143896 
L 367.855951 114.413746 
L 369.117691 113.356119 
L 370.496259 111.903345 
L 372.038386 109.946176 
L 373.814169 107.318573 
L 375.940435 103.756455 
L 378.884496 98.349038 
L 384.772618 87.460251 
L 387.062443 83.747284 
L 388.978419 81.049061 
L 390.66074 79.049642 
L 392.179501 77.575813 
L 393.581435 76.513311 
L 394.889907 75.789631 
L 396.151647 75.34114 
L 397.366656 75.140917 
L 398.581665 75.165062 
L 399.82004 75.414459 
L 400.871491 75.797575 
L 400.871491 75.797575 
" style="fill:none;stroke:#1f77b4;stroke-linecap:square;stroke-width:1.5;"/>
    </g>
    <g id="line2d_44">
     <path clip-path="url(#p0332f1a4db)" d="M 167.1925 213.82 
L 167.683177 213.711439 
L 168.197219 213.367892 
L 168.781358 212.698531 
L 169.45896 211.560888 
L 170.230023 209.811831 
L 171.14128 207.151296 
L 172.169365 203.427122 
L 173.361008 198.233689 
L 174.739577 191.18635 
L 176.375166 181.61247 
L 178.431336 168.16189 
L 181.51559 146.314533 
L 186.048509 114.385061 
L 188.314969 100.043355 
L 190.184213 89.580984 
L 191.819803 81.644231 
L 193.268468 75.666358 
L 194.576939 71.167769 
L 195.768583 67.838453 
L 196.843399 65.471293 
L 197.801387 63.869539 
L 198.665913 62.831302 
L 199.460342 62.212534 
L 200.184674 61.922555 
L 200.862276 61.882434 
L 201.563242 62.06962 
L 202.287575 62.499542 
L 203.082004 63.236687 
L 203.969895 64.373447 
L 204.974615 66.033346 
L 206.119527 68.369114 
L 207.451364 71.616901 
L 209.016857 76.054348 
L 210.932833 82.195595 
L 213.619873 91.636323 
L 219.297704 111.749935 
L 221.470702 118.522594 
L 223.26985 123.437472 
L 224.858708 127.159318 
L 226.284008 129.95427 
L 227.569114 132.008007 
L 228.737392 133.479642 
L 229.812208 134.496901 
L 230.816927 135.156291 
L 231.774915 135.525429 
L 232.709537 135.645926 
L 233.620794 135.541477 
L 234.578782 135.203441 
L 235.583501 134.608463 
L 236.681683 133.69226 
L 237.896692 132.378454 
L 239.27526 130.542787 
L 240.840753 128.071765 
L 242.709998 124.68346 
L 245.116651 119.823649 
L 254.01893 101.380106 
L 256.0751 97.880761 
L 257.874248 95.243757 
L 259.509837 93.231005 
L 261.005233 91.73119 
L 262.407167 90.628974 
L 263.739004 89.85584 
L 265.02411 89.359934 
L 266.285851 89.105678 
L 267.570957 89.073983 
L 268.879428 89.264171 
L 270.281362 89.698477 
L 271.776758 90.39883 
L 273.459078 91.440561 
L 275.39842 92.913177 
L 277.851804 95.074305 
L 282.968862 99.980538 
L 286.076482 102.76052 
L 288.413038 104.559542 
L 290.445842 105.850041 
L 292.291722 106.766227 
L 294.044139 107.393161 
L 295.749825 107.768385 
L 297.432145 107.910776 
L 299.137831 107.829865 
L 300.890249 107.522384 
L 302.759494 106.963794 
L 304.792298 106.117885 
L 307.105488 104.905406 
L 309.956087 103.144375 
L 314.956317 99.73512 
L 319.20885 96.956493 
L 322.129545 95.309736 
L 324.676391 94.122373 
L 327.059679 93.252208 
L 329.372869 92.642441 
L 331.68606 92.26292 
L 334.069347 92.099896 
L 336.592828 92.153268 
L 339.420061 92.442164 
L 342.878164 93.032207 
L 356.032976 95.513061 
L 359.280789 95.756033 
L 362.411775 95.766664 
L 365.589491 95.552118 
L 368.977498 95.095816 
L 372.879547 94.337067 
L 378.347088 93.022877 
L 387.155905 90.910434 
L 391.688825 90.071761 
L 395.917991 89.515621 
L 400.24062 89.174579 
L 400.871491 89.142335 
L 400.871491 89.142335 
" style="fill:none;stroke:#ff7f0e;stroke-linecap:square;stroke-width:1.5;"/>
    </g>
    <g id="line2d_45">
     <path clip-path="url(#p0332f1a4db)" d="M 167.1925 213.82 
L 167.683177 213.711827 
L 168.220585 213.350303 
L 168.828089 212.646438 
L 169.529056 211.46189 
L 170.346851 209.6032 
L 171.281473 206.894184 
L 172.379655 202.986253 
L 173.664761 197.537878 
L 175.183522 190.081116 
L 177.076133 179.611092 
L 179.809904 163.094986 
L 185.207349 130.324832 
L 187.450443 118.2064 
L 189.343053 109.156112 
L 191.002008 102.255695 
L 192.52077 96.855086 
L 193.899338 92.741972 
L 195.161078 89.644065 
L 196.329356 87.340763 
L 197.404172 85.692956 
L 198.385526 84.572021 
L 199.296783 83.84779 
L 200.161309 83.431408 
L 201.002469 83.267995 
L 201.843629 83.331024 
L 202.731521 83.629038 
L 203.689509 84.199007 
L 204.740959 85.096673 
L 205.932603 86.422186 
L 207.311171 88.308311 
L 208.94676 90.945118 
L 211.026295 94.749551 
L 214.554495 101.757383 
L 218.176157 108.776434 
L 220.442617 112.690662 
L 222.335228 115.535221 
L 224.040914 117.709787 
L 225.606406 119.352391 
L 227.055071 120.558473 
L 228.433639 121.422276 
L 229.765476 121.995852 
L 231.050582 122.312082 
L 232.359054 122.404054 
L 233.690891 122.272235 
L 235.092825 121.905354 
L 236.588221 121.280045 
L 238.247176 120.338232 
L 240.139786 118.997693 
L 242.429611 117.08691 
L 245.607328 114.116726 
L 252.196416 107.903894 
L 254.930187 105.674259 
L 257.313475 104.009719 
L 259.533203 102.72474 
L 261.682835 101.735435 
L 263.809101 101.00207 
L 265.958733 100.496502 
L 268.201827 100.199444 
L 270.60848 100.107361 
L 273.34225 100.230968 
L 276.753623 100.620231 
L 289.604682 102.309124 
L 293.086151 102.407729 
L 296.497523 102.281449 
L 300.072454 101.923624 
L 304.091331 101.290637 
L 309.25512 100.236038 
L 323.484748 97.213623 
L 328.905558 96.368276 
L 334.513293 95.723616 
L 341.312672 95.178883 
L 367.926047 93.277706 
L 400.871491 90.25497 
L 400.871491 90.25497 
" style="fill:none;stroke:#2ca02c;stroke-linecap:square;stroke-width:1.5;"/>
    </g>
    <g id="line2d_46">
     <path clip-path="url(#p0332f1a4db)" d="M 167.1925 213.82 
L 167.683177 213.712215 
L 168.220585 213.35381 
L 168.828089 212.660304 
L 169.529056 211.50144 
L 170.346851 209.697946 
L 171.304839 207.022098 
L 172.449752 203.11962 
L 173.804954 197.662235 
L 175.487275 189.897013 
L 177.730369 178.403108 
L 185.324176 138.635082 
L 187.403712 129.366624 
L 189.226225 122.225874 
L 190.861815 116.676123 
L 192.380576 112.280002 
L 193.78251 108.874213 
L 195.090982 106.252226 
L 196.329356 104.250888 
L 197.497635 102.772814 
L 198.595816 101.72755 
L 199.647266 101.020576 
L 200.675351 100.588527 
L 201.703436 100.393392 
L 202.754886 100.417816 
L 203.876433 100.66856 
L 205.114808 101.182369 
L 206.493376 102.002735 
L 208.128966 103.247872 
L 210.185135 105.112306 
L 213.549776 108.516014 
L 217.475191 112.401203 
L 219.858478 114.448702 
L 221.914647 115.931045 
L 223.807258 117.027344 
L 225.606406 117.816266 
L 227.358823 118.344156 
L 229.111241 118.639571 
L 230.887023 118.713499 
L 232.756268 118.565299 
L 234.742341 118.181857 
L 236.96207 117.519927 
L 239.532282 116.512193 
L 242.850191 114.955445 
L 254.813359 109.123803 
L 258.294828 107.801304 
L 261.659469 106.76005 
L 265.140938 105.917284 
L 268.949525 105.22986 
L 273.459078 104.651321 
L 280.211726 104.037205 
L 291.590755 102.991291 
L 299.30139 102.030228 
L 310.400033 100.389359 
L 324.559563 98.348419 
L 335.494647 97.015345 
L 349.911199 95.502981 
L 374.608598 93.157891 
L 394.866541 91.442411 
L 400.871491 90.9785 
L 400.871491 90.9785 
" style="fill:none;stroke:#d62728;stroke-linecap:square;stroke-width:1.5;"/>
    </g>
    <g id="patch_12">
     <path d="M 167.1925 213.82 
L 167.1925 28.068 
" style="fill:none;stroke:#000000;stroke-linecap:square;stroke-linejoin:miter;stroke-width:0.8;"/>
    </g>
    <g id="patch_13">
     <path d="M 400.848125 213.82 
L 400.848125 28.068 
" style="fill:none;stroke:#000000;stroke-linecap:square;stroke-linejoin:miter;stroke-width:0.8;"/>
    </g>
    <g id="patch_14">
     <path d="M 167.1925 213.82 
L 400.848125 213.82 
" style="fill:none;stroke:#000000;stroke-linecap:square;stroke-linejoin:miter;stroke-width:0.8;"/>
    </g>
    <g id="patch_15">
     <path d="M 167.1925 28.068 
L 400.848125 28.068 
" style="fill:none;stroke:#000000;stroke-linecap:square;stroke-linejoin:miter;stroke-width:0.8;"/>
    </g>
   </g>
   <g id="legend_2">
    <g id="patch_16">
     <path d="M 524.0225 108.1975 
L 691.4625 108.1975 
Q 694.2625 108.1975 694.2625 105.3975 
L 694.2625 24.6 
Q 694.2625 21.8 691.4625 21.8 
L 524.0225 21.8 
Q 521.2225 21.8 521.2225 24.6 
L 521.2225 105.3975 
Q 521.2225 108.1975 524.0225 108.1975 
z
" style="fill:#ffffff;opacity:0.8;stroke:#cccccc;stroke-linejoin:miter;"/>
    </g>
    <g id="line2d_47">
     <path d="M 526.8225 33.137813 
L 554.8225 33.137813 
" style="fill:none;stroke:#1f77b4;stroke-linecap:square;stroke-width:1.5;"/>
    </g>
    <g id="line2d_48"/>
    <g id="text_32">
     <!-- P2 $(k_BT/\,\hbar)=100$) -->
     <g transform="translate(566.0225 38.037813)scale(0.14 -0.14)">
      <use transform="translate(0 0.015625)" xlink:href="#DejaVuSans-80"/>
      <use transform="translate(60.302734 0.015625)" xlink:href="#DejaVuSans-50"/>
      <use transform="translate(123.925781 0.015625)" xlink:href="#DejaVuSans-32"/>
      <use transform="translate(155.712891 0.015625)" xlink:href="#DejaVuSans-40"/>
      <use transform="translate(194.726562 0.015625)" xlink:href="#DejaVuSans-Oblique-107"/>
      <use transform="translate(252.636719 -16.390625)scale(0.7)" xlink:href="#DejaVuSans-Oblique-66"/>
      <use transform="translate(303.393555 0.015625)" xlink:href="#DejaVuSans-Oblique-84"/>
      <use transform="translate(364.477539 0.015625)" xlink:href="#DejaVuSans-47"/>
      <use transform="translate(414.404622 0.015625)" xlink:href="#DejaVuSans-Oblique-295"/>
      <use transform="translate(483.887043 0.015625)" xlink:href="#DejaVuSans-41"/>
      <use transform="translate(542.383137 0.015625)" xlink:href="#DejaVuSans-61"/>
      <use transform="translate(645.654622 0.015625)" xlink:href="#DejaVuSans-49"/>
      <use transform="translate(709.277668 0.015625)" xlink:href="#DejaVuSans-48"/>
      <use transform="translate(772.900715 0.015625)" xlink:href="#DejaVuSans-48"/>
      <use transform="translate(836.523762 0.015625)" xlink:href="#DejaVuSans-41"/>
     </g>
    </g>
    <g id="line2d_49">
     <path d="M 526.8225 53.687188 
L 554.8225 53.687188 
" style="fill:none;stroke:#ff7f0e;stroke-linecap:square;stroke-width:1.5;"/>
    </g>
    <g id="line2d_50"/>
    <g id="text_33">
     <!-- P2 $(k_BT/\,\hbar)=250$) -->
     <g transform="translate(566.0225 58.587188)scale(0.14 -0.14)">
      <use transform="translate(0 0.015625)" xlink:href="#DejaVuSans-80"/>
      <use transform="translate(60.302734 0.015625)" xlink:href="#DejaVuSans-50"/>
      <use transform="translate(123.925781 0.015625)" xlink:href="#DejaVuSans-32"/>
      <use transform="translate(155.712891 0.015625)" xlink:href="#DejaVuSans-40"/>
      <use transform="translate(194.726562 0.015625)" xlink:href="#DejaVuSans-Oblique-107"/>
      <use transform="translate(252.636719 -16.390625)scale(0.7)" xlink:href="#DejaVuSans-Oblique-66"/>
      <use transform="translate(303.393555 0.015625)" xlink:href="#DejaVuSans-Oblique-84"/>
      <use transform="translate(364.477539 0.015625)" xlink:href="#DejaVuSans-47"/>
      <use transform="translate(414.404622 0.015625)" xlink:href="#DejaVuSans-Oblique-295"/>
      <use transform="translate(483.887043 0.015625)" xlink:href="#DejaVuSans-41"/>
      <use transform="translate(542.383137 0.015625)" xlink:href="#DejaVuSans-61"/>
      <use transform="translate(645.654622 0.015625)" xlink:href="#DejaVuSans-50"/>
      <use transform="translate(709.277668 0.015625)" xlink:href="#DejaVuSans-53"/>
      <use transform="translate(772.900715 0.015625)" xlink:href="#DejaVuSans-48"/>
      <use transform="translate(836.523762 0.015625)" xlink:href="#DejaVuSans-41"/>
     </g>
    </g>
    <g id="line2d_51">
     <path d="M 526.8225 74.236563 
L 554.8225 74.236563 
" style="fill:none;stroke:#2ca02c;stroke-linecap:square;stroke-width:1.5;"/>
    </g>
    <g id="line2d_52"/>
    <g id="text_34">
     <!-- P2 $(k_BT/\,\hbar)=400$) -->
     <g transform="translate(566.0225 79.136563)scale(0.14 -0.14)">
      <use transform="translate(0 0.015625)" xlink:href="#DejaVuSans-80"/>
      <use transform="translate(60.302734 0.015625)" xlink:href="#DejaVuSans-50"/>
      <use transform="translate(123.925781 0.015625)" xlink:href="#DejaVuSans-32"/>
      <use transform="translate(155.712891 0.015625)" xlink:href="#DejaVuSans-40"/>
      <use transform="translate(194.726562 0.015625)" xlink:href="#DejaVuSans-Oblique-107"/>
      <use transform="translate(252.636719 -16.390625)scale(0.7)" xlink:href="#DejaVuSans-Oblique-66"/>
      <use transform="translate(303.393555 0.015625)" xlink:href="#DejaVuSans-Oblique-84"/>
      <use transform="translate(364.477539 0.015625)" xlink:href="#DejaVuSans-47"/>
      <use transform="translate(414.404622 0.015625)" xlink:href="#DejaVuSans-Oblique-295"/>
      <use transform="translate(483.887043 0.015625)" xlink:href="#DejaVuSans-41"/>
      <use transform="translate(542.383137 0.015625)" xlink:href="#DejaVuSans-61"/>
      <use transform="translate(645.654622 0.015625)" xlink:href="#DejaVuSans-52"/>
      <use transform="translate(709.277668 0.015625)" xlink:href="#DejaVuSans-48"/>
      <use transform="translate(772.900715 0.015625)" xlink:href="#DejaVuSans-48"/>
      <use transform="translate(836.523762 0.015625)" xlink:href="#DejaVuSans-41"/>
     </g>
    </g>
    <g id="line2d_53">
     <path d="M 526.8225 94.785938 
L 554.8225 94.785938 
" style="fill:none;stroke:#d62728;stroke-linecap:square;stroke-width:1.5;"/>
    </g>
    <g id="line2d_54"/>
    <g id="text_35">
     <!-- P2 $(k_BT/\,\hbar)=550$) -->
     <g transform="translate(566.0225 99.685938)scale(0.14 -0.14)">
      <use transform="translate(0 0.015625)" xlink:href="#DejaVuSans-80"/>
      <use transform="translate(60.302734 0.015625)" xlink:href="#DejaVuSans-50"/>
      <use transform="translate(123.925781 0.015625)" xlink:href="#DejaVuSans-32"/>
      <use transform="translate(155.712891 0.015625)" xlink:href="#DejaVuSans-40"/>
      <use transform="translate(194.726562 0.015625)" xlink:href="#DejaVuSans-Oblique-107"/>
      <use transform="translate(252.636719 -16.390625)scale(0.7)" xlink:href="#DejaVuSans-Oblique-66"/>
      <use transform="translate(303.393555 0.015625)" xlink:href="#DejaVuSans-Oblique-84"/>
      <use transform="translate(364.477539 0.015625)" xlink:href="#DejaVuSans-47"/>
      <use transform="translate(414.404622 0.015625)" xlink:href="#DejaVuSans-Oblique-295"/>
      <use transform="translate(483.887043 0.015625)" xlink:href="#DejaVuSans-41"/>
      <use transform="translate(542.383137 0.015625)" xlink:href="#DejaVuSans-61"/>
      <use transform="translate(645.654622 0.015625)" xlink:href="#DejaVuSans-53"/>
      <use transform="translate(709.277668 0.015625)" xlink:href="#DejaVuSans-53"/>
      <use transform="translate(772.900715 0.015625)" xlink:href="#DejaVuSans-48"/>
      <use transform="translate(836.523762 0.015625)" xlink:href="#DejaVuSans-41"/>
     </g>
    </g>
   </g>
  </g>
 </g>
 <defs>
  <clipPath id="p404e1bf27a">
   <rect height="663.4" width="667.5875" x="33.675" y="14.8"/>
  </clipPath>
  <clipPath id="p0332f1a4db">
   <rect height="185.752" width="233.655625" x="167.1925" y="28.068"/>
  </clipPath>
 </defs>
</svg>
