<?xml version="1.0" encoding="utf-8" standalone="no"?>
<!DOCTYPE svg PUBLIC "-//W3C//DTD SVG 1.1//EN"
  "http://www.w3.org/Graphics/SVG/1.1/DTD/svg11.dtd">
<!-- Created with matplotlib (https://matplotlib.org/) -->
<svg height="432pt" version="1.1" viewBox="0 0 576 432" width="576pt" xmlns="http://www.w3.org/2000/svg" xmlns:xlink="http://www.w3.org/1999/xlink">
 <defs>
  <style type="text/css">
*{stroke-linecap:butt;stroke-linejoin:round;}
  </style>
 </defs>
 <g id="figure_1">
  <g id="patch_1">
   <path d="M 0 432 
L 576 432 
L 576 0 
L 0 0 
z
" style="fill:#ffffff;"/>
  </g>
  <g id="axes_1">
   <g id="patch_2">
    <path d="M 33.675 386.2 
L 557.2625 386.2 
L 557.2625 14.3 
L 33.675 14.3 
z
" style="fill:#ffffff;"/>
   </g>
   <g id="matplotlib.axis_1">
    <g id="xtick_1">
     <g id="line2d_1">
      <defs>
       <path d="M 0 0 
L 0 3.5 
" id="m3562ee4bea" style="stroke:#000000;stroke-width:0.8;"/>
      </defs>
      <g>
       <use style="stroke:#000000;stroke-width:0.8;" x="53.812981" xlink:href="#m3562ee4bea" y="386.2"/>
      </g>
     </g>
     <g id="text_1">
      <!-- 0.0 -->
      <defs>
       <path d="M 31.78125 66.40625 
Q 24.171875 66.40625 20.328125 58.90625 
Q 16.5 51.421875 16.5 36.375 
Q 16.5 21.390625 20.328125 13.890625 
Q 24.171875 6.390625 31.78125 6.390625 
Q 39.453125 6.390625 43.28125 13.890625 
Q 47.125 21.390625 47.125 36.375 
Q 47.125 51.421875 43.28125 58.90625 
Q 39.453125 66.40625 31.78125 66.40625 
z
M 31.78125 74.21875 
Q 44.046875 74.21875 50.515625 64.515625 
Q 56.984375 54.828125 56.984375 36.375 
Q 56.984375 17.96875 50.515625 8.265625 
Q 44.046875 -1.421875 31.78125 -1.421875 
Q 19.53125 -1.421875 13.0625 8.265625 
Q 6.59375 17.96875 6.59375 36.375 
Q 6.59375 54.828125 13.0625 64.515625 
Q 19.53125 74.21875 31.78125 74.21875 
z
" id="DejaVuSans-48"/>
       <path d="M 10.6875 12.40625 
L 21 12.40625 
L 21 0 
L 10.6875 0 
z
" id="DejaVuSans-46"/>
      </defs>
      <g transform="translate(45.861418 400.798437)scale(0.1 -0.1)">
       <use xlink:href="#DejaVuSans-48"/>
       <use x="63.623047" xlink:href="#DejaVuSans-46"/>
       <use x="95.410156" xlink:href="#DejaVuSans-48"/>
      </g>
     </g>
    </g>
    <g id="xtick_2">
     <g id="line2d_2">
      <g>
       <use style="stroke:#000000;stroke-width:0.8;" x="154.502885" xlink:href="#m3562ee4bea" y="386.2"/>
      </g>
     </g>
     <g id="text_2">
      <!-- 0.2 -->
      <defs>
       <path d="M 19.1875 8.296875 
L 53.609375 8.296875 
L 53.609375 0 
L 7.328125 0 
L 7.328125 8.296875 
Q 12.9375 14.109375 22.625 23.890625 
Q 32.328125 33.6875 34.8125 36.53125 
Q 39.546875 41.84375 41.421875 45.53125 
Q 43.3125 49.21875 43.3125 52.78125 
Q 43.3125 58.59375 39.234375 62.25 
Q 35.15625 65.921875 28.609375 65.921875 
Q 23.96875 65.921875 18.8125 64.3125 
Q 13.671875 62.703125 7.8125 59.421875 
L 7.8125 69.390625 
Q 13.765625 71.78125 18.9375 73 
Q 24.125 74.21875 28.421875 74.21875 
Q 39.75 74.21875 46.484375 68.546875 
Q 53.21875 62.890625 53.21875 53.421875 
Q 53.21875 48.921875 51.53125 44.890625 
Q 49.859375 40.875 45.40625 35.40625 
Q 44.1875 33.984375 37.640625 27.21875 
Q 31.109375 20.453125 19.1875 8.296875 
z
" id="DejaVuSans-50"/>
      </defs>
      <g transform="translate(146.551322 400.798437)scale(0.1 -0.1)">
       <use xlink:href="#DejaVuSans-48"/>
       <use x="63.623047" xlink:href="#DejaVuSans-46"/>
       <use x="95.410156" xlink:href="#DejaVuSans-50"/>
      </g>
     </g>
    </g>
    <g id="xtick_3">
     <g id="line2d_3">
      <g>
       <use style="stroke:#000000;stroke-width:0.8;" x="255.192788" xlink:href="#m3562ee4bea" y="386.2"/>
      </g>
     </g>
     <g id="text_3">
      <!-- 0.4 -->
      <defs>
       <path d="M 37.796875 64.3125 
L 12.890625 25.390625 
L 37.796875 25.390625 
z
M 35.203125 72.90625 
L 47.609375 72.90625 
L 47.609375 25.390625 
L 58.015625 25.390625 
L 58.015625 17.1875 
L 47.609375 17.1875 
L 47.609375 0 
L 37.796875 0 
L 37.796875 17.1875 
L 4.890625 17.1875 
L 4.890625 26.703125 
z
" id="DejaVuSans-52"/>
      </defs>
      <g transform="translate(247.241226 400.798437)scale(0.1 -0.1)">
       <use xlink:href="#DejaVuSans-48"/>
       <use x="63.623047" xlink:href="#DejaVuSans-46"/>
       <use x="95.410156" xlink:href="#DejaVuSans-52"/>
      </g>
     </g>
    </g>
    <g id="xtick_4">
     <g id="line2d_4">
      <g>
       <use style="stroke:#000000;stroke-width:0.8;" x="355.882692" xlink:href="#m3562ee4bea" y="386.2"/>
      </g>
     </g>
     <g id="text_4">
      <!-- 0.6 -->
      <defs>
       <path d="M 33.015625 40.375 
Q 26.375 40.375 22.484375 35.828125 
Q 18.609375 31.296875 18.609375 23.390625 
Q 18.609375 15.53125 22.484375 10.953125 
Q 26.375 6.390625 33.015625 6.390625 
Q 39.65625 6.390625 43.53125 10.953125 
Q 47.40625 15.53125 47.40625 23.390625 
Q 47.40625 31.296875 43.53125 35.828125 
Q 39.65625 40.375 33.015625 40.375 
z
M 52.59375 71.296875 
L 52.59375 62.3125 
Q 48.875 64.0625 45.09375 64.984375 
Q 41.3125 65.921875 37.59375 65.921875 
Q 27.828125 65.921875 22.671875 59.328125 
Q 17.53125 52.734375 16.796875 39.40625 
Q 19.671875 43.65625 24.015625 45.921875 
Q 28.375 48.1875 33.59375 48.1875 
Q 44.578125 48.1875 50.953125 41.515625 
Q 57.328125 34.859375 57.328125 23.390625 
Q 57.328125 12.15625 50.6875 5.359375 
Q 44.046875 -1.421875 33.015625 -1.421875 
Q 20.359375 -1.421875 13.671875 8.265625 
Q 6.984375 17.96875 6.984375 36.375 
Q 6.984375 53.65625 15.1875 63.9375 
Q 23.390625 74.21875 37.203125 74.21875 
Q 40.921875 74.21875 44.703125 73.484375 
Q 48.484375 72.75 52.59375 71.296875 
z
" id="DejaVuSans-54"/>
      </defs>
      <g transform="translate(347.93113 400.798437)scale(0.1 -0.1)">
       <use xlink:href="#DejaVuSans-48"/>
       <use x="63.623047" xlink:href="#DejaVuSans-46"/>
       <use x="95.410156" xlink:href="#DejaVuSans-54"/>
      </g>
     </g>
    </g>
    <g id="xtick_5">
     <g id="line2d_5">
      <g>
       <use style="stroke:#000000;stroke-width:0.8;" x="456.572596" xlink:href="#m3562ee4bea" y="386.2"/>
      </g>
     </g>
     <g id="text_5">
      <!-- 0.8 -->
      <defs>
       <path d="M 31.78125 34.625 
Q 24.75 34.625 20.71875 30.859375 
Q 16.703125 27.09375 16.703125 20.515625 
Q 16.703125 13.921875 20.71875 10.15625 
Q 24.75 6.390625 31.78125 6.390625 
Q 38.8125 6.390625 42.859375 10.171875 
Q 46.921875 13.96875 46.921875 20.515625 
Q 46.921875 27.09375 42.890625 30.859375 
Q 38.875 34.625 31.78125 34.625 
z
M 21.921875 38.8125 
Q 15.578125 40.375 12.03125 44.71875 
Q 8.5 49.078125 8.5 55.328125 
Q 8.5 64.0625 14.71875 69.140625 
Q 20.953125 74.21875 31.78125 74.21875 
Q 42.671875 74.21875 48.875 69.140625 
Q 55.078125 64.0625 55.078125 55.328125 
Q 55.078125 49.078125 51.53125 44.71875 
Q 48 40.375 41.703125 38.8125 
Q 48.828125 37.15625 52.796875 32.3125 
Q 56.78125 27.484375 56.78125 20.515625 
Q 56.78125 9.90625 50.3125 4.234375 
Q 43.84375 -1.421875 31.78125 -1.421875 
Q 19.734375 -1.421875 13.25 4.234375 
Q 6.78125 9.90625 6.78125 20.515625 
Q 6.78125 27.484375 10.78125 32.3125 
Q 14.796875 37.15625 21.921875 38.8125 
z
M 18.3125 54.390625 
Q 18.3125 48.734375 21.84375 45.5625 
Q 25.390625 42.390625 31.78125 42.390625 
Q 38.140625 42.390625 41.71875 45.5625 
Q 45.3125 48.734375 45.3125 54.390625 
Q 45.3125 60.0625 41.71875 63.234375 
Q 38.140625 66.40625 31.78125 66.40625 
Q 25.390625 66.40625 21.84375 63.234375 
Q 18.3125 60.0625 18.3125 54.390625 
z
" id="DejaVuSans-56"/>
      </defs>
      <g transform="translate(448.621034 400.798437)scale(0.1 -0.1)">
       <use xlink:href="#DejaVuSans-48"/>
       <use x="63.623047" xlink:href="#DejaVuSans-46"/>
       <use x="95.410156" xlink:href="#DejaVuSans-56"/>
      </g>
     </g>
    </g>
    <g id="xtick_6">
     <g id="line2d_6">
      <g>
       <use style="stroke:#000000;stroke-width:0.8;" x="557.2625" xlink:href="#m3562ee4bea" y="386.2"/>
      </g>
     </g>
     <g id="text_6">
      <!-- 1.0 -->
      <defs>
       <path d="M 12.40625 8.296875 
L 28.515625 8.296875 
L 28.515625 63.921875 
L 10.984375 60.40625 
L 10.984375 69.390625 
L 28.421875 72.90625 
L 38.28125 72.90625 
L 38.28125 8.296875 
L 54.390625 8.296875 
L 54.390625 0 
L 12.40625 0 
z
" id="DejaVuSans-49"/>
      </defs>
      <g transform="translate(549.310938 400.798437)scale(0.1 -0.1)">
       <use xlink:href="#DejaVuSans-49"/>
       <use x="63.623047" xlink:href="#DejaVuSans-46"/>
       <use x="95.410156" xlink:href="#DejaVuSans-48"/>
      </g>
     </g>
    </g>
    <g id="text_7">
     <!-- t -->
     <defs>
      <path d="M 18.3125 70.21875 
L 18.3125 54.6875 
L 36.8125 54.6875 
L 36.8125 47.703125 
L 18.3125 47.703125 
L 18.3125 18.015625 
Q 18.3125 11.328125 20.140625 9.421875 
Q 21.96875 7.515625 27.59375 7.515625 
L 36.8125 7.515625 
L 36.8125 0 
L 27.59375 0 
Q 17.1875 0 13.234375 3.875 
Q 9.28125 7.765625 9.28125 18.015625 
L 9.28125 47.703125 
L 2.6875 47.703125 
L 2.6875 54.6875 
L 9.28125 54.6875 
L 9.28125 70.21875 
z
" id="DejaVuSans-116"/>
     </defs>
     <g transform="translate(292.724531 417.515938)scale(0.14 -0.14)">
      <use xlink:href="#DejaVuSans-116"/>
     </g>
    </g>
   </g>
   <g id="matplotlib.axis_2">
    <g id="ytick_1">
     <g id="line2d_7">
      <defs>
       <path d="M 0 0 
L -3.5 0 
" id="m27a9ccc209" style="stroke:#000000;stroke-width:0.8;"/>
      </defs>
      <g>
       <use style="stroke:#000000;stroke-width:0.8;" x="33.675" xlink:href="#m27a9ccc209" y="386.2"/>
      </g>
     </g>
     <g id="text_8">
      <!-- 0.0 -->
      <g transform="translate(10.771875 389.999219)scale(0.1 -0.1)">
       <use xlink:href="#DejaVuSans-48"/>
       <use x="63.623047" xlink:href="#DejaVuSans-46"/>
       <use x="95.410156" xlink:href="#DejaVuSans-48"/>
      </g>
     </g>
    </g>
    <g id="ytick_2">
     <g id="line2d_8">
      <g>
       <use style="stroke:#000000;stroke-width:0.8;" x="33.675" xlink:href="#m27a9ccc209" y="334.547222"/>
      </g>
     </g>
     <g id="text_9">
      <!-- 0.1 -->
      <g transform="translate(10.771875 338.346441)scale(0.1 -0.1)">
       <use xlink:href="#DejaVuSans-48"/>
       <use x="63.623047" xlink:href="#DejaVuSans-46"/>
       <use x="95.410156" xlink:href="#DejaVuSans-49"/>
      </g>
     </g>
    </g>
    <g id="ytick_3">
     <g id="line2d_9">
      <g>
       <use style="stroke:#000000;stroke-width:0.8;" x="33.675" xlink:href="#m27a9ccc209" y="282.894444"/>
      </g>
     </g>
     <g id="text_10">
      <!-- 0.2 -->
      <g transform="translate(10.771875 286.693663)scale(0.1 -0.1)">
       <use xlink:href="#DejaVuSans-48"/>
       <use x="63.623047" xlink:href="#DejaVuSans-46"/>
       <use x="95.410156" xlink:href="#DejaVuSans-50"/>
      </g>
     </g>
    </g>
    <g id="ytick_4">
     <g id="line2d_10">
      <g>
       <use style="stroke:#000000;stroke-width:0.8;" x="33.675" xlink:href="#m27a9ccc209" y="231.241667"/>
      </g>
     </g>
     <g id="text_11">
      <!-- 0.3 -->
      <defs>
       <path d="M 40.578125 39.3125 
Q 47.65625 37.796875 51.625 33 
Q 55.609375 28.21875 55.609375 21.1875 
Q 55.609375 10.40625 48.1875 4.484375 
Q 40.765625 -1.421875 27.09375 -1.421875 
Q 22.515625 -1.421875 17.65625 -0.515625 
Q 12.796875 0.390625 7.625 2.203125 
L 7.625 11.71875 
Q 11.71875 9.328125 16.59375 8.109375 
Q 21.484375 6.890625 26.8125 6.890625 
Q 36.078125 6.890625 40.9375 10.546875 
Q 45.796875 14.203125 45.796875 21.1875 
Q 45.796875 27.640625 41.28125 31.265625 
Q 36.765625 34.90625 28.71875 34.90625 
L 20.21875 34.90625 
L 20.21875 43.015625 
L 29.109375 43.015625 
Q 36.375 43.015625 40.234375 45.921875 
Q 44.09375 48.828125 44.09375 54.296875 
Q 44.09375 59.90625 40.109375 62.90625 
Q 36.140625 65.921875 28.71875 65.921875 
Q 24.65625 65.921875 20.015625 65.03125 
Q 15.375 64.15625 9.8125 62.3125 
L 9.8125 71.09375 
Q 15.4375 72.65625 20.34375 73.4375 
Q 25.25 74.21875 29.59375 74.21875 
Q 40.828125 74.21875 47.359375 69.109375 
Q 53.90625 64.015625 53.90625 55.328125 
Q 53.90625 49.265625 50.4375 45.09375 
Q 46.96875 40.921875 40.578125 39.3125 
z
" id="DejaVuSans-51"/>
      </defs>
      <g transform="translate(10.771875 235.040885)scale(0.1 -0.1)">
       <use xlink:href="#DejaVuSans-48"/>
       <use x="63.623047" xlink:href="#DejaVuSans-46"/>
       <use x="95.410156" xlink:href="#DejaVuSans-51"/>
      </g>
     </g>
    </g>
    <g id="ytick_5">
     <g id="line2d_11">
      <g>
       <use style="stroke:#000000;stroke-width:0.8;" x="33.675" xlink:href="#m27a9ccc209" y="179.588889"/>
      </g>
     </g>
     <g id="text_12">
      <!-- 0.4 -->
      <g transform="translate(10.771875 183.388108)scale(0.1 -0.1)">
       <use xlink:href="#DejaVuSans-48"/>
       <use x="63.623047" xlink:href="#DejaVuSans-46"/>
       <use x="95.410156" xlink:href="#DejaVuSans-52"/>
      </g>
     </g>
    </g>
    <g id="ytick_6">
     <g id="line2d_12">
      <g>
       <use style="stroke:#000000;stroke-width:0.8;" x="33.675" xlink:href="#m27a9ccc209" y="127.936111"/>
      </g>
     </g>
     <g id="text_13">
      <!-- 0.5 -->
      <defs>
       <path d="M 10.796875 72.90625 
L 49.515625 72.90625 
L 49.515625 64.59375 
L 19.828125 64.59375 
L 19.828125 46.734375 
Q 21.96875 47.46875 24.109375 47.828125 
Q 26.265625 48.1875 28.421875 48.1875 
Q 40.625 48.1875 47.75 41.5 
Q 54.890625 34.8125 54.890625 23.390625 
Q 54.890625 11.625 47.5625 5.09375 
Q 40.234375 -1.421875 26.90625 -1.421875 
Q 22.3125 -1.421875 17.546875 -0.640625 
Q 12.796875 0.140625 7.71875 1.703125 
L 7.71875 11.625 
Q 12.109375 9.234375 16.796875 8.0625 
Q 21.484375 6.890625 26.703125 6.890625 
Q 35.15625 6.890625 40.078125 11.328125 
Q 45.015625 15.765625 45.015625 23.390625 
Q 45.015625 31 40.078125 35.4375 
Q 35.15625 39.890625 26.703125 39.890625 
Q 22.75 39.890625 18.8125 39.015625 
Q 14.890625 38.140625 10.796875 36.28125 
z
" id="DejaVuSans-53"/>
      </defs>
      <g transform="translate(10.771875 131.73533)scale(0.1 -0.1)">
       <use xlink:href="#DejaVuSans-48"/>
       <use x="63.623047" xlink:href="#DejaVuSans-46"/>
       <use x="95.410156" xlink:href="#DejaVuSans-53"/>
      </g>
     </g>
    </g>
    <g id="ytick_7">
     <g id="line2d_13">
      <g>
       <use style="stroke:#000000;stroke-width:0.8;" x="33.675" xlink:href="#m27a9ccc209" y="76.283333"/>
      </g>
     </g>
     <g id="text_14">
      <!-- 0.6 -->
      <g transform="translate(10.771875 80.082552)scale(0.1 -0.1)">
       <use xlink:href="#DejaVuSans-48"/>
       <use x="63.623047" xlink:href="#DejaVuSans-46"/>
       <use x="95.410156" xlink:href="#DejaVuSans-54"/>
      </g>
     </g>
    </g>
    <g id="ytick_8">
     <g id="line2d_14">
      <g>
       <use style="stroke:#000000;stroke-width:0.8;" x="33.675" xlink:href="#m27a9ccc209" y="24.630556"/>
      </g>
     </g>
     <g id="text_15">
      <!-- 0.7 -->
      <defs>
       <path d="M 8.203125 72.90625 
L 55.078125 72.90625 
L 55.078125 68.703125 
L 28.609375 0 
L 18.3125 0 
L 43.21875 64.59375 
L 8.203125 64.59375 
z
" id="DejaVuSans-55"/>
      </defs>
      <g transform="translate(10.771875 28.429774)scale(0.1 -0.1)">
       <use xlink:href="#DejaVuSans-48"/>
       <use x="63.623047" xlink:href="#DejaVuSans-46"/>
       <use x="95.410156" xlink:href="#DejaVuSans-55"/>
      </g>
     </g>
    </g>
   </g>
   <g id="line2d_15">
    <path clip-path="url(#p34bfa91359)" d="M 53.812981 386.2 
L 54.125119 212.79607 
L 54.457396 138.619276 
L 54.829949 101.255852 
L 55.26795 78.36721 
L 55.776434 62.759505 
L 56.320159 52.43755 
L 56.873954 45.856291 
L 57.427748 41.726111 
L 57.986577 39.112497 
L 58.550441 37.465403 
L 59.134442 36.410573 
L 59.753685 35.734473 
L 60.463549 35.289055 
L 61.359689 34.999832 
L 62.683761 34.826731 
L 65.311768 34.751098 
L 80.656909 34.741719 
L 557.2625 34.741719 
L 557.2625 34.741719 
" style="fill:none;stroke:#000000;stroke-linecap:square;stroke-width:1.5;"/>
   </g>
   <g id="line2d_16">
    <path clip-path="url(#p34bfa91359)" d="M 53.812981 386.2 
L 53.893533 386.088802 
L 54.104981 385.23477 
L 55.111881 380.893108 
L 57.442852 372.727314 
L 62.24576 356.596309 
L 67.063772 341.188063 
L 71.891853 326.487548 
L 76.730003 312.463757 
L 81.583256 299.073416 
L 86.446579 286.302896 
L 91.325004 274.112538 
L 96.223568 262.466211 
L 101.137236 251.35321 
L 106.071041 240.740282 
L 111.030019 230.597131 
L 116.014169 220.905697 
L 121.023492 211.648471 
L 126.063021 202.799876 
L 131.132758 194.344776 
L 136.237736 186.260678 
L 141.38299 178.527072 
L 146.56852 171.13225 
L 151.799361 164.058066 
L 157.080546 157.287965 
L 162.417111 150.806834 
L 167.81409 144.600873 
L 173.276517 138.65747 
L 178.809427 132.96509 
L 184.417855 127.513171 
L 190.111869 122.287537 
L 195.896504 117.28006 
L 201.776794 112.483247 
L 207.767844 107.882676 
L 213.874686 103.473273 
L 220.107391 99.246978 
L 226.481062 95.193727 
L 233.005768 91.308109 
L 239.691578 87.585489 
L 246.558629 84.016837 
L 253.616991 80.599768 
L 260.886803 77.327876 
L 268.3882 74.196283 
L 276.141323 71.201404 
L 284.166308 68.340723 
L 292.493363 65.60941 
L 301.152695 63.004348 
L 310.17451 60.523805 
L 319.594051 58.165922 
L 329.456627 55.927891 
L 339.807549 53.808645 
L 350.707231 51.805774 
L 362.221122 49.918085 
L 374.424738 48.144761 
L 387.408701 46.484967 
L 401.288804 44.937263 
L 416.195945 43.501454 
L 432.29626 42.176965 
L 449.806235 40.962804 
L 468.992696 39.858815 
L 490.213093 38.864468 
L 513.945703 37.979453 
L 540.860115 37.203365 
L 557.2625 36.824743 
L 557.2625 36.824743 
" style="fill:none;stroke:#000000;stroke-dasharray:5.55,2.4;stroke-dashoffset:0;stroke-width:1.5;"/>
   </g>
   <g id="patch_3">
    <path d="M 33.675 386.2 
L 33.675 14.3 
" style="fill:none;stroke:#000000;stroke-linecap:square;stroke-linejoin:miter;stroke-width:0.8;"/>
   </g>
   <g id="patch_4">
    <path d="M 557.2625 386.2 
L 557.2625 14.3 
" style="fill:none;stroke:#000000;stroke-linecap:square;stroke-linejoin:miter;stroke-width:0.8;"/>
   </g>
   <g id="patch_5">
    <path d="M 33.675 386.2 
L 557.2625 386.2 
" style="fill:none;stroke:#000000;stroke-linecap:square;stroke-linejoin:miter;stroke-width:0.8;"/>
   </g>
   <g id="patch_6">
    <path d="M 33.675 14.3 
L 557.2625 14.3 
" style="fill:none;stroke:#000000;stroke-linecap:square;stroke-linejoin:miter;stroke-width:0.8;"/>
   </g>
   <g id="axes_2">
    <g id="patch_7">
     <path d="M 330.710216 293.225 
L 532.090024 293.225 
L 532.090024 86.613889 
L 330.710216 86.613889 
z
" style="fill:#ffffff;"/>
    </g>
    <g id="matplotlib.axis_3">
     <g id="xtick_7">
      <g id="line2d_17">
       <g>
        <use style="stroke:#000000;stroke-width:0.8;" x="330.710216" xlink:href="#m3562ee4bea" y="293.225"/>
       </g>
      </g>
      <g id="text_16">
       <!-- $\mathdefault{10^{-5}}$ -->
       <defs>
        <path d="M 10.59375 35.5 
L 73.1875 35.5 
L 73.1875 27.203125 
L 10.59375 27.203125 
z
" id="DejaVuSans-8722"/>
       </defs>
       <g transform="translate(318.960216 307.823438)scale(0.1 -0.1)">
        <use transform="translate(0 0.684375)" xlink:href="#DejaVuSans-49"/>
        <use transform="translate(63.623047 0.684375)" xlink:href="#DejaVuSans-48"/>
        <use transform="translate(128.203125 38.965625)scale(0.7)" xlink:href="#DejaVuSans-8722"/>
        <use transform="translate(186.855469 38.965625)scale(0.7)" xlink:href="#DejaVuSans-53"/>
       </g>
      </g>
     </g>
     <g id="xtick_8">
      <g id="line2d_18">
       <g>
        <use style="stroke:#000000;stroke-width:0.8;" x="370.986178" xlink:href="#m3562ee4bea" y="293.225"/>
       </g>
      </g>
      <g id="text_17">
       <!-- $\mathdefault{10^{-4}}$ -->
       <g transform="translate(359.236178 307.823438)scale(0.1 -0.1)">
        <use transform="translate(0 0.684375)" xlink:href="#DejaVuSans-49"/>
        <use transform="translate(63.623047 0.684375)" xlink:href="#DejaVuSans-48"/>
        <use transform="translate(128.203125 38.965625)scale(0.7)" xlink:href="#DejaVuSans-8722"/>
        <use transform="translate(186.855469 38.965625)scale(0.7)" xlink:href="#DejaVuSans-52"/>
       </g>
      </g>
     </g>
     <g id="xtick_9">
      <g id="line2d_19">
       <g>
        <use style="stroke:#000000;stroke-width:0.8;" x="411.262139" xlink:href="#m3562ee4bea" y="293.225"/>
       </g>
      </g>
      <g id="text_18">
       <!-- $\mathdefault{10^{-3}}$ -->
       <g transform="translate(399.512139 307.823438)scale(0.1 -0.1)">
        <use transform="translate(0 0.765625)" xlink:href="#DejaVuSans-49"/>
        <use transform="translate(63.623047 0.765625)" xlink:href="#DejaVuSans-48"/>
        <use transform="translate(128.203125 39.046875)scale(0.7)" xlink:href="#DejaVuSans-8722"/>
        <use transform="translate(186.855469 39.046875)scale(0.7)" xlink:href="#DejaVuSans-51"/>
       </g>
      </g>
     </g>
     <g id="xtick_10">
      <g id="line2d_20">
       <g>
        <use style="stroke:#000000;stroke-width:0.8;" x="451.538101" xlink:href="#m3562ee4bea" y="293.225"/>
       </g>
      </g>
      <g id="text_19">
       <!-- $\mathdefault{10^{-2}}$ -->
       <g transform="translate(439.788101 307.823438)scale(0.1 -0.1)">
        <use transform="translate(0 0.765625)" xlink:href="#DejaVuSans-49"/>
        <use transform="translate(63.623047 0.765625)" xlink:href="#DejaVuSans-48"/>
        <use transform="translate(128.203125 39.046875)scale(0.7)" xlink:href="#DejaVuSans-8722"/>
        <use transform="translate(186.855469 39.046875)scale(0.7)" xlink:href="#DejaVuSans-50"/>
       </g>
      </g>
     </g>
     <g id="xtick_11">
      <g id="line2d_21">
       <g>
        <use style="stroke:#000000;stroke-width:0.8;" x="491.814062" xlink:href="#m3562ee4bea" y="293.225"/>
       </g>
      </g>
      <g id="text_20">
       <!-- $\mathdefault{10^{-1}}$ -->
       <g transform="translate(480.064062 307.823438)scale(0.1 -0.1)">
        <use transform="translate(0 0.684375)" xlink:href="#DejaVuSans-49"/>
        <use transform="translate(63.623047 0.684375)" xlink:href="#DejaVuSans-48"/>
        <use transform="translate(128.203125 38.965625)scale(0.7)" xlink:href="#DejaVuSans-8722"/>
        <use transform="translate(186.855469 38.965625)scale(0.7)" xlink:href="#DejaVuSans-49"/>
       </g>
      </g>
     </g>
     <g id="xtick_12">
      <g id="line2d_22">
       <g>
        <use style="stroke:#000000;stroke-width:0.8;" x="532.090024" xlink:href="#m3562ee4bea" y="293.225"/>
       </g>
      </g>
      <g id="text_21">
       <!-- $\mathdefault{10^{0}}$ -->
       <g transform="translate(523.290024 307.823438)scale(0.1 -0.1)">
        <use transform="translate(0 0.765625)" xlink:href="#DejaVuSans-49"/>
        <use transform="translate(63.623047 0.765625)" xlink:href="#DejaVuSans-48"/>
        <use transform="translate(128.203125 39.046875)scale(0.7)" xlink:href="#DejaVuSans-48"/>
       </g>
      </g>
     </g>
     <g id="xtick_13">
      <g id="line2d_23">
       <defs>
        <path d="M 0 0 
L 0 2 
" id="m2406ee2604" style="stroke:#000000;stroke-width:0.6;"/>
       </defs>
       <g>
        <use style="stroke:#000000;stroke-width:0.6;" x="342.834489" xlink:href="#m2406ee2604" y="293.225"/>
       </g>
      </g>
     </g>
     <g id="xtick_14">
      <g id="line2d_24">
       <g>
        <use style="stroke:#000000;stroke-width:0.6;" x="349.926734" xlink:href="#m2406ee2604" y="293.225"/>
       </g>
      </g>
     </g>
     <g id="xtick_15">
      <g id="line2d_25">
       <g>
        <use style="stroke:#000000;stroke-width:0.6;" x="354.958761" xlink:href="#m2406ee2604" y="293.225"/>
       </g>
      </g>
     </g>
     <g id="xtick_16">
      <g id="line2d_26">
       <g>
        <use style="stroke:#000000;stroke-width:0.6;" x="358.861905" xlink:href="#m2406ee2604" y="293.225"/>
       </g>
      </g>
     </g>
     <g id="xtick_17">
      <g id="line2d_27">
       <g>
        <use style="stroke:#000000;stroke-width:0.6;" x="362.051006" xlink:href="#m2406ee2604" y="293.225"/>
       </g>
      </g>
     </g>
     <g id="xtick_18">
      <g id="line2d_28">
       <g>
        <use style="stroke:#000000;stroke-width:0.6;" x="364.747353" xlink:href="#m2406ee2604" y="293.225"/>
       </g>
      </g>
     </g>
     <g id="xtick_19">
      <g id="line2d_29">
       <g>
        <use style="stroke:#000000;stroke-width:0.6;" x="367.083034" xlink:href="#m2406ee2604" y="293.225"/>
       </g>
      </g>
     </g>
     <g id="xtick_20">
      <g id="line2d_30">
       <g>
        <use style="stroke:#000000;stroke-width:0.6;" x="369.143251" xlink:href="#m2406ee2604" y="293.225"/>
       </g>
      </g>
     </g>
     <g id="xtick_21">
      <g id="line2d_31">
       <g>
        <use style="stroke:#000000;stroke-width:0.6;" x="383.11045" xlink:href="#m2406ee2604" y="293.225"/>
       </g>
      </g>
     </g>
     <g id="xtick_22">
      <g id="line2d_32">
       <g>
        <use style="stroke:#000000;stroke-width:0.6;" x="390.202695" xlink:href="#m2406ee2604" y="293.225"/>
       </g>
      </g>
     </g>
     <g id="xtick_23">
      <g id="line2d_33">
       <g>
        <use style="stroke:#000000;stroke-width:0.6;" x="395.234723" xlink:href="#m2406ee2604" y="293.225"/>
       </g>
      </g>
     </g>
     <g id="xtick_24">
      <g id="line2d_34">
       <g>
        <use style="stroke:#000000;stroke-width:0.6;" x="399.137867" xlink:href="#m2406ee2604" y="293.225"/>
       </g>
      </g>
     </g>
     <g id="xtick_25">
      <g id="line2d_35">
       <g>
        <use style="stroke:#000000;stroke-width:0.6;" x="402.326968" xlink:href="#m2406ee2604" y="293.225"/>
       </g>
      </g>
     </g>
     <g id="xtick_26">
      <g id="line2d_36">
       <g>
        <use style="stroke:#000000;stroke-width:0.6;" x="405.023314" xlink:href="#m2406ee2604" y="293.225"/>
       </g>
      </g>
     </g>
     <g id="xtick_27">
      <g id="line2d_37">
       <g>
        <use style="stroke:#000000;stroke-width:0.6;" x="407.358995" xlink:href="#m2406ee2604" y="293.225"/>
       </g>
      </g>
     </g>
     <g id="xtick_28">
      <g id="line2d_38">
       <g>
        <use style="stroke:#000000;stroke-width:0.6;" x="409.419212" xlink:href="#m2406ee2604" y="293.225"/>
       </g>
      </g>
     </g>
     <g id="xtick_29">
      <g id="line2d_39">
       <g>
        <use style="stroke:#000000;stroke-width:0.6;" x="423.386412" xlink:href="#m2406ee2604" y="293.225"/>
       </g>
      </g>
     </g>
     <g id="xtick_30">
      <g id="line2d_40">
       <g>
        <use style="stroke:#000000;stroke-width:0.6;" x="430.478657" xlink:href="#m2406ee2604" y="293.225"/>
       </g>
      </g>
     </g>
     <g id="xtick_31">
      <g id="line2d_41">
       <g>
        <use style="stroke:#000000;stroke-width:0.6;" x="435.510684" xlink:href="#m2406ee2604" y="293.225"/>
       </g>
      </g>
     </g>
     <g id="xtick_32">
      <g id="line2d_42">
       <g>
        <use style="stroke:#000000;stroke-width:0.6;" x="439.413828" xlink:href="#m2406ee2604" y="293.225"/>
       </g>
      </g>
     </g>
     <g id="xtick_33">
      <g id="line2d_43">
       <g>
        <use style="stroke:#000000;stroke-width:0.6;" x="442.602929" xlink:href="#m2406ee2604" y="293.225"/>
       </g>
      </g>
     </g>
     <g id="xtick_34">
      <g id="line2d_44">
       <g>
        <use style="stroke:#000000;stroke-width:0.6;" x="445.299276" xlink:href="#m2406ee2604" y="293.225"/>
       </g>
      </g>
     </g>
     <g id="xtick_35">
      <g id="line2d_45">
       <g>
        <use style="stroke:#000000;stroke-width:0.6;" x="447.634957" xlink:href="#m2406ee2604" y="293.225"/>
       </g>
      </g>
     </g>
     <g id="xtick_36">
      <g id="line2d_46">
       <g>
        <use style="stroke:#000000;stroke-width:0.6;" x="449.695174" xlink:href="#m2406ee2604" y="293.225"/>
       </g>
      </g>
     </g>
     <g id="xtick_37">
      <g id="line2d_47">
       <g>
        <use style="stroke:#000000;stroke-width:0.6;" x="463.662373" xlink:href="#m2406ee2604" y="293.225"/>
       </g>
      </g>
     </g>
     <g id="xtick_38">
      <g id="line2d_48">
       <g>
        <use style="stroke:#000000;stroke-width:0.6;" x="470.754618" xlink:href="#m2406ee2604" y="293.225"/>
       </g>
      </g>
     </g>
     <g id="xtick_39">
      <g id="line2d_49">
       <g>
        <use style="stroke:#000000;stroke-width:0.6;" x="475.786646" xlink:href="#m2406ee2604" y="293.225"/>
       </g>
      </g>
     </g>
     <g id="xtick_40">
      <g id="line2d_50">
       <g>
        <use style="stroke:#000000;stroke-width:0.6;" x="479.68979" xlink:href="#m2406ee2604" y="293.225"/>
       </g>
      </g>
     </g>
     <g id="xtick_41">
      <g id="line2d_51">
       <g>
        <use style="stroke:#000000;stroke-width:0.6;" x="482.878891" xlink:href="#m2406ee2604" y="293.225"/>
       </g>
      </g>
     </g>
     <g id="xtick_42">
      <g id="line2d_52">
       <g>
        <use style="stroke:#000000;stroke-width:0.6;" x="485.575237" xlink:href="#m2406ee2604" y="293.225"/>
       </g>
      </g>
     </g>
     <g id="xtick_43">
      <g id="line2d_53">
       <g>
        <use style="stroke:#000000;stroke-width:0.6;" x="487.910919" xlink:href="#m2406ee2604" y="293.225"/>
       </g>
      </g>
     </g>
     <g id="xtick_44">
      <g id="line2d_54">
       <g>
        <use style="stroke:#000000;stroke-width:0.6;" x="489.971136" xlink:href="#m2406ee2604" y="293.225"/>
       </g>
      </g>
     </g>
     <g id="xtick_45">
      <g id="line2d_55">
       <g>
        <use style="stroke:#000000;stroke-width:0.6;" x="503.938335" xlink:href="#m2406ee2604" y="293.225"/>
       </g>
      </g>
     </g>
     <g id="xtick_46">
      <g id="line2d_56">
       <g>
        <use style="stroke:#000000;stroke-width:0.6;" x="511.03058" xlink:href="#m2406ee2604" y="293.225"/>
       </g>
      </g>
     </g>
     <g id="xtick_47">
      <g id="line2d_57">
       <g>
        <use style="stroke:#000000;stroke-width:0.6;" x="516.062608" xlink:href="#m2406ee2604" y="293.225"/>
       </g>
      </g>
     </g>
     <g id="xtick_48">
      <g id="line2d_58">
       <g>
        <use style="stroke:#000000;stroke-width:0.6;" x="519.965752" xlink:href="#m2406ee2604" y="293.225"/>
       </g>
      </g>
     </g>
     <g id="xtick_49">
      <g id="line2d_59">
       <g>
        <use style="stroke:#000000;stroke-width:0.6;" x="523.154852" xlink:href="#m2406ee2604" y="293.225"/>
       </g>
      </g>
     </g>
     <g id="xtick_50">
      <g id="line2d_60">
       <g>
        <use style="stroke:#000000;stroke-width:0.6;" x="525.851199" xlink:href="#m2406ee2604" y="293.225"/>
       </g>
      </g>
     </g>
     <g id="xtick_51">
      <g id="line2d_61">
       <g>
        <use style="stroke:#000000;stroke-width:0.6;" x="528.18688" xlink:href="#m2406ee2604" y="293.225"/>
       </g>
      </g>
     </g>
     <g id="xtick_52">
      <g id="line2d_62">
       <g>
        <use style="stroke:#000000;stroke-width:0.6;" x="530.247097" xlink:href="#m2406ee2604" y="293.225"/>
       </g>
      </g>
     </g>
    </g>
    <g id="matplotlib.axis_4">
     <g id="ytick_9">
      <g id="line2d_63">
       <g>
        <use style="stroke:#000000;stroke-width:0.8;" x="330.710216" xlink:href="#m27a9ccc209" y="293.225"/>
       </g>
      </g>
      <g id="text_22">
       <!-- 0.0 -->
       <g transform="translate(307.807091 297.024219)scale(0.1 -0.1)">
        <use xlink:href="#DejaVuSans-48"/>
        <use x="63.623047" xlink:href="#DejaVuSans-46"/>
        <use x="95.410156" xlink:href="#DejaVuSans-48"/>
       </g>
      </g>
     </g>
     <g id="ytick_10">
      <g id="line2d_64">
       <g>
        <use style="stroke:#000000;stroke-width:0.8;" x="330.710216" xlink:href="#m27a9ccc209" y="263.709127"/>
       </g>
      </g>
      <g id="text_23">
       <!-- 0.1 -->
       <g transform="translate(307.807091 267.508346)scale(0.1 -0.1)">
        <use xlink:href="#DejaVuSans-48"/>
        <use x="63.623047" xlink:href="#DejaVuSans-46"/>
        <use x="95.410156" xlink:href="#DejaVuSans-49"/>
       </g>
      </g>
     </g>
     <g id="ytick_11">
      <g id="line2d_65">
       <g>
        <use style="stroke:#000000;stroke-width:0.8;" x="330.710216" xlink:href="#m27a9ccc209" y="234.193254"/>
       </g>
      </g>
      <g id="text_24">
       <!-- 0.2 -->
       <g transform="translate(307.807091 237.992473)scale(0.1 -0.1)">
        <use xlink:href="#DejaVuSans-48"/>
        <use x="63.623047" xlink:href="#DejaVuSans-46"/>
        <use x="95.410156" xlink:href="#DejaVuSans-50"/>
       </g>
      </g>
     </g>
     <g id="ytick_12">
      <g id="line2d_66">
       <g>
        <use style="stroke:#000000;stroke-width:0.8;" x="330.710216" xlink:href="#m27a9ccc209" y="204.677381"/>
       </g>
      </g>
      <g id="text_25">
       <!-- 0.3 -->
       <g transform="translate(307.807091 208.4766)scale(0.1 -0.1)">
        <use xlink:href="#DejaVuSans-48"/>
        <use x="63.623047" xlink:href="#DejaVuSans-46"/>
        <use x="95.410156" xlink:href="#DejaVuSans-51"/>
       </g>
      </g>
     </g>
     <g id="ytick_13">
      <g id="line2d_67">
       <g>
        <use style="stroke:#000000;stroke-width:0.8;" x="330.710216" xlink:href="#m27a9ccc209" y="175.161508"/>
       </g>
      </g>
      <g id="text_26">
       <!-- 0.4 -->
       <g transform="translate(307.807091 178.960727)scale(0.1 -0.1)">
        <use xlink:href="#DejaVuSans-48"/>
        <use x="63.623047" xlink:href="#DejaVuSans-46"/>
        <use x="95.410156" xlink:href="#DejaVuSans-52"/>
       </g>
      </g>
     </g>
     <g id="ytick_14">
      <g id="line2d_68">
       <g>
        <use style="stroke:#000000;stroke-width:0.8;" x="330.710216" xlink:href="#m27a9ccc209" y="145.645635"/>
       </g>
      </g>
      <g id="text_27">
       <!-- 0.5 -->
       <g transform="translate(307.807091 149.444854)scale(0.1 -0.1)">
        <use xlink:href="#DejaVuSans-48"/>
        <use x="63.623047" xlink:href="#DejaVuSans-46"/>
        <use x="95.410156" xlink:href="#DejaVuSans-53"/>
       </g>
      </g>
     </g>
     <g id="ytick_15">
      <g id="line2d_69">
       <g>
        <use style="stroke:#000000;stroke-width:0.8;" x="330.710216" xlink:href="#m27a9ccc209" y="116.129762"/>
       </g>
      </g>
      <g id="text_28">
       <!-- 0.6 -->
       <g transform="translate(307.807091 119.928981)scale(0.1 -0.1)">
        <use xlink:href="#DejaVuSans-48"/>
        <use x="63.623047" xlink:href="#DejaVuSans-46"/>
        <use x="95.410156" xlink:href="#DejaVuSans-54"/>
       </g>
      </g>
     </g>
     <g id="ytick_16">
      <g id="line2d_70">
       <g>
        <use style="stroke:#000000;stroke-width:0.8;" x="330.710216" xlink:href="#m27a9ccc209" y="86.613889"/>
       </g>
      </g>
      <g id="text_29">
       <!-- 0.7 -->
       <g transform="translate(307.807091 90.413108)scale(0.1 -0.1)">
        <use xlink:href="#DejaVuSans-48"/>
        <use x="63.623047" xlink:href="#DejaVuSans-46"/>
        <use x="95.410156" xlink:href="#DejaVuSans-55"/>
       </g>
      </g>
     </g>
    </g>
    <g id="line2d_71">
     <path clip-path="url(#p03c5487efc)" d="M -1 293.224711 
L 383.96387 293.121129 
L 396.499729 292.875791 
L 405.516069 292.475161 
L 413.399925 291.899073 
L 421.050731 291.11451 
L 427.635936 290.224344 
L 432.872547 289.301137 
L 437.296671 288.29931 
L 441.176108 287.196882 
L 444.714897 285.962436 
L 447.981337 284.588071 
L 451.023343 283.067021 
L 453.875969 281.393233 
L 456.59198 279.542168 
L 459.192605 277.500358 
L 461.702445 275.246338 
L 464.145408 272.751447 
L 466.535241 269.989912 
L 468.885759 266.930338 
L 471.209271 263.537019 
L 473.520792 259.762933 
L 475.830321 255.561052 
L 478.151274 250.870508 
L 480.496503 245.622017 
L 482.881806 239.729387 
L 485.323555 233.093551 
L 487.845202 225.583927 
L 490.484393 217.010076 
L 493.29897 207.091135 
L 496.407277 195.295509 
L 500.133306 180.234658 
L 511.355225 134.225111 
L 513.89256 125.14904 
L 516.068291 118.162024 
L 518.012865 112.639347 
L 519.793841 108.228598 
L 521.45323 104.693892 
L 523.021408 101.860825 
L 524.523147 99.594018 
L 525.981152 97.785706 
L 527.419689 96.34841 
L 528.867237 95.21182 
L 530.359652 94.320763 
L 531.94706 93.632714 
L 532.090024 93.581996 
L 532.090024 93.581996 
" style="fill:none;stroke:#000000;stroke-linecap:square;stroke-width:1.5;"/>
    </g>
    <g id="line2d_72">
     <path clip-path="url(#p03c5487efc)" d="M -1 290.777303 
L 330.710216 290.756873 
L 342.834489 288.327691 
L 349.926734 285.936795 
L 354.958761 283.583537 
L 358.861905 281.267282 
L 362.051006 278.987404 
L 364.747353 276.743288 
L 367.083034 274.53433 
L 369.143251 272.359935 
L 370.986178 270.21952 
L 374.175279 266.038343 
L 376.871625 261.986322 
L 379.207306 258.059133 
L 382.213247 252.393306 
L 384.777581 246.985468 
L 387.699628 240.154246 
L 390.202695 233.730284 
L 392.899042 226.232472 
L 396.088142 216.643331 
L 399.484247 205.697747 
L 404.257135 189.456167 
L 411.948174 163.210046 
L 415.30466 152.585565 
L 418.237383 144.018046 
L 420.950492 136.763893 
L 423.560459 130.399772 
L 426.207254 124.522204 
L 428.892964 119.090995 
L 431.607541 114.091853 
L 434.288262 109.615995 
L 436.775691 105.886719 
L 439.06045 102.852074 
L 441.176108 100.404568 
L 443.148242 98.454513 
L 445.047593 96.883736 
L 446.898123 95.636778 
L 448.757007 94.648564 
L 450.696047 93.871184 
L 452.770534 93.283023 
L 455.10214 92.858831 
L 457.928445 92.580123 
L 461.897015 92.431698 
L 470.54935 92.391999 
L 532.090024 92.391696 
L 532.090024 92.391696 
" style="fill:none;stroke:#000000;stroke-dasharray:5.55,2.4;stroke-dashoffset:0;stroke-width:1.5;"/>
    </g>
    <g id="patch_8">
     <path d="M 330.710216 293.225 
L 330.710216 86.613889 
" style="fill:none;stroke:#000000;stroke-linecap:square;stroke-linejoin:miter;stroke-width:0.8;"/>
    </g>
    <g id="patch_9">
     <path d="M 532.090024 293.225 
L 532.090024 86.613889 
" style="fill:none;stroke:#000000;stroke-linecap:square;stroke-linejoin:miter;stroke-width:0.8;"/>
    </g>
    <g id="patch_10">
     <path d="M 330.710216 293.225 
L 532.090024 293.225 
" style="fill:none;stroke:#000000;stroke-linecap:square;stroke-linejoin:miter;stroke-width:0.8;"/>
    </g>
    <g id="patch_11">
     <path d="M 330.710216 86.613889 
L 532.090024 86.613889 
" style="fill:none;stroke:#000000;stroke-linecap:square;stroke-linejoin:miter;stroke-width:0.8;"/>
    </g>
   </g>
   <g id="legend_1">
    <g id="patch_12">
     <path d="M 361.387187 379.2 
L 547.4625 379.2 
Q 550.2625 379.2 550.2625 376.4 
L 550.2625 336.70125 
Q 550.2625 333.90125 547.4625 333.90125 
L 361.387187 333.90125 
Q 358.587187 333.90125 358.587187 336.70125 
L 358.587187 376.4 
Q 358.587187 379.2 361.387187 379.2 
z
" style="fill:#ffffff;opacity:0.8;stroke:#cccccc;stroke-linejoin:miter;"/>
    </g>
    <g id="line2d_73">
     <path d="M 364.187187 345.239063 
L 392.187187 345.239063 
" style="fill:none;stroke:#000000;stroke-linecap:square;stroke-width:1.5;"/>
    </g>
    <g id="line2d_74"/>
    <g id="text_30">
     <!-- P2 (secular approx.) -->
     <defs>
      <path d="M 19.671875 64.796875 
L 19.671875 37.40625 
L 32.078125 37.40625 
Q 38.96875 37.40625 42.71875 40.96875 
Q 46.484375 44.53125 46.484375 51.125 
Q 46.484375 57.671875 42.71875 61.234375 
Q 38.96875 64.796875 32.078125 64.796875 
z
M 9.8125 72.90625 
L 32.078125 72.90625 
Q 44.34375 72.90625 50.609375 67.359375 
Q 56.890625 61.8125 56.890625 51.125 
Q 56.890625 40.328125 50.609375 34.8125 
Q 44.34375 29.296875 32.078125 29.296875 
L 19.671875 29.296875 
L 19.671875 0 
L 9.8125 0 
z
" id="DejaVuSans-80"/>
      <path id="DejaVuSans-32"/>
      <path d="M 31 75.875 
Q 24.46875 64.65625 21.28125 53.65625 
Q 18.109375 42.671875 18.109375 31.390625 
Q 18.109375 20.125 21.3125 9.0625 
Q 24.515625 -2 31 -13.1875 
L 23.1875 -13.1875 
Q 15.875 -1.703125 12.234375 9.375 
Q 8.59375 20.453125 8.59375 31.390625 
Q 8.59375 42.28125 12.203125 53.3125 
Q 15.828125 64.359375 23.1875 75.875 
z
" id="DejaVuSans-40"/>
      <path d="M 44.28125 53.078125 
L 44.28125 44.578125 
Q 40.484375 46.53125 36.375 47.5 
Q 32.28125 48.484375 27.875 48.484375 
Q 21.1875 48.484375 17.84375 46.4375 
Q 14.5 44.390625 14.5 40.28125 
Q 14.5 37.15625 16.890625 35.375 
Q 19.28125 33.59375 26.515625 31.984375 
L 29.59375 31.296875 
Q 39.15625 29.25 43.1875 25.515625 
Q 47.21875 21.78125 47.21875 15.09375 
Q 47.21875 7.46875 41.1875 3.015625 
Q 35.15625 -1.421875 24.609375 -1.421875 
Q 20.21875 -1.421875 15.453125 -0.5625 
Q 10.6875 0.296875 5.421875 2 
L 5.421875 11.28125 
Q 10.40625 8.6875 15.234375 7.390625 
Q 20.0625 6.109375 24.8125 6.109375 
Q 31.15625 6.109375 34.5625 8.28125 
Q 37.984375 10.453125 37.984375 14.40625 
Q 37.984375 18.0625 35.515625 20.015625 
Q 33.0625 21.96875 24.703125 23.78125 
L 21.578125 24.515625 
Q 13.234375 26.265625 9.515625 29.90625 
Q 5.8125 33.546875 5.8125 39.890625 
Q 5.8125 47.609375 11.28125 51.796875 
Q 16.75 56 26.8125 56 
Q 31.78125 56 36.171875 55.265625 
Q 40.578125 54.546875 44.28125 53.078125 
z
" id="DejaVuSans-115"/>
      <path d="M 56.203125 29.59375 
L 56.203125 25.203125 
L 14.890625 25.203125 
Q 15.484375 15.921875 20.484375 11.0625 
Q 25.484375 6.203125 34.421875 6.203125 
Q 39.59375 6.203125 44.453125 7.46875 
Q 49.3125 8.734375 54.109375 11.28125 
L 54.109375 2.78125 
Q 49.265625 0.734375 44.1875 -0.34375 
Q 39.109375 -1.421875 33.890625 -1.421875 
Q 20.796875 -1.421875 13.15625 6.1875 
Q 5.515625 13.8125 5.515625 26.8125 
Q 5.515625 40.234375 12.765625 48.109375 
Q 20.015625 56 32.328125 56 
Q 43.359375 56 49.78125 48.890625 
Q 56.203125 41.796875 56.203125 29.59375 
z
M 47.21875 32.234375 
Q 47.125 39.59375 43.09375 43.984375 
Q 39.0625 48.390625 32.421875 48.390625 
Q 24.90625 48.390625 20.390625 44.140625 
Q 15.875 39.890625 15.1875 32.171875 
z
" id="DejaVuSans-101"/>
      <path d="M 48.78125 52.59375 
L 48.78125 44.1875 
Q 44.96875 46.296875 41.140625 47.34375 
Q 37.3125 48.390625 33.40625 48.390625 
Q 24.65625 48.390625 19.8125 42.84375 
Q 14.984375 37.3125 14.984375 27.296875 
Q 14.984375 17.28125 19.8125 11.734375 
Q 24.65625 6.203125 33.40625 6.203125 
Q 37.3125 6.203125 41.140625 7.25 
Q 44.96875 8.296875 48.78125 10.40625 
L 48.78125 2.09375 
Q 45.015625 0.34375 40.984375 -0.53125 
Q 36.96875 -1.421875 32.421875 -1.421875 
Q 20.0625 -1.421875 12.78125 6.34375 
Q 5.515625 14.109375 5.515625 27.296875 
Q 5.515625 40.671875 12.859375 48.328125 
Q 20.21875 56 33.015625 56 
Q 37.15625 56 41.109375 55.140625 
Q 45.0625 54.296875 48.78125 52.59375 
z
" id="DejaVuSans-99"/>
      <path d="M 8.5 21.578125 
L 8.5 54.6875 
L 17.484375 54.6875 
L 17.484375 21.921875 
Q 17.484375 14.15625 20.5 10.265625 
Q 23.53125 6.390625 29.59375 6.390625 
Q 36.859375 6.390625 41.078125 11.03125 
Q 45.3125 15.671875 45.3125 23.6875 
L 45.3125 54.6875 
L 54.296875 54.6875 
L 54.296875 0 
L 45.3125 0 
L 45.3125 8.40625 
Q 42.046875 3.421875 37.71875 1 
Q 33.40625 -1.421875 27.6875 -1.421875 
Q 18.265625 -1.421875 13.375 4.4375 
Q 8.5 10.296875 8.5 21.578125 
z
M 31.109375 56 
z
" id="DejaVuSans-117"/>
      <path d="M 9.421875 75.984375 
L 18.40625 75.984375 
L 18.40625 0 
L 9.421875 0 
z
" id="DejaVuSans-108"/>
      <path d="M 34.28125 27.484375 
Q 23.390625 27.484375 19.1875 25 
Q 14.984375 22.515625 14.984375 16.5 
Q 14.984375 11.71875 18.140625 8.90625 
Q 21.296875 6.109375 26.703125 6.109375 
Q 34.1875 6.109375 38.703125 11.40625 
Q 43.21875 16.703125 43.21875 25.484375 
L 43.21875 27.484375 
z
M 52.203125 31.203125 
L 52.203125 0 
L 43.21875 0 
L 43.21875 8.296875 
Q 40.140625 3.328125 35.546875 0.953125 
Q 30.953125 -1.421875 24.3125 -1.421875 
Q 15.921875 -1.421875 10.953125 3.296875 
Q 6 8.015625 6 15.921875 
Q 6 25.140625 12.171875 29.828125 
Q 18.359375 34.515625 30.609375 34.515625 
L 43.21875 34.515625 
L 43.21875 35.40625 
Q 43.21875 41.609375 39.140625 45 
Q 35.0625 48.390625 27.6875 48.390625 
Q 23 48.390625 18.546875 47.265625 
Q 14.109375 46.140625 10.015625 43.890625 
L 10.015625 52.203125 
Q 14.9375 54.109375 19.578125 55.046875 
Q 24.21875 56 28.609375 56 
Q 40.484375 56 46.34375 49.84375 
Q 52.203125 43.703125 52.203125 31.203125 
z
" id="DejaVuSans-97"/>
      <path d="M 41.109375 46.296875 
Q 39.59375 47.171875 37.8125 47.578125 
Q 36.03125 48 33.890625 48 
Q 26.265625 48 22.1875 43.046875 
Q 18.109375 38.09375 18.109375 28.8125 
L 18.109375 0 
L 9.078125 0 
L 9.078125 54.6875 
L 18.109375 54.6875 
L 18.109375 46.1875 
Q 20.953125 51.171875 25.484375 53.578125 
Q 30.03125 56 36.53125 56 
Q 37.453125 56 38.578125 55.875 
Q 39.703125 55.765625 41.0625 55.515625 
z
" id="DejaVuSans-114"/>
      <path d="M 18.109375 8.203125 
L 18.109375 -20.796875 
L 9.078125 -20.796875 
L 9.078125 54.6875 
L 18.109375 54.6875 
L 18.109375 46.390625 
Q 20.953125 51.265625 25.265625 53.625 
Q 29.59375 56 35.59375 56 
Q 45.5625 56 51.78125 48.09375 
Q 58.015625 40.1875 58.015625 27.296875 
Q 58.015625 14.40625 51.78125 6.484375 
Q 45.5625 -1.421875 35.59375 -1.421875 
Q 29.59375 -1.421875 25.265625 0.953125 
Q 20.953125 3.328125 18.109375 8.203125 
z
M 48.6875 27.296875 
Q 48.6875 37.203125 44.609375 42.84375 
Q 40.53125 48.484375 33.40625 48.484375 
Q 26.265625 48.484375 22.1875 42.84375 
Q 18.109375 37.203125 18.109375 27.296875 
Q 18.109375 17.390625 22.1875 11.75 
Q 26.265625 6.109375 33.40625 6.109375 
Q 40.53125 6.109375 44.609375 11.75 
Q 48.6875 17.390625 48.6875 27.296875 
z
" id="DejaVuSans-112"/>
      <path d="M 30.609375 48.390625 
Q 23.390625 48.390625 19.1875 42.75 
Q 14.984375 37.109375 14.984375 27.296875 
Q 14.984375 17.484375 19.15625 11.84375 
Q 23.34375 6.203125 30.609375 6.203125 
Q 37.796875 6.203125 41.984375 11.859375 
Q 46.1875 17.53125 46.1875 27.296875 
Q 46.1875 37.015625 41.984375 42.703125 
Q 37.796875 48.390625 30.609375 48.390625 
z
M 30.609375 56 
Q 42.328125 56 49.015625 48.375 
Q 55.71875 40.765625 55.71875 27.296875 
Q 55.71875 13.875 49.015625 6.21875 
Q 42.328125 -1.421875 30.609375 -1.421875 
Q 18.84375 -1.421875 12.171875 6.21875 
Q 5.515625 13.875 5.515625 27.296875 
Q 5.515625 40.765625 12.171875 48.375 
Q 18.84375 56 30.609375 56 
z
" id="DejaVuSans-111"/>
      <path d="M 54.890625 54.6875 
L 35.109375 28.078125 
L 55.90625 0 
L 45.3125 0 
L 29.390625 21.484375 
L 13.484375 0 
L 2.875 0 
L 24.125 28.609375 
L 4.6875 54.6875 
L 15.28125 54.6875 
L 29.78125 35.203125 
L 44.28125 54.6875 
z
" id="DejaVuSans-120"/>
      <path d="M 8.015625 75.875 
L 15.828125 75.875 
Q 23.140625 64.359375 26.78125 53.3125 
Q 30.421875 42.28125 30.421875 31.390625 
Q 30.421875 20.453125 26.78125 9.375 
Q 23.140625 -1.703125 15.828125 -13.1875 
L 8.015625 -13.1875 
Q 14.5 -2 17.703125 9.0625 
Q 20.90625 20.125 20.90625 31.390625 
Q 20.90625 42.671875 17.703125 53.65625 
Q 14.5 64.65625 8.015625 75.875 
z
" id="DejaVuSans-41"/>
     </defs>
     <g transform="translate(403.387187 350.139063)scale(0.14 -0.14)">
      <use xlink:href="#DejaVuSans-80"/>
      <use x="60.302734" xlink:href="#DejaVuSans-50"/>
      <use x="123.925781" xlink:href="#DejaVuSans-32"/>
      <use x="155.712891" xlink:href="#DejaVuSans-40"/>
      <use x="194.726562" xlink:href="#DejaVuSans-115"/>
      <use x="246.826172" xlink:href="#DejaVuSans-101"/>
      <use x="308.349609" xlink:href="#DejaVuSans-99"/>
      <use x="363.330078" xlink:href="#DejaVuSans-117"/>
      <use x="426.708984" xlink:href="#DejaVuSans-108"/>
      <use x="454.492188" xlink:href="#DejaVuSans-97"/>
      <use x="515.771484" xlink:href="#DejaVuSans-114"/>
      <use x="556.884766" xlink:href="#DejaVuSans-32"/>
      <use x="588.671875" xlink:href="#DejaVuSans-97"/>
      <use x="649.951172" xlink:href="#DejaVuSans-112"/>
      <use x="713.427734" xlink:href="#DejaVuSans-112"/>
      <use x="776.904297" xlink:href="#DejaVuSans-114"/>
      <use x="817.986328" xlink:href="#DejaVuSans-111"/>
      <use x="879.121094" xlink:href="#DejaVuSans-120"/>
      <use x="938.300781" xlink:href="#DejaVuSans-46"/>
      <use x="970.087891" xlink:href="#DejaVuSans-41"/>
     </g>
    </g>
    <g id="line2d_75">
     <path d="M 364.187187 365.788437 
L 392.187187 365.788437 
" style="fill:none;stroke:#000000;stroke-dasharray:5.55,2.4;stroke-dashoffset:0;stroke-width:1.5;"/>
    </g>
    <g id="line2d_76"/>
    <g id="text_31">
     <!-- P2 (no approx.) -->
     <defs>
      <path d="M 54.890625 33.015625 
L 54.890625 0 
L 45.90625 0 
L 45.90625 32.71875 
Q 45.90625 40.484375 42.875 44.328125 
Q 39.84375 48.1875 33.796875 48.1875 
Q 26.515625 48.1875 22.3125 43.546875 
Q 18.109375 38.921875 18.109375 30.90625 
L 18.109375 0 
L 9.078125 0 
L 9.078125 54.6875 
L 18.109375 54.6875 
L 18.109375 46.1875 
Q 21.34375 51.125 25.703125 53.5625 
Q 30.078125 56 35.796875 56 
Q 45.21875 56 50.046875 50.171875 
Q 54.890625 44.34375 54.890625 33.015625 
z
" id="DejaVuSans-110"/>
     </defs>
     <g transform="translate(403.387187 370.688437)scale(0.14 -0.14)">
      <use xlink:href="#DejaVuSans-80"/>
      <use x="60.302734" xlink:href="#DejaVuSans-50"/>
      <use x="123.925781" xlink:href="#DejaVuSans-32"/>
      <use x="155.712891" xlink:href="#DejaVuSans-40"/>
      <use x="194.726562" xlink:href="#DejaVuSans-110"/>
      <use x="258.105469" xlink:href="#DejaVuSans-111"/>
      <use x="319.287109" xlink:href="#DejaVuSans-32"/>
      <use x="351.074219" xlink:href="#DejaVuSans-97"/>
      <use x="412.353516" xlink:href="#DejaVuSans-112"/>
      <use x="475.830078" xlink:href="#DejaVuSans-112"/>
      <use x="539.306641" xlink:href="#DejaVuSans-114"/>
      <use x="580.388672" xlink:href="#DejaVuSans-111"/>
      <use x="641.523438" xlink:href="#DejaVuSans-120"/>
      <use x="700.703125" xlink:href="#DejaVuSans-46"/>
      <use x="732.490234" xlink:href="#DejaVuSans-41"/>
     </g>
    </g>
   </g>
  </g>
 </g>
 <defs>
  <clipPath id="p34bfa91359">
   <rect height="371.9" width="523.5875" x="33.675" y="14.3"/>
  </clipPath>
  <clipPath id="p03c5487efc">
   <rect height="206.611111" width="201.379808" x="330.710216" y="86.613889"/>
  </clipPath>
 </defs>
</svg>
