<?xml version="1.0" encoding="utf-8" standalone="no"?>
<!DOCTYPE svg PUBLIC "-//W3C//DTD SVG 1.1//EN"
  "http://www.w3.org/Graphics/SVG/1.1/DTD/svg11.dtd">
<!-- Created with matplotlib (https://matplotlib.org/) -->
<svg height="432pt" version="1.1" viewBox="0 0 576 432" width="576pt" xmlns="http://www.w3.org/2000/svg" xmlns:xlink="http://www.w3.org/1999/xlink">
 <defs>
  <style type="text/css">
*{stroke-linecap:butt;stroke-linejoin:round;}
  </style>
 </defs>
 <g id="figure_1">
  <g id="patch_1">
   <path d="M 0 432 
L 576 432 
L 576 0 
L 0 0 
z
" style="fill:#ffffff;"/>
  </g>
  <g id="axes_1">
   <g id="patch_2">
    <path d="M 60.05 386.2 
L 557.2625 386.2 
L 557.2625 14.8 
L 60.05 14.8 
z
" style="fill:#ffffff;"/>
   </g>
   <g id="matplotlib.axis_1">
    <g id="xtick_1">
     <g id="line2d_1">
      <defs>
       <path d="M 0 0 
L 0 3.5 
" id="mdb476cba30" style="stroke:#000000;stroke-width:0.8;"/>
      </defs>
      <g>
       <use style="stroke:#000000;stroke-width:0.8;" x="69.799265" xlink:href="#mdb476cba30" y="386.2"/>
      </g>
     </g>
     <g id="text_1">
      <!-- 0.0 -->
      <defs>
       <path d="M 31.78125 66.40625 
Q 24.171875 66.40625 20.328125 58.90625 
Q 16.5 51.421875 16.5 36.375 
Q 16.5 21.390625 20.328125 13.890625 
Q 24.171875 6.390625 31.78125 6.390625 
Q 39.453125 6.390625 43.28125 13.890625 
Q 47.125 21.390625 47.125 36.375 
Q 47.125 51.421875 43.28125 58.90625 
Q 39.453125 66.40625 31.78125 66.40625 
z
M 31.78125 74.21875 
Q 44.046875 74.21875 50.515625 64.515625 
Q 56.984375 54.828125 56.984375 36.375 
Q 56.984375 17.96875 50.515625 8.265625 
Q 44.046875 -1.421875 31.78125 -1.421875 
Q 19.53125 -1.421875 13.0625 8.265625 
Q 6.59375 17.96875 6.59375 36.375 
Q 6.59375 54.828125 13.0625 64.515625 
Q 19.53125 74.21875 31.78125 74.21875 
z
" id="DejaVuSans-48"/>
       <path d="M 10.6875 12.40625 
L 21 12.40625 
L 21 0 
L 10.6875 0 
z
" id="DejaVuSans-46"/>
      </defs>
      <g transform="translate(61.847702 400.798437)scale(0.1 -0.1)">
       <use xlink:href="#DejaVuSans-48"/>
       <use x="63.623047" xlink:href="#DejaVuSans-46"/>
       <use x="95.410156" xlink:href="#DejaVuSans-48"/>
      </g>
     </g>
    </g>
    <g id="xtick_2">
     <g id="line2d_2">
      <g>
       <use style="stroke:#000000;stroke-width:0.8;" x="167.291912" xlink:href="#mdb476cba30" y="386.2"/>
      </g>
     </g>
     <g id="text_2">
      <!-- 0.2 -->
      <defs>
       <path d="M 19.1875 8.296875 
L 53.609375 8.296875 
L 53.609375 0 
L 7.328125 0 
L 7.328125 8.296875 
Q 12.9375 14.109375 22.625 23.890625 
Q 32.328125 33.6875 34.8125 36.53125 
Q 39.546875 41.84375 41.421875 45.53125 
Q 43.3125 49.21875 43.3125 52.78125 
Q 43.3125 58.59375 39.234375 62.25 
Q 35.15625 65.921875 28.609375 65.921875 
Q 23.96875 65.921875 18.8125 64.3125 
Q 13.671875 62.703125 7.8125 59.421875 
L 7.8125 69.390625 
Q 13.765625 71.78125 18.9375 73 
Q 24.125 74.21875 28.421875 74.21875 
Q 39.75 74.21875 46.484375 68.546875 
Q 53.21875 62.890625 53.21875 53.421875 
Q 53.21875 48.921875 51.53125 44.890625 
Q 49.859375 40.875 45.40625 35.40625 
Q 44.1875 33.984375 37.640625 27.21875 
Q 31.109375 20.453125 19.1875 8.296875 
z
" id="DejaVuSans-50"/>
      </defs>
      <g transform="translate(159.340349 400.798437)scale(0.1 -0.1)">
       <use xlink:href="#DejaVuSans-48"/>
       <use x="63.623047" xlink:href="#DejaVuSans-46"/>
       <use x="95.410156" xlink:href="#DejaVuSans-50"/>
      </g>
     </g>
    </g>
    <g id="xtick_3">
     <g id="line2d_3">
      <g>
       <use style="stroke:#000000;stroke-width:0.8;" x="264.784559" xlink:href="#mdb476cba30" y="386.2"/>
      </g>
     </g>
     <g id="text_3">
      <!-- 0.4 -->
      <defs>
       <path d="M 37.796875 64.3125 
L 12.890625 25.390625 
L 37.796875 25.390625 
z
M 35.203125 72.90625 
L 47.609375 72.90625 
L 47.609375 25.390625 
L 58.015625 25.390625 
L 58.015625 17.1875 
L 47.609375 17.1875 
L 47.609375 0 
L 37.796875 0 
L 37.796875 17.1875 
L 4.890625 17.1875 
L 4.890625 26.703125 
z
" id="DejaVuSans-52"/>
      </defs>
      <g transform="translate(256.832996 400.798437)scale(0.1 -0.1)">
       <use xlink:href="#DejaVuSans-48"/>
       <use x="63.623047" xlink:href="#DejaVuSans-46"/>
       <use x="95.410156" xlink:href="#DejaVuSans-52"/>
      </g>
     </g>
    </g>
    <g id="xtick_4">
     <g id="line2d_4">
      <g>
       <use style="stroke:#000000;stroke-width:0.8;" x="362.277206" xlink:href="#mdb476cba30" y="386.2"/>
      </g>
     </g>
     <g id="text_4">
      <!-- 0.6 -->
      <defs>
       <path d="M 33.015625 40.375 
Q 26.375 40.375 22.484375 35.828125 
Q 18.609375 31.296875 18.609375 23.390625 
Q 18.609375 15.53125 22.484375 10.953125 
Q 26.375 6.390625 33.015625 6.390625 
Q 39.65625 6.390625 43.53125 10.953125 
Q 47.40625 15.53125 47.40625 23.390625 
Q 47.40625 31.296875 43.53125 35.828125 
Q 39.65625 40.375 33.015625 40.375 
z
M 52.59375 71.296875 
L 52.59375 62.3125 
Q 48.875 64.0625 45.09375 64.984375 
Q 41.3125 65.921875 37.59375 65.921875 
Q 27.828125 65.921875 22.671875 59.328125 
Q 17.53125 52.734375 16.796875 39.40625 
Q 19.671875 43.65625 24.015625 45.921875 
Q 28.375 48.1875 33.59375 48.1875 
Q 44.578125 48.1875 50.953125 41.515625 
Q 57.328125 34.859375 57.328125 23.390625 
Q 57.328125 12.15625 50.6875 5.359375 
Q 44.046875 -1.421875 33.015625 -1.421875 
Q 20.359375 -1.421875 13.671875 8.265625 
Q 6.984375 17.96875 6.984375 36.375 
Q 6.984375 53.65625 15.1875 63.9375 
Q 23.390625 74.21875 37.203125 74.21875 
Q 40.921875 74.21875 44.703125 73.484375 
Q 48.484375 72.75 52.59375 71.296875 
z
" id="DejaVuSans-54"/>
      </defs>
      <g transform="translate(354.325643 400.798437)scale(0.1 -0.1)">
       <use xlink:href="#DejaVuSans-48"/>
       <use x="63.623047" xlink:href="#DejaVuSans-46"/>
       <use x="95.410156" xlink:href="#DejaVuSans-54"/>
      </g>
     </g>
    </g>
    <g id="xtick_5">
     <g id="line2d_5">
      <g>
       <use style="stroke:#000000;stroke-width:0.8;" x="459.769853" xlink:href="#mdb476cba30" y="386.2"/>
      </g>
     </g>
     <g id="text_5">
      <!-- 0.8 -->
      <defs>
       <path d="M 31.78125 34.625 
Q 24.75 34.625 20.71875 30.859375 
Q 16.703125 27.09375 16.703125 20.515625 
Q 16.703125 13.921875 20.71875 10.15625 
Q 24.75 6.390625 31.78125 6.390625 
Q 38.8125 6.390625 42.859375 10.171875 
Q 46.921875 13.96875 46.921875 20.515625 
Q 46.921875 27.09375 42.890625 30.859375 
Q 38.875 34.625 31.78125 34.625 
z
M 21.921875 38.8125 
Q 15.578125 40.375 12.03125 44.71875 
Q 8.5 49.078125 8.5 55.328125 
Q 8.5 64.0625 14.71875 69.140625 
Q 20.953125 74.21875 31.78125 74.21875 
Q 42.671875 74.21875 48.875 69.140625 
Q 55.078125 64.0625 55.078125 55.328125 
Q 55.078125 49.078125 51.53125 44.71875 
Q 48 40.375 41.703125 38.8125 
Q 48.828125 37.15625 52.796875 32.3125 
Q 56.78125 27.484375 56.78125 20.515625 
Q 56.78125 9.90625 50.3125 4.234375 
Q 43.84375 -1.421875 31.78125 -1.421875 
Q 19.734375 -1.421875 13.25 4.234375 
Q 6.78125 9.90625 6.78125 20.515625 
Q 6.78125 27.484375 10.78125 32.3125 
Q 14.796875 37.15625 21.921875 38.8125 
z
M 18.3125 54.390625 
Q 18.3125 48.734375 21.84375 45.5625 
Q 25.390625 42.390625 31.78125 42.390625 
Q 38.140625 42.390625 41.71875 45.5625 
Q 45.3125 48.734375 45.3125 54.390625 
Q 45.3125 60.0625 41.71875 63.234375 
Q 38.140625 66.40625 31.78125 66.40625 
Q 25.390625 66.40625 21.84375 63.234375 
Q 18.3125 60.0625 18.3125 54.390625 
z
" id="DejaVuSans-56"/>
      </defs>
      <g transform="translate(451.81829 400.798437)scale(0.1 -0.1)">
       <use xlink:href="#DejaVuSans-48"/>
       <use x="63.623047" xlink:href="#DejaVuSans-46"/>
       <use x="95.410156" xlink:href="#DejaVuSans-56"/>
      </g>
     </g>
    </g>
    <g id="xtick_6">
     <g id="line2d_6">
      <g>
       <use style="stroke:#000000;stroke-width:0.8;" x="557.2625" xlink:href="#mdb476cba30" y="386.2"/>
      </g>
     </g>
     <g id="text_6">
      <!-- 1.0 -->
      <defs>
       <path d="M 12.40625 8.296875 
L 28.515625 8.296875 
L 28.515625 63.921875 
L 10.984375 60.40625 
L 10.984375 69.390625 
L 28.421875 72.90625 
L 38.28125 72.90625 
L 38.28125 8.296875 
L 54.390625 8.296875 
L 54.390625 0 
L 12.40625 0 
z
" id="DejaVuSans-49"/>
      </defs>
      <g transform="translate(549.310938 400.798437)scale(0.1 -0.1)">
       <use xlink:href="#DejaVuSans-49"/>
       <use x="63.623047" xlink:href="#DejaVuSans-46"/>
       <use x="95.410156" xlink:href="#DejaVuSans-48"/>
      </g>
     </g>
    </g>
    <g id="text_7">
     <!-- t -->
     <defs>
      <path d="M 18.3125 70.21875 
L 18.3125 54.6875 
L 36.8125 54.6875 
L 36.8125 47.703125 
L 18.3125 47.703125 
L 18.3125 18.015625 
Q 18.3125 11.328125 20.140625 9.421875 
Q 21.96875 7.515625 27.59375 7.515625 
L 36.8125 7.515625 
L 36.8125 0 
L 27.59375 0 
Q 17.1875 0 13.234375 3.875 
Q 9.28125 7.765625 9.28125 18.015625 
L 9.28125 47.703125 
L 2.6875 47.703125 
L 2.6875 54.6875 
L 9.28125 54.6875 
L 9.28125 70.21875 
z
" id="DejaVuSans-116"/>
     </defs>
     <g transform="translate(305.912031 417.515938)scale(0.14 -0.14)">
      <use xlink:href="#DejaVuSans-116"/>
     </g>
    </g>
   </g>
   <g id="matplotlib.axis_2">
    <g id="ytick_1">
     <g id="line2d_7">
      <defs>
       <path d="M 0 0 
L -3.5 0 
" id="mdf5d32c1a0" style="stroke:#000000;stroke-width:0.8;"/>
      </defs>
      <g>
       <use style="stroke:#000000;stroke-width:0.8;" x="60.05" xlink:href="#mdf5d32c1a0" y="364.352941"/>
      </g>
     </g>
     <g id="text_8">
      <!-- −0.3 -->
      <defs>
       <path d="M 10.59375 35.5 
L 73.1875 35.5 
L 73.1875 27.203125 
L 10.59375 27.203125 
z
" id="DejaVuSans-8722"/>
       <path d="M 40.578125 39.3125 
Q 47.65625 37.796875 51.625 33 
Q 55.609375 28.21875 55.609375 21.1875 
Q 55.609375 10.40625 48.1875 4.484375 
Q 40.765625 -1.421875 27.09375 -1.421875 
Q 22.515625 -1.421875 17.65625 -0.515625 
Q 12.796875 0.390625 7.625 2.203125 
L 7.625 11.71875 
Q 11.71875 9.328125 16.59375 8.109375 
Q 21.484375 6.890625 26.8125 6.890625 
Q 36.078125 6.890625 40.9375 10.546875 
Q 45.796875 14.203125 45.796875 21.1875 
Q 45.796875 27.640625 41.28125 31.265625 
Q 36.765625 34.90625 28.71875 34.90625 
L 20.21875 34.90625 
L 20.21875 43.015625 
L 29.109375 43.015625 
Q 36.375 43.015625 40.234375 45.921875 
Q 44.09375 48.828125 44.09375 54.296875 
Q 44.09375 59.90625 40.109375 62.90625 
Q 36.140625 65.921875 28.71875 65.921875 
Q 24.65625 65.921875 20.015625 65.03125 
Q 15.375 64.15625 9.8125 62.3125 
L 9.8125 71.09375 
Q 15.4375 72.65625 20.34375 73.4375 
Q 25.25 74.21875 29.59375 74.21875 
Q 40.828125 74.21875 47.359375 69.109375 
Q 53.90625 64.015625 53.90625 55.328125 
Q 53.90625 49.265625 50.4375 45.09375 
Q 46.96875 40.921875 40.578125 39.3125 
z
" id="DejaVuSans-51"/>
      </defs>
      <g transform="translate(28.767188 368.15216)scale(0.1 -0.1)">
       <use xlink:href="#DejaVuSans-8722"/>
       <use x="83.789062" xlink:href="#DejaVuSans-48"/>
       <use x="147.412109" xlink:href="#DejaVuSans-46"/>
       <use x="179.199219" xlink:href="#DejaVuSans-51"/>
      </g>
     </g>
    </g>
    <g id="ytick_2">
     <g id="line2d_8">
      <g>
       <use style="stroke:#000000;stroke-width:0.8;" x="60.05" xlink:href="#mdf5d32c1a0" y="320.658824"/>
      </g>
     </g>
     <g id="text_9">
      <!-- −0.2 -->
      <g transform="translate(28.767188 324.458042)scale(0.1 -0.1)">
       <use xlink:href="#DejaVuSans-8722"/>
       <use x="83.789062" xlink:href="#DejaVuSans-48"/>
       <use x="147.412109" xlink:href="#DejaVuSans-46"/>
       <use x="179.199219" xlink:href="#DejaVuSans-50"/>
      </g>
     </g>
    </g>
    <g id="ytick_3">
     <g id="line2d_9">
      <g>
       <use style="stroke:#000000;stroke-width:0.8;" x="60.05" xlink:href="#mdf5d32c1a0" y="276.964706"/>
      </g>
     </g>
     <g id="text_10">
      <!-- −0.1 -->
      <g transform="translate(28.767188 280.763925)scale(0.1 -0.1)">
       <use xlink:href="#DejaVuSans-8722"/>
       <use x="83.789062" xlink:href="#DejaVuSans-48"/>
       <use x="147.412109" xlink:href="#DejaVuSans-46"/>
       <use x="179.199219" xlink:href="#DejaVuSans-49"/>
      </g>
     </g>
    </g>
    <g id="ytick_4">
     <g id="line2d_10">
      <g>
       <use style="stroke:#000000;stroke-width:0.8;" x="60.05" xlink:href="#mdf5d32c1a0" y="233.270588"/>
      </g>
     </g>
     <g id="text_11">
      <!-- 0.0 -->
      <g transform="translate(37.146875 237.069807)scale(0.1 -0.1)">
       <use xlink:href="#DejaVuSans-48"/>
       <use x="63.623047" xlink:href="#DejaVuSans-46"/>
       <use x="95.410156" xlink:href="#DejaVuSans-48"/>
      </g>
     </g>
    </g>
    <g id="ytick_5">
     <g id="line2d_11">
      <g>
       <use style="stroke:#000000;stroke-width:0.8;" x="60.05" xlink:href="#mdf5d32c1a0" y="189.576471"/>
      </g>
     </g>
     <g id="text_12">
      <!-- 0.1 -->
      <g transform="translate(37.146875 193.375689)scale(0.1 -0.1)">
       <use xlink:href="#DejaVuSans-48"/>
       <use x="63.623047" xlink:href="#DejaVuSans-46"/>
       <use x="95.410156" xlink:href="#DejaVuSans-49"/>
      </g>
     </g>
    </g>
    <g id="ytick_6">
     <g id="line2d_12">
      <g>
       <use style="stroke:#000000;stroke-width:0.8;" x="60.05" xlink:href="#mdf5d32c1a0" y="145.882353"/>
      </g>
     </g>
     <g id="text_13">
      <!-- 0.2 -->
      <g transform="translate(37.146875 149.681572)scale(0.1 -0.1)">
       <use xlink:href="#DejaVuSans-48"/>
       <use x="63.623047" xlink:href="#DejaVuSans-46"/>
       <use x="95.410156" xlink:href="#DejaVuSans-50"/>
      </g>
     </g>
    </g>
    <g id="ytick_7">
     <g id="line2d_13">
      <g>
       <use style="stroke:#000000;stroke-width:0.8;" x="60.05" xlink:href="#mdf5d32c1a0" y="102.188235"/>
      </g>
     </g>
     <g id="text_14">
      <!-- 0.3 -->
      <g transform="translate(37.146875 105.987454)scale(0.1 -0.1)">
       <use xlink:href="#DejaVuSans-48"/>
       <use x="63.623047" xlink:href="#DejaVuSans-46"/>
       <use x="95.410156" xlink:href="#DejaVuSans-51"/>
      </g>
     </g>
    </g>
    <g id="ytick_8">
     <g id="line2d_14">
      <g>
       <use style="stroke:#000000;stroke-width:0.8;" x="60.05" xlink:href="#mdf5d32c1a0" y="58.494118"/>
      </g>
     </g>
     <g id="text_15">
      <!-- 0.4 -->
      <g transform="translate(37.146875 62.293336)scale(0.1 -0.1)">
       <use xlink:href="#DejaVuSans-48"/>
       <use x="63.623047" xlink:href="#DejaVuSans-46"/>
       <use x="95.410156" xlink:href="#DejaVuSans-52"/>
      </g>
     </g>
    </g>
    <g id="ytick_9">
     <g id="line2d_15">
      <g>
       <use style="stroke:#000000;stroke-width:0.8;" x="60.05" xlink:href="#mdf5d32c1a0" y="14.8"/>
      </g>
     </g>
     <g id="text_16">
      <!-- 0.5 -->
      <defs>
       <path d="M 10.796875 72.90625 
L 49.515625 72.90625 
L 49.515625 64.59375 
L 19.828125 64.59375 
L 19.828125 46.734375 
Q 21.96875 47.46875 24.109375 47.828125 
Q 26.265625 48.1875 28.421875 48.1875 
Q 40.625 48.1875 47.75 41.5 
Q 54.890625 34.8125 54.890625 23.390625 
Q 54.890625 11.625 47.5625 5.09375 
Q 40.234375 -1.421875 26.90625 -1.421875 
Q 22.3125 -1.421875 17.546875 -0.640625 
Q 12.796875 0.140625 7.71875 1.703125 
L 7.71875 11.625 
Q 12.109375 9.234375 16.796875 8.0625 
Q 21.484375 6.890625 26.703125 6.890625 
Q 35.15625 6.890625 40.078125 11.328125 
Q 45.015625 15.765625 45.015625 23.390625 
Q 45.015625 31 40.078125 35.4375 
Q 35.15625 39.890625 26.703125 39.890625 
Q 22.75 39.890625 18.8125 39.015625 
Q 14.890625 38.140625 10.796875 36.28125 
z
" id="DejaVuSans-53"/>
      </defs>
      <g transform="translate(37.146875 18.599219)scale(0.1 -0.1)">
       <use xlink:href="#DejaVuSans-48"/>
       <use x="63.623047" xlink:href="#DejaVuSans-46"/>
       <use x="95.410156" xlink:href="#DejaVuSans-53"/>
      </g>
     </g>
    </g>
    <g id="text_17">
     <!-- Negativity -->
     <defs>
      <path d="M 9.8125 72.90625 
L 23.09375 72.90625 
L 55.421875 11.921875 
L 55.421875 72.90625 
L 64.984375 72.90625 
L 64.984375 0 
L 51.703125 0 
L 19.390625 60.984375 
L 19.390625 0 
L 9.8125 0 
z
" id="DejaVuSans-78"/>
      <path d="M 56.203125 29.59375 
L 56.203125 25.203125 
L 14.890625 25.203125 
Q 15.484375 15.921875 20.484375 11.0625 
Q 25.484375 6.203125 34.421875 6.203125 
Q 39.59375 6.203125 44.453125 7.46875 
Q 49.3125 8.734375 54.109375 11.28125 
L 54.109375 2.78125 
Q 49.265625 0.734375 44.1875 -0.34375 
Q 39.109375 -1.421875 33.890625 -1.421875 
Q 20.796875 -1.421875 13.15625 6.1875 
Q 5.515625 13.8125 5.515625 26.8125 
Q 5.515625 40.234375 12.765625 48.109375 
Q 20.015625 56 32.328125 56 
Q 43.359375 56 49.78125 48.890625 
Q 56.203125 41.796875 56.203125 29.59375 
z
M 47.21875 32.234375 
Q 47.125 39.59375 43.09375 43.984375 
Q 39.0625 48.390625 32.421875 48.390625 
Q 24.90625 48.390625 20.390625 44.140625 
Q 15.875 39.890625 15.1875 32.171875 
z
" id="DejaVuSans-101"/>
      <path d="M 45.40625 27.984375 
Q 45.40625 37.75 41.375 43.109375 
Q 37.359375 48.484375 30.078125 48.484375 
Q 22.859375 48.484375 18.828125 43.109375 
Q 14.796875 37.75 14.796875 27.984375 
Q 14.796875 18.265625 18.828125 12.890625 
Q 22.859375 7.515625 30.078125 7.515625 
Q 37.359375 7.515625 41.375 12.890625 
Q 45.40625 18.265625 45.40625 27.984375 
z
M 54.390625 6.78125 
Q 54.390625 -7.171875 48.1875 -13.984375 
Q 42 -20.796875 29.203125 -20.796875 
Q 24.46875 -20.796875 20.265625 -20.09375 
Q 16.0625 -19.390625 12.109375 -17.921875 
L 12.109375 -9.1875 
Q 16.0625 -11.328125 19.921875 -12.34375 
Q 23.78125 -13.375 27.78125 -13.375 
Q 36.625 -13.375 41.015625 -8.765625 
Q 45.40625 -4.15625 45.40625 5.171875 
L 45.40625 9.625 
Q 42.625 4.78125 38.28125 2.390625 
Q 33.9375 0 27.875 0 
Q 17.828125 0 11.671875 7.65625 
Q 5.515625 15.328125 5.515625 27.984375 
Q 5.515625 40.671875 11.671875 48.328125 
Q 17.828125 56 27.875 56 
Q 33.9375 56 38.28125 53.609375 
Q 42.625 51.21875 45.40625 46.390625 
L 45.40625 54.6875 
L 54.390625 54.6875 
z
" id="DejaVuSans-103"/>
      <path d="M 34.28125 27.484375 
Q 23.390625 27.484375 19.1875 25 
Q 14.984375 22.515625 14.984375 16.5 
Q 14.984375 11.71875 18.140625 8.90625 
Q 21.296875 6.109375 26.703125 6.109375 
Q 34.1875 6.109375 38.703125 11.40625 
Q 43.21875 16.703125 43.21875 25.484375 
L 43.21875 27.484375 
z
M 52.203125 31.203125 
L 52.203125 0 
L 43.21875 0 
L 43.21875 8.296875 
Q 40.140625 3.328125 35.546875 0.953125 
Q 30.953125 -1.421875 24.3125 -1.421875 
Q 15.921875 -1.421875 10.953125 3.296875 
Q 6 8.015625 6 15.921875 
Q 6 25.140625 12.171875 29.828125 
Q 18.359375 34.515625 30.609375 34.515625 
L 43.21875 34.515625 
L 43.21875 35.40625 
Q 43.21875 41.609375 39.140625 45 
Q 35.0625 48.390625 27.6875 48.390625 
Q 23 48.390625 18.546875 47.265625 
Q 14.109375 46.140625 10.015625 43.890625 
L 10.015625 52.203125 
Q 14.9375 54.109375 19.578125 55.046875 
Q 24.21875 56 28.609375 56 
Q 40.484375 56 46.34375 49.84375 
Q 52.203125 43.703125 52.203125 31.203125 
z
" id="DejaVuSans-97"/>
      <path d="M 9.421875 54.6875 
L 18.40625 54.6875 
L 18.40625 0 
L 9.421875 0 
z
M 9.421875 75.984375 
L 18.40625 75.984375 
L 18.40625 64.59375 
L 9.421875 64.59375 
z
" id="DejaVuSans-105"/>
      <path d="M 2.984375 54.6875 
L 12.5 54.6875 
L 29.59375 8.796875 
L 46.6875 54.6875 
L 56.203125 54.6875 
L 35.6875 0 
L 23.484375 0 
z
" id="DejaVuSans-118"/>
      <path d="M 32.171875 -5.078125 
Q 28.375 -14.84375 24.75 -17.8125 
Q 21.140625 -20.796875 15.09375 -20.796875 
L 7.90625 -20.796875 
L 7.90625 -13.28125 
L 13.1875 -13.28125 
Q 16.890625 -13.28125 18.9375 -11.515625 
Q 21 -9.765625 23.484375 -3.21875 
L 25.09375 0.875 
L 2.984375 54.6875 
L 12.5 54.6875 
L 29.59375 11.921875 
L 46.6875 54.6875 
L 56.203125 54.6875 
z
" id="DejaVuSans-121"/>
     </defs>
     <g transform="translate(21.855625 236.441719)rotate(-90)scale(0.14 -0.14)">
      <use xlink:href="#DejaVuSans-78"/>
      <use x="74.804688" xlink:href="#DejaVuSans-101"/>
      <use x="136.328125" xlink:href="#DejaVuSans-103"/>
      <use x="199.804688" xlink:href="#DejaVuSans-97"/>
      <use x="261.083984" xlink:href="#DejaVuSans-116"/>
      <use x="300.292969" xlink:href="#DejaVuSans-105"/>
      <use x="328.076172" xlink:href="#DejaVuSans-118"/>
      <use x="387.255859" xlink:href="#DejaVuSans-105"/>
      <use x="415.039062" xlink:href="#DejaVuSans-116"/>
      <use x="454.248047" xlink:href="#DejaVuSans-121"/>
     </g>
    </g>
   </g>
   <g id="line2d_16">
    <path clip-path="url(#pb690dfde5b)" d="M 69.799265 233.270588 
L 69.823638 234.943789 
L 69.940629 266.417112 
L 70.281853 340.488342 
L 70.549958 358.146957 
L 70.798564 362.788733 
L 70.998424 363.512026 
L 71.100792 363.42373 
L 71.295777 362.835573 
L 71.792989 360.429199 
L 80.109112 317.057595 
L 84.769261 294.355909 
L 89.429409 272.751542 
L 94.089558 252.193809 
L 98.744832 232.654802 
L 103.400106 214.067568 
L 108.04563 196.426122 
L 112.68628 179.668809 
L 117.312306 163.789875 
L 121.918834 148.765175 
L 126.496114 134.586649 
L 131.034396 121.245624 
L 135.509309 108.774121 
L 139.891603 97.211242 
L 144.137408 86.626388 
L 148.197977 77.089937 
L 152.005065 68.703561 
L 155.500176 61.527722 
L 158.639439 55.574522 
L 161.408231 50.783995 
L 163.826048 47.028217 
L 165.936764 44.144361 
L 167.789124 41.975262 
L 169.43675 40.376087 
L 170.923513 39.233328 
L 172.28841 38.457179 
L 173.570438 37.978744 
L 174.80372 37.752308 
L 176.032128 37.752554 
L 177.289783 37.977306 
L 178.620557 38.445609 
L 180.068323 39.197215 
L 181.691576 40.298816 
L 183.568309 41.852001 
L 185.815515 44.014115 
L 188.637927 47.055227 
L 192.523009 51.593709 
L 199.99582 60.74181 
L 208.88715 71.502092 
L 215.375285 79.000819 
L 221.424704 85.655902 
L 227.308385 91.800661 
L 233.133571 97.564793 
L 238.958757 103.017328 
L 244.81319 108.193547 
L 250.721244 113.121075 
L 256.702418 117.82058 
L 262.771336 122.306748 
L 268.947495 126.595898 
L 275.240645 130.695744 
L 281.670285 134.619038 
L 288.246164 138.370956 
L 294.987781 141.961154 
L 301.909759 145.39509 
L 309.031597 148.679417 
L 316.372793 151.81932 
L 323.952846 154.818735 
L 331.79613 157.682266 
L 339.927017 160.413122 
L 348.374754 163.014819 
L 357.173466 165.490801 
L 366.362148 167.84415 
L 375.979797 170.0763 
L 386.075161 172.189379 
L 396.70186 174.184725 
L 407.928138 176.064439 
L 419.827115 177.829223 
L 432.49141 179.48043 
L 446.028264 181.018715 
L 460.574167 182.445191 
L 476.289982 183.760101 
L 493.390192 184.964517 
L 512.138028 186.058572 
L 532.889338 187.042907 
L 556.121836 187.917924 
L 557.2625 187.955626 
L 557.2625 187.955626 
" style="fill:none;stroke:#1f77b4;stroke-linecap:square;stroke-width:1.5;"/>
   </g>
   <g id="line2d_17">
    <path clip-path="url(#pb690dfde5b)" d="M -1 233.270588 
L 577 233.270588 
" style="fill:none;stroke:#000000;stroke-dasharray:5.55,2.4;stroke-dashoffset:0;stroke-opacity:0.4;stroke-width:1.5;"/>
   </g>
   <g id="patch_3">
    <path d="M 60.05 386.2 
L 60.05 14.8 
" style="fill:none;stroke:#000000;stroke-linecap:square;stroke-linejoin:miter;stroke-width:0.8;"/>
   </g>
   <g id="patch_4">
    <path d="M 557.2625 386.2 
L 557.2625 14.8 
" style="fill:none;stroke:#000000;stroke-linecap:square;stroke-linejoin:miter;stroke-width:0.8;"/>
   </g>
   <g id="patch_5">
    <path d="M 60.05 386.2 
L 557.2625 386.2 
" style="fill:none;stroke:#000000;stroke-linecap:square;stroke-linejoin:miter;stroke-width:0.8;"/>
   </g>
   <g id="patch_6">
    <path d="M 60.05 14.8 
L 557.2625 14.8 
" style="fill:none;stroke:#000000;stroke-linecap:square;stroke-linejoin:miter;stroke-width:0.8;"/>
   </g>
   <g id="patch_7">
    <path clip-path="url(#pb690dfde5b)" d="M 69.804139 373.091765 
L 108.796324 373.091765 
L 108.796324 189.576471 
L 69.804139 189.576471 
z
" style="fill:none;opacity:0.5;stroke:#808080;stroke-linejoin:miter;"/>
   </g>
   <g id="patch_8">
    <path d="M 167.291912 176.468235 
Q 118.548026 183.022353 69.804139 189.576471 
" style="fill:none;opacity:0.5;stroke:#808080;stroke-linecap:round;"/>
   </g>
   <g id="patch_9">
    <path d="M 362.277206 329.397647 
Q 235.536765 351.244706 108.796324 373.091765 
" style="fill:none;opacity:0.5;stroke:#808080;stroke-linecap:round;"/>
   </g>
   <g id="axes_2">
    <g id="patch_10">
     <path d="M 167.291912 329.397647 
L 362.277206 329.397647 
L 362.277206 176.468235 
L 167.291912 176.468235 
z
" style="fill:#ffffff;"/>
    </g>
    <g id="matplotlib.axis_3">
     <g id="xtick_7">
      <g id="line2d_18">
       <g>
        <use style="stroke:#000000;stroke-width:0.8;" x="167.291912" xlink:href="#mdb476cba30" y="329.397647"/>
       </g>
      </g>
      <g id="text_18">
       <!-- $\mathdefault{10^{-5}}$ -->
       <g transform="translate(155.541912 343.996085)scale(0.1 -0.1)">
        <use transform="translate(0 0.684375)" xlink:href="#DejaVuSans-49"/>
        <use transform="translate(63.623047 0.684375)" xlink:href="#DejaVuSans-48"/>
        <use transform="translate(128.203125 38.965625)scale(0.7)" xlink:href="#DejaVuSans-8722"/>
        <use transform="translate(186.855469 38.965625)scale(0.7)" xlink:href="#DejaVuSans-53"/>
       </g>
      </g>
     </g>
     <g id="xtick_8">
      <g id="line2d_19">
       <g>
        <use style="stroke:#000000;stroke-width:0.8;" x="217.24856" xlink:href="#mdb476cba30" y="329.397647"/>
       </g>
      </g>
      <g id="text_19">
       <!-- $\mathdefault{10^{-4}}$ -->
       <g transform="translate(205.49856 343.996085)scale(0.1 -0.1)">
        <use transform="translate(0 0.684375)" xlink:href="#DejaVuSans-49"/>
        <use transform="translate(63.623047 0.684375)" xlink:href="#DejaVuSans-48"/>
        <use transform="translate(128.203125 38.965625)scale(0.7)" xlink:href="#DejaVuSans-8722"/>
        <use transform="translate(186.855469 38.965625)scale(0.7)" xlink:href="#DejaVuSans-52"/>
       </g>
      </g>
     </g>
     <g id="xtick_9">
      <g id="line2d_20">
       <g>
        <use style="stroke:#000000;stroke-width:0.8;" x="267.205209" xlink:href="#mdb476cba30" y="329.397647"/>
       </g>
      </g>
      <g id="text_20">
       <!-- $\mathdefault{10^{-3}}$ -->
       <g transform="translate(255.455209 343.996085)scale(0.1 -0.1)">
        <use transform="translate(0 0.765625)" xlink:href="#DejaVuSans-49"/>
        <use transform="translate(63.623047 0.765625)" xlink:href="#DejaVuSans-48"/>
        <use transform="translate(128.203125 39.046875)scale(0.7)" xlink:href="#DejaVuSans-8722"/>
        <use transform="translate(186.855469 39.046875)scale(0.7)" xlink:href="#DejaVuSans-51"/>
       </g>
      </g>
     </g>
     <g id="xtick_10">
      <g id="line2d_21">
       <g>
        <use style="stroke:#000000;stroke-width:0.8;" x="317.161857" xlink:href="#mdb476cba30" y="329.397647"/>
       </g>
      </g>
      <g id="text_21">
       <!-- $\mathdefault{10^{-2}}$ -->
       <g transform="translate(305.411857 343.996085)scale(0.1 -0.1)">
        <use transform="translate(0 0.765625)" xlink:href="#DejaVuSans-49"/>
        <use transform="translate(63.623047 0.765625)" xlink:href="#DejaVuSans-48"/>
        <use transform="translate(128.203125 39.046875)scale(0.7)" xlink:href="#DejaVuSans-8722"/>
        <use transform="translate(186.855469 39.046875)scale(0.7)" xlink:href="#DejaVuSans-50"/>
       </g>
      </g>
     </g>
     <g id="xtick_11">
      <g id="line2d_22">
       <defs>
        <path d="M 0 0 
L 0 2 
" id="mfb88f1c69d" style="stroke:#000000;stroke-width:0.6;"/>
       </defs>
       <g>
        <use style="stroke:#000000;stroke-width:0.6;" x="182.330361" xlink:href="#mfb88f1c69d" y="329.397647"/>
       </g>
      </g>
     </g>
     <g id="xtick_12">
      <g id="line2d_23">
       <g>
        <use style="stroke:#000000;stroke-width:0.6;" x="191.127291" xlink:href="#mfb88f1c69d" y="329.397647"/>
       </g>
      </g>
     </g>
     <g id="xtick_13">
      <g id="line2d_24">
       <g>
        <use style="stroke:#000000;stroke-width:0.6;" x="197.368811" xlink:href="#mfb88f1c69d" y="329.397647"/>
       </g>
      </g>
     </g>
     <g id="xtick_14">
      <g id="line2d_25">
       <g>
        <use style="stroke:#000000;stroke-width:0.6;" x="202.210111" xlink:href="#mfb88f1c69d" y="329.397647"/>
       </g>
      </g>
     </g>
     <g id="xtick_15">
      <g id="line2d_26">
       <g>
        <use style="stroke:#000000;stroke-width:0.6;" x="206.16574" xlink:href="#mfb88f1c69d" y="329.397647"/>
       </g>
      </g>
     </g>
     <g id="xtick_16">
      <g id="line2d_27">
       <g>
        <use style="stroke:#000000;stroke-width:0.6;" x="209.510177" xlink:href="#mfb88f1c69d" y="329.397647"/>
       </g>
      </g>
     </g>
     <g id="xtick_17">
      <g id="line2d_28">
       <g>
        <use style="stroke:#000000;stroke-width:0.6;" x="212.407261" xlink:href="#mfb88f1c69d" y="329.397647"/>
       </g>
      </g>
     </g>
     <g id="xtick_18">
      <g id="line2d_29">
       <g>
        <use style="stroke:#000000;stroke-width:0.6;" x="214.962669" xlink:href="#mfb88f1c69d" y="329.397647"/>
       </g>
      </g>
     </g>
     <g id="xtick_19">
      <g id="line2d_30">
       <g>
        <use style="stroke:#000000;stroke-width:0.6;" x="232.28701" xlink:href="#mfb88f1c69d" y="329.397647"/>
       </g>
      </g>
     </g>
     <g id="xtick_20">
      <g id="line2d_31">
       <g>
        <use style="stroke:#000000;stroke-width:0.6;" x="241.083939" xlink:href="#mfb88f1c69d" y="329.397647"/>
       </g>
      </g>
     </g>
     <g id="xtick_21">
      <g id="line2d_32">
       <g>
        <use style="stroke:#000000;stroke-width:0.6;" x="247.325459" xlink:href="#mfb88f1c69d" y="329.397647"/>
       </g>
      </g>
     </g>
     <g id="xtick_22">
      <g id="line2d_33">
       <g>
        <use style="stroke:#000000;stroke-width:0.6;" x="252.166759" xlink:href="#mfb88f1c69d" y="329.397647"/>
       </g>
      </g>
     </g>
     <g id="xtick_23">
      <g id="line2d_34">
       <g>
        <use style="stroke:#000000;stroke-width:0.6;" x="256.122389" xlink:href="#mfb88f1c69d" y="329.397647"/>
       </g>
      </g>
     </g>
     <g id="xtick_24">
      <g id="line2d_35">
       <g>
        <use style="stroke:#000000;stroke-width:0.6;" x="259.466826" xlink:href="#mfb88f1c69d" y="329.397647"/>
       </g>
      </g>
     </g>
     <g id="xtick_25">
      <g id="line2d_36">
       <g>
        <use style="stroke:#000000;stroke-width:0.6;" x="262.363909" xlink:href="#mfb88f1c69d" y="329.397647"/>
       </g>
      </g>
     </g>
     <g id="xtick_26">
      <g id="line2d_37">
       <g>
        <use style="stroke:#000000;stroke-width:0.6;" x="264.919318" xlink:href="#mfb88f1c69d" y="329.397647"/>
       </g>
      </g>
     </g>
     <g id="xtick_27">
      <g id="line2d_38">
       <g>
        <use style="stroke:#000000;stroke-width:0.6;" x="282.243658" xlink:href="#mfb88f1c69d" y="329.397647"/>
       </g>
      </g>
     </g>
     <g id="xtick_28">
      <g id="line2d_39">
       <g>
        <use style="stroke:#000000;stroke-width:0.6;" x="291.040587" xlink:href="#mfb88f1c69d" y="329.397647"/>
       </g>
      </g>
     </g>
     <g id="xtick_29">
      <g id="line2d_40">
       <g>
        <use style="stroke:#000000;stroke-width:0.6;" x="297.282108" xlink:href="#mfb88f1c69d" y="329.397647"/>
       </g>
      </g>
     </g>
     <g id="xtick_30">
      <g id="line2d_41">
       <g>
        <use style="stroke:#000000;stroke-width:0.6;" x="302.123407" xlink:href="#mfb88f1c69d" y="329.397647"/>
       </g>
      </g>
     </g>
     <g id="xtick_31">
      <g id="line2d_42">
       <g>
        <use style="stroke:#000000;stroke-width:0.6;" x="306.079037" xlink:href="#mfb88f1c69d" y="329.397647"/>
       </g>
      </g>
     </g>
     <g id="xtick_32">
      <g id="line2d_43">
       <g>
        <use style="stroke:#000000;stroke-width:0.6;" x="309.423474" xlink:href="#mfb88f1c69d" y="329.397647"/>
       </g>
      </g>
     </g>
     <g id="xtick_33">
      <g id="line2d_44">
       <g>
        <use style="stroke:#000000;stroke-width:0.6;" x="312.320557" xlink:href="#mfb88f1c69d" y="329.397647"/>
       </g>
      </g>
     </g>
     <g id="xtick_34">
      <g id="line2d_45">
       <g>
        <use style="stroke:#000000;stroke-width:0.6;" x="314.875966" xlink:href="#mfb88f1c69d" y="329.397647"/>
       </g>
      </g>
     </g>
     <g id="xtick_35">
      <g id="line2d_46">
       <g>
        <use style="stroke:#000000;stroke-width:0.6;" x="332.200307" xlink:href="#mfb88f1c69d" y="329.397647"/>
       </g>
      </g>
     </g>
     <g id="xtick_36">
      <g id="line2d_47">
       <g>
        <use style="stroke:#000000;stroke-width:0.6;" x="340.997236" xlink:href="#mfb88f1c69d" y="329.397647"/>
       </g>
      </g>
     </g>
     <g id="xtick_37">
      <g id="line2d_48">
       <g>
        <use style="stroke:#000000;stroke-width:0.6;" x="347.238756" xlink:href="#mfb88f1c69d" y="329.397647"/>
       </g>
      </g>
     </g>
     <g id="xtick_38">
      <g id="line2d_49">
       <g>
        <use style="stroke:#000000;stroke-width:0.6;" x="352.080056" xlink:href="#mfb88f1c69d" y="329.397647"/>
       </g>
      </g>
     </g>
     <g id="xtick_39">
      <g id="line2d_50">
       <g>
        <use style="stroke:#000000;stroke-width:0.6;" x="356.035685" xlink:href="#mfb88f1c69d" y="329.397647"/>
       </g>
      </g>
     </g>
     <g id="xtick_40">
      <g id="line2d_51">
       <g>
        <use style="stroke:#000000;stroke-width:0.6;" x="359.380123" xlink:href="#mfb88f1c69d" y="329.397647"/>
       </g>
      </g>
     </g>
     <g id="xtick_41">
      <g id="line2d_52">
       <g>
        <use style="stroke:#000000;stroke-width:0.6;" x="362.277206" xlink:href="#mfb88f1c69d" y="329.397647"/>
       </g>
      </g>
     </g>
    </g>
    <g id="matplotlib.axis_4">
     <g id="ytick_10">
      <g id="line2d_53">
       <g>
        <use style="stroke:#000000;stroke-width:0.8;" x="167.291912" xlink:href="#mdf5d32c1a0" y="322.115294"/>
       </g>
      </g>
      <g id="text_22">
       <!-- −0.3 -->
       <g transform="translate(136.009099 325.914513)scale(0.1 -0.1)">
        <use xlink:href="#DejaVuSans-8722"/>
        <use x="83.789062" xlink:href="#DejaVuSans-48"/>
        <use x="147.412109" xlink:href="#DejaVuSans-46"/>
        <use x="179.199219" xlink:href="#DejaVuSans-51"/>
       </g>
      </g>
     </g>
     <g id="ytick_11">
      <g id="line2d_54">
       <g>
        <use style="stroke:#000000;stroke-width:0.8;" x="167.291912" xlink:href="#mdf5d32c1a0" y="285.703529"/>
       </g>
      </g>
      <g id="text_23">
       <!-- −0.2 -->
       <g transform="translate(136.009099 289.502748)scale(0.1 -0.1)">
        <use xlink:href="#DejaVuSans-8722"/>
        <use x="83.789062" xlink:href="#DejaVuSans-48"/>
        <use x="147.412109" xlink:href="#DejaVuSans-46"/>
        <use x="179.199219" xlink:href="#DejaVuSans-50"/>
       </g>
      </g>
     </g>
     <g id="ytick_12">
      <g id="line2d_55">
       <g>
        <use style="stroke:#000000;stroke-width:0.8;" x="167.291912" xlink:href="#mdf5d32c1a0" y="249.291765"/>
       </g>
      </g>
      <g id="text_24">
       <!-- −0.1 -->
       <g transform="translate(136.009099 253.090983)scale(0.1 -0.1)">
        <use xlink:href="#DejaVuSans-8722"/>
        <use x="83.789062" xlink:href="#DejaVuSans-48"/>
        <use x="147.412109" xlink:href="#DejaVuSans-46"/>
        <use x="179.199219" xlink:href="#DejaVuSans-49"/>
       </g>
      </g>
     </g>
     <g id="ytick_13">
      <g id="line2d_56">
       <g>
        <use style="stroke:#000000;stroke-width:0.8;" x="167.291912" xlink:href="#mdf5d32c1a0" y="212.88"/>
       </g>
      </g>
      <g id="text_25">
       <!-- 0.0 -->
       <g transform="translate(144.388787 216.679219)scale(0.1 -0.1)">
        <use xlink:href="#DejaVuSans-48"/>
        <use x="63.623047" xlink:href="#DejaVuSans-46"/>
        <use x="95.410156" xlink:href="#DejaVuSans-48"/>
       </g>
      </g>
     </g>
     <g id="ytick_14">
      <g id="line2d_57">
       <g>
        <use style="stroke:#000000;stroke-width:0.8;" x="167.291912" xlink:href="#mdf5d32c1a0" y="176.468235"/>
       </g>
      </g>
      <g id="text_26">
       <!-- 0.1 -->
       <g transform="translate(144.388787 180.267454)scale(0.1 -0.1)">
        <use xlink:href="#DejaVuSans-48"/>
        <use x="63.623047" xlink:href="#DejaVuSans-46"/>
        <use x="95.410156" xlink:href="#DejaVuSans-49"/>
       </g>
      </g>
     </g>
    </g>
    <g id="line2d_58">
     <path clip-path="url(#p833bbf79b9)" d="M -1 212.940454 
L 167.291912 212.94066 
L 182.330361 213.117677 
L 191.127291 213.403712 
L 197.368811 213.791592 
L 202.210111 214.274334 
L 206.16574 214.84517 
L 209.510177 215.497563 
L 212.407261 216.225223 
L 214.962669 217.022117 
L 217.24856 217.882476 
L 219.3164 218.800803 
L 221.20419 219.771868 
L 224.548627 221.852656 
L 227.44571 224.088362 
L 230.001119 226.446614 
L 232.28701 228.8989 
L 234.35485 231.420283 
L 236.242639 233.98909 
L 238.798048 237.890981 
L 241.083939 241.805671 
L 243.799466 246.975322 
L 246.776167 253.259094 
L 249.880868 260.419381 
L 253.836498 270.211265 
L 263.422455 294.332299 
L 266.092355 300.345015 
L 268.469405 305.179151 
L 270.611546 309.036345 
L 272.561059 312.092361 
L 274.349749 314.496183 
L 276.002138 316.371914 
L 277.671876 317.935436 
L 279.222243 319.099184 
L 280.785504 320.007586 
L 282.351867 320.670758 
L 284.013609 321.129751 
L 285.742515 321.371442 
L 287.599509 321.4014 
L 289.621072 321.209404 
L 291.960943 320.752912 
L 294.631571 319.992524 
L 297.60513 318.909856 
L 300.827077 317.49713 
L 304.032882 315.850304 
L 307.137583 314.00777 
L 310.124878 311.976087 
L 312.988176 309.758848 
L 315.750062 307.337636 
L 318.426053 304.694712 
L 321.045046 301.791931 
L 323.608516 298.613895 
L 326.117309 295.146384 
L 328.597603 291.335023 
L 331.053169 287.149087 
L 333.495183 282.54028 
L 335.919615 277.484405 
L 338.346699 271.901616 
L 340.771878 265.758547 
L 343.209235 258.970775 
L 345.66427 251.465247 
L 348.141776 243.16377 
L 350.649729 233.969389 
L 353.196381 223.773854 
L 355.795708 212.433365 
L 358.462143 199.785842 
L 361.215676 185.626535 
L 364.092102 169.645719 
L 367.146692 151.389952 
L 370.506291 129.921356 
L 374.637522 101.985379 
L 380.164378 64.652853 
L 381.582057 56.59337 
L 382.473563 52.676169 
L 383.095325 50.833092 
L 383.546665 50.099286 
L 383.876858 49.925442 
L 384.153674 50.023385 
L 384.468974 50.399986 
L 384.875672 51.273853 
L 385.417235 53.021415 
L 386.164051 56.260836 
L 387.264772 62.13346 
L 389.16763 73.674176 
L 394.945042 109.191328 
L 397.401617 122.679199 
L 399.560503 133.333177 
L 401.528317 141.960702 
L 403.354868 149.000644 
L 405.070851 154.756834 
L 406.698139 159.461167 
L 408.25326 163.297319 
L 409.751208 166.4179 
L 411.20562 168.948302 
L 412.631827 170.99473 
L 414.046505 172.644231 
L 415.471019 173.969424 
L 416.932797 175.028768 
L 417.075154 175.117532 
L 417.075154 175.117532 
" style="fill:none;stroke:#1f77b4;stroke-linecap:square;stroke-width:1.5;"/>
    </g>
    <g id="line2d_59">
     <path clip-path="url(#p833bbf79b9)" d="M -1 212.88 
L 432.113603 212.88 
" style="fill:none;stroke:#000000;stroke-dasharray:5.55,2.4;stroke-dashoffset:0;stroke-opacity:0.4;stroke-width:1.5;"/>
    </g>
    <g id="patch_11">
     <path d="M 167.291912 329.397647 
L 167.291912 176.468235 
" style="fill:none;stroke:#000000;stroke-linecap:square;stroke-linejoin:miter;stroke-width:0.8;"/>
    </g>
    <g id="patch_12">
     <path d="M 362.277206 329.397647 
L 362.277206 176.468235 
" style="fill:none;stroke:#000000;stroke-linecap:square;stroke-linejoin:miter;stroke-width:0.8;"/>
    </g>
    <g id="patch_13">
     <path d="M 167.291912 329.397647 
L 362.277206 329.397647 
" style="fill:none;stroke:#000000;stroke-linecap:square;stroke-linejoin:miter;stroke-width:0.8;"/>
    </g>
    <g id="patch_14">
     <path d="M 167.291912 176.468235 
L 362.277206 176.468235 
" style="fill:none;stroke:#000000;stroke-linecap:square;stroke-linejoin:miter;stroke-width:0.8;"/>
    </g>
   </g>
  </g>
 </g>
 <defs>
  <clipPath id="pb690dfde5b">
   <rect height="371.4" width="497.2125" x="60.05" y="14.8"/>
  </clipPath>
  <clipPath id="p833bbf79b9">
   <rect height="152.929412" width="194.985294" x="167.291912" y="176.468235"/>
  </clipPath>
 </defs>
</svg>
