<?xml version="1.0" encoding="utf-8" standalone="no"?>
<!DOCTYPE svg PUBLIC "-//W3C//DTD SVG 1.1//EN"
  "http://www.w3.org/Graphics/SVG/1.1/DTD/svg11.dtd">
<!-- Created with matplotlib (https://matplotlib.org/) -->
<svg height="432pt" version="1.1" viewBox="0 0 576 432" width="576pt" xmlns="http://www.w3.org/2000/svg" xmlns:xlink="http://www.w3.org/1999/xlink">
 <defs>
  <style type="text/css">
*{stroke-linecap:butt;stroke-linejoin:round;}
  </style>
 </defs>
 <g id="figure_1">
  <g id="patch_1">
   <path d="M 0 432 
L 576 432 
L 576 0 
L 0 0 
z
" style="fill:#ffffff;"/>
  </g>
  <g id="axes_1">
   <g id="patch_2">
    <path d="M 66.3 386.2 
L 557.2625 386.2 
L 557.2625 14.3 
L 66.3 14.3 
z
" style="fill:#ffffff;"/>
   </g>
   <g id="matplotlib.axis_1">
    <g id="xtick_1">
     <g id="line2d_1">
      <defs>
       <path d="M 0 0 
L 0 3.5 
" id="m1078c3b435" style="stroke:#000000;stroke-width:0.8;"/>
      </defs>
      <g>
       <use style="stroke:#000000;stroke-width:0.8;" x="66.29509" xlink:href="#m1078c3b435" y="386.2"/>
      </g>
     </g>
     <g id="text_1">
      <!-- 0.0 -->
      <defs>
       <path d="M 31.78125 66.40625 
Q 24.171875 66.40625 20.328125 58.90625 
Q 16.5 51.421875 16.5 36.375 
Q 16.5 21.390625 20.328125 13.890625 
Q 24.171875 6.390625 31.78125 6.390625 
Q 39.453125 6.390625 43.28125 13.890625 
Q 47.125 21.390625 47.125 36.375 
Q 47.125 51.421875 43.28125 58.90625 
Q 39.453125 66.40625 31.78125 66.40625 
z
M 31.78125 74.21875 
Q 44.046875 74.21875 50.515625 64.515625 
Q 56.984375 54.828125 56.984375 36.375 
Q 56.984375 17.96875 50.515625 8.265625 
Q 44.046875 -1.421875 31.78125 -1.421875 
Q 19.53125 -1.421875 13.0625 8.265625 
Q 6.59375 17.96875 6.59375 36.375 
Q 6.59375 54.828125 13.0625 64.515625 
Q 19.53125 74.21875 31.78125 74.21875 
z
" id="DejaVuSans-48"/>
       <path d="M 10.6875 12.40625 
L 21 12.40625 
L 21 0 
L 10.6875 0 
z
" id="DejaVuSans-46"/>
      </defs>
      <g transform="translate(58.343528 400.798437)scale(0.1 -0.1)">
       <use xlink:href="#DejaVuSans-48"/>
       <use x="63.623047" xlink:href="#DejaVuSans-46"/>
       <use x="95.410156" xlink:href="#DejaVuSans-48"/>
      </g>
     </g>
    </g>
    <g id="xtick_2">
     <g id="line2d_2">
      <g>
       <use style="stroke:#000000;stroke-width:0.8;" x="164.488572" xlink:href="#m1078c3b435" y="386.2"/>
      </g>
     </g>
     <g id="text_2">
      <!-- 0.2 -->
      <defs>
       <path d="M 19.1875 8.296875 
L 53.609375 8.296875 
L 53.609375 0 
L 7.328125 0 
L 7.328125 8.296875 
Q 12.9375 14.109375 22.625 23.890625 
Q 32.328125 33.6875 34.8125 36.53125 
Q 39.546875 41.84375 41.421875 45.53125 
Q 43.3125 49.21875 43.3125 52.78125 
Q 43.3125 58.59375 39.234375 62.25 
Q 35.15625 65.921875 28.609375 65.921875 
Q 23.96875 65.921875 18.8125 64.3125 
Q 13.671875 62.703125 7.8125 59.421875 
L 7.8125 69.390625 
Q 13.765625 71.78125 18.9375 73 
Q 24.125 74.21875 28.421875 74.21875 
Q 39.75 74.21875 46.484375 68.546875 
Q 53.21875 62.890625 53.21875 53.421875 
Q 53.21875 48.921875 51.53125 44.890625 
Q 49.859375 40.875 45.40625 35.40625 
Q 44.1875 33.984375 37.640625 27.21875 
Q 31.109375 20.453125 19.1875 8.296875 
z
" id="DejaVuSans-50"/>
      </defs>
      <g transform="translate(156.53701 400.798437)scale(0.1 -0.1)">
       <use xlink:href="#DejaVuSans-48"/>
       <use x="63.623047" xlink:href="#DejaVuSans-46"/>
       <use x="95.410156" xlink:href="#DejaVuSans-50"/>
      </g>
     </g>
    </g>
    <g id="xtick_3">
     <g id="line2d_3">
      <g>
       <use style="stroke:#000000;stroke-width:0.8;" x="262.682054" xlink:href="#m1078c3b435" y="386.2"/>
      </g>
     </g>
     <g id="text_3">
      <!-- 0.4 -->
      <defs>
       <path d="M 37.796875 64.3125 
L 12.890625 25.390625 
L 37.796875 25.390625 
z
M 35.203125 72.90625 
L 47.609375 72.90625 
L 47.609375 25.390625 
L 58.015625 25.390625 
L 58.015625 17.1875 
L 47.609375 17.1875 
L 47.609375 0 
L 37.796875 0 
L 37.796875 17.1875 
L 4.890625 17.1875 
L 4.890625 26.703125 
z
" id="DejaVuSans-52"/>
      </defs>
      <g transform="translate(254.730492 400.798437)scale(0.1 -0.1)">
       <use xlink:href="#DejaVuSans-48"/>
       <use x="63.623047" xlink:href="#DejaVuSans-46"/>
       <use x="95.410156" xlink:href="#DejaVuSans-52"/>
      </g>
     </g>
    </g>
    <g id="xtick_4">
     <g id="line2d_4">
      <g>
       <use style="stroke:#000000;stroke-width:0.8;" x="360.875536" xlink:href="#m1078c3b435" y="386.2"/>
      </g>
     </g>
     <g id="text_4">
      <!-- 0.6 -->
      <defs>
       <path d="M 33.015625 40.375 
Q 26.375 40.375 22.484375 35.828125 
Q 18.609375 31.296875 18.609375 23.390625 
Q 18.609375 15.53125 22.484375 10.953125 
Q 26.375 6.390625 33.015625 6.390625 
Q 39.65625 6.390625 43.53125 10.953125 
Q 47.40625 15.53125 47.40625 23.390625 
Q 47.40625 31.296875 43.53125 35.828125 
Q 39.65625 40.375 33.015625 40.375 
z
M 52.59375 71.296875 
L 52.59375 62.3125 
Q 48.875 64.0625 45.09375 64.984375 
Q 41.3125 65.921875 37.59375 65.921875 
Q 27.828125 65.921875 22.671875 59.328125 
Q 17.53125 52.734375 16.796875 39.40625 
Q 19.671875 43.65625 24.015625 45.921875 
Q 28.375 48.1875 33.59375 48.1875 
Q 44.578125 48.1875 50.953125 41.515625 
Q 57.328125 34.859375 57.328125 23.390625 
Q 57.328125 12.15625 50.6875 5.359375 
Q 44.046875 -1.421875 33.015625 -1.421875 
Q 20.359375 -1.421875 13.671875 8.265625 
Q 6.984375 17.96875 6.984375 36.375 
Q 6.984375 53.65625 15.1875 63.9375 
Q 23.390625 74.21875 37.203125 74.21875 
Q 40.921875 74.21875 44.703125 73.484375 
Q 48.484375 72.75 52.59375 71.296875 
z
" id="DejaVuSans-54"/>
      </defs>
      <g transform="translate(352.923974 400.798437)scale(0.1 -0.1)">
       <use xlink:href="#DejaVuSans-48"/>
       <use x="63.623047" xlink:href="#DejaVuSans-46"/>
       <use x="95.410156" xlink:href="#DejaVuSans-54"/>
      </g>
     </g>
    </g>
    <g id="xtick_5">
     <g id="line2d_5">
      <g>
       <use style="stroke:#000000;stroke-width:0.8;" x="459.069018" xlink:href="#m1078c3b435" y="386.2"/>
      </g>
     </g>
     <g id="text_5">
      <!-- 0.8 -->
      <defs>
       <path d="M 31.78125 34.625 
Q 24.75 34.625 20.71875 30.859375 
Q 16.703125 27.09375 16.703125 20.515625 
Q 16.703125 13.921875 20.71875 10.15625 
Q 24.75 6.390625 31.78125 6.390625 
Q 38.8125 6.390625 42.859375 10.171875 
Q 46.921875 13.96875 46.921875 20.515625 
Q 46.921875 27.09375 42.890625 30.859375 
Q 38.875 34.625 31.78125 34.625 
z
M 21.921875 38.8125 
Q 15.578125 40.375 12.03125 44.71875 
Q 8.5 49.078125 8.5 55.328125 
Q 8.5 64.0625 14.71875 69.140625 
Q 20.953125 74.21875 31.78125 74.21875 
Q 42.671875 74.21875 48.875 69.140625 
Q 55.078125 64.0625 55.078125 55.328125 
Q 55.078125 49.078125 51.53125 44.71875 
Q 48 40.375 41.703125 38.8125 
Q 48.828125 37.15625 52.796875 32.3125 
Q 56.78125 27.484375 56.78125 20.515625 
Q 56.78125 9.90625 50.3125 4.234375 
Q 43.84375 -1.421875 31.78125 -1.421875 
Q 19.734375 -1.421875 13.25 4.234375 
Q 6.78125 9.90625 6.78125 20.515625 
Q 6.78125 27.484375 10.78125 32.3125 
Q 14.796875 37.15625 21.921875 38.8125 
z
M 18.3125 54.390625 
Q 18.3125 48.734375 21.84375 45.5625 
Q 25.390625 42.390625 31.78125 42.390625 
Q 38.140625 42.390625 41.71875 45.5625 
Q 45.3125 48.734375 45.3125 54.390625 
Q 45.3125 60.0625 41.71875 63.234375 
Q 38.140625 66.40625 31.78125 66.40625 
Q 25.390625 66.40625 21.84375 63.234375 
Q 18.3125 60.0625 18.3125 54.390625 
z
" id="DejaVuSans-56"/>
      </defs>
      <g transform="translate(451.117456 400.798437)scale(0.1 -0.1)">
       <use xlink:href="#DejaVuSans-48"/>
       <use x="63.623047" xlink:href="#DejaVuSans-46"/>
       <use x="95.410156" xlink:href="#DejaVuSans-56"/>
      </g>
     </g>
    </g>
    <g id="xtick_6">
     <g id="line2d_6">
      <g>
       <use style="stroke:#000000;stroke-width:0.8;" x="557.2625" xlink:href="#m1078c3b435" y="386.2"/>
      </g>
     </g>
     <g id="text_6">
      <!-- 1.0 -->
      <defs>
       <path d="M 12.40625 8.296875 
L 28.515625 8.296875 
L 28.515625 63.921875 
L 10.984375 60.40625 
L 10.984375 69.390625 
L 28.421875 72.90625 
L 38.28125 72.90625 
L 38.28125 8.296875 
L 54.390625 8.296875 
L 54.390625 0 
L 12.40625 0 
z
" id="DejaVuSans-49"/>
      </defs>
      <g transform="translate(549.310938 400.798437)scale(0.1 -0.1)">
       <use xlink:href="#DejaVuSans-49"/>
       <use x="63.623047" xlink:href="#DejaVuSans-46"/>
       <use x="95.410156" xlink:href="#DejaVuSans-48"/>
      </g>
     </g>
    </g>
    <g id="text_7">
     <!-- t -->
     <defs>
      <path d="M 18.3125 70.21875 
L 18.3125 54.6875 
L 36.8125 54.6875 
L 36.8125 47.703125 
L 18.3125 47.703125 
L 18.3125 18.015625 
Q 18.3125 11.328125 20.140625 9.421875 
Q 21.96875 7.515625 27.59375 7.515625 
L 36.8125 7.515625 
L 36.8125 0 
L 27.59375 0 
Q 17.1875 0 13.234375 3.875 
Q 9.28125 7.765625 9.28125 18.015625 
L 9.28125 47.703125 
L 2.6875 47.703125 
L 2.6875 54.6875 
L 9.28125 54.6875 
L 9.28125 70.21875 
z
" id="DejaVuSans-116"/>
     </defs>
     <g transform="translate(309.037031 417.515938)scale(0.14 -0.14)">
      <use xlink:href="#DejaVuSans-116"/>
     </g>
    </g>
   </g>
   <g id="matplotlib.axis_2">
    <g id="ytick_1">
     <g id="line2d_7">
      <defs>
       <path d="M 0 0 
L -3.5 0 
" id="md371a966db" style="stroke:#000000;stroke-width:0.8;"/>
      </defs>
      <g>
       <use style="stroke:#000000;stroke-width:0.8;" x="66.3" xlink:href="#md371a966db" y="370.166877"/>
      </g>
     </g>
     <g id="text_8">
      <!-- −0.3 -->
      <defs>
       <path d="M 10.59375 35.5 
L 73.1875 35.5 
L 73.1875 27.203125 
L 10.59375 27.203125 
z
" id="DejaVuSans-8722"/>
       <path d="M 40.578125 39.3125 
Q 47.65625 37.796875 51.625 33 
Q 55.609375 28.21875 55.609375 21.1875 
Q 55.609375 10.40625 48.1875 4.484375 
Q 40.765625 -1.421875 27.09375 -1.421875 
Q 22.515625 -1.421875 17.65625 -0.515625 
Q 12.796875 0.390625 7.625 2.203125 
L 7.625 11.71875 
Q 11.71875 9.328125 16.59375 8.109375 
Q 21.484375 6.890625 26.8125 6.890625 
Q 36.078125 6.890625 40.9375 10.546875 
Q 45.796875 14.203125 45.796875 21.1875 
Q 45.796875 27.640625 41.28125 31.265625 
Q 36.765625 34.90625 28.71875 34.90625 
L 20.21875 34.90625 
L 20.21875 43.015625 
L 29.109375 43.015625 
Q 36.375 43.015625 40.234375 45.921875 
Q 44.09375 48.828125 44.09375 54.296875 
Q 44.09375 59.90625 40.109375 62.90625 
Q 36.140625 65.921875 28.71875 65.921875 
Q 24.65625 65.921875 20.015625 65.03125 
Q 15.375 64.15625 9.8125 62.3125 
L 9.8125 71.09375 
Q 15.4375 72.65625 20.34375 73.4375 
Q 25.25 74.21875 29.59375 74.21875 
Q 40.828125 74.21875 47.359375 69.109375 
Q 53.90625 64.015625 53.90625 55.328125 
Q 53.90625 49.265625 50.4375 45.09375 
Q 46.96875 40.921875 40.578125 39.3125 
z
" id="DejaVuSans-51"/>
      </defs>
      <g transform="translate(35.017188 373.966095)scale(0.1 -0.1)">
       <use xlink:href="#DejaVuSans-8722"/>
       <use x="83.789062" xlink:href="#DejaVuSans-48"/>
       <use x="147.412109" xlink:href="#DejaVuSans-46"/>
       <use x="179.199219" xlink:href="#DejaVuSans-51"/>
      </g>
     </g>
    </g>
    <g id="ytick_2">
     <g id="line2d_8">
      <g>
       <use style="stroke:#000000;stroke-width:0.8;" x="66.3" xlink:href="#md371a966db" y="324.822794"/>
      </g>
     </g>
     <g id="text_9">
      <!-- −0.2 -->
      <g transform="translate(35.017188 328.622013)scale(0.1 -0.1)">
       <use xlink:href="#DejaVuSans-8722"/>
       <use x="83.789062" xlink:href="#DejaVuSans-48"/>
       <use x="147.412109" xlink:href="#DejaVuSans-46"/>
       <use x="179.199219" xlink:href="#DejaVuSans-50"/>
      </g>
     </g>
    </g>
    <g id="ytick_3">
     <g id="line2d_9">
      <g>
       <use style="stroke:#000000;stroke-width:0.8;" x="66.3" xlink:href="#md371a966db" y="279.478712"/>
      </g>
     </g>
     <g id="text_10">
      <!-- −0.1 -->
      <g transform="translate(35.017188 283.277931)scale(0.1 -0.1)">
       <use xlink:href="#DejaVuSans-8722"/>
       <use x="83.789062" xlink:href="#DejaVuSans-48"/>
       <use x="147.412109" xlink:href="#DejaVuSans-46"/>
       <use x="179.199219" xlink:href="#DejaVuSans-49"/>
      </g>
     </g>
    </g>
    <g id="ytick_4">
     <g id="line2d_10">
      <g>
       <use style="stroke:#000000;stroke-width:0.8;" x="66.3" xlink:href="#md371a966db" y="234.13463"/>
      </g>
     </g>
     <g id="text_11">
      <!-- 0.0 -->
      <g transform="translate(43.396875 237.933849)scale(0.1 -0.1)">
       <use xlink:href="#DejaVuSans-48"/>
       <use x="63.623047" xlink:href="#DejaVuSans-46"/>
       <use x="95.410156" xlink:href="#DejaVuSans-48"/>
      </g>
     </g>
    </g>
    <g id="ytick_5">
     <g id="line2d_11">
      <g>
       <use style="stroke:#000000;stroke-width:0.8;" x="66.3" xlink:href="#md371a966db" y="188.790548"/>
      </g>
     </g>
     <g id="text_12">
      <!-- 0.1 -->
      <g transform="translate(43.396875 192.589766)scale(0.1 -0.1)">
       <use xlink:href="#DejaVuSans-48"/>
       <use x="63.623047" xlink:href="#DejaVuSans-46"/>
       <use x="95.410156" xlink:href="#DejaVuSans-49"/>
      </g>
     </g>
    </g>
    <g id="ytick_6">
     <g id="line2d_12">
      <g>
       <use style="stroke:#000000;stroke-width:0.8;" x="66.3" xlink:href="#md371a966db" y="143.446465"/>
      </g>
     </g>
     <g id="text_13">
      <!-- 0.2 -->
      <g transform="translate(43.396875 147.245684)scale(0.1 -0.1)">
       <use xlink:href="#DejaVuSans-48"/>
       <use x="63.623047" xlink:href="#DejaVuSans-46"/>
       <use x="95.410156" xlink:href="#DejaVuSans-50"/>
      </g>
     </g>
    </g>
    <g id="ytick_7">
     <g id="line2d_13">
      <g>
       <use style="stroke:#000000;stroke-width:0.8;" x="66.3" xlink:href="#md371a966db" y="98.102383"/>
      </g>
     </g>
     <g id="text_14">
      <!-- 0.3 -->
      <g transform="translate(43.396875 101.901602)scale(0.1 -0.1)">
       <use xlink:href="#DejaVuSans-48"/>
       <use x="63.623047" xlink:href="#DejaVuSans-46"/>
       <use x="95.410156" xlink:href="#DejaVuSans-51"/>
      </g>
     </g>
    </g>
    <g id="ytick_8">
     <g id="line2d_14">
      <g>
       <use style="stroke:#000000;stroke-width:0.8;" x="66.3" xlink:href="#md371a966db" y="52.758301"/>
      </g>
     </g>
     <g id="text_15">
      <!-- 0.4 -->
      <g transform="translate(43.396875 56.55752)scale(0.1 -0.1)">
       <use xlink:href="#DejaVuSans-48"/>
       <use x="63.623047" xlink:href="#DejaVuSans-46"/>
       <use x="95.410156" xlink:href="#DejaVuSans-52"/>
      </g>
     </g>
    </g>
    <g id="text_16">
     <!-- Minimum eigenvalue of $\hat{\rho}_s$ -->
     <defs>
      <path d="M 9.8125 72.90625 
L 24.515625 72.90625 
L 43.109375 23.296875 
L 61.8125 72.90625 
L 76.515625 72.90625 
L 76.515625 0 
L 66.890625 0 
L 66.890625 64.015625 
L 48.09375 14.015625 
L 38.1875 14.015625 
L 19.390625 64.015625 
L 19.390625 0 
L 9.8125 0 
z
" id="DejaVuSans-77"/>
      <path d="M 9.421875 54.6875 
L 18.40625 54.6875 
L 18.40625 0 
L 9.421875 0 
z
M 9.421875 75.984375 
L 18.40625 75.984375 
L 18.40625 64.59375 
L 9.421875 64.59375 
z
" id="DejaVuSans-105"/>
      <path d="M 54.890625 33.015625 
L 54.890625 0 
L 45.90625 0 
L 45.90625 32.71875 
Q 45.90625 40.484375 42.875 44.328125 
Q 39.84375 48.1875 33.796875 48.1875 
Q 26.515625 48.1875 22.3125 43.546875 
Q 18.109375 38.921875 18.109375 30.90625 
L 18.109375 0 
L 9.078125 0 
L 9.078125 54.6875 
L 18.109375 54.6875 
L 18.109375 46.1875 
Q 21.34375 51.125 25.703125 53.5625 
Q 30.078125 56 35.796875 56 
Q 45.21875 56 50.046875 50.171875 
Q 54.890625 44.34375 54.890625 33.015625 
z
" id="DejaVuSans-110"/>
      <path d="M 52 44.1875 
Q 55.375 50.25 60.0625 53.125 
Q 64.75 56 71.09375 56 
Q 79.640625 56 84.28125 50.015625 
Q 88.921875 44.046875 88.921875 33.015625 
L 88.921875 0 
L 79.890625 0 
L 79.890625 32.71875 
Q 79.890625 40.578125 77.09375 44.375 
Q 74.3125 48.1875 68.609375 48.1875 
Q 61.625 48.1875 57.5625 43.546875 
Q 53.515625 38.921875 53.515625 30.90625 
L 53.515625 0 
L 44.484375 0 
L 44.484375 32.71875 
Q 44.484375 40.625 41.703125 44.40625 
Q 38.921875 48.1875 33.109375 48.1875 
Q 26.21875 48.1875 22.15625 43.53125 
Q 18.109375 38.875 18.109375 30.90625 
L 18.109375 0 
L 9.078125 0 
L 9.078125 54.6875 
L 18.109375 54.6875 
L 18.109375 46.1875 
Q 21.1875 51.21875 25.484375 53.609375 
Q 29.78125 56 35.6875 56 
Q 41.65625 56 45.828125 52.96875 
Q 50 49.953125 52 44.1875 
z
" id="DejaVuSans-109"/>
      <path d="M 8.5 21.578125 
L 8.5 54.6875 
L 17.484375 54.6875 
L 17.484375 21.921875 
Q 17.484375 14.15625 20.5 10.265625 
Q 23.53125 6.390625 29.59375 6.390625 
Q 36.859375 6.390625 41.078125 11.03125 
Q 45.3125 15.671875 45.3125 23.6875 
L 45.3125 54.6875 
L 54.296875 54.6875 
L 54.296875 0 
L 45.3125 0 
L 45.3125 8.40625 
Q 42.046875 3.421875 37.71875 1 
Q 33.40625 -1.421875 27.6875 -1.421875 
Q 18.265625 -1.421875 13.375 4.4375 
Q 8.5 10.296875 8.5 21.578125 
z
M 31.109375 56 
z
" id="DejaVuSans-117"/>
      <path id="DejaVuSans-32"/>
      <path d="M 56.203125 29.59375 
L 56.203125 25.203125 
L 14.890625 25.203125 
Q 15.484375 15.921875 20.484375 11.0625 
Q 25.484375 6.203125 34.421875 6.203125 
Q 39.59375 6.203125 44.453125 7.46875 
Q 49.3125 8.734375 54.109375 11.28125 
L 54.109375 2.78125 
Q 49.265625 0.734375 44.1875 -0.34375 
Q 39.109375 -1.421875 33.890625 -1.421875 
Q 20.796875 -1.421875 13.15625 6.1875 
Q 5.515625 13.8125 5.515625 26.8125 
Q 5.515625 40.234375 12.765625 48.109375 
Q 20.015625 56 32.328125 56 
Q 43.359375 56 49.78125 48.890625 
Q 56.203125 41.796875 56.203125 29.59375 
z
M 47.21875 32.234375 
Q 47.125 39.59375 43.09375 43.984375 
Q 39.0625 48.390625 32.421875 48.390625 
Q 24.90625 48.390625 20.390625 44.140625 
Q 15.875 39.890625 15.1875 32.171875 
z
" id="DejaVuSans-101"/>
      <path d="M 45.40625 27.984375 
Q 45.40625 37.75 41.375 43.109375 
Q 37.359375 48.484375 30.078125 48.484375 
Q 22.859375 48.484375 18.828125 43.109375 
Q 14.796875 37.75 14.796875 27.984375 
Q 14.796875 18.265625 18.828125 12.890625 
Q 22.859375 7.515625 30.078125 7.515625 
Q 37.359375 7.515625 41.375 12.890625 
Q 45.40625 18.265625 45.40625 27.984375 
z
M 54.390625 6.78125 
Q 54.390625 -7.171875 48.1875 -13.984375 
Q 42 -20.796875 29.203125 -20.796875 
Q 24.46875 -20.796875 20.265625 -20.09375 
Q 16.0625 -19.390625 12.109375 -17.921875 
L 12.109375 -9.1875 
Q 16.0625 -11.328125 19.921875 -12.34375 
Q 23.78125 -13.375 27.78125 -13.375 
Q 36.625 -13.375 41.015625 -8.765625 
Q 45.40625 -4.15625 45.40625 5.171875 
L 45.40625 9.625 
Q 42.625 4.78125 38.28125 2.390625 
Q 33.9375 0 27.875 0 
Q 17.828125 0 11.671875 7.65625 
Q 5.515625 15.328125 5.515625 27.984375 
Q 5.515625 40.671875 11.671875 48.328125 
Q 17.828125 56 27.875 56 
Q 33.9375 56 38.28125 53.609375 
Q 42.625 51.21875 45.40625 46.390625 
L 45.40625 54.6875 
L 54.390625 54.6875 
z
" id="DejaVuSans-103"/>
      <path d="M 2.984375 54.6875 
L 12.5 54.6875 
L 29.59375 8.796875 
L 46.6875 54.6875 
L 56.203125 54.6875 
L 35.6875 0 
L 23.484375 0 
z
" id="DejaVuSans-118"/>
      <path d="M 34.28125 27.484375 
Q 23.390625 27.484375 19.1875 25 
Q 14.984375 22.515625 14.984375 16.5 
Q 14.984375 11.71875 18.140625 8.90625 
Q 21.296875 6.109375 26.703125 6.109375 
Q 34.1875 6.109375 38.703125 11.40625 
Q 43.21875 16.703125 43.21875 25.484375 
L 43.21875 27.484375 
z
M 52.203125 31.203125 
L 52.203125 0 
L 43.21875 0 
L 43.21875 8.296875 
Q 40.140625 3.328125 35.546875 0.953125 
Q 30.953125 -1.421875 24.3125 -1.421875 
Q 15.921875 -1.421875 10.953125 3.296875 
Q 6 8.015625 6 15.921875 
Q 6 25.140625 12.171875 29.828125 
Q 18.359375 34.515625 30.609375 34.515625 
L 43.21875 34.515625 
L 43.21875 35.40625 
Q 43.21875 41.609375 39.140625 45 
Q 35.0625 48.390625 27.6875 48.390625 
Q 23 48.390625 18.546875 47.265625 
Q 14.109375 46.140625 10.015625 43.890625 
L 10.015625 52.203125 
Q 14.9375 54.109375 19.578125 55.046875 
Q 24.21875 56 28.609375 56 
Q 40.484375 56 46.34375 49.84375 
Q 52.203125 43.703125 52.203125 31.203125 
z
" id="DejaVuSans-97"/>
      <path d="M 9.421875 75.984375 
L 18.40625 75.984375 
L 18.40625 0 
L 9.421875 0 
z
" id="DejaVuSans-108"/>
      <path d="M 30.609375 48.390625 
Q 23.390625 48.390625 19.1875 42.75 
Q 14.984375 37.109375 14.984375 27.296875 
Q 14.984375 17.484375 19.15625 11.84375 
Q 23.34375 6.203125 30.609375 6.203125 
Q 37.796875 6.203125 41.984375 11.859375 
Q 46.1875 17.53125 46.1875 27.296875 
Q 46.1875 37.015625 41.984375 42.703125 
Q 37.796875 48.390625 30.609375 48.390625 
z
M 30.609375 56 
Q 42.328125 56 49.015625 48.375 
Q 55.71875 40.765625 55.71875 27.296875 
Q 55.71875 13.875 49.015625 6.21875 
Q 42.328125 -1.421875 30.609375 -1.421875 
Q 18.84375 -1.421875 12.171875 6.21875 
Q 5.515625 13.875 5.515625 27.296875 
Q 5.515625 40.765625 12.171875 48.375 
Q 18.84375 56 30.609375 56 
z
" id="DejaVuSans-111"/>
      <path d="M 37.109375 75.984375 
L 37.109375 68.5 
L 28.515625 68.5 
Q 23.6875 68.5 21.796875 66.546875 
Q 19.921875 64.59375 19.921875 59.515625 
L 19.921875 54.6875 
L 34.71875 54.6875 
L 34.71875 47.703125 
L 19.921875 47.703125 
L 19.921875 0 
L 10.890625 0 
L 10.890625 47.703125 
L 2.296875 47.703125 
L 2.296875 54.6875 
L 10.890625 54.6875 
L 10.890625 58.5 
Q 10.890625 67.625 15.140625 71.796875 
Q 19.390625 75.984375 28.609375 75.984375 
z
" id="DejaVuSans-102"/>
      <path d="M -28.609375 79.984375 
L -21.390625 79.984375 
L -9.421875 61.625 
L -16.21875 61.625 
L -25 73.578125 
L -33.796875 61.625 
L -40.578125 61.625 
z
M -25 56 
z
" id="DejaVuSans-770"/>
      <path d="M 18.796875 44.921875 
Q 22.703125 49.90625 30.953125 54.296875 
Q 34.1875 56 43.0625 56 
Q 53.03125 56 57.71875 48.09375 
Q 62.40625 40.1875 59.90625 27.296875 
Q 57.375 14.40625 49.609375 6.484375 
Q 41.84375 -1.421875 31.890625 -1.421875 
Q 25.875 -1.421875 22.015625 0.984375 
Q 18.171875 3.328125 16.3125 8.203125 
L 10.640625 -20.796875 
L 1.609375 -20.796875 
L 10.890625 26.8125 
Q 13.09375 38.09375 18.796875 44.921875 
z
M 50.59375 27.296875 
Q 52.484375 37.203125 49.515625 42.875 
Q 46.53125 48.484375 39.40625 48.484375 
Q 32.28125 48.484375 27.09375 42.875 
Q 21.921875 37.203125 20.015625 27.296875 
Q 18.0625 17.390625 21.046875 11.71875 
Q 24.03125 6.109375 31.15625 6.109375 
Q 38.28125 6.109375 43.453125 11.71875 
Q 48.640625 17.390625 50.59375 27.296875 
z
" id="DejaVuSans-Oblique-961"/>
      <path d="M 50 53.078125 
L 48.296875 44.578125 
Q 44.734375 46.53125 40.765625 47.5 
Q 36.8125 48.484375 32.625 48.484375 
Q 25.53125 48.484375 21.453125 46.0625 
Q 17.390625 43.65625 17.390625 39.5 
Q 17.390625 34.671875 26.859375 32.078125 
Q 27.59375 31.890625 27.9375 31.78125 
L 30.8125 30.90625 
Q 39.796875 28.421875 42.796875 25.6875 
Q 45.796875 22.953125 45.796875 18.21875 
Q 45.796875 9.515625 38.890625 4.046875 
Q 31.984375 -1.421875 20.796875 -1.421875 
Q 16.453125 -1.421875 11.671875 -0.578125 
Q 6.890625 0.25 1.125 2 
L 2.875 11.28125 
Q 7.8125 8.734375 12.59375 7.421875 
Q 17.390625 6.109375 21.78125 6.109375 
Q 28.375 6.109375 32.5 8.9375 
Q 36.625 11.765625 36.625 16.109375 
Q 36.625 20.796875 25.78125 23.6875 
L 24.859375 23.921875 
L 21.78125 24.703125 
Q 14.9375 26.515625 11.765625 29.46875 
Q 8.59375 32.421875 8.59375 37.015625 
Q 8.59375 45.75 15.15625 50.875 
Q 21.734375 56 33.015625 56 
Q 37.453125 56 41.671875 55.265625 
Q 45.90625 54.546875 50 53.078125 
z
" id="DejaVuSans-Oblique-115"/>
     </defs>
     <g transform="translate(28.077187 291.95)rotate(-90)scale(0.14 -0.14)">
      <use transform="translate(0 0.515625)" xlink:href="#DejaVuSans-77"/>
      <use transform="translate(86.279297 0.515625)" xlink:href="#DejaVuSans-105"/>
      <use transform="translate(114.0625 0.515625)" xlink:href="#DejaVuSans-110"/>
      <use transform="translate(177.441406 0.515625)" xlink:href="#DejaVuSans-105"/>
      <use transform="translate(205.224609 0.515625)" xlink:href="#DejaVuSans-109"/>
      <use transform="translate(302.636719 0.515625)" xlink:href="#DejaVuSans-117"/>
      <use transform="translate(366.015625 0.515625)" xlink:href="#DejaVuSans-109"/>
      <use transform="translate(463.427734 0.515625)" xlink:href="#DejaVuSans-32"/>
      <use transform="translate(495.214844 0.515625)" xlink:href="#DejaVuSans-101"/>
      <use transform="translate(556.738281 0.515625)" xlink:href="#DejaVuSans-105"/>
      <use transform="translate(584.521484 0.515625)" xlink:href="#DejaVuSans-103"/>
      <use transform="translate(647.998047 0.515625)" xlink:href="#DejaVuSans-101"/>
      <use transform="translate(709.521484 0.515625)" xlink:href="#DejaVuSans-110"/>
      <use transform="translate(772.900391 0.515625)" xlink:href="#DejaVuSans-118"/>
      <use transform="translate(832.080078 0.515625)" xlink:href="#DejaVuSans-97"/>
      <use transform="translate(893.359375 0.515625)" xlink:href="#DejaVuSans-108"/>
      <use transform="translate(921.142578 0.515625)" xlink:href="#DejaVuSans-117"/>
      <use transform="translate(984.521484 0.515625)" xlink:href="#DejaVuSans-101"/>
      <use transform="translate(1046.044922 0.515625)" xlink:href="#DejaVuSans-32"/>
      <use transform="translate(1077.832031 0.515625)" xlink:href="#DejaVuSans-111"/>
      <use transform="translate(1139.013672 0.515625)" xlink:href="#DejaVuSans-102"/>
      <use transform="translate(1174.21875 0.515625)" xlink:href="#DejaVuSans-32"/>
      <use transform="translate(1270.453125 13.015625)" xlink:href="#DejaVuSans-770"/>
      <use transform="translate(1206.005859 0.515625)" xlink:href="#DejaVuSans-Oblique-961"/>
      <use transform="translate(1270.439453 -15.890625)scale(0.7)" xlink:href="#DejaVuSans-Oblique-115"/>
     </g>
    </g>
   </g>
   <g id="line2d_15">
    <path clip-path="url(#pf45826e935)" d="M 66.29509 234.13463 
L 66.6044 81.040547 
L 66.874432 33.419808 
L 66.889161 33.228579 
L 66.933348 34.270551 
L 67.075729 46.749651 
L 67.787631 111.5957 
L 68.337515 141.272267 
L 68.887398 159.767364 
L 69.437282 171.292725 
L 69.987165 178.474826 
L 70.537049 182.950397 
L 71.086932 185.739377 
L 71.646635 187.501517 
L 72.216157 188.60518 
L 72.820047 189.312578 
L 73.502492 189.773758 
L 74.356775 190.074297 
L 75.598923 190.256123 
L 77.975205 190.338962 
L 89.640591 190.351288 
L 557.2625 190.351288 
L 557.2625 190.351288 
" style="fill:none;stroke:#1f77b4;stroke-linecap:square;stroke-width:1.5;"/>
   </g>
   <g id="line2d_16">
    <path clip-path="url(#pf45826e935)" d="M 66.29509 234.13463 
L 66.319639 235.871013 
L 66.437471 268.532823 
L 66.776238 344.832319 
L 67.04627 363.554806 
L 67.296664 368.501926 
L 67.49796 369.292668 
L 67.601064 369.21157 
L 67.792541 368.631541 
L 68.268779 366.281679 
L 77.405683 317.361675 
L 82.079693 294.078016 
L 86.753702 271.915557 
L 91.422802 250.844401 
L 96.091902 230.792208 
L 100.756093 211.732922 
L 105.415374 193.620945 
L 110.064835 176.431633 
L 114.699567 160.140271 
L 119.314661 144.722759 
L 123.900297 130.17162 
L 128.441745 116.493199 
L 132.914458 103.719264 
L 137.288978 91.889136 
L 141.526027 81.061408 
L 145.571598 71.321547 
L 149.361866 62.762777 
L 152.837916 55.448174 
L 155.955559 49.390022 
L 158.704976 44.516922 
L 161.105807 40.697516 
L 163.202238 37.764386 
L 165.043365 35.556328 
L 166.678287 33.92982 
L 168.151189 32.76682 
L 169.506259 31.971868 
L 170.777865 31.478122 
L 172.000374 31.23852 
L 173.213063 31.226669 
L 174.455211 31.43928 
L 175.761184 31.892218 
L 177.18008 32.625336 
L 178.765905 33.702868 
L 180.592303 35.223314 
L 182.762379 37.332096 
L 185.4627 40.282565 
L 189.095859 44.605335 
L 195.237861 52.312885 
L 206.014596 65.80839 
L 212.524824 73.58225 
L 218.573542 80.462188 
L 224.450422 86.812244 
L 230.258566 92.762481 
L 236.056892 98.385751 
L 241.879765 103.724158 
L 247.751735 108.806698 
L 253.687531 113.651228 
L 259.706792 118.27759 
L 265.824246 122.699519 
L 272.054622 126.929029 
L 278.41265 130.976494 
L 284.908149 134.847929 
L 291.560757 138.553997 
L 298.385204 142.100886 
L 305.396219 145.493693 
L 312.61344 148.7387 
L 320.056506 151.840764 
L 327.745055 154.80354 
L 335.708547 157.633032 
L 343.971528 160.331817 
L 352.558548 162.901432 
L 361.508884 165.346464 
L 370.861813 167.669534 
L 380.656613 169.871717 
L 390.94729 171.955771 
L 401.78785 173.922502 
L 413.24703 175.773557 
L 425.408292 177.510635 
L 438.364922 179.13435 
L 452.229842 180.645303 
L 467.145432 182.044414 
L 483.29335 183.33278 
L 500.889622 184.510362 
L 520.223919 185.577811 
L 541.679194 186.535642 
L 557.2625 187.108498 
L 557.2625 187.108498 
" style="fill:none;stroke:#ff7f0e;stroke-linecap:square;stroke-width:1.5;"/>
   </g>
   <g id="line2d_17">
    <path clip-path="url(#pf45826e935)" d="M -1 234.13463 
L 577 234.13463 
" style="fill:none;stroke:#000000;stroke-dasharray:5.55,2.4;stroke-dashoffset:0;stroke-opacity:0.4;stroke-width:1.5;"/>
   </g>
   <g id="patch_3">
    <path d="M 66.3 386.2 
L 66.3 14.3 
" style="fill:none;stroke:#000000;stroke-linecap:square;stroke-linejoin:miter;stroke-width:0.8;"/>
   </g>
   <g id="patch_4">
    <path d="M 557.2625 386.2 
L 557.2625 14.3 
" style="fill:none;stroke:#000000;stroke-linecap:square;stroke-linejoin:miter;stroke-width:0.8;"/>
   </g>
   <g id="patch_5">
    <path d="M 66.3 386.2 
L 557.2625 386.2 
" style="fill:none;stroke:#000000;stroke-linecap:square;stroke-linejoin:miter;stroke-width:0.8;"/>
   </g>
   <g id="patch_6">
    <path d="M 66.3 14.3 
L 557.2625 14.3 
" style="fill:none;stroke:#000000;stroke-linecap:square;stroke-linejoin:miter;stroke-width:0.8;"/>
   </g>
   <g id="patch_7">
    <path clip-path="url(#pf45826e935)" d="M 66.3 392.838918 
L 115.391831 392.838918 
L 115.391831 16.483035 
L 66.3 16.483035 
z
" style="fill:none;opacity:0.5;stroke:#808080;stroke-linejoin:miter;"/>
   </g>
   <g id="patch_8">
    <path d="M 360.875536 211.462589 
Q 238.133684 113.972812 115.391831 16.483035 
" style="fill:none;opacity:0.5;stroke:#808080;stroke-linecap:round;"/>
   </g>
   <g id="axes_2">
    <g id="patch_9">
     <path d="M 164.488572 347.494835 
L 360.875536 347.494835 
L 360.875536 211.462589 
L 164.488572 211.462589 
z
" style="fill:#ffffff;"/>
    </g>
    <g id="matplotlib.axis_3">
     <g id="xtick_7">
      <g id="line2d_18">
       <g>
        <use style="stroke:#000000;stroke-width:0.8;" x="164.488572" xlink:href="#m1078c3b435" y="347.494835"/>
       </g>
      </g>
      <g id="text_17">
       <!-- $\mathdefault{10^{-5}}$ -->
       <defs>
        <path d="M 10.796875 72.90625 
L 49.515625 72.90625 
L 49.515625 64.59375 
L 19.828125 64.59375 
L 19.828125 46.734375 
Q 21.96875 47.46875 24.109375 47.828125 
Q 26.265625 48.1875 28.421875 48.1875 
Q 40.625 48.1875 47.75 41.5 
Q 54.890625 34.8125 54.890625 23.390625 
Q 54.890625 11.625 47.5625 5.09375 
Q 40.234375 -1.421875 26.90625 -1.421875 
Q 22.3125 -1.421875 17.546875 -0.640625 
Q 12.796875 0.140625 7.71875 1.703125 
L 7.71875 11.625 
Q 12.109375 9.234375 16.796875 8.0625 
Q 21.484375 6.890625 26.703125 6.890625 
Q 35.15625 6.890625 40.078125 11.328125 
Q 45.015625 15.765625 45.015625 23.390625 
Q 45.015625 31 40.078125 35.4375 
Q 35.15625 39.890625 26.703125 39.890625 
Q 22.75 39.890625 18.8125 39.015625 
Q 14.890625 38.140625 10.796875 36.28125 
z
" id="DejaVuSans-53"/>
       </defs>
       <g transform="translate(152.738572 362.093273)scale(0.1 -0.1)">
        <use transform="translate(0 0.684375)" xlink:href="#DejaVuSans-49"/>
        <use transform="translate(63.623047 0.684375)" xlink:href="#DejaVuSans-48"/>
        <use transform="translate(128.203125 38.965625)scale(0.7)" xlink:href="#DejaVuSans-8722"/>
        <use transform="translate(186.855469 38.965625)scale(0.7)" xlink:href="#DejaVuSans-53"/>
       </g>
      </g>
     </g>
     <g id="xtick_8">
      <g id="line2d_19">
       <g>
        <use style="stroke:#000000;stroke-width:0.8;" x="213.585313" xlink:href="#m1078c3b435" y="347.494835"/>
       </g>
      </g>
      <g id="text_18">
       <!-- $\mathdefault{10^{-4}}$ -->
       <g transform="translate(201.835313 362.093273)scale(0.1 -0.1)">
        <use transform="translate(0 0.684375)" xlink:href="#DejaVuSans-49"/>
        <use transform="translate(63.623047 0.684375)" xlink:href="#DejaVuSans-48"/>
        <use transform="translate(128.203125 38.965625)scale(0.7)" xlink:href="#DejaVuSans-8722"/>
        <use transform="translate(186.855469 38.965625)scale(0.7)" xlink:href="#DejaVuSans-52"/>
       </g>
      </g>
     </g>
     <g id="xtick_9">
      <g id="line2d_20">
       <g>
        <use style="stroke:#000000;stroke-width:0.8;" x="262.682054" xlink:href="#m1078c3b435" y="347.494835"/>
       </g>
      </g>
      <g id="text_19">
       <!-- $\mathdefault{10^{-3}}$ -->
       <g transform="translate(250.932054 362.093273)scale(0.1 -0.1)">
        <use transform="translate(0 0.765625)" xlink:href="#DejaVuSans-49"/>
        <use transform="translate(63.623047 0.765625)" xlink:href="#DejaVuSans-48"/>
        <use transform="translate(128.203125 39.046875)scale(0.7)" xlink:href="#DejaVuSans-8722"/>
        <use transform="translate(186.855469 39.046875)scale(0.7)" xlink:href="#DejaVuSans-51"/>
       </g>
      </g>
     </g>
     <g id="xtick_10">
      <g id="line2d_21">
       <g>
        <use style="stroke:#000000;stroke-width:0.8;" x="311.778795" xlink:href="#m1078c3b435" y="347.494835"/>
       </g>
      </g>
      <g id="text_20">
       <!-- $\mathdefault{10^{-2}}$ -->
       <g transform="translate(300.028795 362.093273)scale(0.1 -0.1)">
        <use transform="translate(0 0.765625)" xlink:href="#DejaVuSans-49"/>
        <use transform="translate(63.623047 0.765625)" xlink:href="#DejaVuSans-48"/>
        <use transform="translate(128.203125 39.046875)scale(0.7)" xlink:href="#DejaVuSans-8722"/>
        <use transform="translate(186.855469 39.046875)scale(0.7)" xlink:href="#DejaVuSans-50"/>
       </g>
      </g>
     </g>
     <g id="xtick_11">
      <g id="line2d_22">
       <g>
        <use style="stroke:#000000;stroke-width:0.8;" x="360.875536" xlink:href="#m1078c3b435" y="347.494835"/>
       </g>
      </g>
      <g id="text_21">
       <!-- $\mathdefault{10^{-1}}$ -->
       <g transform="translate(349.125536 362.093273)scale(0.1 -0.1)">
        <use transform="translate(0 0.684375)" xlink:href="#DejaVuSans-49"/>
        <use transform="translate(63.623047 0.684375)" xlink:href="#DejaVuSans-48"/>
        <use transform="translate(128.203125 38.965625)scale(0.7)" xlink:href="#DejaVuSans-8722"/>
        <use transform="translate(186.855469 38.965625)scale(0.7)" xlink:href="#DejaVuSans-49"/>
       </g>
      </g>
     </g>
     <g id="xtick_12">
      <g id="line2d_23">
       <defs>
        <path d="M 0 0 
L 0 2 
" id="m298dcfa147" style="stroke:#000000;stroke-width:0.6;"/>
       </defs>
       <g>
        <use style="stroke:#000000;stroke-width:0.6;" x="179.268164" xlink:href="#m298dcfa147" y="347.494835"/>
       </g>
      </g>
     </g>
     <g id="xtick_13">
      <g id="line2d_24">
       <g>
        <use style="stroke:#000000;stroke-width:0.6;" x="187.913671" xlink:href="#m298dcfa147" y="347.494835"/>
       </g>
      </g>
     </g>
     <g id="xtick_14">
      <g id="line2d_25">
       <g>
        <use style="stroke:#000000;stroke-width:0.6;" x="194.047756" xlink:href="#m298dcfa147" y="347.494835"/>
       </g>
      </g>
     </g>
     <g id="xtick_15">
      <g id="line2d_26">
       <g>
        <use style="stroke:#000000;stroke-width:0.6;" x="198.805722" xlink:href="#m298dcfa147" y="347.494835"/>
       </g>
      </g>
     </g>
     <g id="xtick_16">
      <g id="line2d_27">
       <g>
        <use style="stroke:#000000;stroke-width:0.6;" x="202.693263" xlink:href="#m298dcfa147" y="347.494835"/>
       </g>
      </g>
     </g>
     <g id="xtick_17">
      <g id="line2d_28">
       <g>
        <use style="stroke:#000000;stroke-width:0.6;" x="205.980132" xlink:href="#m298dcfa147" y="347.494835"/>
       </g>
      </g>
     </g>
     <g id="xtick_18">
      <g id="line2d_29">
       <g>
        <use style="stroke:#000000;stroke-width:0.6;" x="208.827347" xlink:href="#m298dcfa147" y="347.494835"/>
       </g>
      </g>
     </g>
     <g id="xtick_19">
      <g id="line2d_30">
       <g>
        <use style="stroke:#000000;stroke-width:0.6;" x="211.33877" xlink:href="#m298dcfa147" y="347.494835"/>
       </g>
      </g>
     </g>
     <g id="xtick_20">
      <g id="line2d_31">
       <g>
        <use style="stroke:#000000;stroke-width:0.6;" x="228.364905" xlink:href="#m298dcfa147" y="347.494835"/>
       </g>
      </g>
     </g>
     <g id="xtick_21">
      <g id="line2d_32">
       <g>
        <use style="stroke:#000000;stroke-width:0.6;" x="237.010412" xlink:href="#m298dcfa147" y="347.494835"/>
       </g>
      </g>
     </g>
     <g id="xtick_22">
      <g id="line2d_33">
       <g>
        <use style="stroke:#000000;stroke-width:0.6;" x="243.144497" xlink:href="#m298dcfa147" y="347.494835"/>
       </g>
      </g>
     </g>
     <g id="xtick_23">
      <g id="line2d_34">
       <g>
        <use style="stroke:#000000;stroke-width:0.6;" x="247.902462" xlink:href="#m298dcfa147" y="347.494835"/>
       </g>
      </g>
     </g>
     <g id="xtick_24">
      <g id="line2d_35">
       <g>
        <use style="stroke:#000000;stroke-width:0.6;" x="251.790004" xlink:href="#m298dcfa147" y="347.494835"/>
       </g>
      </g>
     </g>
     <g id="xtick_25">
      <g id="line2d_36">
       <g>
        <use style="stroke:#000000;stroke-width:0.6;" x="255.076873" xlink:href="#m298dcfa147" y="347.494835"/>
       </g>
      </g>
     </g>
     <g id="xtick_26">
      <g id="line2d_37">
       <g>
        <use style="stroke:#000000;stroke-width:0.6;" x="257.924088" xlink:href="#m298dcfa147" y="347.494835"/>
       </g>
      </g>
     </g>
     <g id="xtick_27">
      <g id="line2d_38">
       <g>
        <use style="stroke:#000000;stroke-width:0.6;" x="260.435511" xlink:href="#m298dcfa147" y="347.494835"/>
       </g>
      </g>
     </g>
     <g id="xtick_28">
      <g id="line2d_39">
       <g>
        <use style="stroke:#000000;stroke-width:0.6;" x="277.461646" xlink:href="#m298dcfa147" y="347.494835"/>
       </g>
      </g>
     </g>
     <g id="xtick_29">
      <g id="line2d_40">
       <g>
        <use style="stroke:#000000;stroke-width:0.6;" x="286.107153" xlink:href="#m298dcfa147" y="347.494835"/>
       </g>
      </g>
     </g>
     <g id="xtick_30">
      <g id="line2d_41">
       <g>
        <use style="stroke:#000000;stroke-width:0.6;" x="292.241238" xlink:href="#m298dcfa147" y="347.494835"/>
       </g>
      </g>
     </g>
     <g id="xtick_31">
      <g id="line2d_42">
       <g>
        <use style="stroke:#000000;stroke-width:0.6;" x="296.999203" xlink:href="#m298dcfa147" y="347.494835"/>
       </g>
      </g>
     </g>
     <g id="xtick_32">
      <g id="line2d_43">
       <g>
        <use style="stroke:#000000;stroke-width:0.6;" x="300.886745" xlink:href="#m298dcfa147" y="347.494835"/>
       </g>
      </g>
     </g>
     <g id="xtick_33">
      <g id="line2d_44">
       <g>
        <use style="stroke:#000000;stroke-width:0.6;" x="304.173614" xlink:href="#m298dcfa147" y="347.494835"/>
       </g>
      </g>
     </g>
     <g id="xtick_34">
      <g id="line2d_45">
       <g>
        <use style="stroke:#000000;stroke-width:0.6;" x="307.020829" xlink:href="#m298dcfa147" y="347.494835"/>
       </g>
      </g>
     </g>
     <g id="xtick_35">
      <g id="line2d_46">
       <g>
        <use style="stroke:#000000;stroke-width:0.6;" x="309.532252" xlink:href="#m298dcfa147" y="347.494835"/>
       </g>
      </g>
     </g>
     <g id="xtick_36">
      <g id="line2d_47">
       <g>
        <use style="stroke:#000000;stroke-width:0.6;" x="326.558387" xlink:href="#m298dcfa147" y="347.494835"/>
       </g>
      </g>
     </g>
     <g id="xtick_37">
      <g id="line2d_48">
       <g>
        <use style="stroke:#000000;stroke-width:0.6;" x="335.203894" xlink:href="#m298dcfa147" y="347.494835"/>
       </g>
      </g>
     </g>
     <g id="xtick_38">
      <g id="line2d_49">
       <g>
        <use style="stroke:#000000;stroke-width:0.6;" x="341.337979" xlink:href="#m298dcfa147" y="347.494835"/>
       </g>
      </g>
     </g>
     <g id="xtick_39">
      <g id="line2d_50">
       <g>
        <use style="stroke:#000000;stroke-width:0.6;" x="346.095944" xlink:href="#m298dcfa147" y="347.494835"/>
       </g>
      </g>
     </g>
     <g id="xtick_40">
      <g id="line2d_51">
       <g>
        <use style="stroke:#000000;stroke-width:0.6;" x="349.983486" xlink:href="#m298dcfa147" y="347.494835"/>
       </g>
      </g>
     </g>
     <g id="xtick_41">
      <g id="line2d_52">
       <g>
        <use style="stroke:#000000;stroke-width:0.6;" x="353.270355" xlink:href="#m298dcfa147" y="347.494835"/>
       </g>
      </g>
     </g>
     <g id="xtick_42">
      <g id="line2d_53">
       <g>
        <use style="stroke:#000000;stroke-width:0.6;" x="356.11757" xlink:href="#m298dcfa147" y="347.494835"/>
       </g>
      </g>
     </g>
     <g id="xtick_43">
      <g id="line2d_54">
       <g>
        <use style="stroke:#000000;stroke-width:0.6;" x="358.628992" xlink:href="#m298dcfa147" y="347.494835"/>
       </g>
      </g>
     </g>
    </g>
    <g id="matplotlib.axis_4">
     <g id="ytick_9">
      <g id="line2d_55">
       <g>
        <use style="stroke:#000000;stroke-width:0.8;" x="164.488572" xlink:href="#md371a966db" y="322.910694"/>
       </g>
      </g>
      <g id="text_22">
       <!-- −0.2 -->
       <g transform="translate(133.20576 326.709913)scale(0.1 -0.1)">
        <use xlink:href="#DejaVuSans-8722"/>
        <use x="83.789062" xlink:href="#DejaVuSans-48"/>
        <use x="147.412109" xlink:href="#DejaVuSans-46"/>
        <use x="179.199219" xlink:href="#DejaVuSans-50"/>
       </g>
      </g>
     </g>
     <g id="ytick_10">
      <g id="line2d_56">
       <g>
        <use style="stroke:#000000;stroke-width:0.8;" x="164.488572" xlink:href="#md371a966db" y="290.13184"/>
       </g>
      </g>
      <g id="text_23">
       <!-- 0.0 -->
       <g transform="translate(141.585447 293.931059)scale(0.1 -0.1)">
        <use xlink:href="#DejaVuSans-48"/>
        <use x="63.623047" xlink:href="#DejaVuSans-46"/>
        <use x="95.410156" xlink:href="#DejaVuSans-48"/>
       </g>
      </g>
     </g>
     <g id="ytick_11">
      <g id="line2d_57">
       <g>
        <use style="stroke:#000000;stroke-width:0.8;" x="164.488572" xlink:href="#md371a966db" y="257.352985"/>
       </g>
      </g>
      <g id="text_24">
       <!-- 0.2 -->
       <g transform="translate(141.585447 261.152204)scale(0.1 -0.1)">
        <use xlink:href="#DejaVuSans-48"/>
        <use x="63.623047" xlink:href="#DejaVuSans-46"/>
        <use x="95.410156" xlink:href="#DejaVuSans-50"/>
       </g>
      </g>
     </g>
     <g id="ytick_12">
      <g id="line2d_58">
       <g>
        <use style="stroke:#000000;stroke-width:0.8;" x="164.488572" xlink:href="#md371a966db" y="224.574131"/>
       </g>
      </g>
      <g id="text_25">
       <!-- 0.4 -->
       <g transform="translate(141.585447 228.373349)scale(0.1 -0.1)">
        <use xlink:href="#DejaVuSans-48"/>
        <use x="63.623047" xlink:href="#DejaVuSans-46"/>
        <use x="95.410156" xlink:href="#DejaVuSans-52"/>
       </g>
      </g>
     </g>
    </g>
    <g id="line2d_59">
     <path clip-path="url(#p98f15c8276)" d="M -1 288.766404 
L 164.488572 288.761762 
L 179.268164 287.414094 
L 187.913671 286.088411 
L 194.047756 284.784298 
L 198.805722 283.501348 
L 202.693263 282.239162 
L 205.980132 280.997348 
L 208.827347 279.775521 
L 213.585313 277.390327 
L 217.472854 275.080653 
L 220.759724 272.843679 
L 223.606939 270.6767 
L 227.271207 267.551805 
L 230.397151 264.570216 
L 233.959152 260.804175 
L 237.010412 257.261677 
L 240.297281 253.123831 
L 244.184822 247.8232 
L 248.324703 241.756139 
L 253.82225 233.237458 
L 259.712647 224.165976 
L 262.032589 221.009534 
L 263.518336 219.329504 
L 264.7143 218.298798 
L 265.66212 217.761189 
L 266.569595 217.526502 
L 267.44002 217.581724 
L 268.276301 217.891811 
L 269.238379 218.532318 
L 270.308547 219.542874 
L 271.609982 221.093272 
L 273.359807 223.557317 
L 275.799315 227.426372 
L 279.493892 233.755176 
L 289.21047 250.566664 
L 292.453403 255.645045 
L 295.221304 259.575093 
L 297.670832 262.677496 
L 299.942155 265.203748 
L 302.095628 267.270904 
L 304.173614 268.959711 
L 306.20586 270.328039 
L 308.238106 271.432419 
L 310.34574 272.324478 
L 312.574032 273.023559 
L 315.016872 273.552936 
L 317.843469 273.931098 
L 321.410407 274.171415 
L 326.802196 274.286501 
L 343.170607 274.306535 
L 409.972277 274.306536 
L 409.972277 274.306536 
" style="fill:none;stroke:#1f77b4;stroke-linecap:square;stroke-width:1.5;"/>
    </g>
    <g id="line2d_60">
     <path clip-path="url(#p98f15c8276)" d="M -1 290.159051 
L 179.268164 290.238821 
L 194.047756 290.542159 
L 202.693263 291.016389 
L 208.827347 291.63757 
L 213.585313 292.383522 
L 217.472854 293.233963 
L 220.759724 294.170553 
L 223.606939 295.176875 
L 226.118361 296.238356 
L 229.40523 297.906372 
L 232.252446 299.633326 
L 234.763868 301.389621 
L 237.709571 303.736974 
L 240.897953 306.623051 
L 244.184822 309.944639 
L 247.902462 314.04529 
L 254.77007 322.069809 
L 258.964414 326.79462 
L 262.032589 329.933302 
L 264.7143 332.354726 
L 267.096102 334.203561 
L 269.238379 335.601301 
L 271.327561 336.714949 
L 273.488644 337.611225 
L 275.683746 338.26963 
L 277.883886 338.698333 
L 280.255489 338.935813 
L 282.89124 338.97532 
L 285.964527 338.792858 
L 289.636325 338.344634 
L 293.980722 337.585113 
L 298.561082 336.559268 
L 302.886659 335.365197 
L 306.887146 334.031306 
L 310.595129 332.561197 
L 314.061556 330.948608 
L 317.340213 329.178372 
L 320.452713 327.245841 
L 323.441419 325.128554 
L 326.32254 322.815059 
L 329.126593 320.277334 
L 331.863652 317.499131 
L 334.554429 314.449316 
L 337.216747 311.092464 
L 339.859265 307.398801 
L 342.494751 303.328606 
L 345.140951 298.827365 
L 347.807898 293.846185 
L 350.516925 288.308097 
L 353.28558 282.133884 
L 356.144207 275.206122 
L 359.139314 267.35271 
L 362.354023 258.283322 
L 366.005513 247.288727 
L 374.744686 220.612552 
L 375.77208 218.362387 
L 376.476027 217.301765 
L 377.001908 216.871002 
L 377.430938 216.786885 
L 377.83996 216.937072 
L 378.304462 217.363631 
L 378.891372 218.23298 
L 379.690524 219.853365 
L 380.883777 222.83143 
L 383.080874 229.017488 
L 387.891757 242.581875 
L 390.439517 249.057081 
L 392.666172 254.128145 
L 394.699597 258.222432 
L 396.598236 261.559376 
L 398.399965 264.287971 
L 400.133409 266.519031 
L 401.824134 268.34007 
L 403.498608 269.822156 
L 405.186574 271.022556 
L 406.924544 271.98696 
L 408.761094 272.751024 
L 409.972277 273.134443 
L 409.972277 273.134443 
" style="fill:none;stroke:#ff7f0e;stroke-linecap:square;stroke-width:1.5;"/>
    </g>
    <g id="line2d_61">
     <path clip-path="url(#p98f15c8276)" d="M -1 290.13184 
L 424.751869 290.13184 
" style="fill:none;stroke:#000000;stroke-dasharray:5.55,2.4;stroke-dashoffset:0;stroke-opacity:0.4;stroke-width:1.5;"/>
    </g>
    <g id="patch_10">
     <path d="M 164.488572 347.494835 
L 164.488572 211.462589 
" style="fill:none;stroke:#000000;stroke-linecap:square;stroke-linejoin:miter;stroke-width:0.8;"/>
    </g>
    <g id="patch_11">
     <path d="M 360.875536 347.494835 
L 360.875536 211.462589 
" style="fill:none;stroke:#000000;stroke-linecap:square;stroke-linejoin:miter;stroke-width:0.8;"/>
    </g>
    <g id="patch_12">
     <path d="M 164.488572 347.494835 
L 360.875536 347.494835 
" style="fill:none;stroke:#000000;stroke-linecap:square;stroke-linejoin:miter;stroke-width:0.8;"/>
    </g>
    <g id="patch_13">
     <path d="M 164.488572 211.462589 
L 360.875536 211.462589 
" style="fill:none;stroke:#000000;stroke-linecap:square;stroke-linejoin:miter;stroke-width:0.8;"/>
    </g>
   </g>
   <g id="legend_1">
    <g id="patch_14">
     <path d="M 392.515313 66.59875 
L 547.4625 66.59875 
Q 550.2625 66.59875 550.2625 63.79875 
L 550.2625 24.1 
Q 550.2625 21.3 547.4625 21.3 
L 392.515313 21.3 
Q 389.715313 21.3 389.715313 24.1 
L 389.715313 63.79875 
Q 389.715313 66.59875 392.515313 66.59875 
z
" style="fill:#ffffff;opacity:0.8;stroke:#cccccc;stroke-linejoin:miter;"/>
    </g>
    <g id="line2d_62">
     <path d="M 395.315313 32.637812 
L 423.315313 32.637812 
" style="fill:none;stroke:#1f77b4;stroke-linecap:square;stroke-width:1.5;"/>
    </g>
    <g id="line2d_63"/>
    <g id="text_26">
     <!-- Secular approx. -->
     <defs>
      <path d="M 53.515625 70.515625 
L 53.515625 60.890625 
Q 47.90625 63.578125 42.921875 64.890625 
Q 37.9375 66.21875 33.296875 66.21875 
Q 25.25 66.21875 20.875 63.09375 
Q 16.5 59.96875 16.5 54.203125 
Q 16.5 49.359375 19.40625 46.890625 
Q 22.3125 44.4375 30.421875 42.921875 
L 36.375 41.703125 
Q 47.40625 39.59375 52.65625 34.296875 
Q 57.90625 29 57.90625 20.125 
Q 57.90625 9.515625 50.796875 4.046875 
Q 43.703125 -1.421875 29.984375 -1.421875 
Q 24.8125 -1.421875 18.96875 -0.25 
Q 13.140625 0.921875 6.890625 3.21875 
L 6.890625 13.375 
Q 12.890625 10.015625 18.65625 8.296875 
Q 24.421875 6.59375 29.984375 6.59375 
Q 38.421875 6.59375 43.015625 9.90625 
Q 47.609375 13.234375 47.609375 19.390625 
Q 47.609375 24.75 44.3125 27.78125 
Q 41.015625 30.8125 33.5 32.328125 
L 27.484375 33.5 
Q 16.453125 35.6875 11.515625 40.375 
Q 6.59375 45.0625 6.59375 53.421875 
Q 6.59375 63.09375 13.40625 68.65625 
Q 20.21875 74.21875 32.171875 74.21875 
Q 37.3125 74.21875 42.625 73.28125 
Q 47.953125 72.359375 53.515625 70.515625 
z
" id="DejaVuSans-83"/>
      <path d="M 48.78125 52.59375 
L 48.78125 44.1875 
Q 44.96875 46.296875 41.140625 47.34375 
Q 37.3125 48.390625 33.40625 48.390625 
Q 24.65625 48.390625 19.8125 42.84375 
Q 14.984375 37.3125 14.984375 27.296875 
Q 14.984375 17.28125 19.8125 11.734375 
Q 24.65625 6.203125 33.40625 6.203125 
Q 37.3125 6.203125 41.140625 7.25 
Q 44.96875 8.296875 48.78125 10.40625 
L 48.78125 2.09375 
Q 45.015625 0.34375 40.984375 -0.53125 
Q 36.96875 -1.421875 32.421875 -1.421875 
Q 20.0625 -1.421875 12.78125 6.34375 
Q 5.515625 14.109375 5.515625 27.296875 
Q 5.515625 40.671875 12.859375 48.328125 
Q 20.21875 56 33.015625 56 
Q 37.15625 56 41.109375 55.140625 
Q 45.0625 54.296875 48.78125 52.59375 
z
" id="DejaVuSans-99"/>
      <path d="M 41.109375 46.296875 
Q 39.59375 47.171875 37.8125 47.578125 
Q 36.03125 48 33.890625 48 
Q 26.265625 48 22.1875 43.046875 
Q 18.109375 38.09375 18.109375 28.8125 
L 18.109375 0 
L 9.078125 0 
L 9.078125 54.6875 
L 18.109375 54.6875 
L 18.109375 46.1875 
Q 20.953125 51.171875 25.484375 53.578125 
Q 30.03125 56 36.53125 56 
Q 37.453125 56 38.578125 55.875 
Q 39.703125 55.765625 41.0625 55.515625 
z
" id="DejaVuSans-114"/>
      <path d="M 18.109375 8.203125 
L 18.109375 -20.796875 
L 9.078125 -20.796875 
L 9.078125 54.6875 
L 18.109375 54.6875 
L 18.109375 46.390625 
Q 20.953125 51.265625 25.265625 53.625 
Q 29.59375 56 35.59375 56 
Q 45.5625 56 51.78125 48.09375 
Q 58.015625 40.1875 58.015625 27.296875 
Q 58.015625 14.40625 51.78125 6.484375 
Q 45.5625 -1.421875 35.59375 -1.421875 
Q 29.59375 -1.421875 25.265625 0.953125 
Q 20.953125 3.328125 18.109375 8.203125 
z
M 48.6875 27.296875 
Q 48.6875 37.203125 44.609375 42.84375 
Q 40.53125 48.484375 33.40625 48.484375 
Q 26.265625 48.484375 22.1875 42.84375 
Q 18.109375 37.203125 18.109375 27.296875 
Q 18.109375 17.390625 22.1875 11.75 
Q 26.265625 6.109375 33.40625 6.109375 
Q 40.53125 6.109375 44.609375 11.75 
Q 48.6875 17.390625 48.6875 27.296875 
z
" id="DejaVuSans-112"/>
      <path d="M 54.890625 54.6875 
L 35.109375 28.078125 
L 55.90625 0 
L 45.3125 0 
L 29.390625 21.484375 
L 13.484375 0 
L 2.875 0 
L 24.125 28.609375 
L 4.6875 54.6875 
L 15.28125 54.6875 
L 29.78125 35.203125 
L 44.28125 54.6875 
z
" id="DejaVuSans-120"/>
     </defs>
     <g transform="translate(434.515313 37.537812)scale(0.14 -0.14)">
      <use xlink:href="#DejaVuSans-83"/>
      <use x="63.476562" xlink:href="#DejaVuSans-101"/>
      <use x="125" xlink:href="#DejaVuSans-99"/>
      <use x="179.980469" xlink:href="#DejaVuSans-117"/>
      <use x="243.359375" xlink:href="#DejaVuSans-108"/>
      <use x="271.142578" xlink:href="#DejaVuSans-97"/>
      <use x="332.421875" xlink:href="#DejaVuSans-114"/>
      <use x="373.535156" xlink:href="#DejaVuSans-32"/>
      <use x="405.322266" xlink:href="#DejaVuSans-97"/>
      <use x="466.601562" xlink:href="#DejaVuSans-112"/>
      <use x="530.078125" xlink:href="#DejaVuSans-112"/>
      <use x="593.554688" xlink:href="#DejaVuSans-114"/>
      <use x="634.636719" xlink:href="#DejaVuSans-111"/>
      <use x="695.771484" xlink:href="#DejaVuSans-120"/>
      <use x="754.951172" xlink:href="#DejaVuSans-46"/>
     </g>
    </g>
    <g id="line2d_64">
     <path d="M 395.315313 53.187187 
L 423.315313 53.187187 
" style="fill:none;stroke:#ff7f0e;stroke-linecap:square;stroke-width:1.5;"/>
    </g>
    <g id="line2d_65"/>
    <g id="text_27">
     <!-- No approx. -->
     <defs>
      <path d="M 9.8125 72.90625 
L 23.09375 72.90625 
L 55.421875 11.921875 
L 55.421875 72.90625 
L 64.984375 72.90625 
L 64.984375 0 
L 51.703125 0 
L 19.390625 60.984375 
L 19.390625 0 
L 9.8125 0 
z
" id="DejaVuSans-78"/>
     </defs>
     <g transform="translate(434.515313 58.087187)scale(0.14 -0.14)">
      <use xlink:href="#DejaVuSans-78"/>
      <use x="74.804688" xlink:href="#DejaVuSans-111"/>
      <use x="135.986328" xlink:href="#DejaVuSans-32"/>
      <use x="167.773438" xlink:href="#DejaVuSans-97"/>
      <use x="229.052734" xlink:href="#DejaVuSans-112"/>
      <use x="292.529297" xlink:href="#DejaVuSans-112"/>
      <use x="356.005859" xlink:href="#DejaVuSans-114"/>
      <use x="397.087891" xlink:href="#DejaVuSans-111"/>
      <use x="458.222656" xlink:href="#DejaVuSans-120"/>
      <use x="517.402344" xlink:href="#DejaVuSans-46"/>
     </g>
    </g>
   </g>
  </g>
 </g>
 <defs>
  <clipPath id="pf45826e935">
   <rect height="371.9" width="490.9625" x="66.3" y="14.3"/>
  </clipPath>
  <clipPath id="p98f15c8276">
   <rect height="136.032247" width="196.386964" x="164.488572" y="211.462589"/>
  </clipPath>
 </defs>
</svg>
