<?xml version="1.0" encoding="utf-8" standalone="no"?>
<!DOCTYPE svg PUBLIC "-//W3C//DTD SVG 1.1//EN"
  "http://www.w3.org/Graphics/SVG/1.1/DTD/svg11.dtd">
<!-- Created with matplotlib (https://matplotlib.org/) -->
<svg height="576pt" version="1.1" viewBox="0 0 576 576" width="576pt" xmlns="http://www.w3.org/2000/svg" xmlns:xlink="http://www.w3.org/1999/xlink">
 <defs>
  <style type="text/css">
*{stroke-linecap:butt;stroke-linejoin:round;}
  </style>
 </defs>
 <g id="figure_1">
  <g id="patch_1">
   <path d="M 0 576 
L 576 576 
L 576 0 
L 0 0 
z
" style="fill:#ffffff;"/>
  </g>
  <g id="axes_1">
   <g id="patch_2">
    <path d="M 42.05 530.2 
L 554.1375 530.2 
L 554.1375 14.8 
L 42.05 14.8 
z
" style="fill:#ffffff;"/>
   </g>
   <g id="matplotlib.axis_1">
    <g id="xtick_1">
     <g id="line2d_1">
      <defs>
       <path d="M 0 0 
L 0 3.5 
" id="m0f19dd8897" style="stroke:#000000;stroke-width:0.8;"/>
      </defs>
      <g>
       <use style="stroke:#000000;stroke-width:0.8;" x="42.05" xlink:href="#m0f19dd8897" y="530.2"/>
      </g>
     </g>
     <g id="text_1">
      <!-- 0.00 -->
      <defs>
       <path d="M 31.78125 66.40625 
Q 24.171875 66.40625 20.328125 58.90625 
Q 16.5 51.421875 16.5 36.375 
Q 16.5 21.390625 20.328125 13.890625 
Q 24.171875 6.390625 31.78125 6.390625 
Q 39.453125 6.390625 43.28125 13.890625 
Q 47.125 21.390625 47.125 36.375 
Q 47.125 51.421875 43.28125 58.90625 
Q 39.453125 66.40625 31.78125 66.40625 
z
M 31.78125 74.21875 
Q 44.046875 74.21875 50.515625 64.515625 
Q 56.984375 54.828125 56.984375 36.375 
Q 56.984375 17.96875 50.515625 8.265625 
Q 44.046875 -1.421875 31.78125 -1.421875 
Q 19.53125 -1.421875 13.0625 8.265625 
Q 6.59375 17.96875 6.59375 36.375 
Q 6.59375 54.828125 13.0625 64.515625 
Q 19.53125 74.21875 31.78125 74.21875 
z
" id="DejaVuSans-48"/>
       <path d="M 10.6875 12.40625 
L 21 12.40625 
L 21 0 
L 10.6875 0 
z
" id="DejaVuSans-46"/>
      </defs>
      <g transform="translate(30.917188 544.798437)scale(0.1 -0.1)">
       <use xlink:href="#DejaVuSans-48"/>
       <use x="63.623047" xlink:href="#DejaVuSans-46"/>
       <use x="95.410156" xlink:href="#DejaVuSans-48"/>
       <use x="159.033203" xlink:href="#DejaVuSans-48"/>
      </g>
     </g>
    </g>
    <g id="xtick_2">
     <g id="line2d_2">
      <g>
       <use style="stroke:#000000;stroke-width:0.8;" x="144.4675" xlink:href="#m0f19dd8897" y="530.2"/>
      </g>
     </g>
     <g id="text_2">
      <!-- 0.02 -->
      <defs>
       <path d="M 19.1875 8.296875 
L 53.609375 8.296875 
L 53.609375 0 
L 7.328125 0 
L 7.328125 8.296875 
Q 12.9375 14.109375 22.625 23.890625 
Q 32.328125 33.6875 34.8125 36.53125 
Q 39.546875 41.84375 41.421875 45.53125 
Q 43.3125 49.21875 43.3125 52.78125 
Q 43.3125 58.59375 39.234375 62.25 
Q 35.15625 65.921875 28.609375 65.921875 
Q 23.96875 65.921875 18.8125 64.3125 
Q 13.671875 62.703125 7.8125 59.421875 
L 7.8125 69.390625 
Q 13.765625 71.78125 18.9375 73 
Q 24.125 74.21875 28.421875 74.21875 
Q 39.75 74.21875 46.484375 68.546875 
Q 53.21875 62.890625 53.21875 53.421875 
Q 53.21875 48.921875 51.53125 44.890625 
Q 49.859375 40.875 45.40625 35.40625 
Q 44.1875 33.984375 37.640625 27.21875 
Q 31.109375 20.453125 19.1875 8.296875 
z
" id="DejaVuSans-50"/>
      </defs>
      <g transform="translate(133.334688 544.798437)scale(0.1 -0.1)">
       <use xlink:href="#DejaVuSans-48"/>
       <use x="63.623047" xlink:href="#DejaVuSans-46"/>
       <use x="95.410156" xlink:href="#DejaVuSans-48"/>
       <use x="159.033203" xlink:href="#DejaVuSans-50"/>
      </g>
     </g>
    </g>
    <g id="xtick_3">
     <g id="line2d_3">
      <g>
       <use style="stroke:#000000;stroke-width:0.8;" x="246.885" xlink:href="#m0f19dd8897" y="530.2"/>
      </g>
     </g>
     <g id="text_3">
      <!-- 0.04 -->
      <defs>
       <path d="M 37.796875 64.3125 
L 12.890625 25.390625 
L 37.796875 25.390625 
z
M 35.203125 72.90625 
L 47.609375 72.90625 
L 47.609375 25.390625 
L 58.015625 25.390625 
L 58.015625 17.1875 
L 47.609375 17.1875 
L 47.609375 0 
L 37.796875 0 
L 37.796875 17.1875 
L 4.890625 17.1875 
L 4.890625 26.703125 
z
" id="DejaVuSans-52"/>
      </defs>
      <g transform="translate(235.752188 544.798437)scale(0.1 -0.1)">
       <use xlink:href="#DejaVuSans-48"/>
       <use x="63.623047" xlink:href="#DejaVuSans-46"/>
       <use x="95.410156" xlink:href="#DejaVuSans-48"/>
       <use x="159.033203" xlink:href="#DejaVuSans-52"/>
      </g>
     </g>
    </g>
    <g id="xtick_4">
     <g id="line2d_4">
      <g>
       <use style="stroke:#000000;stroke-width:0.8;" x="349.3025" xlink:href="#m0f19dd8897" y="530.2"/>
      </g>
     </g>
     <g id="text_4">
      <!-- 0.06 -->
      <defs>
       <path d="M 33.015625 40.375 
Q 26.375 40.375 22.484375 35.828125 
Q 18.609375 31.296875 18.609375 23.390625 
Q 18.609375 15.53125 22.484375 10.953125 
Q 26.375 6.390625 33.015625 6.390625 
Q 39.65625 6.390625 43.53125 10.953125 
Q 47.40625 15.53125 47.40625 23.390625 
Q 47.40625 31.296875 43.53125 35.828125 
Q 39.65625 40.375 33.015625 40.375 
z
M 52.59375 71.296875 
L 52.59375 62.3125 
Q 48.875 64.0625 45.09375 64.984375 
Q 41.3125 65.921875 37.59375 65.921875 
Q 27.828125 65.921875 22.671875 59.328125 
Q 17.53125 52.734375 16.796875 39.40625 
Q 19.671875 43.65625 24.015625 45.921875 
Q 28.375 48.1875 33.59375 48.1875 
Q 44.578125 48.1875 50.953125 41.515625 
Q 57.328125 34.859375 57.328125 23.390625 
Q 57.328125 12.15625 50.6875 5.359375 
Q 44.046875 -1.421875 33.015625 -1.421875 
Q 20.359375 -1.421875 13.671875 8.265625 
Q 6.984375 17.96875 6.984375 36.375 
Q 6.984375 53.65625 15.1875 63.9375 
Q 23.390625 74.21875 37.203125 74.21875 
Q 40.921875 74.21875 44.703125 73.484375 
Q 48.484375 72.75 52.59375 71.296875 
z
" id="DejaVuSans-54"/>
      </defs>
      <g transform="translate(338.169688 544.798437)scale(0.1 -0.1)">
       <use xlink:href="#DejaVuSans-48"/>
       <use x="63.623047" xlink:href="#DejaVuSans-46"/>
       <use x="95.410156" xlink:href="#DejaVuSans-48"/>
       <use x="159.033203" xlink:href="#DejaVuSans-54"/>
      </g>
     </g>
    </g>
    <g id="xtick_5">
     <g id="line2d_5">
      <g>
       <use style="stroke:#000000;stroke-width:0.8;" x="451.72" xlink:href="#m0f19dd8897" y="530.2"/>
      </g>
     </g>
     <g id="text_5">
      <!-- 0.08 -->
      <defs>
       <path d="M 31.78125 34.625 
Q 24.75 34.625 20.71875 30.859375 
Q 16.703125 27.09375 16.703125 20.515625 
Q 16.703125 13.921875 20.71875 10.15625 
Q 24.75 6.390625 31.78125 6.390625 
Q 38.8125 6.390625 42.859375 10.171875 
Q 46.921875 13.96875 46.921875 20.515625 
Q 46.921875 27.09375 42.890625 30.859375 
Q 38.875 34.625 31.78125 34.625 
z
M 21.921875 38.8125 
Q 15.578125 40.375 12.03125 44.71875 
Q 8.5 49.078125 8.5 55.328125 
Q 8.5 64.0625 14.71875 69.140625 
Q 20.953125 74.21875 31.78125 74.21875 
Q 42.671875 74.21875 48.875 69.140625 
Q 55.078125 64.0625 55.078125 55.328125 
Q 55.078125 49.078125 51.53125 44.71875 
Q 48 40.375 41.703125 38.8125 
Q 48.828125 37.15625 52.796875 32.3125 
Q 56.78125 27.484375 56.78125 20.515625 
Q 56.78125 9.90625 50.3125 4.234375 
Q 43.84375 -1.421875 31.78125 -1.421875 
Q 19.734375 -1.421875 13.25 4.234375 
Q 6.78125 9.90625 6.78125 20.515625 
Q 6.78125 27.484375 10.78125 32.3125 
Q 14.796875 37.15625 21.921875 38.8125 
z
M 18.3125 54.390625 
Q 18.3125 48.734375 21.84375 45.5625 
Q 25.390625 42.390625 31.78125 42.390625 
Q 38.140625 42.390625 41.71875 45.5625 
Q 45.3125 48.734375 45.3125 54.390625 
Q 45.3125 60.0625 41.71875 63.234375 
Q 38.140625 66.40625 31.78125 66.40625 
Q 25.390625 66.40625 21.84375 63.234375 
Q 18.3125 60.0625 18.3125 54.390625 
z
" id="DejaVuSans-56"/>
      </defs>
      <g transform="translate(440.587188 544.798437)scale(0.1 -0.1)">
       <use xlink:href="#DejaVuSans-48"/>
       <use x="63.623047" xlink:href="#DejaVuSans-46"/>
       <use x="95.410156" xlink:href="#DejaVuSans-48"/>
       <use x="159.033203" xlink:href="#DejaVuSans-56"/>
      </g>
     </g>
    </g>
    <g id="xtick_6">
     <g id="line2d_6">
      <g>
       <use style="stroke:#000000;stroke-width:0.8;" x="554.1375" xlink:href="#m0f19dd8897" y="530.2"/>
      </g>
     </g>
     <g id="text_6">
      <!-- 0.10 -->
      <defs>
       <path d="M 12.40625 8.296875 
L 28.515625 8.296875 
L 28.515625 63.921875 
L 10.984375 60.40625 
L 10.984375 69.390625 
L 28.421875 72.90625 
L 38.28125 72.90625 
L 38.28125 8.296875 
L 54.390625 8.296875 
L 54.390625 0 
L 12.40625 0 
z
" id="DejaVuSans-49"/>
      </defs>
      <g transform="translate(543.004687 544.798437)scale(0.1 -0.1)">
       <use xlink:href="#DejaVuSans-48"/>
       <use x="63.623047" xlink:href="#DejaVuSans-46"/>
       <use x="95.410156" xlink:href="#DejaVuSans-49"/>
       <use x="159.033203" xlink:href="#DejaVuSans-48"/>
      </g>
     </g>
    </g>
    <g id="text_7">
     <!-- t -->
     <defs>
      <path d="M 18.3125 70.21875 
L 18.3125 54.6875 
L 36.8125 54.6875 
L 36.8125 47.703125 
L 18.3125 47.703125 
L 18.3125 18.015625 
Q 18.3125 11.328125 20.140625 9.421875 
Q 21.96875 7.515625 27.59375 7.515625 
L 36.8125 7.515625 
L 36.8125 0 
L 27.59375 0 
Q 17.1875 0 13.234375 3.875 
Q 9.28125 7.765625 9.28125 18.015625 
L 9.28125 47.703125 
L 2.6875 47.703125 
L 2.6875 54.6875 
L 9.28125 54.6875 
L 9.28125 70.21875 
z
" id="DejaVuSans-116"/>
     </defs>
     <g transform="translate(295.349531 561.515937)scale(0.14 -0.14)">
      <use xlink:href="#DejaVuSans-116"/>
     </g>
    </g>
   </g>
   <g id="matplotlib.axis_2">
    <g id="ytick_1">
     <g id="line2d_7">
      <defs>
       <path d="M 0 0 
L -3.5 0 
" id="m43902e4a8f" style="stroke:#000000;stroke-width:0.8;"/>
      </defs>
      <g>
       <use style="stroke:#000000;stroke-width:0.8;" x="42.05" xlink:href="#m43902e4a8f" y="495.84"/>
      </g>
     </g>
     <g id="text_8">
      <!-- −0.4 -->
      <defs>
       <path d="M 10.59375 35.5 
L 73.1875 35.5 
L 73.1875 27.203125 
L 10.59375 27.203125 
z
" id="DejaVuSans-8722"/>
      </defs>
      <g transform="translate(10.767188 499.639219)scale(0.1 -0.1)">
       <use xlink:href="#DejaVuSans-8722"/>
       <use x="83.789062" xlink:href="#DejaVuSans-48"/>
       <use x="147.412109" xlink:href="#DejaVuSans-46"/>
       <use x="179.199219" xlink:href="#DejaVuSans-52"/>
      </g>
     </g>
    </g>
    <g id="ytick_2">
     <g id="line2d_8">
      <g>
       <use style="stroke:#000000;stroke-width:0.8;" x="42.05" xlink:href="#m43902e4a8f" y="427.12"/>
      </g>
     </g>
     <g id="text_9">
      <!-- −0.2 -->
      <g transform="translate(10.767188 430.919219)scale(0.1 -0.1)">
       <use xlink:href="#DejaVuSans-8722"/>
       <use x="83.789062" xlink:href="#DejaVuSans-48"/>
       <use x="147.412109" xlink:href="#DejaVuSans-46"/>
       <use x="179.199219" xlink:href="#DejaVuSans-50"/>
      </g>
     </g>
    </g>
    <g id="ytick_3">
     <g id="line2d_9">
      <g>
       <use style="stroke:#000000;stroke-width:0.8;" x="42.05" xlink:href="#m43902e4a8f" y="358.4"/>
      </g>
     </g>
     <g id="text_10">
      <!-- 0.0 -->
      <g transform="translate(19.146875 362.199219)scale(0.1 -0.1)">
       <use xlink:href="#DejaVuSans-48"/>
       <use x="63.623047" xlink:href="#DejaVuSans-46"/>
       <use x="95.410156" xlink:href="#DejaVuSans-48"/>
      </g>
     </g>
    </g>
    <g id="ytick_4">
     <g id="line2d_10">
      <g>
       <use style="stroke:#000000;stroke-width:0.8;" x="42.05" xlink:href="#m43902e4a8f" y="289.68"/>
      </g>
     </g>
     <g id="text_11">
      <!-- 0.2 -->
      <g transform="translate(19.146875 293.479219)scale(0.1 -0.1)">
       <use xlink:href="#DejaVuSans-48"/>
       <use x="63.623047" xlink:href="#DejaVuSans-46"/>
       <use x="95.410156" xlink:href="#DejaVuSans-50"/>
      </g>
     </g>
    </g>
    <g id="ytick_5">
     <g id="line2d_11">
      <g>
       <use style="stroke:#000000;stroke-width:0.8;" x="42.05" xlink:href="#m43902e4a8f" y="220.96"/>
      </g>
     </g>
     <g id="text_12">
      <!-- 0.4 -->
      <g transform="translate(19.146875 224.759219)scale(0.1 -0.1)">
       <use xlink:href="#DejaVuSans-48"/>
       <use x="63.623047" xlink:href="#DejaVuSans-46"/>
       <use x="95.410156" xlink:href="#DejaVuSans-52"/>
      </g>
     </g>
    </g>
    <g id="ytick_6">
     <g id="line2d_12">
      <g>
       <use style="stroke:#000000;stroke-width:0.8;" x="42.05" xlink:href="#m43902e4a8f" y="152.24"/>
      </g>
     </g>
     <g id="text_13">
      <!-- 0.6 -->
      <g transform="translate(19.146875 156.039219)scale(0.1 -0.1)">
       <use xlink:href="#DejaVuSans-48"/>
       <use x="63.623047" xlink:href="#DejaVuSans-46"/>
       <use x="95.410156" xlink:href="#DejaVuSans-54"/>
      </g>
     </g>
    </g>
    <g id="ytick_7">
     <g id="line2d_13">
      <g>
       <use style="stroke:#000000;stroke-width:0.8;" x="42.05" xlink:href="#m43902e4a8f" y="83.52"/>
      </g>
     </g>
     <g id="text_14">
      <!-- 0.8 -->
      <g transform="translate(19.146875 87.319219)scale(0.1 -0.1)">
       <use xlink:href="#DejaVuSans-48"/>
       <use x="63.623047" xlink:href="#DejaVuSans-46"/>
       <use x="95.410156" xlink:href="#DejaVuSans-56"/>
      </g>
     </g>
    </g>
    <g id="ytick_8">
     <g id="line2d_14">
      <g>
       <use style="stroke:#000000;stroke-width:0.8;" x="42.05" xlink:href="#m43902e4a8f" y="14.8"/>
      </g>
     </g>
     <g id="text_15">
      <!-- 1.0 -->
      <g transform="translate(19.146875 18.599219)scale(0.1 -0.1)">
       <use xlink:href="#DejaVuSans-49"/>
       <use x="63.623047" xlink:href="#DejaVuSans-46"/>
       <use x="95.410156" xlink:href="#DejaVuSans-48"/>
      </g>
     </g>
    </g>
   </g>
   <g id="line2d_15">
    <path clip-path="url(#pe4e57ad956)" d="M 42.05 14.8 
L 43.074175 14.937422 
L 44.09835 15.349467 
L 45.122525 16.035476 
L 46.1467 16.994353 
L 47.170875 18.224562 
L 48.19505 19.724136 
L 49.731313 22.473191 
L 51.267575 25.812926 
L 52.803838 29.73132 
L 54.3401 34.214272 
L 56.38845 41.041572 
L 58.4368 48.799949 
L 60.48515 57.439776 
L 63.045588 69.394396 
L 65.606025 82.520097 
L 68.67855 99.63136 
L 71.751075 117.993469 
L 75.847775 143.963457 
L 81.480738 181.310027 
L 89.674138 235.59548 
L 93.770838 261.203865 
L 96.843363 279.193577 
L 99.915888 295.851539 
L 102.476325 308.542361 
L 105.036763 320.014774 
L 107.085113 328.237982 
L 109.133463 335.55519 
L 111.181813 341.919594 
L 112.718075 346.042891 
L 114.254338 349.592367 
L 115.7906 352.555246 
L 117.326863 354.920865 
L 118.351038 356.16184 
L 119.375213 357.131552 
L 120.399388 357.82845 
L 121.423563 358.251419 
L 122.447738 358.399782 
L 123.471913 358.273302 
L 124.496088 357.872182 
L 125.520263 357.197063 
L 126.544438 356.249025 
L 127.568613 355.029584 
L 128.592788 353.540692 
L 130.12905 350.80746 
L 131.665312 347.483259 
L 133.201575 343.580052 
L 134.737838 339.111886 
L 136.786188 332.303586 
L 138.834538 324.56328 
L 140.882888 315.94048 
L 143.443325 304.00551 
L 146.003763 290.897462 
L 149.076288 273.8045 
L 152.148813 255.457299 
L 156.245513 229.501547 
L 161.878475 192.163455 
L 170.071875 137.866838 
L 174.168575 112.242703 
L 177.2411 94.237018 
L 180.313625 77.559765 
L 182.874063 64.850534 
L 185.4345 53.357783 
L 187.48285 45.117053 
L 189.5312 37.781332 
L 191.57955 31.397542 
L 193.115813 27.259206 
L 194.652075 23.694325 
L 196.188338 20.715728 
L 197.7246 18.334135 
L 198.748775 17.082398 
L 199.77295 16.101853 
L 200.797125 15.394068 
L 201.8213 14.960176 
L 202.845475 14.800872 
L 203.86965 14.916409 
L 204.893825 15.306603 
L 205.918 15.970831 
L 206.942175 16.908028 
L 207.96635 18.116697 
L 208.990525 19.594903 
L 210.526788 22.312304 
L 212.06305 25.620964 
L 213.599313 29.508975 
L 215.135575 33.962343 
L 217.183925 40.751626 
L 219.232275 48.473841 
L 221.280625 57.079592 
L 223.841063 68.994882 
L 226.4015 82.085243 
L 229.474025 99.159862 
L 232.54655 117.492109 
L 236.64325 143.433557 
L 242.276213 180.763077 
L 250.469613 235.070721 
L 254.566313 260.71054 
L 257.638838 278.732153 
L 260.711363 295.428654 
L 263.2718 308.156263 
L 265.832238 319.669322 
L 267.880587 327.927552 
L 269.928938 335.281768 
L 271.977287 341.684928 
L 273.51355 345.838292 
L 275.049812 349.418571 
L 276.586075 352.412878 
L 278.122338 354.810438 
L 279.146513 356.072935 
L 280.170687 357.064311 
L 281.194862 357.78298 
L 282.219038 358.227793 
L 283.243213 358.398039 
L 284.267387 358.293444 
L 285.291562 357.914177 
L 286.315738 357.260843 
L 287.339913 356.334488 
L 288.364088 355.136594 
L 289.388262 353.669078 
L 290.924525 350.967514 
L 292.460787 347.674404 
L 293.99705 343.801601 
L 295.533313 339.363041 
L 297.581662 332.592792 
L 299.630013 324.888688 
L 301.678363 316.300008 
L 304.2388 304.404429 
L 306.799238 291.331787 
L 309.871762 274.275555 
L 312.944288 255.958309 
L 317.040988 230.031229 
L 322.67395 192.710376 
L 330.86735 138.391843 
L 334.96405 112.736405 
L 338.036575 94.69891 
L 341.1091 77.983203 
L 343.669537 65.237249 
L 346.229975 53.703911 
L 348.278325 45.428201 
L 350.326675 38.055509 
L 352.375025 31.632995 
L 353.911288 27.464613 
L 355.44755 23.868947 
L 356.983813 20.858937 
L 358.520075 18.445416 
L 359.54425 17.172163 
L 360.568425 16.169959 
L 361.5926 15.440406 
L 362.616775 14.984672 
L 363.64095 14.803486 
L 364.665125 14.897138 
L 365.6893 15.265478 
L 366.713475 15.907917 
L 367.73765 16.823426 
L 368.761825 18.010542 
L 369.786 19.467365 
L 371.322263 22.153085 
L 372.858525 25.430636 
L 374.394788 29.288223 
L 375.93105 33.711962 
L 377.9794 40.46316 
L 380.02775 48.149134 
L 382.0761 56.720722 
L 384.636538 68.59656 
L 387.196975 81.651449 
L 390.2695 98.689251 
L 393.342025 116.99145 
L 397.438725 142.904096 
L 403.071688 180.216186 
L 411.265087 234.545471 
L 415.361788 260.216463 
L 418.434313 278.269795 
L 421.506838 295.004665 
L 424.067275 307.768932 
L 426.627713 319.322519 
L 428.676063 327.615688 
L 430.724413 335.006837 
L 432.772763 341.448689 
L 434.309025 345.632077 
L 435.845288 349.243122 
L 437.38155 352.268828 
L 438.917813 354.698304 
L 439.941988 355.98231 
L 440.966162 356.99534 
L 441.990338 357.735774 
L 443.014513 358.202427 
L 444.038688 358.394553 
L 445.062863 358.311844 
L 446.087038 357.954433 
L 447.111213 357.322891 
L 448.135388 356.418229 
L 449.159562 355.241895 
L 450.183738 353.795769 
L 451.72 351.1259 
L 453.256263 347.863915 
L 454.792525 344.021554 
L 456.328788 339.612646 
L 458.377138 332.880517 
L 460.425488 325.212692 
L 462.473838 316.658219 
L 465.034275 304.802152 
L 467.594713 291.765049 
L 470.667238 274.74572 
L 473.739762 256.458615 
L 477.836463 230.560469 
L 483.469425 193.257235 
L 491.662825 138.917338 
L 495.759525 113.230856 
L 498.83205 95.161734 
L 501.904575 78.407743 
L 504.465013 65.625195 
L 507.02545 54.051387 
L 509.0738 45.740781 
L 511.12215 38.331194 
L 513.1705 31.87002 
L 514.706762 27.671635 
L 516.243025 24.045221 
L 517.779288 21.003828 
L 519.31555 18.558402 
L 520.339725 17.263647 
L 521.3639 16.239794 
L 522.388075 15.488481 
L 523.41225 15.010909 
L 524.436425 14.807844 
L 525.4606 14.87961 
L 526.484775 15.226091 
L 527.50895 15.846734 
L 528.533125 16.740546 
L 529.5573 17.906097 
L 530.581475 19.341522 
L 532.117737 21.995533 
L 533.654 25.241943 
L 535.190263 29.069067 
L 536.726525 33.463133 
L 538.774875 40.176176 
L 540.823225 47.825833 
L 542.871575 56.36317 
L 545.432012 68.199435 
L 547.99245 81.21872 
L 551.064975 98.219533 
L 554.1375 116.491498 
L 554.649588 119.64219 
L 554.649588 119.64219 
" style="fill:none;stroke:#1f77b4;stroke-linecap:square;stroke-width:1.5;"/>
   </g>
   <g id="line2d_16">
    <path clip-path="url(#pe4e57ad956)" d="M 42.05 358.4 
L 43.074175 358.262578 
L 44.09835 357.850533 
L 45.122525 357.164524 
L 46.1467 356.205647 
L 47.170875 354.975438 
L 48.19505 353.475864 
L 49.731313 350.726809 
L 51.267575 347.387074 
L 52.803838 343.46868 
L 54.3401 338.985728 
L 56.38845 332.158428 
L 58.4368 324.400051 
L 60.48515 315.760224 
L 63.045588 303.805604 
L 65.606025 290.679903 
L 68.67855 273.56864 
L 71.751075 255.206531 
L 75.847775 229.236543 
L 81.480738 191.889973 
L 89.674138 137.60452 
L 93.770838 111.996135 
L 96.843363 94.006423 
L 99.915888 77.348461 
L 102.476325 64.657639 
L 105.036763 53.185226 
L 107.085113 44.962018 
L 109.133463 37.64481 
L 111.181813 31.280406 
L 112.718075 27.157109 
L 114.254338 23.607633 
L 115.7906 20.644754 
L 117.326863 18.279135 
L 118.351038 17.03816 
L 119.375213 16.068448 
L 120.399388 15.37155 
L 121.423563 14.948581 
L 122.447738 14.800218 
L 123.471913 14.926698 
L 124.496088 15.327818 
L 125.520263 16.002937 
L 126.544438 16.950975 
L 127.568613 18.170416 
L 128.592788 19.659308 
L 130.12905 22.39254 
L 131.665312 25.716741 
L 133.201575 29.619948 
L 134.737838 34.088114 
L 136.786188 40.896414 
L 138.834538 48.63672 
L 140.882888 57.25952 
L 143.443325 69.19449 
L 146.003763 82.302538 
L 149.076288 99.3955 
L 152.148813 117.742701 
L 156.245513 143.698453 
L 161.878475 181.036545 
L 170.071875 235.333162 
L 174.168575 260.957297 
L 177.2411 278.962982 
L 180.313625 295.640235 
L 182.874063 308.349466 
L 185.4345 319.842217 
L 187.48285 328.082947 
L 189.5312 335.418668 
L 191.57955 341.802458 
L 193.115813 345.940794 
L 194.652075 349.505675 
L 196.188338 352.484272 
L 197.7246 354.865865 
L 198.748775 356.117602 
L 199.77295 357.098147 
L 200.797125 357.805932 
L 201.8213 358.239824 
L 202.845475 358.399128 
L 203.86965 358.283591 
L 204.893825 357.893397 
L 205.918 357.229169 
L 206.942175 356.291972 
L 207.96635 355.083303 
L 208.990525 353.605097 
L 210.526788 350.887696 
L 212.06305 347.579036 
L 213.599313 343.691025 
L 215.135575 339.237657 
L 217.183925 332.448374 
L 219.232275 324.726159 
L 221.280625 316.120408 
L 223.841063 304.205118 
L 226.4015 291.114757 
L 229.474025 274.040138 
L 232.54655 255.707891 
L 236.64325 229.766443 
L 242.276213 192.436923 
L 250.469613 138.129279 
L 254.566313 112.48946 
L 257.638838 94.467847 
L 260.711363 77.771346 
L 263.2718 65.043737 
L 265.832238 53.530678 
L 267.880587 45.272448 
L 269.928938 37.918232 
L 271.977287 31.515072 
L 273.51355 27.361708 
L 275.049812 23.781429 
L 276.586075 20.787122 
L 278.122338 18.389562 
L 279.146513 17.127065 
L 280.170687 16.135689 
L 281.194862 15.41702 
L 282.219038 14.972207 
L 283.243213 14.801961 
L 284.267387 14.906556 
L 285.291562 15.285823 
L 286.315738 15.939157 
L 287.339913 16.865512 
L 288.364088 18.063406 
L 289.388262 19.530922 
L 290.924525 22.232486 
L 292.460787 25.525596 
L 293.99705 29.398399 
L 295.533313 33.836959 
L 297.581662 40.607208 
L 299.630013 48.311312 
L 301.678363 56.899992 
L 304.2388 68.795571 
L 306.799238 81.868213 
L 309.871762 98.924445 
L 312.944288 117.241691 
L 317.040988 143.168771 
L 322.67395 180.489624 
L 330.86735 234.808157 
L 334.96405 260.463595 
L 338.036575 278.50109 
L 341.1091 295.216797 
L 343.669537 307.962751 
L 346.229975 319.496089 
L 348.278325 327.771799 
L 350.326675 335.144491 
L 352.375025 341.567005 
L 353.911288 345.735387 
L 355.44755 349.331053 
L 356.983813 352.341063 
L 358.520075 354.754584 
L 359.54425 356.027837 
L 360.568425 357.030041 
L 361.5926 357.759594 
L 362.616775 358.215328 
L 363.64095 358.396514 
L 364.665125 358.302862 
L 365.6893 357.934522 
L 366.713475 357.292083 
L 367.73765 356.376574 
L 368.761825 355.189458 
L 369.786 353.732635 
L 371.322263 351.046915 
L 372.858525 347.769364 
L 374.394788 343.911777 
L 375.93105 339.488038 
L 377.9794 332.73684 
L 380.02775 325.050866 
L 382.0761 316.479278 
L 384.636538 304.60344 
L 387.196975 291.548551 
L 390.2695 274.510749 
L 393.342025 256.20855 
L 397.438725 230.295904 
L 403.071688 192.983814 
L 411.265087 138.654529 
L 415.361788 112.983537 
L 418.434313 94.930205 
L 421.506838 78.195335 
L 424.067275 65.431068 
L 426.627713 53.877481 
L 428.676063 45.584312 
L 430.724413 38.193163 
L 432.772763 31.751311 
L 434.309025 27.567923 
L 435.845288 23.956878 
L 437.38155 20.931172 
L 438.917813 18.501696 
L 439.941988 17.21769 
L 440.966162 16.20466 
L 441.990338 15.464226 
L 443.014513 14.997573 
L 444.038688 14.805447 
L 445.062863 14.888156 
L 446.087038 15.245567 
L 447.111213 15.877109 
L 448.135388 16.781771 
L 449.159562 17.958105 
L 450.183738 19.404231 
L 451.72 22.0741 
L 453.256263 25.336085 
L 454.792525 29.178446 
L 456.328788 33.587354 
L 458.377138 40.319483 
L 460.425488 47.987308 
L 462.473838 56.541781 
L 465.034275 68.397848 
L 467.594713 81.434951 
L 470.667238 98.45428 
L 473.739762 116.741385 
L 477.836463 142.639531 
L 483.469425 179.942765 
L 491.662825 234.282662 
L 495.759525 259.969144 
L 498.83205 278.038266 
L 501.904575 294.792257 
L 504.465013 307.574805 
L 507.02545 319.148613 
L 509.0738 327.459219 
L 511.12215 334.868806 
L 513.1705 341.32998 
L 514.706762 345.528365 
L 516.243025 349.154779 
L 517.779288 352.196172 
L 519.31555 354.641598 
L 520.339725 355.936353 
L 521.3639 356.960206 
L 522.388075 357.711519 
L 523.41225 358.189091 
L 524.436425 358.392156 
L 525.4606 358.32039 
L 526.484775 357.973909 
L 527.50895 357.353266 
L 528.533125 356.459454 
L 529.5573 355.293903 
L 530.581475 353.858478 
L 532.117737 351.204467 
L 533.654 347.958057 
L 535.190263 344.130933 
L 536.726525 339.736867 
L 538.774875 333.023824 
L 540.823225 325.374167 
L 542.871575 316.83683 
L 545.432012 305.000565 
L 547.99245 291.98128 
L 551.064975 274.980467 
L 554.1375 256.708502 
L 554.649588 253.55781 
L 554.649588 253.55781 
" style="fill:none;stroke:#ff7f0e;stroke-linecap:square;stroke-width:1.5;"/>
   </g>
   <g id="line2d_17">
    <path clip-path="url(#pe4e57ad956)" d="M 42.05 358.4 
L 554.649588 358.4 
L 554.649588 358.4 
" style="fill:none;stroke:#d62728;stroke-linecap:square;stroke-width:1.5;"/>
   </g>
   <g id="line2d_18">
    <path clip-path="url(#pe4e57ad956)" d="M 42.05 358.4 
L 49.219225 405.8779 
L 53.315925 431.5764 
L 56.38845 449.657789 
L 59.460975 466.426641 
L 62.021413 479.223404 
L 64.58185 490.812939 
L 66.6302 499.137111 
L 68.67855 506.561046 
L 70.7269 513.037256 
L 72.263163 517.247313 
L 73.799425 520.885691 
L 75.335688 523.939296 
L 76.87195 526.397139 
L 77.896125 527.700264 
L 78.9203 528.732544 
L 79.944475 529.492329 
L 80.96865 529.978403 
L 81.992825 530.189988 
L 83.017 530.126745 
L 84.041175 529.788776 
L 85.06535 529.176622 
L 86.089525 528.291262 
L 87.1137 527.134112 
L 88.137875 525.707023 
L 89.674138 523.065367 
L 91.2104 519.831093 
L 92.746663 516.015841 
L 94.282925 511.633342 
L 95.819187 506.699369 
L 97.867537 499.293858 
L 99.915888 490.987108 
L 101.964237 481.832252 
L 104.524675 469.285733 
L 107.085113 455.631281 
L 110.157638 437.97626 
L 113.74225 415.950965 
L 118.351038 386.040957 
L 132.1774 294.930044 
L 135.762012 273.273552 
L 138.834538 256.021422 
L 141.394975 242.759542 
L 143.955413 230.653105 
L 146.003763 221.881579 
L 148.052112 213.983305 
L 150.100463 207.008805 
L 151.636725 202.411225 
L 153.172988 198.375036 
L 154.70925 194.914764 
L 156.245513 192.042862 
L 157.781775 189.769667 
L 158.80595 188.590947 
L 159.830125 187.683886 
L 160.8543 187.049934 
L 161.878475 186.690105 
L 162.90265 186.604976 
L 163.926825 186.794682 
L 164.951 187.25892 
L 165.975175 187.996947 
L 166.99935 189.007583 
L 168.023525 190.289211 
L 169.0477 191.83978 
L 170.583963 194.664355 
L 172.120225 198.078202 
L 173.656488 202.069035 
L 175.19275 206.62249 
L 177.2411 213.540345 
L 179.28945 221.384808 
L 181.3378 230.105701 
L 183.898238 242.153808 
L 186.458675 255.363408 
L 189.5312 272.561523 
L 193.115813 294.167988 
L 197.212513 320.374295 
L 203.86965 364.723334 
L 210.526788 408.647319 
L 214.623488 434.179545 
L 217.696013 452.092292 
L 220.768538 468.657488 
L 223.328975 481.259888 
L 225.889413 492.634713 
L 227.937763 500.773901 
L 229.986113 508.002383 
L 232.034463 514.27392 
L 233.570725 518.325207 
L 235.106988 521.800937 
L 236.64325 524.688599 
L 238.179513 526.977802 
L 239.203688 528.167302 
L 240.227863 529.085211 
L 241.252038 529.730059 
L 242.276213 530.100816 
L 243.300388 530.196889 
L 244.324563 530.018123 
L 245.348737 529.564804 
L 246.372913 528.837659 
L 247.397088 527.837849 
L 248.421263 526.566975 
L 249.445438 525.02707 
L 250.9817 522.218284 
L 252.517963 518.819929 
L 254.054225 514.844236 
L 255.590488 510.305513 
L 257.638838 503.406574 
L 259.687187 495.580087 
L 261.735538 486.876116 
L 264.295975 474.847515 
L 266.856413 461.655408 
L 269.928938 444.475385 
L 273.51355 422.885706 
L 277.61025 396.692489 
L 284.267387 352.350107 
L 290.924525 308.414399 
L 295.021225 282.866113 
L 298.09375 264.937175 
L 301.166275 248.352488 
L 303.726713 235.731524 
L 306.28715 224.336223 
L 308.3355 216.179414 
L 310.38385 208.932331 
L 312.4322 202.641331 
L 313.968463 198.574955 
L 315.504725 195.083777 
L 317.040988 192.180361 
L 318.57725 189.875156 
L 319.601425 188.674879 
L 320.6256 187.746126 
L 321.649775 187.090382 
L 322.67395 186.708698 
L 323.698125 186.601683 
L 324.7223 186.769508 
L 325.746475 187.211906 
L 326.77065 187.928168 
L 327.794825 188.917149 
L 328.819 190.177266 
L 329.843175 191.706503 
L 331.379437 194.499492 
L 332.9157 197.882346 
L 334.451963 201.84289 
L 335.988225 206.36687 
L 338.036575 213.246875 
L 340.084925 221.055365 
L 342.133275 229.742392 
L 344.693713 241.751458 
L 347.25415 254.926038 
L 350.326675 272.087925 
L 353.911288 293.660764 
L 358.007988 319.840824 
L 364.665125 364.176437 
L 371.322263 408.123757 
L 375.418963 433.688037 
L 378.491488 451.633121 
L 381.564012 468.237258 
L 384.12445 480.876753 
L 386.684888 492.2925 
L 388.733238 500.46691 
L 390.781588 507.732576 
L 392.829938 514.043023 
L 394.3662 518.124477 
L 395.902463 521.631095 
L 397.438725 524.550257 
L 398.974987 526.871458 
L 399.999163 528.082509 
L 401.023338 529.022105 
L 402.047513 529.688742 
L 403.071688 530.081353 
L 404.095863 530.199311 
L 405.120038 530.042426 
L 406.144212 529.61095 
L 407.168388 528.905573 
L 408.192563 527.927424 
L 409.216738 526.678067 
L 410.240913 525.159501 
L 411.777175 522.382316 
L 413.313438 519.014972 
L 414.8497 515.069587 
L 416.385963 510.560361 
L 418.434313 503.699307 
L 420.482663 495.908834 
L 422.531013 487.238773 
L 425.09145 475.249273 
L 427.651888 462.092254 
L 430.724413 444.948546 
L 433.796938 426.560034 
L 437.893638 400.564883 
L 444.038688 359.768079 
L 451.72 308.938214 
L 455.8167 283.358004 
L 458.889225 265.39682 
L 461.96175 248.773275 
L 464.522188 236.115281 
L 467.082625 224.679115 
L 469.130975 216.487126 
L 471.179325 209.202896 
L 473.227675 202.873017 
L 474.763938 198.776496 
L 476.3002 195.254447 
L 477.836463 192.319546 
L 479.372725 189.982356 
L 480.3969 188.760533 
L 481.421075 187.810097 
L 482.44525 187.132569 
L 483.469425 186.729032 
L 484.4936 186.600132 
L 485.517775 186.746075 
L 486.54195 187.166628 
L 487.566125 187.861118 
L 488.5903 188.828434 
L 489.614475 190.067027 
L 490.63865 191.574918 
L 492.174913 194.336292 
L 493.711175 197.688118 
L 495.247438 201.618334 
L 496.7837 206.112794 
L 498.83205 212.954878 
L 500.8804 220.727316 
L 502.92875 229.380388 
L 505.489188 241.350292 
L 508.049625 254.489718 
L 511.12215 271.615203 
L 514.194675 289.98889 
L 518.291375 315.969921 
L 523.924337 353.323028 
L 532.117737 407.59969 
L 536.214438 433.195765 
L 539.286962 451.173004 
L 542.359488 467.815914 
L 544.919925 480.492375 
L 547.480363 491.94893 
L 549.528712 500.158477 
L 551.577063 507.461254 
L 553.625413 513.810548 
L 554.649588 516.614701 
L 554.649588 516.614701 
" style="fill:none;stroke:#2ca02c;stroke-linecap:square;stroke-width:1.5;"/>
   </g>
   <g id="patch_3">
    <path d="M 42.05 530.2 
L 42.05 14.8 
" style="fill:none;stroke:#000000;stroke-linecap:square;stroke-linejoin:miter;stroke-width:0.8;"/>
   </g>
   <g id="patch_4">
    <path d="M 554.1375 530.2 
L 554.1375 14.8 
" style="fill:none;stroke:#000000;stroke-linecap:square;stroke-linejoin:miter;stroke-width:0.8;"/>
   </g>
   <g id="patch_5">
    <path d="M 42.05 530.2 
L 554.1375 530.2 
" style="fill:none;stroke:#000000;stroke-linecap:square;stroke-linejoin:miter;stroke-width:0.8;"/>
   </g>
   <g id="patch_6">
    <path d="M 42.05 14.8 
L 554.1375 14.8 
" style="fill:none;stroke:#000000;stroke-linecap:square;stroke-linejoin:miter;stroke-width:0.8;"/>
   </g>
   <g id="legend_1">
    <g id="patch_7">
     <path d="M 421.579375 523.2 
L 544.3375 523.2 
Q 547.1375 523.2 547.1375 520.4 
L 547.1375 439.6025 
Q 547.1375 436.8025 544.3375 436.8025 
L 421.579375 436.8025 
Q 418.779375 436.8025 418.779375 439.6025 
L 418.779375 520.4 
Q 418.779375 523.2 421.579375 523.2 
z
" style="fill:#ffffff;opacity:0.8;stroke:#cccccc;stroke-linejoin:miter;"/>
    </g>
    <g id="line2d_19">
     <path d="M 424.379375 448.140313 
L 452.379375 448.140313 
" style="fill:none;stroke:#1f77b4;stroke-linecap:square;stroke-width:1.5;"/>
    </g>
    <g id="line2d_20"/>
    <g id="text_16">
     <!-- P1 -->
     <defs>
      <path d="M 19.671875 64.796875 
L 19.671875 37.40625 
L 32.078125 37.40625 
Q 38.96875 37.40625 42.71875 40.96875 
Q 46.484375 44.53125 46.484375 51.125 
Q 46.484375 57.671875 42.71875 61.234375 
Q 38.96875 64.796875 32.078125 64.796875 
z
M 9.8125 72.90625 
L 32.078125 72.90625 
Q 44.34375 72.90625 50.609375 67.359375 
Q 56.890625 61.8125 56.890625 51.125 
Q 56.890625 40.328125 50.609375 34.8125 
Q 44.34375 29.296875 32.078125 29.296875 
L 19.671875 29.296875 
L 19.671875 0 
L 9.8125 0 
z
" id="DejaVuSans-80"/>
     </defs>
     <g transform="translate(463.579375 453.040313)scale(0.14 -0.14)">
      <use xlink:href="#DejaVuSans-80"/>
      <use x="60.302734" xlink:href="#DejaVuSans-49"/>
     </g>
    </g>
    <g id="line2d_21">
     <path d="M 424.379375 468.689687 
L 452.379375 468.689687 
" style="fill:none;stroke:#ff7f0e;stroke-linecap:square;stroke-width:1.5;"/>
    </g>
    <g id="line2d_22"/>
    <g id="text_17">
     <!-- P2 -->
     <g transform="translate(463.579375 473.589687)scale(0.14 -0.14)">
      <use xlink:href="#DejaVuSans-80"/>
      <use x="60.302734" xlink:href="#DejaVuSans-50"/>
     </g>
    </g>
    <g id="line2d_23">
     <path d="M 424.379375 489.239063 
L 452.379375 489.239063 
" style="fill:none;stroke:#d62728;stroke-linecap:square;stroke-width:1.5;"/>
    </g>
    <g id="line2d_24"/>
    <g id="text_18">
     <!-- C21 (real) -->
     <defs>
      <path d="M 64.40625 67.28125 
L 64.40625 56.890625 
Q 59.421875 61.53125 53.78125 63.8125 
Q 48.140625 66.109375 41.796875 66.109375 
Q 29.296875 66.109375 22.65625 58.46875 
Q 16.015625 50.828125 16.015625 36.375 
Q 16.015625 21.96875 22.65625 14.328125 
Q 29.296875 6.6875 41.796875 6.6875 
Q 48.140625 6.6875 53.78125 8.984375 
Q 59.421875 11.28125 64.40625 15.921875 
L 64.40625 5.609375 
Q 59.234375 2.09375 53.4375 0.328125 
Q 47.65625 -1.421875 41.21875 -1.421875 
Q 24.65625 -1.421875 15.125 8.703125 
Q 5.609375 18.84375 5.609375 36.375 
Q 5.609375 53.953125 15.125 64.078125 
Q 24.65625 74.21875 41.21875 74.21875 
Q 47.75 74.21875 53.53125 72.484375 
Q 59.328125 70.75 64.40625 67.28125 
z
" id="DejaVuSans-67"/>
      <path id="DejaVuSans-32"/>
      <path d="M 31 75.875 
Q 24.46875 64.65625 21.28125 53.65625 
Q 18.109375 42.671875 18.109375 31.390625 
Q 18.109375 20.125 21.3125 9.0625 
Q 24.515625 -2 31 -13.1875 
L 23.1875 -13.1875 
Q 15.875 -1.703125 12.234375 9.375 
Q 8.59375 20.453125 8.59375 31.390625 
Q 8.59375 42.28125 12.203125 53.3125 
Q 15.828125 64.359375 23.1875 75.875 
z
" id="DejaVuSans-40"/>
      <path d="M 41.109375 46.296875 
Q 39.59375 47.171875 37.8125 47.578125 
Q 36.03125 48 33.890625 48 
Q 26.265625 48 22.1875 43.046875 
Q 18.109375 38.09375 18.109375 28.8125 
L 18.109375 0 
L 9.078125 0 
L 9.078125 54.6875 
L 18.109375 54.6875 
L 18.109375 46.1875 
Q 20.953125 51.171875 25.484375 53.578125 
Q 30.03125 56 36.53125 56 
Q 37.453125 56 38.578125 55.875 
Q 39.703125 55.765625 41.0625 55.515625 
z
" id="DejaVuSans-114"/>
      <path d="M 56.203125 29.59375 
L 56.203125 25.203125 
L 14.890625 25.203125 
Q 15.484375 15.921875 20.484375 11.0625 
Q 25.484375 6.203125 34.421875 6.203125 
Q 39.59375 6.203125 44.453125 7.46875 
Q 49.3125 8.734375 54.109375 11.28125 
L 54.109375 2.78125 
Q 49.265625 0.734375 44.1875 -0.34375 
Q 39.109375 -1.421875 33.890625 -1.421875 
Q 20.796875 -1.421875 13.15625 6.1875 
Q 5.515625 13.8125 5.515625 26.8125 
Q 5.515625 40.234375 12.765625 48.109375 
Q 20.015625 56 32.328125 56 
Q 43.359375 56 49.78125 48.890625 
Q 56.203125 41.796875 56.203125 29.59375 
z
M 47.21875 32.234375 
Q 47.125 39.59375 43.09375 43.984375 
Q 39.0625 48.390625 32.421875 48.390625 
Q 24.90625 48.390625 20.390625 44.140625 
Q 15.875 39.890625 15.1875 32.171875 
z
" id="DejaVuSans-101"/>
      <path d="M 34.28125 27.484375 
Q 23.390625 27.484375 19.1875 25 
Q 14.984375 22.515625 14.984375 16.5 
Q 14.984375 11.71875 18.140625 8.90625 
Q 21.296875 6.109375 26.703125 6.109375 
Q 34.1875 6.109375 38.703125 11.40625 
Q 43.21875 16.703125 43.21875 25.484375 
L 43.21875 27.484375 
z
M 52.203125 31.203125 
L 52.203125 0 
L 43.21875 0 
L 43.21875 8.296875 
Q 40.140625 3.328125 35.546875 0.953125 
Q 30.953125 -1.421875 24.3125 -1.421875 
Q 15.921875 -1.421875 10.953125 3.296875 
Q 6 8.015625 6 15.921875 
Q 6 25.140625 12.171875 29.828125 
Q 18.359375 34.515625 30.609375 34.515625 
L 43.21875 34.515625 
L 43.21875 35.40625 
Q 43.21875 41.609375 39.140625 45 
Q 35.0625 48.390625 27.6875 48.390625 
Q 23 48.390625 18.546875 47.265625 
Q 14.109375 46.140625 10.015625 43.890625 
L 10.015625 52.203125 
Q 14.9375 54.109375 19.578125 55.046875 
Q 24.21875 56 28.609375 56 
Q 40.484375 56 46.34375 49.84375 
Q 52.203125 43.703125 52.203125 31.203125 
z
" id="DejaVuSans-97"/>
      <path d="M 9.421875 75.984375 
L 18.40625 75.984375 
L 18.40625 0 
L 9.421875 0 
z
" id="DejaVuSans-108"/>
      <path d="M 8.015625 75.875 
L 15.828125 75.875 
Q 23.140625 64.359375 26.78125 53.3125 
Q 30.421875 42.28125 30.421875 31.390625 
Q 30.421875 20.453125 26.78125 9.375 
Q 23.140625 -1.703125 15.828125 -13.1875 
L 8.015625 -13.1875 
Q 14.5 -2 17.703125 9.0625 
Q 20.90625 20.125 20.90625 31.390625 
Q 20.90625 42.671875 17.703125 53.65625 
Q 14.5 64.65625 8.015625 75.875 
z
" id="DejaVuSans-41"/>
     </defs>
     <g transform="translate(463.579375 494.139063)scale(0.14 -0.14)">
      <use xlink:href="#DejaVuSans-67"/>
      <use x="69.824219" xlink:href="#DejaVuSans-50"/>
      <use x="133.447266" xlink:href="#DejaVuSans-49"/>
      <use x="197.070312" xlink:href="#DejaVuSans-32"/>
      <use x="228.857422" xlink:href="#DejaVuSans-40"/>
      <use x="267.871094" xlink:href="#DejaVuSans-114"/>
      <use x="308.953125" xlink:href="#DejaVuSans-101"/>
      <use x="370.476562" xlink:href="#DejaVuSans-97"/>
      <use x="431.755859" xlink:href="#DejaVuSans-108"/>
      <use x="459.539062" xlink:href="#DejaVuSans-41"/>
     </g>
    </g>
    <g id="line2d_25">
     <path d="M 424.379375 509.788437 
L 452.379375 509.788437 
" style="fill:none;stroke:#2ca02c;stroke-linecap:square;stroke-width:1.5;"/>
    </g>
    <g id="line2d_26"/>
    <g id="text_19">
     <!-- C21 (imag) -->
     <defs>
      <path d="M 9.421875 54.6875 
L 18.40625 54.6875 
L 18.40625 0 
L 9.421875 0 
z
M 9.421875 75.984375 
L 18.40625 75.984375 
L 18.40625 64.59375 
L 9.421875 64.59375 
z
" id="DejaVuSans-105"/>
      <path d="M 52 44.1875 
Q 55.375 50.25 60.0625 53.125 
Q 64.75 56 71.09375 56 
Q 79.640625 56 84.28125 50.015625 
Q 88.921875 44.046875 88.921875 33.015625 
L 88.921875 0 
L 79.890625 0 
L 79.890625 32.71875 
Q 79.890625 40.578125 77.09375 44.375 
Q 74.3125 48.1875 68.609375 48.1875 
Q 61.625 48.1875 57.5625 43.546875 
Q 53.515625 38.921875 53.515625 30.90625 
L 53.515625 0 
L 44.484375 0 
L 44.484375 32.71875 
Q 44.484375 40.625 41.703125 44.40625 
Q 38.921875 48.1875 33.109375 48.1875 
Q 26.21875 48.1875 22.15625 43.53125 
Q 18.109375 38.875 18.109375 30.90625 
L 18.109375 0 
L 9.078125 0 
L 9.078125 54.6875 
L 18.109375 54.6875 
L 18.109375 46.1875 
Q 21.1875 51.21875 25.484375 53.609375 
Q 29.78125 56 35.6875 56 
Q 41.65625 56 45.828125 52.96875 
Q 50 49.953125 52 44.1875 
z
" id="DejaVuSans-109"/>
      <path d="M 45.40625 27.984375 
Q 45.40625 37.75 41.375 43.109375 
Q 37.359375 48.484375 30.078125 48.484375 
Q 22.859375 48.484375 18.828125 43.109375 
Q 14.796875 37.75 14.796875 27.984375 
Q 14.796875 18.265625 18.828125 12.890625 
Q 22.859375 7.515625 30.078125 7.515625 
Q 37.359375 7.515625 41.375 12.890625 
Q 45.40625 18.265625 45.40625 27.984375 
z
M 54.390625 6.78125 
Q 54.390625 -7.171875 48.1875 -13.984375 
Q 42 -20.796875 29.203125 -20.796875 
Q 24.46875 -20.796875 20.265625 -20.09375 
Q 16.0625 -19.390625 12.109375 -17.921875 
L 12.109375 -9.1875 
Q 16.0625 -11.328125 19.921875 -12.34375 
Q 23.78125 -13.375 27.78125 -13.375 
Q 36.625 -13.375 41.015625 -8.765625 
Q 45.40625 -4.15625 45.40625 5.171875 
L 45.40625 9.625 
Q 42.625 4.78125 38.28125 2.390625 
Q 33.9375 0 27.875 0 
Q 17.828125 0 11.671875 7.65625 
Q 5.515625 15.328125 5.515625 27.984375 
Q 5.515625 40.671875 11.671875 48.328125 
Q 17.828125 56 27.875 56 
Q 33.9375 56 38.28125 53.609375 
Q 42.625 51.21875 45.40625 46.390625 
L 45.40625 54.6875 
L 54.390625 54.6875 
z
" id="DejaVuSans-103"/>
     </defs>
     <g transform="translate(463.579375 514.688437)scale(0.14 -0.14)">
      <use xlink:href="#DejaVuSans-67"/>
      <use x="69.824219" xlink:href="#DejaVuSans-50"/>
      <use x="133.447266" xlink:href="#DejaVuSans-49"/>
      <use x="197.070312" xlink:href="#DejaVuSans-32"/>
      <use x="228.857422" xlink:href="#DejaVuSans-40"/>
      <use x="267.871094" xlink:href="#DejaVuSans-105"/>
      <use x="295.654297" xlink:href="#DejaVuSans-109"/>
      <use x="393.066406" xlink:href="#DejaVuSans-97"/>
      <use x="454.345703" xlink:href="#DejaVuSans-103"/>
      <use x="517.822266" xlink:href="#DejaVuSans-41"/>
     </g>
    </g>
   </g>
  </g>
 </g>
 <defs>
  <clipPath id="pe4e57ad956">
   <rect height="515.4" width="512.0875" x="42.05" y="14.8"/>
  </clipPath>
 </defs>
</svg>
