<?xml version="1.0" encoding="utf-8" standalone="no"?>
<!DOCTYPE svg PUBLIC "-//W3C//DTD SVG 1.1//EN"
  "http://www.w3.org/Graphics/SVG/1.1/DTD/svg11.dtd">
<!-- Created with matplotlib (https://matplotlib.org/) -->
<svg height="720pt" version="1.1" viewBox="0 0 720 720" width="720pt" xmlns="http://www.w3.org/2000/svg" xmlns:xlink="http://www.w3.org/1999/xlink">
 <defs>
  <style type="text/css">
*{stroke-linecap:butt;stroke-linejoin:round;}
  </style>
 </defs>
 <g id="figure_1">
  <g id="patch_1">
   <path d="M 0 720 
L 720 720 
L 720 0 
L 0 0 
z
" style="fill:#ffffff;"/>
  </g>
  <g id="axes_1">
   <g id="patch_2">
    <path d="M 90 630 
L 648 630 
L 648 86.4 
L 90 86.4 
z
" style="fill:#ffffff;"/>
   </g>
   <g id="matplotlib.axis_1">
    <g id="xtick_1">
     <g id="line2d_1">
      <defs>
       <path d="M 0 0 
L 0 3.5 
" id="m9f781bbffe" style="stroke:#000000;stroke-width:0.8;"/>
      </defs>
      <g>
       <use style="stroke:#000000;stroke-width:0.8;" x="115.363636" xlink:href="#m9f781bbffe" y="630"/>
      </g>
     </g>
     <g id="text_1">
      <!-- 0.0 -->
      <defs>
       <path d="M 31.78125 66.40625 
Q 24.171875 66.40625 20.328125 58.90625 
Q 16.5 51.421875 16.5 36.375 
Q 16.5 21.390625 20.328125 13.890625 
Q 24.171875 6.390625 31.78125 6.390625 
Q 39.453125 6.390625 43.28125 13.890625 
Q 47.125 21.390625 47.125 36.375 
Q 47.125 51.421875 43.28125 58.90625 
Q 39.453125 66.40625 31.78125 66.40625 
z
M 31.78125 74.21875 
Q 44.046875 74.21875 50.515625 64.515625 
Q 56.984375 54.828125 56.984375 36.375 
Q 56.984375 17.96875 50.515625 8.265625 
Q 44.046875 -1.421875 31.78125 -1.421875 
Q 19.53125 -1.421875 13.0625 8.265625 
Q 6.59375 17.96875 6.59375 36.375 
Q 6.59375 54.828125 13.0625 64.515625 
Q 19.53125 74.21875 31.78125 74.21875 
z
" id="DejaVuSans-48"/>
       <path d="M 10.6875 12.40625 
L 21 12.40625 
L 21 0 
L 10.6875 0 
z
" id="DejaVuSans-46"/>
      </defs>
      <g transform="translate(107.412074 644.598438)scale(0.1 -0.1)">
       <use xlink:href="#DejaVuSans-48"/>
       <use x="63.623047" xlink:href="#DejaVuSans-46"/>
       <use x="95.410156" xlink:href="#DejaVuSans-48"/>
      </g>
     </g>
    </g>
    <g id="xtick_2">
     <g id="line2d_2">
      <g>
       <use style="stroke:#000000;stroke-width:0.8;" x="216.818182" xlink:href="#m9f781bbffe" y="630"/>
      </g>
     </g>
     <g id="text_2">
      <!-- 0.2 -->
      <defs>
       <path d="M 19.1875 8.296875 
L 53.609375 8.296875 
L 53.609375 0 
L 7.328125 0 
L 7.328125 8.296875 
Q 12.9375 14.109375 22.625 23.890625 
Q 32.328125 33.6875 34.8125 36.53125 
Q 39.546875 41.84375 41.421875 45.53125 
Q 43.3125 49.21875 43.3125 52.78125 
Q 43.3125 58.59375 39.234375 62.25 
Q 35.15625 65.921875 28.609375 65.921875 
Q 23.96875 65.921875 18.8125 64.3125 
Q 13.671875 62.703125 7.8125 59.421875 
L 7.8125 69.390625 
Q 13.765625 71.78125 18.9375 73 
Q 24.125 74.21875 28.421875 74.21875 
Q 39.75 74.21875 46.484375 68.546875 
Q 53.21875 62.890625 53.21875 53.421875 
Q 53.21875 48.921875 51.53125 44.890625 
Q 49.859375 40.875 45.40625 35.40625 
Q 44.1875 33.984375 37.640625 27.21875 
Q 31.109375 20.453125 19.1875 8.296875 
z
" id="DejaVuSans-50"/>
      </defs>
      <g transform="translate(208.866619 644.598438)scale(0.1 -0.1)">
       <use xlink:href="#DejaVuSans-48"/>
       <use x="63.623047" xlink:href="#DejaVuSans-46"/>
       <use x="95.410156" xlink:href="#DejaVuSans-50"/>
      </g>
     </g>
    </g>
    <g id="xtick_3">
     <g id="line2d_3">
      <g>
       <use style="stroke:#000000;stroke-width:0.8;" x="318.272727" xlink:href="#m9f781bbffe" y="630"/>
      </g>
     </g>
     <g id="text_3">
      <!-- 0.4 -->
      <defs>
       <path d="M 37.796875 64.3125 
L 12.890625 25.390625 
L 37.796875 25.390625 
z
M 35.203125 72.90625 
L 47.609375 72.90625 
L 47.609375 25.390625 
L 58.015625 25.390625 
L 58.015625 17.1875 
L 47.609375 17.1875 
L 47.609375 0 
L 37.796875 0 
L 37.796875 17.1875 
L 4.890625 17.1875 
L 4.890625 26.703125 
z
" id="DejaVuSans-52"/>
      </defs>
      <g transform="translate(310.321165 644.598438)scale(0.1 -0.1)">
       <use xlink:href="#DejaVuSans-48"/>
       <use x="63.623047" xlink:href="#DejaVuSans-46"/>
       <use x="95.410156" xlink:href="#DejaVuSans-52"/>
      </g>
     </g>
    </g>
    <g id="xtick_4">
     <g id="line2d_4">
      <g>
       <use style="stroke:#000000;stroke-width:0.8;" x="419.727273" xlink:href="#m9f781bbffe" y="630"/>
      </g>
     </g>
     <g id="text_4">
      <!-- 0.6 -->
      <defs>
       <path d="M 33.015625 40.375 
Q 26.375 40.375 22.484375 35.828125 
Q 18.609375 31.296875 18.609375 23.390625 
Q 18.609375 15.53125 22.484375 10.953125 
Q 26.375 6.390625 33.015625 6.390625 
Q 39.65625 6.390625 43.53125 10.953125 
Q 47.40625 15.53125 47.40625 23.390625 
Q 47.40625 31.296875 43.53125 35.828125 
Q 39.65625 40.375 33.015625 40.375 
z
M 52.59375 71.296875 
L 52.59375 62.3125 
Q 48.875 64.0625 45.09375 64.984375 
Q 41.3125 65.921875 37.59375 65.921875 
Q 27.828125 65.921875 22.671875 59.328125 
Q 17.53125 52.734375 16.796875 39.40625 
Q 19.671875 43.65625 24.015625 45.921875 
Q 28.375 48.1875 33.59375 48.1875 
Q 44.578125 48.1875 50.953125 41.515625 
Q 57.328125 34.859375 57.328125 23.390625 
Q 57.328125 12.15625 50.6875 5.359375 
Q 44.046875 -1.421875 33.015625 -1.421875 
Q 20.359375 -1.421875 13.671875 8.265625 
Q 6.984375 17.96875 6.984375 36.375 
Q 6.984375 53.65625 15.1875 63.9375 
Q 23.390625 74.21875 37.203125 74.21875 
Q 40.921875 74.21875 44.703125 73.484375 
Q 48.484375 72.75 52.59375 71.296875 
z
" id="DejaVuSans-54"/>
      </defs>
      <g transform="translate(411.77571 644.598438)scale(0.1 -0.1)">
       <use xlink:href="#DejaVuSans-48"/>
       <use x="63.623047" xlink:href="#DejaVuSans-46"/>
       <use x="95.410156" xlink:href="#DejaVuSans-54"/>
      </g>
     </g>
    </g>
    <g id="xtick_5">
     <g id="line2d_5">
      <g>
       <use style="stroke:#000000;stroke-width:0.8;" x="521.181818" xlink:href="#m9f781bbffe" y="630"/>
      </g>
     </g>
     <g id="text_5">
      <!-- 0.8 -->
      <defs>
       <path d="M 31.78125 34.625 
Q 24.75 34.625 20.71875 30.859375 
Q 16.703125 27.09375 16.703125 20.515625 
Q 16.703125 13.921875 20.71875 10.15625 
Q 24.75 6.390625 31.78125 6.390625 
Q 38.8125 6.390625 42.859375 10.171875 
Q 46.921875 13.96875 46.921875 20.515625 
Q 46.921875 27.09375 42.890625 30.859375 
Q 38.875 34.625 31.78125 34.625 
z
M 21.921875 38.8125 
Q 15.578125 40.375 12.03125 44.71875 
Q 8.5 49.078125 8.5 55.328125 
Q 8.5 64.0625 14.71875 69.140625 
Q 20.953125 74.21875 31.78125 74.21875 
Q 42.671875 74.21875 48.875 69.140625 
Q 55.078125 64.0625 55.078125 55.328125 
Q 55.078125 49.078125 51.53125 44.71875 
Q 48 40.375 41.703125 38.8125 
Q 48.828125 37.15625 52.796875 32.3125 
Q 56.78125 27.484375 56.78125 20.515625 
Q 56.78125 9.90625 50.3125 4.234375 
Q 43.84375 -1.421875 31.78125 -1.421875 
Q 19.734375 -1.421875 13.25 4.234375 
Q 6.78125 9.90625 6.78125 20.515625 
Q 6.78125 27.484375 10.78125 32.3125 
Q 14.796875 37.15625 21.921875 38.8125 
z
M 18.3125 54.390625 
Q 18.3125 48.734375 21.84375 45.5625 
Q 25.390625 42.390625 31.78125 42.390625 
Q 38.140625 42.390625 41.71875 45.5625 
Q 45.3125 48.734375 45.3125 54.390625 
Q 45.3125 60.0625 41.71875 63.234375 
Q 38.140625 66.40625 31.78125 66.40625 
Q 25.390625 66.40625 21.84375 63.234375 
Q 18.3125 60.0625 18.3125 54.390625 
z
" id="DejaVuSans-56"/>
      </defs>
      <g transform="translate(513.230256 644.598438)scale(0.1 -0.1)">
       <use xlink:href="#DejaVuSans-48"/>
       <use x="63.623047" xlink:href="#DejaVuSans-46"/>
       <use x="95.410156" xlink:href="#DejaVuSans-56"/>
      </g>
     </g>
    </g>
    <g id="xtick_6">
     <g id="line2d_6">
      <g>
       <use style="stroke:#000000;stroke-width:0.8;" x="622.636364" xlink:href="#m9f781bbffe" y="630"/>
      </g>
     </g>
     <g id="text_6">
      <!-- 1.0 -->
      <defs>
       <path d="M 12.40625 8.296875 
L 28.515625 8.296875 
L 28.515625 63.921875 
L 10.984375 60.40625 
L 10.984375 69.390625 
L 28.421875 72.90625 
L 38.28125 72.90625 
L 38.28125 8.296875 
L 54.390625 8.296875 
L 54.390625 0 
L 12.40625 0 
z
" id="DejaVuSans-49"/>
      </defs>
      <g transform="translate(614.684801 644.598438)scale(0.1 -0.1)">
       <use xlink:href="#DejaVuSans-49"/>
       <use x="63.623047" xlink:href="#DejaVuSans-46"/>
       <use x="95.410156" xlink:href="#DejaVuSans-48"/>
      </g>
     </g>
    </g>
    <g id="text_7">
     <!-- t -->
     <defs>
      <path d="M 18.3125 70.21875 
L 18.3125 54.6875 
L 36.8125 54.6875 
L 36.8125 47.703125 
L 18.3125 47.703125 
L 18.3125 18.015625 
Q 18.3125 11.328125 20.140625 9.421875 
Q 21.96875 7.515625 27.59375 7.515625 
L 36.8125 7.515625 
L 36.8125 0 
L 27.59375 0 
Q 17.1875 0 13.234375 3.875 
Q 9.28125 7.765625 9.28125 18.015625 
L 9.28125 47.703125 
L 2.6875 47.703125 
L 2.6875 54.6875 
L 9.28125 54.6875 
L 9.28125 70.21875 
z
" id="DejaVuSans-116"/>
     </defs>
     <g transform="translate(366.255781 661.315938)scale(0.14 -0.14)">
      <use xlink:href="#DejaVuSans-116"/>
     </g>
    </g>
   </g>
   <g id="matplotlib.axis_2">
    <g id="ytick_1">
     <g id="line2d_7">
      <defs>
       <path d="M 0 0 
L -3.5 0 
" id="m05675cbc2b" style="stroke:#000000;stroke-width:0.8;"/>
      </defs>
      <g>
       <use style="stroke:#000000;stroke-width:0.8;" x="90" xlink:href="#m05675cbc2b" y="630"/>
      </g>
     </g>
     <g id="text_8">
      <!-- 0.0 -->
      <g transform="translate(67.096875 633.799219)scale(0.1 -0.1)">
       <use xlink:href="#DejaVuSans-48"/>
       <use x="63.623047" xlink:href="#DejaVuSans-46"/>
       <use x="95.410156" xlink:href="#DejaVuSans-48"/>
      </g>
     </g>
    </g>
    <g id="ytick_2">
     <g id="line2d_8">
      <g>
       <use style="stroke:#000000;stroke-width:0.8;" x="90" xlink:href="#m05675cbc2b" y="521.28"/>
      </g>
     </g>
     <g id="text_9">
      <!-- 0.2 -->
      <g transform="translate(67.096875 525.079219)scale(0.1 -0.1)">
       <use xlink:href="#DejaVuSans-48"/>
       <use x="63.623047" xlink:href="#DejaVuSans-46"/>
       <use x="95.410156" xlink:href="#DejaVuSans-50"/>
      </g>
     </g>
    </g>
    <g id="ytick_3">
     <g id="line2d_9">
      <g>
       <use style="stroke:#000000;stroke-width:0.8;" x="90" xlink:href="#m05675cbc2b" y="412.56"/>
      </g>
     </g>
     <g id="text_10">
      <!-- 0.4 -->
      <g transform="translate(67.096875 416.359219)scale(0.1 -0.1)">
       <use xlink:href="#DejaVuSans-48"/>
       <use x="63.623047" xlink:href="#DejaVuSans-46"/>
       <use x="95.410156" xlink:href="#DejaVuSans-52"/>
      </g>
     </g>
    </g>
    <g id="ytick_4">
     <g id="line2d_10">
      <g>
       <use style="stroke:#000000;stroke-width:0.8;" x="90" xlink:href="#m05675cbc2b" y="303.84"/>
      </g>
     </g>
     <g id="text_11">
      <!-- 0.6 -->
      <g transform="translate(67.096875 307.639219)scale(0.1 -0.1)">
       <use xlink:href="#DejaVuSans-48"/>
       <use x="63.623047" xlink:href="#DejaVuSans-46"/>
       <use x="95.410156" xlink:href="#DejaVuSans-54"/>
      </g>
     </g>
    </g>
    <g id="ytick_5">
     <g id="line2d_11">
      <g>
       <use style="stroke:#000000;stroke-width:0.8;" x="90" xlink:href="#m05675cbc2b" y="195.12"/>
      </g>
     </g>
     <g id="text_12">
      <!-- 0.8 -->
      <g transform="translate(67.096875 198.919219)scale(0.1 -0.1)">
       <use xlink:href="#DejaVuSans-48"/>
       <use x="63.623047" xlink:href="#DejaVuSans-46"/>
       <use x="95.410156" xlink:href="#DejaVuSans-56"/>
      </g>
     </g>
    </g>
    <g id="ytick_6">
     <g id="line2d_12">
      <g>
       <use style="stroke:#000000;stroke-width:0.8;" x="90" xlink:href="#m05675cbc2b" y="86.4"/>
      </g>
     </g>
     <g id="text_13">
      <!-- 1.0 -->
      <g transform="translate(67.096875 90.199219)scale(0.1 -0.1)">
       <use xlink:href="#DejaVuSans-49"/>
       <use x="63.623047" xlink:href="#DejaVuSans-46"/>
       <use x="95.410156" xlink:href="#DejaVuSans-48"/>
      </g>
     </g>
    </g>
    <g id="text_14">
     <!-- $P_1(\rho)$ -->
     <defs>
      <path d="M 16.890625 72.90625 
L 39.703125 72.90625 
Q 49.65625 72.90625 54.875 68.265625 
Q 60.109375 63.625 60.109375 54.6875 
Q 60.109375 42.671875 52.390625 35.984375 
Q 44.671875 29.296875 30.71875 29.296875 
L 18.3125 29.296875 
L 12.59375 0 
L 2.6875 0 
z
M 25.203125 64.796875 
L 19.921875 37.40625 
L 32.328125 37.40625 
Q 40.71875 37.40625 45.203125 41.703125 
Q 49.703125 46 49.703125 54 
Q 49.703125 59.125 46.65625 61.953125 
Q 43.609375 64.796875 38.09375 64.796875 
z
" id="DejaVuSans-Oblique-80"/>
      <path d="M 31 75.875 
Q 24.46875 64.65625 21.28125 53.65625 
Q 18.109375 42.671875 18.109375 31.390625 
Q 18.109375 20.125 21.3125 9.0625 
Q 24.515625 -2 31 -13.1875 
L 23.1875 -13.1875 
Q 15.875 -1.703125 12.234375 9.375 
Q 8.59375 20.453125 8.59375 31.390625 
Q 8.59375 42.28125 12.203125 53.3125 
Q 15.828125 64.359375 23.1875 75.875 
z
" id="DejaVuSans-40"/>
      <path d="M 18.796875 44.921875 
Q 22.703125 49.90625 30.953125 54.296875 
Q 34.1875 56 43.0625 56 
Q 53.03125 56 57.71875 48.09375 
Q 62.40625 40.1875 59.90625 27.296875 
Q 57.375 14.40625 49.609375 6.484375 
Q 41.84375 -1.421875 31.890625 -1.421875 
Q 25.875 -1.421875 22.015625 0.984375 
Q 18.171875 3.328125 16.3125 8.203125 
L 10.640625 -20.796875 
L 1.609375 -20.796875 
L 10.890625 26.8125 
Q 13.09375 38.09375 18.796875 44.921875 
z
M 50.59375 27.296875 
Q 52.484375 37.203125 49.515625 42.875 
Q 46.53125 48.484375 39.40625 48.484375 
Q 32.28125 48.484375 27.09375 42.875 
Q 21.921875 37.203125 20.015625 27.296875 
Q 18.0625 17.390625 21.046875 11.71875 
Q 24.03125 6.109375 31.15625 6.109375 
Q 38.28125 6.109375 43.453125 11.71875 
Q 48.640625 17.390625 50.59375 27.296875 
z
" id="DejaVuSans-Oblique-961"/>
      <path d="M 8.015625 75.875 
L 15.828125 75.875 
Q 23.140625 64.359375 26.78125 53.3125 
Q 30.421875 42.28125 30.421875 31.390625 
Q 30.421875 20.453125 26.78125 9.375 
Q 23.140625 -1.703125 15.828125 -13.1875 
L 8.015625 -13.1875 
Q 14.5 -2 17.703125 9.0625 
Q 20.90625 20.125 20.90625 31.390625 
Q 20.90625 42.671875 17.703125 53.65625 
Q 14.5 64.65625 8.015625 75.875 
z
" id="DejaVuSans-41"/>
     </defs>
     <g transform="translate(60.156875 375.7)rotate(-90)scale(0.14 -0.14)">
      <use transform="translate(0 0.125)" xlink:href="#DejaVuSans-Oblique-80"/>
      <use transform="translate(60.302734 -16.28125)scale(0.7)" xlink:href="#DejaVuSans-49"/>
      <use transform="translate(107.573242 0.125)" xlink:href="#DejaVuSans-40"/>
      <use transform="translate(146.586914 0.125)" xlink:href="#DejaVuSans-Oblique-961"/>
      <use transform="translate(210.063477 0.125)" xlink:href="#DejaVuSans-41"/>
     </g>
    </g>
   </g>
   <g id="line2d_13">
    <path clip-path="url(#p2dd9bfdad3)" d="M 115.363636 86.4 
L 116.378182 86.617266 
L 117.392727 87.268138 
L 118.407273 88.35071 
L 119.421818 89.862389 
L 120.436364 91.799902 
L 121.450909 94.1593 
L 122.972727 98.479162 
L 124.494545 103.719398 
L 126.016364 109.85842 
L 127.538182 116.871475 
L 129.567273 127.533309 
L 131.596364 139.625113 
L 133.625455 153.063988 
L 136.161818 171.617271 
L 138.698182 191.937639 
L 141.741818 218.356022 
L 145.292727 251.483286 
L 149.350909 291.567917 
L 156.96 369.597457 
L 162.54 425.827989 
L 166.598182 464.446213 
L 169.641818 491.483807 
L 172.685455 516.448415 
L 175.221818 535.418329 
L 177.758182 552.527343 
L 179.787273 564.76566 
L 181.816364 575.636446 
L 183.845455 585.075761 
L 185.367273 591.182672 
L 186.889091 596.43406 
L 188.410909 600.813617 
L 189.932727 604.308216 
L 190.947273 606.14128 
L 191.961818 607.574425 
L 192.976364 608.606159 
L 193.990909 609.235635 
L 195.005455 609.462652 
L 196.02 609.287651 
L 197.034545 608.711713 
L 198.049091 607.736562 
L 199.063636 606.364552 
L 200.078182 604.598671 
L 201.092727 602.442526 
L 202.614545 598.485975 
L 204.136364 593.677803 
L 205.658182 588.037837 
L 207.18 581.588837 
L 209.209091 571.776314 
L 211.238182 560.639532 
L 213.267273 548.254871 
L 215.803636 531.147937 
L 218.34 512.402597 
L 221.383636 488.021026 
L 224.934545 457.434077 
L 228.992727 420.406563 
L 236.601818 348.283489 
L 242.181818 296.274269 
L 246.24 260.536268 
L 249.283636 235.504175 
L 252.327273 212.381241 
L 254.863636 194.802482 
L 257.4 178.939936 
L 259.429091 167.586702 
L 261.458182 157.49563 
L 263.487273 148.7261 
L 265.009091 143.047054 
L 266.530909 138.158177 
L 268.052727 134.07467 
L 269.574545 130.808797 
L 270.589091 129.090497 
L 271.603636 127.741791 
L 272.618182 126.764095 
L 273.632727 126.158231 
L 274.647273 125.924423 
L 275.661818 126.062303 
L 276.676364 126.570906 
L 277.690909 127.448681 
L 278.705455 128.693485 
L 279.72 130.302598 
L 280.734545 132.272717 
L 282.256364 135.896167 
L 283.778182 140.307618 
L 285.3 145.488857 
L 286.821818 151.418958 
L 288.850909 160.449581 
L 290.88 170.706555 
L 292.909091 182.119506 
L 295.445455 197.892628 
L 297.981818 215.184822 
L 301.025455 237.6864 
L 304.576364 265.927599 
L 308.634545 300.130901 
L 315.736364 362.338584 
L 321.823636 414.898636 
L 325.881818 447.970975 
L 328.925455 471.146125 
L 331.969091 492.56303 
L 334.505455 508.852458 
L 337.041818 523.55913 
L 339.070909 534.091097 
L 341.1 543.458165 
L 343.129091 551.605186 
L 344.650909 556.886131 
L 346.172727 561.437272 
L 347.694545 565.244442 
L 349.216364 568.296188 
L 350.230909 569.906593 
L 351.245455 571.175433 
L 352.26 572.101364 
L 353.274545 572.68359 
L 354.289091 572.921867 
L 355.303636 572.816503 
L 356.318182 572.368351 
L 357.332727 571.578814 
L 358.347273 570.449835 
L 359.361818 568.983896 
L 360.376364 567.184014 
L 361.898182 563.865942 
L 363.42 559.818743 
L 364.941818 555.059145 
L 366.463636 549.606386 
L 368.492727 541.295585 
L 370.521818 531.849114 
L 372.550909 521.33181 
L 375.087273 506.788706 
L 377.623636 490.837191 
L 380.667273 470.070848 
L 384.218182 443.995716 
L 388.276364 412.401445 
L 395.378182 354.904845 
L 401.465455 306.292509 
L 405.523636 275.687236 
L 408.567273 254.231462 
L 411.610909 234.394912 
L 414.147273 219.300429 
L 416.683636 205.665605 
L 418.712727 195.895674 
L 420.741818 187.200864 
L 422.770909 179.632391 
L 424.292727 174.721839 
L 425.814545 170.485331 
L 427.336364 166.936071 
L 428.858182 164.084755 
L 429.872727 162.575757 
L 430.887273 161.382418 
L 431.901818 160.506015 
L 432.916364 159.947315 
L 433.930909 159.706577 
L 434.945455 159.783549 
L 435.96 160.177474 
L 436.974545 160.88709 
L 437.989091 161.910631 
L 439.003636 163.245834 
L 440.018182 164.889942 
L 441.54 167.928074 
L 443.061818 171.640851 
L 444.583636 176.012913 
L 446.105455 181.026572 
L 448.134545 188.674715 
L 450.163636 197.374545 
L 452.192727 207.066323 
L 454.729091 220.475143 
L 457.265455 235.189752 
L 460.309091 254.35449 
L 463.86 278.429488 
L 467.918182 307.613531 
L 475.02 360.75547 
L 481.107273 405.716292 
L 485.165455 434.038319 
L 488.209091 453.902107 
L 491.252727 472.274733 
L 493.789091 486.261761 
L 496.325455 498.902671 
L 498.354545 507.965539 
L 500.383636 516.036153 
L 502.412727 523.066953 
L 503.934545 527.632909 
L 505.456364 531.576325 
L 506.978182 534.884896 
L 508.5 537.548635 
L 509.514545 538.962349 
L 510.529091 540.084347 
L 511.543636 540.913418 
L 512.558182 541.448822 
L 513.572727 541.69029 
L 514.587273 541.638024 
L 515.601818 541.292694 
L 516.616364 540.655437 
L 517.630909 539.727855 
L 518.645455 538.512011 
L 519.66 537.010424 
L 521.181818 534.228895 
L 522.703636 530.823134 
L 524.225455 526.807248 
L 525.747273 522.197498 
L 527.776364 515.159371 
L 529.805455 507.147342 
L 531.834545 498.216445 
L 534.370909 485.853615 
L 536.907273 472.280156 
L 539.950909 454.593672 
L 543.501818 432.365569 
L 547.56 405.408085 
L 554.154545 359.817647 
L 560.749091 314.708015 
L 564.807273 288.499095 
L 567.850909 270.109328 
L 570.894545 253.092759 
L 573.430909 240.132088 
L 575.967273 228.41281 
L 577.996364 220.005985 
L 580.025455 212.514924 
L 582.054545 205.983794 
L 583.576364 201.73842 
L 585.098182 198.068012 
L 586.62 194.984038 
L 588.141818 192.495822 
L 589.156364 191.171613 
L 590.170909 190.116993 
L 591.185455 189.333108 
L 592.2 188.82067 
L 593.214545 188.579956 
L 594.229091 188.610808 
L 595.243636 188.912633 
L 596.258182 189.484409 
L 597.272727 190.324681 
L 598.287273 191.431571 
L 599.301818 192.802776 
L 600.823636 195.349114 
L 602.345455 198.473034 
L 603.867273 202.161579 
L 605.389091 206.399803 
L 607.418182 212.876386 
L 609.447273 220.254833 
L 611.476364 228.484441 
L 614.012727 239.882716 
L 616.549091 252.403379 
L 619.592727 268.725473 
L 622.636364 286.232963 
L 622.636364 286.232963 
" style="fill:none;stroke:#1f77b4;stroke-linecap:square;stroke-width:1.5;"/>
   </g>
   <g id="line2d_14">
    <path clip-path="url(#p2dd9bfdad3)" d="M 115.363636 86.4 
L 116.378182 86.615969 
L 117.392727 87.257822 
L 118.407273 88.316109 
L 119.421818 89.780909 
L 120.436364 91.641851 
L 121.450909 93.888144 
L 122.972727 97.95554 
L 124.494545 102.825416 
L 126.016364 108.456789 
L 127.538182 114.807188 
L 129.567273 124.317063 
L 131.596364 134.920577 
L 134.132727 149.546091 
L 136.669091 165.491849 
L 139.712727 186.059983 
L 143.263636 211.553031 
L 148.843636 253.509438 
L 157.467273 318.437295 
L 161.525455 347.294891 
L 165.076364 370.96329 
L 168.12 389.796491 
L 170.656364 404.322933 
L 173.192727 417.691399 
L 175.729091 429.828074 
L 177.758182 438.610889 
L 179.787273 446.545121 
L 181.816364 453.614293 
L 183.845455 459.807998 
L 185.367273 463.875823 
L 186.889091 467.448755 
L 188.410909 470.528752 
L 189.932727 473.119464 
L 191.454545 475.226164 
L 192.976364 476.855689 
L 193.990909 477.680994 
L 195.005455 478.300711 
L 196.02 478.71793 
L 197.034545 478.936 
L 198.049091 478.958519 
L 199.063636 478.789323 
L 200.078182 478.432476 
L 201.092727 477.89226 
L 202.614545 476.747986 
L 204.136364 475.217222 
L 205.658182 473.316817 
L 207.18 471.064434 
L 208.701818 468.478462 
L 210.730909 464.54455 
L 212.76 460.098071 
L 215.296364 453.892374 
L 217.832727 447.056714 
L 220.876364 438.159477 
L 224.427273 427.035256 
L 228.992727 411.962556 
L 241.167273 371.348133 
L 245.225455 358.797112 
L 248.776364 348.586856 
L 251.82 340.52447 
L 254.356364 334.350199 
L 256.892727 328.709491 
L 259.429091 323.631298 
L 261.458182 319.988806 
L 263.487273 316.728736 
L 265.516364 313.856533 
L 267.545455 311.375001 
L 269.574545 309.284379 
L 271.603636 307.58245 
L 273.125455 306.558418 
L 274.647273 305.747745 
L 276.169091 305.146999 
L 277.690909 304.752106 
L 279.212727 304.558382 
L 280.734545 304.560568 
L 282.256364 304.752866 
L 283.778182 305.128977 
L 285.807273 305.904631 
L 287.836364 306.977781 
L 289.865455 308.330033 
L 291.894545 309.941965 
L 294.430909 312.291074 
L 296.967273 314.973044 
L 300.010909 318.571064 
L 303.054545 322.512762 
L 307.112727 328.173341 
L 312.692727 336.414786 
L 322.838182 351.468918 
L 327.403636 357.778963 
L 330.954545 362.327599 
L 334.505455 366.490712 
L 337.549091 369.712047 
L 340.592727 372.585082 
L 343.129091 374.698722 
L 345.665455 376.548482 
L 348.201818 378.129204 
L 350.738182 379.438603 
L 353.274545 380.477151 
L 355.810909 381.247936 
L 358.347273 381.756504 
L 360.883636 382.010688 
L 363.42 382.020416 
L 365.956364 381.797516 
L 368.492727 381.355506 
L 371.029091 380.70938 
L 374.072727 379.687553 
L 377.116364 378.425272 
L 380.667273 376.690958 
L 384.725455 374.42763 
L 389.290909 371.6171 
L 396.392727 366.941551 
L 406.030909 360.62452 
L 411.103636 357.568848 
L 415.669091 355.085558 
L 419.727273 353.137031 
L 423.278182 351.656154 
L 426.829091 350.399064 
L 430.38 349.374389 
L 433.930909 348.585783 
L 437.481818 348.032189 
L 441.032727 347.708181 
L 444.583636 347.604362 
L 448.134545 347.707806 
L 452.192727 348.059218 
L 456.250909 348.632571 
L 460.816364 349.504015 
L 465.889091 350.697333 
L 472.483636 352.494193 
L 495.310909 358.957869 
L 501.398182 360.324111 
L 506.978182 361.340818 
L 512.050909 362.049114 
L 517.123636 362.543978 
L 522.196364 362.826946 
L 527.776364 362.904933 
L 533.356364 362.760024 
L 539.443636 362.382948 
L 546.545455 361.714879 
L 555.676364 360.620439 
L 579.010909 357.713544 
L 587.634545 356.925943 
L 595.750909 356.41925 
L 603.36 356.164101 
L 611.476364 356.116738 
L 620.1 356.287296 
L 622.636364 356.373446 
L 622.636364 356.373446 
" style="fill:none;stroke:#ff7f0e;stroke-linecap:square;stroke-width:1.5;"/>
   </g>
   <g id="line2d_15">
    <path clip-path="url(#p2dd9bfdad3)" d="M 115.363636 86.4 
L 116.378182 86.603615 
L 117.392727 87.164126 
L 118.407273 88.016024 
L 119.929091 89.72461 
L 121.450909 91.825119 
L 123.48 95.052647 
L 126.016364 99.525986 
L 130.074545 107.189851 
L 142.756364 131.441282 
L 148.843636 142.475602 
L 154.423636 152.143524 
L 160.003636 161.38633 
L 165.583636 170.217389 
L 171.163636 178.653189 
L 176.743636 186.710773 
L 182.323636 194.406876 
L 188.410909 202.4093 
L 194.498182 210.020767 
L 200.585455 217.260365 
L 206.672727 224.14626 
L 212.76 230.69573 
L 218.847273 236.925213 
L 224.934545 242.850342 
L 231.021818 248.485986 
L 237.616364 254.28098 
L 244.210909 259.769887 
L 250.805455 264.968875 
L 257.4 269.893257 
L 264.501818 274.905955 
L 271.603636 279.634108 
L 278.705455 284.09387 
L 285.807273 288.300475 
L 293.416364 292.542935 
L 301.025455 296.527905 
L 308.634545 300.271012 
L 316.750909 304.013596 
L 324.867273 307.514385 
L 333.490909 310.986493 
L 342.114545 314.220752 
L 351.245455 317.404103 
L 360.376364 320.357034 
L 370.014545 323.242449 
L 380.16 326.042373 
L 390.812727 328.741263 
L 401.465455 331.213643 
L 412.625455 333.581502 
L 424.292727 335.835151 
L 436.974545 338.051408 
L 450.163636 340.123656 
L 463.86 342.050331 
L 478.570909 343.891604 
L 494.296364 345.628341 
L 511.036364 347.246107 
L 528.790909 348.735041 
L 548.067273 350.123366 
L 568.865455 351.393819 
L 591.692727 352.559401 
L 616.549091 353.602777 
L 622.636364 353.827384 
L 622.636364 353.827384 
" style="fill:none;stroke:#2ca02c;stroke-linecap:square;stroke-width:1.5;"/>
   </g>
   <g id="line2d_16">
    <path clip-path="url(#p2dd9bfdad3)" d="M 115.363636 86.4 
L 116.327455 86.514097 
L 120.588545 87.40956 
L 157.518 95.184334 
L 194.954727 102.838094 
L 232.898727 110.368321 
L 271.400727 117.782343 
L 310.460727 125.077208 
L 350.129455 132.25925 
L 390.406909 139.325155 
L 431.293091 146.271877 
L 472.838727 153.104841 
L 515.094545 159.828661 
L 558.009818 166.431834 
L 601.635273 172.919035 
L 622.636364 175.96323 
L 622.636364 175.96323 
" style="fill:none;stroke:#d62728;stroke-linecap:square;stroke-width:1.5;"/>
   </g>
   <g id="patch_3">
    <path d="M 90 630 
L 90 86.4 
" style="fill:none;stroke:#000000;stroke-linecap:square;stroke-linejoin:miter;stroke-width:0.8;"/>
   </g>
   <g id="patch_4">
    <path d="M 648 630 
L 648 86.4 
" style="fill:none;stroke:#000000;stroke-linecap:square;stroke-linejoin:miter;stroke-width:0.8;"/>
   </g>
   <g id="patch_5">
    <path d="M 90 630 
L 648 630 
" style="fill:none;stroke:#000000;stroke-linecap:square;stroke-linejoin:miter;stroke-width:0.8;"/>
   </g>
   <g id="patch_6">
    <path d="M 90 86.4 
L 648 86.4 
" style="fill:none;stroke:#000000;stroke-linecap:square;stroke-linejoin:miter;stroke-width:0.8;"/>
   </g>
   <g id="legend_1">
    <g id="patch_7">
     <path d="M 532.22 623 
L 638.2 623 
Q 641 623 641 620.2 
L 641 539.28875 
Q 641 536.48875 638.2 536.48875 
L 532.22 536.48875 
Q 529.42 536.48875 529.42 539.28875 
L 529.42 620.2 
Q 529.42 623 532.22 623 
z
" style="fill:#ffffff;opacity:0.8;stroke:#cccccc;stroke-linejoin:miter;"/>
    </g>
    <g id="line2d_17">
     <path d="M 535.02 547.826563 
L 563.02 547.826563 
" style="fill:none;stroke:#1f77b4;stroke-linecap:square;stroke-width:1.5;"/>
    </g>
    <g id="line2d_18"/>
    <g id="text_15">
     <!-- $\gamma=1$ -->
     <defs>
      <path d="M 23.296875 46.09375 
L 28.71875 12.3125 
L 54 54.6875 
L 63.53125 54.6875 
L 30.8125 0 
L 26.765625 -20.796875 
L 17.78125 -20.796875 
L 21.828125 0 
L 15.4375 40.828125 
Q 14.453125 46.96875 9.8125 46.96875 
L 7.421875 46.96875 
L 8.890625 54.6875 
L 12.3125 54.6875 
Q 21.921875 54.6875 23.296875 46.09375 
z
" id="DejaVuSans-Oblique-947"/>
      <path d="M 10.59375 45.40625 
L 73.1875 45.40625 
L 73.1875 37.203125 
L 10.59375 37.203125 
z
M 10.59375 25.484375 
L 73.1875 25.484375 
L 73.1875 17.1875 
L 10.59375 17.1875 
z
" id="DejaVuSans-61"/>
     </defs>
     <g transform="translate(574.22 552.726562)scale(0.14 -0.14)">
      <use transform="translate(0 0.09375)" xlink:href="#DejaVuSans-Oblique-947"/>
      <use transform="translate(78.662109 0.09375)" xlink:href="#DejaVuSans-61"/>
      <use transform="translate(181.933594 0.09375)" xlink:href="#DejaVuSans-49"/>
     </g>
    </g>
    <g id="line2d_19">
     <path d="M 535.02 568.404375 
L 563.02 568.404375 
" style="fill:none;stroke:#ff7f0e;stroke-linecap:square;stroke-width:1.5;"/>
    </g>
    <g id="line2d_20"/>
    <g id="text_16">
     <!-- $\gamma=10$ -->
     <g transform="translate(574.22 573.304375)scale(0.14 -0.14)">
      <use transform="translate(0 0.78125)" xlink:href="#DejaVuSans-Oblique-947"/>
      <use transform="translate(78.662109 0.78125)" xlink:href="#DejaVuSans-61"/>
      <use transform="translate(181.933594 0.78125)" xlink:href="#DejaVuSans-49"/>
      <use transform="translate(245.556641 0.78125)" xlink:href="#DejaVuSans-48"/>
     </g>
    </g>
    <g id="line2d_21">
     <path d="M 535.02 588.982188 
L 563.02 588.982188 
" style="fill:none;stroke:#2ca02c;stroke-linecap:square;stroke-width:1.5;"/>
    </g>
    <g id="line2d_22"/>
    <g id="text_17">
     <!-- $\gamma=100$ -->
     <g transform="translate(574.22 593.882187)scale(0.14 -0.14)">
      <use transform="translate(0 0.78125)" xlink:href="#DejaVuSans-Oblique-947"/>
      <use transform="translate(78.662109 0.78125)" xlink:href="#DejaVuSans-61"/>
      <use transform="translate(181.933594 0.78125)" xlink:href="#DejaVuSans-49"/>
      <use transform="translate(245.556641 0.78125)" xlink:href="#DejaVuSans-48"/>
      <use transform="translate(309.179688 0.78125)" xlink:href="#DejaVuSans-48"/>
     </g>
    </g>
    <g id="line2d_23">
     <path d="M 535.02 609.56 
L 563.02 609.56 
" style="fill:none;stroke:#d62728;stroke-linecap:square;stroke-width:1.5;"/>
    </g>
    <g id="line2d_24"/>
    <g id="text_18">
     <!-- $\gamma=1000$ -->
     <g transform="translate(574.22 614.46)scale(0.14 -0.14)">
      <use transform="translate(0 0.78125)" xlink:href="#DejaVuSans-Oblique-947"/>
      <use transform="translate(78.662109 0.78125)" xlink:href="#DejaVuSans-61"/>
      <use transform="translate(181.933594 0.78125)" xlink:href="#DejaVuSans-49"/>
      <use transform="translate(245.556641 0.78125)" xlink:href="#DejaVuSans-48"/>
      <use transform="translate(309.179688 0.78125)" xlink:href="#DejaVuSans-48"/>
      <use transform="translate(372.802734 0.78125)" xlink:href="#DejaVuSans-48"/>
     </g>
    </g>
   </g>
  </g>
 </g>
 <defs>
  <clipPath id="p2dd9bfdad3">
   <rect height="543.6" width="558" x="90" y="86.4"/>
  </clipPath>
 </defs>
</svg>
