<?xml version="1.0" encoding="utf-8" standalone="no"?>
<!DOCTYPE svg PUBLIC "-//W3C//DTD SVG 1.1//EN"
  "http://www.w3.org/Graphics/SVG/1.1/DTD/svg11.dtd">
<!-- Created with matplotlib (https://matplotlib.org/) -->
<svg height="720pt" version="1.1" viewBox="0 0 720 720" width="720pt" xmlns="http://www.w3.org/2000/svg" xmlns:xlink="http://www.w3.org/1999/xlink">
 <defs>
  <style type="text/css">
*{stroke-linecap:butt;stroke-linejoin:round;}
  </style>
 </defs>
 <g id="figure_1">
  <g id="patch_1">
   <path d="M 0 720 
L 720 720 
L 720 0 
L 0 0 
z
" style="fill:#ffffff;"/>
  </g>
  <g id="axes_1">
   <g id="patch_2">
    <path d="M 90 630 
L 648 630 
L 648 86.4 
L 90 86.4 
z
" style="fill:#ffffff;"/>
   </g>
   <g id="matplotlib.axis_1">
    <g id="xtick_1">
     <g id="line2d_1">
      <defs>
       <path d="M 0 0 
L 0 3.5 
" id="mafc54bec3c" style="stroke:#000000;stroke-width:0.8;"/>
      </defs>
      <g>
       <use style="stroke:#000000;stroke-width:0.8;" x="115.363636" xlink:href="#mafc54bec3c" y="630"/>
      </g>
     </g>
     <g id="text_1">
      <!-- 0.0 -->
      <defs>
       <path d="M 31.78125 66.40625 
Q 24.171875 66.40625 20.328125 58.90625 
Q 16.5 51.421875 16.5 36.375 
Q 16.5 21.390625 20.328125 13.890625 
Q 24.171875 6.390625 31.78125 6.390625 
Q 39.453125 6.390625 43.28125 13.890625 
Q 47.125 21.390625 47.125 36.375 
Q 47.125 51.421875 43.28125 58.90625 
Q 39.453125 66.40625 31.78125 66.40625 
z
M 31.78125 74.21875 
Q 44.046875 74.21875 50.515625 64.515625 
Q 56.984375 54.828125 56.984375 36.375 
Q 56.984375 17.96875 50.515625 8.265625 
Q 44.046875 -1.421875 31.78125 -1.421875 
Q 19.53125 -1.421875 13.0625 8.265625 
Q 6.59375 17.96875 6.59375 36.375 
Q 6.59375 54.828125 13.0625 64.515625 
Q 19.53125 74.21875 31.78125 74.21875 
z
" id="DejaVuSans-48"/>
       <path d="M 10.6875 12.40625 
L 21 12.40625 
L 21 0 
L 10.6875 0 
z
" id="DejaVuSans-46"/>
      </defs>
      <g transform="translate(107.412074 644.598438)scale(0.1 -0.1)">
       <use xlink:href="#DejaVuSans-48"/>
       <use x="63.623047" xlink:href="#DejaVuSans-46"/>
       <use x="95.410156" xlink:href="#DejaVuSans-48"/>
      </g>
     </g>
    </g>
    <g id="xtick_2">
     <g id="line2d_2">
      <g>
       <use style="stroke:#000000;stroke-width:0.8;" x="216.818182" xlink:href="#mafc54bec3c" y="630"/>
      </g>
     </g>
     <g id="text_2">
      <!-- 0.2 -->
      <defs>
       <path d="M 19.1875 8.296875 
L 53.609375 8.296875 
L 53.609375 0 
L 7.328125 0 
L 7.328125 8.296875 
Q 12.9375 14.109375 22.625 23.890625 
Q 32.328125 33.6875 34.8125 36.53125 
Q 39.546875 41.84375 41.421875 45.53125 
Q 43.3125 49.21875 43.3125 52.78125 
Q 43.3125 58.59375 39.234375 62.25 
Q 35.15625 65.921875 28.609375 65.921875 
Q 23.96875 65.921875 18.8125 64.3125 
Q 13.671875 62.703125 7.8125 59.421875 
L 7.8125 69.390625 
Q 13.765625 71.78125 18.9375 73 
Q 24.125 74.21875 28.421875 74.21875 
Q 39.75 74.21875 46.484375 68.546875 
Q 53.21875 62.890625 53.21875 53.421875 
Q 53.21875 48.921875 51.53125 44.890625 
Q 49.859375 40.875 45.40625 35.40625 
Q 44.1875 33.984375 37.640625 27.21875 
Q 31.109375 20.453125 19.1875 8.296875 
z
" id="DejaVuSans-50"/>
      </defs>
      <g transform="translate(208.866619 644.598438)scale(0.1 -0.1)">
       <use xlink:href="#DejaVuSans-48"/>
       <use x="63.623047" xlink:href="#DejaVuSans-46"/>
       <use x="95.410156" xlink:href="#DejaVuSans-50"/>
      </g>
     </g>
    </g>
    <g id="xtick_3">
     <g id="line2d_3">
      <g>
       <use style="stroke:#000000;stroke-width:0.8;" x="318.272727" xlink:href="#mafc54bec3c" y="630"/>
      </g>
     </g>
     <g id="text_3">
      <!-- 0.4 -->
      <defs>
       <path d="M 37.796875 64.3125 
L 12.890625 25.390625 
L 37.796875 25.390625 
z
M 35.203125 72.90625 
L 47.609375 72.90625 
L 47.609375 25.390625 
L 58.015625 25.390625 
L 58.015625 17.1875 
L 47.609375 17.1875 
L 47.609375 0 
L 37.796875 0 
L 37.796875 17.1875 
L 4.890625 17.1875 
L 4.890625 26.703125 
z
" id="DejaVuSans-52"/>
      </defs>
      <g transform="translate(310.321165 644.598438)scale(0.1 -0.1)">
       <use xlink:href="#DejaVuSans-48"/>
       <use x="63.623047" xlink:href="#DejaVuSans-46"/>
       <use x="95.410156" xlink:href="#DejaVuSans-52"/>
      </g>
     </g>
    </g>
    <g id="xtick_4">
     <g id="line2d_4">
      <g>
       <use style="stroke:#000000;stroke-width:0.8;" x="419.727273" xlink:href="#mafc54bec3c" y="630"/>
      </g>
     </g>
     <g id="text_4">
      <!-- 0.6 -->
      <defs>
       <path d="M 33.015625 40.375 
Q 26.375 40.375 22.484375 35.828125 
Q 18.609375 31.296875 18.609375 23.390625 
Q 18.609375 15.53125 22.484375 10.953125 
Q 26.375 6.390625 33.015625 6.390625 
Q 39.65625 6.390625 43.53125 10.953125 
Q 47.40625 15.53125 47.40625 23.390625 
Q 47.40625 31.296875 43.53125 35.828125 
Q 39.65625 40.375 33.015625 40.375 
z
M 52.59375 71.296875 
L 52.59375 62.3125 
Q 48.875 64.0625 45.09375 64.984375 
Q 41.3125 65.921875 37.59375 65.921875 
Q 27.828125 65.921875 22.671875 59.328125 
Q 17.53125 52.734375 16.796875 39.40625 
Q 19.671875 43.65625 24.015625 45.921875 
Q 28.375 48.1875 33.59375 48.1875 
Q 44.578125 48.1875 50.953125 41.515625 
Q 57.328125 34.859375 57.328125 23.390625 
Q 57.328125 12.15625 50.6875 5.359375 
Q 44.046875 -1.421875 33.015625 -1.421875 
Q 20.359375 -1.421875 13.671875 8.265625 
Q 6.984375 17.96875 6.984375 36.375 
Q 6.984375 53.65625 15.1875 63.9375 
Q 23.390625 74.21875 37.203125 74.21875 
Q 40.921875 74.21875 44.703125 73.484375 
Q 48.484375 72.75 52.59375 71.296875 
z
" id="DejaVuSans-54"/>
      </defs>
      <g transform="translate(411.77571 644.598438)scale(0.1 -0.1)">
       <use xlink:href="#DejaVuSans-48"/>
       <use x="63.623047" xlink:href="#DejaVuSans-46"/>
       <use x="95.410156" xlink:href="#DejaVuSans-54"/>
      </g>
     </g>
    </g>
    <g id="xtick_5">
     <g id="line2d_5">
      <g>
       <use style="stroke:#000000;stroke-width:0.8;" x="521.181818" xlink:href="#mafc54bec3c" y="630"/>
      </g>
     </g>
     <g id="text_5">
      <!-- 0.8 -->
      <defs>
       <path d="M 31.78125 34.625 
Q 24.75 34.625 20.71875 30.859375 
Q 16.703125 27.09375 16.703125 20.515625 
Q 16.703125 13.921875 20.71875 10.15625 
Q 24.75 6.390625 31.78125 6.390625 
Q 38.8125 6.390625 42.859375 10.171875 
Q 46.921875 13.96875 46.921875 20.515625 
Q 46.921875 27.09375 42.890625 30.859375 
Q 38.875 34.625 31.78125 34.625 
z
M 21.921875 38.8125 
Q 15.578125 40.375 12.03125 44.71875 
Q 8.5 49.078125 8.5 55.328125 
Q 8.5 64.0625 14.71875 69.140625 
Q 20.953125 74.21875 31.78125 74.21875 
Q 42.671875 74.21875 48.875 69.140625 
Q 55.078125 64.0625 55.078125 55.328125 
Q 55.078125 49.078125 51.53125 44.71875 
Q 48 40.375 41.703125 38.8125 
Q 48.828125 37.15625 52.796875 32.3125 
Q 56.78125 27.484375 56.78125 20.515625 
Q 56.78125 9.90625 50.3125 4.234375 
Q 43.84375 -1.421875 31.78125 -1.421875 
Q 19.734375 -1.421875 13.25 4.234375 
Q 6.78125 9.90625 6.78125 20.515625 
Q 6.78125 27.484375 10.78125 32.3125 
Q 14.796875 37.15625 21.921875 38.8125 
z
M 18.3125 54.390625 
Q 18.3125 48.734375 21.84375 45.5625 
Q 25.390625 42.390625 31.78125 42.390625 
Q 38.140625 42.390625 41.71875 45.5625 
Q 45.3125 48.734375 45.3125 54.390625 
Q 45.3125 60.0625 41.71875 63.234375 
Q 38.140625 66.40625 31.78125 66.40625 
Q 25.390625 66.40625 21.84375 63.234375 
Q 18.3125 60.0625 18.3125 54.390625 
z
" id="DejaVuSans-56"/>
      </defs>
      <g transform="translate(513.230256 644.598438)scale(0.1 -0.1)">
       <use xlink:href="#DejaVuSans-48"/>
       <use x="63.623047" xlink:href="#DejaVuSans-46"/>
       <use x="95.410156" xlink:href="#DejaVuSans-56"/>
      </g>
     </g>
    </g>
    <g id="xtick_6">
     <g id="line2d_6">
      <g>
       <use style="stroke:#000000;stroke-width:0.8;" x="622.636364" xlink:href="#mafc54bec3c" y="630"/>
      </g>
     </g>
     <g id="text_6">
      <!-- 1.0 -->
      <defs>
       <path d="M 12.40625 8.296875 
L 28.515625 8.296875 
L 28.515625 63.921875 
L 10.984375 60.40625 
L 10.984375 69.390625 
L 28.421875 72.90625 
L 38.28125 72.90625 
L 38.28125 8.296875 
L 54.390625 8.296875 
L 54.390625 0 
L 12.40625 0 
z
" id="DejaVuSans-49"/>
      </defs>
      <g transform="translate(614.684801 644.598438)scale(0.1 -0.1)">
       <use xlink:href="#DejaVuSans-49"/>
       <use x="63.623047" xlink:href="#DejaVuSans-46"/>
       <use x="95.410156" xlink:href="#DejaVuSans-48"/>
      </g>
     </g>
    </g>
    <g id="text_7">
     <!-- t -->
     <defs>
      <path d="M 18.3125 70.21875 
L 18.3125 54.6875 
L 36.8125 54.6875 
L 36.8125 47.703125 
L 18.3125 47.703125 
L 18.3125 18.015625 
Q 18.3125 11.328125 20.140625 9.421875 
Q 21.96875 7.515625 27.59375 7.515625 
L 36.8125 7.515625 
L 36.8125 0 
L 27.59375 0 
Q 17.1875 0 13.234375 3.875 
Q 9.28125 7.765625 9.28125 18.015625 
L 9.28125 47.703125 
L 2.6875 47.703125 
L 2.6875 54.6875 
L 9.28125 54.6875 
L 9.28125 70.21875 
z
" id="DejaVuSans-116"/>
     </defs>
     <g transform="translate(366.255781 661.315938)scale(0.14 -0.14)">
      <use xlink:href="#DejaVuSans-116"/>
     </g>
    </g>
   </g>
   <g id="matplotlib.axis_2">
    <g id="ytick_1">
     <g id="line2d_7">
      <defs>
       <path d="M 0 0 
L -3.5 0 
" id="mecdca94fad" style="stroke:#000000;stroke-width:0.8;"/>
      </defs>
      <g>
       <use style="stroke:#000000;stroke-width:0.8;" x="90" xlink:href="#mecdca94fad" y="575.64"/>
      </g>
     </g>
     <g id="text_8">
      <!-- −0.4 -->
      <defs>
       <path d="M 10.59375 35.5 
L 73.1875 35.5 
L 73.1875 27.203125 
L 10.59375 27.203125 
z
" id="DejaVuSans-8722"/>
      </defs>
      <g transform="translate(58.717187 579.439219)scale(0.1 -0.1)">
       <use xlink:href="#DejaVuSans-8722"/>
       <use x="83.789062" xlink:href="#DejaVuSans-48"/>
       <use x="147.412109" xlink:href="#DejaVuSans-46"/>
       <use x="179.199219" xlink:href="#DejaVuSans-52"/>
      </g>
     </g>
    </g>
    <g id="ytick_2">
     <g id="line2d_8">
      <g>
       <use style="stroke:#000000;stroke-width:0.8;" x="90" xlink:href="#mecdca94fad" y="466.92"/>
      </g>
     </g>
     <g id="text_9">
      <!-- −0.2 -->
      <g transform="translate(58.717187 470.719219)scale(0.1 -0.1)">
       <use xlink:href="#DejaVuSans-8722"/>
       <use x="83.789062" xlink:href="#DejaVuSans-48"/>
       <use x="147.412109" xlink:href="#DejaVuSans-46"/>
       <use x="179.199219" xlink:href="#DejaVuSans-50"/>
      </g>
     </g>
    </g>
    <g id="ytick_3">
     <g id="line2d_9">
      <g>
       <use style="stroke:#000000;stroke-width:0.8;" x="90" xlink:href="#mecdca94fad" y="358.2"/>
      </g>
     </g>
     <g id="text_10">
      <!-- 0.0 -->
      <g transform="translate(67.096875 361.999219)scale(0.1 -0.1)">
       <use xlink:href="#DejaVuSans-48"/>
       <use x="63.623047" xlink:href="#DejaVuSans-46"/>
       <use x="95.410156" xlink:href="#DejaVuSans-48"/>
      </g>
     </g>
    </g>
    <g id="ytick_4">
     <g id="line2d_10">
      <g>
       <use style="stroke:#000000;stroke-width:0.8;" x="90" xlink:href="#mecdca94fad" y="249.48"/>
      </g>
     </g>
     <g id="text_11">
      <!-- 0.2 -->
      <g transform="translate(67.096875 253.279219)scale(0.1 -0.1)">
       <use xlink:href="#DejaVuSans-48"/>
       <use x="63.623047" xlink:href="#DejaVuSans-46"/>
       <use x="95.410156" xlink:href="#DejaVuSans-50"/>
      </g>
     </g>
    </g>
    <g id="ytick_5">
     <g id="line2d_11">
      <g>
       <use style="stroke:#000000;stroke-width:0.8;" x="90" xlink:href="#mecdca94fad" y="140.76"/>
      </g>
     </g>
     <g id="text_12">
      <!-- 0.4 -->
      <g transform="translate(67.096875 144.559219)scale(0.1 -0.1)">
       <use xlink:href="#DejaVuSans-48"/>
       <use x="63.623047" xlink:href="#DejaVuSans-46"/>
       <use x="95.410156" xlink:href="#DejaVuSans-52"/>
      </g>
     </g>
    </g>
    <g id="text_13">
     <!-- $C_{12}(\rho)$ (Imaginary part)) -->
     <defs>
      <path d="M 69.484375 67.28125 
L 67.484375 56.890625 
Q 62.796875 61.625 57.546875 63.921875 
Q 52.296875 66.21875 46.1875 66.21875 
Q 37.84375 66.21875 31.515625 62.203125 
Q 25.203125 58.203125 20.609375 50 
Q 17.671875 44.734375 16.125 38.84375 
Q 14.59375 32.953125 14.59375 27 
Q 14.59375 17.046875 19.75 11.8125 
Q 24.90625 6.59375 34.71875 6.59375 
Q 41.5 6.59375 47.75 8.765625 
Q 54 10.9375 59.90625 15.28125 
L 57.625 3.609375 
Q 51.8125 1.125 45.875 -0.140625 
Q 39.9375 -1.421875 33.984375 -1.421875 
Q 19.96875 -1.421875 12.078125 6.1875 
Q 4.203125 13.8125 4.203125 27.390625 
Q 4.203125 36.078125 7.203125 44.46875 
Q 10.203125 52.875 15.828125 59.8125 
Q 21.78125 67.1875 29.421875 70.703125 
Q 37.0625 74.21875 47.21875 74.21875 
Q 53.46875 74.21875 59.0625 72.484375 
Q 64.65625 70.75 69.484375 67.28125 
z
" id="DejaVuSans-Oblique-67"/>
      <path d="M 31 75.875 
Q 24.46875 64.65625 21.28125 53.65625 
Q 18.109375 42.671875 18.109375 31.390625 
Q 18.109375 20.125 21.3125 9.0625 
Q 24.515625 -2 31 -13.1875 
L 23.1875 -13.1875 
Q 15.875 -1.703125 12.234375 9.375 
Q 8.59375 20.453125 8.59375 31.390625 
Q 8.59375 42.28125 12.203125 53.3125 
Q 15.828125 64.359375 23.1875 75.875 
z
" id="DejaVuSans-40"/>
      <path d="M 18.796875 44.921875 
Q 22.703125 49.90625 30.953125 54.296875 
Q 34.1875 56 43.0625 56 
Q 53.03125 56 57.71875 48.09375 
Q 62.40625 40.1875 59.90625 27.296875 
Q 57.375 14.40625 49.609375 6.484375 
Q 41.84375 -1.421875 31.890625 -1.421875 
Q 25.875 -1.421875 22.015625 0.984375 
Q 18.171875 3.328125 16.3125 8.203125 
L 10.640625 -20.796875 
L 1.609375 -20.796875 
L 10.890625 26.8125 
Q 13.09375 38.09375 18.796875 44.921875 
z
M 50.59375 27.296875 
Q 52.484375 37.203125 49.515625 42.875 
Q 46.53125 48.484375 39.40625 48.484375 
Q 32.28125 48.484375 27.09375 42.875 
Q 21.921875 37.203125 20.015625 27.296875 
Q 18.0625 17.390625 21.046875 11.71875 
Q 24.03125 6.109375 31.15625 6.109375 
Q 38.28125 6.109375 43.453125 11.71875 
Q 48.640625 17.390625 50.59375 27.296875 
z
" id="DejaVuSans-Oblique-961"/>
      <path d="M 8.015625 75.875 
L 15.828125 75.875 
Q 23.140625 64.359375 26.78125 53.3125 
Q 30.421875 42.28125 30.421875 31.390625 
Q 30.421875 20.453125 26.78125 9.375 
Q 23.140625 -1.703125 15.828125 -13.1875 
L 8.015625 -13.1875 
Q 14.5 -2 17.703125 9.0625 
Q 20.90625 20.125 20.90625 31.390625 
Q 20.90625 42.671875 17.703125 53.65625 
Q 14.5 64.65625 8.015625 75.875 
z
" id="DejaVuSans-41"/>
      <path id="DejaVuSans-32"/>
      <path d="M 9.8125 72.90625 
L 19.671875 72.90625 
L 19.671875 0 
L 9.8125 0 
z
" id="DejaVuSans-73"/>
      <path d="M 52 44.1875 
Q 55.375 50.25 60.0625 53.125 
Q 64.75 56 71.09375 56 
Q 79.640625 56 84.28125 50.015625 
Q 88.921875 44.046875 88.921875 33.015625 
L 88.921875 0 
L 79.890625 0 
L 79.890625 32.71875 
Q 79.890625 40.578125 77.09375 44.375 
Q 74.3125 48.1875 68.609375 48.1875 
Q 61.625 48.1875 57.5625 43.546875 
Q 53.515625 38.921875 53.515625 30.90625 
L 53.515625 0 
L 44.484375 0 
L 44.484375 32.71875 
Q 44.484375 40.625 41.703125 44.40625 
Q 38.921875 48.1875 33.109375 48.1875 
Q 26.21875 48.1875 22.15625 43.53125 
Q 18.109375 38.875 18.109375 30.90625 
L 18.109375 0 
L 9.078125 0 
L 9.078125 54.6875 
L 18.109375 54.6875 
L 18.109375 46.1875 
Q 21.1875 51.21875 25.484375 53.609375 
Q 29.78125 56 35.6875 56 
Q 41.65625 56 45.828125 52.96875 
Q 50 49.953125 52 44.1875 
z
" id="DejaVuSans-109"/>
      <path d="M 34.28125 27.484375 
Q 23.390625 27.484375 19.1875 25 
Q 14.984375 22.515625 14.984375 16.5 
Q 14.984375 11.71875 18.140625 8.90625 
Q 21.296875 6.109375 26.703125 6.109375 
Q 34.1875 6.109375 38.703125 11.40625 
Q 43.21875 16.703125 43.21875 25.484375 
L 43.21875 27.484375 
z
M 52.203125 31.203125 
L 52.203125 0 
L 43.21875 0 
L 43.21875 8.296875 
Q 40.140625 3.328125 35.546875 0.953125 
Q 30.953125 -1.421875 24.3125 -1.421875 
Q 15.921875 -1.421875 10.953125 3.296875 
Q 6 8.015625 6 15.921875 
Q 6 25.140625 12.171875 29.828125 
Q 18.359375 34.515625 30.609375 34.515625 
L 43.21875 34.515625 
L 43.21875 35.40625 
Q 43.21875 41.609375 39.140625 45 
Q 35.0625 48.390625 27.6875 48.390625 
Q 23 48.390625 18.546875 47.265625 
Q 14.109375 46.140625 10.015625 43.890625 
L 10.015625 52.203125 
Q 14.9375 54.109375 19.578125 55.046875 
Q 24.21875 56 28.609375 56 
Q 40.484375 56 46.34375 49.84375 
Q 52.203125 43.703125 52.203125 31.203125 
z
" id="DejaVuSans-97"/>
      <path d="M 45.40625 27.984375 
Q 45.40625 37.75 41.375 43.109375 
Q 37.359375 48.484375 30.078125 48.484375 
Q 22.859375 48.484375 18.828125 43.109375 
Q 14.796875 37.75 14.796875 27.984375 
Q 14.796875 18.265625 18.828125 12.890625 
Q 22.859375 7.515625 30.078125 7.515625 
Q 37.359375 7.515625 41.375 12.890625 
Q 45.40625 18.265625 45.40625 27.984375 
z
M 54.390625 6.78125 
Q 54.390625 -7.171875 48.1875 -13.984375 
Q 42 -20.796875 29.203125 -20.796875 
Q 24.46875 -20.796875 20.265625 -20.09375 
Q 16.0625 -19.390625 12.109375 -17.921875 
L 12.109375 -9.1875 
Q 16.0625 -11.328125 19.921875 -12.34375 
Q 23.78125 -13.375 27.78125 -13.375 
Q 36.625 -13.375 41.015625 -8.765625 
Q 45.40625 -4.15625 45.40625 5.171875 
L 45.40625 9.625 
Q 42.625 4.78125 38.28125 2.390625 
Q 33.9375 0 27.875 0 
Q 17.828125 0 11.671875 7.65625 
Q 5.515625 15.328125 5.515625 27.984375 
Q 5.515625 40.671875 11.671875 48.328125 
Q 17.828125 56 27.875 56 
Q 33.9375 56 38.28125 53.609375 
Q 42.625 51.21875 45.40625 46.390625 
L 45.40625 54.6875 
L 54.390625 54.6875 
z
" id="DejaVuSans-103"/>
      <path d="M 9.421875 54.6875 
L 18.40625 54.6875 
L 18.40625 0 
L 9.421875 0 
z
M 9.421875 75.984375 
L 18.40625 75.984375 
L 18.40625 64.59375 
L 9.421875 64.59375 
z
" id="DejaVuSans-105"/>
      <path d="M 54.890625 33.015625 
L 54.890625 0 
L 45.90625 0 
L 45.90625 32.71875 
Q 45.90625 40.484375 42.875 44.328125 
Q 39.84375 48.1875 33.796875 48.1875 
Q 26.515625 48.1875 22.3125 43.546875 
Q 18.109375 38.921875 18.109375 30.90625 
L 18.109375 0 
L 9.078125 0 
L 9.078125 54.6875 
L 18.109375 54.6875 
L 18.109375 46.1875 
Q 21.34375 51.125 25.703125 53.5625 
Q 30.078125 56 35.796875 56 
Q 45.21875 56 50.046875 50.171875 
Q 54.890625 44.34375 54.890625 33.015625 
z
" id="DejaVuSans-110"/>
      <path d="M 41.109375 46.296875 
Q 39.59375 47.171875 37.8125 47.578125 
Q 36.03125 48 33.890625 48 
Q 26.265625 48 22.1875 43.046875 
Q 18.109375 38.09375 18.109375 28.8125 
L 18.109375 0 
L 9.078125 0 
L 9.078125 54.6875 
L 18.109375 54.6875 
L 18.109375 46.1875 
Q 20.953125 51.171875 25.484375 53.578125 
Q 30.03125 56 36.53125 56 
Q 37.453125 56 38.578125 55.875 
Q 39.703125 55.765625 41.0625 55.515625 
z
" id="DejaVuSans-114"/>
      <path d="M 32.171875 -5.078125 
Q 28.375 -14.84375 24.75 -17.8125 
Q 21.140625 -20.796875 15.09375 -20.796875 
L 7.90625 -20.796875 
L 7.90625 -13.28125 
L 13.1875 -13.28125 
Q 16.890625 -13.28125 18.9375 -11.515625 
Q 21 -9.765625 23.484375 -3.21875 
L 25.09375 0.875 
L 2.984375 54.6875 
L 12.5 54.6875 
L 29.59375 11.921875 
L 46.6875 54.6875 
L 56.203125 54.6875 
z
" id="DejaVuSans-121"/>
      <path d="M 18.109375 8.203125 
L 18.109375 -20.796875 
L 9.078125 -20.796875 
L 9.078125 54.6875 
L 18.109375 54.6875 
L 18.109375 46.390625 
Q 20.953125 51.265625 25.265625 53.625 
Q 29.59375 56 35.59375 56 
Q 45.5625 56 51.78125 48.09375 
Q 58.015625 40.1875 58.015625 27.296875 
Q 58.015625 14.40625 51.78125 6.484375 
Q 45.5625 -1.421875 35.59375 -1.421875 
Q 29.59375 -1.421875 25.265625 0.953125 
Q 20.953125 3.328125 18.109375 8.203125 
z
M 48.6875 27.296875 
Q 48.6875 37.203125 44.609375 42.84375 
Q 40.53125 48.484375 33.40625 48.484375 
Q 26.265625 48.484375 22.1875 42.84375 
Q 18.109375 37.203125 18.109375 27.296875 
Q 18.109375 17.390625 22.1875 11.75 
Q 26.265625 6.109375 33.40625 6.109375 
Q 40.53125 6.109375 44.609375 11.75 
Q 48.6875 17.390625 48.6875 27.296875 
z
" id="DejaVuSans-112"/>
     </defs>
     <g transform="translate(51.777187 441.78)rotate(-90)scale(0.14 -0.14)">
      <use transform="translate(0 0.015625)" xlink:href="#DejaVuSans-Oblique-67"/>
      <use transform="translate(69.824219 -16.390625)scale(0.7)" xlink:href="#DejaVuSans-49"/>
      <use transform="translate(114.360352 -16.390625)scale(0.7)" xlink:href="#DejaVuSans-50"/>
      <use transform="translate(161.630859 0.015625)" xlink:href="#DejaVuSans-40"/>
      <use transform="translate(200.644531 0.015625)" xlink:href="#DejaVuSans-Oblique-961"/>
      <use transform="translate(264.121094 0.015625)" xlink:href="#DejaVuSans-41"/>
      <use transform="translate(303.134766 0.015625)" xlink:href="#DejaVuSans-32"/>
      <use transform="translate(334.921875 0.015625)" xlink:href="#DejaVuSans-40"/>
      <use transform="translate(373.935547 0.015625)" xlink:href="#DejaVuSans-73"/>
      <use transform="translate(403.380859 0.015625)" xlink:href="#DejaVuSans-109"/>
      <use transform="translate(500.792969 0.015625)" xlink:href="#DejaVuSans-97"/>
      <use transform="translate(562.072266 0.015625)" xlink:href="#DejaVuSans-103"/>
      <use transform="translate(625.548828 0.015625)" xlink:href="#DejaVuSans-105"/>
      <use transform="translate(653.332031 0.015625)" xlink:href="#DejaVuSans-110"/>
      <use transform="translate(716.710938 0.015625)" xlink:href="#DejaVuSans-97"/>
      <use transform="translate(777.990234 0.015625)" xlink:href="#DejaVuSans-114"/>
      <use transform="translate(819.103516 0.015625)" xlink:href="#DejaVuSans-121"/>
      <use transform="translate(878.283203 0.015625)" xlink:href="#DejaVuSans-32"/>
      <use transform="translate(910.070312 0.015625)" xlink:href="#DejaVuSans-112"/>
      <use transform="translate(973.546875 0.015625)" xlink:href="#DejaVuSans-97"/>
      <use transform="translate(1034.826172 0.015625)" xlink:href="#DejaVuSans-114"/>
      <use transform="translate(1075.939453 0.015625)" xlink:href="#DejaVuSans-116"/>
      <use transform="translate(1115.148438 0.015625)" xlink:href="#DejaVuSans-41"/>
      <use transform="translate(1154.162109 0.015625)" xlink:href="#DejaVuSans-41"/>
     </g>
    </g>
   </g>
   <g id="line2d_12">
    <path clip-path="url(#p7d99369bb1)" d="M 115.363636 358.2 
L 122.465455 283.086535 
L 126.523636 242.429654 
L 129.567273 213.823592 
L 132.610909 187.294056 
L 135.147273 167.048654 
L 137.683636 148.713173 
L 139.712727 135.543732 
L 141.741818 123.798531 
L 143.770909 113.5527 
L 145.292727 106.892086 
L 146.814545 101.135909 
L 148.336364 96.304885 
L 149.858182 92.416401 
L 150.872727 90.354763 
L 151.887273 88.721621 
L 152.901818 87.519587 
L 153.916364 86.750583 
L 154.930909 86.41584 
L 155.945455 86.515895 
L 156.96 87.050586 
L 157.974545 88.019058 
L 158.989091 89.419762 
L 160.003636 91.250456 
L 161.018182 93.508214 
L 162.032727 96.189421 
L 163.554545 100.995636 
L 165.076364 106.727508 
L 166.598182 113.36441 
L 168.12 120.882456 
L 170.149091 132.229975 
L 172.178182 145.022931 
L 174.207273 159.179493 
L 176.743636 178.654029 
L 179.28 199.922529 
L 182.323636 227.512412 
L 185.874545 262.04685 
L 189.932727 303.777489 
L 198.049091 390.307965 
L 203.629091 448.433573 
L 207.18 483.327454 
L 210.223636 511.312355 
L 213.267273 537.095082 
L 215.803636 556.629861 
L 217.832727 570.838899 
L 219.861818 583.687773 
L 221.890909 595.094294 
L 223.92 604.985501 
L 225.441818 611.371043 
L 226.963636 616.845443 
L 228.485455 621.388999 
L 229.5 623.892686 
L 230.514545 625.971321 
L 231.529091 627.621579 
L 232.543636 628.84082 
L 233.558182 629.627093 
L 234.572727 629.979141 
L 235.587273 629.896401 
L 236.601818 629.379004 
L 237.616364 628.427778 
L 238.630909 627.044246 
L 239.645455 625.23062 
L 240.66 622.989803 
L 241.674545 620.325378 
L 243.196364 615.543985 
L 244.718182 609.836431 
L 246.24 603.223258 
L 247.761818 595.728266 
L 249.790909 584.410292 
L 251.82 571.645343 
L 253.849091 557.515073 
L 256.385455 538.070733 
L 258.921818 516.829185 
L 261.965455 489.266982 
L 265.516364 454.75792 
L 269.574545 413.04656 
L 277.690909 326.521928 
L 283.270909 268.374874 
L 286.821818 233.456988 
L 289.865455 205.445503 
L 292.909091 179.631044 
L 295.445455 160.066217 
L 297.474545 145.830996 
L 299.503636 132.954212 
L 301.532727 121.518232 
L 303.561818 111.596209 
L 305.083636 105.186779 
L 306.605455 99.687924 
L 308.127273 95.119434 
L 309.141818 92.598902 
L 310.156364 90.503274 
L 311.170909 88.835905 
L 312.185455 87.59946 
L 313.2 86.795919 
L 314.214545 86.426566 
L 315.229091 86.491993 
L 316.243636 86.992095 
L 317.258182 87.926071 
L 318.272727 89.292428 
L 319.287273 91.08898 
L 320.301818 93.312852 
L 321.316364 95.960488 
L 322.838182 100.717047 
L 324.36 106.400267 
L 325.881818 112.989694 
L 327.403636 120.461614 
L 329.432727 131.750015 
L 331.461818 144.486924 
L 333.490909 158.590867 
L 336.027273 178.004961 
L 338.563636 199.219504 
L 341.607273 226.753955 
L 345.158182 261.237556 
L 349.216364 302.929531 
L 356.825455 384.042252 
L 362.405455 442.465492 
L 366.463636 482.558253 
L 369.507273 510.596252 
L 372.550909 536.442377 
L 375.087273 556.037203 
L 377.116364 570.298571 
L 379.145455 583.203232 
L 381.174545 594.668641 
L 383.203636 604.621457 
L 384.725455 611.054756 
L 386.247273 616.578052 
L 387.769091 621.171466 
L 388.783636 623.708838 
L 389.798182 625.821452 
L 390.812727 627.505928 
L 391.827273 628.759573 
L 392.841818 629.58038 
L 393.856364 629.967037 
L 394.870909 629.918924 
L 395.885455 629.436119 
L 396.9 628.519394 
L 397.914545 627.170215 
L 398.929091 625.390742 
L 399.943636 623.18382 
L 400.958182 620.552981 
L 402.48 615.821268 
L 404.001818 610.162395 
L 405.523636 603.596731 
L 407.045455 596.147903 
L 409.074545 584.889103 
L 411.103636 572.180267 
L 413.132727 558.102687 
L 415.669091 538.718888 
L 418.205455 517.531403 
L 421.249091 490.024774 
L 424.8 455.566723 
L 428.858182 413.894239 
L 436.467273 332.788703 
L 442.047273 274.34617 
L 446.105455 234.226822 
L 449.149091 206.16238 
L 452.192727 180.284654 
L 454.729091 160.65988 
L 456.758182 146.3724 
L 458.787273 133.439894 
L 460.816364 121.945086 
L 462.845455 111.961503 
L 464.367273 105.504349 
L 465.889091 99.956626 
L 467.410909 95.338301 
L 468.425455 92.784097 
L 469.44 90.654501 
L 470.454545 88.952921 
L 471.469091 87.68208 
L 472.483636 86.844009 
L 473.498182 86.440049 
L 474.512727 86.470848 
L 475.527273 86.936356 
L 476.541818 87.835827 
L 477.556364 89.167823 
L 478.570909 90.930214 
L 479.585455 93.120179 
L 480.6 95.734215 
L 482.121818 100.441071 
L 483.643636 106.075581 
L 485.165455 112.617466 
L 486.687273 120.043184 
L 488.716364 131.272353 
L 490.745455 143.953085 
L 492.774545 158.004266 
L 495.310909 177.357721 
L 497.847273 198.518093 
L 500.890909 225.996832 
L 504.441818 260.429245 
L 508.5 302.082133 
L 516.109091 383.180276 
L 521.689091 441.641956 
L 525.747273 481.787789 
L 528.790909 509.878602 
L 531.834545 535.787863 
L 534.370909 555.442536 
L 536.907273 573.126427 
L 538.936364 585.735132 
L 540.965455 596.888388 
L 542.487273 604.254912 
L 544.009091 610.735904 
L 545.530909 616.30804 
L 547.052727 620.951265 
L 548.067273 623.522296 
L 549.081818 625.668867 
L 550.096364 627.387546 
L 551.110909 628.675581 
L 552.125455 629.530914 
L 553.14 629.952175 
L 554.154545 629.93869 
L 555.169091 629.490482 
L 556.183636 628.608267 
L 557.198182 627.293456 
L 558.212727 625.548153 
L 559.227273 623.37515 
L 560.241818 620.777923 
L 561.763636 616.095936 
L 563.285455 610.485803 
L 564.807273 603.967713 
L 566.329091 596.565125 
L 568.358182 585.365615 
L 570.387273 572.71302 
L 572.416364 558.688273 
L 574.952727 539.365211 
L 577.489091 518.232005 
L 580.532727 490.781228 
L 584.083636 456.374539 
L 588.141818 414.741353 
L 595.750909 333.650808 
L 601.330909 275.17013 
L 605.389091 234.997913 
L 608.432727 206.8808 
L 611.476364 180.940069 
L 614.012727 161.255548 
L 616.549091 143.53883 
L 618.578182 130.901938 
L 620.607273 119.718979 
L 622.129091 112.329296 
L 622.636364 110.061484 
L 622.636364 110.061484 
" style="fill:none;stroke:#000000;stroke-linecap:square;stroke-width:1.5;"/>
   </g>
   <g id="line2d_13">
    <defs>
     <path d="M 0 3 
C 0.795609 3 1.55874 2.683901 2.12132 2.12132 
C 2.683901 1.55874 3 0.795609 3 0 
C 3 -0.795609 2.683901 -1.55874 2.12132 -2.12132 
C 1.55874 -2.683901 0.795609 -3 0 -3 
C -0.795609 -3 -1.55874 -2.683901 -2.12132 -2.12132 
C -2.683901 -1.55874 -3 -0.795609 -3 0 
C -3 0.795609 -2.683901 1.55874 -2.12132 2.12132 
C -1.55874 2.683901 -0.795609 3 0 3 
z
" id="m41d4c91895" style="stroke:#000000;"/>
    </defs>
    <g clip-path="url(#p7d99369bb1)">
     <use style="stroke:#000000;" x="115.363636" xlink:href="#m41d4c91895" y="358.2"/>
     <use style="stroke:#000000;" x="120.436364" xlink:href="#m41d4c91895" y="304.201676"/>
     <use style="stroke:#000000;" x="125.509091" xlink:href="#m41d4c91895" y="252.356095"/>
     <use style="stroke:#000000;" x="130.581818" xlink:href="#m41d4c91895" y="204.730176"/>
     <use style="stroke:#000000;" x="135.654545" xlink:href="#m41d4c91895" y="163.222614"/>
     <use style="stroke:#000000;" x="140.727273" xlink:href="#m41d4c91895" y="129.488186"/>
     <use style="stroke:#000000;" x="145.8" xlink:href="#m41d4c91895" y="104.871776"/>
     <use style="stroke:#000000;" x="150.872727" xlink:href="#m41d4c91895" y="90.354763"/>
     <use style="stroke:#000000;" x="155.945455" xlink:href="#m41d4c91895" y="86.515895"/>
     <use style="stroke:#000000;" x="161.018182" xlink:href="#m41d4c91895" y="93.508214"/>
     <use style="stroke:#000000;" x="166.090909" xlink:href="#m41d4c91895" y="111.052959"/>
     <use style="stroke:#000000;" x="171.163636" xlink:href="#m41d4c91895" y="138.450677"/>
     <use style="stroke:#000000;" x="176.236364" xlink:href="#m41d4c91895" y="174.609108"/>
     <use style="stroke:#000000;" x="181.309091" xlink:href="#m41d4c91895" y="218.086727"/>
     <use style="stroke:#000000;" x="186.381818" xlink:href="#m41d4c91895" y="267.150221"/>
     <use style="stroke:#000000;" x="191.454545" xlink:href="#m41d4c91895" y="319.843582"/>
     <use style="stroke:#000000;" x="196.527273" xlink:href="#m41d4c91895" y="374.066092"/>
     <use style="stroke:#000000;" x="201.6" xlink:href="#m41d4c91895" y="427.656072"/>
     <use style="stroke:#000000;" x="206.672727" xlink:href="#m41d4c91895" y="478.477056"/>
     <use style="stroke:#000000;" x="211.745455" xlink:href="#m41d4c91895" y="524.502975"/>
     <use style="stroke:#000000;" x="216.818182" xlink:href="#m41d4c91895" y="563.898918"/>
     <use style="stroke:#000000;" x="221.890909" xlink:href="#m41d4c91895" y="595.094295"/>
     <use style="stroke:#000000;" x="226.963636" xlink:href="#m41d4c91895" y="616.845444"/>
     <use style="stroke:#000000;" x="232.036364" xlink:href="#m41d4c91895" y="628.285215"/>
     <use style="stroke:#000000;" x="237.109091" xlink:href="#m41d4c91895" y="628.957541"/>
     <use style="stroke:#000000;" x="242.181818" xlink:href="#m41d4c91895" y="618.835618"/>
     <use style="stroke:#000000;" x="247.254545" xlink:href="#m41d4c91895" y="598.322975"/>
     <use style="stroke:#000000;" x="252.327273" xlink:href="#m41d4c91895" y="568.237388"/>
     <use style="stroke:#000000;" x="257.4" xlink:href="#m41d4c91895" y="529.778272"/>
     <use style="stroke:#000000;" x="262.472727" xlink:href="#m41d4c91895" y="484.478872"/>
     <use style="stroke:#000000;" x="267.545455" xlink:href="#m41d4c91895" y="434.145132"/>
     <use style="stroke:#000000;" x="272.618182" xlink:href="#m41d4c91895" y="380.7837"/>
     <use style="stroke:#000000;" x="277.690909" xlink:href="#m41d4c91895" y="326.521926"/>
     <use style="stroke:#000000;" x="282.763636" xlink:href="#m41d4c91895" y="273.523057"/>
     <use style="stroke:#000000;" x="287.836364" xlink:href="#m41d4c91895" y="223.899991"/>
     <use style="stroke:#000000;" x="292.909091" xlink:href="#m41d4c91895" y="179.631042"/>
     <use style="stroke:#000000;" x="297.981818" xlink:href="#m41d4c91895" y="142.481075"/>
     <use style="stroke:#000000;" x="303.054545" xlink:href="#m41d4c91895" y="113.93114"/>
     <use style="stroke:#000000;" x="308.127273" xlink:href="#m41d4c91895" y="95.119433"/>
     <use style="stroke:#000000;" x="313.2" xlink:href="#m41d4c91895" y="86.795919"/>
     <use style="stroke:#000000;" x="318.272727" xlink:href="#m41d4c91895" y="89.292429"/>
     <use style="stroke:#000000;" x="323.345455" xlink:href="#m41d4c91895" y="102.509435"/>
     <use style="stroke:#000000;" x="328.418182" xlink:href="#m41d4c91895" y="125.920017"/>
     <use style="stroke:#000000;" x="333.490909" xlink:href="#m41d4c91895" y="158.590869"/>
     <use style="stroke:#000000;" x="338.563636" xlink:href="#m41d4c91895" y="199.219507"/>
     <use style="stroke:#000000;" x="343.636364" xlink:href="#m41d4c91895" y="246.186196"/>
     <use style="stroke:#000000;" x="348.709091" xlink:href="#m41d4c91895" y="297.618521"/>
     <use style="stroke:#000000;" x="353.781818" xlink:href="#m41d4c91895" y="351.466039"/>
     <use style="stroke:#000000;" x="358.854545" xlink:href="#m41d4c91895" y="405.582019"/>
     <use style="stroke:#000000;" x="363.927273" xlink:href="#m41d4c91895" y="457.809027"/>
     <use style="stroke:#000000;" x="369" xlink:href="#m41d4c91895" y="506.064938"/>
     <use style="stroke:#000000;" x="374.072727" xlink:href="#m41d4c91895" y="548.42594"/>
     <use style="stroke:#000000;" x="379.145455" xlink:href="#m41d4c91895" y="583.203234"/>
     <use style="stroke:#000000;" x="384.218182" xlink:href="#m41d4c91895" y="609.01036"/>
     <use style="stroke:#000000;" x="389.290909" xlink:href="#m41d4c91895" y="624.818467"/>
     <use style="stroke:#000000;" x="394.363636" xlink:href="#m41d4c91895" y="629.997338"/>
     <use style="stroke:#000000;" x="399.436364" xlink:href="#m41d4c91895" y="624.340507"/>
     <use style="stroke:#000000;" x="404.509091" xlink:href="#m41d4c91895" y="608.073493"/>
     <use style="stroke:#000000;" x="409.581818" xlink:href="#m41d4c91895" y="581.844812"/>
     <use style="stroke:#000000;" x="414.654545" xlink:href="#m41d4c91895" y="546.700118"/>
     <use style="stroke:#000000;" x="419.727273" xlink:href="#m41d4c91895" y="504.040519"/>
     <use style="stroke:#000000;" x="424.8" xlink:href="#m41d4c91895" y="455.566719"/>
     <use style="stroke:#000000;" x="429.872727" xlink:href="#m41d4c91895" y="403.211215"/>
     <use style="stroke:#000000;" x="434.945455" xlink:href="#m41d4c91895" y="349.061256"/>
     <use style="stroke:#000000;" x="440.018182" xlink:href="#m41d4c91895" y="295.27563"/>
     <use style="stroke:#000000;" x="445.090909" xlink:href="#m41d4c91895" y="243.998599"/>
     <use style="stroke:#000000;" x="450.163636" xlink:href="#m41d4c91895" y="197.274419"/>
     <use style="stroke:#000000;" x="455.236364" xlink:href="#m41d4c91895" y="156.965833"/>
     <use style="stroke:#000000;" x="460.309091" xlink:href="#m41d4c91895" y="124.679819"/>
     <use style="stroke:#000000;" x="465.381818" xlink:href="#m41d4c91895" y="101.703517"/>
     <use style="stroke:#000000;" x="470.454545" xlink:href="#m41d4c91895" y="88.952921"/>
     <use style="stroke:#000000;" x="475.527273" xlink:href="#m41d4c91895" y="86.936356"/>
     <use style="stroke:#000000;" x="480.6" xlink:href="#m41d4c91895" y="95.734216"/>
     <use style="stroke:#000000;" x="485.672727" xlink:href="#m41d4c91895" y="114.995759"/>
     <use style="stroke:#000000;" x="490.745455" xlink:href="#m41d4c91895" y="143.953088"/>
     <use style="stroke:#000000;" x="495.818182" xlink:href="#m41d4c91895" y="181.451765"/>
     <use style="stroke:#000000;" x="500.890909" xlink:href="#m41d4c91895" y="225.996836"/>
     <use style="stroke:#000000;" x="505.963636" xlink:href="#m41d4c91895" y="275.812431"/>
     <use style="stroke:#000000;" x="511.036364" xlink:href="#m41d4c91895" y="328.912557"/>
     <use style="stroke:#000000;" x="516.109091" xlink:href="#m41d4c91895" y="383.180282"/>
     <use style="stroke:#000000;" x="521.181818" xlink:href="#m41d4c91895" y="436.452121"/>
     <use style="stroke:#000000;" x="526.254545" xlink:href="#m41d4c91895" y="486.604296"/>
     <use style="stroke:#000000;" x="531.327273" xlink:href="#m41d4c91895" y="531.637396"/>
     <use style="stroke:#000000;" x="536.4" xlink:href="#m41d4c91895" y="569.756095"/>
     <use style="stroke:#000000;" x="541.472727" xlink:href="#m41d4c91895" y="599.44072"/>
     <use style="stroke:#000000;" x="546.545455" xlink:href="#m41d4c91895" y="619.507838"/>
     <use style="stroke:#000000;" x="551.618182" xlink:href="#m41d4c91895" y="629.157438"/>
     <use style="stroke:#000000;" x="556.690909" xlink:href="#m41d4c91895" y="628.00482"/>
     <use style="stroke:#000000;" x="561.763636" xlink:href="#m41d4c91895" y="616.095935"/>
     <use style="stroke:#000000;" x="566.836364" xlink:href="#m41d4c91895" y="593.905552"/>
     <use style="stroke:#000000;" x="571.909091" xlink:href="#m41d4c91895" y="562.318334"/>
     <use style="stroke:#000000;" x="576.981818" xlink:href="#m41d4c91895" y="522.593561"/>
     <use style="stroke:#000000;" x="582.054545" xlink:href="#m41d4c91895" y="476.314936"/>
     <use style="stroke:#000000;" x="587.127273" xlink:href="#m41d4c91895" y="425.327441"/>
     <use style="stroke:#000000;" x="592.2" xlink:href="#m41d4c91895" y="371.663787"/>
     <use style="stroke:#000000;" x="597.272727" xlink:href="#m41d4c91895" y="317.463374"/>
     <use style="stroke:#000000;" x="602.345455" xlink:href="#m41d4c91895" y="264.887002"/>
     <use style="stroke:#000000;" x="607.418182" xlink:href="#m41d4c91895" y="216.030725"/>
     <use style="stroke:#000000;" x="612.490909" xlink:href="#m41d4c91895" y="172.842288"/>
     <use style="stroke:#000000;" x="617.563636" xlink:href="#m41d4c91895" y="137.043478"/>
     <use style="stroke:#000000;" x="622.636364" xlink:href="#m41d4c91895" y="110.061481"/>
    </g>
   </g>
   <g id="patch_3">
    <path d="M 90 630 
L 90 86.4 
" style="fill:none;stroke:#000000;stroke-linecap:square;stroke-linejoin:miter;stroke-width:0.8;"/>
   </g>
   <g id="patch_4">
    <path d="M 648 630 
L 648 86.4 
" style="fill:none;stroke:#000000;stroke-linecap:square;stroke-linejoin:miter;stroke-width:0.8;"/>
   </g>
   <g id="patch_5">
    <path d="M 90 630 
L 648 630 
" style="fill:none;stroke:#000000;stroke-linecap:square;stroke-linejoin:miter;stroke-width:0.8;"/>
   </g>
   <g id="patch_6">
    <path d="M 90 86.4 
L 648 86.4 
" style="fill:none;stroke:#000000;stroke-linecap:square;stroke-linejoin:miter;stroke-width:0.8;"/>
   </g>
   <g id="legend_1">
    <g id="patch_7">
     <path d="M 99.8 623 
L 211.174375 623 
Q 213.974375 623 213.974375 620.2 
L 213.974375 580.50125 
Q 213.974375 577.70125 211.174375 577.70125 
L 99.8 577.70125 
Q 97 577.70125 97 580.50125 
L 97 620.2 
Q 97 623 99.8 623 
z
" style="fill:#ffffff;opacity:0.8;stroke:#cccccc;stroke-linejoin:miter;"/>
    </g>
    <g id="line2d_14">
     <path d="M 102.6 589.039062 
L 130.6 589.039062 
" style="fill:none;stroke:#000000;stroke-linecap:square;stroke-width:1.5;"/>
    </g>
    <g id="line2d_15"/>
    <g id="text_14">
     <!-- RK4 -->
     <defs>
      <path d="M 44.390625 34.1875 
Q 47.5625 33.109375 50.5625 29.59375 
Q 53.5625 26.078125 56.59375 19.921875 
L 66.609375 0 
L 56 0 
L 46.6875 18.703125 
Q 43.0625 26.03125 39.671875 28.421875 
Q 36.28125 30.8125 30.421875 30.8125 
L 19.671875 30.8125 
L 19.671875 0 
L 9.8125 0 
L 9.8125 72.90625 
L 32.078125 72.90625 
Q 44.578125 72.90625 50.734375 67.671875 
Q 56.890625 62.453125 56.890625 51.90625 
Q 56.890625 45.015625 53.6875 40.46875 
Q 50.484375 35.9375 44.390625 34.1875 
z
M 19.671875 64.796875 
L 19.671875 38.921875 
L 32.078125 38.921875 
Q 39.203125 38.921875 42.84375 42.21875 
Q 46.484375 45.515625 46.484375 51.90625 
Q 46.484375 58.296875 42.84375 61.546875 
Q 39.203125 64.796875 32.078125 64.796875 
z
" id="DejaVuSans-82"/>
      <path d="M 9.8125 72.90625 
L 19.671875 72.90625 
L 19.671875 42.09375 
L 52.390625 72.90625 
L 65.09375 72.90625 
L 28.90625 38.921875 
L 67.671875 0 
L 54.6875 0 
L 19.671875 35.109375 
L 19.671875 0 
L 9.8125 0 
z
" id="DejaVuSans-75"/>
     </defs>
     <g transform="translate(141.8 593.939062)scale(0.14 -0.14)">
      <use xlink:href="#DejaVuSans-82"/>
      <use x="69.482422" xlink:href="#DejaVuSans-75"/>
      <use x="135.058594" xlink:href="#DejaVuSans-52"/>
     </g>
    </g>
    <g id="line2d_16"/>
    <g id="line2d_17">
     <g>
      <use style="stroke:#000000;" x="116.6" xlink:href="#m41d4c91895" y="609.588438"/>
     </g>
    </g>
    <g id="text_15">
     <!-- vec+diag -->
     <defs>
      <path d="M 2.984375 54.6875 
L 12.5 54.6875 
L 29.59375 8.796875 
L 46.6875 54.6875 
L 56.203125 54.6875 
L 35.6875 0 
L 23.484375 0 
z
" id="DejaVuSans-118"/>
      <path d="M 56.203125 29.59375 
L 56.203125 25.203125 
L 14.890625 25.203125 
Q 15.484375 15.921875 20.484375 11.0625 
Q 25.484375 6.203125 34.421875 6.203125 
Q 39.59375 6.203125 44.453125 7.46875 
Q 49.3125 8.734375 54.109375 11.28125 
L 54.109375 2.78125 
Q 49.265625 0.734375 44.1875 -0.34375 
Q 39.109375 -1.421875 33.890625 -1.421875 
Q 20.796875 -1.421875 13.15625 6.1875 
Q 5.515625 13.8125 5.515625 26.8125 
Q 5.515625 40.234375 12.765625 48.109375 
Q 20.015625 56 32.328125 56 
Q 43.359375 56 49.78125 48.890625 
Q 56.203125 41.796875 56.203125 29.59375 
z
M 47.21875 32.234375 
Q 47.125 39.59375 43.09375 43.984375 
Q 39.0625 48.390625 32.421875 48.390625 
Q 24.90625 48.390625 20.390625 44.140625 
Q 15.875 39.890625 15.1875 32.171875 
z
" id="DejaVuSans-101"/>
      <path d="M 48.78125 52.59375 
L 48.78125 44.1875 
Q 44.96875 46.296875 41.140625 47.34375 
Q 37.3125 48.390625 33.40625 48.390625 
Q 24.65625 48.390625 19.8125 42.84375 
Q 14.984375 37.3125 14.984375 27.296875 
Q 14.984375 17.28125 19.8125 11.734375 
Q 24.65625 6.203125 33.40625 6.203125 
Q 37.3125 6.203125 41.140625 7.25 
Q 44.96875 8.296875 48.78125 10.40625 
L 48.78125 2.09375 
Q 45.015625 0.34375 40.984375 -0.53125 
Q 36.96875 -1.421875 32.421875 -1.421875 
Q 20.0625 -1.421875 12.78125 6.34375 
Q 5.515625 14.109375 5.515625 27.296875 
Q 5.515625 40.671875 12.859375 48.328125 
Q 20.21875 56 33.015625 56 
Q 37.15625 56 41.109375 55.140625 
Q 45.0625 54.296875 48.78125 52.59375 
z
" id="DejaVuSans-99"/>
      <path d="M 46 62.703125 
L 46 35.5 
L 73.1875 35.5 
L 73.1875 27.203125 
L 46 27.203125 
L 46 0 
L 37.796875 0 
L 37.796875 27.203125 
L 10.59375 27.203125 
L 10.59375 35.5 
L 37.796875 35.5 
L 37.796875 62.703125 
z
" id="DejaVuSans-43"/>
      <path d="M 45.40625 46.390625 
L 45.40625 75.984375 
L 54.390625 75.984375 
L 54.390625 0 
L 45.40625 0 
L 45.40625 8.203125 
Q 42.578125 3.328125 38.25 0.953125 
Q 33.9375 -1.421875 27.875 -1.421875 
Q 17.96875 -1.421875 11.734375 6.484375 
Q 5.515625 14.40625 5.515625 27.296875 
Q 5.515625 40.1875 11.734375 48.09375 
Q 17.96875 56 27.875 56 
Q 33.9375 56 38.25 53.625 
Q 42.578125 51.265625 45.40625 46.390625 
z
M 14.796875 27.296875 
Q 14.796875 17.390625 18.875 11.75 
Q 22.953125 6.109375 30.078125 6.109375 
Q 37.203125 6.109375 41.296875 11.75 
Q 45.40625 17.390625 45.40625 27.296875 
Q 45.40625 37.203125 41.296875 42.84375 
Q 37.203125 48.484375 30.078125 48.484375 
Q 22.953125 48.484375 18.875 42.84375 
Q 14.796875 37.203125 14.796875 27.296875 
z
" id="DejaVuSans-100"/>
     </defs>
     <g transform="translate(141.8 614.488438)scale(0.14 -0.14)">
      <use xlink:href="#DejaVuSans-118"/>
      <use x="59.179688" xlink:href="#DejaVuSans-101"/>
      <use x="120.703125" xlink:href="#DejaVuSans-99"/>
      <use x="175.683594" xlink:href="#DejaVuSans-43"/>
      <use x="259.472656" xlink:href="#DejaVuSans-100"/>
      <use x="322.949219" xlink:href="#DejaVuSans-105"/>
      <use x="350.732422" xlink:href="#DejaVuSans-97"/>
      <use x="412.011719" xlink:href="#DejaVuSans-103"/>
     </g>
    </g>
   </g>
  </g>
 </g>
 <defs>
  <clipPath id="p7d99369bb1">
   <rect height="543.6" width="558" x="90" y="86.4"/>
  </clipPath>
 </defs>
</svg>
