<?xml version="1.0" encoding="utf-8" standalone="no"?>
<!DOCTYPE svg PUBLIC "-//W3C//DTD SVG 1.1//EN"
  "http://www.w3.org/Graphics/SVG/1.1/DTD/svg11.dtd">
<!-- Created with matplotlib (https://matplotlib.org/) -->
<svg height="720pt" version="1.1" viewBox="0 0 720 720" width="720pt" xmlns="http://www.w3.org/2000/svg" xmlns:xlink="http://www.w3.org/1999/xlink">
 <defs>
  <style type="text/css">
*{stroke-linecap:butt;stroke-linejoin:round;}
  </style>
 </defs>
 <g id="figure_1">
  <g id="patch_1">
   <path d="M 0 720 
L 720 720 
L 720 0 
L 0 0 
z
" style="fill:#ffffff;"/>
  </g>
  <g id="axes_1">
   <g id="patch_2">
    <path d="M 90 630 
L 648 630 
L 648 86.4 
L 90 86.4 
z
" style="fill:#ffffff;"/>
   </g>
   <g id="matplotlib.axis_1">
    <g id="xtick_1">
     <g id="line2d_1">
      <defs>
       <path d="M 0 0 
L 0 3.5 
" id="m612bfecbbe" style="stroke:#000000;stroke-width:0.8;"/>
      </defs>
      <g>
       <use style="stroke:#000000;stroke-width:0.8;" x="115.363636" xlink:href="#m612bfecbbe" y="630"/>
      </g>
     </g>
     <g id="text_1">
      <!-- 0.0 -->
      <defs>
       <path d="M 31.78125 66.40625 
Q 24.171875 66.40625 20.328125 58.90625 
Q 16.5 51.421875 16.5 36.375 
Q 16.5 21.390625 20.328125 13.890625 
Q 24.171875 6.390625 31.78125 6.390625 
Q 39.453125 6.390625 43.28125 13.890625 
Q 47.125 21.390625 47.125 36.375 
Q 47.125 51.421875 43.28125 58.90625 
Q 39.453125 66.40625 31.78125 66.40625 
z
M 31.78125 74.21875 
Q 44.046875 74.21875 50.515625 64.515625 
Q 56.984375 54.828125 56.984375 36.375 
Q 56.984375 17.96875 50.515625 8.265625 
Q 44.046875 -1.421875 31.78125 -1.421875 
Q 19.53125 -1.421875 13.0625 8.265625 
Q 6.59375 17.96875 6.59375 36.375 
Q 6.59375 54.828125 13.0625 64.515625 
Q 19.53125 74.21875 31.78125 74.21875 
z
" id="DejaVuSans-48"/>
       <path d="M 10.6875 12.40625 
L 21 12.40625 
L 21 0 
L 10.6875 0 
z
" id="DejaVuSans-46"/>
      </defs>
      <g transform="translate(107.412074 644.598438)scale(0.1 -0.1)">
       <use xlink:href="#DejaVuSans-48"/>
       <use x="63.623047" xlink:href="#DejaVuSans-46"/>
       <use x="95.410156" xlink:href="#DejaVuSans-48"/>
      </g>
     </g>
    </g>
    <g id="xtick_2">
     <g id="line2d_2">
      <g>
       <use style="stroke:#000000;stroke-width:0.8;" x="216.818182" xlink:href="#m612bfecbbe" y="630"/>
      </g>
     </g>
     <g id="text_2">
      <!-- 0.2 -->
      <defs>
       <path d="M 19.1875 8.296875 
L 53.609375 8.296875 
L 53.609375 0 
L 7.328125 0 
L 7.328125 8.296875 
Q 12.9375 14.109375 22.625 23.890625 
Q 32.328125 33.6875 34.8125 36.53125 
Q 39.546875 41.84375 41.421875 45.53125 
Q 43.3125 49.21875 43.3125 52.78125 
Q 43.3125 58.59375 39.234375 62.25 
Q 35.15625 65.921875 28.609375 65.921875 
Q 23.96875 65.921875 18.8125 64.3125 
Q 13.671875 62.703125 7.8125 59.421875 
L 7.8125 69.390625 
Q 13.765625 71.78125 18.9375 73 
Q 24.125 74.21875 28.421875 74.21875 
Q 39.75 74.21875 46.484375 68.546875 
Q 53.21875 62.890625 53.21875 53.421875 
Q 53.21875 48.921875 51.53125 44.890625 
Q 49.859375 40.875 45.40625 35.40625 
Q 44.1875 33.984375 37.640625 27.21875 
Q 31.109375 20.453125 19.1875 8.296875 
z
" id="DejaVuSans-50"/>
      </defs>
      <g transform="translate(208.866619 644.598438)scale(0.1 -0.1)">
       <use xlink:href="#DejaVuSans-48"/>
       <use x="63.623047" xlink:href="#DejaVuSans-46"/>
       <use x="95.410156" xlink:href="#DejaVuSans-50"/>
      </g>
     </g>
    </g>
    <g id="xtick_3">
     <g id="line2d_3">
      <g>
       <use style="stroke:#000000;stroke-width:0.8;" x="318.272727" xlink:href="#m612bfecbbe" y="630"/>
      </g>
     </g>
     <g id="text_3">
      <!-- 0.4 -->
      <defs>
       <path d="M 37.796875 64.3125 
L 12.890625 25.390625 
L 37.796875 25.390625 
z
M 35.203125 72.90625 
L 47.609375 72.90625 
L 47.609375 25.390625 
L 58.015625 25.390625 
L 58.015625 17.1875 
L 47.609375 17.1875 
L 47.609375 0 
L 37.796875 0 
L 37.796875 17.1875 
L 4.890625 17.1875 
L 4.890625 26.703125 
z
" id="DejaVuSans-52"/>
      </defs>
      <g transform="translate(310.321165 644.598438)scale(0.1 -0.1)">
       <use xlink:href="#DejaVuSans-48"/>
       <use x="63.623047" xlink:href="#DejaVuSans-46"/>
       <use x="95.410156" xlink:href="#DejaVuSans-52"/>
      </g>
     </g>
    </g>
    <g id="xtick_4">
     <g id="line2d_4">
      <g>
       <use style="stroke:#000000;stroke-width:0.8;" x="419.727273" xlink:href="#m612bfecbbe" y="630"/>
      </g>
     </g>
     <g id="text_4">
      <!-- 0.6 -->
      <defs>
       <path d="M 33.015625 40.375 
Q 26.375 40.375 22.484375 35.828125 
Q 18.609375 31.296875 18.609375 23.390625 
Q 18.609375 15.53125 22.484375 10.953125 
Q 26.375 6.390625 33.015625 6.390625 
Q 39.65625 6.390625 43.53125 10.953125 
Q 47.40625 15.53125 47.40625 23.390625 
Q 47.40625 31.296875 43.53125 35.828125 
Q 39.65625 40.375 33.015625 40.375 
z
M 52.59375 71.296875 
L 52.59375 62.3125 
Q 48.875 64.0625 45.09375 64.984375 
Q 41.3125 65.921875 37.59375 65.921875 
Q 27.828125 65.921875 22.671875 59.328125 
Q 17.53125 52.734375 16.796875 39.40625 
Q 19.671875 43.65625 24.015625 45.921875 
Q 28.375 48.1875 33.59375 48.1875 
Q 44.578125 48.1875 50.953125 41.515625 
Q 57.328125 34.859375 57.328125 23.390625 
Q 57.328125 12.15625 50.6875 5.359375 
Q 44.046875 -1.421875 33.015625 -1.421875 
Q 20.359375 -1.421875 13.671875 8.265625 
Q 6.984375 17.96875 6.984375 36.375 
Q 6.984375 53.65625 15.1875 63.9375 
Q 23.390625 74.21875 37.203125 74.21875 
Q 40.921875 74.21875 44.703125 73.484375 
Q 48.484375 72.75 52.59375 71.296875 
z
" id="DejaVuSans-54"/>
      </defs>
      <g transform="translate(411.77571 644.598438)scale(0.1 -0.1)">
       <use xlink:href="#DejaVuSans-48"/>
       <use x="63.623047" xlink:href="#DejaVuSans-46"/>
       <use x="95.410156" xlink:href="#DejaVuSans-54"/>
      </g>
     </g>
    </g>
    <g id="xtick_5">
     <g id="line2d_5">
      <g>
       <use style="stroke:#000000;stroke-width:0.8;" x="521.181818" xlink:href="#m612bfecbbe" y="630"/>
      </g>
     </g>
     <g id="text_5">
      <!-- 0.8 -->
      <defs>
       <path d="M 31.78125 34.625 
Q 24.75 34.625 20.71875 30.859375 
Q 16.703125 27.09375 16.703125 20.515625 
Q 16.703125 13.921875 20.71875 10.15625 
Q 24.75 6.390625 31.78125 6.390625 
Q 38.8125 6.390625 42.859375 10.171875 
Q 46.921875 13.96875 46.921875 20.515625 
Q 46.921875 27.09375 42.890625 30.859375 
Q 38.875 34.625 31.78125 34.625 
z
M 21.921875 38.8125 
Q 15.578125 40.375 12.03125 44.71875 
Q 8.5 49.078125 8.5 55.328125 
Q 8.5 64.0625 14.71875 69.140625 
Q 20.953125 74.21875 31.78125 74.21875 
Q 42.671875 74.21875 48.875 69.140625 
Q 55.078125 64.0625 55.078125 55.328125 
Q 55.078125 49.078125 51.53125 44.71875 
Q 48 40.375 41.703125 38.8125 
Q 48.828125 37.15625 52.796875 32.3125 
Q 56.78125 27.484375 56.78125 20.515625 
Q 56.78125 9.90625 50.3125 4.234375 
Q 43.84375 -1.421875 31.78125 -1.421875 
Q 19.734375 -1.421875 13.25 4.234375 
Q 6.78125 9.90625 6.78125 20.515625 
Q 6.78125 27.484375 10.78125 32.3125 
Q 14.796875 37.15625 21.921875 38.8125 
z
M 18.3125 54.390625 
Q 18.3125 48.734375 21.84375 45.5625 
Q 25.390625 42.390625 31.78125 42.390625 
Q 38.140625 42.390625 41.71875 45.5625 
Q 45.3125 48.734375 45.3125 54.390625 
Q 45.3125 60.0625 41.71875 63.234375 
Q 38.140625 66.40625 31.78125 66.40625 
Q 25.390625 66.40625 21.84375 63.234375 
Q 18.3125 60.0625 18.3125 54.390625 
z
" id="DejaVuSans-56"/>
      </defs>
      <g transform="translate(513.230256 644.598438)scale(0.1 -0.1)">
       <use xlink:href="#DejaVuSans-48"/>
       <use x="63.623047" xlink:href="#DejaVuSans-46"/>
       <use x="95.410156" xlink:href="#DejaVuSans-56"/>
      </g>
     </g>
    </g>
    <g id="xtick_6">
     <g id="line2d_6">
      <g>
       <use style="stroke:#000000;stroke-width:0.8;" x="622.636364" xlink:href="#m612bfecbbe" y="630"/>
      </g>
     </g>
     <g id="text_6">
      <!-- 1.0 -->
      <defs>
       <path d="M 12.40625 8.296875 
L 28.515625 8.296875 
L 28.515625 63.921875 
L 10.984375 60.40625 
L 10.984375 69.390625 
L 28.421875 72.90625 
L 38.28125 72.90625 
L 38.28125 8.296875 
L 54.390625 8.296875 
L 54.390625 0 
L 12.40625 0 
z
" id="DejaVuSans-49"/>
      </defs>
      <g transform="translate(614.684801 644.598438)scale(0.1 -0.1)">
       <use xlink:href="#DejaVuSans-49"/>
       <use x="63.623047" xlink:href="#DejaVuSans-46"/>
       <use x="95.410156" xlink:href="#DejaVuSans-48"/>
      </g>
     </g>
    </g>
    <g id="text_7">
     <!-- t -->
     <defs>
      <path d="M 18.3125 70.21875 
L 18.3125 54.6875 
L 36.8125 54.6875 
L 36.8125 47.703125 
L 18.3125 47.703125 
L 18.3125 18.015625 
Q 18.3125 11.328125 20.140625 9.421875 
Q 21.96875 7.515625 27.59375 7.515625 
L 36.8125 7.515625 
L 36.8125 0 
L 27.59375 0 
Q 17.1875 0 13.234375 3.875 
Q 9.28125 7.765625 9.28125 18.015625 
L 9.28125 47.703125 
L 2.6875 47.703125 
L 2.6875 54.6875 
L 9.28125 54.6875 
L 9.28125 70.21875 
z
" id="DejaVuSans-116"/>
     </defs>
     <g transform="translate(366.255781 661.315938)scale(0.14 -0.14)">
      <use xlink:href="#DejaVuSans-116"/>
     </g>
    </g>
   </g>
   <g id="matplotlib.axis_2">
    <g id="ytick_1">
     <g id="line2d_7">
      <defs>
       <path d="M 0 0 
L -3.5 0 
" id="m721c0752c5" style="stroke:#000000;stroke-width:0.8;"/>
      </defs>
      <g>
       <use style="stroke:#000000;stroke-width:0.8;" x="90" xlink:href="#m721c0752c5" y="630"/>
      </g>
     </g>
     <g id="text_8">
      <!-- 0.0 -->
      <g transform="translate(67.096875 633.799219)scale(0.1 -0.1)">
       <use xlink:href="#DejaVuSans-48"/>
       <use x="63.623047" xlink:href="#DejaVuSans-46"/>
       <use x="95.410156" xlink:href="#DejaVuSans-48"/>
      </g>
     </g>
    </g>
    <g id="ytick_2">
     <g id="line2d_8">
      <g>
       <use style="stroke:#000000;stroke-width:0.8;" x="90" xlink:href="#m721c0752c5" y="521.28"/>
      </g>
     </g>
     <g id="text_9">
      <!-- 0.2 -->
      <g transform="translate(67.096875 525.079219)scale(0.1 -0.1)">
       <use xlink:href="#DejaVuSans-48"/>
       <use x="63.623047" xlink:href="#DejaVuSans-46"/>
       <use x="95.410156" xlink:href="#DejaVuSans-50"/>
      </g>
     </g>
    </g>
    <g id="ytick_3">
     <g id="line2d_9">
      <g>
       <use style="stroke:#000000;stroke-width:0.8;" x="90" xlink:href="#m721c0752c5" y="412.56"/>
      </g>
     </g>
     <g id="text_10">
      <!-- 0.4 -->
      <g transform="translate(67.096875 416.359219)scale(0.1 -0.1)">
       <use xlink:href="#DejaVuSans-48"/>
       <use x="63.623047" xlink:href="#DejaVuSans-46"/>
       <use x="95.410156" xlink:href="#DejaVuSans-52"/>
      </g>
     </g>
    </g>
    <g id="ytick_4">
     <g id="line2d_10">
      <g>
       <use style="stroke:#000000;stroke-width:0.8;" x="90" xlink:href="#m721c0752c5" y="303.84"/>
      </g>
     </g>
     <g id="text_11">
      <!-- 0.6 -->
      <g transform="translate(67.096875 307.639219)scale(0.1 -0.1)">
       <use xlink:href="#DejaVuSans-48"/>
       <use x="63.623047" xlink:href="#DejaVuSans-46"/>
       <use x="95.410156" xlink:href="#DejaVuSans-54"/>
      </g>
     </g>
    </g>
    <g id="ytick_5">
     <g id="line2d_11">
      <g>
       <use style="stroke:#000000;stroke-width:0.8;" x="90" xlink:href="#m721c0752c5" y="195.12"/>
      </g>
     </g>
     <g id="text_12">
      <!-- 0.8 -->
      <g transform="translate(67.096875 198.919219)scale(0.1 -0.1)">
       <use xlink:href="#DejaVuSans-48"/>
       <use x="63.623047" xlink:href="#DejaVuSans-46"/>
       <use x="95.410156" xlink:href="#DejaVuSans-56"/>
      </g>
     </g>
    </g>
    <g id="ytick_6">
     <g id="line2d_12">
      <g>
       <use style="stroke:#000000;stroke-width:0.8;" x="90" xlink:href="#m721c0752c5" y="86.4"/>
      </g>
     </g>
     <g id="text_13">
      <!-- 1.0 -->
      <g transform="translate(67.096875 90.199219)scale(0.1 -0.1)">
       <use xlink:href="#DejaVuSans-49"/>
       <use x="63.623047" xlink:href="#DejaVuSans-46"/>
       <use x="95.410156" xlink:href="#DejaVuSans-48"/>
      </g>
     </g>
    </g>
    <g id="text_14">
     <!-- $P_1(\rho)$ -->
     <defs>
      <path d="M 16.890625 72.90625 
L 39.703125 72.90625 
Q 49.65625 72.90625 54.875 68.265625 
Q 60.109375 63.625 60.109375 54.6875 
Q 60.109375 42.671875 52.390625 35.984375 
Q 44.671875 29.296875 30.71875 29.296875 
L 18.3125 29.296875 
L 12.59375 0 
L 2.6875 0 
z
M 25.203125 64.796875 
L 19.921875 37.40625 
L 32.328125 37.40625 
Q 40.71875 37.40625 45.203125 41.703125 
Q 49.703125 46 49.703125 54 
Q 49.703125 59.125 46.65625 61.953125 
Q 43.609375 64.796875 38.09375 64.796875 
z
" id="DejaVuSans-Oblique-80"/>
      <path d="M 31 75.875 
Q 24.46875 64.65625 21.28125 53.65625 
Q 18.109375 42.671875 18.109375 31.390625 
Q 18.109375 20.125 21.3125 9.0625 
Q 24.515625 -2 31 -13.1875 
L 23.1875 -13.1875 
Q 15.875 -1.703125 12.234375 9.375 
Q 8.59375 20.453125 8.59375 31.390625 
Q 8.59375 42.28125 12.203125 53.3125 
Q 15.828125 64.359375 23.1875 75.875 
z
" id="DejaVuSans-40"/>
      <path d="M 18.796875 44.921875 
Q 22.703125 49.90625 30.953125 54.296875 
Q 34.1875 56 43.0625 56 
Q 53.03125 56 57.71875 48.09375 
Q 62.40625 40.1875 59.90625 27.296875 
Q 57.375 14.40625 49.609375 6.484375 
Q 41.84375 -1.421875 31.890625 -1.421875 
Q 25.875 -1.421875 22.015625 0.984375 
Q 18.171875 3.328125 16.3125 8.203125 
L 10.640625 -20.796875 
L 1.609375 -20.796875 
L 10.890625 26.8125 
Q 13.09375 38.09375 18.796875 44.921875 
z
M 50.59375 27.296875 
Q 52.484375 37.203125 49.515625 42.875 
Q 46.53125 48.484375 39.40625 48.484375 
Q 32.28125 48.484375 27.09375 42.875 
Q 21.921875 37.203125 20.015625 27.296875 
Q 18.0625 17.390625 21.046875 11.71875 
Q 24.03125 6.109375 31.15625 6.109375 
Q 38.28125 6.109375 43.453125 11.71875 
Q 48.640625 17.390625 50.59375 27.296875 
z
" id="DejaVuSans-Oblique-961"/>
      <path d="M 8.015625 75.875 
L 15.828125 75.875 
Q 23.140625 64.359375 26.78125 53.3125 
Q 30.421875 42.28125 30.421875 31.390625 
Q 30.421875 20.453125 26.78125 9.375 
Q 23.140625 -1.703125 15.828125 -13.1875 
L 8.015625 -13.1875 
Q 14.5 -2 17.703125 9.0625 
Q 20.90625 20.125 20.90625 31.390625 
Q 20.90625 42.671875 17.703125 53.65625 
Q 14.5 64.65625 8.015625 75.875 
z
" id="DejaVuSans-41"/>
     </defs>
     <g transform="translate(60.156875 375.7)rotate(-90)scale(0.14 -0.14)">
      <use transform="translate(0 0.125)" xlink:href="#DejaVuSans-Oblique-80"/>
      <use transform="translate(60.302734 -16.28125)scale(0.7)" xlink:href="#DejaVuSans-49"/>
      <use transform="translate(107.573242 0.125)" xlink:href="#DejaVuSans-40"/>
      <use transform="translate(146.586914 0.125)" xlink:href="#DejaVuSans-Oblique-961"/>
      <use transform="translate(210.063477 0.125)" xlink:href="#DejaVuSans-41"/>
     </g>
    </g>
   </g>
   <g id="line2d_13">
    <path clip-path="url(#pa992b25afa)" d="M 115.363636 86.4 
L 116.378182 86.617411 
L 117.392727 87.269296 
L 118.407273 88.354613 
L 119.421818 89.871624 
L 120.436364 91.817904 
L 121.450909 94.190338 
L 122.972727 98.539542 
L 124.494545 103.823243 
L 126.016364 110.022426 
L 127.538182 117.11478 
L 129.567273 127.916061 
L 131.596364 140.190373 
L 133.625455 153.859203 
L 136.161818 172.772276 
L 138.698182 193.538081 
L 141.741818 220.609334 
L 144.785455 249.659516 
L 148.843636 290.745912 
L 154.423636 349.830881 
L 162.54 435.714386 
L 166.598182 476.2287 
L 169.641818 504.689721 
L 172.685455 531.043821 
L 175.221818 551.121616 
L 177.758182 569.271802 
L 179.787273 582.281511 
L 181.816364 593.857862 
L 183.845455 603.926808 
L 185.367273 610.450162 
L 186.889091 616.065689 
L 188.410909 620.753177 
L 189.425455 623.354122 
L 190.44 625.530877 
L 191.454545 627.27996 
L 192.469091 628.598573 
L 193.483636 629.484605 
L 194.498182 629.93664 
L 195.512727 629.953954 
L 196.527273 629.53652 
L 197.541818 628.685005 
L 198.556364 627.400772 
L 199.570909 625.685876 
L 200.585455 623.543058 
L 201.6 620.975749 
L 203.121818 616.33803 
L 204.643636 610.771293 
L 206.165455 604.295573 
L 207.687273 596.934174 
L 209.716364 585.787491 
L 211.745455 573.185025 
L 213.774545 559.207388 
L 216.310909 539.93851 
L 218.847273 518.853761 
L 221.890909 491.452893 
L 225.441818 457.092178 
L 229.5 415.4943 
L 236.601818 339.837324 
L 242.689091 275.903674 
L 246.747273 235.684777 
L 249.790909 207.521057 
L 252.834545 181.524511 
L 255.370909 161.787017 
L 257.907273 144.012017 
L 259.936364 131.325066 
L 261.965455 120.089341 
L 263.487273 112.65851 
L 265.009091 106.111363 
L 266.530909 100.471464 
L 268.052727 95.759108 
L 269.574545 91.991257 
L 270.589091 90.010918 
L 271.603636 88.459625 
L 272.618182 87.339858 
L 273.632727 86.65341 
L 274.647273 86.401379 
L 275.661818 86.584167 
L 276.676364 87.201483 
L 277.690909 88.252339 
L 278.705455 89.735053 
L 279.72 91.647254 
L 280.734545 93.985883 
L 281.749091 96.747197 
L 283.270909 101.67186 
L 284.792727 107.519746 
L 286.314545 114.269811 
L 287.836364 121.897761 
L 289.865455 133.386069 
L 291.894545 146.312419 
L 293.923636 160.594126 
L 296.46 180.21228 
L 298.996364 201.608829 
L 302.04 229.33003 
L 305.590909 263.984518 
L 310.156364 311.149994 
L 324.867273 465.548641 
L 328.418182 499.342654 
L 331.461818 526.134395 
L 333.998182 546.631129 
L 336.534545 565.245122 
L 338.563636 578.655079 
L 340.592727 590.654877 
L 342.621818 601.167756 
L 344.143636 608.035803 
L 345.665455 614.004711 
L 347.187273 619.052998 
L 348.709091 623.162496 
L 349.723636 625.373167 
L 350.738182 627.156418 
L 351.752727 628.509397 
L 352.767273 629.429938 
L 353.781818 629.916569 
L 354.796364 629.968511 
L 355.810909 629.585682 
L 356.825455 628.768694 
L 357.84 627.518853 
L 358.854545 625.83816 
L 359.869091 623.729303 
L 360.883636 621.195655 
L 362.405455 616.607753 
L 363.927273 611.089862 
L 365.449091 604.661841 
L 366.970909 597.346823 
L 369 586.259644 
L 371.029091 573.713661 
L 373.058182 559.789126 
L 375.594545 540.581355 
L 378.130909 519.55129 
L 381.174545 492.206798 
L 384.725455 457.898105 
L 388.783636 416.340323 
L 395.885455 340.701207 
L 401.972727 276.72922 
L 406.030909 236.458224 
L 409.074545 208.242371 
L 412.118182 182.183318 
L 414.654545 162.386455 
L 417.190909 144.546096 
L 419.22 131.802983 
L 421.249091 120.508038 
L 422.770909 113.031013 
L 424.292727 106.436332 
L 425.814545 100.747729 
L 427.336364 95.985676 
L 428.858182 92.167311 
L 429.872727 90.152933 
L 430.887273 88.567373 
L 431.901818 87.413168 
L 432.916364 86.692165 
L 433.930909 86.405516 
L 434.945455 86.55368 
L 435.96 87.13642 
L 436.974545 88.152804 
L 437.989091 89.601206 
L 439.003636 91.479309 
L 440.018182 93.784108 
L 441.032727 96.511916 
L 442.554545 101.38704 
L 444.076364 107.186414 
L 445.598182 113.889166 
L 447.12 121.471173 
L 449.149091 132.900639 
L 451.178182 145.771252 
L 453.207273 160.000685 
L 455.743636 179.558871 
L 458.28 200.901979 
L 461.323636 228.568417 
L 464.874545 263.172906 
L 469.44 310.297536 
L 484.150909 464.752715 
L 487.701818 498.602054 
L 490.745455 525.452801 
L 493.281818 546.006235 
L 495.818182 564.683171 
L 497.847273 578.147559 
L 499.876364 590.205033 
L 501.905455 600.778466 
L 503.427273 607.693584 
L 504.949091 613.710794 
L 506.470909 618.808442 
L 507.992727 622.96818 
L 509.007273 625.212746 
L 510.021818 627.030147 
L 511.036364 628.417478 
L 512.050909 629.372518 
L 513.065455 629.89374 
L 514.08 629.980311 
L 515.094545 629.63209 
L 516.109091 628.849637 
L 517.123636 627.634201 
L 518.138182 625.987728 
L 519.152727 623.912852 
L 520.167273 621.412893 
L 521.689091 616.874854 
L 523.210909 611.405865 
L 524.732727 605.025608 
L 526.254545 597.757046 
L 528.283636 586.729482 
L 530.312727 574.24011 
L 532.341818 560.368818 
L 534.878182 541.222349 
L 537.414545 520.247181 
L 540.458182 492.959344 
L 544.009091 458.70302 
L 548.067273 417.185756 
L 555.169091 341.565266 
L 561.256364 277.555592 
L 565.314545 237.232906 
L 568.358182 208.965207 
L 571.401818 182.843912 
L 573.938182 162.98788 
L 576.474545 145.082343 
L 578.503636 132.283196 
L 580.532727 120.929146 
L 582.561818 111.09282 
L 584.083636 104.749808 
L 585.605455 99.318943 
L 587.127273 94.81977 
L 588.141818 92.346064 
L 589.156364 90.297668 
L 590.170909 88.677858 
L 591.185455 87.489226 
L 592.2 86.733674 
L 593.214545 86.41241 
L 594.229091 86.525948 
L 595.243636 87.074107 
L 596.258182 88.056009 
L 597.272727 89.470084 
L 598.287273 91.314069 
L 599.301818 93.585015 
L 600.316364 96.279289 
L 601.838182 101.104826 
L 603.36 106.855629 
L 604.881818 113.510999 
L 606.403636 121.046986 
L 608.432727 132.417495 
L 610.461818 145.232241 
L 612.490909 159.409254 
L 615.027273 178.907273 
L 617.563636 200.196726 
L 620.607273 227.80812 
L 622.636364 247.283289 
L 622.636364 247.283289 
" style="fill:none;stroke:#000000;stroke-linecap:square;stroke-width:1.5;"/>
   </g>
   <g id="line2d_14">
    <defs>
     <path d="M 0 3 
C 0.795609 3 1.55874 2.683901 2.12132 2.12132 
C 2.683901 1.55874 3 0.795609 3 0 
C 3 -0.795609 2.683901 -1.55874 2.12132 -2.12132 
C 1.55874 -2.683901 0.795609 -3 0 -3 
C -0.795609 -3 -1.55874 -2.683901 -2.12132 -2.12132 
C -2.683901 -1.55874 -3 -0.795609 -3 0 
C -3 0.795609 -2.683901 1.55874 -2.12132 2.12132 
C -1.55874 2.683901 -0.795609 3 0 3 
z
" id="me3d1d64c4e" style="stroke:#000000;"/>
    </defs>
    <g clip-path="url(#pa992b25afa)">
     <use style="stroke:#000000;" x="115.363636" xlink:href="#me3d1d64c4e" y="86.4"/>
     <use style="stroke:#000000;" x="120.436364" xlink:href="#me3d1d64c4e" y="91.817904"/>
     <use style="stroke:#000000;" x="125.509091" xlink:href="#me3d1d64c4e" y="107.855622"/>
     <use style="stroke:#000000;" x="130.581818" xlink:href="#me3d1d64c4e" y="133.87378"/>
     <use style="stroke:#000000;" x="135.654545" xlink:href="#me3d1d64c4e" y="168.835116"/>
     <use style="stroke:#000000;" x="140.727273" xlink:href="#me3d1d64c4e" y="211.345833"/>
     <use style="stroke:#000000;" x="145.8" xlink:href="#me3d1d64c4e" y="259.711162"/>
     <use style="stroke:#000000;" x="150.872727" xlink:href="#me3d1d64c4e" y="312.002931"/>
     <use style="stroke:#000000;" x="155.945455" xlink:href="#me3d1d64c4e" y="366.13643"/>
     <use style="stroke:#000000;" x="161.018182" xlink:href="#me3d1d64c4e" y="419.953529"/>
     <use style="stroke:#000000;" x="166.090909" xlink:href="#me3d1d64c4e" y="471.30871"/>
     <use style="stroke:#000000;" x="171.163636" xlink:href="#me3d1d64c4e" y="518.154604"/>
     <use style="stroke:#000000;" x="176.236364" xlink:href="#me3d1d64c4e" y="558.623612"/>
     <use style="stroke:#000000;" x="181.309091" xlink:href="#me3d1d64c4e" y="591.102363"/>
     <use style="stroke:#000000;" x="186.381818" xlink:href="#me3d1d64c4e" y="614.296032"/>
     <use style="stroke:#000000;" x="191.454545" xlink:href="#me3d1d64c4e" y="627.279961"/>
     <use style="stroke:#000000;" x="196.527273" xlink:href="#me3d1d64c4e" y="629.53652"/>
     <use style="stroke:#000000;" x="201.6" xlink:href="#me3d1d64c4e" y="620.975749"/>
     <use style="stroke:#000000;" x="206.672727" xlink:href="#me3d1d64c4e" y="601.938938"/>
     <use style="stroke:#000000;" x="211.745455" xlink:href="#me3d1d64c4e" y="573.185024"/>
     <use style="stroke:#000000;" x="216.818182" xlink:href="#me3d1d64c4e" y="535.860336"/>
     <use style="stroke:#000000;" x="221.890909" xlink:href="#me3d1d64c4e" y="491.452891"/>
     <use style="stroke:#000000;" x="226.963636" xlink:href="#me3d1d64c4e" y="441.733074"/>
     <use style="stroke:#000000;" x="232.036364" xlink:href="#me3d1d64c4e" y="388.683057"/>
     <use style="stroke:#000000;" x="237.109091" xlink:href="#me3d1d64c4e" y="334.417776"/>
     <use style="stroke:#000000;" x="242.181818" xlink:href="#me3d1d64c4e" y="281.100618"/>
     <use style="stroke:#000000;" x="247.254545" xlink:href="#me3d1d64c4e" y="230.857169"/>
     <use style="stroke:#000000;" x="252.327273" xlink:href="#me3d1d64c4e" y="185.690476"/>
     <use style="stroke:#000000;" x="257.4" xlink:href="#me3d1d64c4e" y="147.401194"/>
     <use style="stroke:#000000;" x="262.472727" xlink:href="#me3d1d64c4e" y="117.515795"/>
     <use style="stroke:#000000;" x="267.545455" xlink:href="#me3d1d64c4e" y="97.225716"/>
     <use style="stroke:#000000;" x="272.618182" xlink:href="#me3d1d64c4e" y="87.339858"/>
     <use style="stroke:#000000;" x="277.690909" xlink:href="#me3d1d64c4e" y="88.252339"/>
     <use style="stroke:#000000;" x="282.763636" xlink:href="#me3d1d64c4e" y="99.926782"/>
     <use style="stroke:#000000;" x="287.836364" xlink:href="#me3d1d64c4e" y="121.897762"/>
     <use style="stroke:#000000;" x="292.909091" xlink:href="#me3d1d64c4e" y="153.289367"/>
     <use style="stroke:#000000;" x="297.981818" xlink:href="#me3d1d64c4e" y="192.850113"/>
     <use style="stroke:#000000;" x="303.054545" xlink:href="#me3d1d64c4e" y="239.002836"/>
     <use style="stroke:#000000;" x="308.127273" xlink:href="#me3d1d64c4e" y="289.907575"/>
     <use style="stroke:#000000;" x="313.2" xlink:href="#me3d1d64c4e" y="343.534917"/>
     <use style="stroke:#000000;" x="318.272727" xlink:href="#me3d1d64c4e" y="397.746909"/>
     <use style="stroke:#000000;" x="323.345455" xlink:href="#me3d1d64c4e" y="450.382291"/>
     <use style="stroke:#000000;" x="328.418182" xlink:href="#me3d1d64c4e" y="499.342656"/>
     <use style="stroke:#000000;" x="333.490909" xlink:href="#me3d1d64c4e" y="542.676109"/>
     <use style="stroke:#000000;" x="338.563636" xlink:href="#me3d1d64c4e" y="578.655081"/>
     <use style="stroke:#000000;" x="343.636364" xlink:href="#me3d1d64c4e" y="605.845205"/>
     <use style="stroke:#000000;" x="348.709091" xlink:href="#me3d1d64c4e" y="623.162496"/>
     <use style="stroke:#000000;" x="353.781818" xlink:href="#me3d1d64c4e" y="629.916569"/>
     <use style="stroke:#000000;" x="358.854545" xlink:href="#me3d1d64c4e" y="625.838159"/>
     <use style="stroke:#000000;" x="363.927273" xlink:href="#me3d1d64c4e" y="611.089861"/>
     <use style="stroke:#000000;" x="369" xlink:href="#me3d1d64c4e" y="586.259642"/>
     <use style="stroke:#000000;" x="374.072727" xlink:href="#me3d1d64c4e" y="552.337404"/>
     <use style="stroke:#000000;" x="379.145455" xlink:href="#me3d1d64c4e" y="510.675521"/>
     <use style="stroke:#000000;" x="384.218182" xlink:href="#me3d1d64c4e" y="462.93492"/>
     <use style="stroke:#000000;" x="389.290909" xlink:href="#me3d1d64c4e" y="411.018869"/>
     <use style="stroke:#000000;" x="394.363636" xlink:href="#me3d1d64c4e" y="356.997095"/>
     <use style="stroke:#000000;" x="399.436364" xlink:href="#me3d1d64c4e" y="303.023278"/>
     <use style="stroke:#000000;" x="404.509091" xlink:href="#me3d1d64c4e" y="251.249183"/>
     <use style="stroke:#000000;" x="409.581818" xlink:href="#me3d1d64c4e" y="203.738879"/>
     <use style="stroke:#000000;" x="414.654545" xlink:href="#me3d1d64c4e" y="162.386452"/>
     <use style="stroke:#000000;" x="419.727273" xlink:href="#me3d1d64c4e" y="128.840494"/>
     <use style="stroke:#000000;" x="424.8" xlink:href="#me3d1d64c4e" y="104.438376"/>
     <use style="stroke:#000000;" x="429.872727" xlink:href="#me3d1d64c4e" y="90.152932"/>
     <use style="stroke:#000000;" x="434.945455" xlink:href="#me3d1d64c4e" y="86.55368"/>
     <use style="stroke:#000000;" x="440.018182" xlink:href="#me3d1d64c4e" y="93.784109"/>
     <use style="stroke:#000000;" x="445.090909" xlink:href="#me3d1d64c4e" y="111.555965"/>
     <use style="stroke:#000000;" x="450.163636" xlink:href="#me3d1d64c4e" y="139.16074"/>
     <use style="stroke:#000000;" x="455.236364" xlink:href="#me3d1d64c4e" y="175.49792"/>
     <use style="stroke:#000000;" x="460.309091" xlink:href="#me3d1d64c4e" y="219.118855"/>
     <use style="stroke:#000000;" x="465.381818" xlink:href="#me3d1d64c4e" y="268.284516"/>
     <use style="stroke:#000000;" x="470.454545" xlink:href="#me3d1d64c4e" y="321.034824"/>
     <use style="stroke:#000000;" x="475.527273" xlink:href="#me3d1d64c4e" y="375.26679"/>
     <use style="stroke:#000000;" x="480.6" xlink:href="#me3d1d64c4e" y="428.818357"/>
     <use style="stroke:#000000;" x="485.672727" xlink:href="#me3d1d64c4e" y="479.554593"/>
     <use style="stroke:#000000;" x="490.745455" xlink:href="#me3d1d64c4e" y="525.452805"/>
     <use style="stroke:#000000;" x="495.818182" xlink:href="#me3d1d64c4e" y="564.683175"/>
     <use style="stroke:#000000;" x="500.890909" xlink:href="#me3d1d64c4e" y="595.681712"/>
     <use style="stroke:#000000;" x="505.963636" xlink:href="#me3d1d64c4e" y="617.212603"/>
     <use style="stroke:#000000;" x="511.036364" xlink:href="#me3d1d64c4e" y="628.417479"/>
     <use style="stroke:#000000;" x="516.109091" xlink:href="#me3d1d64c4e" y="628.849636"/>
     <use style="stroke:#000000;" x="521.181818" xlink:href="#me3d1d64c4e" y="618.491847"/>
     <use style="stroke:#000000;" x="526.254545" xlink:href="#me3d1d64c4e" y="597.757043"/>
     <use style="stroke:#000000;" x="531.327273" xlink:href="#me3d1d64c4e" y="567.471856"/>
     <use style="stroke:#000000;" x="536.4" xlink:href="#me3d1d64c4e" y="528.84366"/>
     <use style="stroke:#000000;" x="541.472727" xlink:href="#me3d1d64c4e" y="483.41244"/>
     <use style="stroke:#000000;" x="546.545455" xlink:href="#me3d1d64c4e" y="432.989395"/>
     <use style="stroke:#000000;" x="551.618182" xlink:href="#me3d1d64c4e" y="379.584733"/>
     <use style="stroke:#000000;" x="556.690909" xlink:href="#me3d1d64c4e" y="325.32753"/>
     <use style="stroke:#000000;" x="561.763636" xlink:href="#me3d1d64c4e" y="272.380847"/>
     <use style="stroke:#000000;" x="566.836364" xlink:href="#me3d1d64c4e" y="222.855504"/>
     <use style="stroke:#000000;" x="571.909091" xlink:href="#me3d1d64c4e" y="178.725919"/>
     <use style="stroke:#000000;" x="576.981818" xlink:href="#me3d1d64c4e" y="141.751399"/>
     <use style="stroke:#000000;" x="582.054545" xlink:href="#me3d1d64c4e" y="113.406001"/>
     <use style="stroke:#000000;" x="587.127273" xlink:href="#me3d1d64c4e" y="94.819768"/>
     <use style="stroke:#000000;" x="592.2" xlink:href="#me3d1d64c4e" y="86.733673"/>
     <use style="stroke:#000000;" x="597.272727" xlink:href="#me3d1d64c4e" y="89.470085"/>
     <use style="stroke:#000000;" x="602.345455" xlink:href="#me3d1d64c4e" y="102.91991"/>
     <use style="stroke:#000000;" x="607.418182" xlink:href="#me3d1d64c4e" y="126.546946"/>
     <use style="stroke:#000000;" x="612.490909" xlink:href="#me3d1d64c4e" y="159.409259"/>
     <use style="stroke:#000000;" x="617.563636" xlink:href="#me3d1d64c4e" y="200.196732"/>
     <use style="stroke:#000000;" x="622.636364" xlink:href="#me3d1d64c4e" y="247.283296"/>
    </g>
   </g>
   <g id="patch_3">
    <path d="M 90 630 
L 90 86.4 
" style="fill:none;stroke:#000000;stroke-linecap:square;stroke-linejoin:miter;stroke-width:0.8;"/>
   </g>
   <g id="patch_4">
    <path d="M 648 630 
L 648 86.4 
" style="fill:none;stroke:#000000;stroke-linecap:square;stroke-linejoin:miter;stroke-width:0.8;"/>
   </g>
   <g id="patch_5">
    <path d="M 90 630 
L 648 630 
" style="fill:none;stroke:#000000;stroke-linecap:square;stroke-linejoin:miter;stroke-width:0.8;"/>
   </g>
   <g id="patch_6">
    <path d="M 90 86.4 
L 648 86.4 
" style="fill:none;stroke:#000000;stroke-linecap:square;stroke-linejoin:miter;stroke-width:0.8;"/>
   </g>
   <g id="legend_1">
    <g id="patch_7">
     <path d="M 99.8 380.849375 
L 211.174375 380.849375 
Q 213.974375 380.849375 213.974375 378.049375 
L 213.974375 338.350625 
Q 213.974375 335.550625 211.174375 335.550625 
L 99.8 335.550625 
Q 97 335.550625 97 338.350625 
L 97 378.049375 
Q 97 380.849375 99.8 380.849375 
z
" style="fill:#ffffff;opacity:0.8;stroke:#cccccc;stroke-linejoin:miter;"/>
    </g>
    <g id="line2d_15">
     <path d="M 102.6 346.888438 
L 130.6 346.888438 
" style="fill:none;stroke:#000000;stroke-linecap:square;stroke-width:1.5;"/>
    </g>
    <g id="line2d_16"/>
    <g id="text_15">
     <!-- RK4 -->
     <defs>
      <path d="M 44.390625 34.1875 
Q 47.5625 33.109375 50.5625 29.59375 
Q 53.5625 26.078125 56.59375 19.921875 
L 66.609375 0 
L 56 0 
L 46.6875 18.703125 
Q 43.0625 26.03125 39.671875 28.421875 
Q 36.28125 30.8125 30.421875 30.8125 
L 19.671875 30.8125 
L 19.671875 0 
L 9.8125 0 
L 9.8125 72.90625 
L 32.078125 72.90625 
Q 44.578125 72.90625 50.734375 67.671875 
Q 56.890625 62.453125 56.890625 51.90625 
Q 56.890625 45.015625 53.6875 40.46875 
Q 50.484375 35.9375 44.390625 34.1875 
z
M 19.671875 64.796875 
L 19.671875 38.921875 
L 32.078125 38.921875 
Q 39.203125 38.921875 42.84375 42.21875 
Q 46.484375 45.515625 46.484375 51.90625 
Q 46.484375 58.296875 42.84375 61.546875 
Q 39.203125 64.796875 32.078125 64.796875 
z
" id="DejaVuSans-82"/>
      <path d="M 9.8125 72.90625 
L 19.671875 72.90625 
L 19.671875 42.09375 
L 52.390625 72.90625 
L 65.09375 72.90625 
L 28.90625 38.921875 
L 67.671875 0 
L 54.6875 0 
L 19.671875 35.109375 
L 19.671875 0 
L 9.8125 0 
z
" id="DejaVuSans-75"/>
     </defs>
     <g transform="translate(141.8 351.788437)scale(0.14 -0.14)">
      <use xlink:href="#DejaVuSans-82"/>
      <use x="69.482422" xlink:href="#DejaVuSans-75"/>
      <use x="135.058594" xlink:href="#DejaVuSans-52"/>
     </g>
    </g>
    <g id="line2d_17"/>
    <g id="line2d_18">
     <g>
      <use style="stroke:#000000;" x="116.6" xlink:href="#me3d1d64c4e" y="367.437813"/>
     </g>
    </g>
    <g id="text_16">
     <!-- vec+diag -->
     <defs>
      <path d="M 2.984375 54.6875 
L 12.5 54.6875 
L 29.59375 8.796875 
L 46.6875 54.6875 
L 56.203125 54.6875 
L 35.6875 0 
L 23.484375 0 
z
" id="DejaVuSans-118"/>
      <path d="M 56.203125 29.59375 
L 56.203125 25.203125 
L 14.890625 25.203125 
Q 15.484375 15.921875 20.484375 11.0625 
Q 25.484375 6.203125 34.421875 6.203125 
Q 39.59375 6.203125 44.453125 7.46875 
Q 49.3125 8.734375 54.109375 11.28125 
L 54.109375 2.78125 
Q 49.265625 0.734375 44.1875 -0.34375 
Q 39.109375 -1.421875 33.890625 -1.421875 
Q 20.796875 -1.421875 13.15625 6.1875 
Q 5.515625 13.8125 5.515625 26.8125 
Q 5.515625 40.234375 12.765625 48.109375 
Q 20.015625 56 32.328125 56 
Q 43.359375 56 49.78125 48.890625 
Q 56.203125 41.796875 56.203125 29.59375 
z
M 47.21875 32.234375 
Q 47.125 39.59375 43.09375 43.984375 
Q 39.0625 48.390625 32.421875 48.390625 
Q 24.90625 48.390625 20.390625 44.140625 
Q 15.875 39.890625 15.1875 32.171875 
z
" id="DejaVuSans-101"/>
      <path d="M 48.78125 52.59375 
L 48.78125 44.1875 
Q 44.96875 46.296875 41.140625 47.34375 
Q 37.3125 48.390625 33.40625 48.390625 
Q 24.65625 48.390625 19.8125 42.84375 
Q 14.984375 37.3125 14.984375 27.296875 
Q 14.984375 17.28125 19.8125 11.734375 
Q 24.65625 6.203125 33.40625 6.203125 
Q 37.3125 6.203125 41.140625 7.25 
Q 44.96875 8.296875 48.78125 10.40625 
L 48.78125 2.09375 
Q 45.015625 0.34375 40.984375 -0.53125 
Q 36.96875 -1.421875 32.421875 -1.421875 
Q 20.0625 -1.421875 12.78125 6.34375 
Q 5.515625 14.109375 5.515625 27.296875 
Q 5.515625 40.671875 12.859375 48.328125 
Q 20.21875 56 33.015625 56 
Q 37.15625 56 41.109375 55.140625 
Q 45.0625 54.296875 48.78125 52.59375 
z
" id="DejaVuSans-99"/>
      <path d="M 46 62.703125 
L 46 35.5 
L 73.1875 35.5 
L 73.1875 27.203125 
L 46 27.203125 
L 46 0 
L 37.796875 0 
L 37.796875 27.203125 
L 10.59375 27.203125 
L 10.59375 35.5 
L 37.796875 35.5 
L 37.796875 62.703125 
z
" id="DejaVuSans-43"/>
      <path d="M 45.40625 46.390625 
L 45.40625 75.984375 
L 54.390625 75.984375 
L 54.390625 0 
L 45.40625 0 
L 45.40625 8.203125 
Q 42.578125 3.328125 38.25 0.953125 
Q 33.9375 -1.421875 27.875 -1.421875 
Q 17.96875 -1.421875 11.734375 6.484375 
Q 5.515625 14.40625 5.515625 27.296875 
Q 5.515625 40.1875 11.734375 48.09375 
Q 17.96875 56 27.875 56 
Q 33.9375 56 38.25 53.625 
Q 42.578125 51.265625 45.40625 46.390625 
z
M 14.796875 27.296875 
Q 14.796875 17.390625 18.875 11.75 
Q 22.953125 6.109375 30.078125 6.109375 
Q 37.203125 6.109375 41.296875 11.75 
Q 45.40625 17.390625 45.40625 27.296875 
Q 45.40625 37.203125 41.296875 42.84375 
Q 37.203125 48.484375 30.078125 48.484375 
Q 22.953125 48.484375 18.875 42.84375 
Q 14.796875 37.203125 14.796875 27.296875 
z
" id="DejaVuSans-100"/>
      <path d="M 9.421875 54.6875 
L 18.40625 54.6875 
L 18.40625 0 
L 9.421875 0 
z
M 9.421875 75.984375 
L 18.40625 75.984375 
L 18.40625 64.59375 
L 9.421875 64.59375 
z
" id="DejaVuSans-105"/>
      <path d="M 34.28125 27.484375 
Q 23.390625 27.484375 19.1875 25 
Q 14.984375 22.515625 14.984375 16.5 
Q 14.984375 11.71875 18.140625 8.90625 
Q 21.296875 6.109375 26.703125 6.109375 
Q 34.1875 6.109375 38.703125 11.40625 
Q 43.21875 16.703125 43.21875 25.484375 
L 43.21875 27.484375 
z
M 52.203125 31.203125 
L 52.203125 0 
L 43.21875 0 
L 43.21875 8.296875 
Q 40.140625 3.328125 35.546875 0.953125 
Q 30.953125 -1.421875 24.3125 -1.421875 
Q 15.921875 -1.421875 10.953125 3.296875 
Q 6 8.015625 6 15.921875 
Q 6 25.140625 12.171875 29.828125 
Q 18.359375 34.515625 30.609375 34.515625 
L 43.21875 34.515625 
L 43.21875 35.40625 
Q 43.21875 41.609375 39.140625 45 
Q 35.0625 48.390625 27.6875 48.390625 
Q 23 48.390625 18.546875 47.265625 
Q 14.109375 46.140625 10.015625 43.890625 
L 10.015625 52.203125 
Q 14.9375 54.109375 19.578125 55.046875 
Q 24.21875 56 28.609375 56 
Q 40.484375 56 46.34375 49.84375 
Q 52.203125 43.703125 52.203125 31.203125 
z
" id="DejaVuSans-97"/>
      <path d="M 45.40625 27.984375 
Q 45.40625 37.75 41.375 43.109375 
Q 37.359375 48.484375 30.078125 48.484375 
Q 22.859375 48.484375 18.828125 43.109375 
Q 14.796875 37.75 14.796875 27.984375 
Q 14.796875 18.265625 18.828125 12.890625 
Q 22.859375 7.515625 30.078125 7.515625 
Q 37.359375 7.515625 41.375 12.890625 
Q 45.40625 18.265625 45.40625 27.984375 
z
M 54.390625 6.78125 
Q 54.390625 -7.171875 48.1875 -13.984375 
Q 42 -20.796875 29.203125 -20.796875 
Q 24.46875 -20.796875 20.265625 -20.09375 
Q 16.0625 -19.390625 12.109375 -17.921875 
L 12.109375 -9.1875 
Q 16.0625 -11.328125 19.921875 -12.34375 
Q 23.78125 -13.375 27.78125 -13.375 
Q 36.625 -13.375 41.015625 -8.765625 
Q 45.40625 -4.15625 45.40625 5.171875 
L 45.40625 9.625 
Q 42.625 4.78125 38.28125 2.390625 
Q 33.9375 0 27.875 0 
Q 17.828125 0 11.671875 7.65625 
Q 5.515625 15.328125 5.515625 27.984375 
Q 5.515625 40.671875 11.671875 48.328125 
Q 17.828125 56 27.875 56 
Q 33.9375 56 38.28125 53.609375 
Q 42.625 51.21875 45.40625 46.390625 
L 45.40625 54.6875 
L 54.390625 54.6875 
z
" id="DejaVuSans-103"/>
     </defs>
     <g transform="translate(141.8 372.337812)scale(0.14 -0.14)">
      <use xlink:href="#DejaVuSans-118"/>
      <use x="59.179688" xlink:href="#DejaVuSans-101"/>
      <use x="120.703125" xlink:href="#DejaVuSans-99"/>
      <use x="175.683594" xlink:href="#DejaVuSans-43"/>
      <use x="259.472656" xlink:href="#DejaVuSans-100"/>
      <use x="322.949219" xlink:href="#DejaVuSans-105"/>
      <use x="350.732422" xlink:href="#DejaVuSans-97"/>
      <use x="412.011719" xlink:href="#DejaVuSans-103"/>
     </g>
    </g>
   </g>
  </g>
 </g>
 <defs>
  <clipPath id="pa992b25afa">
   <rect height="543.6" width="558" x="90" y="86.4"/>
  </clipPath>
 </defs>
</svg>
