<?xml version="1.0" encoding="utf-8" standalone="no"?>
<!DOCTYPE svg PUBLIC "-//W3C//DTD SVG 1.1//EN"
  "http://www.w3.org/Graphics/SVG/1.1/DTD/svg11.dtd">
<!-- Created with matplotlib (https://matplotlib.org/) -->
<svg height="720pt" version="1.1" viewBox="0 0 720 720" width="720pt" xmlns="http://www.w3.org/2000/svg" xmlns:xlink="http://www.w3.org/1999/xlink">
 <defs>
  <style type="text/css">
*{stroke-linecap:butt;stroke-linejoin:round;}
  </style>
 </defs>
 <g id="figure_1">
  <g id="patch_1">
   <path d="M 0 720 
L 720 720 
L 720 0 
L 0 0 
z
" style="fill:#ffffff;"/>
  </g>
  <g id="axes_1">
   <g id="patch_2">
    <path d="M 90 630 
L 648 630 
L 648 86.4 
L 90 86.4 
z
" style="fill:#ffffff;"/>
   </g>
   <g id="matplotlib.axis_1">
    <g id="xtick_1">
     <g id="line2d_1">
      <defs>
       <path d="M 0 0 
L 0 3.5 
" id="m4704c1477f" style="stroke:#000000;stroke-width:0.8;"/>
      </defs>
      <g>
       <use style="stroke:#000000;stroke-width:0.8;" x="115.363636" xlink:href="#m4704c1477f" y="630"/>
      </g>
     </g>
     <g id="text_1">
      <!-- 0 -->
      <defs>
       <path d="M 31.78125 66.40625 
Q 24.171875 66.40625 20.328125 58.90625 
Q 16.5 51.421875 16.5 36.375 
Q 16.5 21.390625 20.328125 13.890625 
Q 24.171875 6.390625 31.78125 6.390625 
Q 39.453125 6.390625 43.28125 13.890625 
Q 47.125 21.390625 47.125 36.375 
Q 47.125 51.421875 43.28125 58.90625 
Q 39.453125 66.40625 31.78125 66.40625 
z
M 31.78125 74.21875 
Q 44.046875 74.21875 50.515625 64.515625 
Q 56.984375 54.828125 56.984375 36.375 
Q 56.984375 17.96875 50.515625 8.265625 
Q 44.046875 -1.421875 31.78125 -1.421875 
Q 19.53125 -1.421875 13.0625 8.265625 
Q 6.59375 17.96875 6.59375 36.375 
Q 6.59375 54.828125 13.0625 64.515625 
Q 19.53125 74.21875 31.78125 74.21875 
z
" id="DejaVuSans-48"/>
      </defs>
      <g transform="translate(112.182386 644.598438)scale(0.1 -0.1)">
       <use xlink:href="#DejaVuSans-48"/>
      </g>
     </g>
    </g>
    <g id="xtick_2">
     <g id="line2d_2">
      <g>
       <use style="stroke:#000000;stroke-width:0.8;" x="216.818182" xlink:href="#m4704c1477f" y="630"/>
      </g>
     </g>
     <g id="text_2">
      <!-- 2 -->
      <defs>
       <path d="M 19.1875 8.296875 
L 53.609375 8.296875 
L 53.609375 0 
L 7.328125 0 
L 7.328125 8.296875 
Q 12.9375 14.109375 22.625 23.890625 
Q 32.328125 33.6875 34.8125 36.53125 
Q 39.546875 41.84375 41.421875 45.53125 
Q 43.3125 49.21875 43.3125 52.78125 
Q 43.3125 58.59375 39.234375 62.25 
Q 35.15625 65.921875 28.609375 65.921875 
Q 23.96875 65.921875 18.8125 64.3125 
Q 13.671875 62.703125 7.8125 59.421875 
L 7.8125 69.390625 
Q 13.765625 71.78125 18.9375 73 
Q 24.125 74.21875 28.421875 74.21875 
Q 39.75 74.21875 46.484375 68.546875 
Q 53.21875 62.890625 53.21875 53.421875 
Q 53.21875 48.921875 51.53125 44.890625 
Q 49.859375 40.875 45.40625 35.40625 
Q 44.1875 33.984375 37.640625 27.21875 
Q 31.109375 20.453125 19.1875 8.296875 
z
" id="DejaVuSans-50"/>
      </defs>
      <g transform="translate(213.636932 644.598438)scale(0.1 -0.1)">
       <use xlink:href="#DejaVuSans-50"/>
      </g>
     </g>
    </g>
    <g id="xtick_3">
     <g id="line2d_3">
      <g>
       <use style="stroke:#000000;stroke-width:0.8;" x="318.272727" xlink:href="#m4704c1477f" y="630"/>
      </g>
     </g>
     <g id="text_3">
      <!-- 4 -->
      <defs>
       <path d="M 37.796875 64.3125 
L 12.890625 25.390625 
L 37.796875 25.390625 
z
M 35.203125 72.90625 
L 47.609375 72.90625 
L 47.609375 25.390625 
L 58.015625 25.390625 
L 58.015625 17.1875 
L 47.609375 17.1875 
L 47.609375 0 
L 37.796875 0 
L 37.796875 17.1875 
L 4.890625 17.1875 
L 4.890625 26.703125 
z
" id="DejaVuSans-52"/>
      </defs>
      <g transform="translate(315.091477 644.598438)scale(0.1 -0.1)">
       <use xlink:href="#DejaVuSans-52"/>
      </g>
     </g>
    </g>
    <g id="xtick_4">
     <g id="line2d_4">
      <g>
       <use style="stroke:#000000;stroke-width:0.8;" x="419.727273" xlink:href="#m4704c1477f" y="630"/>
      </g>
     </g>
     <g id="text_4">
      <!-- 6 -->
      <defs>
       <path d="M 33.015625 40.375 
Q 26.375 40.375 22.484375 35.828125 
Q 18.609375 31.296875 18.609375 23.390625 
Q 18.609375 15.53125 22.484375 10.953125 
Q 26.375 6.390625 33.015625 6.390625 
Q 39.65625 6.390625 43.53125 10.953125 
Q 47.40625 15.53125 47.40625 23.390625 
Q 47.40625 31.296875 43.53125 35.828125 
Q 39.65625 40.375 33.015625 40.375 
z
M 52.59375 71.296875 
L 52.59375 62.3125 
Q 48.875 64.0625 45.09375 64.984375 
Q 41.3125 65.921875 37.59375 65.921875 
Q 27.828125 65.921875 22.671875 59.328125 
Q 17.53125 52.734375 16.796875 39.40625 
Q 19.671875 43.65625 24.015625 45.921875 
Q 28.375 48.1875 33.59375 48.1875 
Q 44.578125 48.1875 50.953125 41.515625 
Q 57.328125 34.859375 57.328125 23.390625 
Q 57.328125 12.15625 50.6875 5.359375 
Q 44.046875 -1.421875 33.015625 -1.421875 
Q 20.359375 -1.421875 13.671875 8.265625 
Q 6.984375 17.96875 6.984375 36.375 
Q 6.984375 53.65625 15.1875 63.9375 
Q 23.390625 74.21875 37.203125 74.21875 
Q 40.921875 74.21875 44.703125 73.484375 
Q 48.484375 72.75 52.59375 71.296875 
z
" id="DejaVuSans-54"/>
      </defs>
      <g transform="translate(416.546023 644.598438)scale(0.1 -0.1)">
       <use xlink:href="#DejaVuSans-54"/>
      </g>
     </g>
    </g>
    <g id="xtick_5">
     <g id="line2d_5">
      <g>
       <use style="stroke:#000000;stroke-width:0.8;" x="521.181818" xlink:href="#m4704c1477f" y="630"/>
      </g>
     </g>
     <g id="text_5">
      <!-- 8 -->
      <defs>
       <path d="M 31.78125 34.625 
Q 24.75 34.625 20.71875 30.859375 
Q 16.703125 27.09375 16.703125 20.515625 
Q 16.703125 13.921875 20.71875 10.15625 
Q 24.75 6.390625 31.78125 6.390625 
Q 38.8125 6.390625 42.859375 10.171875 
Q 46.921875 13.96875 46.921875 20.515625 
Q 46.921875 27.09375 42.890625 30.859375 
Q 38.875 34.625 31.78125 34.625 
z
M 21.921875 38.8125 
Q 15.578125 40.375 12.03125 44.71875 
Q 8.5 49.078125 8.5 55.328125 
Q 8.5 64.0625 14.71875 69.140625 
Q 20.953125 74.21875 31.78125 74.21875 
Q 42.671875 74.21875 48.875 69.140625 
Q 55.078125 64.0625 55.078125 55.328125 
Q 55.078125 49.078125 51.53125 44.71875 
Q 48 40.375 41.703125 38.8125 
Q 48.828125 37.15625 52.796875 32.3125 
Q 56.78125 27.484375 56.78125 20.515625 
Q 56.78125 9.90625 50.3125 4.234375 
Q 43.84375 -1.421875 31.78125 -1.421875 
Q 19.734375 -1.421875 13.25 4.234375 
Q 6.78125 9.90625 6.78125 20.515625 
Q 6.78125 27.484375 10.78125 32.3125 
Q 14.796875 37.15625 21.921875 38.8125 
z
M 18.3125 54.390625 
Q 18.3125 48.734375 21.84375 45.5625 
Q 25.390625 42.390625 31.78125 42.390625 
Q 38.140625 42.390625 41.71875 45.5625 
Q 45.3125 48.734375 45.3125 54.390625 
Q 45.3125 60.0625 41.71875 63.234375 
Q 38.140625 66.40625 31.78125 66.40625 
Q 25.390625 66.40625 21.84375 63.234375 
Q 18.3125 60.0625 18.3125 54.390625 
z
" id="DejaVuSans-56"/>
      </defs>
      <g transform="translate(518.000568 644.598438)scale(0.1 -0.1)">
       <use xlink:href="#DejaVuSans-56"/>
      </g>
     </g>
    </g>
    <g id="xtick_6">
     <g id="line2d_6">
      <g>
       <use style="stroke:#000000;stroke-width:0.8;" x="622.636364" xlink:href="#m4704c1477f" y="630"/>
      </g>
     </g>
     <g id="text_6">
      <!-- 10 -->
      <defs>
       <path d="M 12.40625 8.296875 
L 28.515625 8.296875 
L 28.515625 63.921875 
L 10.984375 60.40625 
L 10.984375 69.390625 
L 28.421875 72.90625 
L 38.28125 72.90625 
L 38.28125 8.296875 
L 54.390625 8.296875 
L 54.390625 0 
L 12.40625 0 
z
" id="DejaVuSans-49"/>
      </defs>
      <g transform="translate(616.273864 644.598438)scale(0.1 -0.1)">
       <use xlink:href="#DejaVuSans-49"/>
       <use x="63.623047" xlink:href="#DejaVuSans-48"/>
      </g>
     </g>
    </g>
    <g id="text_7">
     <!-- t -->
     <defs>
      <path d="M 18.3125 70.21875 
L 18.3125 54.6875 
L 36.8125 54.6875 
L 36.8125 47.703125 
L 18.3125 47.703125 
L 18.3125 18.015625 
Q 18.3125 11.328125 20.140625 9.421875 
Q 21.96875 7.515625 27.59375 7.515625 
L 36.8125 7.515625 
L 36.8125 0 
L 27.59375 0 
Q 17.1875 0 13.234375 3.875 
Q 9.28125 7.765625 9.28125 18.015625 
L 9.28125 47.703125 
L 2.6875 47.703125 
L 2.6875 54.6875 
L 9.28125 54.6875 
L 9.28125 70.21875 
z
" id="DejaVuSans-116"/>
     </defs>
     <g transform="translate(366.255781 661.315938)scale(0.14 -0.14)">
      <use xlink:href="#DejaVuSans-116"/>
     </g>
    </g>
   </g>
   <g id="matplotlib.axis_2">
    <g id="ytick_1">
     <g id="line2d_7">
      <defs>
       <path d="M 0 0 
L -3.5 0 
" id="m243a126390" style="stroke:#000000;stroke-width:0.8;"/>
      </defs>
      <g>
       <use style="stroke:#000000;stroke-width:0.8;" x="90" xlink:href="#m243a126390" y="605.290909"/>
      </g>
     </g>
     <g id="text_8">
      <!-- 0 -->
      <g transform="translate(76.6375 609.090128)scale(0.1 -0.1)">
       <use xlink:href="#DejaVuSans-48"/>
      </g>
     </g>
    </g>
    <g id="ytick_2">
     <g id="line2d_8">
      <g>
       <use style="stroke:#000000;stroke-width:0.8;" x="90" xlink:href="#m243a126390" y="538.726948"/>
      </g>
     </g>
     <g id="text_9">
      <!-- 5 -->
      <defs>
       <path d="M 10.796875 72.90625 
L 49.515625 72.90625 
L 49.515625 64.59375 
L 19.828125 64.59375 
L 19.828125 46.734375 
Q 21.96875 47.46875 24.109375 47.828125 
Q 26.265625 48.1875 28.421875 48.1875 
Q 40.625 48.1875 47.75 41.5 
Q 54.890625 34.8125 54.890625 23.390625 
Q 54.890625 11.625 47.5625 5.09375 
Q 40.234375 -1.421875 26.90625 -1.421875 
Q 22.3125 -1.421875 17.546875 -0.640625 
Q 12.796875 0.140625 7.71875 1.703125 
L 7.71875 11.625 
Q 12.109375 9.234375 16.796875 8.0625 
Q 21.484375 6.890625 26.703125 6.890625 
Q 35.15625 6.890625 40.078125 11.328125 
Q 45.015625 15.765625 45.015625 23.390625 
Q 45.015625 31 40.078125 35.4375 
Q 35.15625 39.890625 26.703125 39.890625 
Q 22.75 39.890625 18.8125 39.015625 
Q 14.890625 38.140625 10.796875 36.28125 
z
" id="DejaVuSans-53"/>
      </defs>
      <g transform="translate(76.6375 542.526167)scale(0.1 -0.1)">
       <use xlink:href="#DejaVuSans-53"/>
      </g>
     </g>
    </g>
    <g id="ytick_3">
     <g id="line2d_9">
      <g>
       <use style="stroke:#000000;stroke-width:0.8;" x="90" xlink:href="#m243a126390" y="472.162987"/>
      </g>
     </g>
     <g id="text_10">
      <!-- 10 -->
      <g transform="translate(70.275 475.962206)scale(0.1 -0.1)">
       <use xlink:href="#DejaVuSans-49"/>
       <use x="63.623047" xlink:href="#DejaVuSans-48"/>
      </g>
     </g>
    </g>
    <g id="ytick_4">
     <g id="line2d_10">
      <g>
       <use style="stroke:#000000;stroke-width:0.8;" x="90" xlink:href="#m243a126390" y="405.599026"/>
      </g>
     </g>
     <g id="text_11">
      <!-- 15 -->
      <g transform="translate(70.275 409.398244)scale(0.1 -0.1)">
       <use xlink:href="#DejaVuSans-49"/>
       <use x="63.623047" xlink:href="#DejaVuSans-53"/>
      </g>
     </g>
    </g>
    <g id="ytick_5">
     <g id="line2d_11">
      <g>
       <use style="stroke:#000000;stroke-width:0.8;" x="90" xlink:href="#m243a126390" y="339.035065"/>
      </g>
     </g>
     <g id="text_12">
      <!-- 20 -->
      <g transform="translate(70.275 342.834283)scale(0.1 -0.1)">
       <use xlink:href="#DejaVuSans-50"/>
       <use x="63.623047" xlink:href="#DejaVuSans-48"/>
      </g>
     </g>
    </g>
    <g id="ytick_6">
     <g id="line2d_12">
      <g>
       <use style="stroke:#000000;stroke-width:0.8;" x="90" xlink:href="#m243a126390" y="272.471103"/>
      </g>
     </g>
     <g id="text_13">
      <!-- 25 -->
      <g transform="translate(70.275 276.270322)scale(0.1 -0.1)">
       <use xlink:href="#DejaVuSans-50"/>
       <use x="63.623047" xlink:href="#DejaVuSans-53"/>
      </g>
     </g>
    </g>
    <g id="ytick_7">
     <g id="line2d_13">
      <g>
       <use style="stroke:#000000;stroke-width:0.8;" x="90" xlink:href="#m243a126390" y="205.907142"/>
      </g>
     </g>
     <g id="text_14">
      <!-- 30 -->
      <defs>
       <path d="M 40.578125 39.3125 
Q 47.65625 37.796875 51.625 33 
Q 55.609375 28.21875 55.609375 21.1875 
Q 55.609375 10.40625 48.1875 4.484375 
Q 40.765625 -1.421875 27.09375 -1.421875 
Q 22.515625 -1.421875 17.65625 -0.515625 
Q 12.796875 0.390625 7.625 2.203125 
L 7.625 11.71875 
Q 11.71875 9.328125 16.59375 8.109375 
Q 21.484375 6.890625 26.8125 6.890625 
Q 36.078125 6.890625 40.9375 10.546875 
Q 45.796875 14.203125 45.796875 21.1875 
Q 45.796875 27.640625 41.28125 31.265625 
Q 36.765625 34.90625 28.71875 34.90625 
L 20.21875 34.90625 
L 20.21875 43.015625 
L 29.109375 43.015625 
Q 36.375 43.015625 40.234375 45.921875 
Q 44.09375 48.828125 44.09375 54.296875 
Q 44.09375 59.90625 40.109375 62.90625 
Q 36.140625 65.921875 28.71875 65.921875 
Q 24.65625 65.921875 20.015625 65.03125 
Q 15.375 64.15625 9.8125 62.3125 
L 9.8125 71.09375 
Q 15.4375 72.65625 20.34375 73.4375 
Q 25.25 74.21875 29.59375 74.21875 
Q 40.828125 74.21875 47.359375 69.109375 
Q 53.90625 64.015625 53.90625 55.328125 
Q 53.90625 49.265625 50.4375 45.09375 
Q 46.96875 40.921875 40.578125 39.3125 
z
" id="DejaVuSans-51"/>
      </defs>
      <g transform="translate(70.275 209.706361)scale(0.1 -0.1)">
       <use xlink:href="#DejaVuSans-51"/>
       <use x="63.623047" xlink:href="#DejaVuSans-48"/>
      </g>
     </g>
    </g>
    <g id="ytick_8">
     <g id="line2d_14">
      <g>
       <use style="stroke:#000000;stroke-width:0.8;" x="90" xlink:href="#m243a126390" y="139.343181"/>
      </g>
     </g>
     <g id="text_15">
      <!-- 35 -->
      <g transform="translate(70.275 143.1424)scale(0.1 -0.1)">
       <use xlink:href="#DejaVuSans-51"/>
       <use x="63.623047" xlink:href="#DejaVuSans-53"/>
      </g>
     </g>
    </g>
    <g id="text_16">
     <!-- $\sqrt{&lt;x^2(t)&gt;}$ -->
     <defs>
      <path d="M 108.90625 155.203125 
L 52.703125 -29.5 
L 48.5 -29.5 
L 25.40625 45.59375 
Q 24.296875 49.203125 22.890625 50.796875 
Q 21.5 52.40625 19.203125 52.40625 
Q 15.796875 52.40625 12.40625 49.703125 
L 11.203125 51.703125 
L 27.59375 64.296875 
L 30.09375 64.296875 
L 52.796875 -9.40625 
L 53.203125 -9.40625 
L 103.203125 155.203125 
z
" id="STIXSizeOneSym-Regular-8730"/>
      <path d="M 73.1875 49.21875 
L 22.796875 31.296875 
L 73.1875 13.484375 
L 73.1875 4.59375 
L 10.59375 27.296875 
L 10.59375 35.40625 
L 73.1875 58.109375 
z
" id="DejaVuSans-60"/>
      <path d="M 60.015625 54.6875 
L 34.90625 27.875 
L 50.296875 0 
L 39.984375 0 
L 28.421875 21.6875 
L 8.296875 0 
L -2.59375 0 
L 24.3125 28.8125 
L 10.015625 54.6875 
L 20.3125 54.6875 
L 30.8125 34.90625 
L 49.125 54.6875 
z
" id="DejaVuSans-Oblique-120"/>
      <path d="M 31 75.875 
Q 24.46875 64.65625 21.28125 53.65625 
Q 18.109375 42.671875 18.109375 31.390625 
Q 18.109375 20.125 21.3125 9.0625 
Q 24.515625 -2 31 -13.1875 
L 23.1875 -13.1875 
Q 15.875 -1.703125 12.234375 9.375 
Q 8.59375 20.453125 8.59375 31.390625 
Q 8.59375 42.28125 12.203125 53.3125 
Q 15.828125 64.359375 23.1875 75.875 
z
" id="DejaVuSans-40"/>
      <path d="M 42.28125 54.6875 
L 40.921875 47.703125 
L 23 47.703125 
L 17.1875 18.015625 
Q 16.890625 16.359375 16.75 15.234375 
Q 16.609375 14.109375 16.609375 13.484375 
Q 16.609375 10.359375 18.484375 8.9375 
Q 20.359375 7.515625 24.515625 7.515625 
L 33.59375 7.515625 
L 32.078125 0 
L 23.484375 0 
Q 15.484375 0 11.546875 3.125 
Q 7.625 6.25 7.625 12.59375 
Q 7.625 13.71875 7.765625 15.0625 
Q 7.90625 16.40625 8.203125 18.015625 
L 14.015625 47.703125 
L 6.390625 47.703125 
L 7.8125 54.6875 
L 15.28125 54.6875 
L 18.3125 70.21875 
L 27.296875 70.21875 
L 24.3125 54.6875 
z
" id="DejaVuSans-Oblique-116"/>
      <path d="M 8.015625 75.875 
L 15.828125 75.875 
Q 23.140625 64.359375 26.78125 53.3125 
Q 30.421875 42.28125 30.421875 31.390625 
Q 30.421875 20.453125 26.78125 9.375 
Q 23.140625 -1.703125 15.828125 -13.1875 
L 8.015625 -13.1875 
Q 14.5 -2 17.703125 9.0625 
Q 20.90625 20.125 20.90625 31.390625 
Q 20.90625 42.671875 17.703125 53.65625 
Q 14.5 64.65625 8.015625 75.875 
z
" id="DejaVuSans-41"/>
      <path d="M 10.59375 49.21875 
L 10.59375 58.109375 
L 73.1875 35.40625 
L 73.1875 27.296875 
L 10.59375 4.59375 
L 10.59375 13.484375 
L 60.890625 31.296875 
z
" id="DejaVuSans-62"/>
     </defs>
     <g transform="translate(63.363438 398.52)rotate(-90)scale(0.14 -0.14)">
      <use transform="translate(0 8.84375)scale(0.729126)" xlink:href="#STIXSizeOneSym-Regular-8730"/>
      <use transform="translate(109.044327 0.515625)" xlink:href="#DejaVuSans-60"/>
      <use transform="translate(212.315811 0.515625)" xlink:href="#DejaVuSans-Oblique-120"/>
      <use transform="translate(275.961644 38.796875)scale(0.7)" xlink:href="#DejaVuSans-50"/>
      <use transform="translate(323.232152 0.515625)" xlink:href="#DejaVuSans-40"/>
      <use transform="translate(362.245824 0.515625)" xlink:href="#DejaVuSans-Oblique-116"/>
      <use transform="translate(401.454809 0.515625)" xlink:href="#DejaVuSans-41"/>
      <use transform="translate(459.950902 0.515625)" xlink:href="#DejaVuSans-62"/>
      <path d="M 77.061905 115.5 
L 77.061905 121.75 
L 575.722387 121.75 
L 575.722387 115.5 
L 77.061905 115.5 
z
"/>
     </g>
    </g>
   </g>
   <g id="line2d_15">
    <path clip-path="url(#p88a946b471)" d="M 115.363636 605.290909 
L 230.007273 180.150963 
L 233.050909 169.666057 
L 235.08 163.359752 
L 236.601818 159.254065 
L 237.616364 156.930487 
L 238.630909 155.019917 
L 239.645455 153.59466 
L 240.66 152.72249 
L 241.167273 152.511878 
L 241.674545 152.458863 
L 242.181818 152.566853 
L 242.689091 152.83718 
L 243.196364 153.268712 
L 244.210909 154.596258 
L 245.225455 156.476834 
L 246.747273 160.021141 
L 248.776364 164.84996 
L 249.790909 166.586974 
L 250.298182 167.126151 
L 250.805455 167.385381 
L 251.312727 167.323068 
L 251.82 166.902699 
L 252.327273 166.09464 
L 252.834545 164.877851 
L 253.341818 163.241419 
L 254.356364 158.723698 
L 255.370909 152.693918 
L 256.892727 141.626408 
L 259.429091 122.665762 
L 260.443636 116.832959 
L 260.950909 114.588559 
L 261.458182 112.86423 
L 261.965455 111.697498 
L 262.472727 111.110593 
L 262.98 111.109091 
L 263.487273 111.680931 
L 263.994545 112.795875 
L 264.501818 114.405502 
L 265.516364 118.828431 
L 268.56 134.436878 
L 269.067273 136.208102 
L 269.574545 137.491015 
L 270.081818 138.233907 
L 270.589091 138.412747 
L 271.096364 138.033215 
L 271.603636 137.130877 
L 272.110909 135.769457 
L 273.125455 132.042368 
L 275.154545 123.92344 
L 275.661818 122.469014 
L 276.169091 121.448555 
L 276.676364 120.929104 
L 277.183636 120.951619 
L 277.690909 121.528819 
L 278.198182 122.644277 
L 278.705455 124.252824 
L 279.72 128.636924 
L 282.256364 140.961587 
L 282.763636 142.662746 
L 283.270909 143.883181 
L 283.778182 144.580545 
L 284.285455 144.748484 
L 284.792727 144.417356 
L 285.3 143.652066 
L 286.314545 141.219939 
L 287.836364 137.23022 
L 288.343636 136.326646 
L 288.850909 135.814271 
L 289.358182 135.76335 
L 289.865455 136.21294 
L 290.372727 137.168483 
L 290.88 138.601378 
L 291.894545 142.626376 
L 294.430909 154.09794 
L 294.938182 155.643003 
L 295.445455 156.727642 
L 295.952727 157.324528 
L 296.46 157.445691 
L 296.967273 157.141497 
L 297.474545 156.496211 
L 299.503636 152.912319 
L 300.010909 152.405751 
L 300.518182 152.269558 
L 301.025455 152.56683 
L 301.532727 153.326542 
L 302.04 154.54153 
L 303.054545 158.133724 
L 305.590909 168.969756 
L 306.098182 170.490777 
L 306.605455 171.588344 
L 307.112727 172.237144 
L 307.62 172.452024 
L 308.127273 172.286504 
L 308.634545 171.827532 
L 310.156364 169.871271 
L 310.663636 169.446773 
L 311.170909 169.32106 
L 311.678182 169.569874 
L 312.185455 170.235948 
L 312.692727 171.325696 
L 313.707273 174.620691 
L 316.243636 184.819722 
L 316.750909 186.273178 
L 317.258182 187.332884 
L 317.765455 187.977898 
L 318.272727 188.22727 
L 318.78 188.137969 
L 319.287273 187.798883 
L 320.809091 186.445391 
L 321.316364 186.28017 
L 321.823636 186.422918 
L 322.330909 186.932922 
L 322.838182 187.834668 
L 323.345455 189.115854 
L 324.36 192.593609 
L 326.389091 200.359215 
L 326.896364 201.815686 
L 327.403636 202.914069 
L 327.910909 203.628151 
L 328.418182 203.970974 
L 328.925455 203.993276 
L 329.432727 203.777824 
L 330.954545 202.809482 
L 331.461818 202.758487 
L 331.969091 202.998691 
L 332.476364 203.583367 
L 332.983636 204.531099 
L 333.998182 207.410542 
L 336.534545 216.350895 
L 337.041818 217.606416 
L 337.549091 218.513903 
L 338.056364 219.063792 
L 338.563636 219.284654 
L 339.070909 219.239788 
L 341.1 218.404282 
L 341.607273 218.558419 
L 342.114545 219.017263 
L 342.621818 219.811033 
L 343.129091 220.934679 
L 344.143636 223.9823 
L 346.172727 230.703877 
L 346.68 231.928114 
L 347.187273 232.831108 
L 347.694545 233.398566 
L 348.201818 233.6533 
L 348.709091 233.65238 
L 350.738182 232.974224 
L 351.245455 233.137636 
L 351.752727 233.585811 
L 352.26 234.346326 
L 352.767273 235.412431 
L 353.781818 238.27128 
L 355.303636 243.067258 
L 356.318182 245.471105 
L 356.825455 246.232561 
L 357.332727 246.681063 
L 357.84 246.846456 
L 358.347273 246.790366 
L 359.869091 246.209301 
L 360.376364 246.206522 
L 360.883636 246.435941 
L 361.390909 246.943704 
L 361.898182 247.743992 
L 362.912727 250.114572 
L 364.941818 255.82262 
L 365.449091 256.914991 
L 365.956364 257.733593 
L 366.463636 258.256503 
L 366.970909 258.496296 
L 367.478182 258.498308 
L 368.492727 258.096119 
L 369.507273 257.777634 
L 370.014545 257.868508 
L 370.521818 258.206209 
L 371.029091 258.815407 
L 371.536364 259.688765 
L 372.550909 262.047823 
L 374.072727 265.912004 
L 375.087273 267.702448 
L 375.594545 268.197963 
L 376.101818 268.422117 
L 376.609091 268.411533 
L 377.623636 267.960721 
L 378.638182 267.522581 
L 379.145455 267.519527 
L 379.652727 267.740762 
L 380.16 268.213405 
L 380.667273 268.93401 
L 381.681818 270.959288 
L 383.203636 274.335062 
L 383.710909 275.213773 
L 384.218182 275.861214 
L 384.725455 276.250024 
L 385.232727 276.384114 
L 385.74 276.297973 
L 386.754545 275.724736 
L 387.769091 275.169691 
L 388.276364 275.097076 
L 388.783636 275.235023 
L 389.290909 275.607058 
L 389.798182 276.207494 
L 390.812727 277.933067 
L 392.334545 280.755183 
L 392.841818 281.443953 
L 393.349091 281.910317 
L 393.856364 282.133302 
L 394.363636 282.12173 
L 394.870909 281.912856 
L 396.9 280.487963 
L 397.407273 280.36107 
L 397.914545 280.436472 
L 398.421818 280.729546 
L 398.929091 281.227885 
L 399.943636 282.664844 
L 400.958182 284.228408 
L 401.465455 284.867437 
L 401.972727 285.327294 
L 402.48 285.570633 
L 402.987273 285.58693 
L 403.494545 285.393689 
L 404.509091 284.570184 
L 405.523636 283.628321 
L 406.030909 283.293706 
L 406.538182 283.124381 
L 407.045455 283.149888 
L 407.552727 283.374156 
L 408.567273 284.308135 
L 410.089091 286.035222 
L 410.596364 286.421629 
L 411.103636 286.623012 
L 411.610909 286.615948 
L 412.118182 286.403061 
L 413.132727 285.493753 
L 414.654545 283.834346 
L 415.161818 283.463616 
L 415.669091 283.261256 
L 416.176364 283.242271 
L 416.683636 283.397217 
L 417.698182 284.079959 
L 418.712727 284.863782 
L 419.22 285.130121 
L 419.727273 285.241303 
L 420.234545 285.166438 
L 420.741818 284.898094 
L 421.756364 283.87003 
L 423.785455 281.339488 
L 424.292727 280.944057 
L 424.8 280.713462 
L 425.307273 280.646825 
L 426.321818 280.894202 
L 427.843636 281.425741 
L 428.350909 281.413966 
L 428.858182 281.238124 
L 429.365455 280.884818 
L 430.38 279.703093 
L 432.409091 276.723557 
L 433.423636 275.751247 
L 433.930909 275.489176 
L 434.945455 275.33337 
L 436.467273 275.329792 
L 436.974545 275.176141 
L 437.481818 274.877939 
L 437.989091 274.418989 
L 439.003636 273.055829 
L 441.54 268.963215 
L 442.554545 267.96156 
L 443.569091 267.441032 
L 445.090909 266.912575 
L 446.105455 266.176919 
L 447.12 264.880543 
L 448.134545 263.108209 
L 450.163636 259.443122 
L 451.178182 258.162244 
L 452.192727 257.319428 
L 453.714545 256.297879 
L 454.729091 255.278183 
L 455.743636 253.753152 
L 457.265455 250.737395 
L 458.787273 247.756419 
L 459.801818 246.22697 
L 460.816364 245.086637 
L 462.845455 242.978288 
L 463.86 241.446232 
L 464.874545 239.472404 
L 467.410909 234.047657 
L 468.425455 232.358258 
L 469.947273 230.433973 
L 471.469091 228.496945 
L 472.483636 226.7727 
L 473.498182 224.624698 
L 476.541818 217.592497 
L 478.063636 214.833505 
L 480.092727 211.34402 
L 481.614545 208.135761 
L 484.150909 202.528698 
L 485.165455 200.859191 
L 486.18 199.631924 
L 488.209091 197.61827 
L 489.223636 196.202792 
L 490.238182 194.234315 
L 491.252727 191.732358 
L 495.818182 179.35584 
L 496.832727 177.25567 
L 497.847273 175.563757 
L 498.861818 174.440559 
L 499.369091 174.160828 
L 499.876364 174.106299 
L 500.383636 174.298908 
L 500.890909 174.750905 
L 501.398182 175.461242 
L 502.412727 177.571527 
L 505.456364 185.185796 
L 505.963636 185.839799 
L 506.470909 186.148327 
L 506.978182 186.085979 
L 507.485455 185.650437 
L 507.992727 184.861888 
L 509.007273 182.401989 
L 510.529091 177.470584 
L 512.050909 172.678994 
L 513.065455 170.252567 
L 513.572727 169.357905 
L 514.08 168.692239 
L 514.587273 168.257637 
L 515.094545 168.048659 
L 515.601818 168.052601 
L 516.109091 168.249334 
L 517.123636 169.100814 
L 519.152727 171.327262 
L 519.66 171.640999 
L 520.167273 171.727452 
L 520.674545 171.530462 
L 521.181818 171.007257 
L 521.689091 170.133402 
L 522.196364 168.906659 
L 523.210909 165.50747 
L 526.254545 153.247812 
L 526.761818 151.89464 
L 527.269091 150.940328 
L 527.776364 150.415943 
L 528.283636 150.327146 
L 528.790909 150.654746 
L 529.298182 151.357047 
L 530.312727 153.631174 
L 533.356364 161.892947 
L 534.370909 163.610245 
L 535.385455 164.619781 
L 536.4 165.107593 
L 539.950909 166.022267 
L 541.472727 166.86703 
L 542.994545 167.709532 
L 544.009091 167.97629 
L 544.516364 167.954316 
L 545.023636 167.809194 
L 546.038182 167.145659 
L 547.56 165.53582 
L 548.574545 164.60337 
L 549.081818 164.376654 
L 549.589091 164.40149 
L 550.096364 164.737825 
L 550.603636 165.431358 
L 551.110909 166.508259 
L 551.618182 167.971004 
L 552.632727 171.931695 
L 555.676364 185.858718 
L 556.183636 187.316964 
L 556.690909 188.292477 
L 557.198182 188.756663 
L 557.705455 188.716562 
L 558.212727 188.213634 
L 558.72 187.319309 
L 559.734545 184.748 
L 561.256364 180.583044 
L 561.763636 179.505887 
L 562.270909 178.699178 
L 562.778182 178.198364 
L 563.285455 178.01604 
L 563.792727 178.143943 
L 564.3 178.556278 
L 564.807273 179.213947 
L 565.821818 181.07051 
L 569.372727 188.630496 
L 570.894545 191.087075 
L 572.416364 193.103902 
L 573.938182 194.820263 
L 575.46 196.176839 
L 576.474545 196.775002 
L 577.489091 197.062932 
L 578.503636 197.058895 
L 580.532727 196.859377 
L 581.04 196.997372 
L 581.547273 197.306515 
L 582.054545 197.831999 
L 582.561818 198.610307 
L 583.069091 199.664588 
L 584.083636 202.603265 
L 585.098182 206.437798 
L 587.127273 214.361396 
L 587.634545 215.814481 
L 588.141818 216.877923 
L 588.649091 217.500029 
L 589.156364 217.662414 
L 589.663636 217.383406 
L 590.170909 216.717764 
L 591.185455 214.600318 
L 592.2 212.248857 
L 592.707273 211.307025 
L 593.214545 210.671283 
L 593.721818 210.424677 
L 594.229091 210.618763 
L 594.736364 211.270091 
L 595.243636 212.359472 
L 596.258182 215.611714 
L 598.794545 225.138113 
L 599.301818 226.420398 
L 599.809091 227.329824 
L 600.316364 227.8534 
L 600.823636 228.009366 
L 601.330909 227.843409 
L 601.838182 227.422521 
L 602.852727 226.144305 
L 603.867273 224.842603 
L 604.374545 224.361799 
L 604.881818 224.060682 
L 605.389091 223.967025 
L 605.896364 224.091145 
L 606.403636 224.427623 
L 606.910909 224.958006 
L 607.925455 226.481589 
L 609.954545 230.380878 
L 611.476364 233.119831 
L 612.490909 234.621919 
L 613.505455 235.833494 
L 614.52 236.767487 
L 615.534545 237.446418 
L 616.549091 237.895573 
L 618.070909 238.227694 
L 620.1 238.520898 
L 621.114545 238.967436 
L 622.129091 239.877455 
L 622.636364 240.555061 
L 622.636364 240.555061 
" style="fill:none;stroke:#000000;stroke-linecap:square;stroke-width:1.5;"/>
   </g>
   <g id="patch_3">
    <path d="M 90 630 
L 90 86.4 
" style="fill:none;stroke:#000000;stroke-linecap:square;stroke-linejoin:miter;stroke-width:0.8;"/>
   </g>
   <g id="patch_4">
    <path d="M 648 630 
L 648 86.4 
" style="fill:none;stroke:#000000;stroke-linecap:square;stroke-linejoin:miter;stroke-width:0.8;"/>
   </g>
   <g id="patch_5">
    <path d="M 90 630 
L 648 630 
" style="fill:none;stroke:#000000;stroke-linecap:square;stroke-linejoin:miter;stroke-width:0.8;"/>
   </g>
   <g id="patch_6">
    <path d="M 90 86.4 
L 648 86.4 
" style="fill:none;stroke:#000000;stroke-linecap:square;stroke-linejoin:miter;stroke-width:0.8;"/>
   </g>
   <g id="text_17">
    <!-- Reflection due to the end of the chain -->
    <defs>
     <path d="M 44.390625 34.1875 
Q 47.5625 33.109375 50.5625 29.59375 
Q 53.5625 26.078125 56.59375 19.921875 
L 66.609375 0 
L 56 0 
L 46.6875 18.703125 
Q 43.0625 26.03125 39.671875 28.421875 
Q 36.28125 30.8125 30.421875 30.8125 
L 19.671875 30.8125 
L 19.671875 0 
L 9.8125 0 
L 9.8125 72.90625 
L 32.078125 72.90625 
Q 44.578125 72.90625 50.734375 67.671875 
Q 56.890625 62.453125 56.890625 51.90625 
Q 56.890625 45.015625 53.6875 40.46875 
Q 50.484375 35.9375 44.390625 34.1875 
z
M 19.671875 64.796875 
L 19.671875 38.921875 
L 32.078125 38.921875 
Q 39.203125 38.921875 42.84375 42.21875 
Q 46.484375 45.515625 46.484375 51.90625 
Q 46.484375 58.296875 42.84375 61.546875 
Q 39.203125 64.796875 32.078125 64.796875 
z
" id="DejaVuSans-82"/>
     <path d="M 56.203125 29.59375 
L 56.203125 25.203125 
L 14.890625 25.203125 
Q 15.484375 15.921875 20.484375 11.0625 
Q 25.484375 6.203125 34.421875 6.203125 
Q 39.59375 6.203125 44.453125 7.46875 
Q 49.3125 8.734375 54.109375 11.28125 
L 54.109375 2.78125 
Q 49.265625 0.734375 44.1875 -0.34375 
Q 39.109375 -1.421875 33.890625 -1.421875 
Q 20.796875 -1.421875 13.15625 6.1875 
Q 5.515625 13.8125 5.515625 26.8125 
Q 5.515625 40.234375 12.765625 48.109375 
Q 20.015625 56 32.328125 56 
Q 43.359375 56 49.78125 48.890625 
Q 56.203125 41.796875 56.203125 29.59375 
z
M 47.21875 32.234375 
Q 47.125 39.59375 43.09375 43.984375 
Q 39.0625 48.390625 32.421875 48.390625 
Q 24.90625 48.390625 20.390625 44.140625 
Q 15.875 39.890625 15.1875 32.171875 
z
" id="DejaVuSans-101"/>
     <path d="M 37.109375 75.984375 
L 37.109375 68.5 
L 28.515625 68.5 
Q 23.6875 68.5 21.796875 66.546875 
Q 19.921875 64.59375 19.921875 59.515625 
L 19.921875 54.6875 
L 34.71875 54.6875 
L 34.71875 47.703125 
L 19.921875 47.703125 
L 19.921875 0 
L 10.890625 0 
L 10.890625 47.703125 
L 2.296875 47.703125 
L 2.296875 54.6875 
L 10.890625 54.6875 
L 10.890625 58.5 
Q 10.890625 67.625 15.140625 71.796875 
Q 19.390625 75.984375 28.609375 75.984375 
z
" id="DejaVuSans-102"/>
     <path d="M 9.421875 75.984375 
L 18.40625 75.984375 
L 18.40625 0 
L 9.421875 0 
z
" id="DejaVuSans-108"/>
     <path d="M 48.78125 52.59375 
L 48.78125 44.1875 
Q 44.96875 46.296875 41.140625 47.34375 
Q 37.3125 48.390625 33.40625 48.390625 
Q 24.65625 48.390625 19.8125 42.84375 
Q 14.984375 37.3125 14.984375 27.296875 
Q 14.984375 17.28125 19.8125 11.734375 
Q 24.65625 6.203125 33.40625 6.203125 
Q 37.3125 6.203125 41.140625 7.25 
Q 44.96875 8.296875 48.78125 10.40625 
L 48.78125 2.09375 
Q 45.015625 0.34375 40.984375 -0.53125 
Q 36.96875 -1.421875 32.421875 -1.421875 
Q 20.0625 -1.421875 12.78125 6.34375 
Q 5.515625 14.109375 5.515625 27.296875 
Q 5.515625 40.671875 12.859375 48.328125 
Q 20.21875 56 33.015625 56 
Q 37.15625 56 41.109375 55.140625 
Q 45.0625 54.296875 48.78125 52.59375 
z
" id="DejaVuSans-99"/>
     <path d="M 9.421875 54.6875 
L 18.40625 54.6875 
L 18.40625 0 
L 9.421875 0 
z
M 9.421875 75.984375 
L 18.40625 75.984375 
L 18.40625 64.59375 
L 9.421875 64.59375 
z
" id="DejaVuSans-105"/>
     <path d="M 30.609375 48.390625 
Q 23.390625 48.390625 19.1875 42.75 
Q 14.984375 37.109375 14.984375 27.296875 
Q 14.984375 17.484375 19.15625 11.84375 
Q 23.34375 6.203125 30.609375 6.203125 
Q 37.796875 6.203125 41.984375 11.859375 
Q 46.1875 17.53125 46.1875 27.296875 
Q 46.1875 37.015625 41.984375 42.703125 
Q 37.796875 48.390625 30.609375 48.390625 
z
M 30.609375 56 
Q 42.328125 56 49.015625 48.375 
Q 55.71875 40.765625 55.71875 27.296875 
Q 55.71875 13.875 49.015625 6.21875 
Q 42.328125 -1.421875 30.609375 -1.421875 
Q 18.84375 -1.421875 12.171875 6.21875 
Q 5.515625 13.875 5.515625 27.296875 
Q 5.515625 40.765625 12.171875 48.375 
Q 18.84375 56 30.609375 56 
z
" id="DejaVuSans-111"/>
     <path d="M 54.890625 33.015625 
L 54.890625 0 
L 45.90625 0 
L 45.90625 32.71875 
Q 45.90625 40.484375 42.875 44.328125 
Q 39.84375 48.1875 33.796875 48.1875 
Q 26.515625 48.1875 22.3125 43.546875 
Q 18.109375 38.921875 18.109375 30.90625 
L 18.109375 0 
L 9.078125 0 
L 9.078125 54.6875 
L 18.109375 54.6875 
L 18.109375 46.1875 
Q 21.34375 51.125 25.703125 53.5625 
Q 30.078125 56 35.796875 56 
Q 45.21875 56 50.046875 50.171875 
Q 54.890625 44.34375 54.890625 33.015625 
z
" id="DejaVuSans-110"/>
     <path id="DejaVuSans-32"/>
     <path d="M 45.40625 46.390625 
L 45.40625 75.984375 
L 54.390625 75.984375 
L 54.390625 0 
L 45.40625 0 
L 45.40625 8.203125 
Q 42.578125 3.328125 38.25 0.953125 
Q 33.9375 -1.421875 27.875 -1.421875 
Q 17.96875 -1.421875 11.734375 6.484375 
Q 5.515625 14.40625 5.515625 27.296875 
Q 5.515625 40.1875 11.734375 48.09375 
Q 17.96875 56 27.875 56 
Q 33.9375 56 38.25 53.625 
Q 42.578125 51.265625 45.40625 46.390625 
z
M 14.796875 27.296875 
Q 14.796875 17.390625 18.875 11.75 
Q 22.953125 6.109375 30.078125 6.109375 
Q 37.203125 6.109375 41.296875 11.75 
Q 45.40625 17.390625 45.40625 27.296875 
Q 45.40625 37.203125 41.296875 42.84375 
Q 37.203125 48.484375 30.078125 48.484375 
Q 22.953125 48.484375 18.875 42.84375 
Q 14.796875 37.203125 14.796875 27.296875 
z
" id="DejaVuSans-100"/>
     <path d="M 8.5 21.578125 
L 8.5 54.6875 
L 17.484375 54.6875 
L 17.484375 21.921875 
Q 17.484375 14.15625 20.5 10.265625 
Q 23.53125 6.390625 29.59375 6.390625 
Q 36.859375 6.390625 41.078125 11.03125 
Q 45.3125 15.671875 45.3125 23.6875 
L 45.3125 54.6875 
L 54.296875 54.6875 
L 54.296875 0 
L 45.3125 0 
L 45.3125 8.40625 
Q 42.046875 3.421875 37.71875 1 
Q 33.40625 -1.421875 27.6875 -1.421875 
Q 18.265625 -1.421875 13.375 4.4375 
Q 8.5 10.296875 8.5 21.578125 
z
M 31.109375 56 
z
" id="DejaVuSans-117"/>
     <path d="M 54.890625 33.015625 
L 54.890625 0 
L 45.90625 0 
L 45.90625 32.71875 
Q 45.90625 40.484375 42.875 44.328125 
Q 39.84375 48.1875 33.796875 48.1875 
Q 26.515625 48.1875 22.3125 43.546875 
Q 18.109375 38.921875 18.109375 30.90625 
L 18.109375 0 
L 9.078125 0 
L 9.078125 75.984375 
L 18.109375 75.984375 
L 18.109375 46.1875 
Q 21.34375 51.125 25.703125 53.5625 
Q 30.078125 56 35.796875 56 
Q 45.21875 56 50.046875 50.171875 
Q 54.890625 44.34375 54.890625 33.015625 
z
" id="DejaVuSans-104"/>
     <path d="M 34.28125 27.484375 
Q 23.390625 27.484375 19.1875 25 
Q 14.984375 22.515625 14.984375 16.5 
Q 14.984375 11.71875 18.140625 8.90625 
Q 21.296875 6.109375 26.703125 6.109375 
Q 34.1875 6.109375 38.703125 11.40625 
Q 43.21875 16.703125 43.21875 25.484375 
L 43.21875 27.484375 
z
M 52.203125 31.203125 
L 52.203125 0 
L 43.21875 0 
L 43.21875 8.296875 
Q 40.140625 3.328125 35.546875 0.953125 
Q 30.953125 -1.421875 24.3125 -1.421875 
Q 15.921875 -1.421875 10.953125 3.296875 
Q 6 8.015625 6 15.921875 
Q 6 25.140625 12.171875 29.828125 
Q 18.359375 34.515625 30.609375 34.515625 
L 43.21875 34.515625 
L 43.21875 35.40625 
Q 43.21875 41.609375 39.140625 45 
Q 35.0625 48.390625 27.6875 48.390625 
Q 23 48.390625 18.546875 47.265625 
Q 14.109375 46.140625 10.015625 43.890625 
L 10.015625 52.203125 
Q 14.9375 54.109375 19.578125 55.046875 
Q 24.21875 56 28.609375 56 
Q 40.484375 56 46.34375 49.84375 
Q 52.203125 43.703125 52.203125 31.203125 
z
" id="DejaVuSans-97"/>
    </defs>
    <g transform="translate(292.909091 312.40948)scale(0.14 -0.14)">
     <use xlink:href="#DejaVuSans-82"/>
     <use x="69.419922" xlink:href="#DejaVuSans-101"/>
     <use x="130.943359" xlink:href="#DejaVuSans-102"/>
     <use x="166.148438" xlink:href="#DejaVuSans-108"/>
     <use x="193.931641" xlink:href="#DejaVuSans-101"/>
     <use x="255.455078" xlink:href="#DejaVuSans-99"/>
     <use x="310.435547" xlink:href="#DejaVuSans-116"/>
     <use x="349.644531" xlink:href="#DejaVuSans-105"/>
     <use x="377.427734" xlink:href="#DejaVuSans-111"/>
     <use x="438.609375" xlink:href="#DejaVuSans-110"/>
     <use x="501.988281" xlink:href="#DejaVuSans-32"/>
     <use x="533.775391" xlink:href="#DejaVuSans-100"/>
     <use x="597.251953" xlink:href="#DejaVuSans-117"/>
     <use x="660.630859" xlink:href="#DejaVuSans-101"/>
     <use x="722.154297" xlink:href="#DejaVuSans-32"/>
     <use x="753.941406" xlink:href="#DejaVuSans-116"/>
     <use x="793.150391" xlink:href="#DejaVuSans-111"/>
     <use x="854.332031" xlink:href="#DejaVuSans-32"/>
     <use x="886.119141" xlink:href="#DejaVuSans-116"/>
     <use x="925.328125" xlink:href="#DejaVuSans-104"/>
     <use x="988.707031" xlink:href="#DejaVuSans-101"/>
     <use x="1050.230469" xlink:href="#DejaVuSans-32"/>
     <use x="1082.017578" xlink:href="#DejaVuSans-101"/>
     <use x="1143.541016" xlink:href="#DejaVuSans-110"/>
     <use x="1206.919922" xlink:href="#DejaVuSans-100"/>
     <use x="1270.396484" xlink:href="#DejaVuSans-32"/>
     <use x="1302.183594" xlink:href="#DejaVuSans-111"/>
     <use x="1363.365234" xlink:href="#DejaVuSans-102"/>
     <use x="1398.570312" xlink:href="#DejaVuSans-32"/>
     <use x="1430.357422" xlink:href="#DejaVuSans-116"/>
     <use x="1469.566406" xlink:href="#DejaVuSans-104"/>
     <use x="1532.945312" xlink:href="#DejaVuSans-101"/>
     <use x="1594.46875" xlink:href="#DejaVuSans-32"/>
     <use x="1626.255859" xlink:href="#DejaVuSans-99"/>
     <use x="1681.236328" xlink:href="#DejaVuSans-104"/>
     <use x="1744.615234" xlink:href="#DejaVuSans-97"/>
     <use x="1805.894531" xlink:href="#DejaVuSans-105"/>
     <use x="1833.677734" xlink:href="#DejaVuSans-110"/>
    </g>
   </g>
  </g>
 </g>
 <defs>
  <clipPath id="p88a946b471">
   <rect height="543.6" width="558" x="90" y="86.4"/>
  </clipPath>
 </defs>
</svg>
