<?xml version="1.0" encoding="utf-8" standalone="no"?>
<!DOCTYPE svg PUBLIC "-//W3C//DTD SVG 1.1//EN"
  "http://www.w3.org/Graphics/SVG/1.1/DTD/svg11.dtd">
<!-- Created with matplotlib (https://matplotlib.org/) -->
<svg height="720pt" version="1.1" viewBox="0 0 720 720" width="720pt" xmlns="http://www.w3.org/2000/svg" xmlns:xlink="http://www.w3.org/1999/xlink">
 <defs>
  <style type="text/css">
*{stroke-linecap:butt;stroke-linejoin:round;}
  </style>
 </defs>
 <g id="figure_1">
  <g id="patch_1">
   <path d="M 0 720 
L 720 720 
L 720 0 
L 0 0 
z
" style="fill:#ffffff;"/>
  </g>
  <g id="axes_1">
   <g id="patch_2">
    <path d="M 90 630 
L 648 630 
L 648 86.4 
L 90 86.4 
z
" style="fill:#ffffff;"/>
   </g>
   <g id="matplotlib.axis_1">
    <g id="xtick_1">
     <g id="line2d_1">
      <defs>
       <path d="M 0 0 
L 0 3.5 
" id="m6e3ce5df62" style="stroke:#000000;stroke-width:0.8;"/>
      </defs>
      <g>
       <use style="stroke:#000000;stroke-width:0.8;" x="115.363636" xlink:href="#m6e3ce5df62" y="630"/>
      </g>
     </g>
     <g id="text_1">
      <!-- 0.0 -->
      <defs>
       <path d="M 31.78125 66.40625 
Q 24.171875 66.40625 20.328125 58.90625 
Q 16.5 51.421875 16.5 36.375 
Q 16.5 21.390625 20.328125 13.890625 
Q 24.171875 6.390625 31.78125 6.390625 
Q 39.453125 6.390625 43.28125 13.890625 
Q 47.125 21.390625 47.125 36.375 
Q 47.125 51.421875 43.28125 58.90625 
Q 39.453125 66.40625 31.78125 66.40625 
z
M 31.78125 74.21875 
Q 44.046875 74.21875 50.515625 64.515625 
Q 56.984375 54.828125 56.984375 36.375 
Q 56.984375 17.96875 50.515625 8.265625 
Q 44.046875 -1.421875 31.78125 -1.421875 
Q 19.53125 -1.421875 13.0625 8.265625 
Q 6.59375 17.96875 6.59375 36.375 
Q 6.59375 54.828125 13.0625 64.515625 
Q 19.53125 74.21875 31.78125 74.21875 
z
" id="DejaVuSans-48"/>
       <path d="M 10.6875 12.40625 
L 21 12.40625 
L 21 0 
L 10.6875 0 
z
" id="DejaVuSans-46"/>
      </defs>
      <g transform="translate(107.412074 644.598438)scale(0.1 -0.1)">
       <use xlink:href="#DejaVuSans-48"/>
       <use x="63.623047" xlink:href="#DejaVuSans-46"/>
       <use x="95.410156" xlink:href="#DejaVuSans-48"/>
      </g>
     </g>
    </g>
    <g id="xtick_2">
     <g id="line2d_2">
      <g>
       <use style="stroke:#000000;stroke-width:0.8;" x="216.818182" xlink:href="#m6e3ce5df62" y="630"/>
      </g>
     </g>
     <g id="text_2">
      <!-- 0.2 -->
      <defs>
       <path d="M 19.1875 8.296875 
L 53.609375 8.296875 
L 53.609375 0 
L 7.328125 0 
L 7.328125 8.296875 
Q 12.9375 14.109375 22.625 23.890625 
Q 32.328125 33.6875 34.8125 36.53125 
Q 39.546875 41.84375 41.421875 45.53125 
Q 43.3125 49.21875 43.3125 52.78125 
Q 43.3125 58.59375 39.234375 62.25 
Q 35.15625 65.921875 28.609375 65.921875 
Q 23.96875 65.921875 18.8125 64.3125 
Q 13.671875 62.703125 7.8125 59.421875 
L 7.8125 69.390625 
Q 13.765625 71.78125 18.9375 73 
Q 24.125 74.21875 28.421875 74.21875 
Q 39.75 74.21875 46.484375 68.546875 
Q 53.21875 62.890625 53.21875 53.421875 
Q 53.21875 48.921875 51.53125 44.890625 
Q 49.859375 40.875 45.40625 35.40625 
Q 44.1875 33.984375 37.640625 27.21875 
Q 31.109375 20.453125 19.1875 8.296875 
z
" id="DejaVuSans-50"/>
      </defs>
      <g transform="translate(208.866619 644.598438)scale(0.1 -0.1)">
       <use xlink:href="#DejaVuSans-48"/>
       <use x="63.623047" xlink:href="#DejaVuSans-46"/>
       <use x="95.410156" xlink:href="#DejaVuSans-50"/>
      </g>
     </g>
    </g>
    <g id="xtick_3">
     <g id="line2d_3">
      <g>
       <use style="stroke:#000000;stroke-width:0.8;" x="318.272727" xlink:href="#m6e3ce5df62" y="630"/>
      </g>
     </g>
     <g id="text_3">
      <!-- 0.4 -->
      <defs>
       <path d="M 37.796875 64.3125 
L 12.890625 25.390625 
L 37.796875 25.390625 
z
M 35.203125 72.90625 
L 47.609375 72.90625 
L 47.609375 25.390625 
L 58.015625 25.390625 
L 58.015625 17.1875 
L 47.609375 17.1875 
L 47.609375 0 
L 37.796875 0 
L 37.796875 17.1875 
L 4.890625 17.1875 
L 4.890625 26.703125 
z
" id="DejaVuSans-52"/>
      </defs>
      <g transform="translate(310.321165 644.598438)scale(0.1 -0.1)">
       <use xlink:href="#DejaVuSans-48"/>
       <use x="63.623047" xlink:href="#DejaVuSans-46"/>
       <use x="95.410156" xlink:href="#DejaVuSans-52"/>
      </g>
     </g>
    </g>
    <g id="xtick_4">
     <g id="line2d_4">
      <g>
       <use style="stroke:#000000;stroke-width:0.8;" x="419.727273" xlink:href="#m6e3ce5df62" y="630"/>
      </g>
     </g>
     <g id="text_4">
      <!-- 0.6 -->
      <defs>
       <path d="M 33.015625 40.375 
Q 26.375 40.375 22.484375 35.828125 
Q 18.609375 31.296875 18.609375 23.390625 
Q 18.609375 15.53125 22.484375 10.953125 
Q 26.375 6.390625 33.015625 6.390625 
Q 39.65625 6.390625 43.53125 10.953125 
Q 47.40625 15.53125 47.40625 23.390625 
Q 47.40625 31.296875 43.53125 35.828125 
Q 39.65625 40.375 33.015625 40.375 
z
M 52.59375 71.296875 
L 52.59375 62.3125 
Q 48.875 64.0625 45.09375 64.984375 
Q 41.3125 65.921875 37.59375 65.921875 
Q 27.828125 65.921875 22.671875 59.328125 
Q 17.53125 52.734375 16.796875 39.40625 
Q 19.671875 43.65625 24.015625 45.921875 
Q 28.375 48.1875 33.59375 48.1875 
Q 44.578125 48.1875 50.953125 41.515625 
Q 57.328125 34.859375 57.328125 23.390625 
Q 57.328125 12.15625 50.6875 5.359375 
Q 44.046875 -1.421875 33.015625 -1.421875 
Q 20.359375 -1.421875 13.671875 8.265625 
Q 6.984375 17.96875 6.984375 36.375 
Q 6.984375 53.65625 15.1875 63.9375 
Q 23.390625 74.21875 37.203125 74.21875 
Q 40.921875 74.21875 44.703125 73.484375 
Q 48.484375 72.75 52.59375 71.296875 
z
" id="DejaVuSans-54"/>
      </defs>
      <g transform="translate(411.77571 644.598438)scale(0.1 -0.1)">
       <use xlink:href="#DejaVuSans-48"/>
       <use x="63.623047" xlink:href="#DejaVuSans-46"/>
       <use x="95.410156" xlink:href="#DejaVuSans-54"/>
      </g>
     </g>
    </g>
    <g id="xtick_5">
     <g id="line2d_5">
      <g>
       <use style="stroke:#000000;stroke-width:0.8;" x="521.181818" xlink:href="#m6e3ce5df62" y="630"/>
      </g>
     </g>
     <g id="text_5">
      <!-- 0.8 -->
      <defs>
       <path d="M 31.78125 34.625 
Q 24.75 34.625 20.71875 30.859375 
Q 16.703125 27.09375 16.703125 20.515625 
Q 16.703125 13.921875 20.71875 10.15625 
Q 24.75 6.390625 31.78125 6.390625 
Q 38.8125 6.390625 42.859375 10.171875 
Q 46.921875 13.96875 46.921875 20.515625 
Q 46.921875 27.09375 42.890625 30.859375 
Q 38.875 34.625 31.78125 34.625 
z
M 21.921875 38.8125 
Q 15.578125 40.375 12.03125 44.71875 
Q 8.5 49.078125 8.5 55.328125 
Q 8.5 64.0625 14.71875 69.140625 
Q 20.953125 74.21875 31.78125 74.21875 
Q 42.671875 74.21875 48.875 69.140625 
Q 55.078125 64.0625 55.078125 55.328125 
Q 55.078125 49.078125 51.53125 44.71875 
Q 48 40.375 41.703125 38.8125 
Q 48.828125 37.15625 52.796875 32.3125 
Q 56.78125 27.484375 56.78125 20.515625 
Q 56.78125 9.90625 50.3125 4.234375 
Q 43.84375 -1.421875 31.78125 -1.421875 
Q 19.734375 -1.421875 13.25 4.234375 
Q 6.78125 9.90625 6.78125 20.515625 
Q 6.78125 27.484375 10.78125 32.3125 
Q 14.796875 37.15625 21.921875 38.8125 
z
M 18.3125 54.390625 
Q 18.3125 48.734375 21.84375 45.5625 
Q 25.390625 42.390625 31.78125 42.390625 
Q 38.140625 42.390625 41.71875 45.5625 
Q 45.3125 48.734375 45.3125 54.390625 
Q 45.3125 60.0625 41.71875 63.234375 
Q 38.140625 66.40625 31.78125 66.40625 
Q 25.390625 66.40625 21.84375 63.234375 
Q 18.3125 60.0625 18.3125 54.390625 
z
" id="DejaVuSans-56"/>
      </defs>
      <g transform="translate(513.230256 644.598438)scale(0.1 -0.1)">
       <use xlink:href="#DejaVuSans-48"/>
       <use x="63.623047" xlink:href="#DejaVuSans-46"/>
       <use x="95.410156" xlink:href="#DejaVuSans-56"/>
      </g>
     </g>
    </g>
    <g id="xtick_6">
     <g id="line2d_6">
      <g>
       <use style="stroke:#000000;stroke-width:0.8;" x="622.636364" xlink:href="#m6e3ce5df62" y="630"/>
      </g>
     </g>
     <g id="text_6">
      <!-- 1.0 -->
      <defs>
       <path d="M 12.40625 8.296875 
L 28.515625 8.296875 
L 28.515625 63.921875 
L 10.984375 60.40625 
L 10.984375 69.390625 
L 28.421875 72.90625 
L 38.28125 72.90625 
L 38.28125 8.296875 
L 54.390625 8.296875 
L 54.390625 0 
L 12.40625 0 
z
" id="DejaVuSans-49"/>
      </defs>
      <g transform="translate(614.684801 644.598438)scale(0.1 -0.1)">
       <use xlink:href="#DejaVuSans-49"/>
       <use x="63.623047" xlink:href="#DejaVuSans-46"/>
       <use x="95.410156" xlink:href="#DejaVuSans-48"/>
      </g>
     </g>
    </g>
    <g id="text_7">
     <!-- t -->
     <defs>
      <path d="M 18.3125 70.21875 
L 18.3125 54.6875 
L 36.8125 54.6875 
L 36.8125 47.703125 
L 18.3125 47.703125 
L 18.3125 18.015625 
Q 18.3125 11.328125 20.140625 9.421875 
Q 21.96875 7.515625 27.59375 7.515625 
L 36.8125 7.515625 
L 36.8125 0 
L 27.59375 0 
Q 17.1875 0 13.234375 3.875 
Q 9.28125 7.765625 9.28125 18.015625 
L 9.28125 47.703125 
L 2.6875 47.703125 
L 2.6875 54.6875 
L 9.28125 54.6875 
L 9.28125 70.21875 
z
" id="DejaVuSans-116"/>
     </defs>
     <g transform="translate(366.255781 661.315938)scale(0.14 -0.14)">
      <use xlink:href="#DejaVuSans-116"/>
     </g>
    </g>
   </g>
   <g id="matplotlib.axis_2">
    <g id="ytick_1">
     <g id="line2d_7">
      <defs>
       <path d="M 0 0 
L -3.5 0 
" id="m829e69f15d" style="stroke:#000000;stroke-width:0.8;"/>
      </defs>
      <g>
       <use style="stroke:#000000;stroke-width:0.8;" x="90" xlink:href="#m829e69f15d" y="575.64"/>
      </g>
     </g>
     <g id="text_8">
      <!-- −0.4 -->
      <defs>
       <path d="M 10.59375 35.5 
L 73.1875 35.5 
L 73.1875 27.203125 
L 10.59375 27.203125 
z
" id="DejaVuSans-8722"/>
      </defs>
      <g transform="translate(58.717187 579.439219)scale(0.1 -0.1)">
       <use xlink:href="#DejaVuSans-8722"/>
       <use x="83.789062" xlink:href="#DejaVuSans-48"/>
       <use x="147.412109" xlink:href="#DejaVuSans-46"/>
       <use x="179.199219" xlink:href="#DejaVuSans-52"/>
      </g>
     </g>
    </g>
    <g id="ytick_2">
     <g id="line2d_8">
      <g>
       <use style="stroke:#000000;stroke-width:0.8;" x="90" xlink:href="#m829e69f15d" y="466.92"/>
      </g>
     </g>
     <g id="text_9">
      <!-- −0.2 -->
      <g transform="translate(58.717187 470.719219)scale(0.1 -0.1)">
       <use xlink:href="#DejaVuSans-8722"/>
       <use x="83.789062" xlink:href="#DejaVuSans-48"/>
       <use x="147.412109" xlink:href="#DejaVuSans-46"/>
       <use x="179.199219" xlink:href="#DejaVuSans-50"/>
      </g>
     </g>
    </g>
    <g id="ytick_3">
     <g id="line2d_9">
      <g>
       <use style="stroke:#000000;stroke-width:0.8;" x="90" xlink:href="#m829e69f15d" y="358.2"/>
      </g>
     </g>
     <g id="text_10">
      <!-- 0.0 -->
      <g transform="translate(67.096875 361.999219)scale(0.1 -0.1)">
       <use xlink:href="#DejaVuSans-48"/>
       <use x="63.623047" xlink:href="#DejaVuSans-46"/>
       <use x="95.410156" xlink:href="#DejaVuSans-48"/>
      </g>
     </g>
    </g>
    <g id="ytick_4">
     <g id="line2d_10">
      <g>
       <use style="stroke:#000000;stroke-width:0.8;" x="90" xlink:href="#m829e69f15d" y="249.48"/>
      </g>
     </g>
     <g id="text_11">
      <!-- 0.2 -->
      <g transform="translate(67.096875 253.279219)scale(0.1 -0.1)">
       <use xlink:href="#DejaVuSans-48"/>
       <use x="63.623047" xlink:href="#DejaVuSans-46"/>
       <use x="95.410156" xlink:href="#DejaVuSans-50"/>
      </g>
     </g>
    </g>
    <g id="ytick_5">
     <g id="line2d_11">
      <g>
       <use style="stroke:#000000;stroke-width:0.8;" x="90" xlink:href="#m829e69f15d" y="140.76"/>
      </g>
     </g>
     <g id="text_12">
      <!-- 0.4 -->
      <g transform="translate(67.096875 144.559219)scale(0.1 -0.1)">
       <use xlink:href="#DejaVuSans-48"/>
       <use x="63.623047" xlink:href="#DejaVuSans-46"/>
       <use x="95.410156" xlink:href="#DejaVuSans-52"/>
      </g>
     </g>
    </g>
    <g id="text_13">
     <!-- $C_{12}(\rho)$ (Imaginary part) -->
     <defs>
      <path d="M 69.484375 67.28125 
L 67.484375 56.890625 
Q 62.796875 61.625 57.546875 63.921875 
Q 52.296875 66.21875 46.1875 66.21875 
Q 37.84375 66.21875 31.515625 62.203125 
Q 25.203125 58.203125 20.609375 50 
Q 17.671875 44.734375 16.125 38.84375 
Q 14.59375 32.953125 14.59375 27 
Q 14.59375 17.046875 19.75 11.8125 
Q 24.90625 6.59375 34.71875 6.59375 
Q 41.5 6.59375 47.75 8.765625 
Q 54 10.9375 59.90625 15.28125 
L 57.625 3.609375 
Q 51.8125 1.125 45.875 -0.140625 
Q 39.9375 -1.421875 33.984375 -1.421875 
Q 19.96875 -1.421875 12.078125 6.1875 
Q 4.203125 13.8125 4.203125 27.390625 
Q 4.203125 36.078125 7.203125 44.46875 
Q 10.203125 52.875 15.828125 59.8125 
Q 21.78125 67.1875 29.421875 70.703125 
Q 37.0625 74.21875 47.21875 74.21875 
Q 53.46875 74.21875 59.0625 72.484375 
Q 64.65625 70.75 69.484375 67.28125 
z
" id="DejaVuSans-Oblique-67"/>
      <path d="M 31 75.875 
Q 24.46875 64.65625 21.28125 53.65625 
Q 18.109375 42.671875 18.109375 31.390625 
Q 18.109375 20.125 21.3125 9.0625 
Q 24.515625 -2 31 -13.1875 
L 23.1875 -13.1875 
Q 15.875 -1.703125 12.234375 9.375 
Q 8.59375 20.453125 8.59375 31.390625 
Q 8.59375 42.28125 12.203125 53.3125 
Q 15.828125 64.359375 23.1875 75.875 
z
" id="DejaVuSans-40"/>
      <path d="M 18.796875 44.921875 
Q 22.703125 49.90625 30.953125 54.296875 
Q 34.1875 56 43.0625 56 
Q 53.03125 56 57.71875 48.09375 
Q 62.40625 40.1875 59.90625 27.296875 
Q 57.375 14.40625 49.609375 6.484375 
Q 41.84375 -1.421875 31.890625 -1.421875 
Q 25.875 -1.421875 22.015625 0.984375 
Q 18.171875 3.328125 16.3125 8.203125 
L 10.640625 -20.796875 
L 1.609375 -20.796875 
L 10.890625 26.8125 
Q 13.09375 38.09375 18.796875 44.921875 
z
M 50.59375 27.296875 
Q 52.484375 37.203125 49.515625 42.875 
Q 46.53125 48.484375 39.40625 48.484375 
Q 32.28125 48.484375 27.09375 42.875 
Q 21.921875 37.203125 20.015625 27.296875 
Q 18.0625 17.390625 21.046875 11.71875 
Q 24.03125 6.109375 31.15625 6.109375 
Q 38.28125 6.109375 43.453125 11.71875 
Q 48.640625 17.390625 50.59375 27.296875 
z
" id="DejaVuSans-Oblique-961"/>
      <path d="M 8.015625 75.875 
L 15.828125 75.875 
Q 23.140625 64.359375 26.78125 53.3125 
Q 30.421875 42.28125 30.421875 31.390625 
Q 30.421875 20.453125 26.78125 9.375 
Q 23.140625 -1.703125 15.828125 -13.1875 
L 8.015625 -13.1875 
Q 14.5 -2 17.703125 9.0625 
Q 20.90625 20.125 20.90625 31.390625 
Q 20.90625 42.671875 17.703125 53.65625 
Q 14.5 64.65625 8.015625 75.875 
z
" id="DejaVuSans-41"/>
      <path id="DejaVuSans-32"/>
      <path d="M 9.8125 72.90625 
L 19.671875 72.90625 
L 19.671875 0 
L 9.8125 0 
z
" id="DejaVuSans-73"/>
      <path d="M 52 44.1875 
Q 55.375 50.25 60.0625 53.125 
Q 64.75 56 71.09375 56 
Q 79.640625 56 84.28125 50.015625 
Q 88.921875 44.046875 88.921875 33.015625 
L 88.921875 0 
L 79.890625 0 
L 79.890625 32.71875 
Q 79.890625 40.578125 77.09375 44.375 
Q 74.3125 48.1875 68.609375 48.1875 
Q 61.625 48.1875 57.5625 43.546875 
Q 53.515625 38.921875 53.515625 30.90625 
L 53.515625 0 
L 44.484375 0 
L 44.484375 32.71875 
Q 44.484375 40.625 41.703125 44.40625 
Q 38.921875 48.1875 33.109375 48.1875 
Q 26.21875 48.1875 22.15625 43.53125 
Q 18.109375 38.875 18.109375 30.90625 
L 18.109375 0 
L 9.078125 0 
L 9.078125 54.6875 
L 18.109375 54.6875 
L 18.109375 46.1875 
Q 21.1875 51.21875 25.484375 53.609375 
Q 29.78125 56 35.6875 56 
Q 41.65625 56 45.828125 52.96875 
Q 50 49.953125 52 44.1875 
z
" id="DejaVuSans-109"/>
      <path d="M 34.28125 27.484375 
Q 23.390625 27.484375 19.1875 25 
Q 14.984375 22.515625 14.984375 16.5 
Q 14.984375 11.71875 18.140625 8.90625 
Q 21.296875 6.109375 26.703125 6.109375 
Q 34.1875 6.109375 38.703125 11.40625 
Q 43.21875 16.703125 43.21875 25.484375 
L 43.21875 27.484375 
z
M 52.203125 31.203125 
L 52.203125 0 
L 43.21875 0 
L 43.21875 8.296875 
Q 40.140625 3.328125 35.546875 0.953125 
Q 30.953125 -1.421875 24.3125 -1.421875 
Q 15.921875 -1.421875 10.953125 3.296875 
Q 6 8.015625 6 15.921875 
Q 6 25.140625 12.171875 29.828125 
Q 18.359375 34.515625 30.609375 34.515625 
L 43.21875 34.515625 
L 43.21875 35.40625 
Q 43.21875 41.609375 39.140625 45 
Q 35.0625 48.390625 27.6875 48.390625 
Q 23 48.390625 18.546875 47.265625 
Q 14.109375 46.140625 10.015625 43.890625 
L 10.015625 52.203125 
Q 14.9375 54.109375 19.578125 55.046875 
Q 24.21875 56 28.609375 56 
Q 40.484375 56 46.34375 49.84375 
Q 52.203125 43.703125 52.203125 31.203125 
z
" id="DejaVuSans-97"/>
      <path d="M 45.40625 27.984375 
Q 45.40625 37.75 41.375 43.109375 
Q 37.359375 48.484375 30.078125 48.484375 
Q 22.859375 48.484375 18.828125 43.109375 
Q 14.796875 37.75 14.796875 27.984375 
Q 14.796875 18.265625 18.828125 12.890625 
Q 22.859375 7.515625 30.078125 7.515625 
Q 37.359375 7.515625 41.375 12.890625 
Q 45.40625 18.265625 45.40625 27.984375 
z
M 54.390625 6.78125 
Q 54.390625 -7.171875 48.1875 -13.984375 
Q 42 -20.796875 29.203125 -20.796875 
Q 24.46875 -20.796875 20.265625 -20.09375 
Q 16.0625 -19.390625 12.109375 -17.921875 
L 12.109375 -9.1875 
Q 16.0625 -11.328125 19.921875 -12.34375 
Q 23.78125 -13.375 27.78125 -13.375 
Q 36.625 -13.375 41.015625 -8.765625 
Q 45.40625 -4.15625 45.40625 5.171875 
L 45.40625 9.625 
Q 42.625 4.78125 38.28125 2.390625 
Q 33.9375 0 27.875 0 
Q 17.828125 0 11.671875 7.65625 
Q 5.515625 15.328125 5.515625 27.984375 
Q 5.515625 40.671875 11.671875 48.328125 
Q 17.828125 56 27.875 56 
Q 33.9375 56 38.28125 53.609375 
Q 42.625 51.21875 45.40625 46.390625 
L 45.40625 54.6875 
L 54.390625 54.6875 
z
" id="DejaVuSans-103"/>
      <path d="M 9.421875 54.6875 
L 18.40625 54.6875 
L 18.40625 0 
L 9.421875 0 
z
M 9.421875 75.984375 
L 18.40625 75.984375 
L 18.40625 64.59375 
L 9.421875 64.59375 
z
" id="DejaVuSans-105"/>
      <path d="M 54.890625 33.015625 
L 54.890625 0 
L 45.90625 0 
L 45.90625 32.71875 
Q 45.90625 40.484375 42.875 44.328125 
Q 39.84375 48.1875 33.796875 48.1875 
Q 26.515625 48.1875 22.3125 43.546875 
Q 18.109375 38.921875 18.109375 30.90625 
L 18.109375 0 
L 9.078125 0 
L 9.078125 54.6875 
L 18.109375 54.6875 
L 18.109375 46.1875 
Q 21.34375 51.125 25.703125 53.5625 
Q 30.078125 56 35.796875 56 
Q 45.21875 56 50.046875 50.171875 
Q 54.890625 44.34375 54.890625 33.015625 
z
" id="DejaVuSans-110"/>
      <path d="M 41.109375 46.296875 
Q 39.59375 47.171875 37.8125 47.578125 
Q 36.03125 48 33.890625 48 
Q 26.265625 48 22.1875 43.046875 
Q 18.109375 38.09375 18.109375 28.8125 
L 18.109375 0 
L 9.078125 0 
L 9.078125 54.6875 
L 18.109375 54.6875 
L 18.109375 46.1875 
Q 20.953125 51.171875 25.484375 53.578125 
Q 30.03125 56 36.53125 56 
Q 37.453125 56 38.578125 55.875 
Q 39.703125 55.765625 41.0625 55.515625 
z
" id="DejaVuSans-114"/>
      <path d="M 32.171875 -5.078125 
Q 28.375 -14.84375 24.75 -17.8125 
Q 21.140625 -20.796875 15.09375 -20.796875 
L 7.90625 -20.796875 
L 7.90625 -13.28125 
L 13.1875 -13.28125 
Q 16.890625 -13.28125 18.9375 -11.515625 
Q 21 -9.765625 23.484375 -3.21875 
L 25.09375 0.875 
L 2.984375 54.6875 
L 12.5 54.6875 
L 29.59375 11.921875 
L 46.6875 54.6875 
L 56.203125 54.6875 
z
" id="DejaVuSans-121"/>
      <path d="M 18.109375 8.203125 
L 18.109375 -20.796875 
L 9.078125 -20.796875 
L 9.078125 54.6875 
L 18.109375 54.6875 
L 18.109375 46.390625 
Q 20.953125 51.265625 25.265625 53.625 
Q 29.59375 56 35.59375 56 
Q 45.5625 56 51.78125 48.09375 
Q 58.015625 40.1875 58.015625 27.296875 
Q 58.015625 14.40625 51.78125 6.484375 
Q 45.5625 -1.421875 35.59375 -1.421875 
Q 29.59375 -1.421875 25.265625 0.953125 
Q 20.953125 3.328125 18.109375 8.203125 
z
M 48.6875 27.296875 
Q 48.6875 37.203125 44.609375 42.84375 
Q 40.53125 48.484375 33.40625 48.484375 
Q 26.265625 48.484375 22.1875 42.84375 
Q 18.109375 37.203125 18.109375 27.296875 
Q 18.109375 17.390625 22.1875 11.75 
Q 26.265625 6.109375 33.40625 6.109375 
Q 40.53125 6.109375 44.609375 11.75 
Q 48.6875 17.390625 48.6875 27.296875 
z
" id="DejaVuSans-112"/>
     </defs>
     <g transform="translate(51.777187 439.05)rotate(-90)scale(0.14 -0.14)">
      <use transform="translate(0 0.015625)" xlink:href="#DejaVuSans-Oblique-67"/>
      <use transform="translate(69.824219 -16.390625)scale(0.7)" xlink:href="#DejaVuSans-49"/>
      <use transform="translate(114.360352 -16.390625)scale(0.7)" xlink:href="#DejaVuSans-50"/>
      <use transform="translate(161.630859 0.015625)" xlink:href="#DejaVuSans-40"/>
      <use transform="translate(200.644531 0.015625)" xlink:href="#DejaVuSans-Oblique-961"/>
      <use transform="translate(264.121094 0.015625)" xlink:href="#DejaVuSans-41"/>
      <use transform="translate(303.134766 0.015625)" xlink:href="#DejaVuSans-32"/>
      <use transform="translate(334.921875 0.015625)" xlink:href="#DejaVuSans-40"/>
      <use transform="translate(373.935547 0.015625)" xlink:href="#DejaVuSans-73"/>
      <use transform="translate(403.380859 0.015625)" xlink:href="#DejaVuSans-109"/>
      <use transform="translate(500.792969 0.015625)" xlink:href="#DejaVuSans-97"/>
      <use transform="translate(562.072266 0.015625)" xlink:href="#DejaVuSans-103"/>
      <use transform="translate(625.548828 0.015625)" xlink:href="#DejaVuSans-105"/>
      <use transform="translate(653.332031 0.015625)" xlink:href="#DejaVuSans-110"/>
      <use transform="translate(716.710938 0.015625)" xlink:href="#DejaVuSans-97"/>
      <use transform="translate(777.990234 0.015625)" xlink:href="#DejaVuSans-114"/>
      <use transform="translate(819.103516 0.015625)" xlink:href="#DejaVuSans-121"/>
      <use transform="translate(878.283203 0.015625)" xlink:href="#DejaVuSans-32"/>
      <use transform="translate(910.070312 0.015625)" xlink:href="#DejaVuSans-112"/>
      <use transform="translate(973.546875 0.015625)" xlink:href="#DejaVuSans-97"/>
      <use transform="translate(1034.826172 0.015625)" xlink:href="#DejaVuSans-114"/>
      <use transform="translate(1075.939453 0.015625)" xlink:href="#DejaVuSans-116"/>
      <use transform="translate(1115.148438 0.015625)" xlink:href="#DejaVuSans-41"/>
     </g>
    </g>
   </g>
   <g id="line2d_12">
    <path clip-path="url(#pd65cdebd7f)" d="M 115.363636 358.2 
L 121.450909 293.978524 
L 125.509091 253.407494 
L 128.552727 224.888468 
L 131.596364 198.451687 
L 134.132727 178.27724 
L 136.669091 159.996655 
L 138.698182 146.852567 
L 140.727273 135.110152 
L 142.756364 124.838776 
L 144.278182 118.136899 
L 145.8 112.317771 
L 147.321818 107.399659 
L 148.843636 103.397537 
L 149.858182 101.244225 
L 150.872727 99.505878 
L 151.887273 98.184447 
L 152.901818 97.281209 
L 153.916364 96.796773 
L 154.930909 96.731077 
L 155.945455 97.083388 
L 156.96 97.852309 
L 157.974545 99.035779 
L 158.989091 100.631076 
L 160.003636 102.63483 
L 161.018182 105.043022 
L 162.54 109.403271 
L 164.061818 114.644516 
L 165.583636 120.745285 
L 167.105455 127.681078 
L 169.134545 138.179921 
L 171.163636 150.041419 
L 173.192727 163.18441 
L 175.729091 181.278937 
L 178.265455 201.046542 
L 181.309091 226.685997 
L 184.86 258.760358 
L 189.425455 302.425898 
L 204.136364 445.327018 
L 207.687273 476.615342 
L 210.730909 501.443602 
L 213.267273 520.464943 
L 215.803636 537.774163 
L 217.832727 550.277976 
L 219.861818 561.505684 
L 221.890909 571.390705 
L 223.412727 577.888254 
L 224.934545 583.576885 
L 226.456364 588.438577 
L 227.978182 592.458337 
L 228.992727 594.664422 
L 230.007273 596.488185 
L 231.021818 597.927474 
L 232.036364 598.980758 
L 233.050909 599.647125 
L 234.065455 599.926282 
L 235.08 599.818558 
L 236.094545 599.324897 
L 237.109091 598.44686 
L 238.123636 597.186617 
L 239.138182 595.546946 
L 240.152727 593.531227 
L 241.167273 591.143431 
L 242.689091 586.874228 
L 244.210909 581.796066 
L 245.732727 575.929616 
L 247.254545 569.298323 
L 249.283636 559.312361 
L 251.312727 548.0824 
L 253.341818 535.685095 
L 255.878182 518.67519 
L 258.414545 500.150709 
L 261.458182 476.193569 
L 265.009091 446.312306 
L 269.574545 405.761873 
L 283.270909 282.502233 
L 286.821818 253.25173 
L 289.865455 229.951142 
L 292.401818 212.032409 
L 294.938182 195.659859 
L 296.967273 183.780132 
L 298.996364 173.061291 
L 301.025455 163.567132 
L 303.054545 155.353372 
L 304.576364 150.062107 
L 306.098182 145.534641 
L 307.62 141.784955 
L 308.634545 139.722887 
L 309.649091 138.014106 
L 310.663636 136.660638 
L 311.678182 135.663935 
L 312.692727 135.024879 
L 313.707273 134.743775 
L 314.721818 134.820357 
L 315.736364 135.25379 
L 316.750909 136.042666 
L 317.765455 137.185015 
L 318.78 138.678305 
L 319.794545 140.519449 
L 320.809091 142.704809 
L 322.330909 146.618961 
L 323.852727 151.281712 
L 325.374545 156.674061 
L 326.896364 162.774446 
L 328.925455 171.967782 
L 330.954545 182.313289 
L 332.983636 193.740325 
L 335.52 209.42672 
L 338.056364 226.517662 
L 341.1 248.630272 
L 344.650909 276.222854 
L 349.216364 313.684968 
L 362.912727 427.664623 
L 366.463636 454.738581 
L 369.507273 476.314688 
L 372.043636 492.914296 
L 374.58 508.088452 
L 376.609091 519.104058 
L 378.638182 529.048509 
L 380.667273 537.862596 
L 382.696364 545.494566 
L 384.218182 550.416009 
L 385.74 554.631977 
L 387.261818 558.129432 
L 388.783636 560.897958 
L 389.798182 562.334738 
L 390.812727 563.442401 
L 391.827273 564.219836 
L 392.841818 564.666458 
L 393.856364 564.782216 
L 394.870909 564.567586 
L 395.885455 564.02357 
L 396.9 563.151696 
L 397.914545 561.954013 
L 398.929091 560.433086 
L 399.943636 558.591991 
L 401.465455 555.238007 
L 402.987273 551.186008 
L 404.509091 546.452646 
L 406.030909 541.056973 
L 408.06 532.869744 
L 410.089091 523.60014 
L 412.118182 513.311657 
L 414.654545 499.125067 
L 417.190909 483.604671 
L 420.234545 463.447524 
L 423.785455 438.197829 
L 427.843636 407.677217 
L 435.96 344.39943 
L 441.54 301.903031 
L 445.090909 276.385555 
L 448.134545 255.907332 
L 451.178182 237.018453 
L 453.714545 222.681177 
L 456.250909 209.766089 
L 458.28 200.540256 
L 460.309091 192.357723 
L 462.338182 185.26656 
L 463.86 180.689287 
L 465.381818 176.763615 
L 466.903636 173.501699 
L 468.425455 170.913272 
L 469.44 169.565513 
L 470.454545 168.521921 
L 471.469091 167.783555 
L 472.483636 167.350986 
L 473.498182 167.224293 
L 474.512727 167.403068 
L 475.527273 167.886416 
L 476.541818 168.672955 
L 477.556364 169.760822 
L 478.570909 171.147677 
L 479.585455 172.830706 
L 481.107273 175.90327 
L 482.629091 179.621719 
L 484.150909 183.970755 
L 485.672727 188.93286 
L 487.701818 196.468372 
L 489.730909 205.006266 
L 491.76 214.488036 
L 494.296364 227.569104 
L 496.832727 241.886894 
L 499.876364 260.490376 
L 503.427273 283.804283 
L 507.485455 311.997672 
L 515.601818 370.488049 
L 521.181818 409.796906 
L 524.732727 433.412362 
L 527.776364 452.372008 
L 530.82 469.867841 
L 533.356364 483.154071 
L 535.892727 495.128653 
L 537.921818 503.687637 
L 539.950909 511.283688 
L 541.98 517.872158 
L 543.501818 522.129149 
L 545.023636 525.784304 
L 546.545455 528.826292 
L 548.067273 531.246017 
L 549.081818 532.509998 
L 550.096364 533.492874 
L 551.110909 534.193635 
L 552.125455 534.611725 
L 553.14 534.747041 
L 554.154545 534.599931 
L 555.169091 534.171194 
L 556.183636 533.462079 
L 557.198182 532.474279 
L 558.212727 531.20993 
L 559.227273 529.671605 
L 560.749091 526.857104 
L 562.270909 523.44496 
L 563.792727 519.449224 
L 565.314545 514.886005 
L 567.343636 507.950517 
L 569.372727 500.086737 
L 571.401818 491.348571 
L 573.938182 479.287037 
L 576.474545 466.078818 
L 579.518182 448.909413 
L 583.069091 427.383062 
L 587.127273 401.339633 
L 594.736364 350.653297 
L 600.316364 314.135256 
L 604.374545 289.059632 
L 607.418182 271.506105 
L 610.461818 255.300746 
L 612.998182 242.988661 
L 615.534545 231.886262 
L 617.563636 223.946074 
L 619.592727 216.894636 
L 621.621818 210.773413 
L 622.636364 208.072928 
L 622.636364 208.072928 
" style="fill:none;stroke:#1f77b4;stroke-linecap:square;stroke-width:1.5;"/>
   </g>
   <g id="line2d_13">
    <path clip-path="url(#pd65cdebd7f)" d="M 115.363636 358.2 
L 118.407273 326.619118 
L 121.450909 297.318224 
L 123.987273 274.843329 
L 126.523636 254.276942 
L 129.06 235.726422 
L 131.089091 222.393683 
L 133.118182 210.43528 
L 135.147273 199.872309 
L 137.176364 190.716287 
L 138.698182 184.77427 
L 140.22 179.622742 
L 141.741818 175.256606 
L 143.263636 171.668129 
L 144.278182 169.702878 
L 145.292727 168.075101 
L 146.307273 166.780694 
L 147.321818 165.815106 
L 148.336364 165.173356 
L 149.350909 164.850047 
L 150.365455 164.839386 
L 151.38 165.135199 
L 152.394545 165.730949 
L 153.409091 166.619753 
L 154.423636 167.7944 
L 155.438182 169.247371 
L 156.96 171.931516 
L 158.481818 175.196743 
L 160.003636 179.014301 
L 161.525455 183.354331 
L 163.554545 189.900365 
L 165.583636 197.245022 
L 168.12 207.430892 
L 170.656364 218.589385 
L 173.7 233.043488 
L 177.250909 251.032113 
L 182.323636 278.031634 
L 192.469091 332.359853 
L 196.527273 352.752002 
L 200.078182 369.431558 
L 203.121818 382.669879 
L 205.658182 392.856681 
L 208.194545 402.208903 
L 210.730909 410.676102 
L 212.76 416.785826 
L 214.789091 422.288632 
L 216.818182 427.173811 
L 218.847273 431.43495 
L 220.876364 435.069799 
L 222.398182 437.385849 
L 223.92 439.352698 
L 225.441818 440.973693 
L 226.963636 442.253309 
L 228.485455 443.197097 
L 230.007273 443.811638 
L 231.529091 444.104483 
L 233.050909 444.0841 
L 234.572727 443.759821 
L 236.094545 443.141775 
L 237.616364 442.240837 
L 239.138182 441.068561 
L 240.66 439.637122 
L 242.689091 437.34748 
L 244.718182 434.651334 
L 246.747273 431.581529 
L 249.283636 427.27054 
L 251.82 422.496639 
L 254.863636 416.254253 
L 258.414545 408.415055 
L 262.98 397.746352 
L 276.169091 366.484809 
L 280.227273 357.624444 
L 283.778182 350.436698 
L 286.821818 344.776034 
L 289.865455 339.632417 
L 292.401818 335.771423 
L 294.938182 332.317321 
L 297.474545 329.283929 
L 299.503636 327.166363 
L 301.532727 325.32642 
L 303.561818 323.76475 
L 305.590909 322.480235 
L 307.62 321.470062 
L 309.649091 320.729808 
L 311.678182 320.253531 
L 313.707273 320.033866 
L 315.736364 320.062129 
L 317.765455 320.328421 
L 319.794545 320.82174 
L 321.823636 321.530091 
L 323.852727 322.440599 
L 326.389091 323.842182 
L 328.925455 325.510261 
L 331.969091 327.822472 
L 335.012727 330.424093 
L 338.563636 333.754145 
L 343.129091 338.371957 
L 351.245455 347.005018 
L 357.84 353.890231 
L 362.405455 358.345977 
L 366.463636 361.983966 
L 370.014545 364.863458 
L 373.058182 367.077523 
L 376.101818 369.038723 
L 379.145455 370.734405 
L 382.189091 372.156362 
L 385.232727 373.300683 
L 388.276364 374.167562 
L 391.32 374.761055 
L 394.363636 375.088797 
L 397.407273 375.16169 
L 400.450909 374.993556 
L 403.494545 374.600781 
L 406.538182 374.001928 
L 410.089091 373.070052 
L 414.147273 371.740192 
L 418.712727 369.971755 
L 424.292727 367.531061 
L 433.423636 363.230034 
L 441.54 359.49041 
L 447.12 357.153092 
L 452.192727 355.279182 
L 456.758182 353.838824 
L 460.816364 352.775187 
L 464.874545 351.926507 
L 468.932727 351.297094 
L 472.990909 350.885541 
L 477.049091 350.685201 
L 481.614545 350.69803 
L 486.18 350.941574 
L 491.252727 351.449325 
L 496.832727 352.246064 
L 503.427273 353.426018 
L 513.572727 355.511502 
L 526.254545 358.090552 
L 533.863636 359.401904 
L 540.458182 360.312019 
L 546.545455 360.935882 
L 552.632727 361.34141 
L 558.72 361.531389 
L 565.314545 361.510558 
L 572.416364 361.258674 
L 580.532727 360.742144 
L 591.692727 359.785169 
L 614.012727 357.818868 
L 622.636364 357.267809 
L 622.636364 357.267809 
" style="fill:none;stroke:#ff7f0e;stroke-linecap:square;stroke-width:1.5;"/>
   </g>
   <g id="line2d_14">
    <path clip-path="url(#pd65cdebd7f)" d="M 115.363636 358.2 
L 116.378182 348.348837 
L 117.392727 340.297669 
L 118.407273 333.731887 
L 119.421818 328.391756 
L 120.436364 324.062847 
L 121.450909 320.568133 
L 122.465455 317.761468 
L 123.48 315.522198 
L 124.494545 313.75072 
L 125.509091 312.364806 
L 126.523636 311.296575 
L 127.538182 310.489989 
L 128.552727 309.898789 
L 130.074545 309.334165 
L 131.596364 309.067817 
L 133.118182 309.023266 
L 135.147273 309.211904 
L 137.683636 309.715094 
L 141.234545 310.708901 
L 146.814545 312.568832 
L 165.076364 318.806384 
L 174.714545 321.806259 
L 184.352727 324.580563 
L 194.498182 327.273212 
L 205.150909 329.868786 
L 216.310909 332.354645 
L 227.978182 334.720603 
L 240.152727 336.958825 
L 252.834545 339.063731 
L 266.023636 341.031864 
L 280.227273 342.92563 
L 295.445455 344.723479 
L 311.678182 346.408567 
L 328.925455 347.968728 
L 347.187273 349.396264 
L 366.970909 350.718893 
L 388.783636 351.948082 
L 412.625455 353.06182 
L 439.003636 354.064376 
L 468.425455 354.953647 
L 501.905455 355.735394 
L 540.458182 356.405387 
L 586.112727 356.967422 
L 622.636364 357.287382 
L 622.636364 357.287382 
" style="fill:none;stroke:#2ca02c;stroke-linecap:square;stroke-width:1.5;"/>
   </g>
   <g id="line2d_15">
    <path clip-path="url(#pd65cdebd7f)" d="M 115.363636 358.2 
L 115.718727 355.463528 
L 116.124545 353.977548 
L 116.530364 353.310598 
L 116.986909 352.988654 
L 117.646364 352.82998 
L 119.117455 352.779067 
L 137.480727 352.853741 
L 405.016364 353.87093 
L 622.636364 354.553806 
L 622.636364 354.553806 
" style="fill:none;stroke:#d62728;stroke-linecap:square;stroke-width:1.5;"/>
   </g>
   <g id="patch_3">
    <path d="M 90 630 
L 90 86.4 
" style="fill:none;stroke:#000000;stroke-linecap:square;stroke-linejoin:miter;stroke-width:0.8;"/>
   </g>
   <g id="patch_4">
    <path d="M 648 630 
L 648 86.4 
" style="fill:none;stroke:#000000;stroke-linecap:square;stroke-linejoin:miter;stroke-width:0.8;"/>
   </g>
   <g id="patch_5">
    <path d="M 90 630 
L 648 630 
" style="fill:none;stroke:#000000;stroke-linecap:square;stroke-linejoin:miter;stroke-width:0.8;"/>
   </g>
   <g id="patch_6">
    <path d="M 90 86.4 
L 648 86.4 
" style="fill:none;stroke:#000000;stroke-linecap:square;stroke-linejoin:miter;stroke-width:0.8;"/>
   </g>
   <g id="legend_1">
    <g id="patch_7">
     <path d="M 532.22 623 
L 638.2 623 
Q 641 623 641 620.2 
L 641 539.28875 
Q 641 536.48875 638.2 536.48875 
L 532.22 536.48875 
Q 529.42 536.48875 529.42 539.28875 
L 529.42 620.2 
Q 529.42 623 532.22 623 
z
" style="fill:#ffffff;opacity:0.8;stroke:#cccccc;stroke-linejoin:miter;"/>
    </g>
    <g id="line2d_16">
     <path d="M 535.02 547.826563 
L 563.02 547.826563 
" style="fill:none;stroke:#1f77b4;stroke-linecap:square;stroke-width:1.5;"/>
    </g>
    <g id="line2d_17"/>
    <g id="text_14">
     <!-- $\gamma=1$ -->
     <defs>
      <path d="M 23.296875 46.09375 
L 28.71875 12.3125 
L 54 54.6875 
L 63.53125 54.6875 
L 30.8125 0 
L 26.765625 -20.796875 
L 17.78125 -20.796875 
L 21.828125 0 
L 15.4375 40.828125 
Q 14.453125 46.96875 9.8125 46.96875 
L 7.421875 46.96875 
L 8.890625 54.6875 
L 12.3125 54.6875 
Q 21.921875 54.6875 23.296875 46.09375 
z
" id="DejaVuSans-Oblique-947"/>
      <path d="M 10.59375 45.40625 
L 73.1875 45.40625 
L 73.1875 37.203125 
L 10.59375 37.203125 
z
M 10.59375 25.484375 
L 73.1875 25.484375 
L 73.1875 17.1875 
L 10.59375 17.1875 
z
" id="DejaVuSans-61"/>
     </defs>
     <g transform="translate(574.22 552.726562)scale(0.14 -0.14)">
      <use transform="translate(0 0.09375)" xlink:href="#DejaVuSans-Oblique-947"/>
      <use transform="translate(78.662109 0.09375)" xlink:href="#DejaVuSans-61"/>
      <use transform="translate(181.933594 0.09375)" xlink:href="#DejaVuSans-49"/>
     </g>
    </g>
    <g id="line2d_18">
     <path d="M 535.02 568.404375 
L 563.02 568.404375 
" style="fill:none;stroke:#ff7f0e;stroke-linecap:square;stroke-width:1.5;"/>
    </g>
    <g id="line2d_19"/>
    <g id="text_15">
     <!-- $\gamma=10$ -->
     <g transform="translate(574.22 573.304375)scale(0.14 -0.14)">
      <use transform="translate(0 0.78125)" xlink:href="#DejaVuSans-Oblique-947"/>
      <use transform="translate(78.662109 0.78125)" xlink:href="#DejaVuSans-61"/>
      <use transform="translate(181.933594 0.78125)" xlink:href="#DejaVuSans-49"/>
      <use transform="translate(245.556641 0.78125)" xlink:href="#DejaVuSans-48"/>
     </g>
    </g>
    <g id="line2d_20">
     <path d="M 535.02 588.982188 
L 563.02 588.982188 
" style="fill:none;stroke:#2ca02c;stroke-linecap:square;stroke-width:1.5;"/>
    </g>
    <g id="line2d_21"/>
    <g id="text_16">
     <!-- $\gamma=100$ -->
     <g transform="translate(574.22 593.882187)scale(0.14 -0.14)">
      <use transform="translate(0 0.78125)" xlink:href="#DejaVuSans-Oblique-947"/>
      <use transform="translate(78.662109 0.78125)" xlink:href="#DejaVuSans-61"/>
      <use transform="translate(181.933594 0.78125)" xlink:href="#DejaVuSans-49"/>
      <use transform="translate(245.556641 0.78125)" xlink:href="#DejaVuSans-48"/>
      <use transform="translate(309.179688 0.78125)" xlink:href="#DejaVuSans-48"/>
     </g>
    </g>
    <g id="line2d_22">
     <path d="M 535.02 609.56 
L 563.02 609.56 
" style="fill:none;stroke:#d62728;stroke-linecap:square;stroke-width:1.5;"/>
    </g>
    <g id="line2d_23"/>
    <g id="text_17">
     <!-- $\gamma=1000$ -->
     <g transform="translate(574.22 614.46)scale(0.14 -0.14)">
      <use transform="translate(0 0.78125)" xlink:href="#DejaVuSans-Oblique-947"/>
      <use transform="translate(78.662109 0.78125)" xlink:href="#DejaVuSans-61"/>
      <use transform="translate(181.933594 0.78125)" xlink:href="#DejaVuSans-49"/>
      <use transform="translate(245.556641 0.78125)" xlink:href="#DejaVuSans-48"/>
      <use transform="translate(309.179688 0.78125)" xlink:href="#DejaVuSans-48"/>
      <use transform="translate(372.802734 0.78125)" xlink:href="#DejaVuSans-48"/>
     </g>
    </g>
   </g>
  </g>
 </g>
 <defs>
  <clipPath id="pd65cdebd7f">
   <rect height="543.6" width="558" x="90" y="86.4"/>
  </clipPath>
 </defs>
</svg>
