<?xml version="1.0" encoding="utf-8" standalone="no"?>
<!DOCTYPE svg PUBLIC "-//W3C//DTD SVG 1.1//EN"
  "http://www.w3.org/Graphics/SVG/1.1/DTD/svg11.dtd">
<!-- Created with matplotlib (https://matplotlib.org/) -->
<svg height="720pt" version="1.1" viewBox="0 0 720 720" width="720pt" xmlns="http://www.w3.org/2000/svg" xmlns:xlink="http://www.w3.org/1999/xlink">
 <defs>
  <style type="text/css">
*{stroke-linecap:butt;stroke-linejoin:round;}
  </style>
 </defs>
 <g id="figure_1">
  <g id="patch_1">
   <path d="M 0 720 
L 720 720 
L 720 0 
L 0 0 
z
" style="fill:#ffffff;"/>
  </g>
  <g id="axes_1">
   <g id="patch_2">
    <path d="M 90 630 
L 648 630 
L 648 86.4 
L 90 86.4 
z
" style="fill:#ffffff;"/>
   </g>
   <g id="matplotlib.axis_1">
    <g id="xtick_1">
     <g id="line2d_1">
      <defs>
       <path d="M 0 0 
L 0 3.5 
" id="ma5bc6c34a7" style="stroke:#000000;stroke-width:0.8;"/>
      </defs>
      <g>
       <use style="stroke:#000000;stroke-width:0.8;" x="90" xlink:href="#ma5bc6c34a7" y="630"/>
      </g>
     </g>
     <g id="text_1">
      <!-- 0 -->
      <defs>
       <path d="M 31.78125 66.40625 
Q 24.171875 66.40625 20.328125 58.90625 
Q 16.5 51.421875 16.5 36.375 
Q 16.5 21.390625 20.328125 13.890625 
Q 24.171875 6.390625 31.78125 6.390625 
Q 39.453125 6.390625 43.28125 13.890625 
Q 47.125 21.390625 47.125 36.375 
Q 47.125 51.421875 43.28125 58.90625 
Q 39.453125 66.40625 31.78125 66.40625 
z
M 31.78125 74.21875 
Q 44.046875 74.21875 50.515625 64.515625 
Q 56.984375 54.828125 56.984375 36.375 
Q 56.984375 17.96875 50.515625 8.265625 
Q 44.046875 -1.421875 31.78125 -1.421875 
Q 19.53125 -1.421875 13.0625 8.265625 
Q 6.59375 17.96875 6.59375 36.375 
Q 6.59375 54.828125 13.0625 64.515625 
Q 19.53125 74.21875 31.78125 74.21875 
z
" id="DejaVuSans-48"/>
      </defs>
      <g transform="translate(86.81875 644.598438)scale(0.1 -0.1)">
       <use xlink:href="#DejaVuSans-48"/>
      </g>
     </g>
    </g>
    <g id="xtick_2">
     <g id="line2d_2">
      <g>
       <use style="stroke:#000000;stroke-width:0.8;" x="201.6" xlink:href="#ma5bc6c34a7" y="630"/>
      </g>
     </g>
     <g id="text_2">
      <!-- 2 -->
      <defs>
       <path d="M 19.1875 8.296875 
L 53.609375 8.296875 
L 53.609375 0 
L 7.328125 0 
L 7.328125 8.296875 
Q 12.9375 14.109375 22.625 23.890625 
Q 32.328125 33.6875 34.8125 36.53125 
Q 39.546875 41.84375 41.421875 45.53125 
Q 43.3125 49.21875 43.3125 52.78125 
Q 43.3125 58.59375 39.234375 62.25 
Q 35.15625 65.921875 28.609375 65.921875 
Q 23.96875 65.921875 18.8125 64.3125 
Q 13.671875 62.703125 7.8125 59.421875 
L 7.8125 69.390625 
Q 13.765625 71.78125 18.9375 73 
Q 24.125 74.21875 28.421875 74.21875 
Q 39.75 74.21875 46.484375 68.546875 
Q 53.21875 62.890625 53.21875 53.421875 
Q 53.21875 48.921875 51.53125 44.890625 
Q 49.859375 40.875 45.40625 35.40625 
Q 44.1875 33.984375 37.640625 27.21875 
Q 31.109375 20.453125 19.1875 8.296875 
z
" id="DejaVuSans-50"/>
      </defs>
      <g transform="translate(198.41875 644.598438)scale(0.1 -0.1)">
       <use xlink:href="#DejaVuSans-50"/>
      </g>
     </g>
    </g>
    <g id="xtick_3">
     <g id="line2d_3">
      <g>
       <use style="stroke:#000000;stroke-width:0.8;" x="313.2" xlink:href="#ma5bc6c34a7" y="630"/>
      </g>
     </g>
     <g id="text_3">
      <!-- 4 -->
      <defs>
       <path d="M 37.796875 64.3125 
L 12.890625 25.390625 
L 37.796875 25.390625 
z
M 35.203125 72.90625 
L 47.609375 72.90625 
L 47.609375 25.390625 
L 58.015625 25.390625 
L 58.015625 17.1875 
L 47.609375 17.1875 
L 47.609375 0 
L 37.796875 0 
L 37.796875 17.1875 
L 4.890625 17.1875 
L 4.890625 26.703125 
z
" id="DejaVuSans-52"/>
      </defs>
      <g transform="translate(310.01875 644.598438)scale(0.1 -0.1)">
       <use xlink:href="#DejaVuSans-52"/>
      </g>
     </g>
    </g>
    <g id="xtick_4">
     <g id="line2d_4">
      <g>
       <use style="stroke:#000000;stroke-width:0.8;" x="424.8" xlink:href="#ma5bc6c34a7" y="630"/>
      </g>
     </g>
     <g id="text_4">
      <!-- 6 -->
      <defs>
       <path d="M 33.015625 40.375 
Q 26.375 40.375 22.484375 35.828125 
Q 18.609375 31.296875 18.609375 23.390625 
Q 18.609375 15.53125 22.484375 10.953125 
Q 26.375 6.390625 33.015625 6.390625 
Q 39.65625 6.390625 43.53125 10.953125 
Q 47.40625 15.53125 47.40625 23.390625 
Q 47.40625 31.296875 43.53125 35.828125 
Q 39.65625 40.375 33.015625 40.375 
z
M 52.59375 71.296875 
L 52.59375 62.3125 
Q 48.875 64.0625 45.09375 64.984375 
Q 41.3125 65.921875 37.59375 65.921875 
Q 27.828125 65.921875 22.671875 59.328125 
Q 17.53125 52.734375 16.796875 39.40625 
Q 19.671875 43.65625 24.015625 45.921875 
Q 28.375 48.1875 33.59375 48.1875 
Q 44.578125 48.1875 50.953125 41.515625 
Q 57.328125 34.859375 57.328125 23.390625 
Q 57.328125 12.15625 50.6875 5.359375 
Q 44.046875 -1.421875 33.015625 -1.421875 
Q 20.359375 -1.421875 13.671875 8.265625 
Q 6.984375 17.96875 6.984375 36.375 
Q 6.984375 53.65625 15.1875 63.9375 
Q 23.390625 74.21875 37.203125 74.21875 
Q 40.921875 74.21875 44.703125 73.484375 
Q 48.484375 72.75 52.59375 71.296875 
z
" id="DejaVuSans-54"/>
      </defs>
      <g transform="translate(421.61875 644.598438)scale(0.1 -0.1)">
       <use xlink:href="#DejaVuSans-54"/>
      </g>
     </g>
    </g>
    <g id="xtick_5">
     <g id="line2d_5">
      <g>
       <use style="stroke:#000000;stroke-width:0.8;" x="536.4" xlink:href="#ma5bc6c34a7" y="630"/>
      </g>
     </g>
     <g id="text_5">
      <!-- 8 -->
      <defs>
       <path d="M 31.78125 34.625 
Q 24.75 34.625 20.71875 30.859375 
Q 16.703125 27.09375 16.703125 20.515625 
Q 16.703125 13.921875 20.71875 10.15625 
Q 24.75 6.390625 31.78125 6.390625 
Q 38.8125 6.390625 42.859375 10.171875 
Q 46.921875 13.96875 46.921875 20.515625 
Q 46.921875 27.09375 42.890625 30.859375 
Q 38.875 34.625 31.78125 34.625 
z
M 21.921875 38.8125 
Q 15.578125 40.375 12.03125 44.71875 
Q 8.5 49.078125 8.5 55.328125 
Q 8.5 64.0625 14.71875 69.140625 
Q 20.953125 74.21875 31.78125 74.21875 
Q 42.671875 74.21875 48.875 69.140625 
Q 55.078125 64.0625 55.078125 55.328125 
Q 55.078125 49.078125 51.53125 44.71875 
Q 48 40.375 41.703125 38.8125 
Q 48.828125 37.15625 52.796875 32.3125 
Q 56.78125 27.484375 56.78125 20.515625 
Q 56.78125 9.90625 50.3125 4.234375 
Q 43.84375 -1.421875 31.78125 -1.421875 
Q 19.734375 -1.421875 13.25 4.234375 
Q 6.78125 9.90625 6.78125 20.515625 
Q 6.78125 27.484375 10.78125 32.3125 
Q 14.796875 37.15625 21.921875 38.8125 
z
M 18.3125 54.390625 
Q 18.3125 48.734375 21.84375 45.5625 
Q 25.390625 42.390625 31.78125 42.390625 
Q 38.140625 42.390625 41.71875 45.5625 
Q 45.3125 48.734375 45.3125 54.390625 
Q 45.3125 60.0625 41.71875 63.234375 
Q 38.140625 66.40625 31.78125 66.40625 
Q 25.390625 66.40625 21.84375 63.234375 
Q 18.3125 60.0625 18.3125 54.390625 
z
" id="DejaVuSans-56"/>
      </defs>
      <g transform="translate(533.21875 644.598438)scale(0.1 -0.1)">
       <use xlink:href="#DejaVuSans-56"/>
      </g>
     </g>
    </g>
    <g id="xtick_6">
     <g id="line2d_6">
      <g>
       <use style="stroke:#000000;stroke-width:0.8;" x="648" xlink:href="#ma5bc6c34a7" y="630"/>
      </g>
     </g>
     <g id="text_6">
      <!-- 10 -->
      <defs>
       <path d="M 12.40625 8.296875 
L 28.515625 8.296875 
L 28.515625 63.921875 
L 10.984375 60.40625 
L 10.984375 69.390625 
L 28.421875 72.90625 
L 38.28125 72.90625 
L 38.28125 8.296875 
L 54.390625 8.296875 
L 54.390625 0 
L 12.40625 0 
z
" id="DejaVuSans-49"/>
      </defs>
      <g transform="translate(641.6375 644.598438)scale(0.1 -0.1)">
       <use xlink:href="#DejaVuSans-49"/>
       <use x="63.623047" xlink:href="#DejaVuSans-48"/>
      </g>
     </g>
    </g>
    <g id="text_7">
     <!-- t -->
     <defs>
      <path d="M 18.3125 70.21875 
L 18.3125 54.6875 
L 36.8125 54.6875 
L 36.8125 47.703125 
L 18.3125 47.703125 
L 18.3125 18.015625 
Q 18.3125 11.328125 20.140625 9.421875 
Q 21.96875 7.515625 27.59375 7.515625 
L 36.8125 7.515625 
L 36.8125 0 
L 27.59375 0 
Q 17.1875 0 13.234375 3.875 
Q 9.28125 7.765625 9.28125 18.015625 
L 9.28125 47.703125 
L 2.6875 47.703125 
L 2.6875 54.6875 
L 9.28125 54.6875 
L 9.28125 70.21875 
z
" id="DejaVuSans-116"/>
     </defs>
     <g transform="translate(366.255781 661.315938)scale(0.14 -0.14)">
      <use xlink:href="#DejaVuSans-116"/>
     </g>
    </g>
   </g>
   <g id="matplotlib.axis_2">
    <g id="ytick_1">
     <g id="line2d_7">
      <defs>
       <path d="M 0 0 
L -3.5 0 
" id="m90a273675f" style="stroke:#000000;stroke-width:0.8;"/>
      </defs>
      <g>
       <use style="stroke:#000000;stroke-width:0.8;" x="90" xlink:href="#m90a273675f" y="605.170749"/>
      </g>
     </g>
     <g id="text_8">
      <!-- 0.0 -->
      <defs>
       <path d="M 10.6875 12.40625 
L 21 12.40625 
L 21 0 
L 10.6875 0 
z
" id="DejaVuSans-46"/>
      </defs>
      <g transform="translate(67.096875 608.969967)scale(0.1 -0.1)">
       <use xlink:href="#DejaVuSans-48"/>
       <use x="63.623047" xlink:href="#DejaVuSans-46"/>
       <use x="95.410156" xlink:href="#DejaVuSans-48"/>
      </g>
     </g>
    </g>
    <g id="ytick_2">
     <g id="line2d_8">
      <g>
       <use style="stroke:#000000;stroke-width:0.8;" x="90" xlink:href="#m90a273675f" y="506.358417"/>
      </g>
     </g>
     <g id="text_9">
      <!-- 0.2 -->
      <g transform="translate(67.096875 510.157636)scale(0.1 -0.1)">
       <use xlink:href="#DejaVuSans-48"/>
       <use x="63.623047" xlink:href="#DejaVuSans-46"/>
       <use x="95.410156" xlink:href="#DejaVuSans-50"/>
      </g>
     </g>
    </g>
    <g id="ytick_3">
     <g id="line2d_9">
      <g>
       <use style="stroke:#000000;stroke-width:0.8;" x="90" xlink:href="#m90a273675f" y="407.546085"/>
      </g>
     </g>
     <g id="text_10">
      <!-- 0.4 -->
      <g transform="translate(67.096875 411.345304)scale(0.1 -0.1)">
       <use xlink:href="#DejaVuSans-48"/>
       <use x="63.623047" xlink:href="#DejaVuSans-46"/>
       <use x="95.410156" xlink:href="#DejaVuSans-52"/>
      </g>
     </g>
    </g>
    <g id="ytick_4">
     <g id="line2d_10">
      <g>
       <use style="stroke:#000000;stroke-width:0.8;" x="90" xlink:href="#m90a273675f" y="308.733754"/>
      </g>
     </g>
     <g id="text_11">
      <!-- 0.6 -->
      <g transform="translate(67.096875 312.532973)scale(0.1 -0.1)">
       <use xlink:href="#DejaVuSans-48"/>
       <use x="63.623047" xlink:href="#DejaVuSans-46"/>
       <use x="95.410156" xlink:href="#DejaVuSans-54"/>
      </g>
     </g>
    </g>
    <g id="ytick_5">
     <g id="line2d_11">
      <g>
       <use style="stroke:#000000;stroke-width:0.8;" x="90" xlink:href="#m90a273675f" y="209.921422"/>
      </g>
     </g>
     <g id="text_12">
      <!-- 0.8 -->
      <g transform="translate(67.096875 213.720641)scale(0.1 -0.1)">
       <use xlink:href="#DejaVuSans-48"/>
       <use x="63.623047" xlink:href="#DejaVuSans-46"/>
       <use x="95.410156" xlink:href="#DejaVuSans-56"/>
      </g>
     </g>
    </g>
    <g id="ytick_6">
     <g id="line2d_12">
      <g>
       <use style="stroke:#000000;stroke-width:0.8;" x="90" xlink:href="#m90a273675f" y="111.109091"/>
      </g>
     </g>
     <g id="text_13">
      <!-- 1.0 -->
      <g transform="translate(67.096875 114.90831)scale(0.1 -0.1)">
       <use xlink:href="#DejaVuSans-49"/>
       <use x="63.623047" xlink:href="#DejaVuSans-46"/>
       <use x="95.410156" xlink:href="#DejaVuSans-48"/>
      </g>
     </g>
    </g>
    <g id="text_14">
     <!-- $P_{51}(\rho)$ -->
     <defs>
      <path d="M 16.890625 72.90625 
L 39.703125 72.90625 
Q 49.65625 72.90625 54.875 68.265625 
Q 60.109375 63.625 60.109375 54.6875 
Q 60.109375 42.671875 52.390625 35.984375 
Q 44.671875 29.296875 30.71875 29.296875 
L 18.3125 29.296875 
L 12.59375 0 
L 2.6875 0 
z
M 25.203125 64.796875 
L 19.921875 37.40625 
L 32.328125 37.40625 
Q 40.71875 37.40625 45.203125 41.703125 
Q 49.703125 46 49.703125 54 
Q 49.703125 59.125 46.65625 61.953125 
Q 43.609375 64.796875 38.09375 64.796875 
z
" id="DejaVuSans-Oblique-80"/>
      <path d="M 10.796875 72.90625 
L 49.515625 72.90625 
L 49.515625 64.59375 
L 19.828125 64.59375 
L 19.828125 46.734375 
Q 21.96875 47.46875 24.109375 47.828125 
Q 26.265625 48.1875 28.421875 48.1875 
Q 40.625 48.1875 47.75 41.5 
Q 54.890625 34.8125 54.890625 23.390625 
Q 54.890625 11.625 47.5625 5.09375 
Q 40.234375 -1.421875 26.90625 -1.421875 
Q 22.3125 -1.421875 17.546875 -0.640625 
Q 12.796875 0.140625 7.71875 1.703125 
L 7.71875 11.625 
Q 12.109375 9.234375 16.796875 8.0625 
Q 21.484375 6.890625 26.703125 6.890625 
Q 35.15625 6.890625 40.078125 11.328125 
Q 45.015625 15.765625 45.015625 23.390625 
Q 45.015625 31 40.078125 35.4375 
Q 35.15625 39.890625 26.703125 39.890625 
Q 22.75 39.890625 18.8125 39.015625 
Q 14.890625 38.140625 10.796875 36.28125 
z
" id="DejaVuSans-53"/>
      <path d="M 31 75.875 
Q 24.46875 64.65625 21.28125 53.65625 
Q 18.109375 42.671875 18.109375 31.390625 
Q 18.109375 20.125 21.3125 9.0625 
Q 24.515625 -2 31 -13.1875 
L 23.1875 -13.1875 
Q 15.875 -1.703125 12.234375 9.375 
Q 8.59375 20.453125 8.59375 31.390625 
Q 8.59375 42.28125 12.203125 53.3125 
Q 15.828125 64.359375 23.1875 75.875 
z
" id="DejaVuSans-40"/>
      <path d="M 18.796875 44.921875 
Q 22.703125 49.90625 30.953125 54.296875 
Q 34.1875 56 43.0625 56 
Q 53.03125 56 57.71875 48.09375 
Q 62.40625 40.1875 59.90625 27.296875 
Q 57.375 14.40625 49.609375 6.484375 
Q 41.84375 -1.421875 31.890625 -1.421875 
Q 25.875 -1.421875 22.015625 0.984375 
Q 18.171875 3.328125 16.3125 8.203125 
L 10.640625 -20.796875 
L 1.609375 -20.796875 
L 10.890625 26.8125 
Q 13.09375 38.09375 18.796875 44.921875 
z
M 50.59375 27.296875 
Q 52.484375 37.203125 49.515625 42.875 
Q 46.53125 48.484375 39.40625 48.484375 
Q 32.28125 48.484375 27.09375 42.875 
Q 21.921875 37.203125 20.015625 27.296875 
Q 18.0625 17.390625 21.046875 11.71875 
Q 24.03125 6.109375 31.15625 6.109375 
Q 38.28125 6.109375 43.453125 11.71875 
Q 48.640625 17.390625 50.59375 27.296875 
z
" id="DejaVuSans-Oblique-961"/>
      <path d="M 8.015625 75.875 
L 15.828125 75.875 
Q 23.140625 64.359375 26.78125 53.3125 
Q 30.421875 42.28125 30.421875 31.390625 
Q 30.421875 20.453125 26.78125 9.375 
Q 23.140625 -1.703125 15.828125 -13.1875 
L 8.015625 -13.1875 
Q 14.5 -2 17.703125 9.0625 
Q 20.90625 20.125 20.90625 31.390625 
Q 20.90625 42.671875 17.703125 53.65625 
Q 14.5 64.65625 8.015625 75.875 
z
" id="DejaVuSans-41"/>
     </defs>
     <g transform="translate(60.156875 378.78)rotate(-90)scale(0.14 -0.14)">
      <use transform="translate(0 0.125)" xlink:href="#DejaVuSans-Oblique-80"/>
      <use transform="translate(60.302734 -16.28125)scale(0.7)" xlink:href="#DejaVuSans-53"/>
      <use transform="translate(104.838867 -16.28125)scale(0.7)" xlink:href="#DejaVuSans-49"/>
      <use transform="translate(152.109375 0.125)" xlink:href="#DejaVuSans-40"/>
      <use transform="translate(191.123047 0.125)" xlink:href="#DejaVuSans-Oblique-961"/>
      <use transform="translate(254.599609 0.125)" xlink:href="#DejaVuSans-41"/>
     </g>
    </g>
   </g>
   <g id="line2d_13">
    <path clip-path="url(#pc17f075f4f)" d="M 90 111.109091 
L 90.558 120.916215 
L 91.116 149.461957 
L 91.674 194.223849 
L 92.79 315.860647 
L 93.906 446.388594 
L 95.022 548.047756 
L 95.58 580.404301 
L 96.138 599.16842 
L 96.696 605.198846 
L 97.254 600.585527 
L 97.812 588.308365 
L 99.486 539.640933 
L 100.044 529.360031 
L 100.602 525.104618 
L 101.16 527.218372 
L 101.718 535.070479 
L 102.834 561.77814 
L 103.95 589.538183 
L 104.508 599.130656 
L 105.066 604.325185 
L 105.624 604.829827 
L 106.182 601.056943 
L 106.74 594.016026 
L 108.414 568.119711 
L 108.972 562.762082 
L 109.53 560.691105 
L 110.088 562.138013 
L 110.646 566.783892 
L 111.762 582.179919 
L 112.878 597.737377 
L 113.436 602.773347 
L 113.994 605.055302 
L 114.552 604.426623 
L 115.11 601.179214 
L 116.226 589.798638 
L 117.342 578.568543 
L 117.9 575.32148 
L 118.458 574.395214 
L 119.016 575.890028 
L 119.574 579.528411 
L 120.69 590.624982 
L 121.806 601.097203 
L 122.364 604.155007 
L 122.922 605.161839 
L 123.48 604.066505 
L 124.038 601.142838 
L 125.154 592.174208 
L 125.712 587.642174 
L 126.27 584.066978 
L 126.828 582.003459 
L 127.386 581.754802 
L 127.944 583.333325 
L 128.502 586.467214 
L 130.734 602.845879 
L 131.292 604.780464 
L 131.85 605.068771 
L 132.408 603.731735 
L 132.966 601.041457 
L 134.64 590.119805 
L 135.198 587.518456 
L 135.756 586.221012 
L 136.314 586.416306 
L 136.872 588.056067 
L 137.43 590.868102 
L 139.104 601.427721 
L 139.662 603.858195 
L 140.22 605.060231 
L 140.778 604.888917 
L 141.336 603.41606 
L 141.894 600.914296 
L 143.568 591.843587 
L 144.126 589.932271 
L 144.684 589.17524 
L 145.242 589.680081 
L 145.8 591.355189 
L 146.916 596.991289 
L 148.032 602.691366 
L 148.59 604.469452 
L 149.148 605.152605 
L 149.706 604.665758 
L 150.264 603.11766 
L 151.38 598.044466 
L 152.496 593.14089 
L 153.054 591.75054 
L 153.612 591.396175 
L 154.17 592.124594 
L 154.728 593.812458 
L 155.844 598.878425 
L 156.96 603.554373 
L 157.518 604.836343 
L 158.076 605.132249 
L 158.634 604.420288 
L 159.192 602.836442 
L 161.424 594.17661 
L 161.982 593.196848 
L 162.54 593.15327 
L 163.098 594.045635 
L 163.656 595.727181 
L 165.888 604.153151 
L 166.446 605.042447 
L 167.004 605.039564 
L 167.562 604.164405 
L 168.12 602.573024 
L 169.794 596.440143 
L 170.352 595.042392 
L 170.91 594.39589 
L 171.468 594.597463 
L 172.026 595.609721 
L 172.584 597.268749 
L 174.258 603.263508 
L 174.816 604.566987 
L 175.374 605.136886 
L 175.932 604.898778 
L 176.49 603.905724 
L 177.606 600.426416 
L 178.722 596.877239 
L 179.28 595.792854 
L 179.838 595.422257 
L 180.396 595.819463 
L 180.954 596.917423 
L 182.07 600.43102 
L 183.186 603.844921 
L 183.744 604.845465 
L 184.302 605.150814 
L 184.86 604.725662 
L 185.418 603.649598 
L 186.534 600.338952 
L 187.65 597.276426 
L 188.208 596.462229 
L 188.766 596.32294 
L 189.324 596.876731 
L 189.882 598.032825 
L 192.114 604.282318 
L 192.672 605.021503 
L 193.23 605.105269 
L 193.788 604.531197 
L 194.346 603.40006 
L 196.578 597.651369 
L 197.136 597.072757 
L 197.694 597.128708 
L 198.252 597.807176 
L 198.81 598.99852 
L 200.484 603.552775 
L 201.042 604.606687 
L 201.6 605.118086 
L 202.158 605.015228 
L 202.716 604.323464 
L 203.274 603.160298 
L 204.948 598.919593 
L 205.506 598.011033 
L 206.064 597.63924 
L 206.622 597.860288 
L 207.18 598.63661 
L 208.296 601.290967 
L 209.412 603.998132 
L 209.97 604.840286 
L 210.528 605.151983 
L 211.086 604.891856 
L 211.644 604.108687 
L 212.76 601.555409 
L 213.876 599.073279 
L 214.434 598.361311 
L 214.992 598.17167 
L 215.55 598.531937 
L 216.108 599.38306 
L 217.224 601.960704 
L 218.34 604.349854 
L 218.898 604.999716 
L 219.456 605.135914 
L 220.014 604.743804 
L 220.572 603.891832 
L 222.804 599.238677 
L 223.362 598.706012 
L 223.92 598.676811 
L 224.478 599.153601 
L 225.036 600.059376 
L 227.268 604.622921 
L 227.826 605.097781 
L 228.384 605.079866 
L 228.942 604.578002 
L 229.5 603.676972 
L 231.174 600.209835 
L 231.732 599.416552 
L 232.29 599.047484 
L 232.848 599.159204 
L 233.406 599.73227 
L 233.964 600.674875 
L 235.638 604.089656 
L 236.196 604.829059 
L 236.754 605.144673 
L 237.312 604.991918 
L 237.87 604.400156 
L 238.986 602.344934 
L 240.102 600.248825 
L 240.66 599.607077 
L 241.218 599.387026 
L 241.776 599.621828 
L 242.334 600.27288 
L 243.45 602.360321 
L 244.566 604.388007 
L 245.124 604.977714 
L 245.682 605.148731 
L 246.24 604.878783 
L 246.798 604.215066 
L 247.914 602.185358 
L 249.03 600.308981 
L 249.588 599.809964 
L 250.146 599.725172 
L 250.704 600.06654 
L 251.262 600.778906 
L 253.494 604.627506 
L 254.052 605.076699 
L 254.61 605.116954 
L 255.168 604.746157 
L 255.726 604.026834 
L 257.958 600.389617 
L 258.516 600.024563 
L 259.074 600.061886 
L 259.632 600.494392 
L 260.19 601.252781 
L 261.864 604.148405 
L 262.422 604.814847 
L 262.98 605.132635 
L 263.538 605.055341 
L 264.096 604.598964 
L 265.212 602.898245 
L 266.328 601.079679 
L 266.886 600.489843 
L 267.444 600.249937 
L 268.002 600.39671 
L 268.56 600.90585 
L 269.676 602.642856 
L 270.792 604.410034 
L 271.35 604.955751 
L 271.908 605.15126 
L 272.466 604.969138 
L 273.024 604.441521 
L 274.14 602.735174 
L 275.256 601.081424 
L 275.814 600.60859 
L 276.372 600.484919 
L 276.93 600.728872 
L 277.488 601.300963 
L 279.72 604.625602 
L 280.278 605.055223 
L 280.836 605.13764 
L 281.394 604.862992 
L 281.952 604.277648 
L 284.184 601.105149 
L 284.742 600.744625 
L 285.3 600.728159 
L 285.858 601.057372 
L 286.416 601.679483 
L 288.648 604.799058 
L 289.206 605.117731 
L 289.764 605.096321 
L 290.322 604.741081 
L 290.88 604.110751 
L 292.554 601.69934 
L 293.112 601.150023 
L 293.67 600.896571 
L 294.228 600.978167 
L 294.786 601.381047 
L 295.902 602.853572 
L 297.018 604.422394 
L 297.576 604.933959 
L 298.134 605.147333 
L 298.692 605.03144 
L 299.25 604.607183 
L 300.366 603.148072 
L 301.482 601.666512 
L 302.04 601.215051 
L 302.598 601.062921 
L 303.156 601.233334 
L 303.714 601.698616 
L 304.83 603.183638 
L 305.946 604.619821 
L 306.504 605.033578 
L 307.062 605.147774 
L 307.62 604.94681 
L 308.178 604.464767 
L 310.41 601.654927 
L 310.968 601.299215 
L 311.526 601.242209 
L 312.084 601.492152 
L 312.642 602.008925 
L 314.874 604.782525 
L 315.432 605.101029 
L 315.99 605.122499 
L 316.548 604.845779 
L 317.106 604.316648 
L 319.338 601.662806 
L 319.896 601.399728 
L 320.454 601.430991 
L 321.012 601.750953 
L 322.128 603.015602 
L 323.244 604.427412 
L 323.802 604.911654 
L 324.36 605.138973 
L 324.918 605.075637 
L 325.476 604.733855 
L 326.592 603.473713 
L 327.708 602.133823 
L 328.266 601.702185 
L 328.824 601.53015 
L 329.382 601.64436 
L 329.94 602.0262 
L 331.056 603.317379 
L 332.172 604.620428 
L 332.73 605.016663 
L 333.288 605.149992 
L 333.846 605.000383 
L 334.404 604.592287 
L 335.52 603.290364 
L 336.636 602.032074 
L 337.194 601.670462 
L 337.752 601.572492 
L 338.31 601.75248 
L 338.868 602.181372 
L 341.1 604.714789 
L 341.658 605.060126 
L 342.216 605.15121 
L 342.774 604.980794 
L 343.332 604.583495 
L 345.564 602.411312 
L 346.122 602.191251 
L 346.68 602.22104 
L 347.238 602.496662 
L 348.354 603.569533 
L 349.47 604.710448 
L 350.028 605.048382 
L 350.586 605.126816 
L 351.144 604.911253 
L 351.702 604.410315 
L 352.818 602.791072 
L 353.934 601.019274 
L 354.492 600.35249 
L 355.05 599.948084 
L 355.608 599.85155 
L 356.166 600.067454 
L 356.724 600.560361 
L 357.84 602.081637 
L 358.956 603.697185 
L 359.514 604.335453 
L 360.072 604.799025 
L 360.63 605.081672 
L 361.746 605.221159 
L 363.978 605.127753 
L 365.094 605.10328 
L 365.652 604.909035 
L 366.21 604.455537 
L 366.768 603.635383 
L 367.326 602.358527 
L 367.884 600.568627 
L 368.442 598.255846 
L 369.558 592.2914 
L 371.79 579.111102 
L 372.348 576.629735 
L 372.906 574.784284 
L 373.464 573.652917 
L 374.022 573.255718 
L 374.58 573.555508 
L 375.138 574.464863 
L 375.696 575.857966 
L 376.812 579.48926 
L 377.928 583.234807 
L 379.044 586.108668 
L 379.602 587.01184 
L 380.16 587.489967 
L 380.718 587.507845 
L 381.276 587.03739 
L 381.834 586.054818 
L 382.392 584.541116 
L 382.95 582.486103 
L 384.066 576.800544 
L 385.182 569.398404 
L 386.856 557.513082 
L 387.414 554.201998 
L 387.972 551.625778 
L 388.53 550.010032 
L 389.088 549.535255 
L 389.646 550.316274 
L 390.204 552.386827 
L 390.762 555.691465 
L 391.878 565.348026 
L 394.668 594.01936 
L 395.226 598.19482 
L 395.784 601.406777 
L 396.342 603.617445 
L 396.9 604.867771 
L 397.458 605.265581 
L 398.016 604.968032 
L 398.574 604.160826 
L 399.69 601.77681 
L 400.806 599.422766 
L 401.364 598.516932 
L 401.922 597.847875 
L 402.48 597.41129 
L 403.038 597.175096 
L 404.154 597.092865 
L 405.27 597.130052 
L 405.828 597.055034 
L 406.386 596.858302 
L 406.944 596.505763 
L 407.502 595.971583 
L 408.06 595.238714 
L 409.176 593.163905 
L 410.292 590.411487 
L 411.966 586.107557 
L 412.524 585.048438 
L 413.082 584.388451 
L 413.64 584.24549 
L 414.198 584.7101 
L 414.756 585.829718 
L 415.314 587.595395 
L 416.43 592.702302 
L 418.104 601.359945 
L 418.662 603.46829 
L 419.22 604.75522 
L 419.778 605.028684 
L 420.336 604.176819 
L 420.894 602.184705 
L 421.452 599.14157 
L 422.568 590.747474 
L 424.242 577.26714 
L 424.8 573.953374 
L 425.358 571.711886 
L 425.916 570.708205 
L 426.474 571.001759 
L 427.032 572.543319 
L 427.59 575.183508 
L 428.706 582.778419 
L 430.38 595.428613 
L 430.938 598.871633 
L 431.496 601.616458 
L 432.054 603.585542 
L 432.612 604.775331 
L 433.17 605.246939 
L 433.728 605.111311 
L 434.286 604.511215 
L 435.402 602.53667 
L 436.518 600.439475 
L 437.634 598.927444 
L 438.192 598.472936 
L 438.75 598.209247 
L 439.308 598.106481 
L 440.424 598.226108 
L 443.214 598.865141 
L 446.004 599.239528 
L 447.12 599.812731 
L 448.236 600.904684 
L 449.352 602.467567 
L 450.468 604.103799 
L 451.026 604.723706 
L 451.584 605.059709 
L 452.142 604.996228 
L 452.7 604.433164 
L 453.258 603.301329 
L 453.816 601.57681 
L 454.932 596.542073 
L 457.164 584.700982 
L 457.722 582.744359 
L 458.28 581.645769 
L 458.838 581.543989 
L 459.396 582.489807 
L 459.954 584.433615 
L 460.512 587.223521 
L 462.744 601.060466 
L 463.302 603.457629 
L 463.86 604.824222 
L 464.418 604.99752 
L 464.976 603.933868 
L 465.534 601.715855 
L 466.092 598.545714 
L 468.324 583.180186 
L 468.882 580.559269 
L 469.44 579.034283 
L 469.998 578.742643 
L 470.556 579.697832 
L 471.114 581.790916 
L 471.672 584.805246 
L 474.462 602.349409 
L 475.02 604.219804 
L 475.578 605.131325 
L 476.136 605.09484 
L 476.694 604.213499 
L 477.252 602.665261 
L 479.484 594.558342 
L 480.042 593.171061 
L 480.6 592.339693 
L 481.158 592.107961 
L 481.716 592.457789 
L 482.274 593.31858 
L 483.39 596.112627 
L 485.064 600.986817 
L 486.18 603.442847 
L 486.738 604.269718 
L 487.296 604.822452 
L 487.854 605.123109 
L 488.412 605.207622 
L 488.97 605.119101 
L 490.086 604.597169 
L 495.666 601.123495 
L 496.782 600.731711 
L 497.898 600.636121 
L 498.456 600.743935 
L 499.014 600.974466 
L 500.13 601.814888 
L 501.804 603.715869 
L 502.92 604.807598 
L 503.478 605.074528 
L 504.036 605.052119 
L 504.594 604.679733 
L 505.152 603.922552 
L 505.71 602.780505 
L 506.826 599.547664 
L 508.5 594.116826 
L 509.058 592.796039 
L 509.616 591.98371 
L 510.174 591.789029 
L 510.732 592.263279 
L 511.29 593.387869 
L 511.848 595.069713 
L 514.08 603.373061 
L 514.638 604.594468 
L 515.196 605.030938 
L 515.754 604.569075 
L 516.312 603.191897 
L 516.87 600.986534 
L 517.986 594.921469 
L 519.102 588.69036 
L 519.66 586.347611 
L 520.218 584.8949 
L 520.776 584.506735 
L 521.334 585.242205 
L 521.892 587.03459 
L 522.45 589.695735 
L 524.682 602.406371 
L 525.24 604.273567 
L 525.798 605.056586 
L 526.356 604.660543 
L 526.914 603.126348 
L 527.472 600.626631 
L 529.704 587.586793 
L 530.262 585.446707 
L 530.82 584.350583 
L 531.378 584.416538 
L 531.936 585.629283 
L 532.494 587.84379 
L 533.61 594.175756 
L 534.726 600.663565 
L 535.284 603.091938 
L 535.842 604.633695 
L 536.4 605.161114 
L 536.958 604.666369 
L 537.516 603.258404 
L 538.632 598.610989 
L 539.748 593.542725 
L 540.306 591.605995 
L 540.864 590.372153 
L 541.422 589.963844 
L 541.98 590.405297 
L 542.538 591.624703 
L 543.096 593.467635 
L 545.328 602.469478 
L 545.886 603.994732 
L 546.444 604.923493 
L 547.002 605.219264 
L 547.56 604.917005 
L 548.118 604.113659 
L 549.234 601.602891 
L 550.35 599.025955 
L 550.908 598.090173 
L 551.466 597.521899 
L 552.024 597.362742 
L 552.582 597.607403 
L 553.14 598.209167 
L 554.256 600.1491 
L 555.93 603.374353 
L 556.488 604.17929 
L 557.046 604.759791 
L 557.604 605.100015 
L 558.162 605.207623 
L 558.72 605.109553 
L 559.836 604.467122 
L 562.068 602.741186 
L 563.184 602.239751 
L 564.3 602.138296 
L 565.416 602.406733 
L 566.532 602.94857 
L 569.88 604.886187 
L 570.996 605.152114 
L 571.554 605.136463 
L 572.112 605.006597 
L 573.228 604.394151 
L 574.344 603.379059 
L 576.576 601.140011 
L 577.134 600.804688 
L 577.692 600.648633 
L 578.25 600.699207 
L 578.808 600.965286 
L 579.366 601.433439 
L 580.482 602.802875 
L 581.598 604.256503 
L 582.156 604.786156 
L 582.714 605.065617 
L 583.272 605.027332 
L 583.83 604.633639 
L 584.388 603.884638 
L 585.504 601.52906 
L 587.178 597.54392 
L 587.736 596.660778 
L 588.294 596.207542 
L 588.852 596.252658 
L 589.41 596.808653 
L 589.968 597.826322 
L 591.084 600.758898 
L 592.2 603.674436 
L 592.758 604.629909 
L 593.316 605.03314 
L 593.874 604.791121 
L 594.432 603.886468 
L 594.99 602.383814 
L 596.106 598.219864 
L 597.222 594.065292 
L 597.78 592.613969 
L 598.338 591.844875 
L 598.896 591.865335 
L 599.454 592.687546 
L 600.012 594.223346 
L 601.128 598.638801 
L 602.244 602.9748 
L 602.802 604.389536 
L 603.36 605.008849 
L 603.918 604.725794 
L 604.476 603.545749 
L 605.034 601.588632 
L 607.266 591.33984 
L 607.824 589.764245 
L 608.382 589.093309 
L 608.94 589.418894 
L 609.498 590.707472 
L 610.056 592.802488 
L 612.288 603.192104 
L 612.846 604.602737 
L 613.404 605.03684 
L 613.962 604.429199 
L 614.52 602.847343 
L 615.078 600.483682 
L 616.752 591.906351 
L 617.31 589.753149 
L 617.868 588.458438 
L 618.426 588.184149 
L 618.984 588.963016 
L 619.542 590.694875 
L 620.658 596.048829 
L 621.774 601.652535 
L 622.332 603.684052 
L 622.89 604.859392 
L 623.448 605.0562 
L 624.006 604.280077 
L 624.564 602.662172 
L 625.68 597.927287 
L 626.796 593.39389 
L 627.354 591.982047 
L 627.912 591.416935 
L 628.47 591.768922 
L 629.028 592.98618 
L 629.586 594.902873 
L 631.26 602.036829 
L 631.818 603.820451 
L 632.376 604.863349 
L 632.934 605.022804 
L 633.492 604.267496 
L 634.05 602.679817 
L 635.166 597.820339 
L 636.282 592.634161 
L 636.84 590.658375 
L 637.398 589.399219 
L 637.956 588.981536 
L 638.514 589.431014 
L 639.072 590.675606 
L 639.63 592.559043 
L 641.862 601.861637 
L 642.42 603.524925 
L 642.978 604.647529 
L 643.536 605.216559 
L 644.094 605.290909 
L 644.652 604.987007 
L 646.326 603.364906 
L 646.884 603.065799 
L 647.442 603.031233 
L 648 603.262178 
L 648 603.262178 
" style="fill:none;stroke:#000000;stroke-linecap:square;stroke-width:1.5;"/>
   </g>
   <g id="patch_3">
    <path d="M 90 630 
L 90 86.4 
" style="fill:none;stroke:#000000;stroke-linecap:square;stroke-linejoin:miter;stroke-width:0.8;"/>
   </g>
   <g id="patch_4">
    <path d="M 648 630 
L 648 86.4 
" style="fill:none;stroke:#000000;stroke-linecap:square;stroke-linejoin:miter;stroke-width:0.8;"/>
   </g>
   <g id="patch_5">
    <path d="M 90 630 
L 648 630 
" style="fill:none;stroke:#000000;stroke-linecap:square;stroke-linejoin:miter;stroke-width:0.8;"/>
   </g>
   <g id="patch_6">
    <path d="M 90 86.4 
L 648 86.4 
" style="fill:none;stroke:#000000;stroke-linecap:square;stroke-linejoin:miter;stroke-width:0.8;"/>
   </g>
   <g id="patch_7">
    <path d="M 300.570035 512.19612 
Q 342.6517 534.526787 364.797627 577.690785 
" style="fill:none;stroke:#000000;stroke-linecap:round;"/>
    <path d="M 364.732532 571.430133 
L 364.797627 577.690785 
L 359.750048 573.986469 
" style="fill:none;stroke:#000000;stroke-linecap:round;"/>
   </g>
   <g id="text_15">
    <!-- Reflection due to the end of the chain -->
    <defs>
     <path d="M 44.390625 34.1875 
Q 47.5625 33.109375 50.5625 29.59375 
Q 53.5625 26.078125 56.59375 19.921875 
L 66.609375 0 
L 56 0 
L 46.6875 18.703125 
Q 43.0625 26.03125 39.671875 28.421875 
Q 36.28125 30.8125 30.421875 30.8125 
L 19.671875 30.8125 
L 19.671875 0 
L 9.8125 0 
L 9.8125 72.90625 
L 32.078125 72.90625 
Q 44.578125 72.90625 50.734375 67.671875 
Q 56.890625 62.453125 56.890625 51.90625 
Q 56.890625 45.015625 53.6875 40.46875 
Q 50.484375 35.9375 44.390625 34.1875 
z
M 19.671875 64.796875 
L 19.671875 38.921875 
L 32.078125 38.921875 
Q 39.203125 38.921875 42.84375 42.21875 
Q 46.484375 45.515625 46.484375 51.90625 
Q 46.484375 58.296875 42.84375 61.546875 
Q 39.203125 64.796875 32.078125 64.796875 
z
" id="DejaVuSans-82"/>
     <path d="M 56.203125 29.59375 
L 56.203125 25.203125 
L 14.890625 25.203125 
Q 15.484375 15.921875 20.484375 11.0625 
Q 25.484375 6.203125 34.421875 6.203125 
Q 39.59375 6.203125 44.453125 7.46875 
Q 49.3125 8.734375 54.109375 11.28125 
L 54.109375 2.78125 
Q 49.265625 0.734375 44.1875 -0.34375 
Q 39.109375 -1.421875 33.890625 -1.421875 
Q 20.796875 -1.421875 13.15625 6.1875 
Q 5.515625 13.8125 5.515625 26.8125 
Q 5.515625 40.234375 12.765625 48.109375 
Q 20.015625 56 32.328125 56 
Q 43.359375 56 49.78125 48.890625 
Q 56.203125 41.796875 56.203125 29.59375 
z
M 47.21875 32.234375 
Q 47.125 39.59375 43.09375 43.984375 
Q 39.0625 48.390625 32.421875 48.390625 
Q 24.90625 48.390625 20.390625 44.140625 
Q 15.875 39.890625 15.1875 32.171875 
z
" id="DejaVuSans-101"/>
     <path d="M 37.109375 75.984375 
L 37.109375 68.5 
L 28.515625 68.5 
Q 23.6875 68.5 21.796875 66.546875 
Q 19.921875 64.59375 19.921875 59.515625 
L 19.921875 54.6875 
L 34.71875 54.6875 
L 34.71875 47.703125 
L 19.921875 47.703125 
L 19.921875 0 
L 10.890625 0 
L 10.890625 47.703125 
L 2.296875 47.703125 
L 2.296875 54.6875 
L 10.890625 54.6875 
L 10.890625 58.5 
Q 10.890625 67.625 15.140625 71.796875 
Q 19.390625 75.984375 28.609375 75.984375 
z
" id="DejaVuSans-102"/>
     <path d="M 9.421875 75.984375 
L 18.40625 75.984375 
L 18.40625 0 
L 9.421875 0 
z
" id="DejaVuSans-108"/>
     <path d="M 48.78125 52.59375 
L 48.78125 44.1875 
Q 44.96875 46.296875 41.140625 47.34375 
Q 37.3125 48.390625 33.40625 48.390625 
Q 24.65625 48.390625 19.8125 42.84375 
Q 14.984375 37.3125 14.984375 27.296875 
Q 14.984375 17.28125 19.8125 11.734375 
Q 24.65625 6.203125 33.40625 6.203125 
Q 37.3125 6.203125 41.140625 7.25 
Q 44.96875 8.296875 48.78125 10.40625 
L 48.78125 2.09375 
Q 45.015625 0.34375 40.984375 -0.53125 
Q 36.96875 -1.421875 32.421875 -1.421875 
Q 20.0625 -1.421875 12.78125 6.34375 
Q 5.515625 14.109375 5.515625 27.296875 
Q 5.515625 40.671875 12.859375 48.328125 
Q 20.21875 56 33.015625 56 
Q 37.15625 56 41.109375 55.140625 
Q 45.0625 54.296875 48.78125 52.59375 
z
" id="DejaVuSans-99"/>
     <path d="M 9.421875 54.6875 
L 18.40625 54.6875 
L 18.40625 0 
L 9.421875 0 
z
M 9.421875 75.984375 
L 18.40625 75.984375 
L 18.40625 64.59375 
L 9.421875 64.59375 
z
" id="DejaVuSans-105"/>
     <path d="M 30.609375 48.390625 
Q 23.390625 48.390625 19.1875 42.75 
Q 14.984375 37.109375 14.984375 27.296875 
Q 14.984375 17.484375 19.15625 11.84375 
Q 23.34375 6.203125 30.609375 6.203125 
Q 37.796875 6.203125 41.984375 11.859375 
Q 46.1875 17.53125 46.1875 27.296875 
Q 46.1875 37.015625 41.984375 42.703125 
Q 37.796875 48.390625 30.609375 48.390625 
z
M 30.609375 56 
Q 42.328125 56 49.015625 48.375 
Q 55.71875 40.765625 55.71875 27.296875 
Q 55.71875 13.875 49.015625 6.21875 
Q 42.328125 -1.421875 30.609375 -1.421875 
Q 18.84375 -1.421875 12.171875 6.21875 
Q 5.515625 13.875 5.515625 27.296875 
Q 5.515625 40.765625 12.171875 48.375 
Q 18.84375 56 30.609375 56 
z
" id="DejaVuSans-111"/>
     <path d="M 54.890625 33.015625 
L 54.890625 0 
L 45.90625 0 
L 45.90625 32.71875 
Q 45.90625 40.484375 42.875 44.328125 
Q 39.84375 48.1875 33.796875 48.1875 
Q 26.515625 48.1875 22.3125 43.546875 
Q 18.109375 38.921875 18.109375 30.90625 
L 18.109375 0 
L 9.078125 0 
L 9.078125 54.6875 
L 18.109375 54.6875 
L 18.109375 46.1875 
Q 21.34375 51.125 25.703125 53.5625 
Q 30.078125 56 35.796875 56 
Q 45.21875 56 50.046875 50.171875 
Q 54.890625 44.34375 54.890625 33.015625 
z
" id="DejaVuSans-110"/>
     <path id="DejaVuSans-32"/>
     <path d="M 45.40625 46.390625 
L 45.40625 75.984375 
L 54.390625 75.984375 
L 54.390625 0 
L 45.40625 0 
L 45.40625 8.203125 
Q 42.578125 3.328125 38.25 0.953125 
Q 33.9375 -1.421875 27.875 -1.421875 
Q 17.96875 -1.421875 11.734375 6.484375 
Q 5.515625 14.40625 5.515625 27.296875 
Q 5.515625 40.1875 11.734375 48.09375 
Q 17.96875 56 27.875 56 
Q 33.9375 56 38.25 53.625 
Q 42.578125 51.265625 45.40625 46.390625 
z
M 14.796875 27.296875 
Q 14.796875 17.390625 18.875 11.75 
Q 22.953125 6.109375 30.078125 6.109375 
Q 37.203125 6.109375 41.296875 11.75 
Q 45.40625 17.390625 45.40625 27.296875 
Q 45.40625 37.203125 41.296875 42.84375 
Q 37.203125 48.484375 30.078125 48.484375 
Q 22.953125 48.484375 18.875 42.84375 
Q 14.796875 37.203125 14.796875 27.296875 
z
" id="DejaVuSans-100"/>
     <path d="M 8.5 21.578125 
L 8.5 54.6875 
L 17.484375 54.6875 
L 17.484375 21.921875 
Q 17.484375 14.15625 20.5 10.265625 
Q 23.53125 6.390625 29.59375 6.390625 
Q 36.859375 6.390625 41.078125 11.03125 
Q 45.3125 15.671875 45.3125 23.6875 
L 45.3125 54.6875 
L 54.296875 54.6875 
L 54.296875 0 
L 45.3125 0 
L 45.3125 8.40625 
Q 42.046875 3.421875 37.71875 1 
Q 33.40625 -1.421875 27.6875 -1.421875 
Q 18.265625 -1.421875 13.375 4.4375 
Q 8.5 10.296875 8.5 21.578125 
z
M 31.109375 56 
z
" id="DejaVuSans-117"/>
     <path d="M 54.890625 33.015625 
L 54.890625 0 
L 45.90625 0 
L 45.90625 32.71875 
Q 45.90625 40.484375 42.875 44.328125 
Q 39.84375 48.1875 33.796875 48.1875 
Q 26.515625 48.1875 22.3125 43.546875 
Q 18.109375 38.921875 18.109375 30.90625 
L 18.109375 0 
L 9.078125 0 
L 9.078125 75.984375 
L 18.109375 75.984375 
L 18.109375 46.1875 
Q 21.34375 51.125 25.703125 53.5625 
Q 30.078125 56 35.796875 56 
Q 45.21875 56 50.046875 50.171875 
Q 54.890625 44.34375 54.890625 33.015625 
z
" id="DejaVuSans-104"/>
     <path d="M 34.28125 27.484375 
Q 23.390625 27.484375 19.1875 25 
Q 14.984375 22.515625 14.984375 16.5 
Q 14.984375 11.71875 18.140625 8.90625 
Q 21.296875 6.109375 26.703125 6.109375 
Q 34.1875 6.109375 38.703125 11.40625 
Q 43.21875 16.703125 43.21875 25.484375 
L 43.21875 27.484375 
z
M 52.203125 31.203125 
L 52.203125 0 
L 43.21875 0 
L 43.21875 8.296875 
Q 40.140625 3.328125 35.546875 0.953125 
Q 30.953125 -1.421875 24.3125 -1.421875 
Q 15.921875 -1.421875 10.953125 3.296875 
Q 6 8.015625 6 15.921875 
Q 6 25.140625 12.171875 29.828125 
Q 18.359375 34.515625 30.609375 34.515625 
L 43.21875 34.515625 
L 43.21875 35.40625 
Q 43.21875 41.609375 39.140625 45 
Q 35.0625 48.390625 27.6875 48.390625 
Q 23 48.390625 18.546875 47.265625 
Q 14.109375 46.140625 10.015625 43.890625 
L 10.015625 52.203125 
Q 14.9375 54.109375 19.578125 55.046875 
Q 24.21875 56 28.609375 56 
Q 40.484375 56 46.34375 49.84375 
Q 52.203125 43.703125 52.203125 31.203125 
z
" id="DejaVuSans-97"/>
    </defs>
    <g transform="translate(145.8 506.358417)scale(0.14 -0.14)">
     <use xlink:href="#DejaVuSans-82"/>
     <use x="69.419922" xlink:href="#DejaVuSans-101"/>
     <use x="130.943359" xlink:href="#DejaVuSans-102"/>
     <use x="166.148438" xlink:href="#DejaVuSans-108"/>
     <use x="193.931641" xlink:href="#DejaVuSans-101"/>
     <use x="255.455078" xlink:href="#DejaVuSans-99"/>
     <use x="310.435547" xlink:href="#DejaVuSans-116"/>
     <use x="349.644531" xlink:href="#DejaVuSans-105"/>
     <use x="377.427734" xlink:href="#DejaVuSans-111"/>
     <use x="438.609375" xlink:href="#DejaVuSans-110"/>
     <use x="501.988281" xlink:href="#DejaVuSans-32"/>
     <use x="533.775391" xlink:href="#DejaVuSans-100"/>
     <use x="597.251953" xlink:href="#DejaVuSans-117"/>
     <use x="660.630859" xlink:href="#DejaVuSans-101"/>
     <use x="722.154297" xlink:href="#DejaVuSans-32"/>
     <use x="753.941406" xlink:href="#DejaVuSans-116"/>
     <use x="793.150391" xlink:href="#DejaVuSans-111"/>
     <use x="854.332031" xlink:href="#DejaVuSans-32"/>
     <use x="886.119141" xlink:href="#DejaVuSans-116"/>
     <use x="925.328125" xlink:href="#DejaVuSans-104"/>
     <use x="988.707031" xlink:href="#DejaVuSans-101"/>
     <use x="1050.230469" xlink:href="#DejaVuSans-32"/>
     <use x="1082.017578" xlink:href="#DejaVuSans-101"/>
     <use x="1143.541016" xlink:href="#DejaVuSans-110"/>
     <use x="1206.919922" xlink:href="#DejaVuSans-100"/>
     <use x="1270.396484" xlink:href="#DejaVuSans-32"/>
     <use x="1302.183594" xlink:href="#DejaVuSans-111"/>
     <use x="1363.365234" xlink:href="#DejaVuSans-102"/>
     <use x="1398.570312" xlink:href="#DejaVuSans-32"/>
     <use x="1430.357422" xlink:href="#DejaVuSans-116"/>
     <use x="1469.566406" xlink:href="#DejaVuSans-104"/>
     <use x="1532.945312" xlink:href="#DejaVuSans-101"/>
     <use x="1594.46875" xlink:href="#DejaVuSans-32"/>
     <use x="1626.255859" xlink:href="#DejaVuSans-99"/>
     <use x="1681.236328" xlink:href="#DejaVuSans-104"/>
     <use x="1744.615234" xlink:href="#DejaVuSans-97"/>
     <use x="1805.894531" xlink:href="#DejaVuSans-105"/>
     <use x="1833.677734" xlink:href="#DejaVuSans-110"/>
    </g>
   </g>
  </g>
 </g>
 <defs>
  <clipPath id="pc17f075f4f">
   <rect height="543.6" width="558" x="90" y="86.4"/>
  </clipPath>
 </defs>
</svg>
