<?xml version="1.0" encoding="utf-8" standalone="no"?>
<!DOCTYPE svg PUBLIC "-//W3C//DTD SVG 1.1//EN"
  "http://www.w3.org/Graphics/SVG/1.1/DTD/svg11.dtd">
<!-- Created with matplotlib (https://matplotlib.org/) -->
<svg height="720pt" version="1.1" viewBox="0 0 720 720" width="720pt" xmlns="http://www.w3.org/2000/svg" xmlns:xlink="http://www.w3.org/1999/xlink">
 <defs>
  <style type="text/css">
*{stroke-linecap:butt;stroke-linejoin:round;}
  </style>
 </defs>
 <g id="figure_1">
  <g id="patch_1">
   <path d="M 0 720 
L 720 720 
L 720 0 
L 0 0 
z
" style="fill:#ffffff;"/>
  </g>
  <g id="axes_1">
   <g id="patch_2">
    <path d="M 90 630 
L 648 630 
L 648 86.4 
L 90 86.4 
z
" style="fill:#ffffff;"/>
   </g>
   <g id="matplotlib.axis_1">
    <g id="xtick_1">
     <g id="line2d_1">
      <defs>
       <path d="M 0 0 
L 0 3.5 
" id="mc25ad72bb2" style="stroke:#000000;stroke-width:0.8;"/>
      </defs>
      <g>
       <use style="stroke:#000000;stroke-width:0.8;" x="115.363636" xlink:href="#mc25ad72bb2" y="630"/>
      </g>
     </g>
     <g id="text_1">
      <!-- 0.0 -->
      <defs>
       <path d="M 31.78125 66.40625 
Q 24.171875 66.40625 20.328125 58.90625 
Q 16.5 51.421875 16.5 36.375 
Q 16.5 21.390625 20.328125 13.890625 
Q 24.171875 6.390625 31.78125 6.390625 
Q 39.453125 6.390625 43.28125 13.890625 
Q 47.125 21.390625 47.125 36.375 
Q 47.125 51.421875 43.28125 58.90625 
Q 39.453125 66.40625 31.78125 66.40625 
z
M 31.78125 74.21875 
Q 44.046875 74.21875 50.515625 64.515625 
Q 56.984375 54.828125 56.984375 36.375 
Q 56.984375 17.96875 50.515625 8.265625 
Q 44.046875 -1.421875 31.78125 -1.421875 
Q 19.53125 -1.421875 13.0625 8.265625 
Q 6.59375 17.96875 6.59375 36.375 
Q 6.59375 54.828125 13.0625 64.515625 
Q 19.53125 74.21875 31.78125 74.21875 
z
" id="DejaVuSans-48"/>
       <path d="M 10.6875 12.40625 
L 21 12.40625 
L 21 0 
L 10.6875 0 
z
" id="DejaVuSans-46"/>
      </defs>
      <g transform="translate(107.412074 644.598438)scale(0.1 -0.1)">
       <use xlink:href="#DejaVuSans-48"/>
       <use x="63.623047" xlink:href="#DejaVuSans-46"/>
       <use x="95.410156" xlink:href="#DejaVuSans-48"/>
      </g>
     </g>
    </g>
    <g id="xtick_2">
     <g id="line2d_2">
      <g>
       <use style="stroke:#000000;stroke-width:0.8;" x="216.818182" xlink:href="#mc25ad72bb2" y="630"/>
      </g>
     </g>
     <g id="text_2">
      <!-- 0.2 -->
      <defs>
       <path d="M 19.1875 8.296875 
L 53.609375 8.296875 
L 53.609375 0 
L 7.328125 0 
L 7.328125 8.296875 
Q 12.9375 14.109375 22.625 23.890625 
Q 32.328125 33.6875 34.8125 36.53125 
Q 39.546875 41.84375 41.421875 45.53125 
Q 43.3125 49.21875 43.3125 52.78125 
Q 43.3125 58.59375 39.234375 62.25 
Q 35.15625 65.921875 28.609375 65.921875 
Q 23.96875 65.921875 18.8125 64.3125 
Q 13.671875 62.703125 7.8125 59.421875 
L 7.8125 69.390625 
Q 13.765625 71.78125 18.9375 73 
Q 24.125 74.21875 28.421875 74.21875 
Q 39.75 74.21875 46.484375 68.546875 
Q 53.21875 62.890625 53.21875 53.421875 
Q 53.21875 48.921875 51.53125 44.890625 
Q 49.859375 40.875 45.40625 35.40625 
Q 44.1875 33.984375 37.640625 27.21875 
Q 31.109375 20.453125 19.1875 8.296875 
z
" id="DejaVuSans-50"/>
      </defs>
      <g transform="translate(208.866619 644.598438)scale(0.1 -0.1)">
       <use xlink:href="#DejaVuSans-48"/>
       <use x="63.623047" xlink:href="#DejaVuSans-46"/>
       <use x="95.410156" xlink:href="#DejaVuSans-50"/>
      </g>
     </g>
    </g>
    <g id="xtick_3">
     <g id="line2d_3">
      <g>
       <use style="stroke:#000000;stroke-width:0.8;" x="318.272727" xlink:href="#mc25ad72bb2" y="630"/>
      </g>
     </g>
     <g id="text_3">
      <!-- 0.4 -->
      <defs>
       <path d="M 37.796875 64.3125 
L 12.890625 25.390625 
L 37.796875 25.390625 
z
M 35.203125 72.90625 
L 47.609375 72.90625 
L 47.609375 25.390625 
L 58.015625 25.390625 
L 58.015625 17.1875 
L 47.609375 17.1875 
L 47.609375 0 
L 37.796875 0 
L 37.796875 17.1875 
L 4.890625 17.1875 
L 4.890625 26.703125 
z
" id="DejaVuSans-52"/>
      </defs>
      <g transform="translate(310.321165 644.598438)scale(0.1 -0.1)">
       <use xlink:href="#DejaVuSans-48"/>
       <use x="63.623047" xlink:href="#DejaVuSans-46"/>
       <use x="95.410156" xlink:href="#DejaVuSans-52"/>
      </g>
     </g>
    </g>
    <g id="xtick_4">
     <g id="line2d_4">
      <g>
       <use style="stroke:#000000;stroke-width:0.8;" x="419.727273" xlink:href="#mc25ad72bb2" y="630"/>
      </g>
     </g>
     <g id="text_4">
      <!-- 0.6 -->
      <defs>
       <path d="M 33.015625 40.375 
Q 26.375 40.375 22.484375 35.828125 
Q 18.609375 31.296875 18.609375 23.390625 
Q 18.609375 15.53125 22.484375 10.953125 
Q 26.375 6.390625 33.015625 6.390625 
Q 39.65625 6.390625 43.53125 10.953125 
Q 47.40625 15.53125 47.40625 23.390625 
Q 47.40625 31.296875 43.53125 35.828125 
Q 39.65625 40.375 33.015625 40.375 
z
M 52.59375 71.296875 
L 52.59375 62.3125 
Q 48.875 64.0625 45.09375 64.984375 
Q 41.3125 65.921875 37.59375 65.921875 
Q 27.828125 65.921875 22.671875 59.328125 
Q 17.53125 52.734375 16.796875 39.40625 
Q 19.671875 43.65625 24.015625 45.921875 
Q 28.375 48.1875 33.59375 48.1875 
Q 44.578125 48.1875 50.953125 41.515625 
Q 57.328125 34.859375 57.328125 23.390625 
Q 57.328125 12.15625 50.6875 5.359375 
Q 44.046875 -1.421875 33.015625 -1.421875 
Q 20.359375 -1.421875 13.671875 8.265625 
Q 6.984375 17.96875 6.984375 36.375 
Q 6.984375 53.65625 15.1875 63.9375 
Q 23.390625 74.21875 37.203125 74.21875 
Q 40.921875 74.21875 44.703125 73.484375 
Q 48.484375 72.75 52.59375 71.296875 
z
" id="DejaVuSans-54"/>
      </defs>
      <g transform="translate(411.77571 644.598438)scale(0.1 -0.1)">
       <use xlink:href="#DejaVuSans-48"/>
       <use x="63.623047" xlink:href="#DejaVuSans-46"/>
       <use x="95.410156" xlink:href="#DejaVuSans-54"/>
      </g>
     </g>
    </g>
    <g id="xtick_5">
     <g id="line2d_5">
      <g>
       <use style="stroke:#000000;stroke-width:0.8;" x="521.181818" xlink:href="#mc25ad72bb2" y="630"/>
      </g>
     </g>
     <g id="text_5">
      <!-- 0.8 -->
      <defs>
       <path d="M 31.78125 34.625 
Q 24.75 34.625 20.71875 30.859375 
Q 16.703125 27.09375 16.703125 20.515625 
Q 16.703125 13.921875 20.71875 10.15625 
Q 24.75 6.390625 31.78125 6.390625 
Q 38.8125 6.390625 42.859375 10.171875 
Q 46.921875 13.96875 46.921875 20.515625 
Q 46.921875 27.09375 42.890625 30.859375 
Q 38.875 34.625 31.78125 34.625 
z
M 21.921875 38.8125 
Q 15.578125 40.375 12.03125 44.71875 
Q 8.5 49.078125 8.5 55.328125 
Q 8.5 64.0625 14.71875 69.140625 
Q 20.953125 74.21875 31.78125 74.21875 
Q 42.671875 74.21875 48.875 69.140625 
Q 55.078125 64.0625 55.078125 55.328125 
Q 55.078125 49.078125 51.53125 44.71875 
Q 48 40.375 41.703125 38.8125 
Q 48.828125 37.15625 52.796875 32.3125 
Q 56.78125 27.484375 56.78125 20.515625 
Q 56.78125 9.90625 50.3125 4.234375 
Q 43.84375 -1.421875 31.78125 -1.421875 
Q 19.734375 -1.421875 13.25 4.234375 
Q 6.78125 9.90625 6.78125 20.515625 
Q 6.78125 27.484375 10.78125 32.3125 
Q 14.796875 37.15625 21.921875 38.8125 
z
M 18.3125 54.390625 
Q 18.3125 48.734375 21.84375 45.5625 
Q 25.390625 42.390625 31.78125 42.390625 
Q 38.140625 42.390625 41.71875 45.5625 
Q 45.3125 48.734375 45.3125 54.390625 
Q 45.3125 60.0625 41.71875 63.234375 
Q 38.140625 66.40625 31.78125 66.40625 
Q 25.390625 66.40625 21.84375 63.234375 
Q 18.3125 60.0625 18.3125 54.390625 
z
" id="DejaVuSans-56"/>
      </defs>
      <g transform="translate(513.230256 644.598438)scale(0.1 -0.1)">
       <use xlink:href="#DejaVuSans-48"/>
       <use x="63.623047" xlink:href="#DejaVuSans-46"/>
       <use x="95.410156" xlink:href="#DejaVuSans-56"/>
      </g>
     </g>
    </g>
    <g id="xtick_6">
     <g id="line2d_6">
      <g>
       <use style="stroke:#000000;stroke-width:0.8;" x="622.636364" xlink:href="#mc25ad72bb2" y="630"/>
      </g>
     </g>
     <g id="text_6">
      <!-- 1.0 -->
      <defs>
       <path d="M 12.40625 8.296875 
L 28.515625 8.296875 
L 28.515625 63.921875 
L 10.984375 60.40625 
L 10.984375 69.390625 
L 28.421875 72.90625 
L 38.28125 72.90625 
L 38.28125 8.296875 
L 54.390625 8.296875 
L 54.390625 0 
L 12.40625 0 
z
" id="DejaVuSans-49"/>
      </defs>
      <g transform="translate(614.684801 644.598438)scale(0.1 -0.1)">
       <use xlink:href="#DejaVuSans-49"/>
       <use x="63.623047" xlink:href="#DejaVuSans-46"/>
       <use x="95.410156" xlink:href="#DejaVuSans-48"/>
      </g>
     </g>
    </g>
    <g id="text_7">
     <!-- t -->
     <defs>
      <path d="M 18.3125 70.21875 
L 18.3125 54.6875 
L 36.8125 54.6875 
L 36.8125 47.703125 
L 18.3125 47.703125 
L 18.3125 18.015625 
Q 18.3125 11.328125 20.140625 9.421875 
Q 21.96875 7.515625 27.59375 7.515625 
L 36.8125 7.515625 
L 36.8125 0 
L 27.59375 0 
Q 17.1875 0 13.234375 3.875 
Q 9.28125 7.765625 9.28125 18.015625 
L 9.28125 47.703125 
L 2.6875 47.703125 
L 2.6875 54.6875 
L 9.28125 54.6875 
L 9.28125 70.21875 
z
" id="DejaVuSans-116"/>
     </defs>
     <g transform="translate(366.255781 661.315938)scale(0.14 -0.14)">
      <use xlink:href="#DejaVuSans-116"/>
     </g>
    </g>
   </g>
   <g id="matplotlib.axis_2">
    <g id="ytick_1">
     <g id="line2d_7">
      <defs>
       <path d="M 0 0 
L -3.5 0 
" id="mb32be455d4" style="stroke:#000000;stroke-width:0.8;"/>
      </defs>
      <g>
       <use style="stroke:#000000;stroke-width:0.8;" x="90" xlink:href="#mb32be455d4" y="575.64"/>
      </g>
     </g>
     <g id="text_8">
      <!-- −0.4 -->
      <defs>
       <path d="M 10.59375 35.5 
L 73.1875 35.5 
L 73.1875 27.203125 
L 10.59375 27.203125 
z
" id="DejaVuSans-8722"/>
      </defs>
      <g transform="translate(58.717187 579.439219)scale(0.1 -0.1)">
       <use xlink:href="#DejaVuSans-8722"/>
       <use x="83.789062" xlink:href="#DejaVuSans-48"/>
       <use x="147.412109" xlink:href="#DejaVuSans-46"/>
       <use x="179.199219" xlink:href="#DejaVuSans-52"/>
      </g>
     </g>
    </g>
    <g id="ytick_2">
     <g id="line2d_8">
      <g>
       <use style="stroke:#000000;stroke-width:0.8;" x="90" xlink:href="#mb32be455d4" y="466.92"/>
      </g>
     </g>
     <g id="text_9">
      <!-- −0.2 -->
      <g transform="translate(58.717187 470.719219)scale(0.1 -0.1)">
       <use xlink:href="#DejaVuSans-8722"/>
       <use x="83.789062" xlink:href="#DejaVuSans-48"/>
       <use x="147.412109" xlink:href="#DejaVuSans-46"/>
       <use x="179.199219" xlink:href="#DejaVuSans-50"/>
      </g>
     </g>
    </g>
    <g id="ytick_3">
     <g id="line2d_9">
      <g>
       <use style="stroke:#000000;stroke-width:0.8;" x="90" xlink:href="#mb32be455d4" y="358.2"/>
      </g>
     </g>
     <g id="text_10">
      <!-- 0.0 -->
      <g transform="translate(67.096875 361.999219)scale(0.1 -0.1)">
       <use xlink:href="#DejaVuSans-48"/>
       <use x="63.623047" xlink:href="#DejaVuSans-46"/>
       <use x="95.410156" xlink:href="#DejaVuSans-48"/>
      </g>
     </g>
    </g>
    <g id="ytick_4">
     <g id="line2d_10">
      <g>
       <use style="stroke:#000000;stroke-width:0.8;" x="90" xlink:href="#mb32be455d4" y="249.48"/>
      </g>
     </g>
     <g id="text_11">
      <!-- 0.2 -->
      <g transform="translate(67.096875 253.279219)scale(0.1 -0.1)">
       <use xlink:href="#DejaVuSans-48"/>
       <use x="63.623047" xlink:href="#DejaVuSans-46"/>
       <use x="95.410156" xlink:href="#DejaVuSans-50"/>
      </g>
     </g>
    </g>
    <g id="ytick_5">
     <g id="line2d_11">
      <g>
       <use style="stroke:#000000;stroke-width:0.8;" x="90" xlink:href="#mb32be455d4" y="140.76"/>
      </g>
     </g>
     <g id="text_12">
      <!-- 0.4 -->
      <g transform="translate(67.096875 144.559219)scale(0.1 -0.1)">
       <use xlink:href="#DejaVuSans-48"/>
       <use x="63.623047" xlink:href="#DejaVuSans-46"/>
       <use x="95.410156" xlink:href="#DejaVuSans-52"/>
      </g>
     </g>
    </g>
   </g>
   <g id="line2d_12">
    <path clip-path="url(#p889164820c)" d="M 115.363636 358.2 
L 121.450909 293.978524 
L 125.509091 253.407494 
L 128.552727 224.888468 
L 131.596364 198.451687 
L 134.132727 178.27724 
L 136.669091 159.996655 
L 138.698182 146.852567 
L 140.727273 135.110152 
L 142.756364 124.838776 
L 144.278182 118.136899 
L 145.8 112.317771 
L 147.321818 107.399659 
L 148.843636 103.397537 
L 149.858182 101.244225 
L 150.872727 99.505878 
L 151.887273 98.184447 
L 152.901818 97.281209 
L 153.916364 96.796773 
L 154.930909 96.731077 
L 155.945455 97.083388 
L 156.96 97.852309 
L 157.974545 99.035779 
L 158.989091 100.631076 
L 160.003636 102.63483 
L 161.018182 105.043022 
L 162.54 109.403271 
L 164.061818 114.644516 
L 165.583636 120.745285 
L 167.105455 127.681078 
L 169.134545 138.179921 
L 171.163636 150.041419 
L 173.192727 163.18441 
L 175.729091 181.278937 
L 178.265455 201.046542 
L 181.309091 226.685997 
L 184.86 258.760358 
L 189.425455 302.425898 
L 204.136364 445.327018 
L 207.687273 476.615342 
L 210.730909 501.443602 
L 213.267273 520.464943 
L 215.803636 537.774163 
L 217.832727 550.277976 
L 219.861818 561.505684 
L 221.890909 571.390705 
L 223.412727 577.888254 
L 224.934545 583.576885 
L 226.456364 588.438577 
L 227.978182 592.458337 
L 228.992727 594.664422 
L 230.007273 596.488185 
L 231.021818 597.927474 
L 232.036364 598.980758 
L 233.050909 599.647125 
L 234.065455 599.926282 
L 235.08 599.818558 
L 236.094545 599.324897 
L 237.109091 598.44686 
L 238.123636 597.186617 
L 239.138182 595.546946 
L 240.152727 593.531227 
L 241.167273 591.143431 
L 242.689091 586.874228 
L 244.210909 581.796066 
L 245.732727 575.929616 
L 247.254545 569.298323 
L 249.283636 559.312361 
L 251.312727 548.0824 
L 253.341818 535.685095 
L 255.878182 518.67519 
L 258.414545 500.150709 
L 261.458182 476.193569 
L 265.009091 446.312306 
L 269.574545 405.761873 
L 283.270909 282.502233 
L 286.821818 253.25173 
L 289.865455 229.951142 
L 292.401818 212.032409 
L 294.938182 195.659859 
L 296.967273 183.780132 
L 298.996364 173.061291 
L 301.025455 163.567132 
L 303.054545 155.353372 
L 304.576364 150.062107 
L 306.098182 145.534641 
L 307.62 141.784955 
L 308.634545 139.722887 
L 309.649091 138.014106 
L 310.663636 136.660638 
L 311.678182 135.663935 
L 312.692727 135.024879 
L 313.707273 134.743775 
L 314.721818 134.820357 
L 315.736364 135.25379 
L 316.750909 136.042666 
L 317.765455 137.185015 
L 318.78 138.678305 
L 319.794545 140.519449 
L 320.809091 142.704809 
L 322.330909 146.618961 
L 323.852727 151.281712 
L 325.374545 156.674061 
L 326.896364 162.774446 
L 328.925455 171.967782 
L 330.954545 182.313289 
L 332.983636 193.740325 
L 335.52 209.42672 
L 338.056364 226.517662 
L 341.1 248.630272 
L 344.650909 276.222854 
L 349.216364 313.684968 
L 362.912727 427.664623 
L 366.463636 454.738581 
L 369.507273 476.314688 
L 372.043636 492.914296 
L 374.58 508.088452 
L 376.609091 519.104058 
L 378.638182 529.048509 
L 380.667273 537.862596 
L 382.696364 545.494566 
L 384.218182 550.416009 
L 385.74 554.631977 
L 387.261818 558.129432 
L 388.783636 560.897958 
L 389.798182 562.334738 
L 390.812727 563.442401 
L 391.827273 564.219836 
L 392.841818 564.666458 
L 393.856364 564.782216 
L 394.870909 564.567586 
L 395.885455 564.02357 
L 396.9 563.151696 
L 397.914545 561.954013 
L 398.929091 560.433086 
L 399.943636 558.591991 
L 401.465455 555.238007 
L 402.987273 551.186008 
L 404.509091 546.452646 
L 406.030909 541.056973 
L 408.06 532.869744 
L 410.089091 523.60014 
L 412.118182 513.311657 
L 414.654545 499.125067 
L 417.190909 483.604671 
L 420.234545 463.447524 
L 423.785455 438.197829 
L 427.843636 407.677217 
L 435.96 344.39943 
L 441.54 301.903031 
L 445.090909 276.385555 
L 448.134545 255.907332 
L 451.178182 237.018453 
L 453.714545 222.681177 
L 456.250909 209.766089 
L 458.28 200.540256 
L 460.309091 192.357723 
L 462.338182 185.26656 
L 463.86 180.689287 
L 465.381818 176.763615 
L 466.903636 173.501699 
L 468.425455 170.913272 
L 469.44 169.565513 
L 470.454545 168.521921 
L 471.469091 167.783555 
L 472.483636 167.350986 
L 473.498182 167.224293 
L 474.512727 167.403068 
L 475.527273 167.886416 
L 476.541818 168.672955 
L 477.556364 169.760822 
L 478.570909 171.147677 
L 479.585455 172.830706 
L 481.107273 175.90327 
L 482.629091 179.621719 
L 484.150909 183.970755 
L 485.672727 188.93286 
L 487.701818 196.468372 
L 489.730909 205.006266 
L 491.76 214.488036 
L 494.296364 227.569104 
L 496.832727 241.886894 
L 499.876364 260.490376 
L 503.427273 283.804283 
L 507.485455 311.997672 
L 515.601818 370.488049 
L 521.181818 409.796906 
L 524.732727 433.412362 
L 527.776364 452.372008 
L 530.82 469.867841 
L 533.356364 483.154071 
L 535.892727 495.128653 
L 537.921818 503.687637 
L 539.950909 511.283688 
L 541.98 517.872158 
L 543.501818 522.129149 
L 545.023636 525.784304 
L 546.545455 528.826292 
L 548.067273 531.246017 
L 549.081818 532.509998 
L 550.096364 533.492874 
L 551.110909 534.193635 
L 552.125455 534.611725 
L 553.14 534.747041 
L 554.154545 534.599931 
L 555.169091 534.171194 
L 556.183636 533.462079 
L 557.198182 532.474279 
L 558.212727 531.20993 
L 559.227273 529.671605 
L 560.749091 526.857104 
L 562.270909 523.44496 
L 563.792727 519.449224 
L 565.314545 514.886005 
L 567.343636 507.950517 
L 569.372727 500.086737 
L 571.401818 491.348571 
L 573.938182 479.287037 
L 576.474545 466.078818 
L 579.518182 448.909413 
L 583.069091 427.383062 
L 587.127273 401.339633 
L 594.736364 350.653297 
L 600.316364 314.135256 
L 604.374545 289.059632 
L 607.418182 271.506105 
L 610.461818 255.300746 
L 612.998182 242.988661 
L 615.534545 231.886262 
L 617.563636 223.946074 
L 619.592727 216.894636 
L 621.621818 210.773413 
L 622.636364 208.072928 
L 622.636364 208.072928 
" style="fill:none;stroke:#1f77b4;stroke-linecap:square;stroke-width:1.5;"/>
   </g>
   <g id="line2d_13">
    <path clip-path="url(#p889164820c)" d="M 115.363636 358.2 
L 118.407273 326.619118 
L 121.450909 297.318224 
L 123.987273 274.843329 
L 126.523636 254.276942 
L 129.06 235.726422 
L 131.089091 222.393683 
L 133.118182 210.43528 
L 135.147273 199.872309 
L 137.176364 190.716287 
L 138.698182 184.77427 
L 140.22 179.622742 
L 141.741818 175.256606 
L 143.263636 171.668129 
L 144.278182 169.702878 
L 145.292727 168.075101 
L 146.307273 166.780694 
L 147.321818 165.815106 
L 148.336364 165.173356 
L 149.350909 164.850047 
L 150.365455 164.839386 
L 151.38 165.135199 
L 152.394545 165.730949 
L 153.409091 166.619753 
L 154.423636 167.7944 
L 155.438182 169.247371 
L 156.96 171.931516 
L 158.481818 175.196743 
L 160.003636 179.014301 
L 161.525455 183.354331 
L 163.554545 189.900365 
L 165.583636 197.245022 
L 168.12 207.430892 
L 170.656364 218.589385 
L 173.7 233.043488 
L 177.250909 251.032113 
L 182.323636 278.031634 
L 192.469091 332.359853 
L 196.527273 352.752002 
L 200.078182 369.431558 
L 203.121818 382.669879 
L 205.658182 392.856681 
L 208.194545 402.208903 
L 210.730909 410.676102 
L 212.76 416.785826 
L 214.789091 422.288632 
L 216.818182 427.173811 
L 218.847273 431.43495 
L 220.876364 435.069799 
L 222.398182 437.385849 
L 223.92 439.352698 
L 225.441818 440.973693 
L 226.963636 442.253309 
L 228.485455 443.197097 
L 230.007273 443.811638 
L 231.529091 444.104483 
L 233.050909 444.0841 
L 234.572727 443.759821 
L 236.094545 443.141775 
L 237.616364 442.240837 
L 239.138182 441.068561 
L 240.66 439.637122 
L 242.689091 437.34748 
L 244.718182 434.651334 
L 246.747273 431.581529 
L 249.283636 427.27054 
L 251.82 422.496639 
L 254.863636 416.254253 
L 258.414545 408.415055 
L 262.98 397.746352 
L 276.169091 366.484809 
L 280.227273 357.624444 
L 283.778182 350.436698 
L 286.821818 344.776034 
L 289.865455 339.632417 
L 292.401818 335.771423 
L 294.938182 332.317321 
L 297.474545 329.283929 
L 299.503636 327.166363 
L 301.532727 325.32642 
L 303.561818 323.76475 
L 305.590909 322.480235 
L 307.62 321.470062 
L 309.649091 320.729808 
L 311.678182 320.253531 
L 313.707273 320.033866 
L 315.736364 320.062129 
L 317.765455 320.328421 
L 319.794545 320.82174 
L 321.823636 321.530091 
L 323.852727 322.440599 
L 326.389091 323.842182 
L 328.925455 325.510261 
L 331.969091 327.822472 
L 335.012727 330.424093 
L 338.563636 333.754145 
L 343.129091 338.371957 
L 351.245455 347.005018 
L 357.84 353.890231 
L 362.405455 358.345977 
L 366.463636 361.983966 
L 370.014545 364.863458 
L 373.058182 367.077523 
L 376.101818 369.038723 
L 379.145455 370.734405 
L 382.189091 372.156362 
L 385.232727 373.300683 
L 388.276364 374.167562 
L 391.32 374.761055 
L 394.363636 375.088797 
L 397.407273 375.16169 
L 400.450909 374.993556 
L 403.494545 374.600781 
L 406.538182 374.001928 
L 410.089091 373.070052 
L 414.147273 371.740192 
L 418.712727 369.971755 
L 424.292727 367.531061 
L 433.423636 363.230034 
L 441.54 359.49041 
L 447.12 357.153092 
L 452.192727 355.279182 
L 456.758182 353.838824 
L 460.816364 352.775187 
L 464.874545 351.926507 
L 468.932727 351.297094 
L 472.990909 350.885541 
L 477.049091 350.685201 
L 481.614545 350.69803 
L 486.18 350.941574 
L 491.252727 351.449325 
L 496.832727 352.246064 
L 503.427273 353.426018 
L 513.572727 355.511502 
L 526.254545 358.090552 
L 533.863636 359.401904 
L 540.458182 360.312019 
L 546.545455 360.935882 
L 552.632727 361.34141 
L 558.72 361.531389 
L 565.314545 361.510558 
L 572.416364 361.258674 
L 580.532727 360.742144 
L 591.692727 359.785169 
L 614.012727 357.818868 
L 622.636364 357.267809 
L 622.636364 357.267809 
" style="fill:none;stroke:#ff7f0e;stroke-linecap:square;stroke-width:1.5;"/>
   </g>
   <g id="line2d_14">
    <path clip-path="url(#p889164820c)" d="M 115.363636 358.2 
L 116.378182 348.348837 
L 117.392727 340.297669 
L 118.407273 333.731887 
L 119.421818 328.391756 
L 120.436364 324.062847 
L 121.450909 320.568133 
L 122.465455 317.761468 
L 123.48 315.522198 
L 124.494545 313.75072 
L 125.509091 312.364806 
L 126.523636 311.296575 
L 127.538182 310.489989 
L 128.552727 309.898789 
L 130.074545 309.334165 
L 131.596364 309.067817 
L 133.118182 309.023266 
L 135.147273 309.211904 
L 137.683636 309.715094 
L 141.234545 310.708901 
L 146.814545 312.568832 
L 165.076364 318.806384 
L 174.714545 321.806259 
L 184.352727 324.580563 
L 194.498182 327.273212 
L 205.150909 329.868786 
L 216.310909 332.354645 
L 227.978182 334.720603 
L 240.152727 336.958825 
L 252.834545 339.063731 
L 266.023636 341.031864 
L 280.227273 342.92563 
L 295.445455 344.723479 
L 311.678182 346.408567 
L 328.925455 347.968728 
L 347.187273 349.396264 
L 366.970909 350.718893 
L 388.783636 351.948082 
L 412.625455 353.06182 
L 439.003636 354.064376 
L 468.425455 354.953647 
L 501.905455 355.735394 
L 540.458182 356.405387 
L 586.112727 356.967422 
L 622.636364 357.287382 
L 622.636364 357.287382 
" style="fill:none;stroke:#2ca02c;stroke-linecap:square;stroke-width:1.5;"/>
   </g>
   <g id="line2d_15">
    <path clip-path="url(#p889164820c)" d="M 115.363636 358.2 
L 115.718727 355.463528 
L 116.124545 353.977548 
L 116.530364 353.310598 
L 116.986909 352.988654 
L 117.646364 352.82998 
L 119.117455 352.779067 
L 137.480727 352.853741 
L 405.016364 353.87093 
L 622.636364 354.553806 
L 622.636364 354.553806 
" style="fill:none;stroke:#d62728;stroke-linecap:square;stroke-width:1.5;"/>
   </g>
   <g id="line2d_16">
    <defs>
     <path d="M 0 3 
C 0.795609 3 1.55874 2.683901 2.12132 2.12132 
C 2.683901 1.55874 3 0.795609 3 0 
C 3 -0.795609 2.683901 -1.55874 2.12132 -2.12132 
C 1.55874 -2.683901 0.795609 -3 0 -3 
C -0.795609 -3 -1.55874 -2.683901 -2.12132 -2.12132 
C -2.683901 -1.55874 -3 -0.795609 -3 0 
C -3 0.795609 -2.683901 1.55874 -2.12132 2.12132 
C -1.55874 2.683901 -0.795609 3 0 3 
z
" id="mbfda971940" style="stroke:#1f77b4;"/>
    </defs>
    <g clip-path="url(#p889164820c)">
     <use style="fill:#1f77b4;stroke:#1f77b4;" x="115.363636" xlink:href="#mbfda971940" y="358.2"/>
     <use style="fill:#1f77b4;stroke:#1f77b4;" x="140.727273" xlink:href="#mbfda971940" y="135.110151"/>
     <use style="fill:#1f77b4;stroke:#1f77b4;" x="166.090909" xlink:href="#mbfda971940" y="122.965731"/>
     <use style="fill:#1f77b4;stroke:#1f77b4;" x="191.454545" xlink:href="#mbfda971940" y="322.369828"/>
     <use style="fill:#1f77b4;stroke:#1f77b4;" x="216.818182" xlink:href="#mbfda971940" y="544.181087"/>
     <use style="fill:#1f77b4;stroke:#1f77b4;" x="242.181818" xlink:href="#mbfda971940" y="588.388119"/>
     <use style="fill:#1f77b4;stroke:#1f77b4;" x="267.545455" xlink:href="#mbfda971940" y="424.008268"/>
     <use style="fill:#1f77b4;stroke:#1f77b4;" x="292.909091" xlink:href="#mbfda971940" y="208.628984"/>
     <use style="fill:#1f77b4;stroke:#1f77b4;" x="318.272727" xlink:href="#mbfda971940" y="137.887973"/>
     <use style="fill:#1f77b4;stroke:#1f77b4;" x="343.636364" xlink:href="#mbfda971940" y="268.171122"/>
     <use style="fill:#1f77b4;stroke:#1f77b4;" x="369" xlink:href="#mbfda971940" y="472.83747"/>
     <use style="fill:#1f77b4;stroke:#1f77b4;" x="394.363636" xlink:href="#mbfda971940" y="564.716149"/>
     <use style="fill:#1f77b4;stroke:#1f77b4;" x="419.727273" xlink:href="#mbfda971940" y="466.911806"/>
     <use style="fill:#1f77b4;stroke:#1f77b4;" x="445.090909" xlink:href="#mbfda971940" y="276.385552"/>
     <use style="fill:#1f77b4;stroke:#1f77b4;" x="470.454545" xlink:href="#mbfda971940" y="168.521921"/>
     <use style="fill:#1f77b4;stroke:#1f77b4;" x="495.818182" xlink:href="#mbfda971940" y="236.020659"/>
     <use style="fill:#1f77b4;stroke:#1f77b4;" x="521.181818" xlink:href="#mbfda971940" y="409.796909"/>
     <use style="fill:#1f77b4;stroke:#1f77b4;" x="546.545455" xlink:href="#mbfda971940" y="528.826293"/>
     <use style="fill:#1f77b4;stroke:#1f77b4;" x="571.909091" xlink:href="#mbfda971940" y="489.034238"/>
     <use style="fill:#1f77b4;stroke:#1f77b4;" x="597.272727" xlink:href="#mbfda971940" y="333.851757"/>
     <use style="fill:#1f77b4;stroke:#1f77b4;" x="622.636364" xlink:href="#mbfda971940" y="208.072927"/>
    </g>
   </g>
   <g id="line2d_17">
    <defs>
     <path d="M 0 3 
C 0.795609 3 1.55874 2.683901 2.12132 2.12132 
C 2.683901 1.55874 3 0.795609 3 0 
C 3 -0.795609 2.683901 -1.55874 2.12132 -2.12132 
C 1.55874 -2.683901 0.795609 -3 0 -3 
C -0.795609 -3 -1.55874 -2.683901 -2.12132 -2.12132 
C -2.683901 -1.55874 -3 -0.795609 -3 0 
C -3 0.795609 -2.683901 1.55874 -2.12132 2.12132 
C -1.55874 2.683901 -0.795609 3 0 3 
z
" id="m68d5e6ccc0" style="stroke:#ff7f0e;"/>
    </defs>
    <g clip-path="url(#p889164820c)">
     <use style="fill:#ff7f0e;stroke:#ff7f0e;" x="115.363636" xlink:href="#m68d5e6ccc0" y="358.2"/>
     <use style="fill:#ff7f0e;stroke:#ff7f0e;" x="140.727273" xlink:href="#m68d5e6ccc0" y="178.080426"/>
     <use style="fill:#ff7f0e;stroke:#ff7f0e;" x="166.090909" xlink:href="#m68d5e6ccc0" y="199.196942"/>
     <use style="fill:#ff7f0e;stroke:#ff7f0e;" x="191.454545" xlink:href="#m68d5e6ccc0" y="327.085883"/>
     <use style="fill:#ff7f0e;stroke:#ff7f0e;" x="216.818182" xlink:href="#m68d5e6ccc0" y="427.173811"/>
     <use style="fill:#ff7f0e;stroke:#ff7f0e;" x="242.181818" xlink:href="#m68d5e6ccc0" y="437.959256"/>
     <use style="fill:#ff7f0e;stroke:#ff7f0e;" x="267.545455" xlink:href="#m68d5e6ccc0" y="386.773861"/>
     <use style="fill:#ff7f0e;stroke:#ff7f0e;" x="292.909091" xlink:href="#m68d5e6ccc0" y="335.047539"/>
     <use style="fill:#ff7f0e;stroke:#ff7f0e;" x="318.272727" xlink:href="#m68d5e6ccc0" y="320.43092"/>
     <use style="fill:#ff7f0e;stroke:#ff7f0e;" x="343.636364" xlink:href="#m68d5e6ccc0" y="338.901497"/>
     <use style="fill:#ff7f0e;stroke:#ff7f0e;" x="369" xlink:href="#m68d5e6ccc0" y="364.072083"/>
     <use style="fill:#ff7f0e;stroke:#ff7f0e;" x="394.363636" xlink:href="#m68d5e6ccc0" y="375.088797"/>
     <use style="fill:#ff7f0e;stroke:#ff7f0e;" x="419.727273" xlink:href="#m68d5e6ccc0" y="369.547222"/>
     <use style="fill:#ff7f0e;stroke:#ff7f0e;" x="445.090909" xlink:href="#m68d5e6ccc0" y="357.973345"/>
     <use style="fill:#ff7f0e;stroke:#ff7f0e;" x="470.454545" xlink:href="#m68d5e6ccc0" y="351.117479"/>
     <use style="fill:#ff7f0e;stroke:#ff7f0e;" x="495.818182" xlink:href="#m68d5e6ccc0" y="352.08528"/>
     <use style="fill:#ff7f0e;stroke:#ff7f0e;" x="521.181818" xlink:href="#m68d5e6ccc0" y="357.097912"/>
     <use style="fill:#ff7f0e;stroke:#ff7f0e;" x="546.545455" xlink:href="#m68d5e6ccc0" y="360.935882"/>
     <use style="fill:#ff7f0e;stroke:#ff7f0e;" x="571.909091" xlink:href="#m68d5e6ccc0" y="361.283588"/>
     <use style="fill:#ff7f0e;stroke:#ff7f0e;" x="597.272727" xlink:href="#m68d5e6ccc0" y="359.262684"/>
     <use style="fill:#ff7f0e;stroke:#ff7f0e;" x="622.636364" xlink:href="#m68d5e6ccc0" y="357.267809"/>
    </g>
   </g>
   <g id="line2d_18">
    <defs>
     <path d="M 0 3 
C 0.795609 3 1.55874 2.683901 2.12132 2.12132 
C 2.683901 1.55874 3 0.795609 3 0 
C 3 -0.795609 2.683901 -1.55874 2.12132 -2.12132 
C 1.55874 -2.683901 0.795609 -3 0 -3 
C -0.795609 -3 -1.55874 -2.683901 -2.12132 -2.12132 
C -2.683901 -1.55874 -3 -0.795609 -3 0 
C -3 0.795609 -2.683901 1.55874 -2.12132 2.12132 
C -1.55874 2.683901 -0.795609 3 0 3 
z
" id="m4ccb60db6e" style="stroke:#2ca02c;"/>
    </defs>
    <g clip-path="url(#p889164820c)">
     <use style="fill:#2ca02c;stroke:#2ca02c;" x="115.363636" xlink:href="#m4ccb60db6e" y="358.2"/>
     <use style="fill:#2ca02c;stroke:#2ca02c;" x="140.727273" xlink:href="#m4ccb60db6e" y="310.553368"/>
     <use style="fill:#2ca02c;stroke:#2ca02c;" x="166.090909" xlink:href="#m4ccb60db6e" y="319.133069"/>
     <use style="fill:#2ca02c;stroke:#2ca02c;" x="191.454545" xlink:href="#m4ccb60db6e" y="326.488869"/>
     <use style="fill:#2ca02c;stroke:#2ca02c;" x="216.818182" xlink:href="#m4ccb60db6e" y="332.462305"/>
     <use style="fill:#2ca02c;stroke:#2ca02c;" x="242.181818" xlink:href="#m4ccb60db6e" y="337.310544"/>
     <use style="fill:#2ca02c;stroke:#2ca02c;" x="267.545455" xlink:href="#m4ccb60db6e" y="341.245516"/>
     <use style="fill:#2ca02c;stroke:#2ca02c;" x="292.909091" xlink:href="#m4ccb60db6e" y="344.439252"/>
     <use style="fill:#2ca02c;stroke:#2ca02c;" x="318.272727" xlink:href="#m4ccb60db6e" y="347.03138"/>
     <use style="fill:#2ca02c;stroke:#2ca02c;" x="343.636364" xlink:href="#m4ccb60db6e" y="349.135226"/>
     <use style="fill:#2ca02c;stroke:#2ca02c;" x="369" xlink:href="#m4ccb60db6e" y="350.842768"/>
     <use style="fill:#2ca02c;stroke:#2ca02c;" x="394.363636" xlink:href="#m4ccb60db6e" y="352.228659"/>
     <use style="fill:#2ca02c;stroke:#2ca02c;" x="419.727273" xlink:href="#m4ccb60db6e" y="353.353487"/>
     <use style="fill:#2ca02c;stroke:#2ca02c;" x="445.090909" xlink:href="#m4ccb60db6e" y="354.26643"/>
     <use style="fill:#2ca02c;stroke:#2ca02c;" x="470.454545" xlink:href="#m4ccb60db6e" y="355.007402"/>
     <use style="fill:#2ca02c;stroke:#2ca02c;" x="495.818182" xlink:href="#m4ccb60db6e" y="355.608795"/>
     <use style="fill:#2ca02c;stroke:#2ca02c;" x="521.181818" xlink:href="#m4ccb60db6e" y="356.096903"/>
     <use style="fill:#2ca02c;stroke:#2ca02c;" x="546.545455" xlink:href="#m4ccb60db6e" y="356.493066"/>
     <use style="fill:#2ca02c;stroke:#2ca02c;" x="571.909091" xlink:href="#m4ccb60db6e" y="356.814603"/>
     <use style="fill:#2ca02c;stroke:#2ca02c;" x="597.272727" xlink:href="#m4ccb60db6e" y="357.075572"/>
     <use style="fill:#2ca02c;stroke:#2ca02c;" x="622.636364" xlink:href="#m4ccb60db6e" y="357.287382"/>
    </g>
   </g>
   <g id="line2d_19">
    <defs>
     <path d="M 0 3 
C 0.795609 3 1.55874 2.683901 2.12132 2.12132 
C 2.683901 1.55874 3 0.795609 3 0 
C 3 -0.795609 2.683901 -1.55874 2.12132 -2.12132 
C 1.55874 -2.683901 0.795609 -3 0 -3 
C -0.795609 -3 -1.55874 -2.683901 -2.12132 -2.12132 
C -2.683901 -1.55874 -3 -0.795609 -3 0 
C -3 0.795609 -2.683901 1.55874 -2.12132 2.12132 
C -1.55874 2.683901 -0.795609 3 0 3 
z
" id="ma2aacb76ac" style="stroke:#d62728;"/>
    </defs>
    <g clip-path="url(#p889164820c)">
     <use style="fill:#d62728;stroke:#d62728;" x="115.363636" xlink:href="#ma2aacb76ac" y="358.2"/>
     <use style="fill:#d62728;stroke:#d62728;" x="140.727273" xlink:href="#ma2aacb76ac" y="352.867415"/>
     <use style="fill:#d62728;stroke:#d62728;" x="166.090909" xlink:href="#ma2aacb76ac" y="352.973049"/>
     <use style="fill:#d62728;stroke:#d62728;" x="191.454545" xlink:href="#ma2aacb76ac" y="353.076591"/>
     <use style="fill:#d62728;stroke:#d62728;" x="216.818182" xlink:href="#ma2aacb76ac" y="353.178081"/>
     <use style="fill:#d62728;stroke:#d62728;" x="242.181818" xlink:href="#ma2aacb76ac" y="353.277561"/>
     <use style="fill:#d62728;stroke:#d62728;" x="267.545455" xlink:href="#ma2aacb76ac" y="353.375071"/>
     <use style="fill:#d62728;stroke:#d62728;" x="292.909091" xlink:href="#ma2aacb76ac" y="353.470648"/>
     <use style="fill:#d62728;stroke:#d62728;" x="318.272727" xlink:href="#ma2aacb76ac" y="353.564333"/>
     <use style="fill:#d62728;stroke:#d62728;" x="343.636364" xlink:href="#ma2aacb76ac" y="353.656162"/>
     <use style="fill:#d62728;stroke:#d62728;" x="369" xlink:href="#ma2aacb76ac" y="353.746171"/>
     <use style="fill:#d62728;stroke:#d62728;" x="394.363636" xlink:href="#ma2aacb76ac" y="353.834398"/>
     <use style="fill:#d62728;stroke:#d62728;" x="419.727273" xlink:href="#ma2aacb76ac" y="353.920877"/>
     <use style="fill:#d62728;stroke:#d62728;" x="445.090909" xlink:href="#ma2aacb76ac" y="354.005643"/>
     <use style="fill:#d62728;stroke:#d62728;" x="470.454545" xlink:href="#ma2aacb76ac" y="354.08873"/>
     <use style="fill:#d62728;stroke:#d62728;" x="495.818182" xlink:href="#ma2aacb76ac" y="354.170171"/>
     <use style="fill:#d62728;stroke:#d62728;" x="521.181818" xlink:href="#ma2aacb76ac" y="354.249998"/>
     <use style="fill:#d62728;stroke:#d62728;" x="546.545455" xlink:href="#ma2aacb76ac" y="354.328244"/>
     <use style="fill:#d62728;stroke:#d62728;" x="571.909091" xlink:href="#ma2aacb76ac" y="354.404941"/>
     <use style="fill:#d62728;stroke:#d62728;" x="597.272727" xlink:href="#ma2aacb76ac" y="354.480118"/>
     <use style="fill:#d62728;stroke:#d62728;" x="622.636364" xlink:href="#ma2aacb76ac" y="354.553806"/>
    </g>
   </g>
   <g id="patch_3">
    <path d="M 90 630 
L 90 86.4 
" style="fill:none;stroke:#000000;stroke-linecap:square;stroke-linejoin:miter;stroke-width:0.8;"/>
   </g>
   <g id="patch_4">
    <path d="M 648 630 
L 648 86.4 
" style="fill:none;stroke:#000000;stroke-linecap:square;stroke-linejoin:miter;stroke-width:0.8;"/>
   </g>
   <g id="patch_5">
    <path d="M 90 630 
L 648 630 
" style="fill:none;stroke:#000000;stroke-linecap:square;stroke-linejoin:miter;stroke-width:0.8;"/>
   </g>
   <g id="patch_6">
    <path d="M 90 86.4 
L 648 86.4 
" style="fill:none;stroke:#000000;stroke-linecap:square;stroke-linejoin:miter;stroke-width:0.8;"/>
   </g>
   <g id="legend_1">
    <g id="patch_7">
     <path d="M 478.56 624 
L 639.6 624 
Q 642 624 642 621.6 
L 642 481.68 
Q 642 479.28 639.6 479.28 
L 478.56 479.28 
Q 476.16 479.28 476.16 481.68 
L 476.16 621.6 
Q 476.16 624 478.56 624 
z
" style="fill:#ffffff;opacity:0.8;stroke:#cccccc;stroke-linejoin:miter;"/>
    </g>
    <g id="line2d_20">
     <path d="M 480.96 489 
L 504.96 489 
" style="fill:none;stroke:#1f77b4;stroke-linecap:square;stroke-width:1.5;"/>
    </g>
    <g id="line2d_21"/>
    <g id="text_13">
     <!-- $\gamma=1$ (RK4) -->
     <defs>
      <path d="M 23.296875 46.09375 
L 28.71875 12.3125 
L 54 54.6875 
L 63.53125 54.6875 
L 30.8125 0 
L 26.765625 -20.796875 
L 17.78125 -20.796875 
L 21.828125 0 
L 15.4375 40.828125 
Q 14.453125 46.96875 9.8125 46.96875 
L 7.421875 46.96875 
L 8.890625 54.6875 
L 12.3125 54.6875 
Q 21.921875 54.6875 23.296875 46.09375 
z
" id="DejaVuSans-Oblique-947"/>
      <path d="M 10.59375 45.40625 
L 73.1875 45.40625 
L 73.1875 37.203125 
L 10.59375 37.203125 
z
M 10.59375 25.484375 
L 73.1875 25.484375 
L 73.1875 17.1875 
L 10.59375 17.1875 
z
" id="DejaVuSans-61"/>
      <path id="DejaVuSans-32"/>
      <path d="M 31 75.875 
Q 24.46875 64.65625 21.28125 53.65625 
Q 18.109375 42.671875 18.109375 31.390625 
Q 18.109375 20.125 21.3125 9.0625 
Q 24.515625 -2 31 -13.1875 
L 23.1875 -13.1875 
Q 15.875 -1.703125 12.234375 9.375 
Q 8.59375 20.453125 8.59375 31.390625 
Q 8.59375 42.28125 12.203125 53.3125 
Q 15.828125 64.359375 23.1875 75.875 
z
" id="DejaVuSans-40"/>
      <path d="M 44.390625 34.1875 
Q 47.5625 33.109375 50.5625 29.59375 
Q 53.5625 26.078125 56.59375 19.921875 
L 66.609375 0 
L 56 0 
L 46.6875 18.703125 
Q 43.0625 26.03125 39.671875 28.421875 
Q 36.28125 30.8125 30.421875 30.8125 
L 19.671875 30.8125 
L 19.671875 0 
L 9.8125 0 
L 9.8125 72.90625 
L 32.078125 72.90625 
Q 44.578125 72.90625 50.734375 67.671875 
Q 56.890625 62.453125 56.890625 51.90625 
Q 56.890625 45.015625 53.6875 40.46875 
Q 50.484375 35.9375 44.390625 34.1875 
z
M 19.671875 64.796875 
L 19.671875 38.921875 
L 32.078125 38.921875 
Q 39.203125 38.921875 42.84375 42.21875 
Q 46.484375 45.515625 46.484375 51.90625 
Q 46.484375 58.296875 42.84375 61.546875 
Q 39.203125 64.796875 32.078125 64.796875 
z
" id="DejaVuSans-82"/>
      <path d="M 9.8125 72.90625 
L 19.671875 72.90625 
L 19.671875 42.09375 
L 52.390625 72.90625 
L 65.09375 72.90625 
L 28.90625 38.921875 
L 67.671875 0 
L 54.6875 0 
L 19.671875 35.109375 
L 19.671875 0 
L 9.8125 0 
z
" id="DejaVuSans-75"/>
      <path d="M 8.015625 75.875 
L 15.828125 75.875 
Q 23.140625 64.359375 26.78125 53.3125 
Q 30.421875 42.28125 30.421875 31.390625 
Q 30.421875 20.453125 26.78125 9.375 
Q 23.140625 -1.703125 15.828125 -13.1875 
L 8.015625 -13.1875 
Q 14.5 -2 17.703125 9.0625 
Q 20.90625 20.125 20.90625 31.390625 
Q 20.90625 42.671875 17.703125 53.65625 
Q 14.5 64.65625 8.015625 75.875 
z
" id="DejaVuSans-41"/>
     </defs>
     <g transform="translate(514.56 493.2)scale(0.12 -0.12)">
      <use transform="translate(0 0.125)" xlink:href="#DejaVuSans-Oblique-947"/>
      <use transform="translate(78.662109 0.125)" xlink:href="#DejaVuSans-61"/>
      <use transform="translate(181.933594 0.125)" xlink:href="#DejaVuSans-49"/>
      <use transform="translate(245.556641 0.125)" xlink:href="#DejaVuSans-32"/>
      <use transform="translate(277.34375 0.125)" xlink:href="#DejaVuSans-40"/>
      <use transform="translate(316.357422 0.125)" xlink:href="#DejaVuSans-82"/>
      <use transform="translate(385.839844 0.125)" xlink:href="#DejaVuSans-75"/>
      <use transform="translate(451.416016 0.125)" xlink:href="#DejaVuSans-52"/>
      <use transform="translate(515.039062 0.125)" xlink:href="#DejaVuSans-41"/>
     </g>
    </g>
    <g id="line2d_22">
     <path d="M 480.96 506.64 
L 504.96 506.64 
" style="fill:none;stroke:#ff7f0e;stroke-linecap:square;stroke-width:1.5;"/>
    </g>
    <g id="line2d_23"/>
    <g id="text_14">
     <!-- $\gamma=10$ (RK4) -->
     <g transform="translate(514.56 510.84)scale(0.12 -0.12)">
      <use transform="translate(0 0.125)" xlink:href="#DejaVuSans-Oblique-947"/>
      <use transform="translate(78.662109 0.125)" xlink:href="#DejaVuSans-61"/>
      <use transform="translate(181.933594 0.125)" xlink:href="#DejaVuSans-49"/>
      <use transform="translate(245.556641 0.125)" xlink:href="#DejaVuSans-48"/>
      <use transform="translate(309.179688 0.125)" xlink:href="#DejaVuSans-32"/>
      <use transform="translate(340.966797 0.125)" xlink:href="#DejaVuSans-40"/>
      <use transform="translate(379.980469 0.125)" xlink:href="#DejaVuSans-82"/>
      <use transform="translate(449.462891 0.125)" xlink:href="#DejaVuSans-75"/>
      <use transform="translate(515.039062 0.125)" xlink:href="#DejaVuSans-52"/>
      <use transform="translate(578.662109 0.125)" xlink:href="#DejaVuSans-41"/>
     </g>
    </g>
    <g id="line2d_24">
     <path d="M 480.96 524.28 
L 504.96 524.28 
" style="fill:none;stroke:#2ca02c;stroke-linecap:square;stroke-width:1.5;"/>
    </g>
    <g id="line2d_25"/>
    <g id="text_15">
     <!-- $\gamma=100$ (RK4) -->
     <g transform="translate(514.56 528.48)scale(0.12 -0.12)">
      <use transform="translate(0 0.125)" xlink:href="#DejaVuSans-Oblique-947"/>
      <use transform="translate(78.662109 0.125)" xlink:href="#DejaVuSans-61"/>
      <use transform="translate(181.933594 0.125)" xlink:href="#DejaVuSans-49"/>
      <use transform="translate(245.556641 0.125)" xlink:href="#DejaVuSans-48"/>
      <use transform="translate(309.179688 0.125)" xlink:href="#DejaVuSans-48"/>
      <use transform="translate(372.802734 0.125)" xlink:href="#DejaVuSans-32"/>
      <use transform="translate(404.589844 0.125)" xlink:href="#DejaVuSans-40"/>
      <use transform="translate(443.603516 0.125)" xlink:href="#DejaVuSans-82"/>
      <use transform="translate(513.085938 0.125)" xlink:href="#DejaVuSans-75"/>
      <use transform="translate(578.662109 0.125)" xlink:href="#DejaVuSans-52"/>
      <use transform="translate(642.285156 0.125)" xlink:href="#DejaVuSans-41"/>
     </g>
    </g>
    <g id="line2d_26">
     <path d="M 480.96 541.92 
L 504.96 541.92 
" style="fill:none;stroke:#d62728;stroke-linecap:square;stroke-width:1.5;"/>
    </g>
    <g id="line2d_27"/>
    <g id="text_16">
     <!-- $\gamma=1000$ (RK4) -->
     <g transform="translate(514.56 546.12)scale(0.12 -0.12)">
      <use transform="translate(0 0.125)" xlink:href="#DejaVuSans-Oblique-947"/>
      <use transform="translate(78.662109 0.125)" xlink:href="#DejaVuSans-61"/>
      <use transform="translate(181.933594 0.125)" xlink:href="#DejaVuSans-49"/>
      <use transform="translate(245.556641 0.125)" xlink:href="#DejaVuSans-48"/>
      <use transform="translate(309.179688 0.125)" xlink:href="#DejaVuSans-48"/>
      <use transform="translate(372.802734 0.125)" xlink:href="#DejaVuSans-48"/>
      <use transform="translate(436.425781 0.125)" xlink:href="#DejaVuSans-32"/>
      <use transform="translate(468.212891 0.125)" xlink:href="#DejaVuSans-40"/>
      <use transform="translate(507.226562 0.125)" xlink:href="#DejaVuSans-82"/>
      <use transform="translate(576.708984 0.125)" xlink:href="#DejaVuSans-75"/>
      <use transform="translate(642.285156 0.125)" xlink:href="#DejaVuSans-52"/>
      <use transform="translate(705.908203 0.125)" xlink:href="#DejaVuSans-41"/>
     </g>
    </g>
    <g id="line2d_28"/>
    <g id="line2d_29">
     <g>
      <use style="fill:#1f77b4;stroke:#1f77b4;" x="492.96" xlink:href="#mbfda971940" y="559.56"/>
     </g>
    </g>
    <g id="text_17">
     <!-- $\gamma=1$ (vec+diag) -->
     <defs>
      <path d="M 2.984375 54.6875 
L 12.5 54.6875 
L 29.59375 8.796875 
L 46.6875 54.6875 
L 56.203125 54.6875 
L 35.6875 0 
L 23.484375 0 
z
" id="DejaVuSans-118"/>
      <path d="M 56.203125 29.59375 
L 56.203125 25.203125 
L 14.890625 25.203125 
Q 15.484375 15.921875 20.484375 11.0625 
Q 25.484375 6.203125 34.421875 6.203125 
Q 39.59375 6.203125 44.453125 7.46875 
Q 49.3125 8.734375 54.109375 11.28125 
L 54.109375 2.78125 
Q 49.265625 0.734375 44.1875 -0.34375 
Q 39.109375 -1.421875 33.890625 -1.421875 
Q 20.796875 -1.421875 13.15625 6.1875 
Q 5.515625 13.8125 5.515625 26.8125 
Q 5.515625 40.234375 12.765625 48.109375 
Q 20.015625 56 32.328125 56 
Q 43.359375 56 49.78125 48.890625 
Q 56.203125 41.796875 56.203125 29.59375 
z
M 47.21875 32.234375 
Q 47.125 39.59375 43.09375 43.984375 
Q 39.0625 48.390625 32.421875 48.390625 
Q 24.90625 48.390625 20.390625 44.140625 
Q 15.875 39.890625 15.1875 32.171875 
z
" id="DejaVuSans-101"/>
      <path d="M 48.78125 52.59375 
L 48.78125 44.1875 
Q 44.96875 46.296875 41.140625 47.34375 
Q 37.3125 48.390625 33.40625 48.390625 
Q 24.65625 48.390625 19.8125 42.84375 
Q 14.984375 37.3125 14.984375 27.296875 
Q 14.984375 17.28125 19.8125 11.734375 
Q 24.65625 6.203125 33.40625 6.203125 
Q 37.3125 6.203125 41.140625 7.25 
Q 44.96875 8.296875 48.78125 10.40625 
L 48.78125 2.09375 
Q 45.015625 0.34375 40.984375 -0.53125 
Q 36.96875 -1.421875 32.421875 -1.421875 
Q 20.0625 -1.421875 12.78125 6.34375 
Q 5.515625 14.109375 5.515625 27.296875 
Q 5.515625 40.671875 12.859375 48.328125 
Q 20.21875 56 33.015625 56 
Q 37.15625 56 41.109375 55.140625 
Q 45.0625 54.296875 48.78125 52.59375 
z
" id="DejaVuSans-99"/>
      <path d="M 46 62.703125 
L 46 35.5 
L 73.1875 35.5 
L 73.1875 27.203125 
L 46 27.203125 
L 46 0 
L 37.796875 0 
L 37.796875 27.203125 
L 10.59375 27.203125 
L 10.59375 35.5 
L 37.796875 35.5 
L 37.796875 62.703125 
z
" id="DejaVuSans-43"/>
      <path d="M 45.40625 46.390625 
L 45.40625 75.984375 
L 54.390625 75.984375 
L 54.390625 0 
L 45.40625 0 
L 45.40625 8.203125 
Q 42.578125 3.328125 38.25 0.953125 
Q 33.9375 -1.421875 27.875 -1.421875 
Q 17.96875 -1.421875 11.734375 6.484375 
Q 5.515625 14.40625 5.515625 27.296875 
Q 5.515625 40.1875 11.734375 48.09375 
Q 17.96875 56 27.875 56 
Q 33.9375 56 38.25 53.625 
Q 42.578125 51.265625 45.40625 46.390625 
z
M 14.796875 27.296875 
Q 14.796875 17.390625 18.875 11.75 
Q 22.953125 6.109375 30.078125 6.109375 
Q 37.203125 6.109375 41.296875 11.75 
Q 45.40625 17.390625 45.40625 27.296875 
Q 45.40625 37.203125 41.296875 42.84375 
Q 37.203125 48.484375 30.078125 48.484375 
Q 22.953125 48.484375 18.875 42.84375 
Q 14.796875 37.203125 14.796875 27.296875 
z
" id="DejaVuSans-100"/>
      <path d="M 9.421875 54.6875 
L 18.40625 54.6875 
L 18.40625 0 
L 9.421875 0 
z
M 9.421875 75.984375 
L 18.40625 75.984375 
L 18.40625 64.59375 
L 9.421875 64.59375 
z
" id="DejaVuSans-105"/>
      <path d="M 34.28125 27.484375 
Q 23.390625 27.484375 19.1875 25 
Q 14.984375 22.515625 14.984375 16.5 
Q 14.984375 11.71875 18.140625 8.90625 
Q 21.296875 6.109375 26.703125 6.109375 
Q 34.1875 6.109375 38.703125 11.40625 
Q 43.21875 16.703125 43.21875 25.484375 
L 43.21875 27.484375 
z
M 52.203125 31.203125 
L 52.203125 0 
L 43.21875 0 
L 43.21875 8.296875 
Q 40.140625 3.328125 35.546875 0.953125 
Q 30.953125 -1.421875 24.3125 -1.421875 
Q 15.921875 -1.421875 10.953125 3.296875 
Q 6 8.015625 6 15.921875 
Q 6 25.140625 12.171875 29.828125 
Q 18.359375 34.515625 30.609375 34.515625 
L 43.21875 34.515625 
L 43.21875 35.40625 
Q 43.21875 41.609375 39.140625 45 
Q 35.0625 48.390625 27.6875 48.390625 
Q 23 48.390625 18.546875 47.265625 
Q 14.109375 46.140625 10.015625 43.890625 
L 10.015625 52.203125 
Q 14.9375 54.109375 19.578125 55.046875 
Q 24.21875 56 28.609375 56 
Q 40.484375 56 46.34375 49.84375 
Q 52.203125 43.703125 52.203125 31.203125 
z
" id="DejaVuSans-97"/>
      <path d="M 45.40625 27.984375 
Q 45.40625 37.75 41.375 43.109375 
Q 37.359375 48.484375 30.078125 48.484375 
Q 22.859375 48.484375 18.828125 43.109375 
Q 14.796875 37.75 14.796875 27.984375 
Q 14.796875 18.265625 18.828125 12.890625 
Q 22.859375 7.515625 30.078125 7.515625 
Q 37.359375 7.515625 41.375 12.890625 
Q 45.40625 18.265625 45.40625 27.984375 
z
M 54.390625 6.78125 
Q 54.390625 -7.171875 48.1875 -13.984375 
Q 42 -20.796875 29.203125 -20.796875 
Q 24.46875 -20.796875 20.265625 -20.09375 
Q 16.0625 -19.390625 12.109375 -17.921875 
L 12.109375 -9.1875 
Q 16.0625 -11.328125 19.921875 -12.34375 
Q 23.78125 -13.375 27.78125 -13.375 
Q 36.625 -13.375 41.015625 -8.765625 
Q 45.40625 -4.15625 45.40625 5.171875 
L 45.40625 9.625 
Q 42.625 4.78125 38.28125 2.390625 
Q 33.9375 0 27.875 0 
Q 17.828125 0 11.671875 7.65625 
Q 5.515625 15.328125 5.515625 27.984375 
Q 5.515625 40.671875 11.671875 48.328125 
Q 17.828125 56 27.875 56 
Q 33.9375 56 38.28125 53.609375 
Q 42.625 51.21875 45.40625 46.390625 
L 45.40625 54.6875 
L 54.390625 54.6875 
z
" id="DejaVuSans-103"/>
     </defs>
     <g transform="translate(514.56 563.76)scale(0.12 -0.12)">
      <use transform="translate(0 0.015625)" xlink:href="#DejaVuSans-Oblique-947"/>
      <use transform="translate(78.662109 0.015625)" xlink:href="#DejaVuSans-61"/>
      <use transform="translate(181.933594 0.015625)" xlink:href="#DejaVuSans-49"/>
      <use transform="translate(245.556641 0.015625)" xlink:href="#DejaVuSans-32"/>
      <use transform="translate(277.34375 0.015625)" xlink:href="#DejaVuSans-40"/>
      <use transform="translate(316.357422 0.015625)" xlink:href="#DejaVuSans-118"/>
      <use transform="translate(375.537109 0.015625)" xlink:href="#DejaVuSans-101"/>
      <use transform="translate(437.060547 0.015625)" xlink:href="#DejaVuSans-99"/>
      <use transform="translate(492.041016 0.015625)" xlink:href="#DejaVuSans-43"/>
      <use transform="translate(575.830078 0.015625)" xlink:href="#DejaVuSans-100"/>
      <use transform="translate(639.306641 0.015625)" xlink:href="#DejaVuSans-105"/>
      <use transform="translate(667.089844 0.015625)" xlink:href="#DejaVuSans-97"/>
      <use transform="translate(728.369141 0.015625)" xlink:href="#DejaVuSans-103"/>
      <use transform="translate(791.845703 0.015625)" xlink:href="#DejaVuSans-41"/>
     </g>
    </g>
    <g id="line2d_30"/>
    <g id="line2d_31">
     <g>
      <use style="fill:#ff7f0e;stroke:#ff7f0e;" x="492.96" xlink:href="#m68d5e6ccc0" y="577.2"/>
     </g>
    </g>
    <g id="text_18">
     <!-- $\gamma=10$ (vec+diag) -->
     <g transform="translate(514.56 581.4)scale(0.12 -0.12)">
      <use transform="translate(0 0.015625)" xlink:href="#DejaVuSans-Oblique-947"/>
      <use transform="translate(78.662109 0.015625)" xlink:href="#DejaVuSans-61"/>
      <use transform="translate(181.933594 0.015625)" xlink:href="#DejaVuSans-49"/>
      <use transform="translate(245.556641 0.015625)" xlink:href="#DejaVuSans-48"/>
      <use transform="translate(309.179688 0.015625)" xlink:href="#DejaVuSans-32"/>
      <use transform="translate(340.966797 0.015625)" xlink:href="#DejaVuSans-40"/>
      <use transform="translate(379.980469 0.015625)" xlink:href="#DejaVuSans-118"/>
      <use transform="translate(439.160156 0.015625)" xlink:href="#DejaVuSans-101"/>
      <use transform="translate(500.683594 0.015625)" xlink:href="#DejaVuSans-99"/>
      <use transform="translate(555.664062 0.015625)" xlink:href="#DejaVuSans-43"/>
      <use transform="translate(639.453125 0.015625)" xlink:href="#DejaVuSans-100"/>
      <use transform="translate(702.929688 0.015625)" xlink:href="#DejaVuSans-105"/>
      <use transform="translate(730.712891 0.015625)" xlink:href="#DejaVuSans-97"/>
      <use transform="translate(791.992188 0.015625)" xlink:href="#DejaVuSans-103"/>
      <use transform="translate(855.46875 0.015625)" xlink:href="#DejaVuSans-41"/>
     </g>
    </g>
    <g id="line2d_32"/>
    <g id="line2d_33">
     <g>
      <use style="fill:#2ca02c;stroke:#2ca02c;" x="492.96" xlink:href="#m4ccb60db6e" y="594.84"/>
     </g>
    </g>
    <g id="text_19">
     <!-- $\gamma=100$ (vec+diag) -->
     <g transform="translate(514.56 599.04)scale(0.12 -0.12)">
      <use transform="translate(0 0.015625)" xlink:href="#DejaVuSans-Oblique-947"/>
      <use transform="translate(78.662109 0.015625)" xlink:href="#DejaVuSans-61"/>
      <use transform="translate(181.933594 0.015625)" xlink:href="#DejaVuSans-49"/>
      <use transform="translate(245.556641 0.015625)" xlink:href="#DejaVuSans-48"/>
      <use transform="translate(309.179688 0.015625)" xlink:href="#DejaVuSans-48"/>
      <use transform="translate(372.802734 0.015625)" xlink:href="#DejaVuSans-32"/>
      <use transform="translate(404.589844 0.015625)" xlink:href="#DejaVuSans-40"/>
      <use transform="translate(443.603516 0.015625)" xlink:href="#DejaVuSans-118"/>
      <use transform="translate(502.783203 0.015625)" xlink:href="#DejaVuSans-101"/>
      <use transform="translate(564.306641 0.015625)" xlink:href="#DejaVuSans-99"/>
      <use transform="translate(619.287109 0.015625)" xlink:href="#DejaVuSans-43"/>
      <use transform="translate(703.076172 0.015625)" xlink:href="#DejaVuSans-100"/>
      <use transform="translate(766.552734 0.015625)" xlink:href="#DejaVuSans-105"/>
      <use transform="translate(794.335938 0.015625)" xlink:href="#DejaVuSans-97"/>
      <use transform="translate(855.615234 0.015625)" xlink:href="#DejaVuSans-103"/>
      <use transform="translate(919.091797 0.015625)" xlink:href="#DejaVuSans-41"/>
     </g>
    </g>
    <g id="line2d_34"/>
    <g id="line2d_35">
     <g>
      <use style="fill:#d62728;stroke:#d62728;" x="492.96" xlink:href="#ma2aacb76ac" y="612.48"/>
     </g>
    </g>
    <g id="text_20">
     <!-- $\gamma=1000$ (vec+diag) -->
     <g transform="translate(514.56 616.68)scale(0.12 -0.12)">
      <use transform="translate(0 0.015625)" xlink:href="#DejaVuSans-Oblique-947"/>
      <use transform="translate(78.662109 0.015625)" xlink:href="#DejaVuSans-61"/>
      <use transform="translate(181.933594 0.015625)" xlink:href="#DejaVuSans-49"/>
      <use transform="translate(245.556641 0.015625)" xlink:href="#DejaVuSans-48"/>
      <use transform="translate(309.179688 0.015625)" xlink:href="#DejaVuSans-48"/>
      <use transform="translate(372.802734 0.015625)" xlink:href="#DejaVuSans-48"/>
      <use transform="translate(436.425781 0.015625)" xlink:href="#DejaVuSans-32"/>
      <use transform="translate(468.212891 0.015625)" xlink:href="#DejaVuSans-40"/>
      <use transform="translate(507.226562 0.015625)" xlink:href="#DejaVuSans-118"/>
      <use transform="translate(566.40625 0.015625)" xlink:href="#DejaVuSans-101"/>
      <use transform="translate(627.929688 0.015625)" xlink:href="#DejaVuSans-99"/>
      <use transform="translate(682.910156 0.015625)" xlink:href="#DejaVuSans-43"/>
      <use transform="translate(766.699219 0.015625)" xlink:href="#DejaVuSans-100"/>
      <use transform="translate(830.175781 0.015625)" xlink:href="#DejaVuSans-105"/>
      <use transform="translate(857.958984 0.015625)" xlink:href="#DejaVuSans-97"/>
      <use transform="translate(919.238281 0.015625)" xlink:href="#DejaVuSans-103"/>
      <use transform="translate(982.714844 0.015625)" xlink:href="#DejaVuSans-41"/>
     </g>
    </g>
   </g>
  </g>
 </g>
 <defs>
  <clipPath id="p889164820c">
   <rect height="543.6" width="558" x="90" y="86.4"/>
  </clipPath>
 </defs>
</svg>
